<svg width="1256" height="1562" viewBox="0 0 1256 1562" fill="none" xmlns="http://www.w3.org/2000/svg">
<path d="M294.5 1H1226.5C1241.96 1 1254.5 13.536 1254.5 29V124.5C1254.5 139.964 1241.96 152.5 1226.5 152.5H29C13.536 152.5 1 165.036 1 180.5V425C1 440.464 13.536 453 29 453H1226C1241.46 453 1254 465.536 1254 481V735C1254 750.464 1241.46 763 1226 763H29C13.536 763 1 775.536 1 791V1038C1 1053.46 13.536 1066 29 1066H1226.5C1241.96 1066 1254.5 1078.54 1254.5 1094V1325C1254.5 1340.46 1241.96 1353 1226.5 1353H29.5C14.036 1353 1.5 1365.54 1.5 1381V1561.5" stroke="#111111" stroke-width="2"/>
</svg>
