<svg width="250" height="250" viewBox="0 0 250 250" fill="none" xmlns="http://www.w3.org/2000/svg">
<path d="M232.43 148.965C225.07 168.68 210.03 190.02 188.86 196.34C156.88 205.89 153.06 231.665 95.7796 229.275C86.8496 228.905 78.5946 227.645 71.0096 225.645C66.9346 224.57 63.0496 223.27 59.3646 221.77C25.8996 208.215 8.44461 178.385 6.99461 147.175C5.07961 106.125 33.7246 86.555 52.3396 75.1C70.9546 63.645 93.3896 19.25 149.72 21.155C158.31 21.45 166.875 22.625 175.18 24.875C194.135 30.005 213.4 41.35 224.595 57.935C225.435 59.18 226.235 60.455 227.005 61.755C241.99 87.18 242.465 122.085 232.43 148.965Z" fill="#92E3A9"/>
<g opacity="0.7" filter="url(#filter0_d_382_9008)">
<path d="M232.43 148.965C225.07 168.68 210.03 190.02 188.86 196.34C156.88 205.89 153.06 231.665 95.7796 229.275C86.8496 228.905 78.5946 227.645 71.0096 225.645C66.9346 224.57 63.0496 223.27 59.3646 221.77C25.8996 208.215 8.44461 178.385 6.99461 147.175C5.07961 106.125 33.7246 86.555 52.3396 75.1C70.9546 63.645 93.3896 19.25 149.72 21.155C158.31 21.45 166.875 22.625 175.18 24.875C194.135 30.005 213.4 41.35 224.595 57.935C225.435 59.18 226.235 60.455 227.005 61.755C241.99 87.18 242.465 122.085 232.43 148.965Z" fill="white"/>
</g>
<g opacity="0.2">
<path d="M100.74 21H45.5V176.43H100.74V21Z" stroke="black" stroke-miterlimit="10" stroke-linecap="round"/>
<path d="M45.7949 25.725H100.63L99.3399 21.455" stroke="black" stroke-miterlimit="10" stroke-linecap="round"/>
<path d="M45.7949 30.9H100.63L99.3399 26.625" stroke="black" stroke-miterlimit="10" stroke-linecap="round"/>
<path d="M45.7949 36.0751H100.63L99.3399 31.8" stroke="black" stroke-miterlimit="10" stroke-linecap="round"/>
<path d="M45.7949 41.2496H100.63L99.3399 36.9746" stroke="black" stroke-miterlimit="10" stroke-linecap="round"/>
<path d="M45.7949 46.4254H100.63L99.3399 42.1504" stroke="black" stroke-miterlimit="10" stroke-linecap="round"/>
<path d="M45.7949 51.5999H100.63L99.3399 47.325" stroke="black" stroke-miterlimit="10" stroke-linecap="round"/>
<path d="M45.7949 56.775H100.63L99.3399 52.5" stroke="black" stroke-miterlimit="10" stroke-linecap="round"/>
<path d="M45.7949 61.9501H100.63L99.3399 57.675" stroke="black" stroke-miterlimit="10" stroke-linecap="round"/>
<path d="M45.7949 67.1246H100.63L99.3399 62.8496" stroke="black" stroke-miterlimit="10" stroke-linecap="round"/>
<path d="M45.7949 72.3004H100.63L99.3399 68.0254" stroke="black" stroke-miterlimit="10" stroke-linecap="round"/>
<path d="M45.7949 77.475H100.63L99.3399 73.2" stroke="black" stroke-miterlimit="10" stroke-linecap="round"/>
<path d="M45.7949 82.65H100.63L99.3399 78.375" stroke="black" stroke-miterlimit="10" stroke-linecap="round"/>
<path d="M45.7949 87.825H100.63L99.3399 83.55" stroke="black" stroke-miterlimit="10" stroke-linecap="round"/>
<path d="M45.7949 92.9946H100.63L99.3399 88.7246" stroke="black" stroke-miterlimit="10" stroke-linecap="round"/>
<path d="M45.7949 98.1704H100.63L99.3399 93.9004" stroke="black" stroke-miterlimit="10" stroke-linecap="round"/>
<path d="M45.7949 103.345H100.63L99.3399 99.075" stroke="black" stroke-miterlimit="10" stroke-linecap="round"/>
<path d="M45.7949 108.52H100.63L99.3399 104.25" stroke="black" stroke-miterlimit="10" stroke-linecap="round"/>
<path d="M45.7949 113.695H100.63L99.3399 109.425" stroke="black" stroke-miterlimit="10" stroke-linecap="round"/>
<path d="M45.7949 118.87H100.63L99.3399 114.6" stroke="black" stroke-miterlimit="10" stroke-linecap="round"/>
<path d="M45.7949 124.045H100.63L99.3399 119.775" stroke="black" stroke-miterlimit="10" stroke-linecap="round"/>
<path d="M45.7949 129.22H100.63L99.3399 124.95" stroke="black" stroke-miterlimit="10" stroke-linecap="round"/>
<path d="M45.7949 134.395H100.63L99.3399 130.12" stroke="black" stroke-miterlimit="10" stroke-linecap="round"/>
<path d="M45.7949 139.57H100.63L99.3399 135.295" stroke="black" stroke-miterlimit="10" stroke-linecap="round"/>
<path d="M45.7949 144.745H100.63L99.3399 140.47" stroke="black" stroke-miterlimit="10" stroke-linecap="round"/>
<path d="M45.7949 149.92H100.63L99.3399 145.645" stroke="black" stroke-miterlimit="10" stroke-linecap="round"/>
<path d="M45.7949 155.095H100.63L99.3399 150.82" stroke="black" stroke-miterlimit="10" stroke-linecap="round"/>
<path d="M45.7949 160.27H100.63L99.3399 155.995" stroke="black" stroke-miterlimit="10" stroke-linecap="round"/>
<path d="M45.7949 165.445H100.63L99.3399 161.17" stroke="black" stroke-miterlimit="10" stroke-linecap="round"/>
<path d="M45.7949 170.62H100.63L99.3399 166.345" stroke="black" stroke-miterlimit="10" stroke-linecap="round"/>
</g>
<g opacity="0.2">
<path d="M160.14 21H104.9V176.43H160.14V21Z" stroke="black" stroke-miterlimit="10" stroke-linecap="round"/>
<path d="M105.195 25.725H160.03L158.745 21.455" stroke="black" stroke-miterlimit="10" stroke-linecap="round"/>
<path d="M105.195 30.9H160.03L158.745 26.625" stroke="black" stroke-miterlimit="10" stroke-linecap="round"/>
<path d="M105.195 36.0751H160.03L158.745 31.8" stroke="black" stroke-miterlimit="10" stroke-linecap="round"/>
<path d="M105.195 41.2496H160.03L158.745 36.9746" stroke="black" stroke-miterlimit="10" stroke-linecap="round"/>
<path d="M105.195 46.4254H160.03L158.745 42.1504" stroke="black" stroke-miterlimit="10" stroke-linecap="round"/>
<path d="M105.195 51.5999H160.03L158.745 47.325" stroke="black" stroke-miterlimit="10" stroke-linecap="round"/>
<path d="M105.195 56.775H160.03L158.745 52.5" stroke="black" stroke-miterlimit="10" stroke-linecap="round"/>
<path d="M105.195 61.9501H160.03L158.745 57.675" stroke="black" stroke-miterlimit="10" stroke-linecap="round"/>
<path d="M105.195 67.1246H160.03L158.745 62.8496" stroke="black" stroke-miterlimit="10" stroke-linecap="round"/>
<path d="M105.195 72.3004H160.03L158.745 68.0254" stroke="black" stroke-miterlimit="10" stroke-linecap="round"/>
<path d="M105.195 77.475H160.03L158.745 73.2" stroke="black" stroke-miterlimit="10" stroke-linecap="round"/>
<path d="M105.195 82.65H160.03L158.745 78.375" stroke="black" stroke-miterlimit="10" stroke-linecap="round"/>
<path d="M105.195 87.825H160.03L158.745 83.55" stroke="black" stroke-miterlimit="10" stroke-linecap="round"/>
<path d="M105.195 92.9946H160.03L158.745 88.7246" stroke="black" stroke-miterlimit="10" stroke-linecap="round"/>
<path d="M105.195 98.1704H160.03L158.745 93.9004" stroke="black" stroke-miterlimit="10" stroke-linecap="round"/>
<path d="M105.195 103.345H160.03L158.745 99.075" stroke="black" stroke-miterlimit="10" stroke-linecap="round"/>
<path d="M105.195 108.52H160.03L158.745 104.25" stroke="black" stroke-miterlimit="10" stroke-linecap="round"/>
<path d="M105.195 113.695H160.03L158.745 109.425" stroke="black" stroke-miterlimit="10" stroke-linecap="round"/>
<path d="M105.195 118.87H160.03L158.745 114.6" stroke="black" stroke-miterlimit="10" stroke-linecap="round"/>
<path d="M105.195 124.045H160.03L158.745 119.775" stroke="black" stroke-miterlimit="10" stroke-linecap="round"/>
<path d="M105.195 129.22H160.03L158.745 124.95" stroke="black" stroke-miterlimit="10" stroke-linecap="round"/>
<path d="M105.195 134.395H160.03L158.745 130.12" stroke="black" stroke-miterlimit="10" stroke-linecap="round"/>
<path d="M105.195 139.57H160.03L158.745 135.295" stroke="black" stroke-miterlimit="10" stroke-linecap="round"/>
<path d="M105.195 144.745H160.03L158.745 140.47" stroke="black" stroke-miterlimit="10" stroke-linecap="round"/>
<path d="M105.195 149.92H160.03L158.745 145.645" stroke="black" stroke-miterlimit="10" stroke-linecap="round"/>
<path d="M105.195 155.095H160.03L158.745 150.82" stroke="black" stroke-miterlimit="10" stroke-linecap="round"/>
<path d="M105.195 160.27H160.03L158.745 155.995" stroke="black" stroke-miterlimit="10" stroke-linecap="round"/>
<path d="M105.195 165.445H160.03L158.745 161.17" stroke="black" stroke-miterlimit="10" stroke-linecap="round"/>
<path d="M105.195 170.62H160.03L158.745 166.345" stroke="black" stroke-miterlimit="10" stroke-linecap="round"/>
</g>
<g opacity="0.3">
<path d="M20.835 30.835H11.835V39.835H20.835V30.835Z" stroke="black" stroke-miterlimit="10" stroke-linecap="round"/>
<path d="M20.835 46.1649H11.835V55.1649H20.835V46.1649Z" stroke="black" stroke-miterlimit="10" stroke-linecap="round"/>
<path d="M24.165 35.4999H37.835" stroke="black" stroke-miterlimit="10" stroke-linecap="round"/>
<path d="M24.165 50.4999H37.835" stroke="black" stroke-miterlimit="10" stroke-linecap="round"/>
<path d="M13.835 33.4999L15.165 36.1649L21.165 27.1649" stroke="black" stroke-miterlimit="10" stroke-linecap="round"/>
</g>
<g opacity="0.3">
<path d="M153.835 210.335H144.835V219.335H153.835V210.335Z" stroke="black" stroke-miterlimit="10" stroke-linecap="round"/>
<path d="M153.835 225.665H144.835V234.665H153.835V225.665Z" stroke="black" stroke-miterlimit="10" stroke-linecap="round"/>
<path d="M157.165 215H170.835" stroke="black" stroke-miterlimit="10" stroke-linecap="round"/>
<path d="M157.165 230H170.835" stroke="black" stroke-miterlimit="10" stroke-linecap="round"/>
<path d="M146.835 213L148.165 215.665L154.165 206.665" stroke="black" stroke-miterlimit="10" stroke-linecap="round"/>
</g>
<g opacity="0.3">
<path d="M184 26H175V35H184V26Z" stroke="black" stroke-miterlimit="10" stroke-linecap="round"/>
<path d="M184 41.335H175V50.335H184V41.335Z" stroke="black" stroke-miterlimit="10" stroke-linecap="round"/>
<path d="M187.335 30.6649H201" stroke="black" stroke-miterlimit="10" stroke-linecap="round"/>
<path d="M187.335 45.6649H201" stroke="black" stroke-miterlimit="10" stroke-linecap="round"/>
<path d="M177 28.665L178.335 31.335L184.335 22.335" stroke="black" stroke-miterlimit="10" stroke-linecap="round"/>
</g>
<path d="M235.26 224.43H242.7" stroke="#263238" stroke-miterlimit="10" stroke-linecap="round" stroke-linejoin="round"/>
<path d="M12.5 224.43H231.795" stroke="#263238" stroke-miterlimit="10" stroke-linecap="round" stroke-linejoin="round"/>
<path d="M39.7557 190.875C42.9727 190.875 45.5807 184.036 45.5807 175.6C45.5807 167.164 42.9727 160.325 39.7557 160.325C36.5386 160.325 33.9307 167.164 33.9307 175.6C33.9307 184.036 36.5386 190.875 39.7557 190.875Z" fill="#92E3A9" stroke="#263238" stroke-miterlimit="10"/>
<path d="M57.8607 166.177C59.681 160.447 59.134 155.16 56.6389 154.367C54.1439 153.574 50.6456 157.576 48.8253 163.306C47.005 169.036 47.5519 174.323 50.047 175.116C52.542 175.909 56.0403 171.906 57.8607 166.177Z" fill="#92E3A9" stroke="#263238" stroke-miterlimit="10"/>
<path d="M15.1204 200.731C9.19537 199.726 4.74037 196.821 5.18037 194.241C5.61537 191.661 10.7754 190.386 16.7054 191.386C22.6304 192.391 27.0854 195.296 26.6454 197.876C26.2054 200.456 21.0454 201.731 15.1204 200.731Z" fill="#92E3A9" stroke="#263238" stroke-miterlimit="10"/>
<path d="M63.3347 186.6C68.2852 181.69 70.4619 175.858 68.1965 173.573C65.931 171.289 60.0813 173.418 55.1307 178.328C50.1802 183.238 48.0035 189.07 50.269 191.354C52.5344 193.639 58.3841 191.51 63.3347 186.6Z" fill="#92E3A9" stroke="#263238" stroke-miterlimit="10"/>
<path d="M29.2158 173.14C34.0008 180.085 35.4308 187.41 32.4008 189.495C29.3708 191.58 23.0358 187.645 18.2508 180.695C13.4658 173.75 12.0358 166.425 15.0658 164.34C18.0958 162.255 24.4308 166.195 29.2158 173.14Z" fill="#92E3A9" stroke="#263238" stroke-miterlimit="10"/>
<path d="M40.165 190.11L40.615 211.11" stroke="#263238" stroke-miterlimit="10" stroke-linecap="round"/>
<path d="M39.6201 169.92L40.1651 190.11" stroke="#263238" stroke-miterlimit="10" stroke-linecap="round"/>
<path d="M39.6601 166.625L39.6201 168.17" stroke="#263238" stroke-miterlimit="10" stroke-linecap="round"/>
<path d="M32.3809 188.5C35.3009 194.63 37.6759 202.075 38.1309 210.535" stroke="#263238" stroke-miterlimit="10" stroke-linecap="round"/>
<path d="M22.3809 173.2C25.0959 176.335 29.0859 181.58 32.3859 188.505" stroke="#263238" stroke-miterlimit="10" stroke-linecap="round"/>
<path d="M19.2305 169.87C19.2305 169.87 19.8355 170.42 20.8255 171.475" stroke="#263238" stroke-miterlimit="10" stroke-linecap="round"/>
<path d="M50.6304 190.66C47.2354 195.355 43.8204 201.5 41.1904 209.395" stroke="#263238" stroke-miterlimit="10" stroke-linecap="round"/>
<path d="M57.3309 182.96C55.2759 184.91 52.9559 187.445 50.6309 190.66" stroke="#263238" stroke-miterlimit="10" stroke-linecap="round"/>
<path d="M64.4809 177.51C64.4809 177.51 62.4059 178.575 59.3809 181.125" stroke="#263238" stroke-miterlimit="10" stroke-linecap="round"/>
<path d="M50.3853 173.7C47.1603 183.85 42.8303 198.855 40.8103 211.875" stroke="#263238" stroke-miterlimit="10" stroke-linecap="round"/>
<path d="M52.3507 167.675C51.7757 169.385 51.1107 171.42 50.3857 173.695" stroke="#263238" stroke-miterlimit="10" stroke-linecap="round"/>
<path d="M54.3606 161.851C54.3606 161.851 53.7956 163.406 52.8906 166.071" stroke="#263238" stroke-miterlimit="10" stroke-linecap="round"/>
<path d="M26.3457 196.47C30.3757 198 34.3107 200.945 36.2257 206.53" stroke="#263238" stroke-miterlimit="10" stroke-linecap="round"/>
<path d="M18.9004 194.955C21.0704 195.085 23.7304 195.475 26.3454 196.47" stroke="#263238" stroke-miterlimit="10" stroke-linecap="round"/>
<path d="M14.0752 195.075C14.0752 195.075 14.7952 194.975 15.9752 194.925" stroke="#263238" stroke-miterlimit="10" stroke-linecap="round"/>
<path d="M65.8451 200.731C71.7751 199.726 76.2251 196.821 75.7851 194.241C75.3501 191.661 70.1901 190.386 64.2601 191.386C58.3301 192.391 53.8801 195.296 54.3201 197.876C54.7601 200.456 59.9201 201.731 65.8451 200.731Z" fill="#92E3A9" stroke="#263238" stroke-miterlimit="10"/>
<path d="M54.7501 196.42C50.6751 197.935 46.6751 200.885 44.7451 206.53" stroke="#263238" stroke-miterlimit="10" stroke-linecap="round"/>
<path d="M62.69 194.925C60.45 195.01 57.58 195.37 54.75 196.42" stroke="#263238" stroke-miterlimit="10" stroke-linecap="round"/>
<path d="M66.8905 195.075C66.8905 195.075 66.4155 195.01 65.6055 194.955" stroke="#263238" stroke-miterlimit="10" stroke-linecap="round"/>
<path d="M54.6653 224.375C56.4053 220.735 57.4203 216.535 57.4203 212.355C57.4203 209.765 57.0253 207.285 56.3203 205.005H25.2953C24.5853 207.29 24.1953 209.765 24.1953 212.355C24.1953 216.54 25.2103 220.74 26.9503 224.375H54.6653Z" fill="#263238"/>
<path d="M24.4999 208.439C24.4099 209.004 24.3449 209.579 24.2949 210.159H57.3199C57.2699 209.579 57.1999 209.004 57.1099 208.439H24.4999Z" fill="#7A7A7A"/>
<path d="M56.9648 217.219C57.0698 216.649 57.1598 216.079 57.2248 215.499H24.3848C24.4548 216.074 24.5448 216.649 24.6448 217.219H56.9648Z" fill="#7A7A7A"/>
<path d="M28.2052 212.45C28.2052 213.19 27.6052 213.785 26.8702 213.785C26.1352 213.785 25.5352 213.185 25.5352 212.45C25.5352 211.71 26.1352 211.115 26.8702 211.115C27.6052 211.115 28.2052 211.71 28.2052 212.45Z" fill="#8C8C8C"/>
<path d="M34.8848 212.45C34.8848 213.19 34.2848 213.785 33.5498 213.785C32.8098 213.785 32.2148 213.185 32.2148 212.45C32.2148 211.71 32.8148 211.115 33.5498 211.115C34.2898 211.11 34.8848 211.71 34.8848 212.45Z" fill="#8C8C8C"/>
<path d="M41.5704 212.45C41.5704 213.19 40.9704 213.785 40.2354 213.785C39.4954 213.785 38.9004 213.185 38.9004 212.45C38.9004 211.71 39.5004 211.115 40.2354 211.115C40.9704 211.11 41.5704 211.71 41.5704 212.45Z" fill="#8C8C8C"/>
<path d="M48.2501 212.45C48.2501 213.19 47.6501 213.785 46.9151 213.785C46.1751 213.785 45.5801 213.185 45.5801 212.45C45.5801 211.71 46.1801 211.115 46.9151 211.115C47.6551 211.11 48.2501 211.71 48.2501 212.45Z" fill="#8C8C8C"/>
<path d="M54.9356 212.45C54.9356 213.19 54.3356 213.785 53.6006 213.785C52.8606 213.785 52.2656 213.185 52.2656 212.45C52.2656 211.71 52.8656 211.115 53.6006 211.115C54.3356 211.11 54.9356 211.71 54.9356 212.45Z" fill="#8C8C8C"/>
<path d="M234.219 42.2295H117.079V207.869H234.219V42.2295Z" fill="#263238"/>
<path d="M231.325 39.335H114.185V204.975H231.325V39.335Z" fill="white" stroke="#263238" stroke-miterlimit="10" stroke-linecap="round" stroke-linejoin="round"/>
<path d="M225.574 55.7754H119.119V85.7804H225.574V55.7754Z" fill="white" stroke="#263238" stroke-miterlimit="10" stroke-linecap="round" stroke-linejoin="round"/>
<path d="M154.054 49.6104H119.119V55.7754H154.054V49.6104Z" fill="white" stroke="#263238" stroke-miterlimit="10" stroke-linecap="round" stroke-linejoin="round"/>
<path d="M225.57 49.6104H190.635V55.7754H225.57V49.6104Z" fill="white" stroke="#263238" stroke-miterlimit="10" stroke-linecap="round" stroke-linejoin="round"/>
<path d="M119.119 65.6396H225.574" stroke="#263238" stroke-miterlimit="10" stroke-linecap="round" stroke-linejoin="round"/>
<path d="M119.119 75.0947H225.574" stroke="#263238" stroke-miterlimit="10" stroke-linecap="round" stroke-linejoin="round"/>
<path d="M225.574 95.0195H119.119V125.025H225.574V95.0195Z" fill="white" stroke="#263238" stroke-miterlimit="10" stroke-linecap="round" stroke-linejoin="round"/>
<path d="M119.119 104.885H225.574" stroke="#263238" stroke-miterlimit="10" stroke-linecap="round" stroke-linejoin="round"/>
<path d="M119.119 114.34H225.574" stroke="#263238" stroke-miterlimit="10" stroke-linecap="round" stroke-linejoin="round"/>
<path d="M120.854 58.1846H133.799" stroke="#263238" stroke-miterlimit="10" stroke-linecap="round" stroke-linejoin="round"/>
<path d="M186.875 58.1846H199.82" stroke="#263238" stroke-miterlimit="10" stroke-linecap="round" stroke-linejoin="round"/>
<path d="M120.854 51.1649H133.799" stroke="#263238" stroke-miterlimit="10" stroke-linecap="round" stroke-linejoin="round"/>
<path d="M191.18 51.1649H204.125" stroke="#263238" stroke-miterlimit="10" stroke-linecap="round" stroke-linejoin="round"/>
<path d="M120.854 67.5399H133.799" stroke="#263238" stroke-miterlimit="10" stroke-linecap="round" stroke-linejoin="round"/>
<path d="M120.854 77.83H133.799" stroke="#263238" stroke-miterlimit="10" stroke-linecap="round" stroke-linejoin="round"/>
<path d="M160.835 77.8301H173.775" stroke="#263238" stroke-miterlimit="10" stroke-linecap="round" stroke-linejoin="round"/>
<path d="M158.75 50.0752H184.635" stroke="#263238" stroke-miterlimit="10" stroke-linecap="round" stroke-linejoin="round"/>
<path d="M158.75 52.7246H184.635" stroke="#263238" stroke-miterlimit="10" stroke-linecap="round" stroke-linejoin="round"/>
<path d="M156.14 83.4249H162.01" stroke="#263238" stroke-miterlimit="10" stroke-linecap="round" stroke-linejoin="round"/>
<path d="M163.475 83.4249H169.345" stroke="#263238" stroke-miterlimit="10" stroke-linecap="round" stroke-linejoin="round"/>
<path d="M170.81 83.4249H176.68" stroke="#263238" stroke-miterlimit="10" stroke-linecap="round" stroke-linejoin="round"/>
<path d="M225.574 131.33H119.119V161.335H225.574V131.33Z" fill="white" stroke="#263238" stroke-miterlimit="10" stroke-linecap="round" stroke-linejoin="round"/>
<path d="M121.455 139.05C121.455 139.05 123.435 134.1 122.245 135.29C121.055 136.48 120.065 140.635 123.035 139.645C126.005 138.655 127.985 134.3 127.195 136.08C126.405 137.86 126.8 139.25 129.175 137.86C131.55 136.475 131.945 136.475 132.145 137.265C132.345 138.055 132.935 137.86 135.115 137.065C137.295 136.275 137.095 137.66 137.095 138.255C137.095 138.85 139.865 138.65 140.855 138.255C141.845 137.86 142.635 136.67 142.835 138.055C143.035 139.44 145.015 139.44 145.015 139.44C145.015 139.44 146.6 139.44 147.39 139.44C148.18 139.44 150.36 139.44 150.36 139.44" stroke="#92E3A9" stroke-miterlimit="10" stroke-linecap="round" stroke-linejoin="round"/>
<path d="M119.119 141.195H225.574" stroke="#263238" stroke-miterlimit="10" stroke-linecap="round" stroke-linejoin="round"/>
<path d="M119.119 150.65H225.574" stroke="#263238" stroke-miterlimit="10" stroke-linecap="round" stroke-linejoin="round"/>
<path d="M120.854 133.74H133.799" stroke="#263238" stroke-miterlimit="10" stroke-linecap="round" stroke-linejoin="round"/>
<path d="M186.875 133.74H199.82" stroke="#263238" stroke-miterlimit="10" stroke-linecap="round" stroke-linejoin="round"/>
<path d="M120.854 143.095H133.799" stroke="#263238" stroke-miterlimit="10" stroke-linecap="round" stroke-linejoin="round"/>
<path d="M120.854 153.385H133.799" stroke="#263238" stroke-miterlimit="10" stroke-linecap="round" stroke-linejoin="round"/>
<path d="M160.835 153.385H173.775" stroke="#263238" stroke-miterlimit="10" stroke-linecap="round" stroke-linejoin="round"/>
<path d="M156.14 158.979H162.01" stroke="#263238" stroke-miterlimit="10" stroke-linecap="round" stroke-linejoin="round"/>
<path d="M163.475 158.979H169.345" stroke="#263238" stroke-miterlimit="10" stroke-linecap="round" stroke-linejoin="round"/>
<path d="M170.81 158.979H176.68" stroke="#263238" stroke-miterlimit="10" stroke-linecap="round" stroke-linejoin="round"/>
<path d="M121.665 98.0947H152.105" stroke="#263238" stroke-miterlimit="10" stroke-linecap="round" stroke-linejoin="round"/>
<path d="M121.665 107.995H140.37" stroke="#263238" stroke-miterlimit="10" stroke-linecap="round" stroke-linejoin="round"/>
<path d="M168.975 107.995H187.68" stroke="#263238" stroke-miterlimit="10" stroke-linecap="round" stroke-linejoin="round"/>
<path d="M198.319 120.465H217.024" stroke="#263238" stroke-miterlimit="10" stroke-linecap="round" stroke-linejoin="round"/>
<path d="M194.284 107.995H212.989" stroke="#263238" stroke-miterlimit="10" stroke-linecap="round" stroke-linejoin="round"/>
<path d="M195.014 118.265H190.614V122.665H195.014V118.265Z" stroke="#263238" stroke-miterlimit="10" stroke-linecap="round" stroke-linejoin="round"/>
<path d="M167.875 120.465H186.58" stroke="#263238" stroke-miterlimit="10" stroke-linecap="round" stroke-linejoin="round"/>
<path d="M164.575 118.265H160.175V122.665H164.575V118.265Z" stroke="#263238" stroke-miterlimit="10" stroke-linecap="round" stroke-linejoin="round"/>
<path d="M137.435 120.465H156.14" stroke="#263238" stroke-miterlimit="10" stroke-linecap="round" stroke-linejoin="round"/>
<path d="M134.13 118.265H129.729V122.665H134.13V118.265Z" stroke="#263238" stroke-miterlimit="10" stroke-linecap="round" stroke-linejoin="round"/>
<path d="M212.824 167.045H225.089" stroke="#263238" stroke-miterlimit="10" stroke-linecap="round" stroke-linejoin="round"/>
<path d="M164.145 167.045H211.245" stroke="#263238" stroke-miterlimit="10" stroke-linecap="round" stroke-linejoin="round"/>
<path d="M133.8 167.045H162.725" stroke="#263238" stroke-miterlimit="10" stroke-linecap="round" stroke-linejoin="round"/>
<path d="M119.829 167.045H132.689" stroke="#263238" stroke-miterlimit="10" stroke-linecap="round" stroke-linejoin="round"/>
<path d="M198.284 169.89H225.089" stroke="#263238" stroke-miterlimit="10" stroke-linecap="round" stroke-linejoin="round"/>
<path d="M147.074 169.89H197.019" stroke="#263238" stroke-miterlimit="10" stroke-linecap="round" stroke-linejoin="round"/>
<path d="M119.829 169.89H145.494" stroke="#263238" stroke-miterlimit="10" stroke-linecap="round" stroke-linejoin="round"/>
<path d="M205.239 172.735H225.089" stroke="#263238" stroke-miterlimit="10" stroke-linecap="round" stroke-linejoin="round"/>
<path d="M162.564 172.735H204.134" stroke="#263238" stroke-miterlimit="10" stroke-linecap="round" stroke-linejoin="round"/>
<path d="M138.225 172.735H160.35" stroke="#263238" stroke-miterlimit="10" stroke-linecap="round" stroke-linejoin="round"/>
<path d="M119.829 172.735H136.799" stroke="#263238" stroke-miterlimit="10" stroke-linecap="round" stroke-linejoin="round"/>
<path d="M216.145 175.58H225.09" stroke="#263238" stroke-miterlimit="10" stroke-linecap="round" stroke-linejoin="round"/>
<path d="M126.525 175.58H214.565" stroke="#263238" stroke-miterlimit="10" stroke-linecap="round" stroke-linejoin="round"/>
<path d="M119.829 175.58H125.264" stroke="#263238" stroke-miterlimit="10" stroke-linecap="round" stroke-linejoin="round"/>
<path d="M218.199 178.425H225.089" stroke="#263238" stroke-miterlimit="10" stroke-linecap="round" stroke-linejoin="round"/>
<path d="M196.229 178.425H216.779" stroke="#263238" stroke-miterlimit="10" stroke-linecap="round" stroke-linejoin="round"/>
<path d="M162.564 178.425H195.124" stroke="#263238" stroke-miterlimit="10" stroke-linecap="round" stroke-linejoin="round"/>
<path d="M131.11 178.425H161.3" stroke="#263238" stroke-miterlimit="10" stroke-linecap="round" stroke-linejoin="round"/>
<path d="M119.829 178.425H129.369" stroke="#263238" stroke-miterlimit="10" stroke-linecap="round" stroke-linejoin="round"/>
<path d="M212.67 181.27H225.09" stroke="#263238" stroke-miterlimit="10" stroke-linecap="round" stroke-linejoin="round"/>
<path d="M172.84 181.27H210.93" stroke="#263238" stroke-miterlimit="10" stroke-linecap="round" stroke-linejoin="round"/>
<path d="M147.074 181.27H170.784" stroke="#263238" stroke-miterlimit="10" stroke-linecap="round" stroke-linejoin="round"/>
<path d="M119.829 181.27H145.494" stroke="#263238" stroke-miterlimit="10" stroke-linecap="round" stroke-linejoin="round"/>
<path d="M194.489 184.115H225.089" stroke="#263238" stroke-miterlimit="10" stroke-linecap="round" stroke-linejoin="round"/>
<path d="M133.8 184.115H192.28" stroke="#263238" stroke-miterlimit="10" stroke-linecap="round" stroke-linejoin="round"/>
<path d="M119.829 184.115H132.059" stroke="#263238" stroke-miterlimit="10" stroke-linecap="round" stroke-linejoin="round"/>
<path d="M120.93 192.72H134.135" stroke="#263238" stroke-miterlimit="10" stroke-linecap="round" stroke-linejoin="round"/>
<path d="M186.215 192.72H199.42" stroke="#263238" stroke-miterlimit="10" stroke-linecap="round" stroke-linejoin="round"/>
<path d="M137.435 192.72H181.815" stroke="#263238" stroke-miterlimit="10" stroke-linecap="round" stroke-linejoin="round"/>
<path d="M203.085 192.72H224.725" stroke="#263238" stroke-miterlimit="10" stroke-linecap="round" stroke-linejoin="round"/>
<path d="M122.579 103.655C122.579 103.655 124.619 104.125 125.089 101.77C125.559 99.4148 123.674 100.67 123.674 101.925C123.674 103.18 124.304 104.435 126.654 102.555C129.009 100.67 128.379 100.985 129.794 102.4C131.209 103.815 129.949 104.125 132.774 103.03C135.599 101.93 135.754 102.4 135.599 103.345C135.444 104.285 134.814 103.815 137.484 102.875C140.154 101.935 141.409 101.15 141.094 102.405C140.779 103.66 139.679 103.975 141.724 102.56C143.764 101.145 145.019 96.5948 143.294 100.05C141.569 103.505 140.939 103.03 143.449 102.56C145.959 102.09 146.744 100.365 146.744 101.62C146.744 102.875 144.704 103.66 146.744 102.875C148.784 102.09 149.569 101.305 149.569 102.09C149.569 102.875 147.684 104.285 150.354 103.03C153.024 101.775 153.809 100.36 153.809 101.46C153.809 102.56 153.339 102.245 153.809 102.56C154.279 102.875 153.339 101.93 154.749 102.405C156.164 102.875 155.534 103.82 157.574 103.035C159.614 102.25 159.459 101.15 160.554 102.25C161.654 103.35 160.554 104.92 163.534 103.505C166.514 102.09 167.299 102.875 168.244 103.035C169.184 103.19 169.969 103.19 170.599 103.19C171.229 103.19 171.069 102.56 172.639 103.19C174.209 103.82 174.679 103.82 175.619 103.82C176.559 103.82 177.504 103.82 177.504 103.82" stroke="#92E3A9" stroke-miterlimit="10" stroke-linecap="round" stroke-linejoin="round"/>
<path d="M187.09 103.81C187.09 103.81 187.875 103.495 189.285 102.71C190.695 101.925 194.31 99.2546 194.465 100.985C194.62 102.71 190.54 104.91 191.01 103.025C191.48 101.14 194.305 102.085 196.345 102.87C198.385 103.655 198.855 102.715 201.37 102.715C203.885 102.715 203.565 103.5 204.825 103.815C206.08 104.13 205.61 103.815 207.805 102.875C210 101.935 208.435 97.3796 207.02 100.52C205.605 103.66 205.135 104.915 208.435 103.345C211.73 101.775 210.79 103.66 211.26 103.66C211.73 103.66 210.945 103.815 212.83 103.03C214.715 102.245 212.36 103.345 213.77 103.66C215.185 103.975 215.965 102.405 217.225 101.935C218.48 101.465 218.64 102.875 218.64 102.875H219.895" stroke="#92E3A9" stroke-miterlimit="10" stroke-linecap="round" stroke-linejoin="round"/>
<path d="M121.635 73.515C121.635 73.515 122.42 73.2 123.675 71.32C124.93 69.435 122.89 68.81 122.42 70.85C121.95 72.89 120.85 75.245 124.305 73.52C127.76 71.795 126.5 68.495 125.405 71.01C124.305 73.52 124.62 76.035 127.915 74.15C131.21 72.265 131.525 71.17 131.995 72.11C132.465 73.05 130.74 73.365 133.565 73.525C136.39 73.68 136.86 72.74 138.115 72.27C139.37 71.8 140 72.27 140 72.27C140 72.27 140.47 72.425 141.1 72.425C141.73 72.425 142.515 71.955 142.825 72.425C143.14 72.895 139.685 73.525 143.765 72.895C147.845 72.265 148.79 69.6 149.1 71.64C149.415 73.68 146.275 75.405 146.275 73.525C146.275 71.64 148.16 69.76 151.14 71.485C154.12 73.21 153.965 73.68 155.535 73.995C157.105 74.31 159.615 72.58 159.615 72.58C159.615 72.58 159.46 72.735 160.4 73.21C161.34 73.68 161.03 73.68 162.755 73.21C164.48 72.74 163.07 73.055 165.425 72.74C167.78 72.425 168.88 72.585 167.935 73.37C166.995 74.155 164.325 73.055 167.78 72.43C171.235 71.8 171.705 72.9 171.705 73.37C171.705 73.84 172.645 74 173.43 73.685C174.215 73.37 175.785 73.215 175.785 73.215" stroke="#92E3A9" stroke-miterlimit="10" stroke-linecap="round" stroke-linejoin="round"/>
<path d="M125.715 64.2554C125.715 64.2554 127.69 63.9454 129.43 63.3304C130.47 62.9654 131.425 62.4854 131.835 61.9004C132.935 60.3304 129.64 60.8004 127.595 62.8404C125.555 64.8804 128.85 65.0354 133.09 63.6254C137.33 62.2104 137.17 58.6004 134.345 61.2704C131.52 63.9404 132.62 64.5654 137.015 63.6254C141.41 62.6854 146.905 61.5854 145.175 63.1554C143.45 64.7254 142.975 63.9404 145.96 63.3104C148.94 62.6804 150.825 61.2704 150.355 62.3704C149.885 63.4704 148.63 64.8804 150.985 63.7854C153.34 62.6854 153.025 63.7854 153.025 63.7854C157.265 63.3154 159.615 57.9754 156.635 59.8604C153.655 61.7454 153.655 64.2554 156.32 64.1004C158.99 63.9454 161.5 61.4304 160.245 62.6854C158.99 63.9404 156.95 64.8804 161.345 63.7854C165.74 62.6854 167.155 60.3304 166.84 61.9004C166.525 63.4704 166.37 63.3154 167.94 63.3154C169.51 63.3154 172.335 61.1154 171.395 62.6854C170.455 64.2554 169.98 64.4104 171.395 64.1004C172.81 63.7854 174.85 62.6854 175.475 62.6854C176.105 62.6854 174.22 64.4104 176.105 64.2554C177.99 64.1004 181.915 61.7454 181.915 61.7454" stroke="#92E3A9" stroke-miterlimit="10" stroke-linecap="round" stroke-linejoin="round"/>
<path d="M177.515 61.7451C177.515 61.7451 181.44 64.4151 182.38 64.4151" stroke="#92E3A9" stroke-miterlimit="10" stroke-linecap="round" stroke-linejoin="round"/>
<path d="M161.239 119.39L161.704 121.57L166.529 115.815" stroke="#92E3A9" stroke-miterlimit="10" stroke-linecap="round" stroke-linejoin="round"/>
<path d="M107.885 214.35L111.815 218.18C111.815 218.18 120.785 221.505 121.185 222.11C121.59 222.715 121.185 224.43 121.185 224.43H100.53L101.075 216.205L107.885 214.35Z" fill="white" stroke="#263238" stroke-miterlimit="10" stroke-linecap="round" stroke-linejoin="round"/>
<path d="M121.365 223.119H100.62L100.535 224.429H121.19C121.19 224.429 121.345 223.764 121.365 223.119Z" fill="white" stroke="#263238" stroke-miterlimit="10" stroke-linecap="round" stroke-linejoin="round"/>
<path d="M65.4353 148.604L68.2703 182.104C68.2703 182.104 65.9854 202.279 65.9854 204.279C65.9854 206.279 64.9854 212.779 64.9854 212.779L71.8204 213.615L80.9353 179.104L82.2703 165.104L93.4353 190.27L101.075 216.204L107.885 214.354L102.6 181.104L92.8103 149.77L92.1003 146.104L65.4353 146.439V148.604Z" fill="#263238" stroke="#263238" stroke-miterlimit="10" stroke-linecap="round" stroke-linejoin="round"/>
<path d="M64.9847 212.779L62.9847 218.239C62.9847 218.239 59.2547 222.574 59.5597 223.379C59.8597 224.184 60.5697 224.389 60.5697 224.389H69.8397C69.8397 224.389 70.5447 224.289 70.7447 223.379C70.9447 222.474 70.9447 221.164 70.9447 221.164L71.8197 213.614L64.9847 212.779Z" fill="white" stroke="#263238" stroke-miterlimit="10" stroke-linecap="round" stroke-linejoin="round"/>
<path d="M70.7451 223.38C70.7751 223.25 70.7951 223.115 70.8201 222.975H59.6101C59.5501 223.145 59.5301 223.285 59.5651 223.38C59.8651 224.185 60.5751 224.39 60.5751 224.39H69.8451C69.8401 224.385 70.5451 224.285 70.7451 223.38Z" fill="white" stroke="#263238" stroke-miterlimit="10" stroke-linecap="round" stroke-linejoin="round"/>
<path d="M74.9346 100.645C74.9346 100.645 66.1846 101.145 63.5596 102.895C60.9346 104.645 48.1846 115.145 48.1846 115.145L48.8346 126.065L62.9346 115.895L64.9346 151.145L92.8096 149.77L92.1846 130.145L91.8096 129.52C91.8096 129.52 100.81 138.77 104.185 138.52C107.56 138.27 108.31 132.645 105.81 129.145C103.31 125.645 99.5596 120.645 96.9346 116.895C94.3096 113.145 94.3096 107.645 90.4346 105.02C86.5596 102.395 79.8096 100.895 79.8096 100.895L74.9346 100.645Z" fill="#92E3A9" stroke="#263238" stroke-miterlimit="10" stroke-linecap="round" stroke-linejoin="round"/>
<path d="M92.1846 130.144L91.6396 118.859" stroke="#263238" stroke-miterlimit="10" stroke-linecap="round" stroke-linejoin="round"/>
<path d="M93.4248 123.355L93.7448 121.42" stroke="#263238" stroke-miterlimit="10" stroke-linecap="round" stroke-linejoin="round"/>
<path d="M92.3896 129.555L93.1946 124.745" stroke="#263238" stroke-miterlimit="10" stroke-linecap="round" stroke-linejoin="round"/>
<path d="M80.7441 136.765L81.9991 138.135" stroke="#263238" stroke-miterlimit="10" stroke-linecap="round" stroke-linejoin="round"/>
<path d="M67.2441 122.024L79.9541 135.899" stroke="#263238" stroke-miterlimit="10" stroke-linecap="round" stroke-linejoin="round"/>
<path d="M71.8096 131.055L76.7296 135.88" stroke="#263238" stroke-miterlimit="10" stroke-linecap="round" stroke-linejoin="round"/>
<path d="M69.3496 128.65L70.7646 130.035" stroke="#263238" stroke-miterlimit="10" stroke-linecap="round" stroke-linejoin="round"/>
<path d="M67.0946 113.14L62.9346 115.895L66.9446 115.55" stroke="#263238" stroke-miterlimit="10" stroke-linecap="round" stroke-linejoin="round"/>
<path d="M74.0696 90.4492C74.0696 90.4492 74.5196 93.3842 74.5196 96.2092C74.5196 99.0342 74.0696 101.854 74.0696 101.854C74.0696 101.854 79.7146 110.439 80.7346 111.114C81.7496 111.794 82.4296 108.854 82.4296 107.614C82.4296 106.374 82.5446 102.759 82.5446 102.759V98.6942L74.0696 90.4492Z" fill="#B0B0B0" stroke="#263238" stroke-miterlimit="10" stroke-linecap="round" stroke-linejoin="round"/>
<path d="M82.5201 103.315C82.5301 102.975 82.5351 102.755 82.5351 102.755V98.6896L80.6201 96.8246L75.9351 94.9346L82.5201 103.315Z" fill="#263238" stroke="#263238" stroke-miterlimit="10" stroke-linecap="round" stroke-linejoin="round"/>
<path d="M87.8452 79.1549C87.8452 79.1549 89.2002 83.5599 89.3152 85.3649C89.4302 87.1699 88.4102 88.5249 88.4102 89.0899C88.4102 89.6549 89.9902 91.9149 89.9902 92.7049C89.9902 93.4949 88.0702 94.5099 88.0702 94.5099C88.0702 94.5099 87.2802 98.6899 85.2452 100.045C83.2102 101.4 78.5802 98.1249 76.7752 96.4299C74.9702 94.7349 74.1802 93.1549 73.6152 91.3499C73.0502 89.5449 73.7302 85.3649 74.8552 81.9749C75.9852 78.5849 78.4702 77.0049 81.0652 76.5549C83.6652 76.1049 87.5052 77.5749 87.8452 79.1549Z" fill="#B0B0B0" stroke="#263238" stroke-miterlimit="10" stroke-linecap="round" stroke-linejoin="round"/>
<path d="M86.1506 89.8301C86.1506 90.3601 85.9756 90.7901 85.7556 90.7901C85.5356 90.7901 85.3606 90.3601 85.3606 89.8301C85.3606 89.3001 85.5356 88.8701 85.7556 88.8701C85.9756 88.8701 86.1506 89.3001 86.1506 89.8301Z" fill="#263238"/>
<path d="M85.0198 87.8495C85.0198 87.8495 86.5998 87.0595 87.5048 88.0745" stroke="#263238" stroke-miterlimit="10" stroke-linecap="round" stroke-linejoin="round"/>
<path d="M85.9257 96.2096C85.9257 96.2096 83.5557 95.4196 83.4407 93.7246" stroke="#263238" stroke-miterlimit="10" stroke-linecap="round" stroke-linejoin="round"/>
<path d="M74.515 90.0346C74.515 90.0346 76.66 90.3746 76.885 89.2446C77.11 88.1146 75.755 87.8896 77.225 86.8746C78.695 85.8596 79.71 85.8596 80.16 85.1796C80.61 84.4996 79.98 83.4096 80.77 81.6046C81.56 79.7996 82.51 80.2646 84.77 80.6046C87.03 80.9446 88.515 81.9046 88.515 81.9046C88.515 81.9046 89.9 78.9646 88.435 77.2696C86.965 75.5746 82.295 73.8546 77.1 75.4346C71.905 77.0146 70.335 80.7746 69.88 84.8396C69.43 88.9046 71.01 91.1646 72.475 91.6146C73.95 92.0696 74.515 90.0346 74.515 90.0346Z" fill="#263238" stroke="#263238" stroke-miterlimit="10" stroke-linecap="round" stroke-linejoin="round"/>
<path d="M75.65 89.7693C75.65 89.7693 74.295 85.5893 73.165 87.7343C72.035 89.8793 72.6 91.6843 73.73 92.3643C74.86 93.0443 75.31 91.7993 75.31 91.7993" fill="#B0B0B0"/>
<path d="M75.65 89.7693C75.65 89.7693 74.295 85.5893 73.165 87.7343C72.035 89.8793 72.6 91.6843 73.73 92.3643C74.86 93.0443 75.31 91.7993 75.31 91.7993" stroke="#263238" stroke-miterlimit="10" stroke-linecap="round" stroke-linejoin="round"/>
<path d="M100.61 132.539C102.05 129.894 108.425 122.114 108.425 122.114L112.58 124.129C112.58 124.129 109.43 135.584 107.92 137.224C106.41 138.859 104.75 139.414 102.985 138.154" fill="#B0B0B0"/>
<path d="M100.61 132.539C102.05 129.894 108.425 122.114 108.425 122.114L112.58 124.129C112.58 124.129 109.43 135.584 107.92 137.224C106.41 138.859 104.75 139.414 102.985 138.154" stroke="#263238" stroke-miterlimit="10" stroke-linecap="round" stroke-linejoin="round"/>
<path d="M103.08 138.06C104.74 138.96 106.635 138.62 108.015 137.13C108.47 136.635 109.075 135.245 109.7 133.55C105.18 134.33 103.105 131.305 102.4 129.89C101.41 131.26 100.65 132.425 100.465 132.975C100.415 133.13 100.83 135.045 100.805 135.19" fill="#92E3A9"/>
<path d="M103.08 138.06C104.74 138.96 106.635 138.62 108.015 137.13C108.47 136.635 109.075 135.245 109.7 133.55C105.18 134.33 103.105 131.305 102.4 129.89C101.41 131.26 100.65 132.425 100.465 132.975C100.415 133.13 100.83 135.045 100.805 135.19" stroke="#263238" stroke-miterlimit="10" stroke-linecap="round" stroke-linejoin="round"/>
<path d="M150.36 139.604C150.265 139.604 150.165 139.584 150.075 139.544L144.74 137.329C144.355 137.169 144.175 136.729 144.335 136.349C144.495 135.969 144.935 135.784 145.315 135.944L150.65 138.159C151.035 138.319 151.215 138.759 151.055 139.139C150.935 139.434 150.655 139.604 150.36 139.604Z" fill="white" stroke="#263238" stroke-miterlimit="10" stroke-linecap="round" stroke-linejoin="round"/>
<path d="M133.705 135.725L15.1249 82.5096C13.2349 81.6596 12.3899 79.4446 13.2399 77.5546C14.0899 75.6646 16.3049 74.8196 18.1949 75.6696L136.775 128.885L133.705 135.725Z" fill="white" stroke="#263238" stroke-miterlimit="10" stroke-linecap="round" stroke-linejoin="round"/>
<path d="M31.2199 81.5096L18.1949 75.6646C16.3049 74.8146 14.0849 75.6596 13.2399 77.5496C12.3899 79.4396 13.2349 81.6596 15.1249 82.5046L27.8249 88.2496L31.2199 81.5096Z" fill="white" stroke="#263238" stroke-miterlimit="10" stroke-linecap="round" stroke-linejoin="round"/>
<path d="M136.775 128.88L148.645 137.01L147.905 138.59L133.705 135.725L136.775 128.88Z" fill="white" stroke="#263238" stroke-miterlimit="10" stroke-linecap="round" stroke-linejoin="round"/>
<path d="M28.0698 80.0946L18.1998 75.6646C16.3098 74.8146 14.0898 75.6596 13.2448 77.5496C12.3948 79.4396 13.2398 81.6596 15.1298 82.5046L24.5898 86.7496L28.0698 80.0946Z" fill="#92E3A9" stroke="#263238" stroke-miterlimit="10" stroke-linecap="round" stroke-linejoin="round"/>
<path d="M40.0599 87.8945C40.0599 87.8945 39.0599 93.2695 39.8099 94.2695C40.5599 95.2695 44.6849 99.0195 44.6849 99.0195C44.6849 99.0195 43.0599 120.895 43.4349 122.895C43.8099 124.895 48.0599 126.395 49.4349 126.02C50.8099 125.645 51.8099 124.145 53.0599 121.395C54.3099 118.645 48.6849 99.3945 48.6849 98.5195C48.6849 97.6445 46.0599 90.8945 46.0599 90.8945C46.0599 90.8945 48.1849 89.3945 48.5599 88.8945C48.9349 88.3945 47.0599 88.7695 46.6849 88.7695C46.3099 88.7695 43.5599 88.2695 43.0599 88.0195C42.5599 87.7695 40.0599 87.8945 40.0599 87.8945Z" fill="#B0B0B0" stroke="#263238" stroke-miterlimit="10" stroke-linecap="round" stroke-linejoin="round"/>
<path d="M46.1098 88.7393C46.1098 88.7393 44.3398 89.1843 44.4048 89.6243C44.4698 90.0693 44.4698 92.8493 44.4698 92.8493" fill="white"/>
<path d="M46.1098 88.7393C46.1098 88.7393 44.3398 89.1843 44.4048 89.6243C44.4698 90.0693 44.4698 92.8493 44.4698 92.8493" stroke="#263238" stroke-miterlimit="10" stroke-linecap="round" stroke-linejoin="round"/>
<path d="M43.3948 88.2991C43.3948 88.2991 41.8748 88.2341 41.8748 89.0591C41.8748 89.8791 41.8748 92.5391 41.8748 92.5391" fill="white"/>
<path d="M43.3948 88.2991C43.3948 88.2991 41.8748 88.2341 41.8748 89.0591C41.8748 89.8791 41.8748 92.5391 41.8748 92.5391" stroke="#263238" stroke-miterlimit="10" stroke-linecap="round" stroke-linejoin="round"/>
<path d="M40.04 88.2345L40.295 92.5345" stroke="#263238" stroke-miterlimit="10" stroke-linecap="round" stroke-linejoin="round"/>
<path d="M49.4346 126.019C50.8096 125.644 51.8096 124.144 53.0596 121.394C53.5296 120.359 53.0246 116.974 52.2096 113.114C48.8996 115.374 45.4896 114.719 43.6846 114.089C43.4396 118.384 43.2896 122.119 43.4346 122.889C43.8096 124.894 48.0596 126.394 49.4346 126.019Z" fill="#92E3A9" stroke="#263238" stroke-miterlimit="10" stroke-linecap="round" stroke-linejoin="round"/>
<path d="M108.38 116.12C108.38 116.12 109.215 115.38 110.235 115.47C111.255 115.565 111.44 117.045 111.35 118.345C111.255 119.645 109.865 119.92 109.68 119.085C109.495 118.25 109.31 116.95 109.31 116.95L108.38 116.12Z" fill="#B0B0B0" stroke="#263238" stroke-miterlimit="10" stroke-linecap="round" stroke-linejoin="round"/>
<path d="M111.16 116.029C111.16 116.029 112.365 115.659 112.92 116.864C113.475 118.069 112.825 119.649 112.18 119.739C111.53 119.834 111.345 118.349 111.345 118.349L111.16 116.029Z" fill="#B0B0B0" stroke="#263238" stroke-miterlimit="10" stroke-linecap="round" stroke-linejoin="round"/>
<path d="M112.925 116.865C112.925 116.865 113.855 116.4 114.225 117.515C114.595 118.63 114.965 120.02 114.13 120.02C113.295 120.02 113.015 118.535 113.015 118.535L112.925 116.865Z" fill="#B0B0B0" stroke="#263238" stroke-miterlimit="10" stroke-linecap="round" stroke-linejoin="round"/>
<path d="M114.22 117.51C114.22 117.51 115.425 117.415 115.705 118.16C115.985 118.9 116.54 120.295 115.52 120.295C115.24 120.295 114.59 118.995 114.59 118.995L114.22 117.51Z" fill="#B0B0B0" stroke="#263238" stroke-miterlimit="10" stroke-linecap="round" stroke-linejoin="round"/>
<defs>
<filter id="filter0_d_382_9008" x="6.90332" y="21.0955" width="240.328" height="216.335" filterUnits="userSpaceOnUse" color-interpolation-filters="sRGB">
<feFlood flood-opacity="0" result="BackgroundImageFix"/>
<feColorMatrix in="SourceAlpha" type="matrix" values="0 0 0 0 0 0 0 0 0 0 0 0 0 0 0 0 0 0 127 0" result="hardAlpha"/>
<feOffset dx="4" dy="4"/>
<feGaussianBlur stdDeviation="2"/>
<feComposite in2="hardAlpha" operator="out"/>
<feColorMatrix type="matrix" values="0 0 0 0 0 0 0 0 0 0 0 0 0 0 0 0 0 0 0.25 0"/>
<feBlend mode="normal" in2="BackgroundImageFix" result="effect1_dropShadow_382_9008"/>
<feBlend mode="normal" in="SourceGraphic" in2="effect1_dropShadow_382_9008" result="shape"/>
</filter>
</defs>
</svg>
