<svg width="258" height="250" viewBox="0 0 258 250" fill="none" xmlns="http://www.w3.org/2000/svg">
<g clip-path="url(#clip0_382_7781)">
<path d="M214.375 51.35C209.801 42.7 203.376 35.6 195.255 29.85C168.218 10.6 131.467 3.64996 99.8562 8.89996C77.2916 12.65 62.2314 29.65 52.6196 51.8C41.2602 77.95 30.9802 104 18.0274 129.45C3.17281 158.6 -3.50918 188.95 28.77 214.15C56.6802 235.95 91.735 230.3 123.757 229.6C134.346 229.35 145.037 229.75 155.522 232.05C176.288 236.55 196.437 252.65 216.843 237.65C232.365 226.25 241.515 204.65 245.935 185.15C248.556 173.5 250.664 160.65 249.687 148.3C248.608 134.75 243.005 124.55 237.197 113.05C229.898 98.55 224.193 83.05 220.286 67C218.796 61.25 216.843 56.05 214.375 51.35Z" fill="#92E3A9"/>
<g opacity="0.7" filter="url(#filter0_d_382_7781)">
<path d="M214.375 51.35C209.801 42.7 203.376 35.6 195.255 29.85C168.218 10.6 131.467 3.64996 99.8562 8.89996C77.2916 12.65 62.2314 29.65 52.6196 51.8C41.2602 77.95 30.9802 104 18.0274 129.45C3.17281 158.6 -3.50918 188.95 28.77 214.15C56.6802 235.95 91.735 230.3 123.757 229.6C134.346 229.35 145.037 229.75 155.522 232.05C176.288 236.55 196.437 252.65 216.843 237.65C232.365 226.25 241.515 204.65 245.935 185.15C248.556 173.5 250.664 160.65 249.687 148.3C248.608 134.75 243.005 124.55 237.197 113.05C229.898 98.55 224.193 83.05 220.286 67C218.796 61.25 216.843 56.05 214.375 51.35Z" fill="white"/>
</g>
<path d="M49.536 113.55C49.536 113.55 43.2138 110.15 42.7512 117.85C42.2886 125.6 41.1064 175.9 41.1064 175.9" stroke="#263238" stroke-width="2" stroke-miterlimit="10" stroke-linecap="round" stroke-linejoin="round"/>
<path d="M39.4619 118.55C39.4619 118.55 44.6019 129.7 42.2889 175.25" stroke="#263238" stroke-width="2" stroke-miterlimit="10" stroke-linecap="round" stroke-linejoin="round"/>
<path d="M44.5503 115.1C44.5503 115.1 42.1345 116.6 40.7467 114.9C39.3589 113.2 41.6719 110 39.6673 108.65C37.6113 107.3 34.1161 109.35 34.1161 109.35C34.1161 109.35 36.8403 110.1 36.7375 111.55C36.6347 113 35.3497 113.55 35.1955 112.9C35.0413 112.25 33.7563 109.1 31.5461 110.45C29.3359 111.75 29.0275 113.8 29.0275 113.8C29.0275 113.8 34.1161 113.25 34.4245 115.15C34.7329 117 32.3171 114.8 30.2097 114.7C28.1023 114.6 26.2005 114.9 26.3033 116.1C26.4575 117.35 26.0977 119.4 26.0977 119.4C26.0977 119.4 27.8967 117.85 30.2097 118C32.5227 118.15 32.4199 119.55 30.3125 119.45C28.2051 119.35 26.4061 121.3 26.4061 121.3C26.4061 121.3 28.3079 124.5 30.7751 126.05C33.1909 127.65 34.1161 127.05 34.3731 125.85C34.6815 124.65 34.0133 121.5 35.4525 121.6C36.9431 121.7 32.9853 127 34.8871 127.35C36.7889 127.65 38.2795 127.15 38.7935 125.95C39.3075 124.75 39.3075 124.75 39.3075 124.75C39.3075 124.75 38.6393 121.65 38.9477 120.4C39.2561 119.2 39.5645 120.45 39.9243 121.9C40.2841 123.35 40.4897 126.85 41.1065 126.7C41.7747 126.55 43.8307 124 44.2933 123C44.7559 122 41.5691 118.95 41.6205 118.3C41.6719 117.7 44.1391 118.85 44.4989 119.5C44.8587 120.15 45.2699 121 45.2699 121C45.2699 121 46.8119 120.05 46.7605 117.2C46.7091 114.2 44.5503 115.1 44.5503 115.1Z" fill="#92E3A9"/>
<path opacity="0.3" d="M44.5503 115.1C44.5503 115.1 42.1345 116.6 40.7467 114.9C39.3589 113.2 41.6719 110 39.6673 108.65C37.6113 107.3 34.1161 109.35 34.1161 109.35C34.1161 109.35 36.8403 110.1 36.7375 111.55C36.6347 113 35.3497 113.55 35.1955 112.9C35.0413 112.25 33.7563 109.1 31.5461 110.45C29.3359 111.75 29.0275 113.8 29.0275 113.8C29.0275 113.8 34.1161 113.25 34.4245 115.15C34.7329 117 32.3171 114.8 30.2097 114.7C28.1023 114.6 26.2005 114.9 26.3033 116.1C26.4575 117.35 26.0977 119.4 26.0977 119.4C26.0977 119.4 27.8967 117.85 30.2097 118C32.5227 118.15 32.4199 119.55 30.3125 119.45C28.2051 119.35 26.4061 121.3 26.4061 121.3C26.4061 121.3 28.3079 124.5 30.7751 126.05C33.1909 127.65 34.1161 127.05 34.3731 125.85C34.6815 124.65 34.0133 121.5 35.4525 121.6C36.9431 121.7 32.9853 127 34.8871 127.35C36.7889 127.65 38.2795 127.15 38.7935 125.95C39.3075 124.75 39.3075 124.75 39.3075 124.75C39.3075 124.75 38.6393 121.65 38.9477 120.4C39.2561 119.2 39.5645 120.45 39.9243 121.9C40.2841 123.35 40.4897 126.85 41.1065 126.7C41.7747 126.55 43.8307 124 44.2933 123C44.7559 122 41.5691 118.95 41.6205 118.3C41.6719 117.7 44.1391 118.85 44.4989 119.5C44.8587 120.15 45.2699 121 45.2699 121C45.2699 121 46.8119 120.05 46.7605 117.2C46.7091 114.2 44.5503 115.1 44.5503 115.1Z" fill="#263238"/>
<path d="M32.2656 121.85C33.859 119.95 36.172 117.4 38.1252 116.15" stroke="#263238" stroke-miterlimit="10" stroke-linecap="round" stroke-linejoin="round"/>
<path d="M30.4666 124.15C30.4666 124.15 30.8778 123.6 31.546 122.8" stroke="#263238" stroke-miterlimit="10" stroke-linecap="round" stroke-linejoin="round"/>
<path d="M39.1533 116.65C39.1533 116.65 41.5177 119.85 41.9289 123.2" stroke="#263238" stroke-miterlimit="10" stroke-linecap="round" stroke-linejoin="round"/>
<path d="M36.4805 118.55C36.4805 118.55 37.1487 118.2 36.8917 122.25" stroke="#263238" stroke-miterlimit="10" stroke-linecap="round" stroke-linejoin="round"/>
<path d="M38.2285 114.7C38.2285 114.7 39.5649 113.55 38.8453 111.25" stroke="#263238" stroke-miterlimit="10" stroke-linecap="round" stroke-linejoin="round"/>
<path d="M36.3774 116.7L35.4521 115" stroke="#263238" stroke-miterlimit="10" stroke-linecap="round" stroke-linejoin="round"/>
<path d="M34.3731 118.4C34.3731 118.4 31.3405 116.15 29.4387 116.05" stroke="#263238" stroke-miterlimit="10" stroke-linecap="round" stroke-linejoin="round"/>
<path d="M53.1344 109C53.1344 109 53.0316 112.4 50.3074 112.55C47.5832 112.7 45.9384 108.3 43.1628 109.35C40.3872 110.4 40.1302 115.25 40.1302 115.25C40.1302 115.25 42.7516 113.15 44.1908 114.2C45.63 115.25 45.2702 116.9 44.4992 116.65C43.7282 116.4 39.6162 115.5 39.462 118.55C39.3078 121.6 41.2096 123.3 41.2096 123.3C41.2096 123.3 44.1394 117.95 46.2982 118.95C48.457 119.9 44.5506 120.75 42.9572 122.75C41.4152 124.7 40.3872 126.8 41.775 127.5C43.1628 128.2 45.0132 129.95 45.0132 129.95C45.0132 129.95 44.6534 127.15 46.3496 125C48.0458 122.85 49.485 123.9 47.943 125.85C46.401 127.8 47.172 130.9 47.172 130.9C47.172 130.9 51.7466 131.2 55.0362 129.9C58.3258 128.6 58.3258 127.35 57.2978 126.25C56.2184 125.15 52.569 123.65 53.6484 122.25C54.7278 120.85 57.5548 128.3 59.1482 126.7C60.7416 125.1 61.2556 123.25 60.3304 121.95C59.4052 120.65 59.4052 120.65 59.4052 120.65C59.4052 120.65 55.7558 119.15 54.6764 118.05C53.597 116.95 55.139 117.45 56.8866 118.15C58.6342 118.8 62.3864 121 62.6434 120.25C62.9004 119.5 61.6668 115.75 60.9986 114.6C60.279 113.45 54.9848 114.45 54.368 114C53.7512 113.55 56.6296 111.95 57.5548 112C58.48 112.05 59.6108 112.25 59.6108 112.25C59.6108 112.25 59.7136 110.1 56.681 108.2C53.6998 106.3 53.1344 109 53.1344 109Z" fill="#92E3A9"/>
<path opacity="0.2" d="M53.1344 109C53.1344 109 53.0316 112.4 50.3074 112.55C47.5832 112.7 45.9384 108.3 43.1628 109.35C40.3872 110.4 40.1302 115.25 40.1302 115.25C40.1302 115.25 42.7516 113.15 44.1908 114.2C45.63 115.25 45.2702 116.9 44.4992 116.65C43.7282 116.4 39.6162 115.5 39.462 118.55C39.3078 121.6 41.2096 123.3 41.2096 123.3C41.2096 123.3 44.1394 117.95 46.2982 118.95C48.457 119.9 44.5506 120.75 42.9572 122.75C41.4152 124.7 40.3872 126.8 41.775 127.5C43.1628 128.2 45.0132 129.95 45.0132 129.95C45.0132 129.95 44.6534 127.15 46.3496 125C48.0458 122.85 49.485 123.9 47.943 125.85C46.401 127.8 47.172 130.9 47.172 130.9C47.172 130.9 51.7466 131.2 55.0362 129.9C58.3258 128.6 58.3258 127.35 57.2978 126.25C56.2184 125.15 52.569 123.65 53.6484 122.25C54.7278 120.85 57.5548 128.3 59.1482 126.7C60.7416 125.1 61.2556 123.25 60.3304 121.95C59.4052 120.65 59.4052 120.65 59.4052 120.65C59.4052 120.65 55.7558 119.15 54.6764 118.05C53.597 116.95 55.139 117.45 56.8866 118.15C58.6342 118.8 62.3864 121 62.6434 120.25C62.9004 119.5 61.6668 115.75 60.9986 114.6C60.279 113.45 54.9848 114.45 54.368 114C53.7512 113.55 56.6296 111.95 57.5548 112C58.48 112.05 59.6108 112.25 59.6108 112.25C59.6108 112.25 59.7136 110.1 56.681 108.2C53.6998 106.3 53.1344 109 53.1344 109Z" fill="#263238"/>
<path d="M51.7469 125.55C50.8731 122.7 49.7937 118.7 49.8965 116" stroke="#263238" stroke-miterlimit="10" stroke-linecap="round" stroke-linejoin="round"/>
<path d="M52.8774 128.9C52.8774 128.9 52.569 128.15 52.2092 126.95" stroke="#263238" stroke-miterlimit="10" stroke-linecap="round" stroke-linejoin="round"/>
<path d="M51.0781 115.3C51.0781 115.3 56.0125 115.2 59.7133 117.05" stroke="#263238" stroke-miterlimit="10" stroke-linecap="round" stroke-linejoin="round"/>
<path d="M51.2327 119.2C51.2327 119.2 51.2841 118.3 55.3447 121.35" stroke="#263238" stroke-miterlimit="10" stroke-linecap="round" stroke-linejoin="round"/>
<path d="M48.4567 114.9C48.4567 114.9 48.1997 112.8 45.3213 111.95" stroke="#263238" stroke-miterlimit="10" stroke-linecap="round" stroke-linejoin="round"/>
<path d="M49.2277 118L46.8633 117.8" stroke="#263238" stroke-miterlimit="10" stroke-linecap="round" stroke-linejoin="round"/>
<path d="M49.6396 121.15C49.6396 121.15 45.2706 122.6 43.8828 124.35" stroke="#263238" stroke-miterlimit="10" stroke-linecap="round" stroke-linejoin="round"/>
<path d="M24.042 131.5C24.042 131.5 37.8686 140.4 37.6116 174.75" stroke="#263238" stroke-width="2" stroke-miterlimit="10" stroke-linecap="round" stroke-linejoin="round"/>
<path d="M41.0546 129.15C41.0546 129.15 40.592 133.05 37.4566 133C34.3212 132.95 32.7792 127.7 29.4896 128.7C26.2 129.65 25.429 135.2 25.429 135.2C25.429 135.2 28.6672 133 30.2092 134.35C31.7512 135.7 31.1858 137.55 30.3634 137.2C29.4896 136.85 24.8122 135.4 24.3496 138.9C23.887 142.4 25.8916 144.55 25.8916 144.55C25.8916 144.55 29.798 138.65 32.1624 140C34.5268 141.3 29.9522 141.95 27.9476 144.05C25.943 146.2 24.6066 148.5 26.0972 149.45C27.5878 150.4 29.5924 152.55 29.5924 152.55C29.5924 152.55 29.4382 149.3 31.6484 146.95C33.8586 144.6 35.3492 145.95 33.396 148.1C31.3914 150.25 32.0082 153.85 32.0082 153.85C32.0082 153.85 37.3024 154.65 41.2088 153.45C45.1152 152.25 45.2694 150.8 44.1386 149.45C43.0078 148.05 38.9472 146 40.335 144.55C41.7228 143.05 44.2414 151.9 46.246 150.2C48.2506 148.5 48.9702 146.4 48.0964 144.8C47.1712 143.2 47.1712 143.2 47.1712 143.2C47.1712 143.2 43.1106 141.15 41.9798 139.75C40.849 138.35 42.5966 139.1 44.4984 140.05C46.4516 141 50.5636 143.85 50.9234 143C51.2832 142.15 50.2552 137.75 49.5356 136.35C48.816 134.95 42.5966 135.65 41.9284 135.05C41.2602 134.45 44.7554 132.9 45.8348 133.05C46.9142 133.2 48.1478 133.55 48.1478 133.55C48.1478 133.55 48.4562 131.1 45.1666 128.6C41.9284 126.05 41.0546 129.15 41.0546 129.15Z" fill="#92E3A9"/>
<path opacity="0.3" d="M41.0546 129.15C41.0546 129.15 40.592 133.05 37.4566 133C34.3212 132.95 32.7792 127.7 29.4896 128.7C26.2 129.65 25.429 135.2 25.429 135.2C25.429 135.2 28.6672 133 30.2092 134.35C31.7512 135.7 31.1858 137.55 30.3634 137.2C29.4896 136.85 24.8122 135.4 24.3496 138.9C23.887 142.4 25.8916 144.55 25.8916 144.55C25.8916 144.55 29.798 138.65 32.1624 140C34.5268 141.3 29.9522 141.95 27.9476 144.05C25.943 146.2 24.6066 148.5 26.0972 149.45C27.5878 150.4 29.5924 152.55 29.5924 152.55C29.5924 152.55 29.4382 149.3 31.6484 146.95C33.8586 144.6 35.3492 145.95 33.396 148.1C31.3914 150.25 32.0082 153.85 32.0082 153.85C32.0082 153.85 37.3024 154.65 41.2088 153.45C45.1152 152.25 45.2694 150.8 44.1386 149.45C43.0078 148.05 38.9472 146 40.335 144.55C41.7228 143.05 44.2414 151.9 46.246 150.2C48.2506 148.5 48.9702 146.4 48.0964 144.8C47.1712 143.2 47.1712 143.2 47.1712 143.2C47.1712 143.2 43.1106 141.15 41.9798 139.75C40.849 138.35 42.5966 139.1 44.4984 140.05C46.4516 141 50.5636 143.85 50.9234 143C51.2832 142.15 50.2552 137.75 49.5356 136.35C48.816 134.95 42.5966 135.65 41.9284 135.05C41.2602 134.45 44.7554 132.9 45.8348 133.05C46.9142 133.2 48.1478 133.55 48.1478 133.55C48.1478 133.55 48.4562 131.1 45.1666 128.6C41.9284 126.05 41.0546 129.15 41.0546 129.15Z" fill="#263238"/>
<path d="M37.8168 148.1C37.0972 144.75 36.2748 140.05 36.5832 136.9" stroke="#263238" stroke-miterlimit="10" stroke-linecap="round" stroke-linejoin="round"/>
<path d="M38.7926 152.1C38.7926 152.1 38.5356 151.2 38.1758 149.75" stroke="#263238" stroke-miterlimit="10" stroke-linecap="round" stroke-linejoin="round"/>
<path d="M38.0225 136.25C38.0225 136.25 43.6765 136.6 47.7885 139.05" stroke="#263238" stroke-miterlimit="10" stroke-linecap="round" stroke-linejoin="round"/>
<path d="M37.8164 140.7C37.8164 140.7 37.9706 139.65 42.3396 143.55" stroke="#263238" stroke-miterlimit="10" stroke-linecap="round" stroke-linejoin="round"/>
<path d="M35.0922 135.55C35.0922 135.55 34.9894 133.1 31.7512 131.85" stroke="#263238" stroke-miterlimit="10" stroke-linecap="round" stroke-linejoin="round"/>
<path d="M35.6576 139.2L32.9333 138.7" stroke="#263238" stroke-miterlimit="10" stroke-linecap="round" stroke-linejoin="round"/>
<path d="M35.8634 142.85C35.8634 142.85 30.672 144.1 28.873 146" stroke="#263238" stroke-miterlimit="10" stroke-linecap="round" stroke-linejoin="round"/>
<path d="M29.3877 158.6C29.3877 158.6 38.2799 165.2 39.2051 175L37.3547 142.2" stroke="#263238" stroke-width="2" stroke-miterlimit="10" stroke-linecap="round" stroke-linejoin="round"/>
<path d="M50.9239 153.8C39.2561 151.75 39.2561 175 39.2561 175" stroke="#263238" stroke-width="2" stroke-miterlimit="10" stroke-linecap="round" stroke-linejoin="round"/>
<path d="M40.6439 174.75C40.6439 174.75 33.8591 126.7 53.4939 126.7" stroke="#263238" stroke-width="2" stroke-miterlimit="10" stroke-linecap="round" stroke-linejoin="round"/>
<path d="M46.5034 152.45C44.91 150.7 41.5176 150.7 39.513 155.15C37.5084 159.6 39.3074 158.85 39.3074 158.85C39.3074 158.85 43.111 157.7 45.4754 156.9C47.8912 156.1 51.078 154.2 51.2836 155.35C51.4892 156.5 49.6902 157.7 47.48 158.05C45.2698 158.45 39.513 160 40.0784 161.15C40.6952 162.3 42.083 165.8 42.083 165.8C42.083 165.8 44.8586 163.45 47.48 161.9C50.1014 160.35 51.6948 160.95 50.2556 162.7C48.8678 164.45 44.8586 166.4 45.681 168.7C46.5034 171.05 51.2836 173.95 51.2836 173.95C51.2836 173.95 51.9004 169.1 53.2882 167.55C54.676 166 54.676 167.75 54.2648 170.45C53.8536 173.15 53.8536 173.95 53.8536 173.95L59.4562 175.9C59.4562 175.9 61.4608 173 62.4374 172C63.414 171.05 63.414 171.05 63.414 171.05C63.414 171.05 58.9936 167.35 58.8394 165.05C58.6338 162.7 61.8206 165.05 62.8486 165.45C63.8252 165.85 65.47 168.55 65.47 168.55C65.47 168.55 66.4466 164.1 66.6522 162.55C66.8578 161 66.8578 161 66.8578 161C66.8578 161 62.643 159.45 61.0496 159.45C59.4562 159.45 58.6338 160.6 58.6338 159.05C58.6338 157.5 60.2272 156.5 62.0262 156.7C63.8252 156.9 66.8064 157.85 66.8064 157.85C66.8064 157.85 67.9886 156.9 67.6288 153.95C67.2176 151.05 66.241 151.05 63.8252 151.8C61.4094 152.6 59.816 154.35 58.017 154.35C56.218 154.35 57.1946 152.2 58.4282 151.65C59.6104 151.05 62.643 149.9 63.2084 149.7C63.8252 149.5 60.0216 146.8 58.017 146.4C56.0124 146 53.4424 147.4 53.5966 149.3C54.0592 153.4 48.0968 154.2 46.5034 152.45Z" fill="#92E3A9"/>
<path d="M59.3533 172.45C59.4047 173.05 59.4561 173.6 59.4561 174.2" stroke="#263238" stroke-miterlimit="10" stroke-linecap="round" stroke-linejoin="round"/>
<path d="M55.3438 158.5C56.7316 161.65 58.3764 166 59.096 170.55" stroke="#263238" stroke-miterlimit="10" stroke-linecap="round" stroke-linejoin="round"/>
<path d="M54.6246 156.95C53.648 154.9 52.877 153.6 52.877 153.6C52.877 153.6 54.676 152.8 55.4984 151.25C56.3208 149.7 57.503 148.9 57.503 148.9" stroke="#263238" stroke-miterlimit="10" stroke-linecap="round" stroke-linejoin="round"/>
<path d="M45.8865 160.2C45.8865 160.2 53.0825 157.3 53.0825 157.85" stroke="#263238" stroke-miterlimit="10" stroke-linecap="round" stroke-linejoin="round"/>
<path d="M57.0918 156.5C57.0918 156.5 60.2786 154.95 63.1056 154.95" stroke="#263238" stroke-miterlimit="10" stroke-linecap="round" stroke-linejoin="round"/>
<path d="M55.8585 161.2C55.8585 161.2 54.0595 162.55 52.0549 164.9C50.0503 167.25 49.2793 169.35 49.2793 169.35" stroke="#263238" stroke-miterlimit="10" stroke-linecap="round" stroke-linejoin="round"/>
<path d="M58.0684 161.95C58.0684 161.95 62.2832 160.8 64.442 162.75" stroke="#263238" stroke-miterlimit="10" stroke-linecap="round" stroke-linejoin="round"/>
<path d="M65.6752 135.7C63.5164 134.45 61.1006 134.4 59.9184 133.1C58.7362 131.8 61.0492 131.1 62.2828 131.6C63.5164 132.1 66.3948 133.55 66.9602 133.85C67.5256 134.15 67.1144 129.6 66.1378 127.85C65.1098 126.15 62.3856 125.15 60.9978 126.55C58.068 129.5 53.5448 125.65 53.8532 123.3C54.1616 121 51.9514 118.5 47.1712 119.95C42.391 121.4 44.19 122.2 44.19 122.2C44.19 122.2 47.5824 124.2 49.7412 125.5C51.9 126.75 55.498 127.85 54.727 128.75C53.956 129.65 51.8486 129.1 50.101 127.75C48.3534 126.4 43.3676 123.15 42.8536 124.35C42.3396 125.55 40.5406 128.9 40.5406 128.9C40.5406 128.9 44.19 129.45 47.0684 130.3C49.9982 131.2 50.5636 132.75 48.302 132.85C46.0404 132.95 41.877 131.3 40.592 133.4C39.307 135.5 40.1808 140.95 40.1808 140.95C40.1808 140.95 44.3442 138.2 46.4516 138.2C48.559 138.2 47.2226 139.35 44.8582 140.85C42.4938 142.35 41.877 142.85 41.877 142.85L44.0358 148.25C44.0358 148.25 47.6338 147.8 49.0216 147.9C50.4094 148 50.4094 148 50.4094 148C50.4094 148 50.4094 142.35 52.0542 140.7C53.7504 139 54.0074 142.9 54.3672 143.9C54.727 144.9 53.6476 147.85 53.6476 147.85C53.6476 147.85 57.7596 145.65 59.096 144.8C60.4324 143.95 60.4324 143.95 60.4324 143.95C60.4324 143.95 58.8904 139.85 57.8624 138.7C56.8344 137.55 55.3952 137.7 56.5774 136.7C57.7596 135.7 59.61 136.2 60.638 137.65C61.666 139.1 62.8996 141.95 62.8996 141.95C62.8996 141.95 64.4416 142.2 66.4462 140C68.5022 137.7 67.834 136.95 65.6752 135.7ZM46.76 141.9C45.1666 141.1 48.9702 139.55 48.9702 139.55C50.358 139.4 48.3534 142.7 46.76 141.9ZM49.4328 134.65C48.7646 134.3 50.8206 133.65 50.8206 133.65C53.7504 134.2 50.1524 135 49.4328 134.65Z" fill="#92E3A9"/>
<path d="M46.7086 145.9C46.2974 146.35 45.8862 146.75 45.4236 147.15" stroke="#263238" stroke-miterlimit="10" stroke-linecap="round" stroke-linejoin="round"/>
<path d="M54.9325 133.8C53.3905 136.9 51.0775 140.95 48.0449 144.45" stroke="#263238" stroke-miterlimit="10" stroke-linecap="round" stroke-linejoin="round"/>
<path d="M55.6521 132.25C56.6287 130.15 57.0913 128.8 57.0913 128.8C57.0913 128.8 58.8903 129.6 60.5865 129.2C62.3341 128.75 63.7219 129.15 63.7219 129.15" stroke="#263238" stroke-miterlimit="10" stroke-linecap="round" stroke-linejoin="round"/>
<path d="M53.9045 131.75C54.3671 131.35 47.3767 128 47.3767 128" stroke="#263238" stroke-miterlimit="10" stroke-linecap="round" stroke-linejoin="round"/>
<path d="M57.6055 133.75C57.6055 133.75 60.8951 135.1 62.7455 137.15" stroke="#263238" stroke-miterlimit="10" stroke-linecap="round" stroke-linejoin="round"/>
<path d="M53.1847 135.95C53.1847 135.95 50.9745 135.5 47.8391 135.6C44.7037 135.65 42.5449 136.5 42.5449 136.5" stroke="#263238" stroke-miterlimit="10" stroke-linecap="round" stroke-linejoin="round"/>
<path d="M54.0078 138.05C54.0078 138.05 57.6572 140.35 57.6058 143.25" stroke="#263238" stroke-miterlimit="10" stroke-linecap="round" stroke-linejoin="round"/>
<path d="M34.6304 162.65C32.8828 161.65 30.9296 161.6 30.0044 160.55C29.0792 159.5 30.9296 158.95 31.9062 159.35C32.8828 159.75 35.1958 160.9 35.6584 161.15C36.121 161.4 35.8126 157.7 34.9902 156.35C34.1678 154.95 31.9576 154.15 30.8268 155.3C28.5138 157.7 24.8644 154.55 25.07 152.7C25.327 150.85 23.528 148.8 19.673 150C15.818 151.2 17.2572 151.85 17.2572 151.85C17.2572 151.85 19.9814 153.5 21.729 154.5C23.4766 155.5 26.355 156.35 25.7382 157.1C25.1214 157.85 23.4252 157.4 22.0374 156.3C20.6496 155.2 16.589 152.6 16.1778 153.55C15.7666 154.5 14.3274 157.2 14.3274 157.2C14.3274 157.2 17.2572 157.6 19.6216 158.35C21.986 159.05 22.4486 160.3 20.5982 160.4C18.7478 160.5 15.4582 159.15 14.4302 160.85C13.4022 162.55 14.1218 166.9 14.1218 166.9C14.1218 166.9 17.4628 164.7 19.159 164.7C20.8552 164.7 19.7758 165.65 17.874 166.85C15.9722 168.05 15.4582 168.45 15.4582 168.45L17.2058 172.8C17.2058 172.8 20.0842 172.45 21.215 172.5C22.3458 172.6 22.3458 172.6 22.3458 172.6C22.3458 172.6 22.3458 168.05 23.6822 166.7C25.0186 165.35 25.2756 168.45 25.5326 169.25C25.841 170.05 24.9672 172.45 24.9672 172.45C24.9672 172.45 28.3082 170.7 29.3876 170C30.467 169.3 30.467 169.3 30.467 169.3C30.467 169.3 29.2334 166 28.3596 165.05C27.5372 164.1 26.355 164.25 27.3316 163.45C28.3082 162.65 29.7474 163.05 30.5698 164.25C31.3922 165.4 32.3688 167.7 32.3688 167.7C32.3688 167.7 33.6024 167.9 35.1958 166.1C36.892 164.25 36.378 163.65 34.6304 162.65ZM19.416 167.65C18.131 167 21.1636 165.75 21.1636 165.75C22.2944 165.6 20.701 168.25 19.416 167.65ZM21.5748 161.8C21.0094 161.55 22.6542 161 22.6542 161C25.07 161.45 22.1402 162.05 21.5748 161.8Z" fill="#92E3A9"/>
<path d="M19.3649 170.8C19.0051 171.15 18.6967 171.5 18.3369 171.8" stroke="#263238" stroke-miterlimit="10" stroke-linecap="round" stroke-linejoin="round"/>
<path d="M25.9955 161.1C24.7619 163.6 22.9115 166.85 20.4443 169.7" stroke="#263238" stroke-miterlimit="10" stroke-linecap="round" stroke-linejoin="round"/>
<path d="M26.5605 159.85C27.3315 158.15 27.7427 157.05 27.7427 157.05C27.7427 157.05 29.1819 157.7 30.5697 157.35C31.9575 157 33.0883 157.3 33.0883 157.3" stroke="#263238" stroke-miterlimit="10" stroke-linecap="round" stroke-linejoin="round"/>
<path d="M19.9297 156.4C19.9297 156.4 25.5323 159.1 25.1725 159.4" stroke="#263238" stroke-miterlimit="10" stroke-linecap="round" stroke-linejoin="round"/>
<path d="M28.1025 161.05C28.1025 161.05 30.7753 162.1 32.2145 163.75" stroke="#263238" stroke-miterlimit="10" stroke-linecap="round" stroke-linejoin="round"/>
<path d="M24.5565 162.85C24.5565 162.85 22.7575 162.5 20.2389 162.55C17.7203 162.6 15.9727 163.25 15.9727 163.25" stroke="#263238" stroke-miterlimit="10" stroke-linecap="round" stroke-linejoin="round"/>
<path d="M25.2756 164.55C25.2756 164.55 28.2054 166.4 28.154 168.75" stroke="#263238" stroke-miterlimit="10" stroke-linecap="round" stroke-linejoin="round"/>
<path d="M27.4854 130.55C27.4854 130.55 25.2752 132.1 23.8874 130.55C22.4996 129 24.5042 125.9 22.4996 124.7C20.495 123.55 17.3082 125.65 17.3082 125.65C17.3082 125.65 19.9296 126.25 19.9296 127.6C19.9296 128.95 18.7474 129.55 18.5418 128.95C18.3362 128.35 16.9484 125.45 14.9438 126.8C12.9392 128.15 12.7336 130.1 12.7336 130.1C12.7336 130.1 17.5138 129.3 17.925 131.05C18.3362 132.8 15.9204 130.85 13.9158 130.85C11.9112 130.85 10.1122 131.25 10.3178 132.4C10.5234 133.55 10.3178 135.5 10.3178 135.5C10.3178 135.5 11.9112 133.95 14.1214 133.95C16.3316 133.95 16.3316 135.3 14.327 135.3C12.3224 135.3 10.729 137.25 10.729 137.25C10.729 137.25 12.7336 140.15 15.1494 141.55C17.5652 142.9 18.3362 142.35 18.5418 141.15C18.7474 140 17.925 137.05 19.3642 137.05C20.752 137.05 17.3596 142.3 19.1586 142.5C20.9576 142.7 22.3454 142.1 22.7566 140.95C23.1678 139.8 23.1678 139.8 23.1678 139.8C23.1678 139.8 22.3454 136.9 22.551 135.7C22.7566 134.55 23.1678 135.7 23.5276 137.05C23.9388 138.4 24.35 141.7 24.9154 141.5C25.5322 141.3 27.3312 138.8 27.691 137.8C28.1022 136.85 24.9154 134.1 24.9154 133.5C24.9154 132.9 27.3312 133.9 27.691 134.45C28.1022 135.05 28.5134 135.8 28.5134 135.8C28.5134 135.8 29.9012 134.85 29.6956 132.1C29.49 129.55 27.4854 130.55 27.4854 130.55Z" fill="#92E3A9"/>
<path d="M16.2803 137.6C17.6681 135.7 19.7241 133.15 21.4717 131.9" stroke="#263238" stroke-miterlimit="10" stroke-linecap="round" stroke-linejoin="round"/>
<path d="M14.6865 139.85C14.6865 139.85 15.0463 139.3 15.6117 138.5" stroke="#263238" stroke-miterlimit="10" stroke-linecap="round" stroke-linejoin="round"/>
<path d="M22.5 132.3C22.5 132.3 24.9158 135.2 25.4812 138.3" stroke="#263238" stroke-miterlimit="10" stroke-linecap="round" stroke-linejoin="round"/>
<path d="M20.0837 134.25C20.0837 134.25 20.7005 133.85 20.7005 137.75" stroke="#263238" stroke-miterlimit="10" stroke-linecap="round" stroke-linejoin="round"/>
<path d="M21.4717 130.55C21.4717 130.55 22.6539 129.4 21.8829 127.25" stroke="#263238" stroke-miterlimit="10" stroke-linecap="round" stroke-linejoin="round"/>
<path d="M19.878 132.5L18.9014 130.95" stroke="#263238" stroke-miterlimit="10" stroke-linecap="round" stroke-linejoin="round"/>
<path d="M18.0793 134.25C18.0793 134.25 15.0981 132.3 13.2991 132.3" stroke="#263238" stroke-miterlimit="10" stroke-linecap="round" stroke-linejoin="round"/>
<path d="M47.6339 174.1H32.2139V195.7H47.6339V174.1Z" fill="#263238" stroke="#263238" stroke-width="2" stroke-miterlimit="10" stroke-linecap="round" stroke-linejoin="round"/>
<path d="M247.117 29.25H147.247V195.75H247.117V29.25Z" fill="white" stroke="#858585" stroke-miterlimit="10"/>
<path d="M232.982 31.5498H149.303V195.75H232.982V31.5498Z" fill="#858585" stroke="#858585" stroke-miterlimit="10" stroke-linecap="round" stroke-linejoin="round"/>
<path d="M232.982 58.5999H149.303V61.1499H232.982V58.5999Z" fill="white" stroke="#858585" stroke-miterlimit="10"/>
<path d="M232.982 88.3999H149.303V90.9499H232.982V88.3999Z" fill="white" stroke="#858585" stroke-miterlimit="10"/>
<path d="M206.048 31.5498H204.249V58.5998H206.048V31.5498Z" fill="white" stroke="#858585" stroke-miterlimit="10"/>
<path d="M177.624 31.5498H175.825V58.5998H177.624V31.5498Z" fill="white" stroke="#858585" stroke-miterlimit="10"/>
<path d="M206.048 91H204.249V118.05H206.048V91Z" fill="white" stroke="#858585" stroke-miterlimit="10"/>
<path d="M177.624 90.9998H175.825V118.05H177.624V90.9998Z" fill="white" stroke="#858585" stroke-miterlimit="10"/>
<path d="M191.708 61.3496H189.909V88.3996H191.708V61.3496Z" fill="white" stroke="#858585" stroke-miterlimit="10"/>
<path d="M232.982 118.05H149.303V120.6H232.982V118.05Z" fill="white" stroke="#858585" stroke-miterlimit="10"/>
<path d="M232.982 147.7H149.303V195.75H232.982V147.7Z" fill="white" stroke="#858585" stroke-miterlimit="10"/>
<path d="M191.708 120.65H189.909V147.7H191.708V120.65Z" fill="white" stroke="#858585" stroke-miterlimit="10"/>
<path d="M247.117 29.25H235.09V195.75H247.117V29.25Z" fill="#858585" stroke="#858585" stroke-miterlimit="10" stroke-linecap="round" stroke-linejoin="round"/>
<path d="M211.6 33.6499H207.282V58.5499H211.6V33.6499Z" fill="white" stroke="#858585" stroke-miterlimit="10"/>
<path d="M211.6 53.2H207.282V55.25H211.6V53.2Z" fill="white" stroke="#858585" stroke-miterlimit="10"/>
<path d="M211.6 36.2H207.282V38.25H211.6V36.2Z" fill="white" stroke="#858585" stroke-miterlimit="10"/>
<path d="M216.02 33.6499H211.702V58.5499H216.02V33.6499Z" fill="white" stroke="#858585" stroke-miterlimit="10"/>
<path d="M216.02 53.2H211.702V55.25H216.02V53.2Z" fill="white" stroke="#858585" stroke-miterlimit="10"/>
<path d="M216.02 36.2H211.702V38.25H216.02V36.2Z" fill="white" stroke="#858585" stroke-miterlimit="10"/>
<path d="M220.389 33.6499H216.071V58.5499H220.389V33.6499Z" fill="white" stroke="#858585" stroke-miterlimit="10"/>
<path d="M220.389 53.2H216.071V55.25H220.389V53.2Z" fill="white" stroke="#858585" stroke-miterlimit="10"/>
<path d="M220.389 36.2H216.071V38.25H220.389V36.2Z" fill="white" stroke="#858585" stroke-miterlimit="10"/>
<path d="M224.81 33.6499H220.492V58.5499H224.81V33.6499Z" fill="white" stroke="#858585" stroke-miterlimit="10"/>
<path d="M231.955 33.6499H224.759V58.5499H231.955V33.6499Z" fill="white" stroke="#858585" stroke-miterlimit="10"/>
<path d="M224.81 53.2H220.492V55.25H224.81V53.2Z" fill="white" stroke="#858585" stroke-miterlimit="10"/>
<path d="M224.81 36.2H220.492V38.25H224.81V36.2Z" fill="white" stroke="#858585" stroke-miterlimit="10"/>
<path d="M182.867 33.6499H178.55V58.5499H182.867V33.6499Z" fill="white" stroke="#858585" stroke-miterlimit="10"/>
<path d="M182.867 53.2H178.55V55.25H182.867V53.2Z" fill="white" stroke="#858585" stroke-miterlimit="10"/>
<path d="M182.867 36.2H178.55V38.25H182.867V36.2Z" fill="white" stroke="#858585" stroke-miterlimit="10"/>
<path d="M187.236 33.6499H182.918V58.5499H187.236V33.6499Z" fill="white" stroke="#858585" stroke-miterlimit="10"/>
<path d="M187.236 53.2H182.918V55.25H187.236V53.2Z" fill="white" stroke="#858585" stroke-miterlimit="10"/>
<path d="M187.236 36.2H182.918V38.25H187.236V36.2Z" fill="white" stroke="#858585" stroke-miterlimit="10"/>
<path d="M191.656 33.6499H187.339V58.5499H191.656V33.6499Z" fill="white" stroke="#858585" stroke-miterlimit="10"/>
<path d="M191.656 53.2H187.339V55.25H191.656V53.2Z" fill="white" stroke="#858585" stroke-miterlimit="10"/>
<path d="M191.656 36.2H187.339V38.25H191.656V36.2Z" fill="white" stroke="#858585" stroke-miterlimit="10"/>
<path d="M196.026 33.6499H191.708V58.5499H196.026V33.6499Z" fill="white" stroke="#858585" stroke-miterlimit="10"/>
<path d="M203.171 33.6499H195.975V58.5499H203.171V33.6499Z" fill="white" stroke="#858585" stroke-miterlimit="10"/>
<path d="M196.026 53.2H191.708V55.25H196.026V53.2Z" fill="white" stroke="#858585" stroke-miterlimit="10"/>
<path d="M196.026 36.2H191.708V38.25H196.026V36.2Z" fill="white" stroke="#858585" stroke-miterlimit="10"/>
<path d="M182.867 93.2H178.55V118.1H182.867V93.2Z" fill="white" stroke="#858585" stroke-miterlimit="10"/>
<path d="M182.867 112.7H178.55V114.75H182.867V112.7Z" fill="white" stroke="#858585" stroke-miterlimit="10"/>
<path d="M182.867 95.7H178.55V97.75H182.867V95.7Z" fill="white" stroke="#858585" stroke-miterlimit="10"/>
<path d="M187.236 93.2H182.918V118.1H187.236V93.2Z" fill="white" stroke="#858585" stroke-miterlimit="10"/>
<path d="M187.236 112.7H182.918V114.75H187.236V112.7Z" fill="white" stroke="#858585" stroke-miterlimit="10"/>
<path d="M187.236 95.7H182.918V97.75H187.236V95.7Z" fill="white" stroke="#858585" stroke-miterlimit="10"/>
<path d="M191.656 93.2H187.339V118.1H191.656V93.2Z" fill="white" stroke="#858585" stroke-miterlimit="10"/>
<path d="M191.656 112.7H187.339V114.75H191.656V112.7Z" fill="white" stroke="#858585" stroke-miterlimit="10"/>
<path d="M191.656 95.7H187.339V97.75H191.656V95.7Z" fill="white" stroke="#858585" stroke-miterlimit="10"/>
<path d="M196.026 93.2H191.708V118.1H196.026V93.2Z" fill="white" stroke="#858585" stroke-miterlimit="10"/>
<path d="M203.171 93.2H195.975V118.1H203.171V93.2Z" fill="white" stroke="#858585" stroke-miterlimit="10"/>
<path d="M196.026 112.7H191.708V114.75H196.026V112.7Z" fill="white" stroke="#858585" stroke-miterlimit="10"/>
<path d="M196.026 95.7H191.708V97.75H196.026V95.7Z" fill="white" stroke="#858585" stroke-miterlimit="10"/>
<path d="M211.24 93.2002H206.923V118.1H211.24V93.2002Z" fill="white" stroke="#858585" stroke-miterlimit="10"/>
<path d="M211.24 112.7H206.923V114.75H211.24V112.7Z" fill="white" stroke="#858585" stroke-miterlimit="10"/>
<path d="M211.24 95.7002H206.923V97.7502H211.24V95.7002Z" fill="white" stroke="#858585" stroke-miterlimit="10"/>
<path d="M215.609 93.2002H211.292V118.1H215.609V93.2002Z" fill="white" stroke="#858585" stroke-miterlimit="10"/>
<path d="M215.609 112.7H211.292V114.75H215.609V112.7Z" fill="white" stroke="#858585" stroke-miterlimit="10"/>
<path d="M215.609 95.7002H211.292V97.7502H215.609V95.7002Z" fill="white" stroke="#858585" stroke-miterlimit="10"/>
<path d="M220.03 93.2002H215.712V118.1H220.03V93.2002Z" fill="white" stroke="#858585" stroke-miterlimit="10"/>
<path d="M220.03 112.7H215.712V114.75H220.03V112.7Z" fill="white" stroke="#858585" stroke-miterlimit="10"/>
<path d="M220.03 95.7002H215.712V97.7502H220.03V95.7002Z" fill="white" stroke="#858585" stroke-miterlimit="10"/>
<path d="M224.399 93.2002H220.081V118.1H224.399V93.2002Z" fill="white" stroke="#858585" stroke-miterlimit="10"/>
<path d="M231.544 93.2002H224.348V118.1H231.544V93.2002Z" fill="white" stroke="#858585" stroke-miterlimit="10"/>
<path d="M224.399 112.7H220.081V114.75H224.399V112.7Z" fill="white" stroke="#858585" stroke-miterlimit="10"/>
<path d="M224.399 95.7002H220.081V97.7502H224.399V95.7002Z" fill="white" stroke="#858585" stroke-miterlimit="10"/>
<path d="M154.649 93.2H150.331V118.1H154.649V93.2Z" fill="white" stroke="#858585" stroke-miterlimit="10"/>
<path d="M154.649 112.7H150.331V114.75H154.649V112.7Z" fill="white" stroke="#858585" stroke-miterlimit="10"/>
<path d="M154.649 95.7H150.331V97.75H154.649V95.7Z" fill="white" stroke="#858585" stroke-miterlimit="10"/>
<path d="M159.069 93.2H154.751V118.1H159.069V93.2Z" fill="white" stroke="#858585" stroke-miterlimit="10"/>
<path d="M159.069 112.7H154.751V114.75H159.069V112.7Z" fill="white" stroke="#858585" stroke-miterlimit="10"/>
<path d="M159.069 95.7H154.751V97.75H159.069V95.7Z" fill="white" stroke="#858585" stroke-miterlimit="10"/>
<path d="M163.438 93.2H159.12V118.1H163.438V93.2Z" fill="white" stroke="#858585" stroke-miterlimit="10"/>
<path d="M163.438 112.7H159.12V114.75H163.438V112.7Z" fill="white" stroke="#858585" stroke-miterlimit="10"/>
<path d="M163.438 95.7H159.12V97.75H163.438V95.7Z" fill="white" stroke="#858585" stroke-miterlimit="10"/>
<path d="M167.858 93.2H163.541V118.1H167.858V93.2Z" fill="white" stroke="#858585" stroke-miterlimit="10"/>
<path d="M175.003 93.2H167.807V118.1H175.003V93.2Z" fill="white" stroke="#858585" stroke-miterlimit="10"/>
<path d="M167.858 112.7H163.541V114.75H167.858V112.7Z" fill="white" stroke="#858585" stroke-miterlimit="10"/>
<path d="M167.858 95.7H163.541V97.75H167.858V95.7Z" fill="white" stroke="#858585" stroke-miterlimit="10"/>
<path d="M154.083 33.6499H149.766V58.5499H154.083V33.6499Z" fill="white" stroke="#858585" stroke-miterlimit="10"/>
<path d="M154.083 53.2H149.766V55.25H154.083V53.2Z" fill="white" stroke="#858585" stroke-miterlimit="10"/>
<path d="M154.083 36.2H149.766V38.25H154.083V36.2Z" fill="white" stroke="#858585" stroke-miterlimit="10"/>
<path d="M158.503 33.6499H154.186V58.5499H158.503V33.6499Z" fill="white" stroke="#858585" stroke-miterlimit="10"/>
<path d="M158.503 53.2H154.186V55.25H158.503V53.2Z" fill="white" stroke="#858585" stroke-miterlimit="10"/>
<path d="M158.503 36.2H154.186V38.25H158.503V36.2Z" fill="white" stroke="#858585" stroke-miterlimit="10"/>
<path d="M162.872 33.6499H158.555V58.5499H162.872V33.6499Z" fill="white" stroke="#858585" stroke-miterlimit="10"/>
<path d="M162.872 53.2H158.555V55.25H162.872V53.2Z" fill="white" stroke="#858585" stroke-miterlimit="10"/>
<path d="M162.872 36.2H158.555V38.25H162.872V36.2Z" fill="white" stroke="#858585" stroke-miterlimit="10"/>
<path d="M167.293 33.6499H162.975V58.5499H167.293V33.6499Z" fill="white" stroke="#858585" stroke-miterlimit="10"/>
<path d="M174.438 33.6499H167.242V58.5499H174.438V33.6499Z" fill="white" stroke="#858585" stroke-miterlimit="10"/>
<path d="M167.293 53.2H162.975V55.25H167.293V53.2Z" fill="white" stroke="#858585" stroke-miterlimit="10"/>
<path d="M167.293 36.2H162.975V38.25H167.293V36.2Z" fill="white" stroke="#858585" stroke-miterlimit="10"/>
<path d="M166.831 63.3H162.513V88.2H166.831V63.3Z" fill="white" stroke="#858585" stroke-miterlimit="10"/>
<path d="M166.831 82.8501H162.513V84.9001H166.831V82.8501Z" fill="white" stroke="#858585" stroke-miterlimit="10"/>
<path d="M166.831 65.8501H162.513V67.9001H166.831V65.8501Z" fill="white" stroke="#858585" stroke-miterlimit="10"/>
<path d="M162.565 63.3H158.247V88.2H162.565V63.3Z" fill="white" stroke="#858585" stroke-miterlimit="10"/>
<path d="M162.565 82.8501H158.247V84.9001H162.565V82.8501Z" fill="white" stroke="#858585" stroke-miterlimit="10"/>
<path d="M162.565 65.8501H158.247V67.9001H162.565V65.8501Z" fill="white" stroke="#858585" stroke-miterlimit="10"/>
<path d="M158.35 63.3H154.032V88.2H158.35V63.3Z" fill="white" stroke="#858585" stroke-miterlimit="10"/>
<path d="M158.35 82.8501H154.032V84.9001H158.35V82.8501Z" fill="white" stroke="#858585" stroke-miterlimit="10"/>
<path d="M158.35 65.8501H154.032V67.9001H158.35V65.8501Z" fill="white" stroke="#858585" stroke-miterlimit="10"/>
<path d="M154.083 63.3H149.766V88.2H154.083V63.3Z" fill="white" stroke="#858585" stroke-miterlimit="10"/>
<path d="M154.083 82.8501H149.766V84.9001H154.083V82.8501Z" fill="white" stroke="#858585" stroke-miterlimit="10"/>
<path d="M154.083 65.8501H149.766V67.9001H154.083V65.8501Z" fill="white" stroke="#858585" stroke-miterlimit="10"/>
<path d="M171.199 63.3H166.882V88.2H171.199V63.3Z" fill="white" stroke="#858585" stroke-miterlimit="10"/>
<path d="M171.199 82.8501H166.882V84.9001H171.199V82.8501Z" fill="white" stroke="#858585" stroke-miterlimit="10"/>
<path d="M171.199 65.8501H166.882V67.9001H171.199V65.8501Z" fill="white" stroke="#858585" stroke-miterlimit="10"/>
<path d="M175.619 63.3H171.302V88.2H175.619V63.3Z" fill="white" stroke="#858585" stroke-miterlimit="10"/>
<path d="M175.619 82.8501H171.302V84.9001H175.619V82.8501Z" fill="white" stroke="#858585" stroke-miterlimit="10"/>
<path d="M175.619 65.8501H171.302V67.9001H175.619V65.8501Z" fill="white" stroke="#858585" stroke-miterlimit="10"/>
<path d="M179.989 63.3H175.671V88.2H179.989V63.3Z" fill="white" stroke="#858585" stroke-miterlimit="10"/>
<path d="M187.134 63.3H179.938V88.2H187.134V63.3Z" fill="white" stroke="#858585" stroke-miterlimit="10"/>
<path d="M179.989 82.8501H175.671V84.9001H179.989V82.8501Z" fill="white" stroke="#858585" stroke-miterlimit="10"/>
<path d="M179.989 65.8501H175.671V67.9001H179.989V65.8501Z" fill="white" stroke="#858585" stroke-miterlimit="10"/>
<path d="M197.363 63.2998H193.045V88.1998H197.363V63.2998Z" fill="white" stroke="#858585" stroke-miterlimit="10"/>
<path d="M197.363 82.8499H193.045V84.8999H197.363V82.8499Z" fill="white" stroke="#858585" stroke-miterlimit="10"/>
<path d="M197.363 65.8499H193.045V67.8999H197.363V65.8499Z" fill="white" stroke="#858585" stroke-miterlimit="10"/>
<path d="M201.782 63.2998H197.465V88.1998H201.782V63.2998Z" fill="white" stroke="#858585" stroke-miterlimit="10"/>
<path d="M201.782 82.8499H197.465V84.8999H201.782V82.8499Z" fill="white" stroke="#858585" stroke-miterlimit="10"/>
<path d="M201.782 65.8499H197.465V67.8999H201.782V65.8499Z" fill="white" stroke="#858585" stroke-miterlimit="10"/>
<path d="M210.551 63.314L206.526 64.9673L216.604 88.1815L220.628 86.5283L210.551 63.314Z" fill="white" stroke="#858585" stroke-miterlimit="10"/>
<path d="M218.451 81.5035L214.426 83.1567L215.246 85.0452L219.27 83.392L218.451 81.5035Z" fill="white" stroke="#858585" stroke-miterlimit="10"/>
<path d="M211.571 65.6544L207.546 67.3076L208.366 69.1961L212.39 67.5428L211.571 65.6544Z" fill="white" stroke="#858585" stroke-miterlimit="10"/>
<path d="M216.637 88.15H225.58L229.641 86.55L220.646 86.5L216.637 88.15Z" fill="white" stroke="#858585" stroke-miterlimit="10"/>
<path d="M210.572 63.2998H219.002L229.642 86.5498L220.647 86.4998L210.572 63.2998Z" fill="white" stroke="#858585" stroke-miterlimit="10"/>
<path d="M205.997 63.2998H201.68V88.1998H205.997V63.2998Z" fill="white" stroke="#858585" stroke-miterlimit="10"/>
<path d="M205.997 82.8499H201.68V84.8999H205.997V82.8499Z" fill="white" stroke="#858585" stroke-miterlimit="10"/>
<path d="M205.997 65.8499H201.68V67.8999H205.997V65.8499Z" fill="white" stroke="#858585" stroke-miterlimit="10"/>
<path d="M205.997 63.2998H210.572L206.563 64.9498L216.637 88.1498H205.997V63.2998Z" fill="white" stroke="#858585" stroke-miterlimit="10"/>
<path d="M166.831 122.75H162.513V147.65H166.831V122.75Z" fill="white" stroke="#858585" stroke-miterlimit="10"/>
<path d="M166.831 142.25H162.513V144.3H166.831V142.25Z" fill="white" stroke="#858585" stroke-miterlimit="10"/>
<path d="M166.831 125.25H162.513V127.3H166.831V125.25Z" fill="white" stroke="#858585" stroke-miterlimit="10"/>
<path d="M162.565 122.75H158.247V147.65H162.565V122.75Z" fill="white" stroke="#858585" stroke-miterlimit="10"/>
<path d="M162.565 142.25H158.247V144.3H162.565V142.25Z" fill="white" stroke="#858585" stroke-miterlimit="10"/>
<path d="M162.565 125.25H158.247V127.3H162.565V125.25Z" fill="white" stroke="#858585" stroke-miterlimit="10"/>
<path d="M158.35 122.75H154.032V147.65H158.35V122.75Z" fill="white" stroke="#858585" stroke-miterlimit="10"/>
<path d="M158.35 142.25H154.032V144.3H158.35V142.25Z" fill="white" stroke="#858585" stroke-miterlimit="10"/>
<path d="M158.35 125.25H154.032V127.3H158.35V125.25Z" fill="white" stroke="#858585" stroke-miterlimit="10"/>
<path d="M154.083 122.75H149.766V147.65H154.083V122.75Z" fill="white" stroke="#858585" stroke-miterlimit="10"/>
<path d="M154.083 142.25H149.766V144.3H154.083V142.25Z" fill="white" stroke="#858585" stroke-miterlimit="10"/>
<path d="M154.083 125.25H149.766V127.3H154.083V125.25Z" fill="white" stroke="#858585" stroke-miterlimit="10"/>
<path d="M171.199 122.75H166.882V147.65H171.199V122.75Z" fill="white" stroke="#858585" stroke-miterlimit="10"/>
<path d="M171.199 142.25H166.882V144.3H171.199V142.25Z" fill="white" stroke="#858585" stroke-miterlimit="10"/>
<path d="M171.199 125.25H166.882V127.3H171.199V125.25Z" fill="white" stroke="#858585" stroke-miterlimit="10"/>
<path d="M175.619 122.75H171.302V147.65H175.619V122.75Z" fill="white" stroke="#858585" stroke-miterlimit="10"/>
<path d="M175.619 142.25H171.302V144.3H175.619V142.25Z" fill="white" stroke="#858585" stroke-miterlimit="10"/>
<path d="M175.619 125.25H171.302V127.3H175.619V125.25Z" fill="white" stroke="#858585" stroke-miterlimit="10"/>
<path d="M179.989 122.75H175.671V147.65H179.989V122.75Z" fill="white" stroke="#858585" stroke-miterlimit="10"/>
<path d="M187.134 122.75H179.938V147.65H187.134V122.75Z" fill="white" stroke="#858585" stroke-miterlimit="10"/>
<path d="M179.989 142.25H175.671V144.3H179.989V142.25Z" fill="white" stroke="#858585" stroke-miterlimit="10"/>
<path d="M179.989 125.25H175.671V127.3H179.989V125.25Z" fill="white" stroke="#858585" stroke-miterlimit="10"/>
<path d="M197.363 122.75H193.045V147.65H197.363V122.75Z" fill="white" stroke="#858585" stroke-miterlimit="10"/>
<path d="M197.363 142.25H193.045V144.3H197.363V142.25Z" fill="white" stroke="#858585" stroke-miterlimit="10"/>
<path d="M197.363 125.25H193.045V127.3H197.363V125.25Z" fill="white" stroke="#858585" stroke-miterlimit="10"/>
<path d="M201.782 122.75H197.465V147.65H201.782V122.75Z" fill="white" stroke="#858585" stroke-miterlimit="10"/>
<path d="M201.782 142.25H197.465V144.3H201.782V142.25Z" fill="white" stroke="#858585" stroke-miterlimit="10"/>
<path d="M201.782 125.25H197.465V127.3H201.782V125.25Z" fill="white" stroke="#858585" stroke-miterlimit="10"/>
<path d="M210.548 122.712L206.523 124.366L216.601 147.58L220.625 145.927L210.548 122.712Z" fill="white" stroke="#858585" stroke-miterlimit="10"/>
<path d="M218.468 140.948L214.443 142.602L215.263 144.49L219.288 142.837L218.468 140.948Z" fill="white" stroke="#858585" stroke-miterlimit="10"/>
<path d="M211.567 125.053L207.542 126.706L208.362 128.595L212.386 126.941L211.567 125.053Z" fill="white" stroke="#858585" stroke-miterlimit="10"/>
<path d="M216.637 147.55H225.58L229.641 145.95L220.646 145.9L216.637 147.55Z" fill="white" stroke="#858585" stroke-miterlimit="10"/>
<path d="M210.572 122.7H219.002L229.642 145.95L220.647 145.9L210.572 122.7Z" fill="white" stroke="#858585" stroke-miterlimit="10"/>
<path d="M205.997 122.75H201.68V147.65H205.997V122.75Z" fill="white" stroke="#858585" stroke-miterlimit="10"/>
<path d="M205.997 142.25H201.68V144.3H205.997V142.25Z" fill="white" stroke="#858585" stroke-miterlimit="10"/>
<path d="M205.997 125.25H201.68V127.3H205.997V125.25Z" fill="white" stroke="#858585" stroke-miterlimit="10"/>
<path d="M205.997 122.75H210.572L206.563 124.35L216.637 147.55H205.997V122.75Z" fill="white" stroke="#858585" stroke-miterlimit="10"/>
<path d="M189.909 147.7C189.703 162.5 189.703 177 189.909 191.85" stroke="#858585" stroke-miterlimit="10"/>
<path d="M150.023 154.95H232.982" stroke="#858585" stroke-miterlimit="10"/>
<path d="M167.036 159.85V170.45" stroke="#858585" stroke-width="2" stroke-miterlimit="10"/>
<path d="M170.686 159.85V170.45" stroke="#858585" stroke-width="2" stroke-miterlimit="10"/>
<path d="M208.721 159.85V170.45" stroke="#858585" stroke-width="2" stroke-miterlimit="10"/>
<path d="M212.319 159.85V170.45" stroke="#858585" stroke-width="2" stroke-miterlimit="10"/>
<path d="M22.5505 38.95V21H49.3813" stroke="#263238" stroke-miterlimit="10"/>
<path d="M51.3345 21H62.6425V65.5H22.5505V41.65" stroke="#263238" stroke-miterlimit="10"/>
<path d="M48.0454 59.5H27.948V27H57.246V59.5H50.3584" stroke="#263238" stroke-miterlimit="10"/>
<path d="M48.1987 37H36.9421V49.5H48.1987V37Z" stroke="#263238" stroke-miterlimit="10"/>
<path d="M66.1892 59.65V48.5H82.9456" stroke="#263238" stroke-miterlimit="10"/>
<path d="M84.1792 48.5H91.221V76.25H66.1892V61.35" stroke="#263238" stroke-miterlimit="10"/>
<path d="M82.1231 72.5H69.5815V52.25H87.8285V72.5H83.5623" stroke="#263238" stroke-miterlimit="10"/>
<path d="M82.2259 58.45H75.1841V66.25H82.2259V58.45Z" stroke="#263238" stroke-miterlimit="10"/>
<path d="M254.571 195.7H8.82715" stroke="#263238" stroke-miterlimit="10" stroke-linecap="round" stroke-linejoin="round"/>
<path d="M174.797 147.35C172.176 138.2 165.751 131.25 160.662 127.95C155.574 124.65 149.2 126.65 139.948 127.2C130.748 127.75 118.309 129.75 113.015 130.3C107.72 130.85 103.968 129.75 99.445 133.4C94.9218 137.05 87.7772 146.75 87.7772 146.75C87.7772 146.75 65.3668 173.3 64.236 177.7C63.1052 182.1 65.1612 191.8 68.9648 192C72.717 192.2 94.562 168.05 94.562 168.05C94.562 168.05 92.9686 182.55 98.1086 187.35C99.9076 189.05 100.679 192.75 100.987 195.65H160.354C159.737 192.35 159.018 188.15 159.018 188.15C158.863 187.25 160.046 185.95 160.457 185.2C161.793 183 162.975 180.15 162.461 177.55L160.714 168.55C160.714 168.55 167.961 192.15 172.639 194.9C177.367 197.65 183.381 195.1 183.947 190.7C184.512 186.3 177.47 156.5 174.797 147.35Z" fill="#92E3A9" stroke="#263238" stroke-miterlimit="10" stroke-linecap="round" stroke-linejoin="round"/>
<path d="M108.852 148.25C108.852 148.25 110.496 156.1 117.59 160.75" stroke="#263238" stroke-miterlimit="10" stroke-linecap="round" stroke-linejoin="round"/>
<path d="M126.739 156.35C126.739 156.35 124.272 166.25 118.258 171.1" stroke="#263238" stroke-miterlimit="10" stroke-linecap="round" stroke-linejoin="round"/>
<path d="M106.384 126.25C106.384 126.25 107.566 150.15 117.229 155.35C126.892 160.55 129.719 140.15 128.28 122.05C128.28 122.05 120.981 128.7 117.435 128.9C113.888 129.2 106.384 126.25 106.384 126.25Z" fill="white" stroke="#263238" stroke-miterlimit="10" stroke-linecap="round" stroke-linejoin="round"/>
<path d="M106.384 126.25C106.384 126.25 106.744 133.7 108.748 141.2L117.075 131.3L120.262 129.2L118.72 128.7C118.257 128.85 117.846 128.95 117.435 129C113.888 129.2 106.384 126.25 106.384 126.25Z" fill="#263238" stroke="#263238" stroke-miterlimit="10" stroke-linecap="round" stroke-linejoin="round"/>
<path d="M94.768 71.7001C94.768 71.7001 83.46 71.3501 76.6752 79.7501C69.8904 88.1501 68.9652 99.9001 72.3576 105.75C75.75 111.6 77.6518 112.7 77.6518 112.7C77.6518 112.7 69.5306 122.4 73.1286 132.85C76.7266 143.3 83.6656 149.35 87.6234 152.25C91.5812 155.15 95.539 160.5 93.6372 162.5C91.7354 164.5 90.4504 162.15 90.4504 162.15C90.4504 162.15 87.829 165.1 90.656 168.4C93.483 171.7 99.137 171.7 103.814 168.6C108.543 165.5 108.543 156.7 106.847 151.75C105.151 146.8 100.628 140.95 103.455 136.35C106.282 131.75 106.076 129.55 106.076 129.55C106.076 129.55 97.8006 119.85 97.595 115.25C97.3894 110.65 97.3894 90.9001 106.076 90.7001C114.763 90.5001 123.963 103.35 125.454 108.45C126.944 113.6 125.094 116.5 124.529 122.75C123.963 129 124.734 133.9 127.356 136.85C129.977 139.8 133.575 146.9 132.65 150.4C131.725 153.9 127.356 151.3 127.356 151.3C127.356 151.3 127.561 156.05 134.911 156.05C142.262 156.05 147.35 153.1 150.743 143.25C154.135 133.35 151.873 128.95 148.841 124.4C145.808 119.8 144.523 115.45 146.939 110.1C149.406 104.8 149.406 94.3501 145.448 89.9501C141.491 85.5501 142.981 87.7501 136.402 81.7001C129.823 75.6501 125.3 67.0501 113.066 65.6001C100.833 64.2001 96.1044 68.9501 94.768 71.7001Z" fill="#263238" stroke="#263238" stroke-miterlimit="10" stroke-linecap="round" stroke-linejoin="round"/>
<path d="M94.7681 71.7002C94.7681 71.7002 81.9695 66.2502 71.3811 84.6002" stroke="#263238" stroke-miterlimit="10" stroke-linecap="round" stroke-linejoin="round"/>
<path d="M138.715 84.2C138.715 84.2 148.327 88.15 149.663 97.65C151 107.15 145.037 110.75 146.219 116.75C147.35 122.75 153.313 122.9 154.084 131.9" stroke="#263238" stroke-miterlimit="10" stroke-linecap="round" stroke-linejoin="round"/>
<path d="M77.6516 112.7C77.6516 112.7 70.6098 125.35 71.9976 134.5C73.334 143.65 88.1372 152.65 90.0904 157.5" stroke="#263238" stroke-miterlimit="10" stroke-linecap="round" stroke-linejoin="round"/>
<path d="M92.6092 103.45C92.6092 103.45 94.8708 120.2 95.6418 122.45C96.4128 124.7 107.978 133.05 111.833 134.45C115.739 135.85 118.052 134.35 118.926 133.5C119.8 132.65 126.79 126.7 128.692 117C130.594 107.3 128.229 104.7 125.454 99.6002C122.678 94.5502 121.033 90.7502 118.463 89.0002C115.893 87.2502 102.838 83.5002 102.838 83.5002C102.838 83.5002 93.0718 95.8002 92.198 99.5002C91.3242 103.1 92.6092 103.45 92.6092 103.45Z" fill="white" stroke="#263238" stroke-miterlimit="10" stroke-linecap="round" stroke-linejoin="round"/>
<path d="M101.861 83.1502C101.861 83.1502 111.319 95.1502 123.346 95.0002C123.706 95.0002 124.066 95.0002 124.426 94.9502C136.967 94.0502 122.575 93.1502 122.575 93.1502C122.575 93.1502 108.029 89.1002 104.02 82.1002C100.011 75.1002 101.861 83.1502 101.861 83.1502Z" fill="#263238" stroke="#263238" stroke-miterlimit="10" stroke-linecap="round" stroke-linejoin="round"/>
<path d="M106.281 110.95C106.538 112.4 106.076 113.7 105.202 113.85C104.328 114 103.403 112.95 103.146 111.5C102.889 110.05 103.352 108.75 104.225 108.6C105.048 108.45 105.973 109.5 106.281 110.95Z" fill="#263238"/>
<path d="M119.44 109.45C119.697 110.9 119.235 112.2 118.361 112.35C117.487 112.5 116.562 111.45 116.305 110C116.048 108.55 116.511 107.25 117.384 107.1C118.258 106.95 119.183 108 119.44 109.45Z" fill="#263238"/>
<path d="M107.772 119.55C107.772 119.55 109.571 121.6 112.758 120.85C114.557 120.45 115.328 117.95 115.328 117.95" stroke="#263238" stroke-miterlimit="10" stroke-linecap="round" stroke-linejoin="round"/>
<path d="M114.197 126.9C114.197 126.9 115.482 123.45 120.417 121.5" stroke="#263238" stroke-miterlimit="10" stroke-linecap="round" stroke-linejoin="round"/>
<path d="M97.4408 106.85C97.4408 106.85 102.221 103.85 103.866 102.95C105.511 102.1 105.202 100.15 103.198 100.8C101.193 101.45 96.4642 105.75 97.4408 106.85Z" fill="#263238" stroke="#263238" stroke-miterlimit="10" stroke-linecap="round" stroke-linejoin="round"/>
<path d="M120.879 103.05C120.879 103.05 115.688 98.5 114.094 98.95C112.552 99.4 113.323 100.15 114.3 101.35C115.277 102.55 121.188 104.9 121.496 104.15C121.856 103.35 120.879 103.05 120.879 103.05Z" fill="#263238" stroke="#263238" stroke-miterlimit="10" stroke-linecap="round" stroke-linejoin="round"/>
<path d="M84.0765 121.5C84.0765 121.5 78.2169 98.65 78.2169 96.95C78.2169 95.25 80.1187 87.4 80.9925 85.95C81.8663 84.5 87.8801 79.6 87.8801 79.6C87.8801 79.6 92.2491 76 92.7117 76.75C93.1743 77.5 93.3799 77.6 92.3519 79.45C91.3239 81.3 88.4455 84.55 88.0857 85.55C87.7259 86.55 85.5157 93.05 85.5157 93.5C85.5157 93.95 89.9875 86.55 89.9875 86.55C89.9875 86.55 97.0293 78.95 97.5947 78.6C98.1601 78.25 99.5993 78.5 98.9311 80.45C98.2629 82.4 93.1229 89.8 93.1229 89.8L90.4501 97.2L96.3611 91.85C96.3611 91.85 101.604 85.3 102.272 85.45C102.94 85.55 103.146 86.95 102.169 88.8C101.141 90.65 97.3377 96.3 97.3377 96.3C97.3377 96.3 92.8659 102.7 92.5061 103.35C92.1463 104 95.7443 116.2 95.1789 119.15C94.6135 122.1 93.7397 124.7 93.7397 124.7C93.7397 124.7 83.3569 179.9 81.9691 183.7C80.5813 187.5 71.1751 194.5 67.1145 195.3C63.0539 196.05 60.0727 189.05 59.3017 185.25C58.5307 181.45 59.6101 177.2 61.3577 173.85C63.1053 170.5 84.0765 121.5 84.0765 121.5Z" fill="white" stroke="#263238" stroke-miterlimit="10" stroke-linecap="round" stroke-linejoin="round"/>
<path d="M59.3531 185.25C60.1241 189.05 63.1053 196.05 67.1659 195.3C71.2265 194.55 80.6327 187.55 82.0205 183.7C82.2775 183.05 82.7401 181.1 83.3569 178.3C80.8383 179.95 75.9039 182.7 71.5863 181.8C65.5211 180.55 61.3577 173.8 61.3577 173.8C59.6615 177.2 58.5821 181.45 59.3531 185.25Z" fill="#92E3A9" stroke="#263238" stroke-miterlimit="10" stroke-linecap="round" stroke-linejoin="round"/>
<path d="M87.9315 79.6001C87.9315 79.6001 83.4596 85.7001 83.2026 86.5001C82.9456 87.3001 80.8896 93.4001 80.8896 93.4001" stroke="#263238" stroke-miterlimit="10" stroke-linecap="round" stroke-linejoin="round"/>
<path d="M84.6937 96.8499C84.6937 96.8499 84.1283 98.7999 84.6937 99.7999C85.2591 100.8 85.4647 101.45 85.4647 101.45" stroke="#263238" stroke-miterlimit="10" stroke-linecap="round" stroke-linejoin="round"/>
<path d="M80.5301 96.45C80.5301 96.45 79.8619 97.75 80.4273 98.6C80.9927 99.45 81.1983 100 81.1983 100" stroke="#263238" stroke-miterlimit="10" stroke-linecap="round" stroke-linejoin="round"/>
<path d="M159.737 119.8C159.737 119.8 151.41 141.3 146.835 150.8C142.261 160.3 137.789 170.7 137.789 170.7C137.789 170.7 148.737 172.7 151.41 173.45C154.083 174.15 158.503 175.2 158.503 175.2C158.503 175.2 175.105 142.3 176.133 138.85C177.161 135.4 181.787 126.15 181.787 126.15C181.787 126.15 161.382 120.7 159.737 119.8Z" fill="white" stroke="#263238" stroke-miterlimit="10" stroke-linecap="round" stroke-linejoin="round"/>
<path d="M160.456 133.5C160.456 133.5 156.447 143.75 152.438 150.95C148.429 158.15 142.929 169.85 142.929 169.85L162.358 173.45C162.358 173.45 166.676 159.45 171.096 152.7C175.568 145.9 179.114 138.55 179.114 138.55L160.456 133.5Z" fill="white" stroke="#263238" stroke-miterlimit="10" stroke-linecap="round" stroke-linejoin="round"/>
<path d="M177.161 153.55C177.161 153.55 177.161 150.35 177.367 148.75C177.573 147.1 173.82 140.7 173.152 140.3C172.535 139.9 165.391 138.25 164.517 139.7C163.695 141.15 165.905 141.8 167.447 142.55C168.989 143.3 170.993 144.2 170.993 144.2L172.021 147.45L166.779 145.8C166.779 145.8 159.017 146.85 158.606 147.25C158.195 147.65 157.321 148.5 160.097 149.5C162.821 150.5 166.162 150.1 166.162 150.1L171.096 152.7L161.536 152.95C161.536 152.95 156.293 153.95 156.293 155.4C156.293 156.85 158.812 156.85 159.84 156.85C160.868 156.85 160.868 156.85 160.868 156.85L167.807 157.65C167.807 157.65 159.634 159.3 158.555 159.7C157.527 160.1 158.555 161.95 160.045 162.35C161.536 162.75 165.905 161.95 165.905 161.95C165.905 161.95 166.419 166.3 167.704 168.35C168.989 170.4 172.124 173.35 172.124 173.35C172.124 173.35 172.638 182.8 173.101 188.5C173.512 194.2 178.138 196.65 180.862 197.3C183.586 197.9 187.441 197.95 189.754 193.65C192.067 189.35 190.525 182.6 186.979 177.5C183.432 172.4 180.04 167.5 179.629 166.5C179.269 165.45 177.161 153.55 177.161 153.55Z" fill="white" stroke="#263238" stroke-miterlimit="10" stroke-linecap="round" stroke-linejoin="round"/>
<path d="M172.124 147.45L174.54 148.45" stroke="#263238" stroke-miterlimit="10" stroke-linecap="round" stroke-linejoin="round"/>
<path d="M171.148 152.7C171.148 152.7 172.381 153.2 172.484 154.2L171.148 152.7Z" fill="white"/>
<path d="M171.148 152.7C171.148 152.7 172.381 153.2 172.484 154.2" stroke="#263238" stroke-miterlimit="10" stroke-linecap="round" stroke-linejoin="round"/>
<path d="M167.909 157.65C167.909 157.65 169.4 157.75 169.554 158.6L167.909 157.65Z" fill="white"/>
<path d="M167.909 157.65C167.909 157.65 169.4 157.75 169.554 158.6" stroke="#263238" stroke-miterlimit="10" stroke-linecap="round" stroke-linejoin="round"/>
<path d="M189.858 193.65C190.372 192.7 190.68 191.65 190.834 190.5C189.498 192 187.442 193.5 184.409 194.1C179.372 195.1 175.26 192.25 173.615 190.85C174.9 194.95 178.601 196.8 180.965 197.35C183.69 197.9 187.545 197.9 189.858 193.65Z" fill="#92E3A9" stroke="#263238" stroke-miterlimit="10" stroke-linecap="round" stroke-linejoin="round"/>
<path d="M122.318 191.1C122.318 191.1 150.228 182.9 144.677 185.25C139.074 187.6 131.724 191.35 131.724 191.35C131.724 191.35 143.083 189.5 139.999 190.65C136.915 191.8 111.01 193.45 111.01 193.45L122.318 191.1Z" fill="#263238" stroke="#263238" stroke-miterlimit="10" stroke-linecap="round" stroke-linejoin="round"/>
<path d="M107.926 141.25L104.276 143.6C104.276 143.6 102.683 140.3 103.454 138.35C104.276 136.4 106.538 133.65 106.538 133.65L106.589 134.3C106.795 136.65 107.206 139 107.926 141.25Z" fill="#263238" stroke="#263238" stroke-miterlimit="10" stroke-linecap="round" stroke-linejoin="round"/>
<path d="M81.1977 207.8C80.7351 207.7 80.1697 207.6 80.1697 207.25C80.1697 206.9 80.0669 199.3 77.2399 197.25C74.4129 195.15 70.4551 194.15 67.1655 196.05C63.8759 197.9 63.3105 199.8 63.0021 201.35C62.6423 202.9 62.6423 205.1 62.6423 205.1C62.6423 205.1 59.3527 206 58.6845 204.65C58.0163 203.35 56.4229 197.5 54.6239 195.6C52.8249 193.75 47.3765 192.65 43.7785 194.15C40.1805 195.7 40.0263 196.45 39.8207 198.55C39.6151 200.65 39.8207 203.95 39.2553 204.6C38.6899 205.25 37.4563 205.6 37.4563 205.6C37.4563 205.6 22.7559 207.05 21.5223 207.9C20.2887 208.8 20.2887 209.75 18.0271 210.1C15.7655 210.45 13.9665 207.45 12.9385 208.55C11.9105 209.65 14.8403 211.95 16.6907 212.75C18.4897 213.5 21.1111 212.2 22.3447 211.2C23.5783 210.2 24.2465 210.1 26.1997 209.55C28.1015 209 32.2135 208.9 33.3443 208.55C34.4751 208.2 35.4003 207.45 36.1713 207.35C36.9423 207.25 37.7647 207.25 37.7647 207.25L39.2553 207.45C39.2553 207.45 39.6151 208.55 43.6757 209C47.7363 209.45 54.7781 209 56.3715 208.65C57.9649 208.3 62.3853 208.3 63.8245 208.85C65.3151 209.4 69.4785 211.25 72.3055 211.4C72.3055 211.4 70.7121 213.05 68.2449 214.6C65.7777 216.15 63.9273 216.9 61.3573 215.9C58.7359 214.9 54.5725 210.4 53.0819 211.4C51.5913 212.4 51.1801 213.95 52.6193 214.7C54.1099 215.45 60.0723 217.8 62.0255 217.9C63.9273 218 72.8709 215.5 76.1605 213.85C79.4501 212.2 81.2491 210.9 81.3519 210.55C81.3005 210.25 81.6603 207.9 81.1977 207.8ZM57.1939 206.5C57.1939 206.5 56.8341 207.7 54.9323 208.15C53.0305 208.6 48.5073 208.9 45.9887 208.25C43.5215 207.6 41.5683 207.6 40.7973 205.3C40.0263 203 40.5917 199.25 41.0029 197.8C41.4655 196.35 43.0589 195.25 46.4513 194.6C49.8437 193.95 51.4371 195.05 53.0305 195.9C54.6239 196.8 55.6519 199.75 56.7827 202.5C57.8621 205.3 57.1939 206.5 57.1939 206.5ZM79.6043 208.35C79.6043 208.35 79.6043 208.35 78.2679 209.25C76.9315 210.15 73.6419 210.7 69.9925 210.15C66.3945 209.6 64.2357 207.6 63.8759 205.65C63.5161 203.65 64.3385 199.95 64.3385 199.95C65.1095 198.65 67.1655 196.1 70.7635 196.1C74.3615 196.1 77.1885 197.3 78.4735 201.05C79.7071 204.75 79.6043 208.35 79.6043 208.35Z" fill="#263238" stroke="#263238" stroke-miterlimit="10" stroke-linecap="round" stroke-linejoin="round"/>
<path d="M84.4873 198.15L95.2299 212.15L129.719 208.25C129.719 208.25 120.879 204.2 117.229 201.5C113.58 198.8 111.318 197.1 111.318 197.1L84.4873 198.15Z" fill="white" stroke="#263238" stroke-miterlimit="10" stroke-linecap="round" stroke-linejoin="round"/>
<path d="M79.1934 200L88.8052 216.4L115.482 213L99.1366 198.85L79.1934 200Z" fill="white" stroke="#263238" stroke-miterlimit="10" stroke-linecap="round" stroke-linejoin="round"/>
<path d="M98.2626 202.45L124.065 202.85L124.888 219.15H91.9404L98.2626 202.45Z" fill="white" stroke="#263238" stroke-miterlimit="10" stroke-linecap="round" stroke-linejoin="round"/>
<path d="M118.463 204L118.36 214.8" stroke="#263238" stroke-miterlimit="10" stroke-linecap="round" stroke-linejoin="round"/>
<path d="M112.243 204L110.393 214.95" stroke="#263238" stroke-miterlimit="10" stroke-linecap="round" stroke-linejoin="round"/>
<path d="M105.356 203.75L102.734 214.7" stroke="#263238" stroke-miterlimit="10" stroke-linecap="round" stroke-linejoin="round"/>
<path d="M123.5 214.9H96.1035" stroke="#263238" stroke-miterlimit="10" stroke-linecap="round" stroke-linejoin="round"/>
<path d="M123.243 209.6H98.4678" stroke="#263238" stroke-miterlimit="10" stroke-linecap="round" stroke-linejoin="round"/>
<path d="M122.986 205.15H104.944" stroke="#263238" stroke-miterlimit="10" stroke-linecap="round" stroke-linejoin="round"/>
<path d="M99.4959 203.65L96.1035 214.9" stroke="#263238" stroke-miterlimit="10" stroke-linecap="round" stroke-linejoin="round"/>
<path d="M121.187 217.45H96.3093L96.6691 216.25H121.187V217.45Z" fill="#92E3A9"/>
<path d="M162.975 217.55L131.416 208.2V206.8L247.22 217.55H162.975Z" fill="#263238" stroke="#263238" stroke-miterlimit="10" stroke-linecap="round" stroke-linejoin="round"/>
<path d="M162.975 216.15L131.416 206.8H190.886L247.22 216.15H162.975Z" fill="#CFCFCF" stroke="#263238" stroke-miterlimit="10" stroke-linecap="round" stroke-linejoin="round"/>
<path d="M247.22 217.55H162.975L170.891 160.65H255.136L247.22 217.55Z" fill="#595959" stroke="#263238" stroke-miterlimit="10" stroke-linecap="round" stroke-linejoin="round"/>
<path d="M252.977 176.25C242.645 177.8 226.197 181.05 210.315 195.75C192.839 211.95 162.975 217.55 162.975 217.55H247.22L252.977 176.25Z" fill="#263238" stroke="#263238" stroke-miterlimit="10" stroke-linecap="round" stroke-linejoin="round"/>
</g>
<defs>
<filter id="filter0_d_382_7781" x="5.69043" y="7.20654" width="252.24" height="244.701" filterUnits="userSpaceOnUse" color-interpolation-filters="sRGB">
<feFlood flood-opacity="0" result="BackgroundImageFix"/>
<feColorMatrix in="SourceAlpha" type="matrix" values="0 0 0 0 0 0 0 0 0 0 0 0 0 0 0 0 0 0 127 0" result="hardAlpha"/>
<feOffset dx="4" dy="4"/>
<feGaussianBlur stdDeviation="2"/>
<feComposite in2="hardAlpha" operator="out"/>
<feColorMatrix type="matrix" values="0 0 0 0 0 0 0 0 0 0 0 0 0 0 0 0 0 0 0.25 0"/>
<feBlend mode="normal" in2="BackgroundImageFix" result="effect1_dropShadow_382_7781"/>
<feBlend mode="normal" in="SourceGraphic" in2="effect1_dropShadow_382_7781" result="shape"/>
</filter>
<clipPath id="clip0_382_7781">
<rect width="257" height="250" fill="white" transform="translate(0.5)"/>
</clipPath>
</defs>
</svg>
