<svg width="258" height="250" viewBox="0 0 258 250" fill="none" xmlns="http://www.w3.org/2000/svg">
<g clip-path="url(#clip0_382_8719)">
<path d="M234.421 202.55C246.243 186.4 249.687 164 247.734 145C246.757 135.6 244.856 125.7 239.15 117.85C230.823 106.35 217.1 100.3 206.614 91C191.194 77.35 184.666 57.4 171.559 42C154.443 21.95 127.458 19.4 102.221 20.6C83.254 21.5 52.7738 21.85 48.302 45C43.676 69 52.414 91.5 33.91 103C15.406 114.5 5.64001 138.5 11.294 159C16.0742 176.3 38.9472 179.35 43.676 197C49.33 218 82.226 246 114.094 244C145.962 242 164.466 221.5 177.83 222.5C193.301 223.65 209.801 223.6 222.856 214.2C227.38 210.9 231.235 206.95 234.421 202.55Z" fill="#92E3A9"/>
<g opacity="0.7" filter="url(#filter0_d_382_8719)">
<path d="M234.421 202.55C246.243 186.4 249.687 164 247.734 145C246.757 135.6 244.856 125.7 239.15 117.85C230.823 106.35 217.1 100.3 206.614 91C191.194 77.35 184.666 57.4 171.559 42C154.443 21.95 127.458 19.4 102.221 20.6C83.254 21.5 52.7738 21.85 48.302 45C43.676 69 52.414 91.5 33.91 103C15.406 114.5 5.64001 138.5 11.294 159C16.0742 176.3 38.9472 179.35 43.676 197C49.33 218 82.226 246 114.094 244C145.962 242 164.466 221.5 177.83 222.5C193.301 223.65 209.801 223.6 222.856 214.2C227.38 210.9 231.235 206.95 234.421 202.55Z" fill="white"/>
</g>
<path d="M211.601 68.0497C211.601 68.0497 201.783 62.7497 201.064 74.7497C200.344 86.7497 198.545 164.9 198.545 164.9" stroke="#263238" stroke-width="2" stroke-miterlimit="10" stroke-linecap="round" stroke-linejoin="round"/>
<path d="M195.975 75.7998C195.975 75.7998 203.993 93.0998 200.344 163.8" stroke="#263238" stroke-width="2" stroke-miterlimit="10" stroke-linecap="round" stroke-linejoin="round"/>
<path d="M203.839 70.4497C203.839 70.4497 200.087 72.7997 197.928 70.0997C195.769 67.3997 199.367 62.4997 196.232 60.3997C193.097 58.2997 187.648 61.4997 187.648 61.4997C187.648 61.4997 191.863 62.6997 191.709 64.9497C191.555 67.1997 189.55 67.9997 189.293 67.0497C189.036 66.0997 187.031 61.1497 183.639 63.1997C180.247 65.2497 179.733 68.3997 179.733 68.3997C179.733 68.3997 187.648 67.5997 188.162 70.4997C188.625 73.3997 184.924 69.9997 181.634 69.7997C178.345 69.5997 175.364 70.0997 175.569 71.9997C175.775 73.8997 175.261 77.0997 175.261 77.0997C175.261 77.0997 178.036 74.6997 181.634 74.8997C185.232 75.0997 185.078 77.3497 181.84 77.1497C178.55 76.9497 175.775 79.9997 175.775 79.9997C175.775 79.9997 178.756 84.9497 182.56 87.3997C186.363 89.8497 187.7 88.9497 188.162 87.0997C188.625 85.1997 187.597 80.3497 189.858 80.4997C192.171 80.6497 186.055 88.8997 188.985 89.3997C191.914 89.8997 194.279 89.0497 195.05 87.1997C195.821 85.3497 195.821 85.3497 195.821 85.3497C195.821 85.3497 194.793 80.4997 195.255 78.5997C195.718 76.6997 196.232 78.6497 196.746 80.8997C197.26 83.1497 197.568 88.5997 198.596 88.3497C199.573 88.0997 202.811 84.0997 203.531 82.5497C204.302 80.9997 199.316 76.2497 199.367 75.2997C199.419 74.3497 203.274 76.1497 203.839 77.1497C204.456 78.1497 205.021 79.4497 205.021 79.4497C205.021 79.4497 207.386 77.9997 207.334 73.4997C207.18 69.0497 203.839 70.4497 203.839 70.4497Z" fill="#92E3A9"/>
<path opacity="0.3" d="M203.839 70.4497C203.839 70.4497 200.087 72.7997 197.928 70.0997C195.769 67.3997 199.367 62.4997 196.232 60.3997C193.097 58.2997 187.648 61.4997 187.648 61.4997C187.648 61.4997 191.863 62.6997 191.709 64.9497C191.555 67.1997 189.55 67.9997 189.293 67.0497C189.036 66.0997 187.031 61.1497 183.639 63.1997C180.247 65.2497 179.733 68.3997 179.733 68.3997C179.733 68.3997 187.648 67.5997 188.162 70.4997C188.625 73.3997 184.924 69.9997 181.634 69.7997C178.345 69.5997 175.364 70.0997 175.569 71.9997C175.775 73.8997 175.261 77.0997 175.261 77.0997C175.261 77.0997 178.036 74.6997 181.634 74.8997C185.232 75.0997 185.078 77.3497 181.84 77.1497C178.55 76.9497 175.775 79.9997 175.775 79.9997C175.775 79.9997 178.756 84.9497 182.56 87.3997C186.363 89.8497 187.7 88.9497 188.162 87.0997C188.625 85.1997 187.597 80.3497 189.858 80.4997C192.171 80.6497 186.055 88.8997 188.985 89.3997C191.914 89.8997 194.279 89.0497 195.05 87.1997C195.821 85.3497 195.821 85.3497 195.821 85.3497C195.821 85.3497 194.793 80.4997 195.255 78.5997C195.718 76.6997 196.232 78.6497 196.746 80.8997C197.26 83.1497 197.568 88.5997 198.596 88.3497C199.573 88.0997 202.811 84.0997 203.531 82.5497C204.302 80.9997 199.316 76.2497 199.367 75.2997C199.419 74.3497 203.274 76.1497 203.839 77.1497C204.456 78.1497 205.021 79.4497 205.021 79.4497C205.021 79.4497 207.386 77.9997 207.334 73.4997C207.18 69.0497 203.839 70.4497 203.839 70.4497Z" fill="#263238"/>
<path d="M184.821 80.9497C187.288 77.9997 190.886 74.0497 193.919 72.0997" stroke="#263238" stroke-miterlimit="10" stroke-linecap="round" stroke-linejoin="round"/>
<path d="M181.942 84.4994C181.942 84.4994 182.559 83.6494 183.587 82.3994" stroke="#263238" stroke-miterlimit="10" stroke-linecap="round" stroke-linejoin="round"/>
<path d="M195.461 72.8497C195.461 72.8497 199.11 77.8497 199.779 82.9997" stroke="#263238" stroke-miterlimit="10" stroke-linecap="round" stroke-linejoin="round"/>
<path d="M191.349 75.8001C191.349 75.8001 192.377 75.2001 191.965 81.6001" stroke="#263238" stroke-miterlimit="10" stroke-linecap="round" stroke-linejoin="round"/>
<path d="M194.021 69.8998C194.021 69.8998 196.077 68.0998 194.998 64.5498" stroke="#263238" stroke-miterlimit="10" stroke-linecap="round" stroke-linejoin="round"/>
<path d="M191.195 72.8997L189.704 70.2997" stroke="#263238" stroke-miterlimit="10" stroke-linecap="round" stroke-linejoin="round"/>
<path d="M188.059 75.5992C188.059 75.5992 183.33 72.1492 180.4 71.9492" stroke="#263238" stroke-miterlimit="10" stroke-linecap="round" stroke-linejoin="round"/>
<path d="M217.203 61.0001C217.203 61.0001 217.048 66.2501 212.834 66.5001C208.619 66.7501 205.997 59.9501 201.731 61.5501C197.414 63.2001 197.002 70.7001 197.002 70.7001C197.002 70.7001 201.114 67.4501 203.273 69.1001C205.483 70.7501 204.969 73.3001 203.787 72.9001C202.605 72.5001 196.18 71.1001 195.974 75.8001C195.769 80.5001 198.647 83.1501 198.647 83.1501C198.647 83.1501 203.222 74.8501 206.511 76.4001C209.801 77.9001 203.787 79.2001 201.371 82.3001C198.956 85.3501 197.414 88.6001 199.521 89.7001C201.628 90.8001 204.558 93.4501 204.558 93.4501C204.558 93.4501 203.993 89.1001 206.666 85.7501C209.338 82.4001 211.549 84.0501 209.133 87.1001C206.717 90.1501 207.899 94.9501 207.899 94.9501C207.899 94.9501 215.044 95.4501 220.132 93.4001C225.221 91.4001 225.272 89.4501 223.628 87.7501C221.983 86.0501 216.277 83.7001 217.974 81.6001C219.67 79.4501 224.039 91.0001 226.557 88.5001C229.076 86.0001 229.796 83.1501 228.408 81.1001C227.02 79.0501 227.02 79.0501 227.02 79.0501C227.02 79.0501 221.315 76.7501 219.67 75.0001C218.025 73.3001 220.389 74.1001 223.062 75.1001C225.735 76.1501 231.595 79.5501 232.006 78.4001C232.417 77.2501 230.515 71.4501 229.436 69.6501C228.356 67.8501 220.081 69.4501 219.104 68.7501C218.179 68.0501 222.651 65.5501 224.09 65.6501C225.529 65.7501 227.277 66.1001 227.277 66.1001C227.277 66.1001 227.38 62.8001 222.754 59.8001C218.076 56.8001 217.203 61.0001 217.203 61.0001Z" fill="#92E3A9"/>
<path opacity="0.2" d="M217.203 61.0001C217.203 61.0001 217.048 66.2501 212.834 66.5001C208.619 66.7501 205.997 59.9501 201.731 61.5501C197.414 63.2001 197.002 70.7001 197.002 70.7001C197.002 70.7001 201.114 67.4501 203.273 69.1001C205.483 70.7501 204.969 73.3001 203.787 72.9001C202.605 72.5001 196.18 71.1001 195.974 75.8001C195.769 80.5001 198.647 83.1501 198.647 83.1501C198.647 83.1501 203.222 74.8501 206.511 76.4001C209.801 77.9001 203.787 79.2001 201.371 82.3001C198.956 85.3501 197.414 88.6001 199.521 89.7001C201.628 90.8001 204.558 93.4501 204.558 93.4501C204.558 93.4501 203.993 89.1001 206.666 85.7501C209.338 82.4001 211.549 84.0501 209.133 87.1001C206.717 90.1501 207.899 94.9501 207.899 94.9501C207.899 94.9501 215.044 95.4501 220.132 93.4001C225.221 91.4001 225.272 89.4501 223.628 87.7501C221.983 86.0501 216.277 83.7001 217.974 81.6001C219.67 79.4501 224.039 91.0001 226.557 88.5001C229.076 86.0001 229.796 83.1501 228.408 81.1001C227.02 79.0501 227.02 79.0501 227.02 79.0501C227.02 79.0501 221.315 76.7501 219.67 75.0001C218.025 73.3001 220.389 74.1001 223.062 75.1001C225.735 76.1501 231.595 79.5501 232.006 78.4001C232.417 77.2501 230.515 71.4501 229.436 69.6501C228.356 67.8501 220.081 69.4501 219.104 68.7501C218.179 68.0501 222.651 65.5501 224.09 65.6501C225.529 65.7501 227.277 66.1001 227.277 66.1001C227.277 66.1001 227.38 62.8001 222.754 59.8001C218.076 56.8001 217.203 61.0001 217.203 61.0001Z" fill="#263238"/>
<path d="M215.044 86.6996C213.708 82.2996 212.063 76.0996 212.166 71.8496" stroke="#263238" stroke-miterlimit="10" stroke-linecap="round" stroke-linejoin="round"/>
<path d="M216.791 91.8996C216.791 91.8996 216.329 90.6996 215.712 88.8496" stroke="#263238" stroke-miterlimit="10" stroke-linecap="round" stroke-linejoin="round"/>
<path d="M213.965 70.8002C213.965 70.8002 221.572 70.6502 227.329 73.5002" stroke="#263238" stroke-miterlimit="10" stroke-linecap="round" stroke-linejoin="round"/>
<path d="M214.222 76.7996C214.222 76.7996 214.324 75.3996 220.595 80.0996" stroke="#263238" stroke-miterlimit="10" stroke-linecap="round" stroke-linejoin="round"/>
<path d="M209.955 70.1996C209.955 70.1996 209.544 66.9496 205.072 65.5996" stroke="#263238" stroke-miterlimit="10" stroke-linecap="round" stroke-linejoin="round"/>
<path d="M211.137 75.0004L207.385 74.6504" stroke="#263238" stroke-miterlimit="10" stroke-linecap="round" stroke-linejoin="round"/>
<path d="M211.806 79.8496C211.806 79.8496 205.021 82.0996 202.862 84.8496" stroke="#263238" stroke-miterlimit="10" stroke-linecap="round" stroke-linejoin="round"/>
<path d="M171.971 95.9501C171.971 95.9501 193.405 109.75 193.045 163.1" stroke="#263238" stroke-width="2" stroke-miterlimit="10" stroke-linecap="round" stroke-linejoin="round"/>
<path d="M198.442 92.2998C198.442 92.2998 197.774 98.3498 192.891 98.2498C188.008 98.1498 185.644 90.0498 180.555 91.5498C175.415 93.0498 174.233 101.65 174.233 101.65C174.233 101.65 179.27 98.2498 181.634 100.35C183.999 102.45 183.176 105.35 181.84 104.75C180.504 104.15 173.256 102 172.537 107.4C171.817 112.8 174.901 116.15 174.901 116.15C174.901 116.15 180.966 107 184.616 109.05C188.316 111.1 181.172 112.05 178.088 115.35C175.004 118.65 172.896 122.25 175.261 123.7C177.625 125.15 180.709 128.5 180.709 128.5C180.709 128.5 180.452 123.45 183.845 119.8C187.237 116.15 189.601 118.25 186.517 121.6C183.433 124.9 184.359 130.55 184.359 130.55C184.359 130.55 192.531 131.75 198.648 129.9C204.713 128.05 204.97 125.8 203.222 123.7C201.475 121.55 195.153 118.35 197.311 116.05C199.47 113.75 203.377 127.5 206.512 124.8C209.647 122.15 210.778 118.9 209.339 116.45C207.9 114 207.9 114 207.9 114C207.9 114 201.578 110.8 199.83 108.65C198.082 106.5 200.755 107.65 203.736 109.1C206.718 110.55 213.143 115 213.708 113.7C214.273 112.4 212.68 105.5 211.601 103.35C210.521 101.2 200.807 102.25 199.779 101.35C198.751 100.45 204.148 97.9998 205.792 98.2498C207.437 98.4998 209.39 99.0498 209.39 99.0498C209.39 99.0498 209.853 95.2498 204.764 91.3498C199.83 87.4998 198.442 92.2998 198.442 92.2998Z" fill="#92E3A9"/>
<path opacity="0.3" d="M198.442 92.2998C198.442 92.2998 197.774 98.3498 192.891 98.2498C188.008 98.1498 185.644 90.0498 180.555 91.5498C175.415 93.0498 174.233 101.65 174.233 101.65C174.233 101.65 179.27 98.2498 181.634 100.35C183.999 102.45 183.176 105.35 181.84 104.75C180.504 104.15 173.256 102 172.537 107.4C171.817 112.8 174.901 116.15 174.901 116.15C174.901 116.15 180.966 107 184.616 109.05C188.316 111.1 181.172 112.05 178.088 115.35C175.004 118.65 172.896 122.25 175.261 123.7C177.625 125.15 180.709 128.5 180.709 128.5C180.709 128.5 180.452 123.45 183.845 119.8C187.237 116.15 189.601 118.25 186.517 121.6C183.433 124.9 184.359 130.55 184.359 130.55C184.359 130.55 192.531 131.75 198.648 129.9C204.713 128.05 204.97 125.8 203.222 123.7C201.475 121.55 195.153 118.35 197.311 116.05C199.47 113.75 203.377 127.5 206.512 124.8C209.647 122.15 210.778 118.9 209.339 116.45C207.9 114 207.9 114 207.9 114C207.9 114 201.578 110.8 199.83 108.65C198.082 106.5 200.755 107.65 203.736 109.1C206.718 110.55 213.143 115 213.708 113.7C214.273 112.4 212.68 105.5 211.601 103.35C210.521 101.2 200.807 102.25 199.779 101.35C198.751 100.45 204.148 97.9998 205.792 98.2498C207.437 98.4998 209.39 99.0498 209.39 99.0498C209.39 99.0498 209.853 95.2498 204.764 91.3498C199.83 87.4998 198.442 92.2998 198.442 92.2998Z" fill="#263238"/>
<path d="M193.405 121.75C192.274 116.55 190.989 109.2 191.503 104.35" stroke="#263238" stroke-miterlimit="10" stroke-linecap="round" stroke-linejoin="round"/>
<path d="M194.947 127.9C194.947 127.9 194.535 126.5 194.021 124.3" stroke="#263238" stroke-miterlimit="10" stroke-linecap="round" stroke-linejoin="round"/>
<path d="M193.765 103.3C193.765 103.3 202.554 103.85 208.928 107.65" stroke="#263238" stroke-miterlimit="10" stroke-linecap="round" stroke-linejoin="round"/>
<path d="M193.456 110.25C193.456 110.25 193.713 108.65 200.498 114.65" stroke="#263238" stroke-miterlimit="10" stroke-linecap="round" stroke-linejoin="round"/>
<path d="M189.139 102.25C189.139 102.25 188.933 98.4502 183.999 96.4502" stroke="#263238" stroke-miterlimit="10" stroke-linecap="round" stroke-linejoin="round"/>
<path d="M190.064 107.899L185.798 107.149" stroke="#263238" stroke-miterlimit="10" stroke-linecap="round" stroke-linejoin="round"/>
<path d="M190.321 113.55C190.321 113.55 182.303 115.5 179.476 118.5" stroke="#263238" stroke-miterlimit="10" stroke-linecap="round" stroke-linejoin="round"/>
<path d="M180.349 138C180.349 138 194.175 148.25 195.614 163.45L192.685 112.55" stroke="#263238" stroke-width="2" stroke-miterlimit="10" stroke-linecap="round" stroke-linejoin="round"/>
<path d="M197.774 163.1C197.774 163.1 187.237 88.5 217.768 88.5" stroke="#263238" stroke-width="2" stroke-miterlimit="10" stroke-linecap="round" stroke-linejoin="round"/>
<path d="M236.632 102.451C233.24 100.501 229.539 100.451 227.688 98.4005C225.838 96.3505 229.436 95.3005 231.389 96.1005C233.291 96.8505 237.763 99.1005 238.637 99.6005C239.459 100.101 238.894 93.0005 237.352 90.3005C235.81 87.6505 231.492 86.0505 229.385 88.2505C224.861 92.8505 217.82 86.8005 218.334 83.2005C218.796 79.6005 215.352 75.7005 207.951 78.0005C200.549 80.2505 203.273 81.5505 203.273 81.5505C203.273 81.5505 208.568 84.7005 211.909 86.6505C215.301 88.6005 220.904 90.2505 219.67 91.7005C218.488 93.1005 215.25 92.2505 212.525 90.1505C209.801 88.0505 202.04 83.0005 201.269 84.9005C200.498 86.7505 197.671 91.9505 197.671 91.9505C197.671 91.9505 203.325 92.7505 207.848 94.1505C212.371 95.5505 213.296 97.9505 209.75 98.1505C206.203 98.3505 199.83 95.7505 197.825 99.0505C195.82 102.351 197.208 110.751 197.208 110.751C197.208 110.751 203.685 106.501 206.974 106.501C210.264 106.501 208.156 108.301 204.456 110.601C200.755 112.901 199.83 113.701 199.83 113.701L203.171 122.051C203.171 122.051 208.722 121.351 210.881 121.501C213.091 121.651 213.091 121.651 213.091 121.651C213.091 121.651 213.091 112.901 215.661 110.301C218.282 107.701 218.693 113.701 219.259 115.251C219.824 116.801 218.179 121.401 218.179 121.401C218.179 121.401 224.604 118.001 226.66 116.651C228.716 115.301 228.716 115.301 228.716 115.301C228.716 115.301 226.301 108.951 224.707 107.101C223.062 105.301 220.852 105.551 222.754 103.951C224.604 102.351 227.431 103.201 229.025 105.451C230.618 107.701 232.52 112.101 232.52 112.101C232.52 112.101 234.936 112.501 238.02 109.051C241.052 105.551 240.024 104.401 236.632 102.451ZM207.283 112.101C204.815 110.901 210.675 108.501 210.675 108.501C212.885 108.201 209.75 113.301 207.283 112.101ZM211.446 100.851C210.367 100.351 213.553 99.3005 213.553 99.3005C218.179 100.151 212.525 101.351 211.446 100.851Z" fill="#92E3A9"/>
<path d="M207.231 118.251C206.563 118.901 205.946 119.551 205.227 120.201" stroke="#263238" stroke-miterlimit="10" stroke-linecap="round" stroke-linejoin="round"/>
<path d="M219.927 99.501C217.562 104.301 213.964 110.601 209.235 116.051" stroke="#263238" stroke-miterlimit="10" stroke-linecap="round" stroke-linejoin="round"/>
<path d="M221.109 97.101C222.6 93.851 223.371 91.751 223.371 91.751C223.371 91.751 226.147 93.001 228.819 92.351C231.492 91.701 233.651 92.251 233.651 92.251" stroke="#263238" stroke-miterlimit="10" stroke-linecap="round" stroke-linejoin="round"/>
<path d="M218.385 96.3002C219.104 95.7002 208.259 90.4502 208.259 90.4502" stroke="#263238" stroke-miterlimit="10" stroke-linecap="round" stroke-linejoin="round"/>
<path d="M224.091 99.4502C224.091 99.4502 229.231 101.5 232.058 104.7" stroke="#263238" stroke-miterlimit="10" stroke-linecap="round" stroke-linejoin="round"/>
<path d="M217.254 102.85C217.254 102.85 213.759 102.2 208.927 102.3C204.096 102.4 200.703 103.65 200.703 103.65" stroke="#263238" stroke-miterlimit="10" stroke-linecap="round" stroke-linejoin="round"/>
<path d="M218.591 106.15C218.591 106.15 224.245 109.75 224.142 114.25" stroke="#263238" stroke-miterlimit="10" stroke-linecap="round" stroke-linejoin="round"/>
<path d="M177.368 94.4505C177.368 94.4505 173.975 96.8505 171.765 94.4505C169.606 92.0505 172.69 87.2005 169.606 85.4005C166.522 83.6005 161.536 86.9005 161.536 86.9005C161.536 86.9005 165.546 87.8005 165.546 89.9005C165.546 92.0005 163.695 92.9005 163.387 92.0005C163.078 91.1005 160.92 86.5505 157.784 88.7005C154.7 90.8005 154.392 93.8505 154.392 93.8505C154.392 93.8505 161.845 92.6505 162.462 95.3505C163.078 98.0505 159.378 95.0505 156.242 95.0505C153.107 95.0505 150.331 95.6505 150.64 97.4505C150.948 99.2505 150.64 102.301 150.64 102.301C150.64 102.301 153.107 99.9005 156.551 99.9005C159.943 99.9005 159.943 102.001 156.859 102.001C153.775 102.001 151.256 105.001 151.256 105.001C151.256 105.001 154.34 109.551 158.093 111.651C161.793 113.751 163.078 112.851 163.387 111.051C163.695 109.251 162.462 104.701 164.62 104.701C166.779 104.701 161.536 112.851 164.312 113.151C167.088 113.451 169.298 112.551 169.915 110.751C170.531 108.951 170.531 108.951 170.531 108.951C170.531 108.951 169.298 104.401 169.606 102.601C169.915 100.801 170.531 102.601 171.148 104.701C171.765 106.801 172.382 111.951 173.307 111.651C174.232 111.351 177.008 107.451 177.625 105.901C178.241 104.401 173.307 100.151 173.307 99.2505C173.307 98.3505 177.008 99.8505 177.625 100.751C178.241 101.651 178.858 102.851 178.858 102.851C178.858 102.851 181.017 101.351 180.709 97.1005C180.452 92.9505 177.368 94.4505 177.368 94.4505Z" fill="#92E3A9"/>
<path d="M159.994 105.401C162.153 102.501 165.34 98.5508 168.064 96.5508" stroke="#263238" stroke-miterlimit="10" stroke-linecap="round" stroke-linejoin="round"/>
<path d="M157.527 108.951C157.527 108.951 158.093 108.101 158.967 106.851" stroke="#263238" stroke-miterlimit="10" stroke-linecap="round" stroke-linejoin="round"/>
<path d="M169.606 97.1505C169.606 97.1505 173.307 101.701 174.284 106.501" stroke="#263238" stroke-miterlimit="10" stroke-linecap="round" stroke-linejoin="round"/>
<path d="M165.905 100.15C165.905 100.15 166.83 99.5502 166.83 105.6" stroke="#263238" stroke-miterlimit="10" stroke-linecap="round" stroke-linejoin="round"/>
<path d="M168.064 94.4508C168.064 94.4508 169.915 92.6508 168.681 89.3008" stroke="#263238" stroke-miterlimit="10" stroke-linecap="round" stroke-linejoin="round"/>
<path d="M165.597 97.4508L164.004 95.0508" stroke="#263238" stroke-miterlimit="10" stroke-linecap="round" stroke-linejoin="round"/>
<path d="M162.77 100.15C162.77 100.15 158.093 97.1504 155.317 97.1504" stroke="#263238" stroke-miterlimit="10" stroke-linecap="round" stroke-linejoin="round"/>
<path d="M180.555 132.45C180.555 132.45 190.372 127.15 191.092 139.15C191.554 146.55 192.428 179.25 192.993 203.1" stroke="#263238" stroke-width="2" stroke-miterlimit="10" stroke-linecap="round" stroke-linejoin="round"/>
<path d="M196.181 140.25C196.181 140.25 190.116 153.35 190.938 203.15" stroke="#263238" stroke-width="2" stroke-miterlimit="10" stroke-linecap="round" stroke-linejoin="round"/>
<path d="M188.316 134.85C188.316 134.85 192.068 137.2 194.227 134.5C196.386 131.8 192.788 126.9 195.923 124.8C199.059 122.7 204.507 125.9 204.507 125.9C204.507 125.9 200.292 127.1 200.446 129.35C200.601 131.6 202.605 132.4 202.862 131.45C203.119 130.5 205.124 125.55 208.516 127.6C211.909 129.65 212.423 132.8 212.423 132.8C212.423 132.8 204.507 132 203.993 134.9C203.53 137.8 207.231 134.4 210.521 134.2C213.81 134 216.792 134.5 216.586 136.4C216.38 138.35 216.894 141.5 216.894 141.5C216.894 141.5 214.119 139.1 210.521 139.3C206.923 139.5 207.077 141.75 210.315 141.55C213.605 141.35 216.38 144.4 216.38 144.4C216.38 144.4 213.399 149.35 209.596 151.8C205.792 154.25 204.456 153.35 203.993 151.5C203.53 149.6 204.558 144.75 202.297 144.9C199.984 145.05 206.1 153.3 203.171 153.8C200.241 154.3 197.876 153.45 197.105 151.6C196.334 149.75 196.334 149.75 196.334 149.75C196.334 149.75 197.362 144.9 196.9 143C196.437 141.1 195.923 143.05 195.409 145.3C194.895 147.55 194.587 153 193.559 152.75C192.582 152.5 189.344 148.5 188.624 146.95C187.853 145.4 192.839 140.65 192.788 139.7C192.736 138.75 188.881 140.55 188.316 141.55C187.699 142.55 187.134 143.85 187.134 143.85C187.134 143.85 184.769 142.4 184.821 137.9C184.975 133.45 188.316 134.85 188.316 134.85Z" fill="#92E3A9"/>
<path opacity="0.3" d="M188.316 134.85C188.316 134.85 192.068 137.2 194.227 134.5C196.386 131.8 192.788 126.9 195.923 124.8C199.059 122.7 204.507 125.9 204.507 125.9C204.507 125.9 200.292 127.1 200.446 129.35C200.601 131.6 202.605 132.4 202.862 131.45C203.119 130.5 205.124 125.55 208.516 127.6C211.909 129.65 212.423 132.8 212.423 132.8C212.423 132.8 204.507 132 203.993 134.9C203.53 137.8 207.231 134.4 210.521 134.2C213.81 134 216.792 134.5 216.586 136.4C216.38 138.35 216.894 141.5 216.894 141.5C216.894 141.5 214.119 139.1 210.521 139.3C206.923 139.5 207.077 141.75 210.315 141.55C213.605 141.35 216.38 144.4 216.38 144.4C216.38 144.4 213.399 149.35 209.596 151.8C205.792 154.25 204.456 153.35 203.993 151.5C203.53 149.6 204.558 144.75 202.297 144.9C199.984 145.05 206.1 153.3 203.171 153.8C200.241 154.3 197.876 153.45 197.105 151.6C196.334 149.75 196.334 149.75 196.334 149.75C196.334 149.75 197.362 144.9 196.9 143C196.437 141.1 195.923 143.05 195.409 145.3C194.895 147.55 194.587 153 193.559 152.75C192.582 152.5 189.344 148.5 188.624 146.95C187.853 145.4 192.839 140.65 192.788 139.7C192.736 138.75 188.881 140.55 188.316 141.55C187.699 142.55 187.134 143.85 187.134 143.85C187.134 143.85 184.769 142.4 184.821 137.9C184.975 133.45 188.316 134.85 188.316 134.85Z" fill="#263238"/>
<path d="M207.334 145.35C204.867 142.4 201.269 138.45 198.236 136.5" stroke="#263238" stroke-miterlimit="10" stroke-linecap="round" stroke-linejoin="round"/>
<path d="M210.213 148.95C210.213 148.95 209.596 148.1 208.568 146.85" stroke="#263238" stroke-miterlimit="10" stroke-linecap="round" stroke-linejoin="round"/>
<path d="M196.694 137.25C196.694 137.25 193.045 142.25 192.377 147.4" stroke="#263238" stroke-miterlimit="10" stroke-linecap="round" stroke-linejoin="round"/>
<path d="M200.806 140.201C200.806 140.201 199.778 139.601 200.19 146.001" stroke="#263238" stroke-miterlimit="10" stroke-linecap="round" stroke-linejoin="round"/>
<path d="M198.133 134.3C198.133 134.3 196.077 132.5 197.157 128.95" stroke="#263238" stroke-miterlimit="10" stroke-linecap="round" stroke-linejoin="round"/>
<path d="M200.96 137.35L202.451 134.7" stroke="#263238" stroke-miterlimit="10" stroke-linecap="round" stroke-linejoin="round"/>
<path d="M204.045 140.051C204.045 140.051 208.773 136.601 211.703 136.401" stroke="#263238" stroke-miterlimit="10" stroke-linecap="round" stroke-linejoin="round"/>
<path d="M174.952 125.45C174.952 125.45 175.106 130.7 179.321 130.95C183.536 131.2 186.157 124.4 190.424 126C194.741 127.65 195.152 135.15 195.152 135.15C195.152 135.15 191.04 131.9 188.882 133.55C186.671 135.2 187.185 137.75 188.368 137.35C189.55 136.95 195.975 135.55 196.18 140.25C196.386 144.95 193.508 147.6 193.508 147.6C193.508 147.6 188.933 139.3 185.643 140.85C182.354 142.35 188.368 143.65 190.783 146.75C193.199 149.8 194.741 153.05 192.634 154.15C190.526 155.25 187.597 157.9 187.597 157.9C187.597 157.9 188.162 153.55 185.489 150.2C182.816 146.85 180.606 148.5 183.022 151.55C185.438 154.6 184.256 159.4 184.256 159.4C184.256 159.4 177.111 159.9 172.022 157.85C166.934 155.85 166.882 153.9 168.527 152.2C170.172 150.5 175.877 148.15 174.181 146.05C172.485 143.9 168.116 155.45 165.597 152.95C163.079 150.45 162.359 147.6 163.747 145.55C165.135 143.5 165.135 143.5 165.135 143.5C165.135 143.5 170.84 141.2 172.485 139.45C174.13 137.75 171.765 138.55 169.093 139.55C166.42 140.6 160.56 144 160.149 142.85C159.738 141.7 161.64 135.9 162.719 134.1C163.798 132.3 172.074 133.9 173.05 133.2C173.976 132.5 169.504 130 168.065 130.1C166.625 130.2 164.878 130.55 164.878 130.55C164.878 130.55 164.775 127.25 169.401 124.25C174.078 121.2 174.952 125.45 174.952 125.45Z" fill="#92E3A9"/>
<path opacity="0.2" d="M174.952 125.45C174.952 125.45 175.106 130.7 179.321 130.95C183.536 131.2 186.157 124.4 190.424 126C194.741 127.65 195.152 135.15 195.152 135.15C195.152 135.15 191.04 131.9 188.882 133.55C186.671 135.2 187.185 137.75 188.368 137.35C189.55 136.95 195.975 135.55 196.18 140.25C196.386 144.95 193.508 147.6 193.508 147.6C193.508 147.6 188.933 139.3 185.643 140.85C182.354 142.35 188.368 143.65 190.783 146.75C193.199 149.8 194.741 153.05 192.634 154.15C190.526 155.25 187.597 157.9 187.597 157.9C187.597 157.9 188.162 153.55 185.489 150.2C182.816 146.85 180.606 148.5 183.022 151.55C185.438 154.6 184.256 159.4 184.256 159.4C184.256 159.4 177.111 159.9 172.022 157.85C166.934 155.85 166.882 153.9 168.527 152.2C170.172 150.5 175.877 148.15 174.181 146.05C172.485 143.9 168.116 155.45 165.597 152.95C163.079 150.45 162.359 147.6 163.747 145.55C165.135 143.5 165.135 143.5 165.135 143.5C165.135 143.5 170.84 141.2 172.485 139.45C174.13 137.75 171.765 138.55 169.093 139.55C166.42 140.6 160.56 144 160.149 142.85C159.738 141.7 161.64 135.9 162.719 134.1C163.798 132.3 172.074 133.9 173.05 133.2C173.976 132.5 169.504 130 168.065 130.1C166.625 130.2 164.878 130.55 164.878 130.55C164.878 130.55 164.775 127.25 169.401 124.25C174.078 121.2 174.952 125.45 174.952 125.45Z" fill="#263238"/>
<path d="M177.111 151.1C178.448 146.7 180.093 140.5 179.99 136.25" stroke="#263238" stroke-miterlimit="10" stroke-linecap="round" stroke-linejoin="round"/>
<path d="M175.364 156.3C175.364 156.3 175.826 155.1 176.443 153.25" stroke="#263238" stroke-miterlimit="10" stroke-linecap="round" stroke-linejoin="round"/>
<path d="M178.19 135.201C178.19 135.201 170.583 135.051 164.826 137.901" stroke="#263238" stroke-miterlimit="10" stroke-linecap="round" stroke-linejoin="round"/>
<path d="M177.933 141.25C177.933 141.25 177.83 139.85 171.56 144.55" stroke="#263238" stroke-miterlimit="10" stroke-linecap="round" stroke-linejoin="round"/>
<path d="M182.199 134.6C182.199 134.6 182.61 131.35 187.082 130" stroke="#263238" stroke-miterlimit="10" stroke-linecap="round" stroke-linejoin="round"/>
<path d="M181.018 139.4L184.718 139.05" stroke="#263238" stroke-miterlimit="10" stroke-linecap="round" stroke-linejoin="round"/>
<path d="M180.35 144.3C180.35 144.3 187.134 146.55 189.293 149.3" stroke="#263238" stroke-miterlimit="10" stroke-linecap="round" stroke-linejoin="round"/>
<path d="M220.184 160.351C220.184 160.351 205.586 169.751 200.703 202.951" stroke="#263238" stroke-width="2" stroke-miterlimit="10" stroke-linecap="round" stroke-linejoin="round"/>
<path d="M193.713 156.75C193.713 156.75 194.381 162.8 199.264 162.7C204.147 162.6 206.511 154.5 211.6 156C216.74 157.5 217.922 166.1 217.922 166.1C217.922 166.1 212.885 162.7 210.521 164.8C208.156 166.9 208.979 169.8 210.315 169.2C211.651 168.65 218.899 166.45 219.618 171.85C220.338 177.25 217.254 180.6 217.254 180.6C217.254 180.6 211.24 171.45 207.539 173.5C203.839 175.55 210.983 176.5 214.067 179.8C217.151 183.1 219.259 186.7 216.894 188.15C214.53 189.6 211.446 192.95 211.446 192.95C211.446 192.95 211.703 187.9 208.31 184.25C204.918 180.6 202.554 182.7 205.638 186.05C208.722 189.35 207.796 195 207.796 195C207.796 195 199.624 196.2 193.507 194.35C187.442 192.5 187.185 190.25 188.933 188.15C190.68 186 197.002 182.8 194.844 180.5C192.685 178.2 188.778 191.95 185.643 189.25C182.508 186.6 181.377 183.35 182.816 180.9C184.255 178.45 184.255 178.45 184.255 178.45C184.255 178.45 190.577 175.25 192.325 173.1C194.073 170.95 191.4 172.1 188.419 173.55C185.437 175 179.012 179.45 178.447 178.15C177.882 176.85 179.475 169.95 180.554 167.8C181.634 165.65 191.348 166.7 192.376 165.8C193.404 164.9 188.007 162.45 186.363 162.7C184.718 162.95 182.765 163.5 182.765 163.5C182.765 163.5 182.302 159.7 187.391 155.8C192.325 151.9 193.713 156.75 193.713 156.75Z" fill="#92E3A9"/>
<path opacity="0.3" d="M193.713 156.75C193.713 156.75 194.381 162.8 199.264 162.7C204.147 162.6 206.511 154.5 211.6 156C216.74 157.5 217.922 166.1 217.922 166.1C217.922 166.1 212.885 162.7 210.521 164.8C208.156 166.9 208.979 169.8 210.315 169.2C211.651 168.65 218.899 166.45 219.618 171.85C220.338 177.25 217.254 180.6 217.254 180.6C217.254 180.6 211.24 171.45 207.539 173.5C203.839 175.55 210.983 176.5 214.067 179.8C217.151 183.1 219.259 186.7 216.894 188.15C214.53 189.6 211.446 192.95 211.446 192.95C211.446 192.95 211.703 187.9 208.31 184.25C204.918 180.6 202.554 182.7 205.638 186.05C208.722 189.35 207.796 195 207.796 195C207.796 195 199.624 196.2 193.507 194.35C187.442 192.5 187.185 190.25 188.933 188.15C190.68 186 197.002 182.8 194.844 180.5C192.685 178.2 188.778 191.95 185.643 189.25C182.508 186.6 181.377 183.35 182.816 180.9C184.255 178.45 184.255 178.45 184.255 178.45C184.255 178.45 190.577 175.25 192.325 173.1C194.073 170.95 191.4 172.1 188.419 173.55C185.437 175 179.012 179.45 178.447 178.15C177.882 176.85 179.475 169.95 180.554 167.8C181.634 165.65 191.348 166.7 192.376 165.8C193.404 164.9 188.007 162.45 186.363 162.7C184.718 162.95 182.765 163.5 182.765 163.5C182.765 163.5 182.302 159.7 187.391 155.8C192.325 151.9 193.713 156.75 193.713 156.75Z" fill="#263238"/>
<path d="M198.75 186.15C199.881 180.95 201.166 173.6 200.652 168.75" stroke="#263238" stroke-miterlimit="10" stroke-linecap="round" stroke-linejoin="round"/>
<path d="M197.208 192.35C197.208 192.35 197.619 190.95 198.133 188.75" stroke="#263238" stroke-miterlimit="10" stroke-linecap="round" stroke-linejoin="round"/>
<path d="M198.391 167.7C198.391 167.7 189.601 168.25 183.228 172.05" stroke="#263238" stroke-miterlimit="10" stroke-linecap="round" stroke-linejoin="round"/>
<path d="M198.699 174.7C198.699 174.7 198.442 173.1 191.657 179.1" stroke="#263238" stroke-miterlimit="10" stroke-linecap="round" stroke-linejoin="round"/>
<path d="M203.017 166.651C203.017 166.651 203.222 162.851 208.157 160.851" stroke="#263238" stroke-miterlimit="10" stroke-linecap="round" stroke-linejoin="round"/>
<path d="M202.091 172.301L206.357 171.551" stroke="#263238" stroke-miterlimit="10" stroke-linecap="round" stroke-linejoin="round"/>
<path d="M201.782 178C201.782 178 209.801 179.95 212.628 182.95" stroke="#263238" stroke-miterlimit="10" stroke-linecap="round" stroke-linejoin="round"/>
<path d="M197.979 202.85L199.47 177" stroke="#263238" stroke-width="2" stroke-miterlimit="10" stroke-linecap="round" stroke-linejoin="round"/>
<path d="M196.077 203.1C196.386 181.35 193.199 152.95 174.335 152.95" stroke="#263238" stroke-width="2" stroke-miterlimit="10" stroke-linecap="round" stroke-linejoin="round"/>
<path d="M155.523 166.901C158.915 164.951 162.616 164.901 164.467 162.851C166.317 160.801 162.719 159.751 160.766 160.551C158.864 161.301 154.392 163.551 153.518 164.051C152.696 164.551 153.261 157.451 154.803 154.751C156.345 152.101 160.663 150.501 162.77 152.701C167.294 157.301 174.335 151.251 173.821 147.651C173.359 144.051 176.803 140.151 184.204 142.451C191.606 144.701 188.882 146.001 188.882 146.001C188.882 146.001 183.587 149.151 180.246 151.101C176.854 153.051 171.251 154.701 172.485 156.151C173.667 157.551 176.905 156.701 179.63 154.601C182.354 152.501 190.115 147.451 190.886 149.351C191.657 151.201 194.484 156.401 194.484 156.401C194.484 156.401 188.83 157.201 184.307 158.601C179.784 160.001 178.859 162.401 182.405 162.601C185.952 162.801 192.325 160.201 194.33 163.501C196.335 166.801 194.947 175.201 194.947 175.201C194.947 175.201 188.47 170.951 185.181 170.951C181.891 170.951 183.999 172.751 187.699 175.051C191.4 177.351 192.325 178.151 192.325 178.151L188.984 186.501C188.984 186.501 183.433 185.801 181.274 185.951C179.064 186.101 179.064 186.101 179.064 186.101C179.064 186.101 179.064 177.351 176.494 174.751C173.873 172.151 173.462 178.151 172.896 179.701C172.331 181.251 173.976 185.851 173.976 185.851C173.976 185.851 167.551 182.451 165.495 181.101C163.439 179.751 163.439 179.751 163.439 179.751C163.439 179.751 165.854 173.401 167.448 171.551C169.093 169.751 171.303 170.001 169.401 168.401C167.551 166.801 164.724 167.651 163.13 169.901C161.537 172.151 159.635 176.551 159.635 176.551C159.635 176.551 157.219 176.951 154.135 173.501C151.103 169.951 152.131 168.801 155.523 166.901ZM184.872 176.551C187.34 175.351 181.48 172.951 181.48 172.951C179.27 172.601 182.405 177.751 184.872 176.551ZM180.709 165.251C181.788 164.751 178.602 163.701 178.602 163.701C173.976 164.601 179.63 165.801 180.709 165.251Z" fill="#92E3A9"/>
<path d="M184.924 182.701C185.592 183.351 186.209 184.001 186.928 184.651" stroke="#263238" stroke-miterlimit="10" stroke-linecap="round" stroke-linejoin="round"/>
<path d="M172.177 163.901C174.541 168.701 178.139 175.001 182.868 180.451" stroke="#263238" stroke-miterlimit="10" stroke-linecap="round" stroke-linejoin="round"/>
<path d="M171.046 161.5C169.555 158.25 168.784 156.15 168.784 156.15C168.784 156.15 166.008 157.4 163.336 156.75C160.663 156.1 158.504 156.65 158.504 156.65" stroke="#263238" stroke-miterlimit="10" stroke-linecap="round" stroke-linejoin="round"/>
<path d="M173.77 160.701C173.05 160.101 183.895 154.851 183.895 154.851" stroke="#263238" stroke-miterlimit="10" stroke-linecap="round" stroke-linejoin="round"/>
<path d="M168.065 163.901C168.065 163.901 162.925 165.951 160.098 169.151" stroke="#263238" stroke-miterlimit="10" stroke-linecap="round" stroke-linejoin="round"/>
<path d="M174.9 167.251C174.9 167.251 178.396 166.601 183.227 166.701C188.059 166.801 191.451 168.051 191.451 168.051" stroke="#263238" stroke-miterlimit="10" stroke-linecap="round" stroke-linejoin="round"/>
<path d="M173.564 170.551C173.564 170.551 167.91 174.151 168.013 178.651" stroke="#263238" stroke-miterlimit="10" stroke-linecap="round" stroke-linejoin="round"/>
<path d="M214.787 158.85C214.787 158.85 218.18 161.25 220.39 158.85C222.549 156.45 219.465 151.6 222.549 149.8C225.633 148 230.618 151.3 230.618 151.3C230.618 151.3 226.609 152.2 226.609 154.3C226.609 156.4 228.46 157.3 228.768 156.4C229.076 155.5 231.235 150.95 234.371 153.1C237.455 155.2 237.763 158.25 237.763 158.25C237.763 158.25 230.31 157.05 229.693 159.75C229.076 162.45 232.777 159.45 235.913 159.45C238.997 159.45 241.824 160.05 241.515 161.85C241.207 163.65 241.515 166.7 241.515 166.7C241.515 166.7 239.048 164.3 235.604 164.3C232.212 164.3 232.212 166.4 235.296 166.4C238.38 166.4 240.898 169.4 240.898 169.4C240.898 169.4 237.814 173.95 234.062 176.05C230.361 178.15 229.076 177.25 228.768 175.45C228.46 173.65 229.693 169.1 227.534 169.1C225.376 169.1 230.618 177.25 227.843 177.55C225.067 177.85 222.857 176.95 222.24 175.15C221.623 173.35 221.623 173.35 221.623 173.35C221.623 173.35 222.857 168.8 222.549 167C222.24 165.2 221.623 167 221.007 169.1C220.39 171.2 219.773 176.35 218.848 176.05C217.923 175.75 215.147 171.85 214.53 170.3C213.913 168.8 218.848 164.55 218.848 163.65C218.848 162.75 215.147 164.25 214.53 165.15C213.913 166.05 213.297 167.25 213.297 167.25C213.297 167.25 211.138 165.75 211.446 161.5C211.703 157.35 214.787 158.85 214.787 158.85Z" fill="#92E3A9"/>
<path d="M232.161 169.8C230.002 166.9 226.815 162.95 224.091 160.95" stroke="#263238" stroke-miterlimit="10" stroke-linecap="round" stroke-linejoin="round"/>
<path d="M234.628 173.35C234.628 173.35 234.062 172.5 233.188 171.25" stroke="#263238" stroke-miterlimit="10" stroke-linecap="round" stroke-linejoin="round"/>
<path d="M222.548 161.6C222.548 161.6 218.848 166.15 217.871 170.95" stroke="#263238" stroke-miterlimit="10" stroke-linecap="round" stroke-linejoin="round"/>
<path d="M226.249 164.6C226.249 164.6 225.324 164 225.324 170.05" stroke="#263238" stroke-miterlimit="10" stroke-linecap="round" stroke-linejoin="round"/>
<path d="M224.091 158.85C224.091 158.85 222.24 157.05 223.474 153.7" stroke="#263238" stroke-miterlimit="10" stroke-linecap="round" stroke-linejoin="round"/>
<path d="M226.558 161.9L228.151 159.45" stroke="#263238" stroke-miterlimit="10" stroke-linecap="round" stroke-linejoin="round"/>
<path d="M229.385 164.6C229.385 164.6 234.062 161.6 236.838 161.6" stroke="#263238" stroke-miterlimit="10" stroke-linecap="round" stroke-linejoin="round"/>
<path opacity="0.2" d="M144.42 17.4004H30.3115V163.55H144.42V17.4004Z" fill="black"/>
<path d="M140.822 13.4004H26.7139V159.55H140.822V13.4004Z" fill="white" stroke="#263238" stroke-miterlimit="10" stroke-linecap="round" stroke-linejoin="round"/>
<path d="M110.804 57.3H32.8818V40.25H133.986V57.3H112.706" stroke="#263238" stroke-miterlimit="10" stroke-linecap="round" stroke-linejoin="round"/>
<path d="M39.204 77.4504H32.8818V68.6504H88.0854" stroke="#263238" stroke-miterlimit="10" stroke-linecap="round" stroke-linejoin="round"/>
<path d="M90.4497 68.6504H133.986V77.4504H40.9001" stroke="#263238" stroke-miterlimit="10" stroke-linecap="round" stroke-linejoin="round"/>
<path d="M118.154 95.2504H32.8818V86.4504H133.986V95.2504H120.056" stroke="#263238" stroke-miterlimit="10" stroke-linecap="round" stroke-linejoin="round"/>
<path d="M59.0444 148.5H32.8818V103.7H133.986V148.5H61.563" stroke="#263238" stroke-miterlimit="10" stroke-linecap="round" stroke-linejoin="round"/>
<path d="M133.986 103.7H32.8818V111.55H133.986V103.7Z" fill="#D1D1D1" stroke="#263238" stroke-miterlimit="10" stroke-linecap="round" stroke-linejoin="round"/>
<path d="M80.9408 57.6508V68.6508H32.8818V57.3008" stroke="#263238" stroke-miterlimit="10" stroke-linecap="round" stroke-linejoin="round"/>
<path d="M133.986 46.3008H32.8818V51.2508H133.986V46.3008Z" fill="#D1D1D1" stroke="#263238" stroke-miterlimit="10" stroke-linecap="round" stroke-linejoin="round"/>
<path d="M100.422 40.7002V46.3502" stroke="#263238" stroke-miterlimit="10" stroke-linecap="round" stroke-linejoin="round"/>
<path d="M113.426 41.6504H106.538V44.9504H113.426V41.6504Z" fill="#D1D1D1" stroke="#263238" stroke-miterlimit="10" stroke-linecap="round" stroke-linejoin="round"/>
<path d="M84.333 51.4004V57.3504" stroke="#263238" stroke-miterlimit="10" stroke-linecap="round" stroke-linejoin="round"/>
<path d="M105.459 51.4004V57.3504" stroke="#263238" stroke-miterlimit="10" stroke-linecap="round" stroke-linejoin="round"/>
<path d="M51.4883 68.6504V57.4004" stroke="#263238" stroke-miterlimit="10" stroke-linecap="round" stroke-linejoin="round"/>
<path d="M63.2588 68.6504V57.4004" stroke="#263238" stroke-miterlimit="10" stroke-linecap="round" stroke-linejoin="round"/>
<path d="M76.1094 68.7004V77.3004" stroke="#263238" stroke-miterlimit="10" stroke-linecap="round" stroke-linejoin="round"/>
<path d="M100.216 68.6003V95.1003" stroke="#263238" stroke-miterlimit="10" stroke-linecap="round" stroke-linejoin="round"/>
<path d="M32.8818 77.4504V86.4504H100.216" stroke="#263238" stroke-miterlimit="10" stroke-linecap="round" stroke-linejoin="round"/>
<path d="M58.2734 77.5V86.2" stroke="#263238" stroke-miterlimit="10" stroke-linecap="round" stroke-linejoin="round"/>
<path d="M128.074 118.801H134.037" stroke="#263238" stroke-miterlimit="10" stroke-linecap="round" stroke-linejoin="round"/>
<path d="M33.0361 118.801H125.865" stroke="#263238" stroke-miterlimit="10" stroke-linecap="round" stroke-linejoin="round"/>
<path d="M33.0361 125.9H134.037" stroke="#263238" stroke-miterlimit="10" stroke-linecap="round" stroke-linejoin="round"/>
<path d="M64.1328 132.95H134.037" stroke="#263238" stroke-miterlimit="10" stroke-linecap="round" stroke-linejoin="round"/>
<path d="M33.0361 132.95H61.5631" stroke="#263238" stroke-miterlimit="10" stroke-linecap="round" stroke-linejoin="round"/>
<path d="M52.2596 120.75H48.8672V124.05H52.2596V120.75Z" fill="#D1D1D1" stroke="#263238" stroke-miterlimit="10" stroke-linecap="round" stroke-linejoin="round"/>
<path d="M71.8426 120.75H68.4502V124.05H71.8426V120.75Z" fill="#D1D1D1" stroke="#263238" stroke-miterlimit="10" stroke-linecap="round" stroke-linejoin="round"/>
<path d="M58.325 127.551H54.9326V130.851H58.325V127.551Z" fill="#D1D1D1" stroke="#263238" stroke-miterlimit="10" stroke-linecap="round" stroke-linejoin="round"/>
<path d="M77.034 127.551H73.6416V130.851H77.034V127.551Z" fill="#D1D1D1" stroke="#263238" stroke-miterlimit="10" stroke-linecap="round" stroke-linejoin="round"/>
<path d="M94.9735 127.551H91.5811V130.851H94.9735V127.551Z" fill="#D1D1D1" stroke="#263238" stroke-miterlimit="10" stroke-linecap="round" stroke-linejoin="round"/>
<path d="M113.169 127.551H109.776V130.851H113.169V127.551Z" fill="#D1D1D1" stroke="#263238" stroke-miterlimit="10" stroke-linecap="round" stroke-linejoin="round"/>
<path d="M53.3391 125.95V133" stroke="#263238" stroke-miterlimit="10" stroke-linecap="round" stroke-linejoin="round"/>
<path d="M71.6375 125.95V133" stroke="#263238" stroke-miterlimit="10" stroke-linecap="round" stroke-linejoin="round"/>
<path d="M89.9873 125.95V133" stroke="#263238" stroke-miterlimit="10" stroke-linecap="round" stroke-linejoin="round"/>
<path d="M108.337 125.95V133" stroke="#263238" stroke-miterlimit="10" stroke-linecap="round" stroke-linejoin="round"/>
<path d="M33.0361 140.15H134.037" stroke="#263238" stroke-miterlimit="10" stroke-linecap="round" stroke-linejoin="round"/>
<path d="M45.7322 134.75H42.3398V138.05H45.7322V134.75Z" fill="#D1D1D1" stroke="#263238" stroke-miterlimit="10" stroke-linecap="round" stroke-linejoin="round"/>
<path d="M77.034 134.75H73.6416V138.05H77.034V134.75Z" fill="#D1D1D1" stroke="#263238" stroke-miterlimit="10" stroke-linecap="round" stroke-linejoin="round"/>
<path d="M94.9735 134.75H91.5811V138.05H94.9735V134.75Z" fill="#D1D1D1" stroke="#263238" stroke-miterlimit="10" stroke-linecap="round" stroke-linejoin="round"/>
<path d="M118.052 134.75H114.659V138.05H118.052V134.75Z" fill="#D1D1D1" stroke="#263238" stroke-miterlimit="10" stroke-linecap="round" stroke-linejoin="round"/>
<path d="M40.7979 133.15V140.15" stroke="#263238" stroke-miterlimit="10" stroke-linecap="round" stroke-linejoin="round"/>
<path d="M71.6375 133.15V140.15" stroke="#263238" stroke-miterlimit="10" stroke-linecap="round" stroke-linejoin="round"/>
<path d="M89.9873 133.15V140.15" stroke="#263238" stroke-miterlimit="10" stroke-linecap="round" stroke-linejoin="round"/>
<path d="M113.22 133.15V140.15" stroke="#263238" stroke-miterlimit="10" stroke-linecap="round" stroke-linejoin="round"/>
<path d="M73.5908 25.2004V26.4004H70.7638V31.5504H69.376V19.6504H74.259V20.8504H70.7638V25.2004H73.5908Z" fill="#263238"/>
<path d="M75.2356 22.5C75.2356 20.7 76.1608 19.5 78.0626 19.5C79.9644 19.5 80.8896 20.7 80.8896 22.5V28.65C80.8896 30.45 79.9644 31.65 78.0626 31.65C76.2122 31.65 75.2356 30.45 75.2356 28.65V22.5ZM76.572 28.75C76.572 29.85 77.0346 30.45 78.0112 30.45C78.9878 30.45 79.4504 29.8 79.4504 28.75V22.45C79.4504 21.4 78.9878 20.75 78.0112 20.75C77.0346 20.75 76.572 21.4 76.572 22.45V28.75Z" fill="#263238"/>
<path d="M84.8986 19.6504C86.8518 19.6504 87.6228 20.6004 87.6228 22.4004V23.3504C87.6228 24.6504 87.1602 25.5004 86.0808 25.8004C87.2116 26.1004 87.6228 27.0004 87.6228 28.3004V30.1504C87.6228 30.7004 87.6228 31.1504 87.8798 31.6004H86.492C86.3378 31.2504 86.2864 30.9504 86.2864 30.1504V28.2504C86.2864 26.9004 85.6182 26.5004 84.4874 26.5004H83.5108V31.6004H82.123V19.6504H84.8986ZM84.5388 25.2504C85.6182 25.2504 86.2864 24.9004 86.2864 23.6004V22.5004C86.2864 21.4504 85.8752 20.8504 84.8472 20.8504H83.5108V25.2504H84.5388Z" fill="#263238"/>
<path d="M93.5853 31.5504H92.2489L90.1929 22.0504V31.5504H89.0107V19.6504H90.9125L92.9171 29.2004L94.8703 19.6504H96.7721V31.6004H95.4871V22.0004L93.5853 31.5504Z" fill="#263238"/>
<path d="M63.6191 37.4004H74.7729" stroke="#263238" stroke-miterlimit="10"/>
<path d="M33.2412 37.4004H61.7682" stroke="#263238" stroke-miterlimit="10"/>
<path d="M83.5623 37.4004H108.08" stroke="#263238" stroke-miterlimit="10"/>
<path d="M114.762 37.4004H134.14" stroke="#263238" stroke-miterlimit="10"/>
<path d="M119.183 206.25L157.373 204.75L178.19 229.4L126.738 233.75L119.183 206.25Z" fill="white" stroke="#263238" stroke-miterlimit="10" stroke-linecap="round" stroke-linejoin="round"/>
<path d="M126.893 223.25L168.167 220.45L170.84 223.75L128.075 226.95L126.893 223.25Z" stroke="#263238" stroke-width="0.5" stroke-miterlimit="10" stroke-linecap="round" stroke-linejoin="round"/>
<path d="M125.659 219.25L165.186 216.8L166.471 218.35L126.173 220.95L125.659 219.25Z" stroke="#263238" stroke-width="0.5" stroke-miterlimit="10" stroke-linecap="round" stroke-linejoin="round"/>
<path d="M124.683 216L162.77 213.85L163.952 215.3L125.145 217.55L124.683 216Z" stroke="#263238" stroke-width="0.5" stroke-miterlimit="10" stroke-linecap="round" stroke-linejoin="round"/>
<path d="M122.112 207.7L156.55 206.2L161.69 212.55L124.22 214.55L122.112 207.7Z" stroke="#263238" stroke-width="0.5" stroke-miterlimit="10" stroke-linecap="round" stroke-linejoin="round"/>
<path d="M123.809 213.25L160.765 211.35L161.69 212.55L124.22 214.55L123.809 213.25Z" fill="#D1D1D1" stroke="#263238" stroke-width="0.5" stroke-miterlimit="10" stroke-linecap="round" stroke-linejoin="round"/>
<path d="M149.2 221.65L147.967 219.55L166.471 218.35L168.167 220.45" stroke="#263238" stroke-width="0.5" stroke-miterlimit="10" stroke-linecap="round" stroke-linejoin="round"/>
<path d="M127.304 224.5L169.092 221.6L169.863 222.55L127.612 225.6L127.304 224.5Z" fill="#D1D1D1" stroke="#263238" stroke-width="0.5" stroke-miterlimit="10" stroke-linecap="round" stroke-linejoin="round"/>
<path d="M142.929 225.75L142.312 224.55" stroke="#263238" stroke-width="0.5" stroke-miterlimit="10" stroke-linecap="round" stroke-linejoin="round"/>
<path d="M136.864 225.25L139.845 225L140.154 225.7L137.121 225.95L136.864 225.25Z" fill="#D1D1D1" stroke="#263238" stroke-width="0.5" stroke-miterlimit="10" stroke-linecap="round" stroke-linejoin="round"/>
<path d="M148.532 223L147.864 221.8" stroke="#263238" stroke-width="0.5" stroke-miterlimit="10" stroke-linecap="round" stroke-linejoin="round"/>
<path d="M139.691 223.6L139.126 222.4" stroke="#263238" stroke-width="0.5" stroke-miterlimit="10" stroke-linecap="round" stroke-linejoin="round"/>
<path d="M159.429 218.8L160.971 220.9" stroke="#263238" stroke-width="0.5" stroke-miterlimit="10" stroke-linecap="round" stroke-linejoin="round"/>
<path d="M154.905 219.1L156.344 221.2" stroke="#263238" stroke-width="0.5" stroke-miterlimit="10" stroke-linecap="round" stroke-linejoin="round"/>
<path d="M149.92 219.4L148.943 217.85" stroke="#263238" stroke-width="0.5" stroke-miterlimit="10" stroke-linecap="round" stroke-linejoin="round"/>
<path d="M140.256 220.05L137.943 215.3" stroke="#263238" stroke-width="0.5" stroke-miterlimit="10" stroke-linecap="round" stroke-linejoin="round"/>
<path d="M165.186 216.8L163.952 215.3L138.663 216.75" stroke="#263238" stroke-width="0.5" stroke-miterlimit="10" stroke-linecap="round" stroke-linejoin="round"/>
<path d="M155.728 217.4L154.7 215.9" stroke="#263238" stroke-width="0.5" stroke-miterlimit="10" stroke-linecap="round" stroke-linejoin="round"/>
<path d="M159.84 210.3L123.449 212.1" stroke="#263238" stroke-width="0.5" stroke-miterlimit="10" stroke-linecap="round" stroke-linejoin="round"/>
<path d="M159.018 209.3L123.089 211" stroke="#263238" stroke-width="0.5" stroke-miterlimit="10" stroke-linecap="round" stroke-linejoin="round"/>
<path d="M158.195 208.3L122.78 209.95" stroke="#263238" stroke-width="0.5" stroke-miterlimit="10" stroke-linecap="round" stroke-linejoin="round"/>
<path d="M152.644 209.85L153.826 209.8L154.186 210.25L153.003 210.35L152.644 209.85Z" fill="#D1D1D1" stroke="#263238" stroke-width="0.5" stroke-miterlimit="10" stroke-linecap="round" stroke-linejoin="round"/>
<path d="M145.859 210.2L147.042 210.1L147.35 210.6L146.168 210.65L145.859 210.2Z" fill="#D1D1D1" stroke="#263238" stroke-width="0.5" stroke-miterlimit="10" stroke-linecap="round" stroke-linejoin="round"/>
<path d="M149.92 209L151.051 208.95L151.411 209.4L150.228 209.45L149.92 209Z" fill="#D1D1D1" stroke="#263238" stroke-width="0.5" stroke-miterlimit="10" stroke-linecap="round" stroke-linejoin="round"/>
<path d="M143.443 209.3L144.626 209.25L144.934 209.7L143.7 209.75L143.443 209.3Z" fill="#D1D1D1" stroke="#263238" stroke-width="0.5" stroke-miterlimit="10" stroke-linecap="round" stroke-linejoin="round"/>
<path d="M137.121 209.6L138.303 209.5L138.56 210L137.378 210.05L137.121 209.6Z" fill="#D1D1D1" stroke="#263238" stroke-width="0.5" stroke-miterlimit="10" stroke-linecap="round" stroke-linejoin="round"/>
<path d="M130.542 209.9L131.776 209.8L132.033 210.3L130.748 210.35L130.542 209.9Z" fill="#D1D1D1" stroke="#263238" stroke-width="0.5" stroke-miterlimit="10" stroke-linecap="round" stroke-linejoin="round"/>
<path d="M152.13 209.6L151.41 208.6" stroke="#263238" stroke-width="0.5" stroke-miterlimit="10" stroke-linecap="round" stroke-linejoin="round"/>
<path d="M145.756 209.9L145.14 208.9" stroke="#263238" stroke-width="0.5" stroke-miterlimit="10" stroke-linecap="round" stroke-linejoin="round"/>
<path d="M139.28 210.2L138.715 209.2" stroke="#263238" stroke-width="0.5" stroke-miterlimit="10" stroke-linecap="round" stroke-linejoin="round"/>
<path d="M132.649 210.55L132.187 209.5" stroke="#263238" stroke-width="0.5" stroke-miterlimit="10" stroke-linecap="round" stroke-linejoin="round"/>
<path d="M157.424 207.35L122.421 208.9" stroke="#263238" stroke-width="0.5" stroke-miterlimit="10" stroke-linecap="round" stroke-linejoin="round"/>
<path d="M153.415 207.8L154.546 207.75L154.906 208.2L153.775 208.25L153.415 207.8Z" fill="#D1D1D1" stroke="#263238" stroke-width="0.5" stroke-miterlimit="10" stroke-linecap="round" stroke-linejoin="round"/>
<path d="M142.826 208.25L144.008 208.2L144.265 208.7L143.083 208.75L142.826 208.25Z" fill="#D1D1D1" stroke="#263238" stroke-width="0.5" stroke-miterlimit="10" stroke-linecap="round" stroke-linejoin="round"/>
<path d="M136.607 208.55L137.789 208.5L138.046 208.95L136.813 209L136.607 208.55Z" fill="#D1D1D1" stroke="#263238" stroke-width="0.5" stroke-miterlimit="10" stroke-linecap="round" stroke-linejoin="round"/>
<path d="M128.383 208.9L129.565 208.85L129.771 209.35L128.537 209.4L128.383 208.9Z" fill="#D1D1D1" stroke="#263238" stroke-width="0.5" stroke-miterlimit="10" stroke-linecap="round" stroke-linejoin="round"/>
<path d="M155.574 208.4L154.854 207.45" stroke="#263238" stroke-width="0.5" stroke-miterlimit="10" stroke-linecap="round" stroke-linejoin="round"/>
<path d="M145.139 208.85L144.522 207.9" stroke="#263238" stroke-width="0.5" stroke-miterlimit="10" stroke-linecap="round" stroke-linejoin="round"/>
<path d="M138.714 209.15L138.2 208.2" stroke="#263238" stroke-width="0.5" stroke-miterlimit="10" stroke-linecap="round" stroke-linejoin="round"/>
<path d="M130.388 209.55L129.977 208.55" stroke="#263238" stroke-width="0.5" stroke-miterlimit="10" stroke-linecap="round" stroke-linejoin="round"/>
<path d="M156.396 228.3L156.242 228L157.476 227.9L156.756 226.75L157.321 226.7L159.069 229.4L156.962 229.55L156.807 229.25L158.349 229.15L157.733 228.15L156.396 228.3Z" fill="#263238"/>
<path d="M156.088 229C156.345 229.45 156.088 229.75 155.266 229.8C154.443 229.85 153.878 229.6 153.621 229.2L152.798 227.8C152.541 227.4 152.798 227.1 153.621 227.05C154.443 227 154.957 227.2 155.214 227.65L156.088 229ZM154.597 227.6C154.443 227.35 154.186 227.25 153.724 227.25C153.312 227.3 153.158 227.45 153.312 227.7L154.186 229.15C154.34 229.4 154.649 229.55 155.06 229.5C155.471 229.45 155.625 229.3 155.471 229.05L154.597 227.6Z" fill="#263238"/>
<path d="M152.233 230C151.359 230.05 150.896 229.85 150.639 229.45L150.537 229.2C150.382 228.9 150.485 228.7 150.896 228.6C150.382 228.55 150.074 228.35 149.92 228.1L149.714 227.7C149.663 227.6 149.56 227.45 149.406 227.4L150.023 227.35C150.125 227.4 150.177 227.5 150.28 227.65L150.537 228.1C150.691 228.4 151.051 228.5 151.565 228.45L151.976 228.4L151.308 227.25L151.873 227.2L153.466 229.95L152.233 230ZM151.616 228.65C151.153 228.7 150.896 228.8 151.051 229.1L151.205 229.35C151.359 229.6 151.616 229.7 152.027 229.7L152.593 229.65L152.027 228.6L151.616 228.65Z" fill="#263238"/>
<path d="M146.887 227.55L147.453 227.5L149.509 229.6L148.326 227.4L148.84 227.35L150.331 230.1L149.457 230.15L147.401 228L147.71 230.3L146.836 230.35L145.448 227.55L146.013 227.5L147.144 229.75L146.887 227.55Z" fill="#263238"/>
<path d="M171.199 224.35L154.237 225.65" stroke="#263238" stroke-width="0.5" stroke-miterlimit="10"/>
<path d="M150.536 225.9L139.896 226.7" stroke="#263238" stroke-width="0.5" stroke-miterlimit="10"/>
<path d="M136.967 226.95L128.178 227.6" stroke="#263238" stroke-width="0.5" stroke-miterlimit="10"/>
<path d="M154.699 127.65C154.699 127.65 149.714 129 144.06 131.65C138.406 134.3 127.252 138.3 121.958 140.3C116.663 142.3 113.425 147.5 112.397 150C111.369 152.5 106.897 163.15 106.897 163.15C106.897 163.15 97.4913 177.5 95.0755 181C92.6597 184.5 89.4215 189.35 89.2673 193.85C89.1131 198.35 91.6831 200.85 97.6455 200.85C103.659 200.85 106.229 198.85 109.108 195.85C111.986 192.85 121.444 178.2 122.831 176.5C124.219 174.85 127.971 168.5 127.971 168.5C127.971 168.5 129.873 185 129.873 190.15C129.873 195.3 129.873 202.3 129.873 202.3H183.843C183.843 202.3 186.413 183.95 186.927 182.45C187.441 180.95 191.399 170.1 191.399 170.1C191.399 170.1 205.585 192.5 207.95 195.5C210.366 198.5 217.099 204.8 223.73 202.3C230.412 199.75 229.024 192.85 225.426 184.5C221.828 176.15 215.506 162 215.506 161.35C215.506 160.7 212.936 150.85 202.501 143.2C192.067 135.55 181.787 133.7 179.371 132.55C176.956 131.35 169.246 127.65 154.699 127.65Z" fill="#92E3A9" stroke="#263238" stroke-miterlimit="10" stroke-linecap="round" stroke-linejoin="round"/>
<path d="M121.135 157.65L127.817 167.8C127.817 167.8 122.317 162.3 118.925 161.45" stroke="#263238" stroke-miterlimit="10" stroke-linecap="round" stroke-linejoin="round"/>
<path d="M127.818 167.85L123.86 166.5C123.86 166.5 120.262 164.5 117.332 165.35" stroke="#263238" stroke-miterlimit="10" stroke-linecap="round" stroke-linejoin="round"/>
<path d="M148.274 143.5C148.634 146.25 149.559 149.65 151.615 152" stroke="#263238" stroke-miterlimit="10" stroke-linecap="round" stroke-linejoin="round"/>
<path d="M148.017 139C148.017 139 147.966 139.95 148.069 141.4" stroke="#263238" stroke-miterlimit="10" stroke-linecap="round" stroke-linejoin="round"/>
<path d="M149.868 154C150.331 154.45 150.845 154.9 151.41 155.35" stroke="#263238" stroke-miterlimit="10" stroke-linecap="round" stroke-linejoin="round"/>
<path d="M145.088 146.5C145.088 146.5 146.321 150.1 149.148 153.25" stroke="#263238" stroke-miterlimit="10" stroke-linecap="round" stroke-linejoin="round"/>
<path d="M178.96 183.75C177.778 185.6 176.699 187.1 175.773 187.85" stroke="#263238" stroke-miterlimit="10" stroke-linecap="round" stroke-linejoin="round"/>
<path d="M187.596 167.15C187.596 167.15 183.638 175.9 179.886 182.15" stroke="#263238" stroke-miterlimit="10" stroke-linecap="round" stroke-linejoin="round"/>
<path d="M170.068 189.25C169.554 189.85 169.143 190.35 168.886 190.7" stroke="#263238" stroke-miterlimit="10" stroke-linecap="round" stroke-linejoin="round"/>
<path d="M176.647 181.65C176.647 181.65 173.512 185.2 171.147 187.95" stroke="#263238" stroke-miterlimit="10" stroke-linecap="round" stroke-linejoin="round"/>
<path d="M191.348 170.15C191.348 170.15 198.903 158.5 199.212 157.5" stroke="#263238" stroke-miterlimit="10" stroke-linecap="round" stroke-linejoin="round"/>
<path d="M197.104 165.65C199.366 163.9 202.707 161.65 206.099 161" stroke="#263238" stroke-miterlimit="10" stroke-linecap="round" stroke-linejoin="round"/>
<path d="M194.432 168C194.432 168 195.048 167.4 196.076 166.5" stroke="#263238" stroke-miterlimit="10" stroke-linecap="round" stroke-linejoin="round"/>
<path d="M203.89 159.15C203.89 159.15 200.806 160.65 197.722 163" stroke="#263238" stroke-miterlimit="10" stroke-linecap="round" stroke-linejoin="round"/>
<path d="M206.974 183.85C206.974 183.85 211.24 181.5 216.226 184.35" stroke="#263238" stroke-miterlimit="10" stroke-linecap="round" stroke-linejoin="round"/>
<path d="M208.516 181.65C208.516 181.65 214.529 180.5 218.95 183.15" stroke="#263238" stroke-miterlimit="10" stroke-linecap="round" stroke-linejoin="round"/>
<path d="M96.1035 183.65C96.1035 183.65 99.1875 180.65 103.814 181.3" stroke="#263238" stroke-miterlimit="10" stroke-linecap="round" stroke-linejoin="round"/>
<path d="M106.692 181.75C107.104 182 107.515 182.35 107.926 182.7" stroke="#263238" stroke-miterlimit="10" stroke-linecap="round" stroke-linejoin="round"/>
<path d="M102.117 179.85C102.117 179.85 103.299 179.9 104.944 180.7" stroke="#263238" stroke-miterlimit="10" stroke-linecap="round" stroke-linejoin="round"/>
<path d="M153.517 132C153.517 132 151.975 138.35 152.489 143C153.003 147.65 158.297 154.85 162.769 156.5C167.241 158.15 175.465 153.35 178.343 150.5C181.273 147.65 181.427 138.65 181.427 138.65C181.427 138.65 177.007 129.3 167.549 126.65C158.092 124 153.517 132 153.517 132Z" fill="#ABABAB" stroke="#263238" stroke-miterlimit="10" stroke-linecap="round" stroke-linejoin="round"/>
<path d="M188.931 130.7C188.931 130.7 189.804 133.3 188.108 136.6C186.412 139.9 183.071 142.7 182.146 142.4C181.272 142.1 184.921 130.2 184.921 130.2C184.921 130.2 187.389 128.85 188.931 130.7Z" fill="#ABABAB" stroke="#263238" stroke-miterlimit="10" stroke-linecap="round" stroke-linejoin="round"/>
<path d="M151.152 121.2C151.152 121.2 149.456 123.4 150.022 127.05C150.587 130.7 152.849 134.35 153.774 134.35C154.699 134.35 155.11 121.9 155.11 121.9C155.11 121.9 153.208 119.9 151.152 121.2Z" fill="#ABABAB" stroke="#263238" stroke-miterlimit="10" stroke-linecap="round" stroke-linejoin="round"/>
<path d="M153.928 125.95C153.928 125.95 152.592 137.1 154.134 141.7C155.624 146.25 158.657 153.4 163.334 155.25C168.012 157.1 178.754 149.2 180.45 146.1C182.147 143 186.824 129.8 186.824 129.8C186.824 129.8 190.936 125.05 188.52 118.45C186.053 111.85 172.895 107.85 167.446 108C161.998 108.2 156.549 112.55 156.138 116.05C155.83 119.55 153.928 125.95 153.928 125.95Z" fill="#ABABAB" stroke="#263238" stroke-miterlimit="10" stroke-linecap="round" stroke-linejoin="round"/>
<path d="M166.162 132.7C166.162 132.7 162.05 127.75 158.246 129.4" stroke="#263238" stroke-width="2" stroke-miterlimit="10" stroke-linecap="round" stroke-linejoin="round"/>
<path d="M172.74 134.9C172.74 134.9 178.394 133.6 181.016 136" stroke="#263238" stroke-width="2" stroke-miterlimit="10" stroke-linecap="round" stroke-linejoin="round"/>
<path d="M158.862 133.8C158.862 133.8 160.045 137.3 164.979 136.9" stroke="#263238" stroke-miterlimit="10" stroke-linecap="round" stroke-linejoin="round"/>
<path d="M172.381 138.75C172.381 138.75 173.511 141.15 178.754 140.2" stroke="#263238" stroke-miterlimit="10" stroke-linecap="round" stroke-linejoin="round"/>
<path d="M163.129 142.05C163.129 142.05 162.82 143.35 163.437 144.25C164.054 145.15 165.596 146.45 166.727 146.45C167.858 146.45 170.222 146.05 170.839 145.45C171.456 144.85 171.867 144.15 171.867 144.15" stroke="#263238" stroke-miterlimit="10" stroke-linecap="round" stroke-linejoin="round"/>
<path d="M160.559 145.351C160.559 145.351 163.129 148.251 165.236 148.951C167.395 149.651 171.353 148.451 172.483 148.051" stroke="#263238" stroke-miterlimit="10" stroke-linecap="round" stroke-linejoin="round"/>
<path d="M197.824 113.35C197.67 112.15 198.544 110.45 198.698 109.4C198.852 108.35 197.464 106.5 196.231 104.95C194.997 103.4 194.843 101.7 194.843 100.65C194.843 99.6004 193.609 98.7504 192.53 98.1004C191.45 97.4004 189.703 96.0504 188.983 95.2004C188.264 94.3504 185.282 94.5004 184.768 94.5004C184.254 94.5004 181.941 92.6004 180.554 91.9504C179.166 91.2504 176.339 92.4504 176.339 92.4504C176.339 92.4504 172.998 90.9004 172.278 90.9004C171.559 90.9004 168.577 92.1004 168.577 92.1004C168.577 92.1004 166.573 92.9504 165.493 93.0504C165.236 93.0004 165.031 92.9504 164.928 92.9504C164.517 92.4504 161.022 94.5004 161.022 94.5004L157.835 95.0004L156.653 96.8504C155.522 96.9504 152.9 97.4004 152.695 98.6504C152.438 100.25 152.695 100.95 151.975 101.85C151.256 102.75 148.686 102.55 149.405 104.6C150.125 106.65 151.77 108.25 149.662 109.4C147.555 110.55 146.373 112.6 147.555 113.75C148.737 114.9 149.662 116.5 149.457 117.4C149.2 118.3 148.994 120.35 149.919 120.85C150.844 121.3 152.284 122.45 152.284 122.45L153.466 124.95L154.185 126.55C154.185 126.55 155.368 122.9 156.293 122.45C157.218 122 156.293 124.05 158.195 124.05C160.096 124.05 161.947 115.35 163.335 115.15C164.722 114.9 168.989 122.7 173.203 122.7C177.418 122.7 182.61 119.05 184.717 119.05C186.824 119.05 185.18 127.75 185.18 129.55C185.18 131.35 185.642 133.2 185.642 133.9C185.642 134.6 188.007 130.7 189.651 129.8C190.114 129.55 190.628 129.25 191.245 128.9C191.245 129 191.245 129 191.245 129C191.245 129 197.053 125.4 197.773 124.2C198.492 123 197.927 121.95 197.927 120.95C197.927 119.9 198.646 119.05 198.801 117.5C198.852 115.9 197.978 114.55 197.824 113.35Z" fill="#263238" stroke="#263238" stroke-miterlimit="10" stroke-linecap="round" stroke-linejoin="round"/>
<path d="M240.846 202.301H14.3779" stroke="#263238" stroke-miterlimit="10" stroke-linecap="round" stroke-linejoin="round"/>
<path d="M216.225 187.7C216.225 187.7 209.8 185.4 205.174 187.2C200.548 189 189.703 193.25 182.353 194.6C174.951 195.95 167.601 196.15 161.382 195.95C155.162 195.75 151.718 196.6 150.331 197.75C148.943 198.85 143.854 205.15 144.317 205.85C144.779 206.5 145.293 206.8 147.555 206.3C148.48 206.1 150.999 203.4 150.999 203.4L155.625 201.4C155.625 201.4 150.793 206.55 151.461 207.25C152.13 207.9 153.312 207.05 154.237 206.35C155.162 205.7 157.013 204.1 157.013 204.1L161.176 202.3C161.176 202.3 156.807 205.2 156.807 206.55C156.807 207.9 157.886 207.1 159.685 206.4C160.199 206.2 162.153 204.6 162.153 204.6L165.648 203.65C165.648 203.65 168.526 205.35 172.895 205.35C177.264 205.35 180.091 202.75 180.091 202.75C180.091 202.75 196.231 205 204.301 204.3C212.37 203.65 222.496 204.5 226.66 201.6C230.823 198.7 225.529 191.05 225.066 190.4" fill="#ABABAB"/>
<path d="M216.225 187.7C216.225 187.7 209.8 185.4 205.174 187.2C200.548 189 189.703 193.25 182.353 194.6C174.951 195.95 167.601 196.15 161.382 195.95C155.162 195.75 151.718 196.6 150.331 197.75C148.943 198.85 143.854 205.15 144.317 205.85C144.779 206.5 145.293 206.8 147.555 206.3C148.48 206.1 150.999 203.4 150.999 203.4L155.625 201.4C155.625 201.4 150.793 206.55 151.461 207.25C152.13 207.9 153.312 207.05 154.237 206.35C155.162 205.7 157.013 204.1 157.013 204.1L161.176 202.3C161.176 202.3 156.807 205.2 156.807 206.55C156.807 207.9 157.886 207.1 159.685 206.4C160.199 206.2 162.153 204.6 162.153 204.6L165.648 203.65C165.648 203.65 168.526 205.35 172.895 205.35C177.264 205.35 180.091 202.75 180.091 202.75C180.091 202.75 196.231 205 204.301 204.3C212.37 203.65 222.496 204.5 226.66 201.6C230.823 198.7 225.529 191.05 225.066 190.4" stroke="#263238" stroke-miterlimit="10" stroke-linecap="round" stroke-linejoin="round"/>
<path d="M145.396 206.45C145.396 206.45 146.27 204.05 147.093 203C147.966 201.95 151.924 199.45 153.312 198.7C154.7 197.95 155.008 197.85 155.008 197.85" stroke="#263238" stroke-miterlimit="10" stroke-linecap="round" stroke-linejoin="round"/>
<path d="M155.625 201.35L159.686 198.75" stroke="#263238" stroke-miterlimit="10" stroke-linecap="round" stroke-linejoin="round"/>
<path d="M161.125 202.25L164.929 200.4" stroke="#263238" stroke-miterlimit="10" stroke-linecap="round" stroke-linejoin="round"/>
<path d="M216.225 187.7C212.782 186.9 207.95 186.1 205.174 187.2C201.062 188.8 192.067 192.35 184.923 194.05C185.745 194.9 186.465 196.2 186.568 198C186.67 200.2 186.259 202.1 185.797 203.4C191.245 204 199.263 204.7 204.198 204.25C212.268 203.6 222.393 204.45 226.557 201.55C230.72 198.65 225.426 191 224.963 190.35" fill="#92E3A9"/>
<path d="M216.225 187.7C212.782 186.9 207.95 186.1 205.174 187.2C201.062 188.8 192.067 192.35 184.923 194.05C185.745 194.9 186.465 196.2 186.568 198C186.67 200.2 186.259 202.1 185.797 203.4C191.245 204 199.263 204.7 204.198 204.25C212.268 203.6 222.393 204.45 226.557 201.55C230.72 198.65 225.426 191 224.963 190.35" stroke="#263238" stroke-miterlimit="10" stroke-linecap="round" stroke-linejoin="round"/>
<path d="M94.4592 187.05C94.8704 185.9 98.0572 183.2 102.323 183.9C106.59 184.65 111.421 189.25 114.197 192.75C116.972 196.3 119.183 197.25 119.183 197.25L115.944 206.95C115.944 206.95 113.94 206.5 110.188 205.55C106.435 204.6 98.0058 203.4 94.1508 202.25C90.2958 201.1 88.651 197.05 89.4734 193.25C90.2958 189.45 91.6322 187.2 91.6322 187.2" fill="#92E3A9"/>
<path d="M94.4592 187.05C94.8704 185.9 98.0572 183.2 102.323 183.9C106.59 184.65 111.421 189.25 114.197 192.75C116.972 196.3 119.183 197.25 119.183 197.25L115.944 206.95C115.944 206.95 113.94 206.5 110.188 205.55C106.435 204.6 98.0058 203.4 94.1508 202.25C90.2958 201.1 88.651 197.05 89.4734 193.25C90.2958 189.45 91.6322 187.2 91.6322 187.2" stroke="#263238" stroke-miterlimit="10" stroke-linecap="round" stroke-linejoin="round"/>
<path d="M114.196 192.8C113.888 192.45 113.58 192.05 113.271 191.65C110.855 192.6 107.823 194.3 106.178 197.35C104.533 200.4 104.533 202.9 104.893 204.5C106.949 204.9 108.851 205.25 110.187 205.55C113.939 206.5 115.944 206.95 115.944 206.95L119.182 197.25C119.131 197.3 116.921 196.35 114.196 192.8Z" fill="#ABABAB" stroke="#263238" stroke-miterlimit="10" stroke-linecap="round" stroke-linejoin="round"/>
<path d="M112.86 202.25C112.655 203.75 112.192 205.45 114.402 206.4C116.613 207.35 118.874 209.7 120.262 210.25C121.65 210.8 124.117 211.4 125.556 211.5C126.995 211.6 128.743 212.05 131.57 211.3C134.346 210.55 134.294 209.85 134.294 209.85C134.294 209.85 136.042 209.9 136.916 209.5C137.789 209.1 137.173 208.05 136.145 207.65C135.117 207.25 133.832 206.7 133.832 206.7C133.832 206.7 135.425 205.25 135.014 204.9C134.603 204.55 134.603 204.55 134.603 204.55C134.603 204.55 136.453 204.75 136.607 204.2C136.761 203.65 135.631 201.1 135.168 199C134.705 196.9 133.729 197.15 131.981 196.85C130.234 196.5 127.766 196.95 124.58 196.3C121.393 195.65 116.767 196.75 114.968 197.2" fill="#ABABAB"/>
<path d="M112.86 202.25C112.655 203.75 112.192 205.45 114.402 206.4C116.613 207.35 118.874 209.7 120.262 210.25C121.65 210.8 124.117 211.4 125.556 211.5C126.995 211.6 128.743 212.05 131.57 211.3C134.346 210.55 134.294 209.85 134.294 209.85C134.294 209.85 136.042 209.9 136.916 209.5C137.789 209.1 137.173 208.05 136.145 207.65C135.117 207.25 133.832 206.7 133.832 206.7C133.832 206.7 135.425 205.25 135.014 204.9C134.603 204.55 134.603 204.55 134.603 204.55C134.603 204.55 136.453 204.75 136.607 204.2C136.761 203.65 135.631 201.1 135.168 199C134.705 196.9 133.729 197.15 131.981 196.85C130.234 196.5 127.766 196.95 124.58 196.3C121.393 195.65 116.767 196.75 114.968 197.2" stroke="#263238" stroke-miterlimit="10" stroke-linecap="round" stroke-linejoin="round"/>
<path d="M125.299 187.85L128.229 197.85L130.542 198.9L127.098 187.3C126.944 186.8 126.378 186.5 125.864 186.7C125.402 186.95 125.145 187.4 125.299 187.85Z" fill="#263238"/>
<path d="M126.944 197.051C126.944 197.051 132.032 199.701 132.392 199.851C132.649 199.951 134.911 203.651 135.63 205.401C135.939 206.201 135.579 206.651 134.808 207.101L133.78 206.701L127.458 202.801L125.145 201.751" fill="#ABABAB"/>
<path d="M126.944 197.051C126.944 197.051 132.032 199.701 132.392 199.851C132.649 199.951 134.911 203.651 135.63 205.401C135.939 206.201 135.579 206.651 134.808 207.101L133.78 206.701L127.458 202.801L125.145 201.751" stroke="#263238" stroke-miterlimit="10" stroke-linecap="round" stroke-linejoin="round"/>
<path d="M123.398 205.7C123.398 205.7 128.332 208.55 129.412 209.1C130.44 209.65 134.243 209.85 134.243 209.85" stroke="#263238" stroke-miterlimit="10" stroke-linecap="round" stroke-linejoin="round"/>
<path d="M121.547 208.5C121.547 208.5 125.711 210.75 126.533 211C127.355 211.3 129.103 211.75 129.103 211.75" stroke="#263238" stroke-miterlimit="10" stroke-linecap="round" stroke-linejoin="round"/>
<path d="M89.3197 227.1L108.338 210.1L66.498 207.5L89.3197 227.1Z" fill="#CCCCCC" stroke="#263238" stroke-miterlimit="10" stroke-linecap="round" stroke-linejoin="round"/>
<path d="M88.5483 223.65L97.0807 215.8L87.2119 215.2L88.5483 223.65Z" fill="#263238" stroke="#263238" stroke-miterlimit="10" stroke-linecap="round" stroke-linejoin="round"/>
<path d="M30.3636 179.4L92.9174 182.1L89.3194 227.1L26.2002 224.1L30.3636 179.4Z" fill="#A6A6A6" stroke="#263238" stroke-miterlimit="10" stroke-linecap="round" stroke-linejoin="round"/>
<path d="M26.4573 221.1C30.1581 220.55 36.3775 219.15 46.9659 215.85C72.0491 207.95 75.2359 185.85 92.9175 182.1L30.3123 179.4L26.4573 221.1Z" fill="#263238" stroke="#263238" stroke-miterlimit="10" stroke-linecap="round" stroke-linejoin="round"/>
<path d="M59.1476 205.8C61.7877 205.8 63.9278 204.189 63.9278 202.2C63.9278 200.212 61.7877 198.6 59.1476 198.6C56.5076 198.6 54.3674 200.212 54.3674 202.2C54.3674 204.189 56.5076 205.8 59.1476 205.8Z" fill="white" stroke="#263238" stroke-miterlimit="10" stroke-linecap="round" stroke-linejoin="round"/>
</g>
<defs>
<filter id="filter0_d_382_8719" x="9.69531" y="20.3523" width="246.552" height="231.749" filterUnits="userSpaceOnUse" color-interpolation-filters="sRGB">
<feFlood flood-opacity="0" result="BackgroundImageFix"/>
<feColorMatrix in="SourceAlpha" type="matrix" values="0 0 0 0 0 0 0 0 0 0 0 0 0 0 0 0 0 0 127 0" result="hardAlpha"/>
<feOffset dx="4" dy="4"/>
<feGaussianBlur stdDeviation="2"/>
<feComposite in2="hardAlpha" operator="out"/>
<feColorMatrix type="matrix" values="0 0 0 0 0 0 0 0 0 0 0 0 0 0 0 0 0 0 0.25 0"/>
<feBlend mode="normal" in2="BackgroundImageFix" result="effect1_dropShadow_382_8719"/>
<feBlend mode="normal" in="SourceGraphic" in2="effect1_dropShadow_382_8719" result="shape"/>
</filter>
<clipPath id="clip0_382_8719">
<rect width="257" height="250" fill="white" transform="translate(0.5)"/>
</clipPath>
</defs>
</svg>
