<svg width="350" height="250" viewBox="0 0 350 250" fill="none" xmlns="http://www.w3.org/2000/svg">
<path d="M311 217.5C311 217.5 326.5 185.5 326.5 154C326.5 120.85 314.8 86.3498 279.35 76.3998C270.25 73.8498 260.75 73.1498 251.4 71.8498C236.95 69.8498 226.5 64.2498 215.2 55.3998C175.2 24.1498 86.9003 4.64976 75.5003 74.4998C71.5003 98.9998 72.5003 110 46.0003 131C19.5003 152 16.5003 175 17.5003 186C18.5003 197 34.0003 217 34.0003 217L311 217.5Z" fill="#92E3A9"/>
<g opacity="0.7" filter="url(#filter0_d_382_8175)">
<path d="M311 217.5C311 217.5 326.5 185.5 326.5 154C326.5 120.85 314.8 86.3498 279.35 76.3998C270.25 73.8498 260.75 73.1498 251.4 71.8498C236.95 69.8498 226.5 64.2498 215.2 55.3998C175.2 24.1498 86.9003 4.64976 75.5003 74.4998C71.5003 98.9998 72.5003 110 46.0003 131C19.5003 152 16.5003 175 17.5003 186C18.5003 197 34.0003 217 34.0003 217L311 217.5Z" fill="white"/>
</g>
<path opacity="0.2" d="M225 96.1504H204V104.65H225V96.1504Z" fill="black"/>
<path opacity="0.2" d="M217 65.8994H196V74.3994H217V65.8994Z" fill="black"/>
<path opacity="0.2" d="M141 95.9001H120V104.4H141V95.9001Z" fill="black"/>
<path opacity="0.2" d="M171.5 36.75H150.5V45.25H171.5V36.75Z" fill="black"/>
<path opacity="0.2" d="M194.5 36.75H173.5V45.25H194.5V36.75Z" fill="black"/>
<path opacity="0.2" d="M105 158.75H84.0002V167.25H105V158.75Z" fill="black"/>
<path opacity="0.2" d="M94.0002 169.25H73.0002V177.75H94.0002V169.25Z" fill="black"/>
<path opacity="0.1" d="M205.5 77.6494H184.5V86.1494H205.5V77.6494Z" fill="black"/>
<path opacity="0.1" d="M237 125.399H216V133.899H237V125.399Z" fill="black"/>
<path opacity="0.1" d="M114 138.4H93.0002V146.9H114V138.4Z" fill="black"/>
<path opacity="0.1" d="M138 138.4H117V146.9H138V138.4Z" fill="black"/>
<path opacity="0.1" d="M140 126.4H119V134.9H140V126.4Z" fill="black"/>
<path opacity="0.1" d="M229.5 77.6494H208.5V86.1494H229.5V77.6494Z" fill="black"/>
<path opacity="0.2" d="M167 168.399H146V176.899H167V168.399Z" fill="black"/>
<path opacity="0.1" d="M155.5 180.149H134.5V188.649H155.5V180.149Z" fill="black"/>
<path opacity="0.1" d="M179.5 180.149H158.5V188.649H179.5V180.149Z" fill="black"/>
<path opacity="0.2" d="M311.5 168.399H290.5V176.899H311.5V168.399Z" fill="black"/>
<path opacity="0.1" d="M300 180.149H279V188.649H300V180.149Z" fill="black"/>
<path opacity="0.1" d="M324 180.149H303V188.649H324V180.149Z" fill="black"/>
<path opacity="0.2" d="M223.5 192.9H202.5V201.4H223.5V192.9Z" fill="black"/>
<path opacity="0.2" d="M57.0002 125.9H36.0002V134.4H57.0002V125.9Z" fill="black"/>
<path opacity="0.1" d="M212 204.65H191V213.15H212V204.65Z" fill="black"/>
<path opacity="0.1" d="M236 204.65H215V213.15H236V204.65Z" fill="black"/>
<path opacity="0.1" d="M150 85.25H129V93.75H150V85.25Z" fill="black"/>
<path opacity="0.1" d="M118.5 168.75H97.5002V177.25H118.5V168.75Z" fill="black"/>
<path opacity="0.1" d="M183.5 26.25H162.5V34.75H183.5V26.25Z" fill="black"/>
<path opacity="0.2" d="M45.0002 97.75H24.0002V106.25H45.0002V97.75Z" fill="black"/>
<path opacity="0.1" d="M57 87.2502H36V95.7502H57V87.2502Z" fill="black"/>
<path opacity="0.1" d="M110.5 36.1504H89.5002V44.6504H110.5V36.1504Z" fill="black"/>
<path opacity="0.2" d="M183.5 96.1504H162.5V104.65H183.5V96.1504Z" fill="black"/>
<path opacity="0.2" d="M294.5 95.9001H273.5V104.4H294.5V95.9001Z" fill="black"/>
<path opacity="0.1" d="M267.5 138.4H246.5V146.9H267.5V138.4Z" fill="black"/>
<path opacity="0.1" d="M291.5 138.4H270.5V146.9H291.5V138.4Z" fill="black"/>
<path opacity="0.1" d="M293.5 126.4H272.5V134.9H293.5V126.4Z" fill="black"/>
<path opacity="0.1" d="M303.5 85.25H282.5V93.75H303.5V85.25Z" fill="black"/>
<path opacity="0.2" d="M337 96.1504H316V104.65H337V96.1504Z" fill="black"/>
<path d="M49.6498 180.55C53.1568 180.55 55.9998 173.118 55.9998 163.95C55.9998 154.783 53.1568 147.35 49.6498 147.35C46.1428 147.35 43.2998 154.783 43.2998 163.95C43.2998 173.118 46.1428 180.55 49.6498 180.55Z" fill="#263238"/>
<path d="M69.3162 153.723C71.2979 147.485 70.7068 141.731 67.996 140.869C65.2851 140.008 61.481 144.366 59.4993 150.604C57.5176 156.842 58.1087 162.596 60.8196 163.458C63.5305 164.319 67.3345 159.961 69.3162 153.723Z" fill="#263238"/>
<path d="M35.4001 188.196C35.8751 185.392 31.029 182.232 24.5761 181.139C18.1231 180.046 12.5069 181.434 12.0319 184.238C11.5569 187.043 16.403 190.202 22.856 191.295C29.3089 192.388 34.9251 191.001 35.4001 188.196Z" fill="#263238"/>
<path d="M75.2918 175.963C80.6835 170.615 83.0522 164.262 80.5826 161.772C78.113 159.282 71.7401 161.598 66.3484 166.946C60.9568 172.294 58.588 178.647 61.0576 181.137C63.5272 183.627 69.9001 181.311 75.2918 175.963Z" fill="#263238"/>
<path d="M41.669 179.058C44.966 176.786 43.421 168.824 38.2182 161.275C33.0154 153.727 26.125 149.449 22.828 151.721C19.5311 153.994 21.0761 161.955 26.2789 169.504C31.4817 177.053 38.3721 181.331 41.669 179.058Z" fill="#263238"/>
<path d="M50.0996 179.75L50.5996 202.6" stroke="#263238" stroke-width="2" stroke-miterlimit="10" stroke-linecap="round"/>
<path d="M49.5 157.8L50.1 179.75" stroke="#8C8C8C" stroke-width="2" stroke-miterlimit="10" stroke-linecap="round"/>
<path d="M49.55 154.2L49.5 155.9" stroke="#8C8C8C" stroke-width="2" stroke-miterlimit="10" stroke-linecap="round"/>
<path d="M41.6494 178C44.7994 184.65 47.3994 192.75 47.8994 201.95" stroke="#263238" stroke-width="2" stroke-miterlimit="10" stroke-linecap="round"/>
<path d="M30.75 161.35C33.7 164.75 38.05 170.45 41.65 178" stroke="#8C8C8C" stroke-width="2" stroke-miterlimit="10" stroke-linecap="round"/>
<path d="M27.3496 157.75C27.3496 157.75 27.9996 158.35 29.0996 159.5" stroke="#8C8C8C" stroke-width="2" stroke-miterlimit="10" stroke-linecap="round"/>
<path d="M61.4492 180.349C57.7492 185.449 54.0492 192.149 51.1992 200.699" stroke="#263238" stroke-width="2" stroke-miterlimit="10" stroke-linecap="round"/>
<path d="M68.7492 171.95C66.4992 174.05 63.9992 176.85 61.4492 180.3" stroke="#8C8C8C" stroke-width="2" stroke-miterlimit="10" stroke-linecap="round"/>
<path d="M76.55 166.05C76.55 166.05 74.3 167.2 71 170" stroke="#8C8C8C" stroke-width="2" stroke-miterlimit="10" stroke-linecap="round"/>
<path d="M61.1998 161.9C57.6998 172.95 52.9998 189.25 50.7998 203.4" stroke="#263238" stroke-width="2" stroke-miterlimit="10" stroke-linecap="round"/>
<path d="M63.3492 155.349C62.7492 157.199 61.9992 159.399 61.1992 161.899" stroke="#8C8C8C" stroke-width="2" stroke-miterlimit="10" stroke-linecap="round"/>
<path d="M65.5502 149C65.5502 149 64.9502 150.7 63.9502 153.6" stroke="#8C8C8C" stroke-width="2" stroke-miterlimit="10" stroke-linecap="round"/>
<path d="M35.0498 186.65C39.4498 188.3 43.6998 191.5 45.7998 197.6" stroke="#263238" stroke-width="2" stroke-miterlimit="10" stroke-linecap="round"/>
<path d="M26.9492 185C29.2992 185.15 32.1992 185.55 35.0492 186.65" stroke="#8C8C8C" stroke-width="2" stroke-miterlimit="10" stroke-linecap="round"/>
<path d="M21.6992 185.15C21.6992 185.15 22.4992 185.05 23.7492 185" stroke="#8C8C8C" stroke-width="2" stroke-miterlimit="10" stroke-linecap="round"/>
<path d="M78.0067 191.29C84.4597 190.197 89.3058 187.038 88.8308 184.233C88.3558 181.429 82.7396 180.041 76.2866 181.134C69.8337 182.227 64.9876 185.387 65.4626 188.191C65.9376 190.995 71.5538 192.383 78.0067 191.29Z" fill="#263238"/>
<path d="M65.9498 186.599C61.4998 188.249 57.1498 191.449 55.0498 197.599" stroke="#263238" stroke-width="2" stroke-miterlimit="10" stroke-linecap="round"/>
<path d="M74.5992 185C72.1492 185.1 69.0492 185.5 65.9492 186.65" stroke="#8C8C8C" stroke-width="2" stroke-miterlimit="10" stroke-linecap="round"/>
<path d="M79.15 185.15C79.15 185.15 78.65 185.1 77.75 185" stroke="#8C8C8C" stroke-width="2" stroke-miterlimit="10" stroke-linecap="round"/>
<path d="M65.8502 217C67.7502 213.05 68.8502 208.5 68.8502 203.95C68.8502 201.15 68.4002 198.45 67.6502 195.95H33.9002C33.1502 198.45 32.7002 201.15 32.7002 203.95C32.7002 208.5 33.8002 213.05 35.7002 217H65.8502Z" fill="#263238"/>
<path d="M33.0498 199.65C32.9498 200.25 32.8998 200.9 32.7998 201.5H68.6998C68.6498 200.85 68.5498 200.25 68.4498 199.65H33.0498Z" fill="#7A7A7A"/>
<path d="M68.3502 209.2C68.4502 208.6 68.5502 207.95 68.6502 207.35H32.9502C33.0002 208 33.1002 208.6 33.2502 209.2H68.3502Z" fill="#7A7A7A"/>
<path d="M37.1002 204.05C37.1002 204.85 36.4502 205.5 35.6502 205.5C34.8502 205.5 34.2002 204.85 34.2002 204.05C34.2002 203.25 34.8502 202.6 35.6502 202.6C36.4502 202.6 37.1002 203.25 37.1002 204.05Z" fill="#8C8C8C"/>
<path d="M44.3502 204.05C44.3502 204.85 43.7002 205.5 42.9002 205.5C42.1002 205.5 41.4502 204.85 41.4502 204.05C41.4502 203.25 42.1002 202.6 42.9002 202.6C43.7002 202.6 44.3502 203.25 44.3502 204.05Z" fill="#8C8C8C"/>
<path d="M51.6002 204.05C51.6002 204.85 50.9502 205.5 50.1502 205.5C49.3502 205.5 48.7002 204.85 48.7002 204.05C48.7002 203.25 49.3502 202.6 50.1502 202.6C50.9502 202.6 51.6002 203.25 51.6002 204.05Z" fill="#8C8C8C"/>
<path d="M58.9 204.05C58.9 204.85 58.25 205.5 57.45 205.5C56.65 205.5 56 204.85 56 204.05C56 203.25 56.65 202.6 57.45 202.6C58.25 202.6 58.9 203.25 58.9 204.05Z" fill="#8C8C8C"/>
<path d="M66.1502 204.05C66.1502 204.85 65.5002 205.5 64.7002 205.5C63.9002 205.5 63.2502 204.85 63.2502 204.05C63.2502 203.25 63.9002 202.6 64.7002 202.6C65.5002 202.6 66.1502 203.25 66.1502 204.05Z" fill="#8C8C8C"/>
<path d="M292.95 180.551C296.457 180.551 299.3 173.119 299.3 163.951C299.3 154.783 296.457 147.351 292.95 147.351C289.443 147.351 286.6 154.783 286.6 163.951C286.6 173.119 289.443 180.551 292.95 180.551Z" fill="#263238"/>
<path d="M312.617 153.713C314.599 147.476 314.008 141.721 311.297 140.86C308.586 139.998 304.782 144.357 302.8 150.594C300.818 156.832 301.41 162.587 304.12 163.448C306.831 164.309 310.635 159.951 312.617 153.713Z" fill="#263238"/>
<path d="M278.694 188.186C279.169 185.381 274.323 182.222 267.87 181.129C261.417 180.036 255.801 181.423 255.326 184.228C254.851 187.032 259.697 190.192 266.15 191.285C272.603 192.378 278.219 190.99 278.694 188.186Z" fill="#263238"/>
<path d="M318.585 175.957C323.976 170.61 326.345 164.256 323.876 161.766C321.406 159.276 315.033 161.593 309.641 166.94C304.25 172.288 301.881 178.642 304.351 181.132C306.82 183.622 313.193 181.305 318.585 175.957Z" fill="#263238"/>
<path d="M284.977 179.059C288.274 176.787 286.729 168.825 281.526 161.277C276.323 153.728 269.433 149.45 266.136 151.723C262.839 153.995 264.384 161.956 269.587 169.505C274.789 177.054 281.68 181.332 284.977 179.059Z" fill="#263238"/>
<path d="M293.399 179.75L293.899 202.6" stroke="#263238" stroke-width="2" stroke-miterlimit="10" stroke-linecap="round"/>
<path d="M292.8 157.801L293.4 179.751" stroke="#8C8C8C" stroke-width="2" stroke-miterlimit="10" stroke-linecap="round"/>
<path d="M292.85 154.2L292.8 155.9" stroke="#8C8C8C" stroke-width="2" stroke-miterlimit="10" stroke-linecap="round"/>
<path d="M284.95 178C288.1 184.65 290.7 192.75 291.2 201.95" stroke="#263238" stroke-width="2" stroke-miterlimit="10" stroke-linecap="round"/>
<path d="M274.05 161.351C277 164.751 281.35 170.451 284.95 178.001" stroke="#8C8C8C" stroke-width="2" stroke-miterlimit="10" stroke-linecap="round"/>
<path d="M270.649 157.75C270.649 157.75 271.299 158.35 272.399 159.5" stroke="#8C8C8C" stroke-width="2" stroke-miterlimit="10" stroke-linecap="round"/>
<path d="M304.75 180.351C301.05 185.451 297.35 192.151 294.5 200.701" stroke="#263238" stroke-width="2" stroke-miterlimit="10" stroke-linecap="round"/>
<path d="M312.05 171.95C309.8 174.05 307.3 176.85 304.75 180.3" stroke="#8C8C8C" stroke-width="2" stroke-miterlimit="10" stroke-linecap="round"/>
<path d="M319.85 166.051C319.85 166.051 317.6 167.201 314.3 170.001" stroke="#8C8C8C" stroke-width="2" stroke-miterlimit="10" stroke-linecap="round"/>
<path d="M304.5 161.9C301 172.95 296.3 189.25 294.1 203.4" stroke="#263238" stroke-width="2" stroke-miterlimit="10" stroke-linecap="round"/>
<path d="M306.65 155.351C306.05 157.201 305.3 159.401 304.5 161.901" stroke="#8C8C8C" stroke-width="2" stroke-miterlimit="10" stroke-linecap="round"/>
<path d="M308.85 149C308.85 149 308.25 150.7 307.25 153.6" stroke="#8C8C8C" stroke-width="2" stroke-miterlimit="10" stroke-linecap="round"/>
<path d="M278.35 186.65C282.75 188.3 287 191.5 289.1 197.6" stroke="#263238" stroke-width="2" stroke-miterlimit="10" stroke-linecap="round"/>
<path d="M270.25 185C272.6 185.15 275.5 185.55 278.35 186.65" stroke="#8C8C8C" stroke-width="2" stroke-miterlimit="10" stroke-linecap="round"/>
<path d="M265 185.15C265 185.15 265.8 185.05 267.05 185" stroke="#8C8C8C" stroke-width="2" stroke-miterlimit="10" stroke-linecap="round"/>
<path d="M321.318 191.298C327.771 190.205 332.617 187.046 332.142 184.241C331.667 181.437 326.051 180.049 319.598 181.142C313.145 182.235 308.299 185.395 308.774 188.199C309.249 191.003 314.865 192.391 321.318 191.298Z" fill="#263238"/>
<path d="M309.25 186.601C304.8 188.251 300.45 191.451 298.35 197.601" stroke="#263238" stroke-width="2" stroke-miterlimit="10" stroke-linecap="round"/>
<path d="M317.9 185C315.45 185.1 312.35 185.5 309.25 186.65" stroke="#8C8C8C" stroke-width="2" stroke-miterlimit="10" stroke-linecap="round"/>
<path d="M322.45 185.15C322.45 185.15 321.95 185.1 321.05 185" stroke="#8C8C8C" stroke-width="2" stroke-miterlimit="10" stroke-linecap="round"/>
<path d="M309.15 217C311.05 213.05 312.15 208.5 312.15 203.95C312.15 201.15 311.7 198.45 310.95 195.95H277.2C276.45 198.45 276 201.15 276 203.95C276 208.5 277.1 213.05 279 217H309.15Z" fill="#263238"/>
<path d="M276.35 199.65C276.25 200.25 276.2 200.9 276.1 201.5H312C311.95 200.85 311.85 200.25 311.75 199.65H276.35Z" fill="#7A7A7A"/>
<path d="M311.65 209.201C311.75 208.601 311.85 207.951 311.95 207.351H276.25C276.3 208.001 276.4 208.601 276.55 209.201H311.65Z" fill="#7A7A7A"/>
<path d="M280.4 204.05C280.4 204.85 279.75 205.5 278.95 205.5C278.15 205.5 277.5 204.85 277.5 204.05C277.5 203.25 278.15 202.6 278.95 202.6C279.75 202.6 280.4 203.25 280.4 204.05Z" fill="#8C8C8C"/>
<path d="M287.65 204.05C287.65 204.85 287 205.5 286.2 205.5C285.4 205.5 284.75 204.85 284.75 204.05C284.75 203.25 285.4 202.6 286.2 202.6C287 202.6 287.65 203.25 287.65 204.05Z" fill="#8C8C8C"/>
<path d="M294.9 204.051C294.9 204.851 294.25 205.501 293.45 205.501C292.65 205.501 292 204.851 292 204.051C292 203.251 292.65 202.601 293.45 202.601C294.25 202.601 294.9 203.251 294.9 204.051Z" fill="#8C8C8C"/>
<path d="M302.2 204.051C302.2 204.851 301.55 205.501 300.75 205.501C299.95 205.501 299.3 204.851 299.3 204.051C299.3 203.251 299.95 202.601 300.75 202.601C301.55 202.601 302.2 203.251 302.2 204.051Z" fill="#8C8C8C"/>
<path d="M309.45 204.05C309.45 204.85 308.8 205.5 308 205.5C307.2 205.5 306.55 204.85 306.55 204.05C306.55 203.25 307.2 202.6 308 202.6C308.8 202.6 309.45 203.25 309.45 204.05Z" fill="#8C8C8C"/>
<path d="M111.05 50.3496H62.6504V117.5H111.05V50.3496Z" stroke="#263238" stroke-miterlimit="10" stroke-linecap="round" stroke-linejoin="round"/>
<path d="M109.5 52.5H64.2002V115.35H109.5V52.5Z" stroke="#263238" stroke-miterlimit="10" stroke-linecap="round" stroke-linejoin="round"/>
<path d="M95.0506 72.5H78.6006V95.35H95.0506V72.5Z" stroke="#263238" stroke-miterlimit="10" stroke-linecap="round" stroke-linejoin="round"/>
<path d="M212.65 217.25L266.4 191.75H206.05L51.4004 217.25H212.65Z" fill="#8F8F8F" stroke="#263238" stroke-miterlimit="10" stroke-linecap="round" stroke-linejoin="round"/>
<path d="M224.45 217.25L266.4 194.35V191.75L212.65 217.25H224.45Z" fill="#263238" stroke="#263238" stroke-miterlimit="10" stroke-linecap="round" stroke-linejoin="round"/>
<path d="M251.15 92.95C251.15 92.95 243.7 99.65 243.2 101.95C242.7 104.25 242.45 108.65 240.9 110.2C239.35 111.75 235.75 111.5 235.75 113.3C235.75 115.1 237.55 116.65 237.55 116.65C237.55 116.65 237.55 122.8 238.05 125.4C238.55 127.95 238.55 130.3 240.35 131.05C242.15 131.8 251.15 129.5 254 129.5C256.85 129.5 263 122.55 259.9 109.2C256.8 95.8 251.15 92.95 251.15 92.95Z" fill="white" stroke="#263238" stroke-miterlimit="10" stroke-linecap="round" stroke-linejoin="round"/>
<path d="M244.45 109.4C244.45 109.4 247.3 108.35 248.3 110.7" stroke="#263238" stroke-miterlimit="10" stroke-linecap="round" stroke-linejoin="round"/>
<path d="M245.2 105.05C245.2 105.05 247.5 104.3 248.8 106.85" stroke="#263238" stroke-width="2" stroke-miterlimit="10" stroke-linecap="round" stroke-linejoin="round"/>
<path d="M240.101 119.2C240.101 119.2 241.901 120.25 245.001 119.2" stroke="#263238" stroke-miterlimit="10" stroke-linecap="round" stroke-linejoin="round"/>
<path d="M256 195.301C256 196.051 254.45 205.351 253.7 208.951C253.15 211.601 252.55 215.401 252.3 217.301H296.5C296.9 212.001 293.3 189.151 293.3 177.601C293.3 164.501 291.75 157.051 285.35 149.851C278.9 142.651 267.35 140.351 264 140.351C260.65 140.351 257.85 144.201 257.85 144.201C257.85 144.201 254.25 144.451 251.95 149.601C249.65 154.751 246.05 167.351 245 173.251C243.95 179.151 248.85 184.551 252.2 188.151C255.5 191.701 256 194.501 256 195.301Z" fill="#92E3A9" stroke="#263238" stroke-miterlimit="10" stroke-linecap="round" stroke-linejoin="round"/>
<path d="M248.05 89.3502C248.05 89.3502 255.25 104 255.5 113.5C255.75 123 250.35 129.2 250.35 134.85C250.35 140.5 252.9 142.55 254.7 144.1C256.5 145.65 263.2 141.8 265.5 144.1C267.8 146.4 271.65 163.4 274 167.5C276.3 171.6 281.2 174.7 288.65 174.45C296.1 174.2 299.7 164.15 299.7 160.05C299.7 155.95 294.3 153.35 296.85 147.95C299.4 142.55 303 139.45 299.95 132C296.85 124.55 286.85 124.55 284.25 120.45C281.65 116.35 287.1 102.95 280.4 93.9501C273.75 85.0001 248.3 80.3502 248.05 89.3502Z" fill="#263238" stroke="#263238" stroke-miterlimit="10" stroke-linecap="round" stroke-linejoin="round"/>
<path d="M286.2 169.801C287.5 170.351 288.9 170.501 290.3 170.151" stroke="#919191" stroke-miterlimit="10" stroke-linecap="round" stroke-linejoin="round"/>
<path d="M259.001 128.9C258.201 132.55 257.951 135.45 259.101 137.1C261.951 141.2 268.201 133.95 275.151 138.05C282.051 142.15 280.801 150.3 280.201 158.2C279.851 162.5 281.401 166.05 283.701 168.2" stroke="#919191" stroke-miterlimit="10" stroke-linecap="round" stroke-linejoin="round"/>
<path d="M261.251 119.801C260.851 121.401 260.451 123.001 260.101 124.451" stroke="#919191" stroke-miterlimit="10" stroke-linecap="round" stroke-linejoin="round"/>
<path d="M256.901 92.1006C256.901 92.1006 264.451 96.5006 263.201 109.101C262.951 111.751 262.451 114.351 261.951 116.851" stroke="#919191" stroke-miterlimit="10" stroke-linecap="round" stroke-linejoin="round"/>
<path d="M270.25 97C272.5 100.35 274.3 104.55 273.9 109.15C272.95 119.85 268.55 129.3 272 130.55C275.45 131.8 292.15 133.7 292.45 140.6C292.75 147.5 289 150.65 290.55 156C292.1 161.35 296.85 162.3 296.85 162.3" stroke="#919191" stroke-miterlimit="10" stroke-linecap="round" stroke-linejoin="round"/>
<path d="M263.5 89.6006C263.5 89.6006 264.85 90.6506 266.6 92.4506" stroke="#919191" stroke-miterlimit="10" stroke-linecap="round" stroke-linejoin="round"/>
<path d="M278.601 101.851C278.601 101.851 284.601 110.651 282.051 117.601C279.551 124.501 274.501 127.351 278.301 130.201C282.051 133.051 296.851 128.951 298.751 136.201C300.651 143.451 294.351 145.001 294.051 149.751C293.751 154.451 295.951 157.301 295.951 157.301" stroke="#919191" stroke-miterlimit="10" stroke-linecap="round" stroke-linejoin="round"/>
<path d="M258.2 217.25C260.2 212.9 266.25 199.5 267.35 197.35C268.65 194.8 269.65 185.25 269.65 185.25L256 186L255 194L248.2 217.25H258.2Z" fill="white" stroke="#263238" stroke-miterlimit="10" stroke-linecap="round" stroke-linejoin="round"/>
<path d="M255.4 190.9C257.75 191.25 263.7 191.85 269 190.3C269.4 187.6 269.65 185.25 269.65 185.25L256 186L255.4 190.9Z" fill="#263238" stroke="#263238" stroke-miterlimit="10" stroke-linecap="round" stroke-linejoin="round"/>
<path d="M260.4 145.4C260.4 145.4 253.95 145.15 251.9 151.55C249.85 158 252.95 172.65 252.95 178.3C252.95 183.95 252.2 188.05 252.2 188.05C252.2 188.05 262.25 190.1 272.25 188.05L269.15 162.35" fill="#92E3A9"/>
<path d="M260.4 145.4C260.4 145.4 253.95 145.15 251.9 151.55C249.85 158 252.95 172.65 252.95 178.3C252.95 183.95 252.2 188.05 252.2 188.05C252.2 188.05 262.25 190.1 272.25 188.05L269.15 162.35" stroke="#263238" stroke-miterlimit="10" stroke-linecap="round" stroke-linejoin="round"/>
<path d="M178.751 127.751C178.751 127.751 167.251 132.251 162.251 134.501C157.251 136.751 153.501 140.001 153.501 146.001C153.501 152.001 158.251 177.501 158.251 182.001C158.251 186.501 156.501 200.001 156.501 200.001L200.001 192.801C200.001 192.801 196.551 183.701 204.151 174.651C209.151 168.751 206.351 159.951 206.351 159.951C206.351 159.951 226.751 189.501 230.751 189.251C234.751 189.001 235.751 182.501 234.001 178.251C232.251 174.001 221.401 154.951 219.401 151.701C217.401 148.451 216.251 141.451 210.001 135.701C203.751 129.951 189.751 126.751 189.751 126.751L178.751 127.751Z" fill="#92E3A9" stroke="#263238" stroke-miterlimit="10" stroke-linecap="round" stroke-linejoin="round"/>
<path d="M215.15 193.951C215.15 193.951 218.15 193.601 219.5 193.601C220.85 193.601 224.65 196.751 225.15 197.451C225.65 198.101 225.3 198.601 224.8 198.801C224.3 198.951 222.3 197.651 221.8 197.451C221.3 197.301 218.15 197.101 218.15 197.101" fill="#BABABA"/>
<path d="M215.15 193.951C215.15 193.951 218.15 193.601 219.5 193.601C220.85 193.601 224.65 196.751 225.15 197.451C225.65 198.101 225.3 198.601 224.8 198.801C224.3 198.951 222.3 197.651 221.8 197.451C221.3 197.301 218.15 197.101 218.15 197.101" stroke="#263238" stroke-miterlimit="10" stroke-linecap="round" stroke-linejoin="round"/>
<path d="M160.851 135.851C160.851 135.851 151.201 139.501 148.201 149.501C145.201 159.501 150.551 189.501 150.551 191.851C150.551 194.201 151.901 196.201 151.901 196.201C151.901 196.201 166.901 198.851 179.251 199.201C191.601 199.551 200.601 199.201 200.601 199.201C200.601 199.201 207.101 201.301 218.251 199.451C219.251 199.301 222.251 200.501 222.601 199.201C222.951 197.851 218.751 193.301 215.951 193.651C204.351 195.001 201.001 193.651 201.001 193.651C201.001 193.651 171.001 187.201 168.301 186.201C165.651 185.201 162.951 184.201 162.951 184.201L163.601 160.201" fill="#92E3A9"/>
<path d="M160.851 135.851C160.851 135.851 151.201 139.501 148.201 149.501C145.201 159.501 150.551 189.501 150.551 191.851C150.551 194.201 151.901 196.201 151.901 196.201C151.901 196.201 166.901 198.851 179.251 199.201C191.601 199.551 200.601 199.201 200.601 199.201C200.601 199.201 207.101 201.301 218.251 199.451C219.251 199.301 222.251 200.501 222.601 199.201C222.951 197.851 218.751 193.301 215.951 193.651C204.351 195.001 201.001 193.651 201.001 193.651C201.001 193.651 171.001 187.201 168.301 186.201C165.651 185.201 162.951 184.201 162.951 184.201L163.601 160.201" stroke="#263238" stroke-miterlimit="10" stroke-linecap="round" stroke-linejoin="round"/>
<path d="M215.851 193.6C204.251 194.95 200.901 193.6 200.901 193.6C200.901 193.6 170.901 187.15 168.201 186.15C165.551 185.15 162.851 184.15 162.851 184.15L163.301 167.15C160.801 165 155.851 162.2 147.351 162.7C147.901 175.05 150.501 190.15 150.501 191.75C150.501 194.1 151.851 196.1 151.851 196.1C151.851 196.1 166.851 198.75 179.201 199.1C191.551 199.45 200.551 199.1 200.551 199.1C200.551 199.1 207.051 201.2 218.201 199.35C219.201 199.2 222.201 200.4 222.551 199.1C222.851 197.85 218.651 193.3 215.851 193.6Z" fill="#BABABA" stroke="#263238" stroke-miterlimit="10" stroke-linecap="round" stroke-linejoin="round"/>
<path d="M218.15 194.301C218.15 194.301 222.5 196.651 223.65 197.301C224.8 197.951 226 198.451 224.8 198.801C223.65 199.151 222.15 198.651 221.3 198.301C220.45 197.951 216.65 196.301 216.65 196.301" fill="#BABABA"/>
<path d="M218.15 194.301C218.15 194.301 222.5 196.651 223.65 197.301C224.8 197.951 226 198.451 224.8 198.801C223.65 199.151 222.15 198.651 221.3 198.301C220.45 197.951 216.65 196.301 216.65 196.301" stroke="#263238" stroke-miterlimit="10" stroke-linecap="round" stroke-linejoin="round"/>
<path d="M215.5 195.301C215.5 195.301 217 195.451 218.15 196.301C219.3 197.151 223.65 198.451 223.65 199.151C223.65 199.801 222.15 200.001 221 199.651C219.85 199.301 216.65 198.151 216 198.001C215.35 197.851 214.15 197.651 214.15 197.651" fill="#BABABA"/>
<path d="M215.5 195.301C215.5 195.301 217 195.451 218.15 196.301C219.3 197.151 223.65 198.451 223.65 199.151C223.65 199.801 222.15 200.001 221 199.651C219.85 199.301 216.65 198.151 216 198.001C215.35 197.851 214.15 197.651 214.15 197.651" stroke="#263238" stroke-miterlimit="10" stroke-linecap="round" stroke-linejoin="round"/>
<path d="M213 197.151C213 197.151 215.65 196.951 216.85 197.451C218 197.951 223.35 199.301 222.15 199.801C221 200.301 220.65 200.451 220 200.451C219.35 200.451 215.85 199.301 215.85 199.301C215.85 199.301 213.35 200.151 211.7 199.801" fill="#BABABA"/>
<path d="M213 197.151C213 197.151 215.65 196.951 216.85 197.451C218 197.951 223.35 199.301 222.15 199.801C221 200.301 220.65 200.451 220 200.451C219.35 200.451 215.85 199.301 215.85 199.301C215.85 199.301 213.35 200.151 211.7 199.801" stroke="#263238" stroke-miterlimit="10" stroke-linecap="round" stroke-linejoin="round"/>
<path d="M219.4 151.701C219.25 151.501 219.1 151.201 218.95 150.951C218.35 151.101 217.8 151.251 217.25 151.451C210.7 153.651 208.65 158.501 208.15 162.701C211.8 167.501 227.1 189.451 230.75 189.251C234.75 189.001 235.75 182.501 234 178.251C232.25 174.001 221.4 154.951 219.4 151.701Z" fill="#BABABA" stroke="#263238" stroke-miterlimit="10" stroke-linecap="round" stroke-linejoin="round"/>
<path d="M224.451 183.951C224.451 183.951 222.001 181.351 222.001 177.151C222.001 172.951 223.201 160.601 223.201 156.751C223.201 152.901 221.801 148.901 221.801 148.901C221.801 148.901 223.001 146.101 225.451 145.051C227.901 144.001 229.301 146.801 230.851 153.051C232.401 159.301 235.401 169.401 235.051 177.451C234.701 185.451 235.401 187.201 232.601 188.751" fill="#BABABA"/>
<path d="M224.451 183.951C224.451 183.951 222.001 181.351 222.001 177.151C222.001 172.951 223.201 160.601 223.201 156.751C223.201 152.901 221.801 148.901 221.801 148.901C221.801 148.901 223.001 146.101 225.451 145.051C227.901 144.001 229.301 146.801 230.851 153.051C232.401 159.301 235.401 169.401 235.051 177.451C234.701 185.451 235.401 187.201 232.601 188.751" stroke="#263238" stroke-miterlimit="10" stroke-linecap="round" stroke-linejoin="round"/>
<path d="M227.801 150.501C227.801 150.501 226.251 151.701 223.851 150.651C221.451 149.601 221.701 148.351 221.701 148.351C221.701 148.351 220.301 147.651 219.001 147.201C217.701 146.751 216.501 145.351 216.501 145.351C216.501 145.351 214.201 144.501 212.751 144.001C211.251 143.451 208.651 143.101 208.151 141.401C207.651 139.701 210.451 140.101 211.951 140.651C213.451 141.201 215.451 141.701 216.051 140.601C216.651 139.451 214.451 137.351 214.451 137.351C214.451 137.351 217.501 136.301 219.551 137.151C221.601 138.051 225.801 141.451 226.351 142.101" fill="#BABABA"/>
<path d="M227.801 150.501C227.801 150.501 226.251 151.701 223.851 150.651C221.451 149.601 221.701 148.351 221.701 148.351C221.701 148.351 220.301 147.651 219.001 147.201C217.701 146.751 216.501 145.351 216.501 145.351C216.501 145.351 214.201 144.501 212.751 144.001C211.251 143.451 208.651 143.101 208.151 141.401C207.651 139.701 210.451 140.101 211.951 140.651C213.451 141.201 215.451 141.701 216.051 140.601C216.651 139.451 214.451 137.351 214.451 137.351C214.451 137.351 217.501 136.301 219.551 137.151C221.601 138.051 225.801 141.451 226.351 142.101" stroke="#263238" stroke-miterlimit="10" stroke-linecap="round" stroke-linejoin="round"/>
<path d="M215.101 137.451C215.101 137.451 215.201 134.001 218.401 135.951C221.601 137.851 226.901 140.551 227.351 140.901C227.801 141.251 229.051 143.851 229.351 146.651C229.651 149.451 229.651 149.901 229.651 149.901" fill="#BABABA"/>
<path d="M215.101 137.451C215.101 137.451 215.201 134.001 218.401 135.951C221.601 137.851 226.901 140.551 227.351 140.901C227.801 141.251 229.051 143.851 229.351 146.651C229.651 149.451 229.651 149.901 229.651 149.901" stroke="#263238" stroke-miterlimit="10" stroke-linecap="round" stroke-linejoin="round"/>
<path d="M217.651 135.45C217.651 135.45 215.951 134.45 214.851 135C213.701 135.55 210.551 137.7 210.951 139.2C211.351 140.7 214.401 137.35 215.101 137.4C215.801 137.45 217.351 137.8 217.351 137.8L217.651 135.45Z" fill="#BABABA" stroke="#263238" stroke-miterlimit="10" stroke-linecap="round" stroke-linejoin="round"/>
<path d="M223.051 138C223.051 138 220.601 135 219.301 134.55C218.001 134.1 214.301 138.15 213.851 139.35C213.401 140.55 214.001 140.95 214.651 140.8C215.251 140.65 217.101 138.6 217.101 138.6L218.351 137.7L219.251 138.2L223.051 138Z" fill="#BABABA" stroke="#263238" stroke-miterlimit="10" stroke-linecap="round" stroke-linejoin="round"/>
<path d="M225.101 138.901C225.101 138.901 223.601 136.451 222.601 136.051C221.601 135.701 218.651 137.701 217.601 139.101C216.551 140.451 215.001 141.251 215.851 141.951C216.701 142.651 218.801 140.501 219.701 140.051C220.601 139.601 222.901 139.451 222.901 139.451C222.901 139.451 223.801 140.951 225.101 138.901Z" fill="#BABABA" stroke="#263238" stroke-miterlimit="10" stroke-linecap="round" stroke-linejoin="round"/>
<path d="M228.55 143.25C228.55 143.25 226.75 138.95 225.9 138.25C225.05 137.55 222.05 139.2 221.15 140.2C220.25 141.2 218.2 143.2 219.1 143.9C219.95 144.6 222.4 141.4 222.4 141.4L224 141L225 142.9" fill="#BABABA"/>
<path d="M228.55 143.25C228.55 143.25 226.75 138.95 225.9 138.25C225.05 137.55 222.05 139.2 221.15 140.2C220.25 141.2 218.2 143.2 219.1 143.9C219.95 144.6 222.4 141.4 222.4 141.4L224 141L225 142.9" stroke="#263238" stroke-miterlimit="10" stroke-linecap="round" stroke-linejoin="round"/>
<path d="M184.65 176.851C185.1 176.651 185.6 176.451 186.1 176.251" stroke="#263238" stroke-miterlimit="10" stroke-linecap="round" stroke-linejoin="round"/>
<path d="M173.801 178.601C173.801 178.601 177.201 179.401 183.001 177.451" stroke="#263238" stroke-miterlimit="10" stroke-linecap="round" stroke-linejoin="round"/>
<path d="M205.251 148.401L205.051 153.001L206.351 159.951" stroke="#263238" stroke-miterlimit="10" stroke-linecap="round" stroke-linejoin="round"/>
<path d="M188.301 78.4507C188.301 78.4507 176.801 77.3507 168.201 82.3507C159.601 87.4007 151.901 99.9507 150.951 108.051C150.001 116.151 152.551 114.201 152.551 114.201C152.551 114.201 153.851 118.651 155.101 119.501C156.401 120.351 158.601 118.651 158.601 118.651L162.451 123.951H165.951C165.951 123.951 166.601 124.251 169.151 125.351C171.701 126.451 173.951 125.351 173.951 125.351C173.951 125.351 175.251 126.451 178.101 126.451C180.951 126.451 181.301 125.601 181.301 125.601C181.301 125.601 196.301 127.851 199.851 127.001C203.351 126.151 205.601 124.201 205.601 124.201C205.601 124.201 205.301 125.601 207.851 124.751C210.401 123.901 212.001 120.551 212.001 120.551C212.001 120.551 212.301 123.601 214.551 122.251C216.801 120.851 217.751 115.801 217.751 115.801C217.751 115.801 219.351 117.751 220.601 116.651C221.901 115.551 223.501 103.501 218.351 91.8007C213.201 80.1507 197.551 75.9507 188.301 78.4507Z" fill="#263238" stroke="#263238" stroke-miterlimit="10" stroke-linecap="round" stroke-linejoin="round"/>
<path d="M179.251 122.401C179.251 122.401 180.251 124.601 180.001 127.551C179.751 130.501 177.551 131.751 180.251 135.901C182.951 140.101 187.151 142.551 191.551 140.801C196.001 139.101 196.251 133.401 196.251 131.201C196.251 129.001 196.251 124.551 196.251 124.551L179.251 122.401Z" fill="#BABABA" stroke="#263238" stroke-miterlimit="10" stroke-linecap="round" stroke-linejoin="round"/>
<path d="M196.25 126.802C196.25 126.752 196.25 126.702 196.25 126.652L184.75 123.052L179.3 122.352C179.3 122.352 180.3 124.552 180.05 127.502C179.9 129.402 178.95 130.552 178.95 132.252C180.45 132.802 182.3 133.102 184.55 132.902C193.15 132.252 195.85 127.602 196.25 126.802Z" fill="#263238" stroke="#263238" stroke-miterlimit="10" stroke-linecap="round" stroke-linejoin="round"/>
<path d="M189.201 94.501C189.201 94.501 179.951 102.201 177.901 104.001C175.851 105.801 175.051 106.301 175.051 106.301C175.051 106.301 174.551 112.201 176.101 119.951C176.701 122.851 180.851 126.101 182.901 127.951C190.401 134.801 198.351 127.901 201.001 119.951C202.301 116.101 201.501 103.751 200.501 100.901C199.451 98.101 189.201 94.501 189.201 94.501Z" fill="#BABABA" stroke="#263238" stroke-miterlimit="10" stroke-linecap="round" stroke-linejoin="round"/>
<path d="M189.2 94.501C189.2 94.501 186.15 100.451 183 103.001C179.9 105.551 175.1 109.451 175.85 108.501C176.6 107.551 179.35 105.001 181.55 101.901C183.75 98.801 185.05 96.201 185.05 96.201" fill="#263238"/>
<path d="M189.2 94.501C189.2 94.501 186.15 100.451 183 103.001C179.9 105.551 175.1 109.451 175.85 108.501C176.6 107.551 179.35 105.001 181.55 101.901C183.75 98.801 185.05 96.201 185.05 96.201" stroke="#263238" stroke-miterlimit="10" stroke-linecap="round" stroke-linejoin="round"/>
<path d="M185.5 108.951C185.5 109.801 185.1 110.451 184.6 110.451C184.1 110.451 183.7 109.751 183.7 108.951C183.7 108.151 184.1 107.451 184.6 107.451C185.1 107.451 185.5 108.151 185.5 108.951Z" fill="#263238"/>
<path d="M196.051 108.951C196.051 109.801 195.651 110.451 195.151 110.451C194.651 110.451 194.251 109.751 194.251 108.951C194.251 108.151 194.651 107.451 195.151 107.451C195.651 107.451 196.051 108.151 196.051 108.951Z" fill="#263238"/>
<path d="M192.601 112.001C192.601 112.001 193.501 113.901 192.601 115.051C191.701 116.201 190.301 116.701 189.301 116.051" stroke="#263238" stroke-miterlimit="10" stroke-linecap="round" stroke-linejoin="round"/>
<path d="M185.501 118.901C185.501 118.901 187.001 120.301 190.451 120.301C193.901 120.301 195.301 118.001 195.301 118.001" stroke="#263238" stroke-miterlimit="10" stroke-linecap="round" stroke-linejoin="round"/>
<path d="M180.801 105.65C180.801 105.65 183.351 103.6 186.501 104.15" stroke="#263238" stroke-width="2" stroke-miterlimit="10" stroke-linecap="round" stroke-linejoin="round"/>
<path d="M193 103.751C193 103.751 195.8 103.501 197.45 105.251" stroke="#263238" stroke-width="2" stroke-miterlimit="10" stroke-linecap="round" stroke-linejoin="round"/>
<path d="M172.099 197.95C172.099 197.95 174.949 197.95 176.099 198.65C177.249 199.35 179.399 202.4 179.249 202.8C179.099 203.2 178.799 203.35 178.099 203.25C177.399 203.1 174.949 200.95 174.349 200.55C173.799 200.1 171.499 198.55 171.499 198.55L172.099 197.95Z" fill="white" stroke="#263238" stroke-miterlimit="10" stroke-linecap="round" stroke-linejoin="round"/>
<path d="M108.249 129C108.249 129 115.249 133.5 118.749 140.5C122.249 147.5 126.749 158.75 127.749 160.25C128.749 161.75 134.999 171 134.999 171L157.749 198.5C157.749 198.5 171.749 196.75 173.249 198.25C174.749 199.75 178.249 203.5 177.999 204.75C177.749 206 174.999 205.5 174.249 205.5C173.499 205.5 171.749 205.5 169.249 206C166.749 206.5 164.499 206.25 161.499 206.25C158.499 206.25 157.249 206.25 155.999 206C154.749 205.75 151.499 203.25 151.499 203.25C151.499 203.25 136.249 191.5 132.749 188.75C129.249 186 112.999 172.25 112.999 172.25C112.999 172.25 111.249 148 110.749 144.75C110.249 141.5 105.999 129 105.999 129H108.249Z" fill="white" stroke="#263238" stroke-miterlimit="10" stroke-linecap="round" stroke-linejoin="round"/>
<path d="M134.999 171C134.999 171 128.749 161.75 127.749 160.25C126.749 158.75 122.249 147.5 118.749 140.5C115.249 133.5 108.249 129 108.249 129H105.999C105.999 129 110.249 141.5 110.749 144.75C111.249 148 112.999 172.25 112.999 172.25C112.999 172.25 129.249 186 132.749 188.75C133.199 189.1 133.849 189.6 134.649 190.25C135.149 186.8 136.849 182.1 141.899 179.4L134.999 171Z" fill="#92E3A9" stroke="#263238" stroke-miterlimit="10" stroke-linecap="round" stroke-linejoin="round"/>
<path d="M162.1 201.85C162.1 201.85 162.95 202.3 164.7 203C166.4 203.7 168.45 203.45 169.45 203.85C170.45 204.3 170.9 205.7 168 206.15" stroke="#263238" stroke-miterlimit="10" stroke-linecap="round" stroke-linejoin="round"/>
<path d="M165.249 199.8C165.249 199.8 168.099 199.95 168.699 200.5C169.249 201.05 173.699 204.25 173.299 204.8C172.849 205.35 172.299 205.35 172.299 205.35" stroke="#263238" stroke-miterlimit="10" stroke-linecap="round" stroke-linejoin="round"/>
<path d="M167.949 198.8C167.949 198.8 171.549 198.5 172.949 200.25C174.399 201.95 176.949 204.7 176.699 205.15C176.399 205.6 175.999 205.6 175.999 205.6" stroke="#263238" stroke-miterlimit="10" stroke-linecap="round" stroke-linejoin="round"/>
<path d="M52.2994 217.25L105.349 208.35C105.349 208.35 106.349 204.6 109.349 197C112.349 189.35 117.349 170.2 116.999 158C116.649 145.75 112.049 132.45 108.999 128.75C105.999 125.05 92.6994 122.55 92.6994 122.55C92.6994 122.55 89.8494 122.55 84.3494 125.55C78.8494 128.55 70.8494 136 66.0994 144.35C61.2994 152.7 53.8494 185.5 53.6994 187.8C53.5494 189.9 49.3994 213.15 48.6494 217.3H52.2994V217.25Z" fill="#263238" stroke="#263238" stroke-miterlimit="10" stroke-linecap="round" stroke-linejoin="round"/>
<path d="M110.8 132.05L115.4 126.75C115.4 126.75 122.5 127.3 125.35 127.3C128.2 127.3 130.65 126.95 130.65 123.95C130.65 120.95 129.05 110.65 129.05 110.65C129.05 110.65 132.25 109.95 133.5 108.5C134.75 107.1 132.95 105.3 131.35 103.2C129.75 101.05 128.35 98.7502 128.15 96.3002C127.95 93.8002 123.7 85.6502 123.7 85.6502C123.7 85.6502 124.4 84.4002 122.1 81.7502C119.8 79.1002 107.9 78.5502 100.3 82.3002C92.6496 86.0002 90.8996 91.5002 90.8996 97.5502C90.8996 103.6 94.2496 112.1 94.2496 112.1C94.2496 112.1 91.9496 121.3 91.7496 121.85C91.5496 122.4 89.7996 123.6 89.7996 123.6C89.7996 123.6 101.15 147 103.8 150.75C106.45 154.45 107.15 156.8 107.9 154.1C108.6 151.45 108.8 133.7 108.8 133.7L110.8 132.05Z" fill="white" stroke="#263238" stroke-miterlimit="10" stroke-linecap="round" stroke-linejoin="round"/>
<path d="M125.499 101.05C125.549 102.1 125.299 102.9 124.949 102.95C124.599 102.95 124.299 102.15 124.249 101.1C124.199 100.05 124.449 99.2504 124.799 99.2004C125.149 99.2004 125.449 100.05 125.499 101.05Z" fill="#263238"/>
<path d="M120.55 97.6497C120.55 97.6497 122.15 94.9997 126.25 96.5997" stroke="#263238" stroke-width="2" stroke-miterlimit="10" stroke-linecap="round" stroke-linejoin="round"/>
<path d="M130.649 123.9C130.649 120.9 129.049 110.6 129.049 110.6C129.049 110.6 127.099 109.55 123.349 110.4C119.649 111.3 118.549 117.3 117.849 118.05C117.149 118.75 112.549 114.5 110.749 111.65C108.999 108.8 107.749 103.85 107.549 101C107.349 98.1502 114.099 96.7502 115.199 94.1002C116.249 91.4502 111.299 88.6002 113.049 86.8502C114.799 85.1002 118.349 85.8002 120.149 86.1502C121.899 86.5002 123.699 85.6002 123.699 85.6002C123.699 85.6002 124.399 84.3502 122.099 81.7002C119.799 79.0502 107.899 78.5002 100.299 82.2502C92.6494 85.9502 90.8994 91.4502 90.8994 97.5002C90.8994 102.4 93.0994 108.9 93.9494 111.2C94.6494 111.45 95.7494 111.8 96.1994 111.7C96.8994 111.5 97.4494 109.4 97.7994 107.25C98.1494 105.1 103.299 102.65 103.299 102.65C103.299 102.65 104.199 109.05 104.199 110.3C104.199 111.55 103.499 117.75 106.849 120.75C110.199 123.75 115.349 126.8 115.349 126.8C115.349 126.8 122.449 127.35 125.299 127.35C128.149 127.25 130.649 126.9 130.649 123.9Z" fill="#263238" stroke="#263238" stroke-miterlimit="10" stroke-linecap="round" stroke-linejoin="round"/>
<path d="M104.399 107.05C104.399 107.05 102.999 98.5502 100.499 98.9002C97.9993 99.2502 96.5993 102.45 97.8493 106.55C99.0993 110.65 101.549 110.25 102.999 109.9" fill="white"/>
<path d="M104.399 107.05C104.399 107.05 102.999 98.5502 100.499 98.9002C97.9993 99.2502 96.5993 102.45 97.8493 106.55C99.0993 110.65 101.549 110.25 102.999 109.9" stroke="#263238" stroke-miterlimit="10" stroke-linecap="round" stroke-linejoin="round"/>
<path d="M121.8 113.6C121.8 113.6 123.2 115.35 126.95 115.35" stroke="white" stroke-miterlimit="10" stroke-linecap="round" stroke-linejoin="round"/>
<path d="M167.25 149.751C167.25 149.751 162.25 143.751 160.75 145.251C159.25 146.751 163.25 150.501 163.25 150.501L167.25 149.751Z" fill="white" stroke="#263238" stroke-miterlimit="10" stroke-linecap="round" stroke-linejoin="round"/>
<path d="M168.3 148.4C168.3 148.4 165 140.75 164.25 143C163.5 145.25 165.25 150.25 165.25 150.25L168.3 148.4Z" fill="white" stroke="#263238" stroke-miterlimit="10" stroke-linecap="round" stroke-linejoin="round"/>
<path d="M98.9999 152.501C98.9999 152.501 91.7499 142.751 85.2499 140.501C78.7499 138.251 71.7499 141.501 66.7499 153.501C61.7499 165.501 65.2499 180.001 72.9999 182.001C80.7499 184.001 89.4999 179.251 89.4999 179.251C89.4999 179.251 118.25 205.751 122 206.001C125.75 206.251 138 185.501 141 176.251C144 167.001 147.5 159.751 148.5 158.501C149.5 157.251 157.75 155.751 161.75 155.501C165.75 155.251 168 152.751 168.75 151.251C169.5 149.751 172 143.501 172.25 142.501C172.5 141.501 170.75 141.501 169.75 143.251C168.75 145.001 167 148.001 166.25 148.251C165.5 148.501 155.5 148.501 155.5 148.501L153.5 146.001C153.5 146.001 157.25 144.751 158 143.501C158.75 142.251 159.75 138.751 158 139.751C156.25 140.751 153.5 142.751 153.5 142.751C153.5 142.751 150 143.501 148 146.251C146 149.001 143.25 156.251 143.25 156.251C143.25 156.251 125.25 175.751 124 176.751C122.75 177.751 121.25 179.251 121.25 179.251L98.9999 152.501Z" fill="white" stroke="#263238" stroke-miterlimit="10" stroke-linecap="round" stroke-linejoin="round"/>
<path d="M128.45 172.151C126.15 174.601 124.4 176.451 124 176.751C122.75 177.751 121.25 179.251 121.25 179.251L98.9999 152.501C98.9999 152.501 91.7499 142.751 85.2499 140.501C78.7499 138.251 71.7499 141.501 66.7499 153.501C61.7499 165.501 65.2499 180.001 72.9999 182.001C80.7499 184.001 89.4999 179.251 89.4999 179.251C89.4999 179.251 118.25 205.751 122 206.001C125.25 206.201 134.85 190.701 139.35 180.551L128.45 172.151Z" fill="#92E3A9" stroke="#263238" stroke-miterlimit="10" stroke-linecap="round" stroke-linejoin="round"/>
<path d="M121.25 179.251L114 187.501" stroke="#263238" stroke-miterlimit="10" stroke-linecap="round" stroke-linejoin="round"/>
<path d="M76.9 169.201L74.75 167.501" stroke="#263238" stroke-miterlimit="10" stroke-linecap="round" stroke-linejoin="round"/>
<path d="M89.4998 179.25L79.0498 170.95" stroke="#263238" stroke-miterlimit="10" stroke-linecap="round" stroke-linejoin="round"/>
<path d="M209.651 212H199.951L197.901 194.15H211.701L209.651 212Z" fill="#263238" stroke="#263238" stroke-miterlimit="10" stroke-linecap="round" stroke-linejoin="round"/>
<path d="M212.1 190.9H197.45V194.5H212.1V190.9Z" fill="white" stroke="#263238" stroke-miterlimit="10" stroke-linecap="round" stroke-linejoin="round"/>
<path d="M212.95 192.301H196.65V195.901H212.95V192.301Z" fill="white" stroke="#263238" stroke-miterlimit="10" stroke-linecap="round" stroke-linejoin="round"/>
<path d="M210.35 205.901L211 200.001H198.55L199.25 205.901H210.35Z" fill="white" stroke="#263238" stroke-miterlimit="10" stroke-linecap="round" stroke-linejoin="round"/>
<path d="M149.45 210.4H139.75L137.7 192.55H151.5L149.45 210.4Z" fill="#263238" stroke="#263238" stroke-miterlimit="10" stroke-linecap="round" stroke-linejoin="round"/>
<path d="M151.95 189.349H137.3V192.949H151.95V189.349Z" fill="white" stroke="#263238" stroke-miterlimit="10" stroke-linecap="round" stroke-linejoin="round"/>
<path d="M152.75 190.75H136.45V194.35H152.75V190.75Z" fill="white" stroke="#263238" stroke-miterlimit="10" stroke-linecap="round" stroke-linejoin="round"/>
<path d="M150.15 204.3L150.8 198.45H138.4L139.05 204.3H150.15Z" fill="white" stroke="#263238" stroke-miterlimit="10" stroke-linecap="round" stroke-linejoin="round"/>
<path d="M236.651 197.5H227.501L225.551 180.55H238.651L236.651 197.5Z" fill="#263238" stroke="#263238" stroke-miterlimit="10" stroke-linecap="round" stroke-linejoin="round"/>
<path d="M239.051 177.5H225.151V180.95H239.051V177.5Z" fill="white" stroke="#263238" stroke-miterlimit="10" stroke-linecap="round" stroke-linejoin="round"/>
<path d="M239.801 178.8H224.351V182.25H239.801V178.8Z" fill="white" stroke="#263238" stroke-miterlimit="10" stroke-linecap="round" stroke-linejoin="round"/>
<path d="M237.35 191.699L238 186.099H226.15L226.8 191.699H237.35Z" fill="white" stroke="#263238" stroke-miterlimit="10" stroke-linecap="round" stroke-linejoin="round"/>
<path d="M198 38.5H185.25V29.85C185.25 28.95 186 28.2 186.9 28.2H196.35C197.25 28.2 198 28.95 198 29.85V38.5Z" fill="#263238"/>
<path d="M197.231 49.37C197.967 46.1673 195.967 42.9749 192.764 42.2395C189.561 41.5041 186.369 43.5041 185.634 46.7067C184.898 49.9094 186.898 53.1018 190.101 53.8372C193.304 54.5727 196.496 52.5726 197.231 49.37Z" fill="white" stroke="#ABABAB" stroke-miterlimit="10" stroke-linecap="round"/>
<path d="M216.9 48.35H166.3L185.3 38H197.9L216.9 48.35Z" fill="#263238"/>
<path d="M192.7 4.69995H190.55V29.6H192.7V4.69995Z" fill="#263238"/>
<defs>
<filter id="filter0_d_382_8175" x="17.3398" y="27.0371" width="317.16" height="198.463" filterUnits="userSpaceOnUse" color-interpolation-filters="sRGB">
<feFlood flood-opacity="0" result="BackgroundImageFix"/>
<feColorMatrix in="SourceAlpha" type="matrix" values="0 0 0 0 0 0 0 0 0 0 0 0 0 0 0 0 0 0 127 0" result="hardAlpha"/>
<feOffset dx="4" dy="4"/>
<feGaussianBlur stdDeviation="2"/>
<feComposite in2="hardAlpha" operator="out"/>
<feColorMatrix type="matrix" values="0 0 0 0 0 0 0 0 0 0 0 0 0 0 0 0 0 0 0.25 0"/>
<feBlend mode="normal" in2="BackgroundImageFix" result="effect1_dropShadow_382_8175"/>
<feBlend mode="normal" in="SourceGraphic" in2="effect1_dropShadow_382_8175" result="shape"/>
</filter>
</defs>
</svg>
