<svg width="250" height="250" viewBox="0 0 250 250" fill="none" xmlns="http://www.w3.org/2000/svg">
<g clip-path="url(#clip0_382_8414)">
<path d="M231.385 178.84C248.61 138.055 250.79 80.415 221.1 44.615C204.725 24.87 178.96 18.305 154.365 16.835C132.325 15.52 108.73 16.045 88.705 26.475C54.765 44.155 53.925 86.195 28.5 111C8.00004 131 -0.499965 159.5 17 197C34.5 234.5 67 243 99 231C131 219 145.5 216.5 184 222.5C201.695 225.26 214.535 211.98 222.3 197.675C225.625 191.54 228.68 185.25 231.385 178.84Z" fill="#92E3A9"/>
<g opacity="0.7" filter="url(#filter0_d_382_8414)">
<path d="M231.385 178.84C248.61 138.055 250.79 80.415 221.1 44.615C204.725 24.87 178.96 18.305 154.365 16.835C132.325 15.52 108.73 16.045 88.705 26.475C54.765 44.155 53.925 86.195 28.5 111C8.00004 131 -0.499965 159.5 17 197C34.5 234.5 67 243 99 231C131 219 145.5 216.5 184 222.5C201.695 225.26 214.535 211.98 222.3 197.675C225.625 191.54 228.68 185.25 231.385 178.84Z" fill="white"/>
</g>
<g opacity="0.2">
<path d="M57.5546 17.5947H79.8046V47.0197H51.9446" stroke="black" stroke-miterlimit="10" stroke-linecap="round" stroke-linejoin="round"/>
<path d="M49.035 47.0197H42.26V17.5947H54.645" stroke="black" stroke-miterlimit="10" stroke-linecap="round" stroke-linejoin="round"/>
<path d="M49.215 26.1348H45.095V30.2548H49.215V26.1348Z" stroke="black" stroke-miterlimit="10" stroke-linecap="round" stroke-linejoin="round"/>
<path d="M54.765 26.1348H50.645V30.2548H54.765V26.1348Z" stroke="black" stroke-miterlimit="10" stroke-linecap="round" stroke-linejoin="round"/>
<path d="M60.3146 26.1348H56.1946V30.2548H60.3146V26.1348Z" stroke="black" stroke-miterlimit="10" stroke-linecap="round" stroke-linejoin="round"/>
<path d="M65.8654 26.1348H61.7454V30.2548H65.8654V26.1348Z" stroke="black" stroke-miterlimit="10" stroke-linecap="round" stroke-linejoin="round"/>
<path d="M71.42 26.1348H67.3V30.2548H71.42V26.1348Z" stroke="black" stroke-miterlimit="10" stroke-linecap="round" stroke-linejoin="round"/>
<path d="M76.9699 26.1348H72.8499V30.2548H76.9699V26.1348Z" stroke="black" stroke-miterlimit="10" stroke-linecap="round" stroke-linejoin="round"/>
<path d="M49.215 31.8643H45.095V35.9843H49.215V31.8643Z" stroke="black" stroke-miterlimit="10" stroke-linecap="round" stroke-linejoin="round"/>
<path d="M54.765 31.8643H50.645V35.9843H54.765V31.8643Z" stroke="black" stroke-miterlimit="10" stroke-linecap="round" stroke-linejoin="round"/>
<path d="M60.3146 31.8643H56.1946V35.9843H60.3146V31.8643Z" stroke="black" stroke-miterlimit="10" stroke-linecap="round" stroke-linejoin="round"/>
<path d="M65.8654 31.8643H61.7454V35.9843H65.8654V31.8643Z" stroke="black" stroke-miterlimit="10" stroke-linecap="round" stroke-linejoin="round"/>
<path d="M71.42 31.8643H67.3V35.9843H71.42V31.8643Z" stroke="black" stroke-miterlimit="10" stroke-linecap="round" stroke-linejoin="round"/>
<path d="M76.9699 31.8643H72.8499V35.9843H76.9699V31.8643Z" stroke="black" stroke-miterlimit="10" stroke-linecap="round" stroke-linejoin="round"/>
<path d="M49.215 37.5947H45.095V41.7147H49.215V37.5947Z" stroke="black" stroke-miterlimit="10" stroke-linecap="round" stroke-linejoin="round"/>
<path d="M54.765 37.5947H50.645V41.7147H54.765V37.5947Z" stroke="black" stroke-miterlimit="10" stroke-linecap="round" stroke-linejoin="round"/>
<path d="M60.3146 37.5947H56.1946V41.7147H60.3146V37.5947Z" stroke="black" stroke-miterlimit="10" stroke-linecap="round" stroke-linejoin="round"/>
<path d="M65.8654 37.5947H61.7454V41.7147H65.8654V37.5947Z" stroke="black" stroke-miterlimit="10" stroke-linecap="round" stroke-linejoin="round"/>
<path d="M71.42 37.5947H67.3V41.7147H71.42V37.5947Z" stroke="black" stroke-miterlimit="10" stroke-linecap="round" stroke-linejoin="round"/>
<path d="M76.9699 37.5947H72.8499V41.7147H76.9699V37.5947Z" stroke="black" stroke-miterlimit="10" stroke-linecap="round" stroke-linejoin="round"/>
<path d="M77.1252 21.6543H45.2502V23.0893H77.1252V21.6543Z" stroke="black" stroke-miterlimit="10" stroke-linecap="round" stroke-linejoin="round"/>
</g>
<g opacity="0.2">
<path d="M221.104 51.2246H235.139V80.6546H231.494" stroke="black" stroke-miterlimit="10" stroke-linecap="round" stroke-linejoin="round"/>
<path d="M229 80.6546H197.6V51.2246H217.78" stroke="black" stroke-miterlimit="10" stroke-linecap="round" stroke-linejoin="round"/>
<path d="M204.55 59.7646H200.43V63.8846H204.55V59.7646Z" stroke="black" stroke-miterlimit="10" stroke-linecap="round" stroke-linejoin="round"/>
<path d="M210.104 59.7646H205.984V63.8846H210.104V59.7646Z" stroke="black" stroke-miterlimit="10" stroke-linecap="round" stroke-linejoin="round"/>
<path d="M215.655 59.7646H211.535V63.8846H215.655V59.7646Z" stroke="black" stroke-miterlimit="10" stroke-linecap="round" stroke-linejoin="round"/>
<path d="M221.205 59.7646H217.085V63.8846H221.205V59.7646Z" stroke="black" stroke-miterlimit="10" stroke-linecap="round" stroke-linejoin="round"/>
<path d="M226.755 59.7646H222.635V63.8846H226.755V59.7646Z" stroke="black" stroke-miterlimit="10" stroke-linecap="round" stroke-linejoin="round"/>
<path d="M232.305 59.7646H228.185V63.8846H232.305V59.7646Z" stroke="black" stroke-miterlimit="10" stroke-linecap="round" stroke-linejoin="round"/>
<path d="M204.55 65.4941H200.43V69.6141H204.55V65.4941Z" stroke="black" stroke-miterlimit="10" stroke-linecap="round" stroke-linejoin="round"/>
<path d="M210.104 65.4941H205.984V69.6141H210.104V65.4941Z" stroke="black" stroke-miterlimit="10" stroke-linecap="round" stroke-linejoin="round"/>
<path d="M215.655 65.4941H211.535V69.6141H215.655V65.4941Z" stroke="black" stroke-miterlimit="10" stroke-linecap="round" stroke-linejoin="round"/>
<path d="M221.205 65.4941H217.085V69.6141H221.205V65.4941Z" stroke="black" stroke-miterlimit="10" stroke-linecap="round" stroke-linejoin="round"/>
<path d="M226.755 65.4941H222.635V69.6141H226.755V65.4941Z" stroke="black" stroke-miterlimit="10" stroke-linecap="round" stroke-linejoin="round"/>
<path d="M232.305 65.4941H228.185V69.6141H232.305V65.4941Z" stroke="black" stroke-miterlimit="10" stroke-linecap="round" stroke-linejoin="round"/>
<path d="M204.55 71.2246H200.43V75.3446H204.55V71.2246Z" stroke="black" stroke-miterlimit="10" stroke-linecap="round" stroke-linejoin="round"/>
<path d="M210.104 71.2246H205.984V75.3446H210.104V71.2246Z" stroke="black" stroke-miterlimit="10" stroke-linecap="round" stroke-linejoin="round"/>
<path d="M215.655 71.2246H211.535V75.3446H215.655V71.2246Z" stroke="black" stroke-miterlimit="10" stroke-linecap="round" stroke-linejoin="round"/>
<path d="M221.205 71.2246H217.085V75.3446H221.205V71.2246Z" stroke="black" stroke-miterlimit="10" stroke-linecap="round" stroke-linejoin="round"/>
<path d="M226.755 71.2246H222.635V75.3446H226.755V71.2246Z" stroke="black" stroke-miterlimit="10" stroke-linecap="round" stroke-linejoin="round"/>
<path d="M232.305 71.2246H228.185V75.3446H232.305V71.2246Z" stroke="black" stroke-miterlimit="10" stroke-linecap="round" stroke-linejoin="round"/>
<path d="M232.465 55.29H200.59V56.725H232.465V55.29Z" stroke="black" stroke-miterlimit="10" stroke-linecap="round" stroke-linejoin="round"/>
</g>
<g opacity="0.2">
<path d="M23.7002 98.2847V82.9247C23.7002 81.8697 24.5552 81.0146 25.6102 81.0146H49.5952C50.6502 81.0146 51.5052 81.8697 51.5052 82.9247V105H23.7002V101.61" stroke="black" stroke-miterlimit="10" stroke-linecap="round" stroke-linejoin="round"/>
<path d="M24.0449 86.2295H51.1599" stroke="black" stroke-miterlimit="10" stroke-linecap="round" stroke-linejoin="round"/>
<path d="M30.5405 90.75H26.4805V93.88H48.7255V90.75H34.6955" stroke="black" stroke-miterlimit="10" stroke-linecap="round" stroke-linejoin="round"/>
<path d="M48.7255 97.3545H26.4805V100.484H48.7255V97.3545Z" stroke="black" stroke-miterlimit="10" stroke-linecap="round" stroke-linejoin="round"/>
</g>
<g opacity="0.2">
<path d="M164.51 234H136.7V211.925C136.7 210.87 137.555 210.015 138.61 210.015H162.595C163.65 210.015 164.505 210.87 164.505 211.925V234H164.51Z" stroke="black" stroke-miterlimit="10" stroke-linecap="round" stroke-linejoin="round"/>
<path d="M137.045 215.229H164.16" stroke="black" stroke-miterlimit="10" stroke-linecap="round" stroke-linejoin="round"/>
<path d="M161.725 219.75H139.48V222.88H161.725V219.75Z" stroke="black" stroke-miterlimit="10" stroke-linecap="round" stroke-linejoin="round"/>
<path d="M161.725 226.354H139.48V229.484H161.725V226.354Z" stroke="black" stroke-miterlimit="10" stroke-linecap="round" stroke-linejoin="round"/>
</g>
<g opacity="0.2">
<path d="M143.98 22.8547C141.225 20.3697 137.575 18.8547 133.575 18.8547C125 18.8547 118.045 25.8097 118.045 34.3847C118.045 38.6547 119.77 42.5247 122.56 45.3347" stroke="black" stroke-miterlimit="10" stroke-linecap="round" stroke-linejoin="round"/>
<path d="M124.33 46.8644C126.915 48.7794 130.11 49.9144 133.575 49.9144C142.15 49.9144 149.105 42.9594 149.105 34.3844C149.105 30.4494 147.64 26.8544 145.23 24.1194" stroke="black" stroke-miterlimit="10" stroke-linecap="round" stroke-linejoin="round"/>
<path d="M140.68 34.385H133.575V46.45" stroke="black" stroke-miterlimit="10" stroke-linecap="round" stroke-linejoin="round"/>
</g>
<g opacity="0.2">
<path d="M23.6549 45.13C19.9099 45.705 17.0449 48.945 17.0449 52.85C17.0449 57.165 20.5399 60.66 24.8549 60.66C25.8199 60.66 26.7449 60.485 27.5949 60.165" stroke="black" stroke-miterlimit="10" stroke-linecap="round" stroke-linejoin="round"/>
<path d="M30.1346 58.6047C31.6896 57.1747 32.6646 55.1247 32.6646 52.8497C32.6646 48.8597 29.6696 45.5697 25.8096 45.0997" stroke="black" stroke-miterlimit="10" stroke-linecap="round" stroke-linejoin="round"/>
<path d="M24.8555 48.8693V56.8243" stroke="black" stroke-miterlimit="10"/>
<path d="M28.835 52.8497H20.875" stroke="black" stroke-miterlimit="10"/>
</g>
<g opacity="0.2">
<path d="M235.015 121.515C239.328 121.515 242.825 118.018 242.825 113.705C242.825 109.391 239.328 105.895 235.015 105.895C230.701 105.895 227.205 109.391 227.205 113.705C227.205 118.018 230.701 121.515 235.015 121.515Z" stroke="black" stroke-miterlimit="10" stroke-linecap="round" stroke-linejoin="round"/>
<path d="M235.015 109.725V117.685" stroke="black" stroke-miterlimit="10"/>
<path d="M238.99 113.705H231.035" stroke="black" stroke-miterlimit="10"/>
</g>
<path d="M220.5 218H41L41.21 70.2354C41.21 67.2704 43.61 64.8704 46.575 64.8704H215.345C218.31 64.8704 220.71 67.2704 220.71 70.2354L220.5 218Z" fill="white" stroke="#263238" stroke-miterlimit="10" stroke-linecap="round" stroke-linejoin="round"/>
<path d="M90.36 78.0004H64.875V83.2454H90.36V78.0004Z" stroke="#263238" stroke-miterlimit="10" stroke-linecap="round" stroke-linejoin="round"/>
<path d="M167.62 85.1458H214.095" stroke="#263238" stroke-miterlimit="10" stroke-linecap="round" stroke-linejoin="round"/>
<path d="M51.1748 85.1458H164.91" stroke="#263238" stroke-miterlimit="10" stroke-linecap="round" stroke-linejoin="round"/>
<path d="M215.345 64.8704H46.575C43.61 64.8704 41.21 67.2704 41.21 70.2354V74.3204H220.71V70.2354C220.71 67.2704 218.31 64.8704 215.345 64.8704Z" fill="#263238" stroke="#263238" stroke-miterlimit="10" stroke-linecap="round" stroke-linejoin="round"/>
<path d="M50.99 70.1154C50.99 69.2204 50.265 68.4954 49.37 68.4954C48.475 68.4954 47.75 69.2204 47.75 70.1154C47.75 71.0104 48.475 71.7354 49.37 71.7354C50.265 71.7354 50.99 71.0104 50.99 70.1154Z" fill="white" stroke="#263238" stroke-miterlimit="10" stroke-linecap="round" stroke-linejoin="round"/>
<path d="M57.4646 70.1154C57.4646 69.2204 56.7396 68.4954 55.8446 68.4954C54.9496 68.4954 54.2246 69.2204 54.2246 70.1154C54.2246 71.0104 54.9496 71.7354 55.8446 71.7354C56.7396 71.7354 57.4646 71.0104 57.4646 70.1154Z" fill="white" stroke="#263238" stroke-miterlimit="10" stroke-linecap="round" stroke-linejoin="round"/>
<path d="M62.32 71.7354C63.2147 71.7354 63.9399 71.0101 63.9399 70.1154C63.9399 69.2207 63.2147 68.4954 62.32 68.4954C61.4252 68.4954 60.7 69.2207 60.7 70.1154C60.7 71.0101 61.4252 71.7354 62.32 71.7354Z" fill="white" stroke="#263238" stroke-miterlimit="10" stroke-linecap="round" stroke-linejoin="round"/>
<path d="M51.5703 78.3108H59.2503" stroke="#263238" stroke-miterlimit="10" stroke-linecap="round" stroke-linejoin="round"/>
<path d="M51.5703 80.3762H59.2503" stroke="#263238" stroke-miterlimit="10" stroke-linecap="round" stroke-linejoin="round"/>
<path d="M51.5703 82.4358H59.2503" stroke="#263238" stroke-miterlimit="10" stroke-linecap="round" stroke-linejoin="round"/>
<path d="M52.9898 96.5303V89.9103H51.6348V89.1653H55.1698V89.9103H53.8148V96.5303H52.9898Z" fill="#263238"/>
<path d="M56.1699 95.0453L55.8849 96.5303H55.1299L56.5399 89.1653H57.7299L59.1399 96.5303H58.3199L58.0349 95.0453H56.1699ZM56.2749 94.3403H57.9149L57.0849 90.0903L56.2749 94.3403Z" fill="#263238"/>
<path d="M62.965 90.93V91.13H62.185V90.89C62.185 90.225 61.935 89.84 61.345 89.84C60.755 89.84 60.505 90.23 60.505 90.88C60.505 92.53 62.975 92.69 62.975 94.76C62.975 95.875 62.44 96.6 61.315 96.6C60.19 96.6 59.665 95.875 59.665 94.76V94.34H60.435V94.805C60.435 95.47 60.71 95.855 61.3 95.855C61.89 95.855 62.16 95.465 62.16 94.805C62.16 93.165 59.7 93.005 59.7 90.935C59.7 89.8 60.225 89.095 61.33 89.095C62.44 89.09 62.965 89.815 62.965 90.93Z" fill="#263238"/>
<path d="M64.9443 93.3303L64.5143 94.0553V96.5303H63.6943V89.1653H64.5143V92.7203L66.4693 89.1653H67.2993L65.4393 92.5203L67.3643 96.5303H66.5243L64.9443 93.3303Z" fill="#263238"/>
<path d="M71.1301 90.93V91.13H70.3501V90.89C70.3501 90.225 70.1001 89.84 69.5101 89.84C68.9201 89.84 68.6701 90.23 68.6701 90.88C68.6701 92.53 71.1401 92.69 71.1401 94.76C71.1401 95.875 70.6051 96.6 69.4801 96.6C68.3551 96.6 67.8301 95.875 67.8301 94.76V94.34H68.6001V94.805C68.6001 95.47 68.8751 95.855 69.4651 95.855C70.0551 95.855 70.3251 95.465 70.3251 94.805C70.3251 93.165 67.8651 93.005 67.8651 90.935C67.8651 89.8 68.3901 89.095 69.4951 89.095C70.6051 89.09 71.1301 89.815 71.1301 90.93Z" fill="#263238"/>
<path d="M164.255 137.875H51.3V168.055H164.255V137.875Z" fill="white" stroke="#263238" stroke-miterlimit="10" stroke-linecap="round" stroke-linejoin="round"/>
<path d="M138.34 145.75C138.835 145.75 139.045 146.04 139.045 146.52V146.9C139.045 147.4 138.81 147.66 138.31 147.66H138V148.9H137.65V145.75H138.34ZM138.31 147.34C138.57 147.34 138.695 147.22 138.695 146.915V146.5C138.695 146.21 138.59 146.07 138.335 146.07H138V147.345H138.31V147.34Z" fill="#263238"/>
<path d="M140.02 145.75C140.515 145.75 140.72 146 140.72 146.47V146.725C140.72 147.07 140.6 147.285 140.33 147.375C140.62 147.46 140.725 147.695 140.725 148.03V148.52C140.725 148.66 140.73 148.79 140.79 148.9H140.435C140.395 148.81 140.375 148.73 140.375 148.515V148.02C140.375 147.665 140.21 147.55 139.915 147.55H139.665V148.895H139.315V145.745H140.02V145.75ZM139.935 147.235C140.215 147.235 140.38 147.145 140.38 146.805V146.5C140.38 146.215 140.275 146.07 140.015 146.07H139.675V147.235H139.935Z" fill="#263238"/>
<path d="M141.065 146.51C141.065 146.03 141.305 145.72 141.785 145.72C142.27 145.72 142.51 146.03 142.51 146.51V148.14C142.51 148.615 142.27 148.93 141.785 148.93C141.305 148.93 141.065 148.615 141.065 148.14V146.51ZM141.415 148.155C141.415 148.445 141.535 148.61 141.79 148.61C142.045 148.61 142.165 148.445 142.165 148.155V146.49C142.165 146.205 142.05 146.035 141.79 146.035C141.54 146.035 141.415 146.205 141.415 146.49V148.155Z" fill="#263238"/>
<path d="M144.235 146.51V146.78H143.9V146.49C143.9 146.205 143.79 146.035 143.53 146.035C143.28 146.035 143.16 146.205 143.16 146.49V148.155C143.16 148.44 143.275 148.61 143.53 148.61C143.785 148.61 143.9 148.44 143.9 148.155V147.525H143.575V147.21H144.23V148.135C144.23 148.61 144.005 148.925 143.52 148.925C143.04 148.925 142.815 148.61 142.815 148.135V146.505C142.815 146.03 143.04 145.715 143.52 145.715C144.01 145.715 144.235 146.03 144.235 146.51Z" fill="#263238"/>
<path d="M145.27 145.75C145.765 145.75 145.97 146 145.97 146.47V146.725C145.97 147.07 145.85 147.285 145.58 147.375C145.87 147.46 145.975 147.695 145.975 148.03V148.52C145.975 148.66 145.98 148.79 146.04 148.9H145.685C145.645 148.81 145.625 148.73 145.625 148.515V148.02C145.625 147.665 145.46 147.55 145.165 147.55H144.915V148.895H144.565V145.745H145.27V145.75ZM145.18 147.235C145.46 147.235 145.625 147.145 145.625 146.805V146.5C145.625 146.215 145.52 146.07 145.26 146.07H144.92V147.235H145.18Z" fill="#263238"/>
<path d="M147.46 147.145V147.46H146.69V148.58H147.635V148.9H146.34V145.75H147.635V146.07H146.69V147.145H147.46Z" fill="#263238"/>
<path d="M149.324 146.505V146.59H148.989V146.485C148.989 146.2 148.879 146.035 148.629 146.035C148.379 146.035 148.269 146.2 148.269 146.48C148.269 147.185 149.329 147.255 149.329 148.14C149.329 148.615 149.099 148.93 148.619 148.93C148.139 148.93 147.914 148.62 147.914 148.14V147.96H148.244V148.16C148.244 148.445 148.359 148.61 148.614 148.61C148.864 148.61 148.984 148.445 148.984 148.16C148.984 147.46 147.929 147.39 147.929 146.505C147.929 146.02 148.154 145.715 148.629 145.715C149.099 145.715 149.324 146.025 149.324 146.505Z" fill="#263238"/>
<path d="M151 146.505V146.59H150.665V146.485C150.665 146.2 150.555 146.035 150.305 146.035C150.055 146.035 149.945 146.2 149.945 146.48C149.945 147.185 151.005 147.255 151.005 148.14C151.005 148.615 150.775 148.93 150.295 148.93C149.815 148.93 149.59 148.62 149.59 148.14V147.96H149.92V148.16C149.92 148.445 150.035 148.61 150.29 148.61C150.54 148.61 150.66 148.445 150.66 148.16C150.66 147.46 149.605 147.39 149.605 146.505C149.605 146.02 149.83 145.715 150.305 145.715C150.775 145.715 151 146.025 151 146.505Z" fill="#263238"/>
<path d="M115.765 145.75C116.255 145.75 116.48 146.045 116.48 146.535V148.125C116.48 148.605 116.255 148.905 115.765 148.905H115.025V145.755H115.765V145.75ZM115.76 148.58C116.01 148.58 116.135 148.42 116.135 148.135V146.515C116.135 146.225 116.015 146.07 115.755 146.07H115.375V148.58H115.76Z" fill="#263238"/>
<path d="M117.93 147.145V147.46H117.16V148.58H118.105V148.9H116.81V145.75H118.105V146.07H117.16V147.145H117.93Z" fill="#263238"/>
<path d="M118.785 148.265L118.665 148.9H118.34L118.945 145.75H119.455L120.06 148.9H119.71L119.59 148.265H118.785ZM118.83 147.96H119.53L119.175 146.14L118.83 147.96Z" fill="#263238"/>
<path d="M121.065 145.75C121.555 145.75 121.78 146.045 121.78 146.535V148.125C121.78 148.605 121.555 148.905 121.065 148.905H120.325V145.755H121.065V145.75ZM121.06 148.58C121.31 148.58 121.435 148.42 121.435 148.135V146.515C121.435 146.225 121.315 146.07 121.055 146.07H120.675V148.58H121.06Z" fill="#263238"/>
<path d="M122.11 148.9V145.75H122.46V148.58H123.36V148.9H122.11Z" fill="#263238"/>
<path d="M123.974 145.75V148.9H123.624V145.75H123.974Z" fill="#263238"/>
<path d="M124.644 148.9H124.329V145.75H124.774L125.504 148.03V145.75H125.814V148.9H125.449L124.644 146.35V148.9Z" fill="#263238"/>
<path d="M127.3 147.145V147.46H126.53V148.58H127.475V148.9H126.18V145.75H127.475V146.07H126.53V147.145H127.3Z" fill="#263238"/>
<path d="M95.0547 149.35H101.635" stroke="#263238" stroke-miterlimit="10" stroke-linecap="round" stroke-linejoin="round"/>
<path d="M75.3245 149.35H92.6895" stroke="#263238" stroke-miterlimit="10" stroke-linecap="round" stroke-linejoin="round"/>
<path d="M56.8948 149.35H72.6948" stroke="#263238" stroke-miterlimit="10" stroke-linecap="round" stroke-linejoin="round"/>
<path d="M85.3245 156.83H90.3495" stroke="#263238" stroke-miterlimit="10" stroke-linecap="round" stroke-linejoin="round"/>
<path d="M72.4299 156.83H81.1149" stroke="#263238" stroke-miterlimit="10" stroke-linecap="round" stroke-linejoin="round"/>
<path d="M66.1194 156.83H69.7994" stroke="#263238" stroke-miterlimit="10" stroke-linecap="round" stroke-linejoin="round"/>
<path d="M56.8948 156.83H64.0148" stroke="#263238" stroke-miterlimit="10" stroke-linecap="round" stroke-linejoin="round"/>
<path d="M160.07 155.435C160.07 156.085 159.805 156.675 159.38 157.1C158.95 157.53 158.36 157.795 157.71 157.795H132.935C131.63 157.795 130.57 156.735 130.57 155.435C130.57 154.78 130.835 154.19 131.265 153.765C131.69 153.335 132.28 153.07 132.935 153.07H157.71C159.015 153.07 160.07 154.13 160.07 155.435Z" fill="white" stroke="#263238" stroke-miterlimit="10" stroke-linecap="round" stroke-linejoin="round"/>
<path d="M152.685 153.07V157.795H132.935C131.63 157.795 130.57 156.735 130.57 155.435C130.57 154.78 130.835 154.19 131.265 153.765C131.69 153.335 132.28 153.07 132.935 153.07H152.685Z" fill="#92E3A9" stroke="#263238" stroke-miterlimit="10" stroke-linecap="round" stroke-linejoin="round"/>
<path d="M125.875 157.795H116.1C114.795 157.795 113.74 156.735 113.74 155.435C113.74 154.13 114.8 153.075 116.1 153.075H125.875C127.18 153.075 128.235 154.135 128.235 155.435C128.24 156.735 127.18 157.795 125.875 157.795Z" fill="white" stroke="#263238" stroke-miterlimit="10" stroke-linecap="round" stroke-linejoin="round"/>
<path d="M164.255 176.38H51.3V206.56H164.255V176.38Z" fill="white" stroke="#263238" stroke-miterlimit="10" stroke-linecap="round" stroke-linejoin="round"/>
<path d="M138.34 184.89C138.835 184.89 139.045 185.18 139.045 185.66V186.04C139.045 186.54 138.81 186.8 138.31 186.8H138V188.04H137.65V184.89H138.34ZM138.31 186.485C138.57 186.485 138.695 186.365 138.695 186.06V185.64C138.695 185.35 138.59 185.21 138.335 185.21H138V186.485H138.31Z" fill="#263238"/>
<path d="M140.02 184.89C140.515 184.89 140.72 185.14 140.72 185.61V185.865C140.72 186.21 140.6 186.425 140.33 186.515C140.62 186.6 140.725 186.835 140.725 187.17V187.66C140.725 187.8 140.73 187.93 140.79 188.04H140.435C140.395 187.95 140.375 187.87 140.375 187.655V187.16C140.375 186.805 140.21 186.69 139.915 186.69H139.665V188.035H139.315V184.885H140.02V184.89ZM139.935 186.375C140.215 186.375 140.38 186.285 140.38 185.945V185.645C140.38 185.36 140.275 185.215 140.015 185.215H139.675V186.38H139.935V186.375Z" fill="#263238"/>
<path d="M141.065 185.65C141.065 185.17 141.305 184.86 141.785 184.86C142.27 184.86 142.51 185.17 142.51 185.65V187.28C142.51 187.755 142.27 188.07 141.785 188.07C141.305 188.07 141.065 187.755 141.065 187.28V185.65ZM141.415 187.3C141.415 187.59 141.535 187.755 141.79 187.755C142.045 187.755 142.165 187.59 142.165 187.3V185.635C142.165 185.35 142.05 185.18 141.79 185.18C141.54 185.18 141.415 185.35 141.415 185.635V187.3Z" fill="#263238"/>
<path d="M144.235 185.65V185.92H143.9V185.63C143.9 185.345 143.79 185.175 143.53 185.175C143.28 185.175 143.16 185.345 143.16 185.63V187.295C143.16 187.58 143.275 187.75 143.53 187.75C143.785 187.75 143.9 187.58 143.9 187.295V186.665H143.575V186.35H144.23V187.275C144.23 187.75 144.005 188.065 143.52 188.065C143.04 188.065 142.815 187.75 142.815 187.275V185.645C142.815 185.17 143.04 184.855 143.52 184.855C144.01 184.86 144.235 185.175 144.235 185.65Z" fill="#263238"/>
<path d="M145.27 184.89C145.765 184.89 145.97 185.14 145.97 185.61V185.865C145.97 186.21 145.85 186.425 145.58 186.515C145.87 186.6 145.975 186.835 145.975 187.17V187.66C145.975 187.8 145.98 187.93 146.04 188.04H145.685C145.645 187.95 145.625 187.87 145.625 187.655V187.16C145.625 186.805 145.46 186.69 145.165 186.69H144.915V188.035H144.565V184.885H145.27V184.89ZM145.18 186.375C145.46 186.375 145.625 186.285 145.625 185.945V185.645C145.625 185.36 145.52 185.215 145.26 185.215H144.92V186.38H145.18V186.375Z" fill="#263238"/>
<path d="M147.46 186.285V186.6H146.69V187.72H147.635V188.04H146.34V184.89H147.635V185.21H146.69V186.285H147.46Z" fill="#263238"/>
<path d="M149.324 185.645V185.73H148.989V185.625C148.989 185.34 148.879 185.175 148.629 185.175C148.379 185.175 148.269 185.34 148.269 185.62C148.269 186.325 149.329 186.395 149.329 187.28C149.329 187.755 149.099 188.07 148.619 188.07C148.139 188.07 147.914 187.76 147.914 187.28V187.1H148.244V187.3C148.244 187.585 148.359 187.75 148.614 187.75C148.864 187.75 148.984 187.585 148.984 187.3C148.984 186.6 147.929 186.53 147.929 185.645C147.929 185.16 148.154 184.855 148.629 184.855C149.099 184.86 149.324 185.17 149.324 185.645Z" fill="#263238"/>
<path d="M151 185.645V185.73H150.665V185.625C150.665 185.34 150.555 185.175 150.305 185.175C150.055 185.175 149.945 185.34 149.945 185.62C149.945 186.325 151.005 186.395 151.005 187.28C151.005 187.755 150.775 188.07 150.295 188.07C149.815 188.07 149.59 187.76 149.59 187.28V187.1H149.92V187.3C149.92 187.585 150.035 187.75 150.29 187.75C150.54 187.75 150.66 187.585 150.66 187.3C150.66 186.6 149.605 186.53 149.605 185.645C149.605 185.16 149.83 184.855 150.305 184.855C150.775 184.86 151 185.17 151 185.645Z" fill="#263238"/>
<path d="M115.765 184.89C116.255 184.89 116.48 185.185 116.48 185.675V187.265C116.48 187.745 116.255 188.045 115.765 188.045H115.025V184.895H115.765V184.89ZM115.76 187.72C116.01 187.72 116.135 187.56 116.135 187.275V185.655C116.135 185.365 116.015 185.21 115.755 185.21H115.375V187.72H115.76Z" fill="#263238"/>
<path d="M117.93 186.285V186.6H117.16V187.72H118.105V188.04H116.81V184.89H118.105V185.21H117.16V186.285H117.93Z" fill="#263238"/>
<path d="M118.785 187.405L118.665 188.04H118.34L118.945 184.89H119.455L120.06 188.04H119.71L119.59 187.405H118.785ZM118.83 187.105H119.53L119.175 185.285L118.83 187.105Z" fill="#263238"/>
<path d="M121.065 184.89C121.555 184.89 121.78 185.185 121.78 185.675V187.265C121.78 187.745 121.555 188.045 121.065 188.045H120.325V184.895H121.065V184.89ZM121.06 187.72C121.31 187.72 121.435 187.56 121.435 187.275V185.655C121.435 185.365 121.315 185.21 121.055 185.21H120.675V187.72H121.06Z" fill="#263238"/>
<path d="M122.11 188.04V184.89H122.46V187.72H123.36V188.04H122.11Z" fill="#263238"/>
<path d="M123.974 184.89V188.04H123.624V184.89H123.974Z" fill="#263238"/>
<path d="M124.644 188.04H124.329V184.89H124.774L125.504 187.17V184.89H125.814V188.04H125.449L124.644 185.49V188.04Z" fill="#263238"/>
<path d="M127.3 186.285V186.6H126.53V187.72H127.475V188.04H126.18V184.89H127.475V185.21H126.53V186.285H127.3Z" fill="#263238"/>
<path d="M95.0547 188.49H101.635" stroke="#263238" stroke-miterlimit="10" stroke-linecap="round" stroke-linejoin="round"/>
<path d="M75.3245 188.49H92.6895" stroke="#263238" stroke-miterlimit="10" stroke-linecap="round" stroke-linejoin="round"/>
<path d="M56.8948 188.49H72.6948" stroke="#263238" stroke-miterlimit="10" stroke-linecap="round" stroke-linejoin="round"/>
<path d="M85.3245 195.975H90.3495" stroke="#263238" stroke-miterlimit="10" stroke-linecap="round" stroke-linejoin="round"/>
<path d="M72.4299 195.975H81.1149" stroke="#263238" stroke-miterlimit="10" stroke-linecap="round" stroke-linejoin="round"/>
<path d="M66.1194 195.975H69.7994" stroke="#263238" stroke-miterlimit="10" stroke-linecap="round" stroke-linejoin="round"/>
<path d="M56.8948 195.975H64.0148" stroke="#263238" stroke-miterlimit="10" stroke-linecap="round" stroke-linejoin="round"/>
<path d="M160.07 194.574C160.07 195.229 159.805 195.819 159.38 196.244C158.95 196.669 158.36 196.934 157.71 196.934H132.935C131.63 196.934 130.57 195.879 130.57 194.574C130.57 193.919 130.835 193.329 131.265 192.904C131.69 192.479 132.28 192.214 132.935 192.214H157.71C159.015 192.214 160.07 193.269 160.07 194.574Z" fill="white" stroke="#263238" stroke-miterlimit="10" stroke-linecap="round" stroke-linejoin="round"/>
<path d="M135.29 192.214V196.934H132.935C131.63 196.934 130.57 195.879 130.57 194.574C130.57 193.919 130.835 193.329 131.265 192.904C131.69 192.479 132.28 192.214 132.935 192.214H135.29Z" fill="#92E3A9" stroke="#263238" stroke-miterlimit="10" stroke-linecap="round" stroke-linejoin="round"/>
<path d="M125.875 196.934H116.1C114.795 196.934 113.74 195.874 113.74 194.574C113.74 193.269 114.8 192.214 116.1 192.214H125.875C127.18 192.214 128.235 193.274 128.235 194.574C128.24 195.879 127.18 196.934 125.875 196.934Z" fill="white" stroke="#263238" stroke-miterlimit="10" stroke-linecap="round" stroke-linejoin="round"/>
<path d="M213.21 115.275H173.7C172.395 115.275 171.34 114.215 171.34 112.915V101.75C171.34 100.445 172.4 99.3899 173.7 99.3899H213.21C214.515 99.3899 215.57 100.45 215.57 101.75V112.915C215.57 114.215 214.515 115.275 213.21 115.275Z" fill="#92E3A9" stroke="#263238" stroke-miterlimit="10" stroke-linecap="round" stroke-linejoin="round"/>
<path d="M179.81 109.88L179.525 111.365H178.77L180.18 104H181.37L182.78 111.365H181.96L181.675 109.88H179.81ZM179.92 109.175H181.56L180.73 104.925L179.92 109.175Z" fill="white"/>
<path d="M185.145 104C186.29 104 186.82 104.695 186.82 105.83V109.545C186.82 110.67 186.295 111.365 185.145 111.365H183.42V104H185.145ZM185.135 110.62C185.725 110.62 186.01 110.25 186.01 109.58V105.79C186.01 105.115 185.725 104.75 185.125 104.75H184.24V110.62H185.135Z" fill="white"/>
<path d="M189.315 104C190.46 104 190.99 104.695 190.99 105.83V109.545C190.99 110.67 190.465 111.365 189.315 111.365H187.59V104H189.315ZM189.305 110.62C189.895 110.62 190.18 110.25 190.18 109.58V105.79C190.18 105.115 189.895 104.75 189.295 104.75H188.41V110.62H189.305Z" fill="white"/>
<path d="M194.46 111.365V104.75H193.104V104H196.639V104.745H195.285V111.365H194.46Z" fill="white"/>
<path d="M197.635 109.88L197.35 111.365H196.595L198.005 104H199.195L200.605 111.365H199.785L199.5 109.88H197.635ZM197.74 109.175H199.38L198.55 104.925L197.74 109.175Z" fill="white"/>
<path d="M204.435 105.77V105.97H203.655V105.73C203.655 105.065 203.405 104.68 202.815 104.68C202.225 104.68 201.975 105.07 201.975 105.72C201.975 107.37 204.445 107.53 204.445 109.6C204.445 110.715 203.91 111.44 202.785 111.44C201.66 111.44 201.135 110.715 201.135 109.6V109.18H201.905V109.645C201.905 110.31 202.18 110.695 202.77 110.695C203.36 110.695 203.63 110.305 203.63 109.645C203.63 108.005 201.17 107.845 201.17 105.775C201.17 104.64 201.695 103.935 202.8 103.935C203.905 103.925 204.435 104.655 204.435 105.77Z" fill="white"/>
<path d="M206.409 108.17L205.979 108.895V111.37H205.159V104H205.979V107.555L207.934 104H208.764L206.904 107.355L208.829 111.365H207.989L206.409 108.17Z" fill="white"/>
<path d="M177.655 36.0599C177.655 36.0599 171.845 38.6149 168.82 39.4299C165.8 40.2449 162.545 41.5199 161.73 44.0799C160.915 46.6349 157.285 56.4649 157.055 58.5599C156.825 60.6499 160.57 64.4249 160.57 64.4249H208.93C208.93 64.4249 209.825 52.1899 207.85 48.0049C205.875 43.8199 199.86 40.2449 198.12 39.5499C196.375 38.8549 191.84 36.6449 189.985 36.2949C188.12 35.9449 179.75 35.2449 177.655 36.0599Z" fill="white" stroke="#263238" stroke-miterlimit="10" stroke-linecap="round" stroke-linejoin="round"/>
<path d="M161.625 52.9999C161.625 52.9999 164.455 51.9999 167.125 53.9999L161.625 52.9999Z" fill="white"/>
<path d="M161.625 52.9999C161.625 52.9999 164.455 51.9999 167.125 53.9999" stroke="#263238" stroke-miterlimit="10" stroke-linecap="round" stroke-linejoin="round"/>
<path d="M165.5 53.9999C165.5 53.9999 167.125 53.9999 168.5 55.2499L165.5 53.9999Z" fill="white"/>
<path d="M165.5 53.9999C165.5 53.9999 167.125 53.9999 168.5 55.2499" stroke="#263238" stroke-miterlimit="10" stroke-linecap="round" stroke-linejoin="round"/>
<path d="M170.44 48.415C170.835 49.075 171.115 49.935 171.02 50.995C170.77 53.895 169.795 55.995 169.795 55.995" stroke="#263238" stroke-miterlimit="10" stroke-linecap="round" stroke-linejoin="round"/>
<path d="M168.75 46.7246C168.75 46.7246 169.37 47.0646 169.965 47.7546" stroke="#263238" stroke-miterlimit="10" stroke-linecap="round" stroke-linejoin="round"/>
<path d="M171.715 48.2747C171.715 48.2747 172.645 51.0897 172.12 53.3647" stroke="#263238" stroke-miterlimit="10" stroke-linecap="round" stroke-linejoin="round"/>
<path d="M196.835 50.0096C196.835 50.0096 195.67 54.0796 195.79 55.3546" stroke="#263238" stroke-miterlimit="10" stroke-linecap="round" stroke-linejoin="round"/>
<path d="M178.345 46.0345L180.48 49.8795L182.295 55.7445L184.855 50.4095L187.31 46.1445L182.505 45.3945L178.345 46.0345Z" fill="#92E3A9" stroke="#263238" stroke-miterlimit="10" stroke-linecap="round" stroke-linejoin="round"/>
<path d="M180.479 49.8799L184.854 50.4099" stroke="#263238" stroke-miterlimit="10" stroke-linecap="round" stroke-linejoin="round"/>
<path d="M178.121 39.1994C178.121 39.1994 177.306 40.2444 176.841 41.6394C176.376 43.0344 175.561 47.7994 175.561 47.7994C175.561 47.7994 180.096 47.5694 181.256 47.5694C182.416 47.5694 184.276 47.6844 184.626 47.6844C184.976 47.6844 190.206 50.8244 190.206 50.8244C190.206 50.8244 191.136 45.4794 190.091 42.4544C189.051 39.4294 181.956 35.8294 178.121 39.1994Z" fill="white" stroke="#263238" stroke-miterlimit="10" stroke-linecap="round" stroke-linejoin="round"/>
<path d="M180.561 45.7953L182.401 49.6653L186.141 45.4453C186.141 45.4453 182.656 46.4903 180.561 45.7953Z" fill="white" stroke="#263238" stroke-miterlimit="10" stroke-linecap="round" stroke-linejoin="round"/>
<path d="M196.15 89.4346L194.36 92.7546C194.36 92.7546 192.14 93.2146 191.905 93.6796C191.675 94.1446 190.51 96.1196 189.93 96.6996C189.35 97.2796 188.185 98.0946 189.235 98.5596C190.28 99.0246 192.14 96.9296 192.14 96.9296L193.185 96.3496C193.185 96.3496 193.34 97.6696 192.845 99.0946C192.16 101.06 191.37 103.45 191.475 103.7C191.99 104.95 192.8 104.065 192.8 104.065L194.36 100.42L194.635 100.245C194.635 100.245 194.32 104.41 194.32 104.43C194.26 105.195 194.935 106.085 195.525 105.305L196.92 100.89V104.865C196.92 105.475 197.485 105.985 198.075 105.82C198.12 105.81 198.16 105.795 198.2 105.775C198.665 105.54 198.825 100.695 198.825 100.695L199.795 104.205C199.9 104.585 200.31 104.83 200.675 104.68C200.77 104.64 200.84 104.585 200.87 104.495C200.985 104.145 200.64 98.5646 200.64 98.5646L200.41 92.7546L200.76 90.7796L196.15 89.4346Z" fill="white" stroke="#263238" stroke-miterlimit="10" stroke-linecap="round" stroke-linejoin="round"/>
<path d="M198.351 50.475C198.351 50.475 196.491 54.425 196.721 55.82C196.951 57.215 202.371 70.55 202.371 70.55L195.636 89.96L200.981 91.24C200.981 91.24 210.116 77.66 211.086 74.74C211.901 72.29 211.781 70.325 211.781 69.625C211.781 68.925 209.621 53.035 208.341 50.245C207.061 47.455 205.436 45.71 205.436 45.71" fill="white"/>
<path d="M198.351 50.475C198.351 50.475 196.491 54.425 196.721 55.82C196.951 57.215 202.371 70.55 202.371 70.55L195.636 89.96L200.981 91.24C200.981 91.24 210.116 77.66 211.086 74.74C211.901 72.29 211.781 70.325 211.781 69.625C211.781 68.925 209.621 53.035 208.341 50.245C207.061 47.455 205.436 45.71 205.436 45.71" stroke="#263238" stroke-miterlimit="10" stroke-linecap="round" stroke-linejoin="round"/>
<path d="M203.186 70.09C203.186 70.09 205.276 67.185 206.556 65.325" stroke="#263238" stroke-miterlimit="10" stroke-linecap="round" stroke-linejoin="round"/>
<path d="M206.205 64.2754L203.65 67.5304" stroke="#263238" stroke-miterlimit="10" stroke-linecap="round" stroke-linejoin="round"/>
<path d="M196.101 88.0996L201.796 89.4946" stroke="#263238" stroke-miterlimit="10" stroke-linecap="round" stroke-linejoin="round"/>
<path d="M158.865 55.2553C158.475 55.5903 157.95 56.1103 157.425 56.8703C156.38 58.3803 156.96 61.6353 157.66 62.6803C158.355 63.7253 161.145 64.4253 161.145 64.4253H183.72L184.175 60.6103C183.695 60.6003 183.355 60.5903 183.355 60.5903C183.355 60.5903 179.285 59.3103 176.38 58.5003C173.475 57.6853 167.755 55.2703 166.035 54.8953C164.445 54.5503 163.015 54.6103 162.03 54.7403" fill="white"/>
<path d="M158.865 55.2553C158.475 55.5903 157.95 56.1103 157.425 56.8703C156.38 58.3803 156.96 61.6353 157.66 62.6803C158.355 63.7253 161.145 64.4253 161.145 64.4253H183.72L184.175 60.6103C183.695 60.6003 183.355 60.5903 183.355 60.5903C183.355 60.5903 179.285 59.3103 176.38 58.5003C173.475 57.6853 167.755 55.2703 166.035 54.8953C164.445 54.5503 163.015 54.6103 162.03 54.7403" stroke="#263238" stroke-miterlimit="10" stroke-linecap="round" stroke-linejoin="round"/>
<path d="M187.529 64.4257L187.414 64.2807C187.414 64.2807 189.759 64.0657 190.079 63.9607C190.399 63.8557 191.359 63.7457 191.359 63.7457L194.749 64.4257H198.115L197.764 63.8457L194.744 61.9857L192.154 60.6907C189.459 59.3457 186.219 61.0057 183.354 60.5907C183.354 60.5907 183.83 60.6607 183.895 60.6607L183.445 64.4257H187.529Z" fill="white" stroke="#263238" stroke-miterlimit="10" stroke-linecap="round" stroke-linejoin="round"/>
<path d="M192.215 61.8253L197.55 64.1753" stroke="#263238" stroke-miterlimit="10" stroke-linecap="round" stroke-linejoin="round"/>
<path d="M181.865 60.4406L181.725 64.3106" stroke="#263238" stroke-miterlimit="10" stroke-linecap="round" stroke-linejoin="round"/>
<path d="M177.425 32.5753C177.425 32.5753 175.915 30.6003 175.795 28.1553C175.68 25.7153 176.84 25.2503 176.84 25.2503C176.84 25.2503 175.095 22.4603 178.93 20.8353C182.765 19.2103 188.58 18.2803 191.835 20.0203C195.09 21.7653 196.255 25.8303 196.135 28.6203C196.02 31.4103 194.39 34.6653 194.39 34.6653L191.83 37.8053C191.83 37.8053 190.205 38.3853 189.855 37.6903C189.505 36.9953 187.53 34.9003 186.485 34.9003C185.44 34.9003 182.765 34.9003 181.37 34.3203C179.98 33.7353 177.425 32.5753 177.425 32.5753Z" fill="#263238" stroke="#263238" stroke-miterlimit="10" stroke-linecap="round" stroke-linejoin="round"/>
<path d="M177.19 29.0853C177.19 29.0853 177.075 36.1753 177.075 37.6853C177.075 39.1953 177.075 40.7103 177.77 42.2203C178.465 43.7303 179.05 47.8003 182.185 48.0303C185.325 48.2603 189.855 45.0053 190.67 43.2653C191.485 41.5203 191.95 38.5003 191.95 38.5003C191.95 38.5003 194.74 36.6403 195.205 34.4303C195.67 32.2203 194.74 31.1753 194.16 32.2203C193.58 33.2653 192.765 35.9403 192.415 36.1703C192.065 36.4053 191.6 34.7753 191.6 34.7753C191.6 34.7753 189.855 35.4753 189.625 34.7753C189.395 34.0803 190.555 30.7053 190.555 30.7053C190.555 30.7053 186.72 31.7503 185.905 31.7503C185.09 31.7503 183.35 31.1703 183.35 31.1703L186.72 33.2603C186.72 33.2603 184.395 34.3053 182.07 33.6103C179.745 32.9153 178 29.0753 178 29.0753H177.19V29.0853Z" fill="white" stroke="#263238" stroke-miterlimit="10" stroke-linecap="round" stroke-linejoin="round"/>
<path d="M180.68 36.5255V37.9205C180.68 37.9205 179.17 41.8705 179.4 42.5705C179.63 43.2705 181.725 42.9205 182.19 42.6855" fill="white"/>
<path d="M180.68 36.5255V37.9205C180.68 37.9205 179.17 41.8705 179.4 42.5705C179.63 43.2705 181.725 42.9205 182.19 42.6855" stroke="#263238" stroke-miterlimit="10" stroke-linecap="round" stroke-linejoin="round"/>
<path d="M180.445 43.7354C180.445 43.7354 182.655 45.1303 184.98 43.8503L180.445 43.7354Z" fill="white"/>
<path d="M180.445 43.7354C180.445 43.7354 182.655 45.1303 184.98 43.8503" stroke="#263238" stroke-miterlimit="10" stroke-linecap="round" stroke-linejoin="round"/>
<path d="M183.815 38.5004C183.815 38.5004 185.56 39.8954 187.885 39.0804L183.815 38.5004Z" fill="white"/>
<path d="M183.815 38.5004C183.815 38.5004 185.56 39.8954 187.885 39.0804" stroke="#263238" stroke-miterlimit="10" stroke-linecap="round" stroke-linejoin="round"/>
<path d="M183.935 36.4108C183.935 36.4108 186.49 35.4808 188.12 37.2258L183.935 36.4108Z" fill="white"/>
<path d="M183.935 36.4108C183.935 36.4108 186.49 35.4808 188.12 37.2258" stroke="#263238" stroke-miterlimit="10" stroke-linecap="round" stroke-linejoin="round"/>
<path d="M178.005 36.6407C178.005 36.6407 178.47 37.6857 180.68 37.9207L178.005 36.6407Z" fill="white"/>
<path d="M178.005 36.6407C178.005 36.6407 178.47 37.6857 180.68 37.9207" stroke="#263238" stroke-miterlimit="10" stroke-linecap="round" stroke-linejoin="round"/>
<path d="M180.215 35.4803C180.215 35.4803 179.4 34.0853 178.24 34.5503L180.215 35.4803Z" fill="white"/>
<path d="M180.215 35.4803C180.215 35.4803 179.4 34.0853 178.24 34.5503" stroke="#263238" stroke-miterlimit="10" stroke-linecap="round" stroke-linejoin="round"/>
<path d="M182.295 55.7451L178.985 85.3001L183.255 91.2751L187.2 85.3001L182.295 55.7451Z" fill="#92E3A9" stroke="#263238" stroke-miterlimit="10" stroke-linecap="round" stroke-linejoin="round"/>
<path d="M54.0459 127.74V132.605C54.0459 132.605 103.836 130.57 164.251 129.56L54.0459 127.74Z" fill="#263238" stroke="#263238" stroke-miterlimit="10" stroke-linecap="round" stroke-linejoin="round"/>
<path d="M164.256 99.3799H51.3008V129.56H164.256V99.3799Z" fill="white" stroke="#263238" stroke-miterlimit="10" stroke-linecap="round" stroke-linejoin="round"/>
<path d="M138.34 107.16C138.835 107.16 139.045 107.45 139.045 107.93V108.31C139.045 108.81 138.81 109.07 138.31 109.07H138V110.31H137.65V107.16H138.34ZM138.31 108.75C138.57 108.75 138.695 108.63 138.695 108.325V107.905C138.695 107.615 138.59 107.475 138.335 107.475H138V108.75H138.31Z" fill="#263238"/>
<path d="M140.02 107.16C140.515 107.16 140.72 107.41 140.72 107.88V108.135C140.72 108.48 140.6 108.695 140.33 108.785C140.62 108.87 140.725 109.105 140.725 109.44V109.93C140.725 110.07 140.73 110.2 140.79 110.31H140.435C140.395 110.22 140.375 110.14 140.375 109.925V109.43C140.375 109.075 140.21 108.96 139.915 108.96H139.665V110.305H139.315V107.155H140.02V107.16ZM139.935 108.645C140.215 108.645 140.38 108.555 140.38 108.215V107.915C140.38 107.63 140.275 107.485 140.015 107.485H139.675V108.65H139.935V108.645Z" fill="#263238"/>
<path d="M141.065 107.92C141.065 107.44 141.305 107.13 141.785 107.13C142.27 107.13 142.51 107.44 142.51 107.92V109.55C142.51 110.025 142.27 110.34 141.785 110.34C141.305 110.34 141.065 110.025 141.065 109.55V107.92ZM141.415 109.565C141.415 109.855 141.535 110.02 141.79 110.02C142.045 110.02 142.165 109.855 142.165 109.565V107.9C142.165 107.615 142.05 107.445 141.79 107.445C141.54 107.445 141.415 107.615 141.415 107.9V109.565Z" fill="#263238"/>
<path d="M144.235 107.92V108.19H143.9V107.9C143.9 107.615 143.79 107.445 143.53 107.445C143.28 107.445 143.16 107.615 143.16 107.9V109.565C143.16 109.85 143.275 110.02 143.53 110.02C143.785 110.02 143.9 109.85 143.9 109.565V108.935H143.575V108.62H144.23V109.545C144.23 110.02 144.005 110.335 143.52 110.335C143.04 110.335 142.815 110.02 142.815 109.545V107.915C142.815 107.44 143.04 107.125 143.52 107.125C144.01 107.125 144.235 107.44 144.235 107.92Z" fill="#263238"/>
<path d="M145.27 107.16C145.765 107.16 145.97 107.41 145.97 107.88V108.135C145.97 108.48 145.85 108.695 145.58 108.785C145.87 108.87 145.975 109.105 145.975 109.44V109.93C145.975 110.07 145.98 110.2 146.04 110.31H145.685C145.645 110.22 145.625 110.14 145.625 109.925V109.43C145.625 109.075 145.46 108.96 145.165 108.96H144.915V110.305H144.565V107.155H145.27V107.16ZM145.18 108.645C145.46 108.645 145.625 108.555 145.625 108.215V107.915C145.625 107.63 145.52 107.485 145.26 107.485H144.92V108.65H145.18V108.645Z" fill="#263238"/>
<path d="M147.461 108.555V108.87H146.691V109.99H147.636V110.31H146.341V107.16H147.636V107.48H146.691V108.555H147.461Z" fill="#263238"/>
<path d="M149.325 107.915V108H148.99V107.895C148.99 107.61 148.88 107.445 148.63 107.445C148.38 107.445 148.27 107.61 148.27 107.89C148.27 108.595 149.33 108.665 149.33 109.55C149.33 110.025 149.1 110.34 148.62 110.34C148.14 110.34 147.915 110.03 147.915 109.55V109.37H148.245V109.57C148.245 109.855 148.36 110.02 148.615 110.02C148.865 110.02 148.985 109.855 148.985 109.57C148.985 108.87 147.93 108.8 147.93 107.915C147.93 107.43 148.155 107.125 148.63 107.125C149.1 107.125 149.325 107.44 149.325 107.915Z" fill="#263238"/>
<path d="M151.001 107.915V108H150.666V107.895C150.666 107.61 150.556 107.445 150.306 107.445C150.056 107.445 149.946 107.61 149.946 107.89C149.946 108.595 151.006 108.665 151.006 109.55C151.006 110.025 150.776 110.34 150.296 110.34C149.816 110.34 149.591 110.03 149.591 109.55V109.37H149.921V109.57C149.921 109.855 150.036 110.02 150.291 110.02C150.541 110.02 150.661 109.855 150.661 109.57C150.661 108.87 149.606 108.8 149.606 107.915C149.606 107.43 149.831 107.125 150.306 107.125C150.776 107.125 151.001 107.44 151.001 107.915Z" fill="#263238"/>
<path d="M115.765 107.16C116.255 107.16 116.48 107.455 116.48 107.945V109.535C116.48 110.015 116.255 110.315 115.765 110.315H115.025V107.165H115.765V107.16ZM115.76 109.99C116.01 109.99 116.135 109.83 116.135 109.545V107.925C116.135 107.635 116.015 107.48 115.755 107.48H115.375V109.99H115.76Z" fill="#263238"/>
<path d="M117.93 108.555V108.87H117.16V109.99H118.105V110.31H116.81V107.16H118.105V107.48H117.16V108.555H117.93Z" fill="#263238"/>
<path d="M118.786 109.675L118.666 110.31H118.341L118.946 107.16H119.456L120.061 110.31H119.711L119.591 109.675H118.786ZM118.831 109.375H119.531L119.176 107.555L118.831 109.375Z" fill="#263238"/>
<path d="M121.065 107.16C121.555 107.16 121.78 107.455 121.78 107.945V109.535C121.78 110.015 121.555 110.315 121.065 110.315H120.325V107.165H121.065V107.16ZM121.06 109.99C121.31 109.99 121.435 109.83 121.435 109.545V107.925C121.435 107.635 121.315 107.48 121.055 107.48H120.675V109.99H121.06Z" fill="#263238"/>
<path d="M122.11 110.31V107.16H122.46V109.99H123.36V110.31H122.11Z" fill="#263238"/>
<path d="M123.975 107.16V110.31H123.625V107.16H123.975Z" fill="#263238"/>
<path d="M124.645 110.31H124.33V107.16H124.775L125.505 109.44V107.16H125.815V110.31H125.45L124.645 107.76V110.31Z" fill="#263238"/>
<path d="M127.301 108.555V108.87H126.531V109.99H127.476V110.31H126.181V107.16H127.476V107.48H126.531V108.555H127.301Z" fill="#263238"/>
<path d="M95.0554 110.76H101.635" stroke="#263238" stroke-miterlimit="10" stroke-linecap="round" stroke-linejoin="round"/>
<path d="M75.3252 110.76H92.6902" stroke="#263238" stroke-miterlimit="10" stroke-linecap="round" stroke-linejoin="round"/>
<path d="M56.8955 110.76H72.6955" stroke="#263238" stroke-miterlimit="10" stroke-linecap="round" stroke-linejoin="round"/>
<path d="M85.3252 118.245H90.3502" stroke="#263238" stroke-miterlimit="10" stroke-linecap="round" stroke-linejoin="round"/>
<path d="M72.4307 118.245H81.1157" stroke="#263238" stroke-miterlimit="10" stroke-linecap="round" stroke-linejoin="round"/>
<path d="M66.1201 118.245H69.8001" stroke="#263238" stroke-miterlimit="10" stroke-linecap="round" stroke-linejoin="round"/>
<path d="M56.8955 118.245H64.0155" stroke="#263238" stroke-miterlimit="10" stroke-linecap="round" stroke-linejoin="round"/>
<path d="M160.07 116.845C160.07 117.5 159.805 118.09 159.38 118.515C158.95 118.94 158.36 119.205 157.71 119.205H132.935C131.63 119.205 130.57 118.15 130.57 116.845C130.57 116.19 130.835 115.6 131.265 115.175C131.69 114.745 132.28 114.48 132.935 114.48H157.71C159.015 114.48 160.07 115.54 160.07 116.845Z" fill="white" stroke="#263238" stroke-miterlimit="10" stroke-linecap="round" stroke-linejoin="round"/>
<path d="M125.875 119.205H116.1C114.795 119.205 113.74 118.145 113.74 116.845C113.74 115.54 114.8 114.485 116.1 114.485H125.875C127.18 114.485 128.235 115.545 128.235 116.845C128.24 118.15 127.18 119.205 125.875 119.205Z" fill="white" stroke="#263238" stroke-miterlimit="10" stroke-linecap="round" stroke-linejoin="round"/>
<path d="M61.2607 134.495C61.2607 134.495 62.9307 130.15 63.2657 129.705C63.6007 129.26 64.1557 128.145 65.1607 128.145C66.1657 128.145 67.9457 128.255 68.7257 127.92C69.5057 127.585 70.5057 127.585 70.2857 128.255C70.0607 128.925 68.7257 129.145 68.7257 129.145L74.5207 129.59C74.5207 129.59 72.8507 131.15 72.0707 131.485C71.2907 131.82 69.6207 132.155 69.6207 132.155C69.6207 132.155 68.2857 133.045 67.3907 133.27C66.5007 133.495 65.1607 133.605 65.1607 133.605L63.9357 135.835L61.2607 134.495Z" fill="white" stroke="#263238" stroke-miterlimit="10" stroke-linecap="round" stroke-linejoin="round"/>
<path d="M68.7261 129.146L66.1611 129.816" stroke="#263238" stroke-miterlimit="10" stroke-linecap="round" stroke-linejoin="round"/>
<path d="M47.4458 115.22L45.5508 118.45L46.6658 121.015L49.7858 118.675L51.3458 117.56V110.875L47.4458 115.22Z" fill="white" stroke="#263238" stroke-miterlimit="10" stroke-linecap="round" stroke-linejoin="round"/>
<path d="M47 117.005C47 117.005 47.89 112.44 48.335 111.88C48.78 111.325 50.565 109.985 51.12 109.875C51.675 109.765 52.455 110.1 52.01 110.765C51.565 111.435 50.115 112.435 50.115 112.435C50.115 112.435 50.895 114.665 50.34 115.89C49.785 117.115 48.56 117.67 48.56 117.67" fill="white"/>
<path d="M47 117.005C47 117.005 47.89 112.44 48.335 111.88C48.78 111.325 50.565 109.985 51.12 109.875C51.675 109.765 52.455 110.1 52.01 110.765C51.565 111.435 50.115 112.435 50.115 112.435C50.115 112.435 50.895 114.665 50.34 115.89C49.785 117.115 48.56 117.67 48.56 117.67" stroke="#263238" stroke-miterlimit="10" stroke-linecap="round" stroke-linejoin="round"/>
<path d="M45.665 117.56L47.555 122.35L37.865 129.705L35.75 122.13L45.665 117.56Z" fill="#92E3A9" stroke="#263238" stroke-miterlimit="10" stroke-linecap="round" stroke-linejoin="round"/>
<path d="M41.25 197.915L41.625 202.665C41.625 202.665 39.125 207.915 39.375 212.54C39.625 217.165 40.125 230.54 40.125 231.29C40.125 232.04 38.875 232.915 39.75 236.04C39.995 236.91 42.125 236.29 44.25 237.665C46.375 239.04 49 239.915 50.625 239.915C52.25 239.915 53.125 239.915 53.125 239.165C53.125 238.415 50.75 237.415 49.75 236.415C48.75 235.415 45.625 231.29 45.375 230.79C45.125 230.29 46.25 222.915 47 220.04C47.75 217.165 49.875 210.29 50.75 205.415C51.625 200.54 52 196.54 52 196.54L41.25 197.915Z" fill="white" stroke="#263238" stroke-miterlimit="10" stroke-linecap="round" stroke-linejoin="round"/>
<path d="M39.75 236.04L40 239.415H41.75L42.5 236.665C42.5 236.665 40.375 235.915 39.75 236.04Z" fill="#263238" stroke="#263238" stroke-miterlimit="10" stroke-linecap="round" stroke-linejoin="round"/>
<path d="M50.6253 239.915C52.2403 239.75 53.1253 239.915 53.1253 239.165C53.1253 238.415 50.7503 237.415 49.7503 236.415C48.9703 235.635 46.9103 232.97 45.9153 231.59C45.4403 231.945 44.8353 232.245 44.1253 232.29C42.2503 232.415 40.1253 231.29 40.1253 231.29C40.1253 232.04 38.8753 232.915 39.7503 236.04C39.9953 236.91 42.1953 236.755 43.9103 238.81C45.5303 240.76 50.3803 239.94 50.6253 239.915Z" fill="#263238" stroke="#263238" stroke-miterlimit="10" stroke-linecap="round" stroke-linejoin="round"/>
<path d="M26.6254 194.29L26.8754 201.29C26.8754 201.29 23.6254 205.665 23.0004 209.915C22.3754 214.165 20.2504 230.79 20.2504 232.415C20.2504 234.04 19.2504 239.29 19.7504 239.665C20.2504 240.04 26.0004 239.665 26.0004 239.665C26.0004 239.665 26.2504 239.165 26.2504 237.915C26.2504 236.665 25.2504 232.54 25.5004 231.54C25.7504 230.54 26.6254 227.415 26.6254 227.415C26.6254 227.415 30.5004 217.29 32.1254 214.165C33.7504 211.04 35.1254 206.54 36.0004 203.79C36.8754 201.04 37.6254 197.165 37.6254 197.165L26.6254 194.29Z" fill="white" stroke="#263238" stroke-miterlimit="10" stroke-linecap="round" stroke-linejoin="round"/>
<path d="M25.4705 231.73C23.7355 229.29 20.9005 230.78 20.3455 231.105C20.2855 231.75 20.2455 232.205 20.2455 232.415C20.2455 234.04 19.2455 239.29 19.7455 239.665C20.2455 240.04 25.9955 239.665 25.9955 239.665C25.9955 239.665 26.2455 239.165 26.2455 237.915C26.2505 236.735 25.3555 232.975 25.4705 231.73Z" fill="#263238" stroke="#263238" stroke-miterlimit="10" stroke-linecap="round" stroke-linejoin="round"/>
<path d="M26.0005 239.665C25.7505 238.915 24.0005 235.915 24.0005 235.915L20.7505 236.04C19.6255 237.29 19.7505 239.665 19.7505 239.665C20.2505 240.04 26.0005 239.665 26.0005 239.665Z" fill="#8C8C8C" stroke="#263238" stroke-miterlimit="10" stroke-linecap="round" stroke-linejoin="round"/>
<path d="M24 235.915C24 235.915 22.875 234.915 22 235.29C21.125 235.665 20.75 236.04 20.75 236.04L20.875 239.79H23.125L24 235.915Z" fill="#263238" stroke="#263238" stroke-miterlimit="10" stroke-linecap="round" stroke-linejoin="round"/>
<path d="M23.8755 169.415C23.8755 169.415 22.8755 171.915 22.7505 175.165C22.6255 178.415 23.5005 194.415 23.5005 194.415C23.5005 194.415 29.7505 198.665 40.2505 199.04C50.7505 199.415 55.6255 196.54 55.6255 196.54C55.6255 196.54 55.3755 177.29 54.1255 172.665C52.8755 168.04 50.6255 166.165 50.6255 166.165C50.6255 166.165 45.6255 167.665 38.0005 167.54C30.3755 167.415 25.1255 166.04 25.1255 166.04L23.8755 169.415Z" fill="#263238" stroke="#263238" stroke-miterlimit="10" stroke-linecap="round" stroke-linejoin="round"/>
<path d="M27.1705 130.93C27.1705 130.93 24.0505 136.725 23.6055 140.955C23.1605 145.19 27.2805 158.11 27.2805 158.555C27.2805 159 22.9355 170.14 22.9355 170.14C22.9355 170.14 27.9505 172.37 33.5205 173.595C39.0905 174.82 44.7705 174.04 45.8855 173.705L47.3355 169.36L47.8905 173.035C47.8905 173.035 47.8905 173.145 49.6705 172.7C51.4505 172.255 53.6805 170.36 53.6805 170.36C53.6805 170.36 50.7855 163.565 49.3355 161.67C47.8855 159.775 46.1055 155.43 46.1055 155.43L46.7755 149.86C46.7755 149.86 51.7905 153.98 52.2355 154.095C52.6805 154.205 59.5855 146.075 61.0355 143.735C62.4855 141.395 64.8255 135.38 64.8255 135.38L61.4855 133.71L60.1506 135.045L52.2405 143.625C52.2405 143.625 47.4505 138.165 45.1105 137.275C42.7705 136.385 38.3155 135.045 38.3155 135.045L29.2905 132.93L29.9605 131.035C29.9555 131.04 29.5105 129.705 27.1705 130.93Z" fill="#92E3A9" stroke="#263238" stroke-miterlimit="10" stroke-linecap="round" stroke-linejoin="round"/>
<path d="M46.776 149.865L41.751 146.915L46.331 152.45L46.776 149.865Z" fill="#263238" stroke="#263238" stroke-miterlimit="10" stroke-linecap="round" stroke-linejoin="round"/>
<path d="M36.2158 156.765C36.7108 157.34 37.2258 157.86 37.7508 158.295" stroke="#263238" stroke-miterlimit="10" stroke-linecap="round" stroke-linejoin="round"/>
<path d="M30.0859 145.88C30.0859 145.88 32.2359 151.42 35.1959 155.47" stroke="#263238" stroke-miterlimit="10" stroke-linecap="round" stroke-linejoin="round"/>
<path d="M32.4609 154.274C32.4609 154.274 33.9209 156.829 36.6609 159.749" stroke="#263238" stroke-miterlimit="10" stroke-linecap="round" stroke-linejoin="round"/>
<path d="M41.6552 113.439C41.6552 113.439 42.2102 114.444 42.6602 116.224C43.1052 118.004 44.6652 118.899 45.2202 118.784C45.7752 118.674 45.7752 120.009 45.4452 120.679C45.1102 121.349 44.5552 121.904 44.5552 121.904C44.5552 121.904 44.4452 124.579 44.1102 126.584C43.7752 128.589 43.6652 130.149 42.8852 130.149C42.1052 130.149 38.8752 130.149 38.8752 130.149C38.8752 130.149 38.5402 131.929 38.4302 133.379C38.3202 134.829 38.3202 135.049 38.3202 135.049L29.2952 132.934L30.3002 129.814C30.3002 129.814 24.6202 127.254 27.4052 122.574C30.1802 117.894 36.7502 111.989 41.6552 113.439Z" fill="white" stroke="#263238" stroke-miterlimit="10" stroke-linecap="round" stroke-linejoin="round"/>
<path d="M38.8705 130.149L37.0205 129.999L38.4805 132.554L38.8705 130.149Z" fill="#263238" stroke="#263238" stroke-miterlimit="10" stroke-linecap="round" stroke-linejoin="round"/>
<path d="M44.3257 124.354C44.3257 124.354 43.4357 125.024 42.0957 124.464" stroke="#263238" stroke-miterlimit="10" stroke-linecap="round" stroke-linejoin="round"/>
<path d="M40.875 117.45C40.875 117.45 41.1 115.335 42.21 115.445" stroke="#263238" stroke-miterlimit="10" stroke-linecap="round" stroke-linejoin="round"/>
<path d="M42.6353 118.334C42.8253 118.919 42.8103 119.449 42.6053 119.514C42.4003 119.579 42.0803 119.159 41.8953 118.574C41.7053 117.989 41.7203 117.459 41.9253 117.394C42.1303 117.324 42.4503 117.744 42.6353 118.334Z" fill="#263238"/>
<path d="M41.6556 110.095C41.6706 110.11 41.6806 110.13 41.6956 110.145C42.8756 111.68 42.6756 113.39 41.7656 114.995C39.9156 118.27 34.2556 121.315 34.2556 124.025C34.2556 126.73 37.1056 126.59 37.1056 126.59C37.1056 126.59 38.2456 129.01 35.3956 131.15C32.5456 133.285 26.7056 133.855 23.0006 130.01C21.9206 128.89 21.2456 127.525 20.8356 126.15C19.7106 122.4 19.5506 118.225 21.2056 114.825C22.5956 111.975 24.1956 109.665 27.1006 108.235C29.3806 107.115 32.9806 106.835 35.5256 106.98C36.7556 107.05 38.0056 107.3 39.1156 107.85C40.0406 108.315 41.0156 109.28 41.6556 110.095Z" fill="#263238" stroke="#263238" stroke-miterlimit="10" stroke-linecap="round" stroke-linejoin="round"/>
<path d="M33.8652 128.889C34.7952 128.734 35.4702 128.439 35.4702 128.439" stroke="#757575" stroke-miterlimit="10" stroke-linecap="round" stroke-linejoin="round"/>
<path d="M38.7305 116.39C38.0555 117.37 37.1305 118.39 35.8655 119.28C31.9405 122.03 27.6205 124.91 29.5805 127.525C30.3555 128.56 31.4405 128.92 32.4655 128.975" stroke="#757575" stroke-miterlimit="10" stroke-linecap="round" stroke-linejoin="round"/>
<path d="M40.4457 112.47C40.4457 112.47 40.2907 113.42 39.6907 114.71" stroke="#757575" stroke-miterlimit="10" stroke-linecap="round" stroke-linejoin="round"/>
<path d="M31.0756 120.175C30.4406 121.06 29.6306 122.1 28.6656 123.205C25.9156 126.345 26.3106 132.76 32.4606 132.24" stroke="#757575" stroke-miterlimit="10" stroke-linecap="round" stroke-linejoin="round"/>
<path d="M32.8502 117.444C32.8502 117.444 32.5602 117.969 31.9902 118.834" stroke="#757575" stroke-miterlimit="10" stroke-linecap="round" stroke-linejoin="round"/>
<path d="M193.765 179.73C195.075 180.3 198.275 180.23 198.28 180.23C198.315 180.23 197.59 178.135 197.53 178.005C196.83 176.535 194.605 174.11 192.8 174.355C191.5 174.53 190.775 175.835 191.065 177.06C191.365 178.31 192.65 179.24 193.765 179.73Z" fill="#263238"/>
<path d="M235.71 168.83C233.895 168.635 231.74 171.12 231.08 172.61C231.025 172.74 230.36 174.855 230.39 174.855C230.39 174.855 230.42 174.855 230.43 174.855C230.085 175.245 229.725 175.665 229.335 176.135C228.625 177.005 227.83 178 227.04 179.135C226.245 180.27 225.415 181.525 224.66 182.925C223.9 184.33 223.175 185.84 222.63 187.5C222.625 187.52 222.62 187.54 222.615 187.56C222.625 187.025 222.6 185.53 222.585 185.415C222.375 183.8 221.02 180.8 219.23 180.47C217.94 180.23 216.845 181.245 216.74 182.5C216.635 183.785 217.565 185.07 218.475 185.88C219.5 186.795 222.34 187.68 222.565 187.75C222.06 189.335 221.67 191 221.365 192.705C221.19 193.68 221.045 194.67 220.915 195.66C220.91 195.2 220.9 194.785 220.89 194.725C220.68 193.11 219.325 190.11 217.535 189.78C216.245 189.54 215.15 190.555 215.045 191.81C214.94 193.095 215.87 194.38 216.78 195.19C217.7 196.01 220.105 196.815 220.745 197.02C220.7 197.4 220.645 197.78 220.6 198.165C220.38 199.995 220.17 201.825 219.91 203.61C219.82 204.24 219.705 204.855 219.595 205.475C219.59 205.065 219.58 204.72 219.575 204.665C219.365 203.05 218.01 200.05 216.22 199.72C214.925 199.48 213.835 200.495 213.73 201.75C213.625 203.035 214.555 204.32 215.465 205.13C216.345 205.915 218.56 206.675 219.315 206.92C219.18 207.55 219.05 208.18 218.89 208.785C218.775 209.195 218.69 209.595 218.55 210C218.42 210.405 218.29 210.805 218.165 211.2C217.89 211.955 217.615 212.73 217.325 213.46C217.13 213.97 216.935 214.45 216.74 214.935C216.84 214.31 217.005 213.08 217.01 212.975C217.035 211.895 216.65 210.135 215.885 208.895C215.89 208.735 215.88 208.575 215.855 208.42C215.655 207.175 214.485 206.25 213.215 206.59C211.45 207.06 210.335 210.155 210.25 211.78C210.245 211.875 210.31 212.925 210.36 213.585C210.27 213.2 210.19 212.83 210.095 212.435C209.91 211.655 209.7 210.885 209.485 210.05C209.365 209.65 209.245 209.25 209.12 208.845C209.005 208.44 208.835 208.025 208.695 207.61C208.345 206.655 207.945 205.71 207.525 204.76C208.21 204.595 210.62 203.98 211.59 203.235C212.555 202.495 213.58 201.28 213.57 199.995C213.56 198.735 212.545 197.645 211.24 197.785C209.425 197.98 207.85 200.87 207.525 202.465C207.505 202.565 207.395 203.735 207.35 204.38C207.09 203.815 206.835 203.245 206.555 202.68C205.745 201.045 204.875 199.42 204.01 197.795C203.745 197.295 203.49 196.795 203.23 196.3C203.475 196.245 206.36 195.575 207.445 194.74C208.41 194 209.435 192.79 209.425 191.5C209.415 190.24 208.4 189.15 207.095 189.29C205.28 189.485 203.705 192.375 203.38 193.97C203.355 194.09 203.205 195.775 203.185 196.205C202.615 195.105 202.055 194.005 201.55 192.895C200.85 191.365 200.245 189.83 199.77 188.295C199.885 188.27 202.9 187.585 204.01 186.73C204.975 185.99 206 184.78 205.99 183.49C205.98 182.23 204.965 181.14 203.66 181.28C201.845 181.475 200.275 184.365 199.945 185.96C199.92 186.085 199.755 187.9 199.75 188.23C199.72 188.14 199.685 188.05 199.655 187.955C199.17 186.31 198.905 184.66 198.73 183.1C198.63 182.195 198.58 181.325 198.555 180.475C199.13 180.405 201.75 180.055 202.84 179.4C203.88 178.77 205.03 177.68 205.165 176.395C205.295 175.14 204.405 173.945 203.09 173.94C201.265 173.935 199.385 176.635 198.88 178.185C198.855 178.27 198.67 179.155 198.545 179.805C198.54 179.42 198.525 179.025 198.525 178.66C198.53 177.28 198.615 176.015 198.7 174.9C198.755 174.265 198.815 173.69 198.88 173.155C199.41 172.79 201.515 171.305 202.165 170.24C202.8 169.2 203.315 167.7 202.845 166.505C202.38 165.33 201.04 164.68 199.875 165.285C198.255 166.125 197.83 169.385 198.095 170.99C198.12 171.13 198.73 173.26 198.76 173.24C198.76 173.24 198.785 173.22 198.79 173.22C198.72 173.735 198.65 174.285 198.585 174.89C198.475 176.01 198.36 177.275 198.325 178.66C198.29 180.045 198.29 181.55 198.43 183.135C198.57 184.725 198.8 186.385 199.26 188.07C199.265 188.09 199.275 188.11 199.28 188.125C198.995 187.675 198.15 186.44 198.075 186.355C197.01 185.125 194.225 183.37 192.545 184.08C191.335 184.595 190.98 186.04 191.59 187.145C192.21 188.275 193.695 188.83 194.9 189.005C196.26 189.205 199.115 188.375 199.345 188.305C199.795 189.905 200.39 191.51 201.08 193.1C201.475 194.01 201.895 194.915 202.335 195.815C202.075 195.435 201.84 195.095 201.8 195.05C200.735 193.82 197.95 192.065 196.27 192.78C195.06 193.295 194.705 194.74 195.315 195.845C195.935 196.975 197.42 197.53 198.625 197.705C199.845 197.885 202.295 197.225 202.945 197.045C203.115 197.39 203.285 197.735 203.455 198.08C204.28 199.73 205.115 201.37 205.885 203.005C206.155 203.58 206.4 204.16 206.65 204.735C206.42 204.395 206.22 204.115 206.185 204.07C205.12 202.84 202.335 201.085 200.655 201.8C199.445 202.315 199.09 203.76 199.7 204.865C200.32 205.995 201.805 206.55 203.01 206.725C204.175 206.895 206.445 206.31 207.21 206.095C207.445 206.695 207.685 207.29 207.885 207.88C208.015 208.285 208.165 208.67 208.27 209.085C208.385 209.495 208.495 209.9 208.61 210.3C208.795 211.08 208.995 211.88 209.16 212.645C209.28 213.175 209.38 213.685 209.485 214.195C209.22 213.62 208.685 212.5 208.63 212.415C207.765 211.035 205.28 208.88 203.51 209.33C202.235 209.655 201.665 211.03 202.1 212.215C202.54 213.425 203.925 214.2 205.09 214.555C206.37 214.945 209.205 214.59 209.56 214.54C209.73 215.385 209.885 216.215 210.025 216.995C210.235 218.17 210.405 219.26 210.545 220.25H208.89V240H216.74V220.25H215.7C216.01 219.54 216.33 218.785 216.66 217.975C216.995 217.165 217.335 216.29 217.675 215.39C218.02 215.46 220.825 216.03 222.135 215.735C223.32 215.465 224.76 214.795 225.29 213.62C225.81 212.47 225.345 211.055 224.1 210.635C222.37 210.055 219.73 212.02 218.765 213.33C218.71 213.405 218.18 214.315 217.86 214.895C218 214.525 218.135 214.17 218.27 213.79C218.545 213.04 218.8 212.28 219.075 211.465C219.195 211.065 219.315 210.665 219.435 210.26C219.565 209.86 219.65 209.42 219.76 208.995C219.995 208.005 220.185 206.995 220.355 205.97C221.015 206.21 223.37 207.03 224.585 206.945C225.8 206.86 227.32 206.415 228.025 205.335C228.715 204.28 228.47 202.81 227.3 202.205C225.68 201.37 222.77 202.91 221.615 204.06C221.545 204.13 220.805 205.05 220.415 205.56C220.51 204.945 220.61 204.33 220.69 203.705C220.915 201.895 221.085 200.06 221.265 198.225C221.32 197.665 221.38 197.105 221.44 196.545C221.675 196.635 224.45 197.665 225.815 197.57C227.03 197.485 228.55 197.04 229.255 195.96C229.945 194.905 229.7 193.435 228.53 192.83C226.91 191.995 224 193.535 222.85 194.685C222.765 194.77 221.705 196.095 221.455 196.445C221.585 195.215 221.725 193.985 221.915 192.78C222.17 191.12 222.515 189.505 222.965 187.96C223.075 188 225.965 189.095 227.365 188.995C228.58 188.91 230.1 188.465 230.805 187.385C231.495 186.33 231.25 184.86 230.08 184.255C228.46 183.42 225.55 184.96 224.4 186.11C224.31 186.2 223.175 187.625 222.985 187.895C223.01 187.805 223.03 187.705 223.06 187.615C223.56 185.975 224.25 184.45 224.97 183.055C225.385 182.245 225.825 181.49 226.275 180.77C226.795 181.03 229.175 182.185 230.44 182.235C231.655 182.285 233.22 182.01 234.035 181.01C234.835 180.035 234.755 178.545 233.66 177.82C232.14 176.81 229.08 178.025 227.81 179.04C227.74 179.095 227.1 179.735 226.64 180.205C226.845 179.88 227.055 179.545 227.255 179.24C228.02 178.09 228.79 177.085 229.475 176.2C229.87 175.7 230.24 175.255 230.585 174.845C231.225 174.835 233.805 174.755 234.935 174.225C236.035 173.71 237.295 172.745 237.56 171.485C237.775 170.255 237.015 168.97 235.71 168.83ZM215.625 217.56C215.2 218.535 214.795 219.43 214.41 220.255H211.67C211.495 219.21 211.29 218.06 211.04 216.8C210.87 215.94 210.675 215.02 210.46 214.08C210.675 213.995 211.885 213.505 212.955 212.905C213.89 213.915 216.28 215.1 216.59 215.25C216.27 216.055 215.945 216.83 215.625 217.56Z" fill="#263238"/>
<path d="M226.15 180.435C226.18 180.455 226.73 178.305 226.75 178.17C226.975 176.555 226.46 173.305 224.815 172.515C223.63 171.945 222.31 172.63 221.88 173.815C221.44 175.025 222 176.51 222.66 177.53C223.44 178.725 226.15 180.43 226.15 180.435Z" fill="#263238"/>
<path d="M236.84 239.86H243.18" stroke="#263238" stroke-miterlimit="10" stroke-linecap="round" stroke-linejoin="round"/>
<path d="M231.425 239.86H233.925" stroke="#263238" stroke-miterlimit="10" stroke-linecap="round" stroke-linejoin="round"/>
<path d="M10.6797 239.86H229.62" stroke="#263238" stroke-miterlimit="10" stroke-linecap="round" stroke-linejoin="round"/>
</g>
<defs>
<filter id="filter0_d_382_8414" x="7.54297" y="16.3174" width="244.425" height="227.755" filterUnits="userSpaceOnUse" color-interpolation-filters="sRGB">
<feFlood flood-opacity="0" result="BackgroundImageFix"/>
<feColorMatrix in="SourceAlpha" type="matrix" values="0 0 0 0 0 0 0 0 0 0 0 0 0 0 0 0 0 0 127 0" result="hardAlpha"/>
<feOffset dx="4" dy="4"/>
<feGaussianBlur stdDeviation="2"/>
<feComposite in2="hardAlpha" operator="out"/>
<feColorMatrix type="matrix" values="0 0 0 0 0 0 0 0 0 0 0 0 0 0 0 0 0 0 0.25 0"/>
<feBlend mode="normal" in2="BackgroundImageFix" result="effect1_dropShadow_382_8414"/>
<feBlend mode="normal" in="SourceGraphic" in2="effect1_dropShadow_382_8414" result="shape"/>
</filter>
<clipPath id="clip0_382_8414">
<rect width="250" height="250" fill="white"/>
</clipPath>
</defs>
</svg>
