<svg width="301" height="200" viewBox="0 0 301 200" fill="none" xmlns="http://www.w3.org/2000/svg">
<path d="M254.392 64.16C254.392 64.16 202.512 15.72 155.672 13.08C108.872 10.44 96.1517 25.24 82.9117 43.52C69.6717 61.8 38.7117 64.96 22.0317 96.96C5.35173 128.96 14.6317 182.44 69.4317 188C124.232 193.56 130.832 163.92 170.792 170.52C210.752 177.12 216.592 191.44 250.712 179.24C284.832 167.04 297.792 102.28 254.392 64.16Z" fill="#92E3A9"/>
<path opacity="0.7" d="M254.392 64.16C254.392 64.16 202.512 15.72 155.672 13.08C108.872 10.44 96.1517 25.24 82.9117 43.52C69.6717 61.8 38.7117 64.96 22.0317 96.96C5.35173 128.96 14.6317 182.44 69.4317 188C124.232 193.56 130.832 163.92 170.792 170.52C210.752 177.12 216.592 191.44 250.712 179.24C284.832 167.04 297.792 102.28 254.392 64.16Z" fill="white"/>
<path opacity="0.2" d="M194.872 71.52H183.912V75.96H194.872V71.52Z" fill="black"/>
<path opacity="0.2" d="M190.712 55.7598H179.752V60.1998H190.712V55.7598Z" fill="black"/>
<path opacity="0.2" d="M151.072 71.3999H140.112V75.8399H151.072V71.3999Z" fill="black"/>
<path opacity="0.2" d="M166.992 40.5601H156.032V45.0001H166.992V40.5601Z" fill="black"/>
<path opacity="0.2" d="M178.992 40.5601H168.032V45.0001H178.992V40.5601Z" fill="black"/>
<path opacity="0.2" d="M132.312 104.2H121.352V108.64H132.312V104.2Z" fill="black"/>
<path opacity="0.2" d="M126.552 109.68H115.592V114.12H126.552V109.68Z" fill="black"/>
<path opacity="0.1" d="M184.712 61.8799H173.752V66.3199H184.712V61.8799Z" fill="black"/>
<path opacity="0.1" d="M201.152 86.7998H190.192V91.2398H201.152V86.7998Z" fill="black"/>
<path opacity="0.1" d="M136.992 93.5601H126.032V98.0001H136.992V93.5601Z" fill="black"/>
<path opacity="0.1" d="M149.512 93.5601H138.552V98.0001H149.512V93.5601Z" fill="black"/>
<path opacity="0.1" d="M150.552 87.3198H139.592V91.7598H150.552V87.3198Z" fill="black"/>
<path opacity="0.1" d="M197.232 61.8799H186.272V66.3199H197.232V61.8799Z" fill="black"/>
<path opacity="0.2" d="M164.632 109.2H153.672V113.64H164.632V109.2Z" fill="black"/>
<path opacity="0.1" d="M158.632 115.36H147.672V119.8H158.632V115.36Z" fill="black"/>
<path opacity="0.1" d="M171.152 115.36H160.192V119.8H171.152V115.36Z" fill="black"/>
<path opacity="0.2" d="M111.552 54.04H100.592V58.48H111.552V54.04Z" fill="black"/>
<path opacity="0.1" d="M105.552 60.1597H94.5918V64.5997H105.552V60.1597Z" fill="black"/>
<path opacity="0.1" d="M118.072 60.1597H107.112V64.5997H118.072V60.1597Z" fill="black"/>
<path opacity="0.2" d="M107.272 87.04H96.3118V91.48H107.272V87.04Z" fill="black"/>
<path opacity="0.1" d="M155.792 65.8398H144.832V70.2798H155.792V65.8398Z" fill="black"/>
<path opacity="0.1" d="M139.352 109.4H128.392V113.84H139.352V109.4Z" fill="black"/>
<path opacity="0.1" d="M173.232 35.0801H162.272V39.5201H173.232V35.0801Z" fill="black"/>
<path opacity="0.1" d="M169.032 22.9199H158.072V27.3599H169.032V22.9199Z" fill="black"/>
<path opacity="0.2" d="M100.992 72.3599H90.0317V76.7999H100.992V72.3599Z" fill="black"/>
<path opacity="0.1" d="M107.272 66.8799H96.3118V71.3199H107.272V66.8799Z" fill="black"/>
<path opacity="0.1" d="M135.152 40.2397H124.192V44.6797H135.152V40.2397Z" fill="black"/>
<path opacity="0.2" d="M173.232 71.52H162.272V75.96H173.232V71.52Z" fill="black"/>
<path opacity="0.2" d="M183.792 96.3999H172.832V100.84H183.792V96.3999Z" fill="black"/>
<path opacity="0.2" d="M179.592 80.6396H168.632V85.0796H179.592V80.6396Z" fill="black"/>
<path opacity="0.1" d="M173.592 86.7598H162.632V91.1998H173.592V86.7598Z" fill="black"/>
<path opacity="0.1" d="M186.112 86.7598H175.152V91.1998H186.112V86.7598Z" fill="black"/>
<path opacity="0.2" d="M162.112 96.3999H151.152V100.84H162.112V96.3999Z" fill="black"/>
<path opacity="0.2" d="M55.6316 116.04H44.6716V120.48H55.6316V116.04Z" fill="black"/>
<path opacity="0.2" d="M51.4317 100.28H40.4717V104.72H51.4317V100.28Z" fill="black"/>
<path opacity="0.1" d="M45.4317 106.4H34.4717V110.84H45.4317V106.4Z" fill="black"/>
<path opacity="0.1" d="M57.9517 106.4H46.9917V110.84H57.9517V106.4Z" fill="black"/>
<path opacity="0.2" d="M33.9917 116.04H23.0317V120.48H33.9917V116.04Z" fill="black"/>
<path opacity="0.2" d="M87.3916 92.7598H76.4316V97.1998H87.3916V92.7598Z" fill="black"/>
<path opacity="0.2" d="M83.1917 77H72.2317V81.44H83.1917V77Z" fill="black"/>
<path opacity="0.1" d="M77.1917 83.1196H66.2317V87.5596H77.1917V83.1196Z" fill="black"/>
<path opacity="0.1" d="M89.7117 83.1196H78.7517V87.5596H89.7117V83.1196Z" fill="black"/>
<path opacity="0.2" d="M65.7117 92.7598H54.7517V97.1998H65.7117V92.7598Z" fill="black"/>
<path opacity="0.2" d="M245.912 96.48H234.952V100.92H245.912V96.48Z" fill="black"/>
<path opacity="0.2" d="M241.712 80.6797H230.752V85.1197H241.712V80.6797Z" fill="black"/>
<path opacity="0.1" d="M235.712 86.8398H224.752V91.2798H235.712V86.8398Z" fill="black"/>
<path opacity="0.1" d="M248.232 86.8398H237.272V91.2798H248.232V86.8398Z" fill="black"/>
<path opacity="0.2" d="M234.312 56.6001H223.352V61.0401H234.312V56.6001Z" fill="black"/>
<path opacity="0.1" d="M228.312 62.7197H217.352V67.1597H228.312V62.7197Z" fill="black"/>
<path opacity="0.1" d="M240.832 62.7197H229.872V67.1597H240.832V62.7197Z" fill="black"/>
<path opacity="0.2" d="M224.272 96.48H213.312V100.92H224.272V96.48Z" fill="black"/>
<path opacity="0.2" d="M117.192 25.8799H106.232V30.3199H117.192V25.8799Z" fill="black"/>
<path opacity="0.1" d="M69.7918 66.3599H58.8318V70.7999H69.7918V66.3599Z" fill="black"/>
<path opacity="0.1" d="M82.3118 66.3599H71.3518V70.7999H82.3118V66.3599Z" fill="black"/>
<path opacity="0.1" d="M83.3916 60.0801H72.4316V64.5201H83.3916V60.0801Z" fill="black"/>
<path opacity="0.1" d="M93.9517 49.96H82.9917V54.4H93.9517V49.96Z" fill="black"/>
<path opacity="0.2" d="M132.072 30.4399H121.112V34.8799H132.072V30.4399Z" fill="black"/>
<path opacity="0.2" d="M164.272 17.3599H153.312V21.7999H164.272V17.3599Z" fill="black"/>
<path opacity="0.2" d="M181.552 22.2397H170.592V26.6797H181.552V22.2397Z" fill="black"/>
<path d="M229.552 7.91992H228.032V19.4399H229.552V7.91992Z" fill="#BABABA" stroke="#B2B2B2" stroke-miterlimit="10" stroke-linecap="round"/>
<path d="M231.264 35.8759C236.137 34.5191 238.988 29.4682 237.632 24.5944C236.275 19.7207 231.224 16.8696 226.35 18.2264C221.476 19.5832 218.625 24.6341 219.982 29.5078C221.339 34.3816 226.39 37.2327 231.264 35.8759Z" fill="white" stroke="#B2B2B2" stroke-miterlimit="10" stroke-linecap="round"/>
<path d="M64.3518 7.91992H62.8318V19.4399H64.3518V7.91992Z" fill="#BABABA" stroke="#B2B2B2" stroke-miterlimit="10" stroke-linecap="round"/>
<path d="M66.7165 35.6488C71.4734 33.9267 73.9336 28.6745 72.2115 23.9175C70.4895 19.1606 65.2372 16.7004 60.4803 18.4225C55.7234 20.1445 53.2632 25.3968 54.9853 30.1537C56.7073 34.9106 61.9596 37.3708 66.7165 35.6488Z" fill="white" stroke="#B2B2B2" stroke-miterlimit="10" stroke-linecap="round"/>
<path d="M265.832 149.48H21.7517" stroke="#263238" stroke-miterlimit="10" stroke-linecap="round"/>
<path d="M248.672 178.32H13.8718L49.0718 151.8H213.432L248.672 178.32Z" stroke="#263238" stroke-miterlimit="10" stroke-linecap="round"/>
<path d="M200.872 172.92H61.6318L82.5118 157.2H179.992L200.872 172.92Z" stroke="#263238" stroke-miterlimit="10" stroke-linecap="round"/>
<path d="M190.872 105.64C189.552 100.08 183.872 99.52 183.872 99.52H123.232H120.752H66.9918C66.9918 99.52 61.3118 100.12 59.9918 105.64C58.6718 111.2 62.9118 113.8 64.7918 114.56C66.6718 115.28 67.8718 115.28 67.8718 115.28V155.12H119.112H124.792H182.952V115.28C182.952 115.28 184.112 115.28 186.032 114.56C187.952 113.84 192.192 111.2 190.872 105.64Z" fill="#BABABA" stroke="#263238" stroke-miterlimit="10" stroke-linecap="round"/>
<path d="M67.8717 115.28C67.8717 115.28 67.1517 114.56 64.6717 112.36C62.1917 110.16 63.5117 104.64 68.4717 105.64C73.4317 106.68 73.2717 110.16 73.2717 114.68C73.2717 119.2 74.4317 155.12 74.4317 155.12H67.8717V115.28Z" fill="#263238" stroke="#263238" stroke-miterlimit="10" stroke-linecap="round"/>
<path d="M182.992 115.28C182.992 115.28 183.712 114.56 186.192 112.36C188.672 110.16 187.352 104.64 182.392 105.64C177.432 106.68 177.592 110.16 177.592 114.68C177.592 119.2 176.432 155.12 176.432 155.12H182.992V115.28Z" fill="#263238" stroke="#263238" stroke-miterlimit="10" stroke-linecap="round"/>
<path d="M176.872 137.92H73.8718L73.6318 127.28H177.312L176.872 137.92Z" fill="#263238" stroke="#263238" stroke-miterlimit="10" stroke-linecap="round"/>
<path d="M74.1519 144.92H176.952" stroke="#263238" stroke-miterlimit="10" stroke-linecap="round"/>
<path d="M70.9517 99.6797C70.9517 99.6797 76.5117 100.72 77.9517 107.12C79.4317 113.56 79.1117 127.28 79.1117 127.28" stroke="#263238" stroke-miterlimit="10" stroke-linecap="round"/>
<path d="M183.872 99.5198C183.872 99.5198 177.832 98.7998 174.912 103.76C171.992 108.72 172.712 127.4 172.712 127.4" stroke="#263238" stroke-miterlimit="10" stroke-linecap="round"/>
<path d="M97.1518 104.08C97.1518 104.08 98.4718 103.28 89.7918 103.4C81.0718 103.52 78.5518 105.16 78.5518 105.16C78.5518 105.16 75.7518 104.88 75.4718 105.96C75.1918 107.04 76.9518 110.76 76.9518 110.76L79.3518 125.36C79.3518 125.36 77.4718 127.24 78.1518 127.64C78.8318 128.04 82.3118 127.12 82.3118 127.12C82.3118 127.12 91.4318 128.6 95.7118 127.8C99.9918 127 103.072 126.6 103.072 126.6C103.072 126.6 104.552 126.6 104.672 126.08C104.792 125.56 104.152 124.08 104.152 124.08C104.152 124.08 103.232 112.84 100.672 106.4C100.672 106.4 101.592 104.4 100.392 103.6C99.1518 102.72 97.1518 104.08 97.1518 104.08Z" fill="#92E3A9" stroke="#263238" stroke-miterlimit="10" stroke-linecap="round"/>
<path d="M109.872 104.2C109.872 104.2 111.192 103.4 102.512 103.52C93.7918 103.64 91.2718 105.28 91.2718 105.28C91.2718 105.28 88.4718 105 88.1918 106.08C87.9118 107.16 89.6718 110.88 89.6718 110.88L92.0718 125.48C92.0718 125.48 90.1918 127.36 90.8718 127.76C91.5518 128.16 95.0318 127.24 95.0318 127.24C95.0318 127.24 104.152 128.72 108.432 127.92C112.712 127.12 115.792 126.72 115.792 126.72C115.792 126.72 117.272 126.72 117.392 126.2C117.512 125.68 116.872 124.2 116.872 124.2C116.872 124.2 115.952 112.96 113.392 106.52C113.392 106.52 114.312 104.52 113.112 103.72C111.872 102.88 109.872 104.2 109.872 104.2Z" fill="white" stroke="#263238" stroke-miterlimit="10" stroke-linecap="round"/>
<path d="M173.392 159.84C173.872 159.84 174.272 159.44 174.272 158.96V139.04H172.512V158.96C172.512 159.44 172.912 159.84 173.392 159.84Z" fill="white" stroke="#263238" stroke-miterlimit="10" stroke-linecap="round" stroke-linejoin="round"/>
<path d="M174.712 162.24C175.192 162.24 175.592 161.84 175.592 161.36V141.44H173.832V161.36C173.872 161.84 174.232 162.24 174.712 162.24Z" fill="white" stroke="#263238" stroke-miterlimit="10" stroke-linecap="round" stroke-linejoin="round"/>
<path d="M119.272 159.84C118.792 159.84 118.392 159.44 118.392 158.96V139.04H120.152V158.96C120.152 159.44 119.752 159.84 119.272 159.84Z" fill="white" stroke="#263238" stroke-miterlimit="10" stroke-linecap="round" stroke-linejoin="round"/>
<path d="M117.912 162.24C117.432 162.24 117.032 161.84 117.032 161.36V141.44H118.792V161.36C118.792 161.84 118.392 162.24 117.912 162.24Z" fill="white" stroke="#263238" stroke-miterlimit="10" stroke-linecap="round" stroke-linejoin="round"/>
<path d="M176.872 139.12H115.632L118.672 135.28H173.792L176.872 139.12Z" fill="white" stroke="#263238" stroke-miterlimit="10" stroke-linecap="round" stroke-linejoin="round"/>
<path d="M176.912 139.12H115.632V142.04H176.912V139.12Z" fill="white" stroke="#263238" stroke-miterlimit="10" stroke-linecap="round" stroke-linejoin="round"/>
<path d="M252.232 101.84C252.232 101.8 252.232 101.8 252.192 101.8C252.152 101.8 252.152 101.8 252.152 101.84C250.952 104.64 250.112 107.56 249.392 110.52C248.712 113.48 248.192 116.48 247.872 119.52L247.672 121.8C247.632 122.16 247.592 122.56 247.552 122.92L247.472 124.08C247.432 124.84 247.392 125.6 247.352 126.36L247.392 128.64L247.432 129.8C247.432 130.2 247.472 130.56 247.512 130.96C247.552 131.72 247.632 132.48 247.672 133.24C247.832 134.76 248.032 136.28 248.272 137.76C248.272 137.76 248.272 137.8 248.312 137.8C248.352 137.8 248.352 137.8 248.352 137.76C248.352 137 248.312 136.24 248.312 135.48C248.272 134.72 248.232 133.96 248.232 133.2C248.232 132.44 248.232 131.68 248.192 130.92L248.152 129.8L248.192 128.68V126.4L248.272 124.12L248.312 123C248.312 122.64 248.352 122.24 248.392 121.88L248.512 119.6C248.792 116.6 249.192 113.6 249.792 110.64C250.352 107.6 251.112 104.64 252.232 101.84Z" fill="#263238"/>
<path d="M252.552 113.68C252.552 113.64 252.552 113.64 252.512 113.64C252.472 113.64 252.472 113.64 252.472 113.68C251.832 115.56 251.312 117.48 250.872 119.44C250.432 121.4 250.112 123.36 249.912 125.36C249.712 127.36 249.472 129.32 249.472 131.32C249.432 133.32 249.472 135.32 249.672 137.28C249.672 137.28 249.672 137.32 249.712 137.32C249.752 137.32 249.752 137.32 249.752 137.28C249.992 135.28 250.112 133.32 250.272 131.36C250.432 129.4 250.432 127.4 250.552 125.44C250.672 123.48 250.912 121.52 251.272 119.56C251.592 117.52 251.992 115.56 252.552 113.68Z" fill="#263238"/>
<path d="M259.112 117.841C259.112 117.841 259.072 117.801 259.072 117.841C257.432 118.881 255.952 120.201 254.672 121.681C254.032 122.441 253.472 123.201 252.952 124.081L252.592 124.761L252.312 125.441C252.232 125.681 252.152 125.921 252.072 126.161C251.992 126.401 251.912 126.641 251.872 126.881C251.392 128.801 251.072 130.721 250.952 132.681C250.872 134.641 250.912 136.561 251.152 138.521C251.152 138.521 251.152 138.561 251.192 138.561C251.232 138.561 251.232 138.561 251.232 138.521L251.752 132.761C251.952 130.841 252.072 128.921 252.472 127.081C252.512 126.841 252.592 126.641 252.632 126.401C252.672 126.161 252.752 125.921 252.832 125.721L253.072 125.041L253.392 124.401C253.832 123.561 254.392 122.761 254.952 122.001C256.112 120.481 257.512 119.121 259.072 118.001C259.112 117.881 259.112 117.841 259.112 117.841Z" fill="#263238"/>
<path d="M255.912 125.24C255.032 125.8 254.432 126.72 253.912 127.64C253.432 128.56 253.072 129.56 252.792 130.56C252.712 130.8 252.632 131.08 252.592 131.32L252.392 132.08C252.312 132.6 252.232 133.12 252.192 133.64C252.192 134.16 252.152 134.68 252.192 135.2C252.232 135.72 252.312 136.24 252.392 136.76C252.392 136.76 252.392 136.8 252.432 136.8C252.472 136.8 252.472 136.8 252.472 136.76C252.592 136.24 252.672 135.72 252.752 135.24C252.832 134.72 252.912 134.24 252.992 133.72C253.072 133.2 253.152 132.72 253.152 132.2C253.232 131.68 253.272 131.2 253.352 130.68C253.512 129.68 253.832 128.72 254.192 127.76C254.592 126.84 255.072 125.92 255.872 125.24V125.2C255.952 125.24 255.952 125.24 255.912 125.24Z" fill="#263238"/>
<path d="M246.712 131.04C246.512 128.48 246.072 125.96 245.672 123.4C245.272 120.88 244.832 118.32 244.352 115.8C243.872 113.28 243.352 110.76 242.832 108.24C242.832 108.2 242.792 108.2 242.792 108.2C242.752 108.2 242.752 108.24 242.752 108.24C243.192 110.76 243.592 113.28 243.952 115.84C244.352 118.36 244.712 120.92 245.032 123.44C245.352 126 245.592 128.52 245.912 131.08L246.832 138.72C246.832 138.72 246.832 138.76 246.872 138.76C246.912 138.76 246.912 138.76 246.912 138.72C246.952 138.08 246.952 137.44 246.952 136.8C246.952 136.16 246.912 135.52 246.912 134.88C246.912 133.6 246.832 132.32 246.712 131.04Z" fill="#263238"/>
<path d="M245.192 131C245.072 130 244.872 128.96 244.672 127.96L244.312 126.48C244.192 126 244.072 125.48 243.952 125C243.432 123 242.792 121.08 241.992 119.16L241.672 118.44L241.312 117.76C241.112 117.28 240.832 116.84 240.592 116.4C240.072 115.52 239.512 114.64 238.752 113.96H238.712V114C239.432 114.72 239.912 115.64 240.392 116.52C240.632 116.96 240.832 117.44 241.032 117.88L241.352 118.56L241.632 119.28C242.352 121.16 242.912 123.12 243.352 125.12C243.592 126.12 243.752 127.12 243.912 128.12L244.152 129.64C244.232 130.12 244.352 130.64 244.432 131.12C244.592 132.12 244.792 133.12 244.952 134.12C245.112 135.12 245.272 136.12 245.512 137.12L245.552 137.16C245.592 137.16 245.592 137.16 245.592 137.12C245.592 136.08 245.592 135.08 245.512 134.04C245.392 133.04 245.272 132 245.192 131Z" fill="#263238"/>
<path d="M243.072 131.12C242.592 129.76 242.032 128.44 241.432 127.16C240.832 125.88 240.152 124.6 239.392 123.4C239.392 123.4 239.352 123.36 239.352 123.4C239.352 123.4 239.312 123.44 239.352 123.44C240.032 124.68 240.592 126 241.112 127.28C241.632 128.6 242.112 129.92 242.512 131.28C242.912 132.64 243.192 134 243.552 135.36C243.912 136.72 244.232 138.08 244.632 139.44L244.672 139.48C244.712 139.48 244.712 139.48 244.712 139.44C244.752 138 244.592 136.56 244.312 135.16C244.032 133.8 243.552 132.48 243.072 131.12Z" fill="#263238"/>
<path d="M242.992 135.6C242.752 134.76 242.352 133.96 241.872 133.24C241.392 132.48 240.872 131.8 240.232 131.2C239.912 130.92 239.552 130.64 239.192 130.4C238.832 130.16 238.432 129.96 237.992 129.88C237.992 129.88 237.952 129.88 237.952 129.92C237.952 129.96 237.952 129.96 237.992 129.96C238.752 130.32 239.392 130.88 239.952 131.48C240.512 132.12 240.952 132.8 241.312 133.56C241.712 134.28 241.912 135.12 242.232 135.88C242.392 136.28 242.512 136.68 242.712 137.04C242.872 137.44 243.032 137.84 243.232 138.24C243.232 138.24 243.232 138.28 243.272 138.28C243.312 138.28 243.312 138.28 243.312 138.24C243.312 137.8 243.312 137.36 243.272 136.92C243.152 136.44 243.072 136.04 242.992 135.6Z" fill="#263238"/>
<path d="M243.152 111.92C243.152 111.92 238.952 110.96 237.992 106.44C237.032 101.92 240.152 103.84 237.352 96.7599C234.552 89.6399 235.192 88.0399 236.152 85.9999C237.112 83.9599 237.672 84.5999 238.512 87.2799C239.392 89.9599 242.512 94.1599 243.672 102.04C244.832 109.92 243.152 111.92 243.152 111.92Z" fill="#92E3A9"/>
<path d="M251.432 104.28C251.432 104.28 248.632 103.32 248.512 98.0401C248.392 92.7601 250.552 93.8401 250.872 87.2801C251.192 80.7201 251.632 76.0801 252.792 75.9601C253.992 75.8401 257.112 79.2001 258.192 86.5201C259.272 93.8401 256.792 98.6801 254.632 100.84C252.512 103 251.432 104.28 251.432 104.28Z" fill="#92E3A9"/>
<path d="M241.632 118.28C241.632 118.28 240.992 114.4 239.712 112.56C238.432 110.72 235.632 109.12 233.792 105.56C231.952 102 229.912 100.28 230.032 105.36C230.152 110.44 232.392 113 235.192 114.72C237.952 116.44 241.632 118.28 241.632 118.28Z" fill="#92E3A9"/>
<path d="M240.432 124.96C240.432 124.96 237.832 120 234.072 116.36C230.312 112.68 227.272 110.88 228.352 112.68C229.432 114.52 230.712 114.4 232.552 117.64C234.392 120.88 233.832 123.24 236.432 125.08C239.032 126.88 240.432 124.96 240.432 124.96Z" fill="#92E3A9"/>
<path d="M240.112 131.32C239.992 131 239.912 128.64 236.232 126.68C232.552 124.76 229.112 125.48 229.552 126.48C229.992 127.48 232.232 129.08 234.512 130.04C236.792 131 240.112 131.32 240.112 131.32Z" fill="#92E3A9"/>
<path d="M251.192 118.48C251.192 118.48 249.592 116.44 250.432 112.12C251.312 107.8 253.232 108.88 255.392 106.64C257.552 104.36 257.112 104.04 259.272 101.68C261.432 99.32 263.352 98 264.232 99C265.112 99.96 263.792 103 262.512 104.72C261.232 106.44 259.192 107.32 258.192 109.44C257.232 111.6 257.672 115.04 255.192 116.64C252.712 118.28 251.192 118.48 251.192 118.48Z" fill="#92E3A9"/>
<path d="M256.592 119.68C256.592 119.68 260.472 115.28 263.272 112.04C266.072 108.8 267.152 106.32 267.272 108.48C267.392 110.64 268.232 112.36 265.992 115.16C263.712 117.96 256.592 119.68 256.592 119.68Z" fill="#92E3A9"/>
<path d="M254.552 126.8C254.552 126.8 254.432 125.08 260.592 121.08C266.712 117.08 269.312 116.36 268.672 117.96C268.032 119.56 265.352 121.2 262.432 124.08C259.512 127 254.552 126.8 254.552 126.8Z" fill="#92E3A9"/>
<path d="M243.392 111.48C243.392 111.48 241.952 103.76 240.432 98.2799C238.912 92.7999 237.952 89.4399 237.952 89.4399" stroke="#263238" stroke-miterlimit="10" stroke-linecap="round" stroke-linejoin="round"/>
<path d="M251.192 104.36C251.192 104.36 253.792 96.0003 254.672 90.9203C255.552 85.8403 254.552 82.0803 254.152 79.8403" stroke="#263238" stroke-miterlimit="10" stroke-linecap="round" stroke-linejoin="round"/>
<path d="M241.272 118.12C241.272 118.12 239.672 115.28 237.312 112.48C234.952 109.68 233.112 108.16 232.032 105.48" stroke="#263238" stroke-miterlimit="10" stroke-linecap="round" stroke-linejoin="round"/>
<path d="M251.192 118.48C251.192 118.48 252.072 113.32 254.112 110.64C256.152 107.96 260.232 103.76 261.872 101.04" stroke="#263238" stroke-miterlimit="10" stroke-linecap="round" stroke-linejoin="round"/>
<path d="M239.872 131.2C239.872 131.2 236.232 128.84 233.672 127.56" stroke="#263238" stroke-miterlimit="10" stroke-linecap="round" stroke-linejoin="round"/>
<path d="M251.792 154.04H244.272L240.552 135.28H255.512L251.792 154.04Z" fill="#263238" stroke="#263238" stroke-miterlimit="10" stroke-linecap="round" stroke-linejoin="round"/>
<path d="M122.432 127.92C122.432 127.92 120.912 126 120.672 124.96C120.432 123.92 122.352 125.44 122.352 125.44C122.352 125.44 121.472 123.2 121.472 122.32C121.472 121.44 123.232 123.6 123.232 123.6C123.232 123.6 121.312 117.64 121.872 117.72C122.432 117.8 123.712 119.8 123.712 119.8C123.712 119.8 123.312 113.12 123.952 113.44C124.592 113.76 125.312 120.12 125.152 120.44C124.992 120.76 125.952 118.36 126.032 119.64C126.112 120.92 125.152 123.92 125.152 123.92C125.152 123.92 126.352 121.76 126.512 123.12C126.672 124.48 126.272 126.08 126.032 126.4C125.792 126.72 127.072 125.12 126.752 126C126.432 126.88 125.392 128.16 125.392 128.16L122.432 127.92Z" fill="#92E3A9" stroke="#263238" stroke-miterlimit="10" stroke-linecap="round"/>
<path d="M126.992 127.64H121.072V136.64H126.992V127.64Z" fill="white" stroke="#263238" stroke-miterlimit="10" stroke-linecap="round" stroke-linejoin="round"/>
<path d="M225.552 40.3999H198.992V77.2399H225.552V40.3999Z" fill="white" stroke="#B2B2B2" stroke-miterlimit="10" stroke-linecap="round"/>
<path d="M219.832 48.3198H204.672V69.3998H219.832V48.3198Z" fill="#BABABA" stroke="#B2B2B2" stroke-miterlimit="10" stroke-linecap="round"/>
<path d="M158.392 41.7202H96.0718V78.6402H158.392V41.7202Z" fill="#92E3A9"/>
<path d="M158.392 70.16V78.64H96.0718V53C107.672 54.28 137.832 58.6 158.392 70.16Z" fill="#9E9E9E"/>
<path d="M142.032 78.64H96.0718V55.96C102.912 58.52 116.912 64.16 131.312 72.4C135.672 74.88 139.192 76.92 142.032 78.64Z" fill="#92E3A9"/>
<path d="M158.392 41.7202V50.5602C153.752 50.8002 146.552 51.4402 135.392 52.9602C115.952 55.6002 102.512 61.9602 96.0718 65.6002V41.6802H158.392V41.7202Z" fill="#9E9E9E"/>
<path d="M96.0718 41.7202H131.672C129.432 42.9202 127.112 44.2802 124.832 45.8002C110.192 55.4802 101.112 59.0002 96.0718 60.2802V41.7202Z" fill="#92E3A9"/>
<path d="M96.0718 52.3202C100.752 50.0402 106.392 46.4402 109.032 41.6802H96.0718V52.3202Z" fill="#9E9E9E"/>
<path d="M109.472 69.2802C101.792 64.4802 98.1919 66.4002 102.032 72.4002C103.832 75.2402 105.272 77.2402 106.232 78.6402H118.712C116.912 75.8402 113.872 72.0002 109.472 69.2802Z" fill="#9E9E9E"/>
<path d="M158.392 41.7202H96.0718V78.6402H158.392V41.7202Z" stroke="#B2B2B2" stroke-miterlimit="10" stroke-linecap="round"/>
<path d="M198.032 98.4001C198.032 98.4001 198.472 100.68 199.192 101.6C199.872 102.52 201.632 102.96 201.792 103.52C201.952 104.04 201.872 106.44 202.632 106.64C203.392 106.88 204.472 106.24 204.472 106.24L205.232 106.84C205.232 106.84 207.432 108 207.672 108C207.912 108 208.352 108.24 208.952 107.48C209.552 106.72 210.952 105.88 210.952 105.88L212.552 108.32L217.912 102.08L214.632 98.7201C214.632 98.7201 212.512 91.7601 210.432 90.1601C208.352 88.5601 205.072 88.9201 202.632 90.6801C200.192 92.4401 198.512 94.0401 198.032 95.1201C197.552 96.2001 198.032 98.4001 198.032 98.4001Z" fill="white" stroke="#263238" stroke-miterlimit="10" stroke-linecap="round"/>
<path d="M203.792 102.24C204.152 102.6 204.312 103.04 204.112 103.2C203.912 103.4 203.472 103.28 203.112 102.92C202.752 102.56 202.592 102.12 202.792 101.96C202.992 101.76 203.432 101.92 203.792 102.24Z" fill="#263238"/>
<path d="M201.432 102C201.432 102 200.912 100.72 202.272 100.16" stroke="#263238" stroke-miterlimit="10" stroke-linecap="round"/>
<path d="M199.752 90.56C199.752 90.56 195.872 94.24 195.872 95.96C195.872 97.72 197.992 98.4 197.992 98.4C197.992 98.4 198.152 96.04 199.272 95.2C200.432 94.36 201.352 94.28 201.392 95.88C201.472 97.48 201.152 98.16 201.992 98.24C202.832 98.32 203.832 97.92 204.592 98.16C205.352 98.4 208.392 102.52 208.392 102.52C208.392 102.52 207.712 103.76 206.872 104.52C206.032 105.28 204.792 106.36 205.112 106.88C205.432 107.4 206.112 110 207.872 110.16C209.632 110.32 210.912 104.8 210.832 103.08C210.752 101.32 209.232 99.72 209.232 99.72C209.232 99.72 206.472 97.04 206.712 95.96C206.952 94.88 208.392 94.44 209.552 96.2C210.712 97.96 210.472 99.8 210.472 99.8C210.472 99.8 213.592 99.8 213.992 99.48C214.392 99.16 214.512 99.4 214.512 98.72C214.512 98.04 214.072 90 211.992 88.56C209.912 87.12 206.432 86.48 203.512 87.56C200.672 88.64 199.752 90.56 199.752 90.56Z" fill="#263238" stroke="#263238" stroke-miterlimit="10" stroke-linecap="round"/>
<path d="M201.992 127.64C201.992 127.64 200.552 127.2 199.792 126.88C199.032 126.56 197.672 125.96 196.512 125.2C195.352 124.44 193.672 124.28 193.072 124.6C192.472 124.92 191.712 125.52 191.312 126.44C190.912 127.36 192.312 128.28 192.672 128.56C193.072 128.88 196.792 129.24 196.792 129.24C196.792 129.24 197.632 130.24 198.472 130.48C199.312 130.72 201.752 130.48 201.752 130.48L201.992 127.64Z" fill="white" stroke="#263238" stroke-miterlimit="10" stroke-linecap="round"/>
<path d="M197.472 126.04C197.472 126.04 196.392 124.88 195.632 125.36C194.872 125.8 194.192 127.56 194.112 127.8" stroke="#263238" stroke-miterlimit="10" stroke-linecap="round"/>
<path d="M194.112 127.2L197.192 122.32" stroke="#263238" stroke-width="2" stroke-miterlimit="10" stroke-linecap="round"/>
<path d="M209.912 126.52C209.912 126.52 204.952 127.6 204.512 127.68C204.072 127.76 201.992 127.68 201.992 127.68L201.752 130.52L209.992 130.96L209.912 126.52Z" fill="#92E3A9" stroke="#263238" stroke-miterlimit="10" stroke-linecap="round"/>
<path d="M204.512 127.64L204.272 130.76" stroke="#263238" stroke-miterlimit="10" stroke-linecap="round"/>
<path d="M188.392 166.96C188.392 166.96 188.232 171.16 187.632 171.48C187.032 171.8 186.792 172.32 184.712 171.72C182.632 171.12 181.432 170.8 180.832 170.72C180.232 170.64 180.912 171.12 177.712 170.32C174.512 169.56 172.672 168.72 172.752 168.24C172.832 167.8 173.672 167.4 174.672 167.32C175.672 167.24 179.632 166.32 180.712 165.88C181.792 165.44 182.992 164.28 182.992 164.28L188.392 166.96Z" fill="white" stroke="#263238" stroke-miterlimit="10" stroke-linecap="round"/>
<path d="M177.712 170.32C180.912 171.08 180.232 170.64 180.832 170.72C181.432 170.8 182.672 171.12 184.712 171.72C186.792 172.32 186.992 171.8 187.632 171.48C187.792 171.4 187.952 171 188.032 170.48C185.712 170.52 181.272 169.56 180.072 169.56C178.632 169.56 172.752 168.28 172.752 168.28C172.672 168.72 174.512 169.56 177.712 170.32Z" fill="white" stroke="#263238" stroke-miterlimit="10" stroke-linecap="round"/>
<path d="M193.912 144.08L188.432 167C188.432 167 188.192 167.92 186.992 168.08C185.752 168.24 183.312 166.56 183.112 166.56C182.912 166.56 183.712 164.88 184.112 163.28C184.512 161.68 192.512 142.12 192.512 142.12L193.912 144.08Z" fill="#263238" stroke="#263238" stroke-miterlimit="10" stroke-linecap="round"/>
<path d="M175.792 163.76C175.792 163.76 172.592 165.12 172.192 165.2C171.792 165.28 167.552 164.28 166.912 164.44C166.312 164.6 165.832 165.28 166.072 166.04C166.312 166.8 173.392 170.76 175.992 171.52C178.592 172.28 180.792 173.6 181.392 172.88C181.992 172.16 182.632 168.08 182.632 168.08L176.312 163.44L175.792 163.76Z" fill="white" stroke="#263238" stroke-miterlimit="10" stroke-linecap="round"/>
<path d="M181.432 172.92C181.592 172.76 181.712 172.4 181.872 171.96C180.312 171.6 177.712 170.96 175.272 170.04C171.752 168.72 166.872 165.68 166.152 165.2C166.072 165.44 166.032 165.76 166.112 166.04C166.352 166.8 173.432 170.76 176.032 171.52C178.632 172.32 180.832 173.6 181.432 172.92Z" fill="white" stroke="#263238" stroke-miterlimit="10" stroke-linecap="round"/>
<path d="M207.632 136.56C207.632 136.56 197.552 131.68 193.952 131C190.352 130.32 188.152 133 187.712 134.8C187.272 136.64 179.712 160.16 179.712 160.16L178.192 160.76C178.192 160.76 176.592 162.2 176.432 162.44C176.272 162.68 175.832 163.72 175.832 163.72C175.832 163.72 178.752 166.92 180.192 167.76C181.632 168.6 182.552 168.76 182.552 168.76C182.552 168.76 186.672 161.2 187.072 160C187.472 158.76 192.792 148.08 193.632 146.56C194.472 145.04 194.632 144.12 194.632 144.12C194.632 144.12 200.752 147.8 202.272 148.24C203.792 148.68 207.752 145.12 207.752 145.12C207.752 145.12 208.512 139.64 208.592 139C208.632 138.4 207.632 136.56 207.632 136.56Z" fill="#263238" stroke="#263238" stroke-miterlimit="10" stroke-linecap="round"/>
<path d="M194.592 144.12L192.872 138.92" stroke="#919191" stroke-miterlimit="10" stroke-linecap="round"/>
<path d="M211.832 109.4C211.832 109.4 209.912 113.36 209.832 115.2C209.752 117.04 209.592 120.76 210.592 124.96C211.592 129.16 212.712 135.2 212.712 135.64C212.712 136.08 212.632 136.56 212.032 136.72C211.432 136.88 209.272 136.8 208.592 136.64C207.912 136.48 207.072 136.12 207.072 136.12L201.032 148.32C201.032 148.32 204.152 150.52 211.952 150.52C219.752 150.52 224.792 148.92 227.312 145.8C229.832 142.68 231.112 137.08 231.112 129.16C231.112 121.24 228.672 114.04 225.832 109.68C222.992 105.32 218.672 104.04 218.672 104.04L211.832 109.4Z" fill="#92E3A9" stroke="#263238" stroke-miterlimit="10" stroke-linecap="round"/>
<path d="M217.552 101.08L211.312 107.8L211.752 110.32L219.752 103.68L217.552 101.08Z" fill="#92E3A9" stroke="#263238" stroke-miterlimit="10" stroke-linecap="round"/>
<path d="M190.912 127.36C190.912 127.36 183.352 124.84 182.992 124.76C182.592 124.68 181.152 125.92 180.632 126.2C180.112 126.52 179.192 128.28 180.392 129.16C181.632 130.08 183.672 129.16 184.432 129.08C185.192 129 188.632 130.24 188.632 130.24C188.632 130.24 192.392 131 192.912 130.24C193.432 129.48 192.672 129.08 192.672 128.56C192.672 128.04 190.912 127.36 190.912 127.36Z" fill="white" stroke="#263238" stroke-miterlimit="10" stroke-linecap="round"/>
<path d="M182.512 127.12C180.912 126.36 180.232 126.72 180.232 126.72L180.112 126.76C179.712 127.44 179.512 128.52 180.392 129.16C181.632 130.08 183.672 129.16 184.432 129.08C185.192 129 188.632 130.24 188.632 130.24C188.632 130.24 190.272 130.56 191.552 130.56C188.992 129.64 183.712 127.68 182.512 127.12Z" fill="white" stroke="#263238" stroke-miterlimit="10" stroke-linecap="round"/>
<path d="M200.752 130.08L198.552 129.68C198.552 129.68 198.032 128.52 196.952 127.84C195.872 127.16 194.872 127.08 194.112 127.16C193.352 127.24 190.672 127.4 190.352 127.16C190.032 126.92 192.632 128.52 192.632 128.52C192.632 128.52 191.552 129.52 191.112 129.68C190.672 129.84 189.032 130.12 188.592 130.2C188.152 130.28 188.152 131.04 189.112 131.28C190.072 131.52 191.032 131.36 191.032 131.36C191.032 131.36 191.352 131.68 193.312 131.68C195.312 131.68 195.912 131.52 195.912 131.52L199.592 133.72L200.752 130.08Z" fill="white" stroke="#263238" stroke-miterlimit="10" stroke-linecap="round"/>
<path d="M199.632 133.76L200.792 130.08L198.592 129.68C198.592 129.68 197.992 131.28 197.752 132.6L199.632 133.76Z" fill="#92E3A9" stroke="#263238" stroke-miterlimit="10" stroke-linecap="round"/>
<path d="M217.472 109.92C217.472 109.92 212.832 107.4 211.072 110.24C209.312 113.08 209.232 129.8 209.232 129.8C209.232 129.8 201.672 129.96 200.752 130.12C199.832 130.28 199.392 132.64 199.592 133.8C199.792 134.96 199.272 134.96 205.072 136.32C210.872 137.68 214.312 138.32 215.672 137.6C217.032 136.92 217.192 128.28 217.872 124.64C218.552 120.96 218.632 118.52 218.632 118.52" fill="#92E3A9"/>
<path d="M217.472 109.92C217.472 109.92 212.832 107.4 211.072 110.24C209.312 113.08 209.232 129.8 209.232 129.8C209.232 129.8 201.672 129.96 200.752 130.12C199.832 130.28 199.392 132.64 199.592 133.8C199.792 134.96 199.272 134.96 205.072 136.32C210.872 137.68 214.312 138.32 215.672 137.6C217.032 136.92 217.192 128.28 217.872 124.64C218.552 120.96 218.632 118.52 218.632 118.52" stroke="#263238" stroke-miterlimit="10" stroke-linecap="round"/>
<path d="M218.392 122.84L219.832 118.64" stroke="#263238" stroke-miterlimit="10" stroke-linecap="round"/>
<path d="M209.232 129.8C209.232 129.8 209.832 132.32 210.832 133" stroke="#263238" stroke-miterlimit="10" stroke-linecap="round"/>
<path d="M216.432 153.12L229.272 159.24" stroke="#263238" stroke-miterlimit="10" stroke-linecap="round"/>
<path d="M227.112 153.8L214.512 158.88" stroke="#263238" stroke-miterlimit="10" stroke-linecap="round"/>
<path d="M208.752 150.8L202.952 172.88C202.832 173.32 203.152 173.72 203.592 173.72C203.872 173.72 204.112 173.56 204.232 173.28L211.992 151.08L208.752 150.8Z" fill="white" stroke="#263238" stroke-miterlimit="10" stroke-linecap="round"/>
<path d="M224.632 150.8L230.432 172.88C230.552 173.32 230.232 173.72 229.792 173.72C229.512 173.72 229.272 173.56 229.152 173.28L221.392 151.08L224.632 150.8Z" fill="white" stroke="#263238" stroke-miterlimit="10" stroke-linecap="round"/>
<path d="M213.872 150.8L208.072 172.88C207.952 173.32 208.272 173.72 208.712 173.72C208.992 173.72 209.232 173.56 209.352 173.28L217.112 151.08L213.872 150.8Z" fill="#BABABA" stroke="#263238" stroke-miterlimit="10" stroke-linecap="round"/>
<path d="M229.752 150.8L235.552 172.88C235.672 173.32 235.352 173.72 234.912 173.72C234.632 173.72 234.392 173.56 234.272 173.28L226.512 151.08L229.752 150.8Z" fill="#BABABA" stroke="#263238" stroke-miterlimit="10" stroke-linecap="round"/>
<path d="M211.352 152.88L224.152 159" stroke="#263238" stroke-miterlimit="10" stroke-linecap="round"/>
<path d="M221.992 153.56L209.432 158.68" stroke="#263238" stroke-miterlimit="10" stroke-linecap="round"/>
<path d="M237.032 126.28C237.032 126.28 234.192 125.84 229.672 128.84C227.312 130.4 224.832 131.4 219.632 133C214.392 134.6 211.152 134.04 209.512 136.6C207.872 139.16 203.152 150.28 203.152 150.28C203.152 150.28 223.672 153.76 230.472 150.96C237.312 148.16 237.912 139.2 236.992 135.16C236.072 131.12 237.032 126.28 237.032 126.28Z" fill="#263238" stroke="#263238" stroke-miterlimit="10" stroke-linecap="round"/>
<path d="M141.032 91.8001C141.032 91.8001 135.392 94.4401 132.992 96.1601C130.592 97.8801 129.072 98.8001 128.632 100.68C128.192 102.56 125.912 111.88 125.792 112.4C125.712 112.92 129.032 115.04 130.592 114.52C132.112 114 132.392 112.8 132.392 112.8H135.632L135.712 117H156.432L157.552 112.48L162.432 112.56C162.432 112.56 166.552 111.44 165.672 109.2C164.832 106.96 160.552 98.5201 157.792 96.1201C155.072 93.7201 151.192 92.3601 151.192 92.3601C149.592 91.4401 147.272 90.0801 141.032 91.8001Z" fill="white" stroke="#263238" stroke-miterlimit="10" stroke-linecap="round"/>
<path d="M161.392 102.72C160.432 100.08 159.232 97.3599 157.792 96.1199C155.072 93.7199 151.192 92.3599 151.192 92.3599C149.552 91.3999 147.272 90.0399 140.992 91.7599C140.992 91.7599 135.352 94.3999 132.952 96.1199C130.552 97.8399 129.032 98.7599 128.592 100.64C128.472 101.16 128.272 102.32 128.072 103.72L135.512 107.12L135.592 112.76L135.672 116.96H156.392L157.512 112.44L157.152 106.2L161.392 102.72Z" fill="#263238" stroke="#263238" stroke-miterlimit="10" stroke-linecap="round"/>
<path d="M138.472 106.08C138.472 106.08 130.072 108.8 128.632 109.32C127.192 109.84 125.992 110.76 125.792 112.4C125.632 114.04 126.752 115.64 128.872 115.72C130.992 115.8 134.672 112.4 135.712 111.52C136.752 110.68 138.432 109.2 138.432 109.2V106.08H138.472Z" fill="white" stroke="#263238" stroke-miterlimit="10" stroke-linecap="round"/>
<path d="M160.352 105.32C160.352 105.32 163.432 107.28 164.952 108.24C166.472 109.2 166.232 111.4 165.552 112.36C164.872 113.32 162.992 113.4 161.432 112.36C159.912 111.32 157.912 108.68 157.912 108.68L160.152 105.96L160.352 105.32Z" fill="white" stroke="#263238" stroke-miterlimit="10" stroke-linecap="round"/>
<path d="M160.632 113.68H136.912L138.112 99.3198H161.792L160.632 113.68Z" fill="#BABABA" stroke="#263238" stroke-miterlimit="10" stroke-linecap="round"/>
<path d="M157.992 108.88L150.872 116.92H143.192L134.112 109.24C134.112 109.24 132.912 111.72 132.592 114.64C132.232 117.56 132.352 125.92 133.872 127.72C135.392 129.52 140.712 130.72 145.152 130.44C149.592 130.2 152.432 129.08 154.392 127.36C156.352 125.64 160.712 119.56 161.392 114.36C162.112 109.16 160.712 108.04 157.992 108.88Z" fill="white" stroke="#263238" stroke-miterlimit="10" stroke-linecap="round"/>
<path d="M150.872 116.92C150.872 116.92 147.872 120.6 147.432 121.96L150.872 116.92Z" fill="white"/>
<path d="M150.872 116.92C150.872 116.92 147.872 120.6 147.432 121.96" stroke="#263238" stroke-miterlimit="10" stroke-linecap="round"/>
<path d="M140.952 90.7599C140.952 90.7599 141.912 95.6399 142.472 97.0799C143.072 98.5199 144.112 100.24 146.232 99.3999C148.352 98.5599 149.152 94.7999 149.392 93.5999C149.632 92.3999 150.152 91.7199 150.152 91.7199C150.152 91.7199 143.912 88.2799 140.952 90.7599Z" fill="white" stroke="#263238" stroke-miterlimit="10" stroke-linecap="round"/>
<path d="M140.072 85.2797C140.072 85.2797 140.592 89.7197 140.912 90.7597C141.272 91.7997 143.472 94.7997 144.432 95.3597C145.392 95.9597 146.392 96.3197 147.432 95.7197C148.472 95.1197 149.672 93.4797 150.152 91.6797C150.672 89.8797 150.912 86.0397 150.912 86.0397C150.912 86.0397 150.472 84.6797 147.752 83.6397C145.032 82.6397 140.072 85.2797 140.072 85.2797Z" fill="white" stroke="#263238" stroke-miterlimit="10" stroke-linecap="round"/>
<path d="M143.392 87.3197C143.392 87.3197 143.752 86.7597 144.712 86.8797" stroke="#263238" stroke-miterlimit="10" stroke-linecap="round"/>
<path d="M147.912 87.0398C147.912 87.0398 149.112 86.8398 149.712 87.4798" stroke="#263238" stroke-miterlimit="10" stroke-linecap="round"/>
<path d="M147.112 87.2397V91.5197H145.832" stroke="#263238" stroke-miterlimit="10" stroke-linecap="round"/>
<path d="M144.512 88.7195C144.512 89.0795 144.352 89.3995 144.112 89.3995C143.912 89.3995 143.712 89.0795 143.712 88.7195C143.712 88.3595 143.872 88.0396 144.112 88.0396C144.352 88.0396 144.512 88.3195 144.512 88.7195Z" fill="#263238"/>
<path d="M148.792 88.7195C148.792 89.0795 148.632 89.3995 148.392 89.3995C148.192 89.3995 147.992 89.0795 147.992 88.7195C147.992 88.3595 148.152 88.0396 148.392 88.0396C148.632 88.0396 148.792 88.3195 148.792 88.7195Z" fill="#263238"/>
<path d="M145.392 92.9995C145.392 92.9995 146.352 93.9595 147.272 92.9995" stroke="#263238" stroke-miterlimit="10" stroke-linecap="round"/>
<path d="M140.352 86.3199C140.352 86.3199 139.512 85.3599 138.992 86.4799C138.472 87.5999 140.632 89.5599 140.632 89.5599L140.352 86.3199Z" fill="white" stroke="#263238" stroke-miterlimit="10" stroke-linecap="round"/>
<path d="M150.872 86.9996C150.872 86.9996 152.392 85.9596 152.152 87.4396C151.912 88.8796 150.632 89.8396 150.632 89.8396L150.872 86.9996Z" fill="white" stroke="#263238" stroke-miterlimit="10" stroke-linecap="round"/>
<path d="M140.072 85.28C140.072 85.28 142.792 84.08 145.552 83.92C149.312 83.68 151.192 84.76 151.192 84.76C151.192 84.76 150.672 79.36 150.512 78.6C150.352 77.84 148.192 76.12 145.472 76.2C142.752 76.28 139.392 78.32 139.392 79.44C139.392 80.56 140.072 85.28 140.072 85.28Z" fill="#92E3A9" stroke="#263238" stroke-miterlimit="10" stroke-linecap="round"/>
<path d="M140.072 85.2798C140.072 85.2798 140.312 86.9998 141.512 86.9998C142.712 86.9998 142.952 85.7998 146.032 85.8798C149.112 85.9598 150.232 87.7598 151.232 86.9198C152.272 86.0798 151.152 84.7998 151.152 84.7998C151.152 84.7998 146.832 81.3598 140.072 85.2798Z" fill="white" stroke="#263238" stroke-miterlimit="10" stroke-linecap="round"/>
<path d="M146.072 128.44C146.072 128.44 144.712 120.6 142.232 114.96C139.752 109.32 139.232 107.6 136.512 107.6C133.792 107.6 133.272 110.6 132.912 111.96C132.552 113.32 134.632 120 135.832 121.8C137.032 123.6 143.512 135.44 143.512 135.44L146.712 131.6L146.072 128.44Z" fill="white" stroke="#263238" stroke-miterlimit="10" stroke-linecap="round"/>
<path d="M153.032 129.04C153.032 129.04 153.872 121.44 155.592 115.52C157.312 109.6 157.632 107.84 160.312 107.48C163.032 107.12 163.912 110.04 164.432 111.36C164.952 112.68 163.752 119.56 162.792 121.48C161.832 123.4 155.752 134.32 155.752 134.32L152.072 131.76L153.032 129.04Z" fill="white" stroke="#263238" stroke-miterlimit="10" stroke-linecap="round"/>
<path d="M149.832 125.4C149.192 124.8 146.992 123.84 145.272 126.12C143.592 128.36 143.592 131.8 143.592 131.8C143.592 131.8 142.952 134.56 143.512 135.48C144.072 136.36 146.472 136.8 147.352 135.44C148.232 134.08 148.552 131.84 148.552 131.84C148.552 131.84 149.312 130.28 149.952 129.08C150.552 127.76 150.472 125.96 149.832 125.4Z" fill="white" stroke="#263238" stroke-miterlimit="10" stroke-linecap="round"/>
<path d="M145.952 126.08H149.832" stroke="#263238" stroke-miterlimit="10" stroke-linecap="round"/>
<path d="M144.832 127.92H149.232" stroke="#263238" stroke-miterlimit="10" stroke-linecap="round"/>
<path d="M144.512 130.32H148.552" stroke="#263238" stroke-miterlimit="10" stroke-linecap="round"/>
<path d="M144.072 132.84H147.392" stroke="#263238" stroke-miterlimit="10" stroke-linecap="round"/>
<path d="M153.952 124.52C154.832 124.16 157.312 124.04 157.792 126.68C158.272 129.32 156.672 132.44 156.672 132.44C156.672 132.44 155.952 135.2 154.992 135.84C154.032 136.48 151.672 136.08 151.512 134.52C151.352 132.96 152.112 130.8 152.112 130.8C152.112 130.8 152.152 129.12 152.152 127.8C152.192 126.48 153.112 124.84 153.952 124.52Z" fill="white" stroke="#263238" stroke-miterlimit="10" stroke-linecap="round"/>
<path d="M153.232 126.16H156.752" stroke="#263238" stroke-miterlimit="10" stroke-linecap="round"/>
<path d="M153.032 128.36H156.952" stroke="#263238" stroke-miterlimit="10" stroke-linecap="round"/>
<path d="M152.872 130.48H156.432" stroke="#263238" stroke-miterlimit="10" stroke-linecap="round"/>
<path d="M152.192 132.68H155.512" stroke="#263238" stroke-miterlimit="10" stroke-linecap="round"/>
<path d="M64.0717 60.6C64.0717 60.6 63.5917 62.12 62.8717 63.52C62.1517 64.92 61.3917 64.92 61.9917 65.84C62.5917 66.76 63.5117 66.32 62.9917 67.12C62.4717 67.92 61.5117 68.36 61.5117 68.36C61.5117 68.36 59.7117 71.28 58.9517 72.08C58.1917 72.88 54.9917 72.08 54.2717 71.6C53.5517 71.12 53.5917 71.56 53.5917 71.56C53.5917 71.56 52.8717 74.92 52.8317 75.2C52.7917 75.44 52.8317 76.24 52.8317 76.24L46.9517 71.68L47.1117 68.96C47.1117 68.96 49.9917 67.68 52.9517 61.04C55.9517 54.44 52.4317 52.16 58.7517 54.6C65.0717 57 64.0717 60.6 64.0717 60.6Z" fill="white" stroke="#263238" stroke-miterlimit="10" stroke-linecap="round"/>
<path d="M61.0317 64.8401C60.9917 65.4801 60.7517 65.9601 60.5117 65.9601C60.2717 65.9201 60.1117 65.4001 60.1917 64.7601C60.2317 64.1201 60.4717 63.6401 60.7117 63.6401C60.9117 63.6801 61.0717 64.2001 61.0317 64.8401Z" fill="#263238"/>
<path d="M59.9517 62.3201C59.9517 62.3201 61.2717 61.8401 62.0717 62.6801" stroke="#263238" stroke-miterlimit="10" stroke-linecap="round"/>
<path d="M60.0315 69.3599C60.0315 69.3599 59.2715 69.1999 58.8315 68.3999" stroke="#263238" stroke-miterlimit="10" stroke-linecap="round"/>
<path d="M58.9917 56.56C58.9917 56.56 59.1917 58.28 56.5117 62.28C53.8317 66.24 52.9117 67.04 52.5517 69.4C52.1917 71.76 52.1117 72.28 52.1117 72.28C52.1117 72.28 48.1117 70.12 45.5517 68.72C43.0317 67.28 40.3517 63.28 41.1117 59.64C41.8717 56 42.7117 51.12 48.8317 49.84C54.9517 48.56 58.3517 51.88 58.3517 51.88C58.3517 51.88 60.7117 50.64 64.5917 52C68.5117 53.36 65.8317 60.36 65.1917 60.8C64.5517 61.24 63.8317 61.64 63.8317 61.64C63.8317 61.64 63.1517 60.36 61.7117 59.4C60.3117 58.4 58.9917 56.56 58.9917 56.56Z" fill="#263238" stroke="#263238" stroke-miterlimit="10" stroke-linecap="round"/>
<path d="M57.752 134.96C57.752 134.96 55.832 141.24 54.912 146.72C53.992 152.24 51.912 161.24 51.912 163.2C51.912 165.16 52.992 168.44 52.992 168.44C52.992 168.44 55.152 170.28 56.712 171.24C58.272 172.24 60.152 173.08 59.872 173.56C59.552 174.04 59.312 174.2 57.152 174C55.032 173.8 47.112 173.12 47.112 173.12C47.112 173.12 46.912 172.4 47.392 170.92C47.872 169.4 48.192 167.64 48.392 166.2C48.592 164.76 48.272 166.72 47.832 159.88C47.392 153.04 45.472 153.48 47.672 147.08C49.872 140.64 50.272 138.8 50.312 138.56C50.352 138.32 50.152 133.72 50.152 133.72L57.752 134.96Z" fill="white" stroke="#263238" stroke-miterlimit="10" stroke-linecap="round"/>
<path d="M55.3519 170.32L55.0319 171.8L47.7119 169.84C47.6319 170.24 47.5119 170.6 47.3919 170.96C46.9119 172.48 47.1119 173.16 47.1119 173.16C47.1119 173.16 55.0319 173.84 57.1519 174.04C59.2719 174.24 59.5519 174.08 59.8719 173.6C60.1919 173.12 58.2719 172.24 56.7119 171.28C56.2719 171 55.7919 170.64 55.3519 170.32Z" fill="#263238" stroke="#263238" stroke-miterlimit="10" stroke-linecap="round"/>
<path d="M44.5117 133L46.1117 139.4C46.1117 139.4 43.0317 144.96 42.5117 148.36C41.9517 151.76 40.5917 164.56 39.9517 166.84C39.3117 169.12 38.2717 174.08 38.5917 175.72C38.8717 177.36 39.9117 178.32 40.8317 177.72C41.7517 177.12 42.9117 175.68 42.8717 173.08C42.8317 170.52 42.8317 167.48 43.3117 166.16C43.7917 164.84 51.1917 147.56 52.3917 143.8C53.5917 140.04 53.6717 138.16 53.8317 137.16C53.9917 136.16 53.8717 132.8 53.8717 132.8L44.5117 133Z" fill="white" stroke="#263238" stroke-miterlimit="10" stroke-linecap="round"/>
<path d="M39.2317 169.72C38.7517 172 38.3517 174.64 38.5517 175.76C38.8317 177.4 39.8717 178.36 40.7917 177.76C41.7117 177.16 42.8717 175.72 42.8317 173.12C42.8317 172.72 42.8317 172.32 42.8317 171.88C42.0317 174.28 41.3517 175.12 40.2317 174.6C38.8717 174 39.1917 170.28 39.2317 169.72Z" fill="#263238" stroke="#263238" stroke-miterlimit="10" stroke-linecap="round"/>
<path d="M66.1918 92.0398L64.6318 93.1998L56.4318 94.1998L56.3918 100.36L65.3518 95.8398L66.7518 95.7198L69.3118 95.5998L69.9518 91.2798L66.1918 92.0398Z" fill="white" stroke="#263238" stroke-miterlimit="10" stroke-linecap="round"/>
<path d="M61.2718 93.6001L56.4318 94.2001L56.3918 100.36L61.6318 97.7201L61.2718 93.6001Z" fill="#92E3A9" stroke="#263238" stroke-miterlimit="10" stroke-linecap="round"/>
<path d="M70.7517 89.88C70.7517 89.88 73.7517 87.84 75.1117 86.4C76.4317 84.96 77.8317 82.96 77.8317 82.96C77.8317 82.96 79.7917 86.32 80.4317 86.64C81.0717 86.96 82.7117 87.08 82.7117 87.08C82.7117 87.08 81.0317 88.84 77.9917 90.88C74.9917 92.92 70.7117 96.36 70.1517 97.16C69.5517 97.96 69.1117 98.44 69.1117 98.44L68.2717 92.36L70.7517 89.88Z" fill="white" stroke="#263238" stroke-miterlimit="10" stroke-linecap="round"/>
<path d="M77.2717 91.32C77.2717 91.32 79.0317 89.12 79.8717 87.32C80.6317 85.68 80.5917 84.04 80.5917 84.04C80.5917 84.04 82.9117 85.88 82.8317 87.08C82.7917 87.08 78.1517 90.96 77.2717 91.32Z" fill="white" stroke="#263238" stroke-miterlimit="10" stroke-linecap="round"/>
<path d="M65.4319 93C65.4319 93 66.8319 89.84 68.9119 89.6C70.9919 89.36 72.1919 89.56 72.6319 89.32C73.0719 89.12 73.1919 89.88 72.3919 90.32C71.5919 90.76 69.9919 91.24 69.9919 91.24C69.9919 91.24 68.7919 93.12 67.9919 93.4C67.1919 93.68 67.1919 93.68 67.1919 93.68" fill="white"/>
<path d="M65.4319 93C65.4319 93 66.8319 89.84 68.9119 89.6C70.9919 89.36 72.1919 89.56 72.6319 89.32C73.0719 89.12 73.1919 89.88 72.3919 90.32C71.5919 90.76 69.9919 91.24 69.9919 91.24C69.9919 91.24 68.7919 93.12 67.9919 93.4C67.1919 93.68 67.1919 93.68 67.1919 93.68" stroke="#263238" stroke-miterlimit="10" stroke-linecap="round"/>
<path d="M43.0718 98.4399C43.0718 98.4399 38.5918 103.44 37.3118 109.2C36.0318 114.92 39.4318 124.08 40.3118 125.76C41.1918 127.48 43.4318 135.6 43.4318 135.6L57.9118 135.72C57.9118 135.72 58.9118 117.36 57.9118 110.32C56.9118 103.28 57.7918 99.7599 57.7918 99.7599L43.0718 98.4399Z" fill="#263238" stroke="#263238" stroke-miterlimit="10" stroke-linecap="round"/>
<path d="M46.9517 71.6402C46.9517 71.6402 42.5117 76.1602 41.5117 80.0002C40.4717 83.8802 41.6717 93.0002 42.0717 95.0002C42.5117 97.0002 43.0717 98.4402 43.0717 98.4402L57.8317 99.7202C57.8317 99.7202 60.0717 94.8402 60.0717 91.8402C60.0717 88.8402 58.8317 84.6002 57.5917 82.0802C56.3517 79.5602 52.8717 75.1602 52.8717 75.1602C52.8717 75.1602 48.4717 71.0002 46.9517 71.6402Z" fill="#92E3A9" stroke="#263238" stroke-miterlimit="10" stroke-linecap="round"/>
<path d="M57.5519 82.1197C56.3119 79.5997 52.8319 75.1997 52.8319 75.1997C52.8319 75.1997 48.4719 71.0397 46.9519 71.6797C46.9519 71.6797 46.0319 72.6397 44.9119 74.0397C46.7519 74.3997 49.5919 74.9997 52.3919 77.1997C54.1519 78.6397 56.5919 81.7597 58.1119 83.3997C57.9119 82.9197 57.7119 82.4797 57.5519 82.1197Z" fill="#92E3A9" stroke="#263238" stroke-miterlimit="10" stroke-linecap="round"/>
<path d="M74.3518 83.4802C74.3518 83.4802 74.6318 81.2002 73.7518 81.7202C72.8718 82.2402 73.7118 83.1602 73.0718 83.5602C72.3918 83.9202 74.3518 83.4802 74.3518 83.4802Z" fill="white" stroke="#263238" stroke-miterlimit="10" stroke-linecap="round"/>
<path d="M71.6316 85.84C71.6316 85.84 73.6316 85.4 74.2716 85.12C74.9116 84.84 75.9916 83.2 75.3916 83.16C74.7916 83.12 74.1116 84 73.7516 84.2C73.3916 84.44 72.4316 84.6 72.4316 84.6L71.6316 85.84Z" fill="white" stroke="#263238" stroke-miterlimit="10" stroke-linecap="round"/>
<path d="M61.7517 84.9604C61.7517 84.9604 66.0717 81.9204 66.7517 81.9604C67.4317 82.0004 68.4717 82.7204 69.2317 82.8804C69.9917 83.0404 72.1117 82.2804 71.8717 83.0404C71.6317 83.8004 69.9117 83.8004 69.9117 83.8004C69.9117 83.8004 71.8717 83.8004 72.4317 83.6004C72.9517 83.4004 74.5517 82.0004 74.8317 82.6804C75.1117 83.4004 72.5917 84.8804 71.6317 85.8404C70.6717 86.8004 67.8317 85.9204 67.1117 85.6004C66.3517 85.2804 65.7117 85.1204 65.7117 85.1204L62.5517 87.9204L61.7517 84.9604Z" fill="white" stroke="#263238" stroke-miterlimit="10" stroke-linecap="round"/>
<path d="M69.9118 83.8001L68.1118 83.8801L67.3518 83.6401" fill="white"/>
<path d="M69.9118 83.8001L68.1118 83.8801L67.3518 83.6401" stroke="#263238" stroke-miterlimit="10" stroke-linecap="round"/>
<path d="M45.8718 78.2397C45.8718 78.2397 43.1518 79.7997 43.4318 82.7597C43.6718 85.7197 46.7918 102.2 47.8318 102.28C48.8718 102.36 63.6318 87.5197 63.6318 87.5197L61.7918 84.9597L53.3118 89.1997L50.7518 80.9997" fill="#92E3A9"/>
<path d="M45.8718 78.2397C45.8718 78.2397 43.1518 79.7997 43.4318 82.7597C43.6718 85.7197 46.7918 102.2 47.8318 102.28C48.8718 102.36 63.6318 87.5197 63.6318 87.5197L61.7918 84.9597L53.3118 89.1997L50.7518 80.9997" stroke="#263238" stroke-miterlimit="10" stroke-linecap="round"/>
<path d="M53.3118 89.2002L48.3918 92.6402" stroke="#263238" stroke-miterlimit="10" stroke-linecap="round"/>
</svg>
