<svg width="201" height="196" viewBox="0 0 201 196" fill="none" xmlns="http://www.w3.org/2000/svg">
<path d="M181.912 159C181.192 160.12 180.472 161.2 179.712 162.28C169.512 176.48 152.872 185.96 136.872 190.04C129.872 191.84 122.672 192.68 115.512 192.76C68.6315 193.2 52.4315 154.08 37.5915 143.72C22.7515 133.36 0.0715349 115.72 3.91154 79.9998C6.83154 52.8398 22.9515 27.2398 51.4715 16.1198C54.6315 14.8798 57.9115 13.8398 61.3515 12.9998C67.7515 11.3998 74.6715 10.4798 82.1115 10.3598C103.472 9.95978 120.672 15.5598 137.272 28.9598C141.152 32.0798 144.952 35.5998 150.072 36.0798C153.792 36.4398 157.352 35.1998 153.552 31.5198C149.112 27.1598 154.592 18.9998 166.032 25.0798C185.152 35.2398 192.552 56.2398 195.752 77.5198C199.632 103.64 196.592 135.88 181.912 159Z" fill="#92E3A9"/>
<path opacity="0.7" d="M181.912 159C181.192 160.12 180.472 161.2 179.712 162.28C169.512 176.48 152.872 185.96 136.872 190.04C129.872 191.84 122.672 192.68 115.512 192.76C68.6315 193.2 52.4315 154.08 37.5915 143.72C22.7515 133.36 0.0715349 115.72 3.91154 79.9998C6.83154 52.8398 22.9515 27.2398 51.4715 16.1198C54.6315 14.8798 57.9115 13.8398 61.3515 12.9998C67.7515 11.3998 74.6715 10.4798 82.1115 10.3598C103.472 9.95978 120.672 15.5598 137.272 28.9598C141.152 32.0798 144.952 35.5998 150.072 36.0798C153.792 36.4398 157.352 35.1998 153.552 31.5198C149.112 27.1598 154.592 18.9998 166.032 25.0798C185.152 35.2398 192.552 56.2398 195.752 77.5198C199.632 103.64 196.592 135.88 181.912 159Z" fill="white"/>
<path d="M6.15137 174.8H196.911" stroke="#263238" stroke-miterlimit="10" stroke-linecap="round"/>
<path d="M178.294 31.6251C180.263 24.4681 176.058 17.0698 168.901 15.1006C161.744 13.1313 154.345 17.3368 152.376 24.4938C150.407 31.6508 154.612 39.049 161.769 41.0183C168.926 42.9875 176.325 38.782 178.294 31.6251Z" stroke="#263238" stroke-miterlimit="10"/>
<path d="M176.967 30.7222C178.429 24.3035 174.411 17.9149 167.993 16.4527C161.574 14.9906 155.185 19.0087 153.723 25.4273C152.261 31.846 156.279 38.2346 162.698 39.6967C169.117 41.1589 175.505 37.1408 176.967 30.7222Z" stroke="#263238" stroke-miterlimit="10"/>
<path d="M170.872 28.0801H165.352V36.1201" stroke="#263238" stroke-miterlimit="10"/>
<path d="M12.1914 12.4399V85.1999H67.9114V12.4399H12.1914ZM64.8714 81.2399H15.2314V16.3999H64.8714V81.2399Z" stroke="#263238" stroke-miterlimit="10"/>
<path d="M37.5117 81.2401C40.6317 79.0401 43.9517 76.8001 47.3517 74.5201C53.2317 70.5601 59.3117 66.5201 64.8717 62.6401" stroke="#263238" stroke-miterlimit="10"/>
<path d="M64.8719 40.5598C61.5919 41.8798 58.2319 43.4798 54.8719 45.1598C46.2319 49.4798 37.7519 54.3598 31.6719 57.3198C24.8319 60.6398 21.1119 61.5198 23.7519 56.1998C24.3519 54.9998 25.1919 53.7598 26.2319 52.4798C29.2719 48.7598 34.0319 44.8398 39.5519 40.9598C47.3119 35.5198 56.6319 30.1998 64.8719 25.8398" stroke="#263238" stroke-miterlimit="10"/>
<path d="M64.8714 19.3999C56.9514 22.3599 46.9114 27.3999 34.9114 35.9599C34.3914 36.3199 33.8714 36.6799 33.3914 37.0799C28.2714 40.8399 24.2314 44.5599 20.9914 48.1999C18.7114 50.7599 16.7914 53.2399 15.2314 55.6799" stroke="#263238" stroke-miterlimit="10"/>
<path d="M15.2314 35.6399C17.0314 33.9599 18.9114 32.2399 20.9114 30.4799C22.1514 29.3999 23.3514 28.3199 24.4714 27.3199C29.5114 22.8399 33.3914 19.2799 36.3514 16.3999" stroke="#263238" stroke-miterlimit="10"/>
<path d="M15.2314 73.72C21.9914 68.24 29.0714 63.44 27.6714 68.64C26.6714 72.36 23.3514 76.96 19.6314 81.24" stroke="#263238" stroke-miterlimit="10"/>
<path d="M18.7109 16.3999C19.9509 19.5599 21.8309 23.4399 24.4709 27.3199C26.7909 30.7199 29.7509 34.1599 33.3909 37.0399C35.2709 38.5199 37.3109 39.8399 39.5509 40.9599C40.3909 41.3999 41.2709 41.7999 42.1909 42.1599C45.8309 43.6399 50.1509 44.5599 54.8709 45.1199C58.0709 45.4799 61.4709 45.7199 64.8709 45.7599" stroke="#263238" stroke-miterlimit="10"/>
<path d="M51.7514 81.2402C51.2714 80.4402 50.7514 79.6402 50.2314 78.8002C49.3514 77.3602 48.3514 75.9202 47.3514 74.5202C42.9514 68.4402 37.4314 62.6002 31.6714 57.3202C29.8714 55.6402 28.0314 54.0402 26.2314 52.4802C24.4714 50.9602 22.7114 49.5202 20.9914 48.1602C19.0314 46.6002 17.0714 45.0802 15.2314 43.6802" stroke="#263238" stroke-miterlimit="10"/>
<path d="M35.9918 29.4802C37.8696 29.4802 39.3918 27.9579 39.3918 26.0802C39.3918 24.2024 37.8696 22.6802 35.9918 22.6802C34.114 22.6802 32.5918 24.2024 32.5918 26.0802C32.5918 27.9579 34.114 29.4802 35.9918 29.4802Z" stroke="#263238" stroke-miterlimit="10"/>
<path d="M54.4445 62.4775C54.8566 59.9482 53.1403 57.5638 50.611 57.1517C48.0817 56.7396 45.6972 58.456 45.2852 60.9853C44.8731 63.5145 46.5895 65.899 49.1187 66.3111C51.648 66.7231 54.0325 65.0068 54.4445 62.4775Z" stroke="#263238" stroke-miterlimit="10"/>
<path d="M20.9113 38.16C21.3752 38.16 21.7513 37.7839 21.7513 37.32C21.7513 36.8561 21.3752 36.48 20.9113 36.48C20.4474 36.48 20.0713 36.8561 20.0713 37.32C20.0713 37.7839 20.4474 38.16 20.9113 38.16Z" stroke="#263238" stroke-miterlimit="10"/>
<path d="M35.4318 76.0399C36.448 76.0399 37.2718 75.2161 37.2718 74.1999C37.2718 73.1837 36.448 72.3599 35.4318 72.3599C34.4156 72.3599 33.5918 73.1837 33.5918 74.1999C33.5918 75.2161 34.4156 76.0399 35.4318 76.0399Z" stroke="#263238" stroke-miterlimit="10"/>
<path d="M57.3518 39.7598C58.8541 39.7598 60.0718 38.542 60.0718 37.0398C60.0718 35.5376 58.8541 34.3198 57.3518 34.3198C55.8496 34.3198 54.6318 35.5376 54.6318 37.0398C54.6318 38.542 55.8496 39.7598 57.3518 39.7598Z" stroke="#263238" stroke-miterlimit="10"/>
<path d="M163.231 74.4799C163.231 74.4799 163.231 85.6399 163.471 86.8399C163.711 88.0399 164.431 88.5199 164.431 88.5199L165.351 157.4L167.311 157.52L166.111 107.36L165.671 88.5199C165.671 88.5199 166.471 88.5599 166.551 86.5999C166.631 84.6399 167.671 76.6799 167.671 76.6799L166.911 76.4399C166.911 76.4399 165.711 86.2799 165.471 86.5999C165.231 86.8799 164.591 85.9999 164.471 85.0399C164.351 84.0799 164.471 74.3999 164.471 74.3999L163.231 74.4799Z" fill="#A6A6A6" stroke="#263238" stroke-miterlimit="10" stroke-linecap="round" stroke-linejoin="round"/>
<path d="M165.671 88.5199C165.751 88.4799 165.871 88.4399 165.951 88.3999C166.191 88.2399 166.511 87.7599 166.551 86.5999C166.591 84.6399 167.671 76.6799 167.671 76.6799L166.911 76.4399C166.911 76.4399 165.711 86.2799 165.471 86.5999C165.231 86.8799 164.591 85.9999 164.471 85.0399C164.351 84.0799 164.471 74.3999 164.471 74.3999L163.271 74.4399C163.271 74.4399 163.271 85.5999 163.511 86.7999C163.751 87.9999 164.471 88.4799 164.471 88.4799C164.471 88.4799 164.711 88.8799 165.671 88.5199Z" fill="#263238" stroke="#263238" stroke-miterlimit="10" stroke-linecap="round" stroke-linejoin="round"/>
<path d="M165.272 74.3197C165.272 74.3197 167.552 71.1597 171.192 69.6797C174.832 68.1997 181.392 67.2397 181.632 67.2397C181.872 67.2397 175.472 69.2797 173.512 70.1597C171.552 71.0397 168.992 72.4397 168.192 73.2797C167.432 74.1197 163.792 79.9597 163.792 79.9597C163.792 79.9597 163.912 77.5197 165.272 74.3197Z" fill="#263238" stroke="#263238" stroke-miterlimit="10" stroke-linecap="round" stroke-linejoin="round"/>
<path d="M159.072 63.9999C159.072 63.9999 156.792 60.8399 153.152 59.3599C149.512 57.8799 142.952 56.9199 142.712 56.9199C142.472 56.9199 148.872 58.9599 150.832 59.8399C152.792 60.7199 155.352 62.1199 156.152 62.9599C156.912 63.7999 160.552 69.6399 160.552 69.6399C160.552 69.6399 160.432 67.2399 159.072 63.9999Z" fill="#92E3A9" stroke="#263238" stroke-miterlimit="10" stroke-linecap="round" stroke-linejoin="round"/>
<path d="M164.072 72.8797C164.072 72.8797 157.872 63.6797 156.152 62.9197C154.432 62.1597 153.032 61.4397 150.712 62.0397C148.392 62.6397 143.552 65.2797 142.672 65.7597C141.792 66.2397 140.592 67.0797 140.112 67.3197C139.632 67.5597 146.272 63.5997 149.952 63.1597C153.672 62.6797 154.312 64.4797 158.312 67.5597C162.272 70.6397 164.072 72.8797 164.072 72.8797Z" fill="#92E3A9" stroke="#263238" stroke-miterlimit="10" stroke-linecap="round" stroke-linejoin="round"/>
<path d="M164.072 72.8799C164.072 72.8799 159.952 66.3199 157.152 65.5999C154.352 64.8799 150.992 66.4399 149.872 67.0799C148.752 67.7199 147.072 71.4399 146.712 72.8799C146.352 74.3199 146.112 75.3999 146.112 75.3999C146.112 75.3999 149.712 69.5599 151.112 68.6399C152.552 67.7599 154.752 66.3599 155.392 66.2399C156.072 66.1599 162.632 70.1599 164.072 72.8799Z" fill="#92E3A9" stroke="#263238" stroke-miterlimit="10" stroke-linecap="round" stroke-linejoin="round"/>
<path d="M162.392 69.4799C162.392 69.4799 154.392 64.1199 150.232 64.1599C146.072 64.1999 140.872 65.7599 139.472 65.9999C138.112 66.2399 136.712 81.3599 136.712 81.3599C136.712 81.3599 142.632 67.6799 144.592 67.7199C146.552 67.7599 152.992 65.9199 155.152 66.6399C157.312 67.3999 162.392 69.4799 162.392 69.4799Z" fill="#92E3A9" stroke="#263238" stroke-miterlimit="10" stroke-linecap="round" stroke-linejoin="round"/>
<path d="M163.952 74.9997C163.952 74.9997 161.392 70.1597 159.232 69.0797C157.072 67.9997 154.952 69.9197 151.552 71.2397C148.152 72.5597 145.592 73.4397 145.592 73.4397C145.592 73.4397 151.192 73.7197 153.352 72.9597C155.512 72.1997 158.912 70.6797 159.672 70.7997C160.432 70.9197 163.952 74.9997 163.952 74.9997Z" fill="#92E3A9" stroke="#263238" stroke-miterlimit="10" stroke-linecap="round" stroke-linejoin="round"/>
<path d="M165.792 76.5998C165.792 76.5998 163.512 64.3598 163.512 59.8798C163.512 55.3998 163.552 53.4798 163.552 53.4798C163.552 53.4798 165.032 59.3198 165.232 60.0398C165.392 60.7598 165.392 61.9598 165.392 61.9598C165.392 61.9598 166.472 55.6398 167.832 54.0798C169.192 52.5198 170.952 51.7598 170.952 51.7598C170.952 51.7598 169.392 54.6798 169.112 55.5198C168.832 56.3598 170.352 54.3998 172.032 53.9198C173.712 53.4398 177.832 52.5598 177.832 52.5598C177.832 52.5598 172.352 54.7598 171.672 55.4798C171.032 56.1998 169.392 58.8398 169.272 59.1198C169.152 59.3998 167.192 62.8398 166.632 64.7998C166.152 66.7198 165.792 76.5998 165.792 76.5998Z" fill="#263238" stroke="#263238" stroke-miterlimit="10" stroke-linecap="round" stroke-linejoin="round"/>
<path d="M167.192 61.7198L171.832 58.5998C171.832 58.5998 177.552 57.7198 178.512 57.9998C179.472 58.2798 180.792 59.1998 180.792 59.1998C180.792 59.1998 177.072 58.8398 175.472 59.5998C173.872 60.3598 170.352 61.7598 168.232 64.5598C166.112 67.3598 165.352 70.4798 165.112 71.4798C164.872 72.4798 164.392 74.3998 164.392 74.3998C164.392 74.3998 163.312 69.1998 163.752 67.1198C164.192 65.0798 167.192 61.7198 167.192 61.7198Z" fill="#92E3A9" stroke="#263238" stroke-miterlimit="10" stroke-linecap="round" stroke-linejoin="round"/>
<path d="M161.312 58.4001C161.312 58.4001 164.072 62.1201 164.472 63.2801C164.872 64.4801 165.552 60.2801 168.472 57.7201C171.392 55.1601 180.832 53.6001 180.832 53.6001C180.832 53.6001 169.392 59.1601 167.632 61.3601C165.912 63.5601 164.232 67.3201 164.232 67.5201C164.232 67.7201 164.232 69.7201 164.232 69.7201L161.312 58.4001Z" fill="#92E3A9" stroke="#263238" stroke-miterlimit="10" stroke-linecap="round" stroke-linejoin="round"/>
<path d="M163.312 66.16C163.312 66.16 159.512 59.6 157.512 57.32C155.552 55.04 149.032 49.96 149.032 49.96C149.032 49.96 151.712 53.32 155.192 58C158.672 62.72 164.152 69.64 164.152 69.64L163.312 66.16Z" fill="#263238" stroke="#263238" stroke-miterlimit="10" stroke-linecap="round" stroke-linejoin="round"/>
<path d="M162.752 78.9599C162.752 78.9599 156.552 73.8799 153.272 75.1599C149.992 76.3999 146.232 80.3999 146.232 80.3999L145.392 84.9199C145.392 84.9199 149.792 78.5199 151.712 77.6399C153.632 76.7599 156.312 76.3999 157.632 76.6799C158.952 76.9599 162.832 80.2799 162.992 80.6799C163.192 81.1199 162.752 78.9599 162.752 78.9599Z" fill="#92E3A9" stroke="#263238" stroke-miterlimit="10" stroke-linecap="round" stroke-linejoin="round"/>
<path d="M161.152 63.9199C161.152 63.9199 159.952 62.8399 159.192 58.5599C158.432 54.2799 159.312 50.3999 159.312 50.3999C159.312 50.3999 159.712 52.9599 160.672 55.9599C161.632 58.9599 161.632 59.9999 163.072 64.4399C164.512 68.8399 164.672 76.7999 164.632 76.9599C164.552 77.1199 161.152 63.9199 161.152 63.9199Z" fill="#92E3A9" stroke="#263238" stroke-miterlimit="10" stroke-linecap="round" stroke-linejoin="round"/>
<path d="M170.952 65.1999C170.952 65.1999 172.792 62.7999 175.192 62.0799C177.592 61.3599 180.032 61.4399 180.032 61.4399C180.032 61.4399 176.432 60.4399 174.072 60.9199C171.672 61.3999 169.832 64.1999 168.992 66.8399C168.152 69.4799 168.152 75.5999 168.152 75.5999C168.152 75.5999 169.432 67.5199 170.952 65.1999Z" fill="#263238" stroke="#263238" stroke-miterlimit="10" stroke-linecap="round" stroke-linejoin="round"/>
<path d="M161.952 67.4801C161.952 67.4801 162.072 64.9601 160.072 62.0801C158.072 59.2001 154.032 57.5601 151.192 56.3601C148.352 55.1201 146.672 54.6401 146.672 54.6401C146.672 54.6401 153.032 59.6801 154.712 60.3601C156.392 61.0801 157.592 62.0401 158.752 63.4001C159.912 64.7601 161.992 69.7201 161.992 70.0401C162.032 70.3201 161.952 67.4801 161.952 67.4801Z" fill="#92E3A9" stroke="#263238" stroke-miterlimit="10" stroke-linecap="round" stroke-linejoin="round"/>
<path d="M169.152 71.08C169.152 71.08 171.432 67.92 175.072 66.44C178.712 64.96 185.272 64 185.512 64C185.752 64 179.352 66.04 177.392 66.92C175.432 67.8 172.872 69.2 172.072 70.04C171.312 70.88 167.672 76.72 167.672 76.72C167.672 76.72 167.792 74.32 169.152 71.08Z" fill="#92E3A9" stroke="#263238" stroke-miterlimit="10" stroke-linecap="round" stroke-linejoin="round"/>
<path d="M164.152 79.9998C164.152 79.9998 170.352 70.7998 172.072 70.0398C173.792 69.2798 175.192 68.5598 177.512 69.1598C179.832 69.7598 184.672 72.3998 185.552 72.8798C186.432 73.3598 187.632 74.1998 188.112 74.4398C188.592 74.6798 181.952 70.7198 178.272 70.2798C174.552 69.7998 173.912 71.5998 169.912 74.6798C165.912 77.7198 164.152 79.9998 164.152 79.9998Z" fill="#92E3A9" stroke="#263238" stroke-miterlimit="10" stroke-linecap="round" stroke-linejoin="round"/>
<path d="M164.152 80C164.152 80 168.272 73.44 171.072 72.72C173.872 72 177.232 73.56 178.352 74.2C179.472 74.84 181.152 78.56 181.512 80C181.872 81.44 182.112 82.52 182.112 82.52C182.112 82.52 178.512 76.68 177.112 75.76C175.672 74.88 173.472 73.48 172.832 73.36C172.112 73.24 165.552 77.24 164.152 80Z" fill="#263238" stroke="#263238" stroke-miterlimit="10" stroke-linecap="round" stroke-linejoin="round"/>
<path d="M165.792 76.6C165.792 76.6 173.792 71.24 177.952 71.28C182.112 71.32 187.312 72.88 188.712 73.12C190.072 73.36 191.472 73 191.472 73C191.472 73 185.552 74.8 183.592 74.84C181.632 74.88 175.192 73.04 173.032 73.76C170.872 74.48 165.792 76.6 165.792 76.6Z" fill="#92E3A9" stroke="#263238" stroke-miterlimit="10" stroke-linecap="round" stroke-linejoin="round"/>
<path d="M167.952 74.1997C167.952 74.1997 166.592 70.0397 167.992 66.9597C169.432 63.9197 171.272 59.7197 171.272 59.7197C171.272 59.7197 171.912 65.0397 170.792 68.5997C169.672 72.2397 167.952 74.1997 167.952 74.1997Z" fill="#92E3A9" stroke="#263238" stroke-miterlimit="10" stroke-linecap="round" stroke-linejoin="round"/>
<path d="M164.512 77.2397C164.512 77.2397 164.512 72.0397 160.912 69.5997C157.312 67.1597 153.352 66.3597 151.912 67.1597C150.472 67.9197 146.192 70.3197 144.912 71.9197C143.672 73.5197 142.632 74.7997 142.632 74.7997C142.632 74.7997 148.952 70.6397 150.912 69.1997C152.872 67.7597 153.832 67.3997 154.552 67.5997C155.272 67.7597 159.392 69.6797 160.992 70.9597C162.632 72.1597 164.512 77.2397 164.512 77.2397Z" fill="#92E3A9" stroke="#263238" stroke-miterlimit="10" stroke-linecap="round" stroke-linejoin="round"/>
<path d="M164.592 78.0797C164.552 77.9197 164.712 76.5197 162.272 76.3597C159.832 76.1997 157.992 77.2397 157.552 78.1597C157.152 79.0397 157.552 81.4397 157.592 81.6797C157.632 81.9197 157.952 78.5197 160.832 77.8797C163.712 77.1997 164.592 78.0797 164.592 78.0797Z" fill="#263238" stroke="#263238" stroke-miterlimit="10" stroke-linecap="round" stroke-linejoin="round"/>
<path d="M163.672 80.28C163.672 80.28 162.912 78.6 161.352 76.8C159.792 75 156.472 73.32 154.832 74.36C153.232 75.36 151.352 79.6 150.792 80.8C150.192 82 148.832 85.64 148.712 85.8C148.592 85.96 152.232 82.56 153.792 80.56C155.352 78.52 156.432 75.72 157.312 75.48C158.192 75.24 160.072 77.04 160.072 77.04L164.472 83.44L163.672 80.28Z" fill="#92E3A9" stroke="#263238" stroke-miterlimit="10" stroke-linecap="round" stroke-linejoin="round"/>
<path d="M163.912 75.92C163.912 75.92 163.152 72.32 160.432 71.4C157.752 70.44 154.512 70.08 153.272 70.8C152.032 71.52 146.512 76.6 146.512 76.6L145.792 78.44C145.792 78.44 153.832 72.52 155.712 71.92C157.552 71.32 157.552 71.32 159.512 72.52C161.512 73.72 163.912 75.92 163.912 75.92Z" fill="#92E3A9" stroke="#263238" stroke-miterlimit="10" stroke-linecap="round" stroke-linejoin="round"/>
<path d="M163.432 75.92C163.432 75.92 155.632 71.2 153.952 70.6C152.272 70 148.512 71.48 147.432 72.88C146.352 74.24 142.592 81.72 142.432 82.24C142.272 82.76 144.952 76.44 148.992 74.6C153.032 72.76 155.672 73.12 158.072 73.36C160.472 73.6 163.432 77.6 163.432 77.6V75.92Z" fill="#92E3A9" stroke="#263238" stroke-miterlimit="10" stroke-linecap="round" stroke-linejoin="round"/>
<path d="M164.271 82.0798C164.271 82.0798 166.831 77.2398 168.991 76.1598C171.151 75.0798 173.271 76.9998 176.671 78.3198C180.071 79.6398 182.631 80.5198 182.631 80.5198C182.631 80.5198 177.031 80.7998 174.871 80.0398C172.711 79.2798 169.311 77.7598 168.551 77.8798C167.791 77.9998 164.271 82.0798 164.271 82.0798Z" fill="#92E3A9" stroke="#263238" stroke-miterlimit="10" stroke-linecap="round" stroke-linejoin="round"/>
<path d="M164.512 77.2399C164.512 77.2399 165.832 73.4799 166.592 68.5999C167.352 63.7199 166.072 54.9199 164.792 52.3199C163.552 49.6799 159.832 45.3999 159.832 45.3999C159.832 45.3999 166.392 51.1199 167.832 56.5199C169.272 61.8799 169.512 64.7599 168.912 67.6799C168.312 70.5599 164.512 77.2399 164.512 77.2399Z" fill="#92E3A9" stroke="#263238" stroke-miterlimit="10" stroke-linecap="round" stroke-linejoin="round"/>
<path d="M162.912 69.68C162.912 69.68 162.352 67.4801 161.672 67.0401C161.032 66.6001 159.752 67.1201 159.752 67.1201C159.752 67.1201 161.992 69.1201 161.992 70.0001C161.992 70.9201 164.272 76.3201 164.272 76.3201L162.912 69.68Z" fill="#92E3A9" stroke="#263238" stroke-miterlimit="10" stroke-linecap="round" stroke-linejoin="round"/>
<path d="M161.711 67.0401C161.711 67.0401 160.751 67.7201 159.991 68.4001C159.231 69.0801 155.631 72.6401 155.431 72.8401C155.231 73.0401 157.311 68.3201 157.751 67.4001C158.231 66.5201 159.031 65.8401 159.311 65.8801C159.551 65.9601 161.751 66.4801 161.711 67.0401Z" fill="#92E3A9" stroke="#263238" stroke-miterlimit="10" stroke-linecap="round" stroke-linejoin="round"/>
<path d="M175.312 91.3999C175.312 91.3999 175.312 101.2 175.112 102.24C174.912 103.28 174.272 103.72 174.272 103.72L173.472 166L171.752 166.12L172.792 120.24L173.192 103.72C173.192 103.72 172.472 103.76 172.432 102.04C172.392 100.32 171.432 93.3599 171.432 93.3599L172.112 93.1599C172.112 93.1599 173.152 101.8 173.352 102.04C173.552 102.32 174.152 101.52 174.232 100.68C174.352 99.8399 174.232 91.3599 174.232 91.3599L175.312 91.3999Z" fill="#A6A6A6" stroke="#263238" stroke-miterlimit="10" stroke-linecap="round" stroke-linejoin="round"/>
<path d="M173.232 103.72C173.152 103.68 173.072 103.64 172.992 103.64C172.792 103.48 172.512 103.08 172.472 102.04C172.432 100.32 171.472 93.3599 171.472 93.3599L172.152 93.1599C172.152 93.1599 173.192 101.8 173.392 102.04C173.592 102.32 174.192 101.52 174.272 100.68C174.392 99.8399 174.272 91.3599 174.272 91.3599L175.312 91.3999C175.312 91.3999 175.312 101.2 175.112 102.24C174.912 103.28 174.272 103.72 174.272 103.72C174.272 103.72 174.032 104.04 173.232 103.72Z" fill="#263238" stroke="#263238" stroke-miterlimit="10" stroke-linecap="round" stroke-linejoin="round"/>
<path d="M173.552 91.24C173.552 91.24 171.552 88.48 168.392 87.16C165.192 85.84 159.432 85 159.232 85C159.032 85 164.632 86.76 166.352 87.56C168.072 88.36 170.312 89.56 170.992 90.28C171.672 91 174.872 96.12 174.872 96.12C174.872 96.12 174.752 94.08 173.552 91.24Z" fill="#263238" stroke="#263238" stroke-miterlimit="10" stroke-linecap="round" stroke-linejoin="round"/>
<path d="M178.992 82.24C178.992 82.24 180.992 79.48 184.152 78.16C187.352 76.84 193.112 76 193.312 76C193.512 76 187.912 77.76 186.192 78.56C184.472 79.36 182.232 80.56 181.552 81.28C180.872 82 177.672 87.12 177.672 87.12C177.672 87.12 177.792 85.04 178.992 82.24Z" fill="#92E3A9" stroke="#263238" stroke-miterlimit="10" stroke-linecap="round" stroke-linejoin="round"/>
<path d="M174.592 89.9996C174.592 89.9996 180.032 81.9596 181.552 81.2796C183.072 80.5996 184.272 79.9596 186.312 80.4796C188.352 80.9996 192.592 83.3196 193.392 83.7196C194.192 84.1196 195.232 84.8796 195.632 85.0796C196.032 85.2796 190.232 81.8396 186.992 81.3996C183.752 80.9596 183.192 82.5596 179.672 85.2796C176.192 88.0396 174.592 89.9996 174.592 89.9996Z" fill="#92E3A9" stroke="#263238" stroke-miterlimit="10" stroke-linecap="round" stroke-linejoin="round"/>
<path d="M174.592 90C174.592 90 178.192 84.24 180.672 83.6C183.112 82.96 186.072 84.32 187.072 84.92C188.072 85.52 189.512 88.72 189.832 90C190.152 91.24 190.352 92.2 190.352 92.2C190.352 92.2 187.232 87.08 185.952 86.28C184.712 85.48 182.752 84.28 182.192 84.2C181.632 84.12 175.872 87.6 174.592 90Z" fill="#92E3A9" stroke="#263238" stroke-miterlimit="10" stroke-linecap="round" stroke-linejoin="round"/>
<path d="M176.073 87.0399C176.073 87.0399 183.073 82.3199 186.753 82.3999C190.433 82.4399 194.953 83.7999 196.153 84.0399C197.353 84.2399 198.553 83.9199 198.553 83.9199C198.553 83.9199 193.393 85.4799 191.633 85.5599C189.913 85.5999 184.273 83.9999 182.393 84.5999C180.513 85.1999 176.073 87.0399 176.073 87.0399Z" fill="#92E3A9" stroke="#263238" stroke-miterlimit="10" stroke-linecap="round" stroke-linejoin="round"/>
<path d="M174.712 91.8398C174.712 91.8398 176.952 87.5998 178.832 86.6798C180.712 85.7198 182.592 87.3998 185.592 88.5598C188.592 89.7198 190.832 90.4798 190.832 90.4798C190.832 90.4798 185.912 90.7598 184.032 90.0798C182.152 89.3998 179.152 88.0798 178.472 88.1998C177.792 88.2798 174.712 91.8398 174.712 91.8398Z" fill="#92E3A9" stroke="#263238" stroke-miterlimit="10" stroke-linecap="round" stroke-linejoin="round"/>
<path d="M173.072 93.24C173.072 93.24 175.072 82.52 175.072 78.6C175.072 74.68 175.032 73 175.032 73C175.032 73 173.712 78.12 173.552 78.76C173.392 79.4 173.392 80.44 173.392 80.44C173.392 80.44 172.432 74.88 171.232 73.52C170.032 72.16 168.512 71.48 168.512 71.48C168.512 71.48 169.872 74.04 170.152 74.76C170.432 75.48 169.072 73.76 167.592 73.36C166.112 72.96 162.512 72.16 162.512 72.16C162.512 72.16 167.312 74.08 167.912 74.72C168.472 75.36 169.912 77.64 169.992 77.92C170.112 78.2 171.832 81.16 172.312 82.88C172.752 84.6 173.072 93.24 173.072 93.24Z" fill="#263238" stroke="#263238" stroke-miterlimit="10" stroke-linecap="round" stroke-linejoin="round"/>
<path d="M171.872 80.2399L167.792 77.5199C167.792 77.5199 162.752 76.7199 161.952 76.9999C161.112 77.2799 159.952 78.0399 159.952 78.0399C159.952 78.0399 163.192 77.7199 164.592 78.3999C165.992 79.0799 169.072 80.2799 170.912 82.7599C172.752 85.1999 173.432 87.9199 173.632 88.8399C173.832 89.7199 174.272 91.3999 174.272 91.3999C174.272 91.3999 175.232 86.8399 174.832 84.9999C174.512 83.1599 171.872 80.2399 171.872 80.2399Z" fill="#92E3A9" stroke="#263238" stroke-miterlimit="10" stroke-linecap="round" stroke-linejoin="round"/>
<path d="M176.992 77.2801C176.992 77.2801 174.592 80.5201 174.232 81.5601C173.872 82.6001 173.272 78.9601 170.712 76.6801C168.152 74.4401 159.872 73.0801 159.872 73.0801C159.872 73.0801 169.912 77.9601 171.432 79.8801C172.952 81.8001 174.432 85.1201 174.432 85.2801C174.432 85.4401 174.432 87.2001 174.432 87.2001L176.992 77.2801Z" fill="#92E3A9" stroke="#263238" stroke-miterlimit="10" stroke-linecap="round" stroke-linejoin="round"/>
<path d="M175.272 84.1199C175.272 84.1199 178.632 78.3599 180.352 76.3599C182.072 74.3599 187.792 69.9199 187.792 69.9199C187.792 69.9199 185.432 72.8399 182.392 76.9999C179.352 81.1199 174.552 87.1999 174.552 87.1999L175.272 84.1199Z" fill="#263238" stroke="#263238" stroke-miterlimit="10" stroke-linecap="round" stroke-linejoin="round"/>
<path d="M175.752 95.3599C175.752 95.3599 181.192 90.9199 184.072 91.9999C186.952 93.0799 190.232 96.5999 190.232 96.5999L190.952 100.56C190.952 100.56 187.072 94.9599 185.392 94.1599C183.712 93.3599 181.352 93.0799 180.232 93.3199C179.072 93.5999 175.672 96.4399 175.512 96.8399C175.392 97.2399 175.752 95.3599 175.752 95.3599Z" fill="#92E3A9" stroke="#263238" stroke-miterlimit="10" stroke-linecap="round" stroke-linejoin="round"/>
<path d="M177.152 82.1598C177.152 82.1598 178.192 81.1998 178.872 77.4398C179.552 73.6798 178.752 70.2798 178.752 70.2798C178.752 70.2798 178.392 72.5198 177.552 75.1598C176.712 77.7598 176.712 78.7198 175.472 82.5998C174.232 86.4798 174.072 93.4398 174.112 93.5998C174.192 93.7198 177.152 82.1598 177.152 82.1598Z" fill="#92E3A9" stroke="#263238" stroke-miterlimit="10" stroke-linecap="round" stroke-linejoin="round"/>
<path d="M168.592 83.2397C168.592 83.2397 166.952 81.1597 164.872 80.5197C162.792 79.8797 160.632 79.9597 160.632 79.9597C160.632 79.9597 163.752 79.0797 165.872 79.4797C167.952 79.8797 169.592 82.3597 170.312 84.6397C171.032 86.9597 171.032 92.3197 171.032 92.3197C171.032 92.3197 169.872 85.2797 168.592 83.2397Z" fill="#263238" stroke="#263238" stroke-miterlimit="10" stroke-linecap="round" stroke-linejoin="round"/>
<path d="M176.432 85.28C176.432 85.28 176.312 83.08 178.072 80.52C179.832 77.96 183.392 76.56 185.872 75.48C188.352 74.4 189.832 73.96 189.832 73.96C189.832 73.96 184.232 78.36 182.792 79C181.312 79.64 180.232 80.48 179.232 81.64C178.232 82.84 176.392 87.16 176.392 87.44C176.392 87.76 176.432 85.28 176.432 85.28Z" fill="#92E3A9" stroke="#263238" stroke-miterlimit="10" stroke-linecap="round" stroke-linejoin="round"/>
<path d="M170.152 88.4397C170.152 88.4397 168.152 85.6797 164.992 84.3597C161.832 83.0397 156.032 82.1997 155.832 82.1997C155.632 82.1997 161.232 83.9597 162.952 84.7597C164.672 85.5597 166.912 86.7597 167.592 87.4797C168.272 88.1997 171.472 93.3197 171.472 93.3197C171.472 93.3197 171.352 91.2797 170.152 88.4397Z" fill="#92E3A9" stroke="#263238" stroke-miterlimit="10" stroke-linecap="round" stroke-linejoin="round"/>
<path d="M174.552 96.2399C174.552 96.2399 169.112 88.1999 167.592 87.5199C166.072 86.8399 164.872 86.1999 162.832 86.7199C160.792 87.2399 156.552 89.5599 155.752 89.9599C154.952 90.3599 153.912 91.1199 153.512 91.3199C153.112 91.5199 158.912 88.0799 162.152 87.6399C165.392 87.2399 165.952 88.7999 169.472 91.5199C172.992 94.2399 174.552 96.2399 174.552 96.2399Z" fill="#92E3A9" stroke="#263238" stroke-miterlimit="10" stroke-linecap="round" stroke-linejoin="round"/>
<path d="M174.552 96.2397C174.552 96.2397 170.952 90.4797 168.472 89.8397C166.032 89.1997 163.072 90.5597 162.072 91.1597C161.072 91.7197 159.632 94.9597 159.312 96.2397C158.992 97.4797 158.792 98.4397 158.792 98.4397C158.792 98.4397 161.912 93.3197 163.192 92.5197C164.432 91.7197 166.392 90.5197 166.952 90.4397C167.552 90.3197 173.272 93.8397 174.552 96.2397Z" fill="#263238" stroke="#263238" stroke-miterlimit="10" stroke-linecap="round" stroke-linejoin="round"/>
<path d="M173.072 93.2396C173.072 93.2396 166.072 88.5196 162.392 88.5996C158.712 88.6396 154.192 89.9996 152.992 90.2396C151.792 90.4396 150.592 90.1196 150.592 90.1196C150.592 90.1196 155.752 91.6796 157.512 91.7596C159.232 91.7996 164.872 90.1996 166.752 90.7996C168.632 91.3996 173.072 93.2396 173.072 93.2396Z" fill="#92E3A9" stroke="#263238" stroke-miterlimit="10" stroke-linecap="round" stroke-linejoin="round"/>
<path d="M171.192 91.16C171.192 91.16 172.392 87.48 171.152 84.84C169.912 82.16 168.272 78.52 168.272 78.52C168.272 78.52 167.712 83.16 168.672 86.32C169.672 89.44 171.192 91.16 171.192 91.16Z" fill="#92E3A9" stroke="#263238" stroke-miterlimit="10" stroke-linecap="round" stroke-linejoin="round"/>
<path d="M174.232 93.8397C174.232 93.8397 174.232 89.2797 177.352 87.1597C180.472 84.9997 183.992 84.3197 185.232 84.9997C186.472 85.6797 190.272 87.7597 191.352 89.1997C192.432 90.5997 193.352 91.7197 193.352 91.7197C193.352 91.7197 187.792 88.0397 186.072 86.7997C184.352 85.5597 183.512 85.2397 182.872 85.3997C182.232 85.5597 178.632 87.2397 177.232 88.3197C175.872 89.3597 174.232 93.8397 174.232 93.8397Z" fill="#92E3A9" stroke="#263238" stroke-miterlimit="10" stroke-linecap="round" stroke-linejoin="round"/>
<path d="M174.112 94.5601C174.152 94.4001 173.992 93.2001 176.152 93.0401C178.312 92.8801 179.912 93.8401 180.272 94.6001C180.632 95.4001 180.272 97.4801 180.232 97.6801C180.192 97.8801 179.912 94.9201 177.392 94.3201C174.912 93.7601 174.112 94.5601 174.112 94.5601Z" fill="#263238" stroke="#263238" stroke-miterlimit="10" stroke-linecap="round" stroke-linejoin="round"/>
<path d="M174.952 96.4799C174.952 96.4799 175.632 94.9999 176.992 93.4399C178.352 91.8799 181.272 90.3999 182.712 91.2799C184.112 92.1599 185.752 95.8799 186.272 96.9199C186.792 97.9599 187.992 101.16 188.112 101.32C188.232 101.48 185.032 98.4799 183.672 96.7199C182.312 94.9599 181.352 92.4799 180.592 92.2799C179.792 92.0799 178.192 93.6399 178.192 93.6399L174.312 99.2399L174.952 96.4799Z" fill="#92E3A9" stroke="#263238" stroke-miterlimit="10" stroke-linecap="round" stroke-linejoin="round"/>
<path d="M174.752 92.6798C174.752 92.6798 175.432 89.5598 177.792 88.7198C180.152 87.8798 182.952 87.5598 184.072 88.1998C185.152 88.8398 189.992 93.2798 189.992 93.2798L190.632 94.9198C190.632 94.9198 183.552 89.7598 181.952 89.1998C180.312 88.6798 180.312 88.6798 178.592 89.7198C176.832 90.7198 174.752 92.6798 174.752 92.6798Z" fill="#92E3A9" stroke="#263238" stroke-miterlimit="10" stroke-linecap="round" stroke-linejoin="round"/>
<path d="M175.192 92.6798C175.192 92.6798 182.032 88.5598 183.512 88.0398C184.992 87.5198 188.272 88.8398 189.232 90.0398C190.192 91.2398 193.472 97.7998 193.632 98.2398C193.792 98.7198 191.432 93.1598 187.872 91.5598C184.312 89.9198 182.032 90.2398 179.912 90.4798C177.832 90.6798 175.192 94.1998 175.192 94.1998V92.6798Z" fill="#92E3A9" stroke="#263238" stroke-miterlimit="10" stroke-linecap="round" stroke-linejoin="round"/>
<path d="M174.432 98.0801C174.432 98.0801 172.192 93.8401 170.312 92.9201C168.432 91.9601 166.552 93.6401 163.552 94.8001C160.552 95.9601 158.312 96.7201 158.312 96.7201C158.312 96.7201 163.232 97.0001 165.112 96.3201C166.992 95.6401 169.992 94.3201 170.672 94.4401C171.352 94.5201 174.432 98.0801 174.432 98.0801Z" fill="#92E3A9" stroke="#263238" stroke-miterlimit="10" stroke-linecap="round" stroke-linejoin="round"/>
<path d="M174.232 93.8399C174.232 93.8399 173.072 90.5599 172.392 86.2399C171.712 81.9599 172.872 74.2799 173.952 71.9599C175.032 69.6399 178.312 65.8799 178.312 65.8799C178.312 65.8799 172.552 70.9199 171.312 75.5999C170.072 80.3199 169.832 82.7999 170.352 85.3999C170.872 87.9599 174.232 93.8399 174.232 93.8399Z" fill="#92E3A9" stroke="#263238" stroke-miterlimit="10" stroke-linecap="round" stroke-linejoin="round"/>
<path d="M175.592 87.1999C175.592 87.1999 176.112 85.2799 176.672 84.8799C177.232 84.4799 178.352 84.9199 178.352 84.9199C178.352 84.9199 176.392 86.6799 176.392 87.4799C176.392 88.2799 174.392 93.0399 174.392 93.0399L175.592 87.1999Z" fill="#92E3A9" stroke="#263238" stroke-miterlimit="10" stroke-linecap="round" stroke-linejoin="round"/>
<path d="M176.672 84.88C176.672 84.88 177.512 85.48 178.192 86.08C178.872 86.68 181.992 89.8 182.192 90C182.392 90.2 180.552 86.04 180.152 85.24C179.752 84.44 179.032 83.88 178.792 83.92C178.552 83.96 176.632 84.4 176.672 84.88Z" fill="#92E3A9" stroke="#263238" stroke-miterlimit="10" stroke-linecap="round" stroke-linejoin="round"/>
<path d="M175.072 112.6C175.072 112.6 179.872 110.84 182.832 109.88C185.752 108.92 187.992 111.32 187.992 111.32C187.992 111.32 184.352 111.84 183.032 111.92C181.712 112 179.792 112.04 178.592 112.52C177.432 112.96 180.952 112.92 182.112 114.08C183.272 115.24 185.752 118.24 186.152 119.16C186.552 120.08 182.192 114.88 179.112 114.08C176.072 113.28 173.632 114.92 173.632 114.92L175.072 112.6Z" fill="#263238" stroke="#263238" stroke-miterlimit="10" stroke-linecap="round" stroke-linejoin="round"/>
<path d="M170.312 119.76C170.312 119.76 170.752 121.92 170.312 127.88C169.872 133.88 169.392 157.88 169.392 157.88L170.952 158.08C170.952 158.08 171.752 125.8 171.752 124.68C171.752 123.56 171.832 119.6 171.832 119.6L170.312 119.76Z" fill="#A6A6A6" stroke="#263238" stroke-miterlimit="10" stroke-linecap="round" stroke-linejoin="round"/>
<path d="M171.552 113.44C171.432 113.16 169.592 109.28 168.632 108.64C167.672 108 165.192 107.08 164.072 107.08C162.952 107.08 160.112 107.4 160.112 107.4C160.112 107.4 165.192 108.56 166.632 109.68C168.072 110.8 170.552 113.32 170.592 113.8C170.672 114.24 171.192 115.28 171.192 115.28C171.192 115.28 172.272 115 171.552 113.44Z" fill="#92E3A9" stroke="#263238" stroke-miterlimit="10" stroke-linecap="round" stroke-linejoin="round"/>
<path d="M170.112 115.96C170.112 115.96 166.192 115.52 164.792 116.56C163.352 117.6 160.832 120.52 160.832 122.08C160.832 123.64 160.952 127.24 160.952 126.88C160.952 126.56 161.672 121.48 163.312 119.92C164.952 118.36 165.672 117.44 167.792 117.2C169.952 116.92 169.952 116.92 169.952 116.92L172.152 118.08L170.112 115.96Z" fill="#263238" stroke="#263238" stroke-miterlimit="10" stroke-linecap="round" stroke-linejoin="round"/>
<path d="M173.112 115.04C173.112 115.04 173.912 114.4 176.712 114C179.512 113.6 180.312 113.36 182.032 113.68C183.792 114 185.672 114.72 185.672 114.72C185.672 114.72 180.072 114.6 179.552 114.6C179.032 114.6 182.952 117.12 183.672 117.92C184.392 118.72 185.032 120.32 185.032 120.32C185.032 120.32 179.432 116.28 178.472 115.84C177.512 115.4 177.112 115.12 177.112 115.12C177.112 115.12 175.552 114.84 174.912 115.04C174.272 115.24 173.752 115.44 173.552 115.48C173.352 115.56 172.632 115.76 172.632 115.76L173.112 115.04Z" fill="#92E3A9" stroke="#263238" stroke-miterlimit="10" stroke-linecap="round" stroke-linejoin="round"/>
<path d="M172.272 112.92C172.272 112.92 172.592 109.16 174.432 107.44C176.272 105.76 182.512 102.48 182.512 102.48L186.352 100.6C186.352 100.6 185.232 103.08 182.912 104.04C180.552 105 179.792 104.32 178.672 105.48C177.552 106.64 175.792 109.08 175.472 110.16C175.152 111.28 172.992 114.32 172.872 115.04C172.752 115.76 172.272 112.92 172.272 112.92Z" fill="#92E3A9" stroke="#263238" stroke-miterlimit="10" stroke-linecap="round" stroke-linejoin="round"/>
<path d="M172.552 113.96C172.552 113.96 172.952 108.12 172.272 106.6C171.632 105.12 169.592 101.64 169.152 100.88C168.712 100.08 168.112 99.4399 168.112 99.4399C168.112 99.4399 169.752 104.6 170.192 107.24C170.632 109.92 170.712 110.76 170.832 111.88C170.952 113 171.112 113.96 171.112 113.96H172.552Z" fill="#92E3A9" stroke="#263238" stroke-miterlimit="10" stroke-linecap="round" stroke-linejoin="round"/>
<path d="M171.672 116.08C171.672 116.08 172.512 113.72 173.832 111.64C175.152 109.56 177.032 109.12 177.352 109.12C177.672 109.12 178.792 109.12 178.792 109.12C178.792 109.12 176.272 110.36 175.912 111.52C175.592 112.68 174.872 115.12 174.352 115.64C173.832 116.16 172.512 118.88 172.192 119.56C171.872 120.2 171.032 120.52 171.032 120.52C171.032 120.52 169.872 118.76 171.672 116.08Z" fill="#92E3A9" stroke="#263238" stroke-miterlimit="10" stroke-linecap="round" stroke-linejoin="round"/>
<path d="M172.752 116.28L171.072 120.52L171.592 120.96C171.592 120.96 172.392 120.04 172.952 119.2C173.552 118.36 173.992 117.72 173.992 117.32C173.952 116.96 172.752 116.28 172.752 116.28Z" fill="#92E3A9" stroke="#263238" stroke-miterlimit="10" stroke-linecap="round" stroke-linejoin="round"/>
<path d="M172.072 119.88C172.072 119.88 169.592 114.48 168.832 113.32C168.032 112.16 167.192 111.16 165.512 110.72C163.832 110.28 160.952 109.4 158.432 109.88C155.912 110.32 151.512 110.92 151.512 110.92C151.512 110.92 154.632 112.36 158.432 112.08C162.192 111.8 165.512 112 165.512 112C165.512 112 166.312 112.32 166.872 114.2C167.472 116.08 168.712 117.8 169.472 118.48C170.272 119.2 171.552 120.96 171.552 120.96L172.072 119.88Z" fill="#92E3A9" stroke="#263238" stroke-miterlimit="10" stroke-linecap="round" stroke-linejoin="round"/>
<path d="M172.552 113.96C172.552 113.96 169.832 112.84 169.152 113.84C168.512 114.8 167.472 119.88 167.472 119.88C167.472 119.88 166.952 122.56 166.832 122.8C166.712 123.08 170.272 120.32 171.112 118C171.952 115.64 172.552 113.96 172.552 113.96Z" fill="#92E3A9" stroke="#263238" stroke-miterlimit="10" stroke-linecap="round" stroke-linejoin="round"/>
<path d="M175.152 115.64C175.152 115.64 172.752 115.72 172.752 116.28C172.752 116.88 173.072 117.92 172.952 119.2C172.832 120.52 172.672 121.68 172.672 121.68C172.672 121.68 175.272 120.56 175.392 119.08C175.512 117.6 175.152 115.64 175.152 115.64Z" fill="#92E3A9" stroke="#263238" stroke-miterlimit="10" stroke-linecap="round" stroke-linejoin="round"/>
<path d="M176.312 115.64C176.312 115.64 178.792 117.32 179.632 118.88C180.472 120.44 181.112 123.68 181.112 123.68C181.112 123.68 179.432 120.44 178.112 118.68C176.792 116.92 174.872 115.48 174.472 115.96C174.072 116.44 175.392 115.24 176.312 115.64Z" fill="#263238" stroke="#263238" stroke-miterlimit="10" stroke-linecap="round" stroke-linejoin="round"/>
<path d="M175.272 175.08H161.832L158.952 156.72H178.152L175.272 175.08Z" fill="#263238" stroke="#263238" stroke-miterlimit="10" stroke-linecap="round" stroke-linejoin="round"/>
<path d="M176.752 176.04H159.952L159.112 174.36H177.592L176.752 176.04Z" fill="#263238" stroke="#263238" stroke-miterlimit="10" stroke-linecap="round" stroke-linejoin="round"/>
<path d="M16.792 177.84H13.872L13.032 163.72H17.672L16.792 177.84Z" fill="#6E6E6E" stroke="#263238" stroke-miterlimit="10" stroke-linecap="round" stroke-linejoin="round"/>
<path d="M158.792 177.84H155.872L154.992 163.72H159.632L158.792 177.84Z" fill="#6E6E6E" stroke="#263238" stroke-miterlimit="10" stroke-linecap="round" stroke-linejoin="round"/>
<path d="M154.072 107.8C152.312 106.48 150.192 105.8 148.032 105.8H85.8316H23.6316C21.4316 105.8 19.3116 106.52 17.5916 107.8C14.7516 109.92 13.2316 113.4 13.6316 116.92L17.2716 151.96L85.8316 158.64L154.392 151.96L158.032 116.92C158.392 113.4 156.872 109.92 154.072 107.8Z" fill="#B8B8B8" stroke="#263238" stroke-miterlimit="10" stroke-linecap="round" stroke-linejoin="round"/>
<path d="M154.392 137.84L142.912 153.8H86.4316H86.2316H29.7516L18.2716 137.88L7.3916 138.48L10.1516 162.4C10.3116 163.76 11.4316 164.76 12.7916 164.76H86.2316H86.4316H159.872C161.232 164.76 162.352 163.76 162.512 162.4L165.272 138.48L154.392 137.84Z" fill="#B8B8B8" stroke="#263238" stroke-miterlimit="10" stroke-linecap="round" stroke-linejoin="round"/>
<path d="M168.392 145.92H152.272C151.552 145.92 150.952 145.32 150.952 144.6V140.76C150.952 140.04 151.552 139.44 152.272 139.44H168.392C169.112 139.44 169.712 140.04 169.712 140.76V144.6C169.712 145.32 169.112 145.92 168.392 145.92Z" fill="#B8B8B8" stroke="#263238" stroke-miterlimit="10" stroke-linecap="round" stroke-linejoin="round"/>
<path d="M23.8316 145.92H7.67156C6.95156 145.92 6.35156 145.32 6.35156 144.6V140.76C6.35156 140.04 6.95156 139.44 7.67156 139.44H23.7916C24.5116 139.44 25.1116 140.04 25.1116 140.76V144.6C25.1116 145.32 24.5516 145.92 23.8316 145.92Z" fill="#B8B8B8" stroke="#263238" stroke-miterlimit="10" stroke-linecap="round" stroke-linejoin="round"/>
<path d="M147.912 143.44H90.5119C89.1519 143.44 88.0319 144.44 88.0319 145.68C88.0319 144.44 86.9119 143.44 85.5519 143.44H28.1919C26.8319 143.44 25.7119 144.44 25.7119 145.68V151.76C25.7119 153 26.8319 154 28.1919 154H147.912C149.272 154 150.392 153 150.392 151.76V145.68C150.352 144.44 149.272 143.44 147.912 143.44Z" fill="#263238" stroke="#263238" stroke-miterlimit="10" stroke-linecap="round" stroke-linejoin="round"/>
<path d="M83.7521 152.8H26.3921C25.0321 152.8 23.9121 151.68 23.9121 150.32V144.8C23.9121 143.44 25.0321 142.32 26.3921 142.32H83.7921C85.1521 142.32 86.2721 143.44 86.2721 144.8V150.32C86.2321 151.68 85.1121 152.8 83.7521 152.8Z" fill="#B8B8B8" stroke="#263238" stroke-miterlimit="10" stroke-linecap="round" stroke-linejoin="round"/>
<path d="M146.072 152.8H88.7124C87.3524 152.8 86.2324 151.68 86.2324 150.32V144.8C86.2324 143.44 87.3524 142.32 88.7124 142.32H146.112C147.472 142.32 148.592 143.44 148.592 144.8V150.32C148.552 151.68 147.432 152.8 146.072 152.8Z" fill="#B8B8B8" stroke="#263238" stroke-miterlimit="10" stroke-linecap="round" stroke-linejoin="round"/>
<path d="M26.152 148.72C26.152 148.72 29.192 144.68 27.552 140.24C25.952 135.8 20.512 130.76 13.832 129.96C7.19202 129.16 4.15202 133.8 4.35202 137.84C4.55202 141.88 10.592 142.28 15.032 144.08C19.472 145.92 22.512 150.56 26.152 148.72Z" fill="#B8B8B8" stroke="#263238" stroke-miterlimit="10" stroke-linecap="round" stroke-linejoin="round"/>
<path d="M146.592 148.72C146.592 148.72 143.552 144.68 145.192 140.24C146.792 135.8 152.232 130.76 158.912 129.96C165.552 129.16 168.592 133.8 168.392 137.84C168.192 141.88 162.152 142.28 157.712 144.08C153.232 145.92 150.232 150.56 146.592 148.72Z" fill="#B8B8B8" stroke="#263238" stroke-miterlimit="10" stroke-linecap="round" stroke-linejoin="round"/>
<path d="M63.0324 117.52C63.0324 117.52 73.1124 116.36 78.1524 116.76C80.2724 116.92 83.7524 118.04 85.7924 117.4C87.1124 117 88.1124 116.88 88.7924 116.88C89.4724 116.88 89.9524 117.48 89.8724 118.16C89.6724 119.4 89.3524 121.4 89.2724 122.36C89.1524 124.44 89.2724 123.52 89.1524 124.44C89.0324 125.36 88.1124 138.52 88.5124 139.44C88.9124 140.36 89.6724 141.12 89.1524 141.76C88.6324 142.4 89.9124 142.16 82.5524 142.16C75.1924 142.16 66.5124 141.92 61.5924 141.92C56.6724 141.92 57.3124 140.12 57.4724 139.72C57.5924 139.32 59.6724 123.16 59.7924 122.64C59.9124 122.12 58.8724 117.48 59.5524 116.84C60.2324 116.2 63.0324 117.52 63.0324 117.52Z" fill="white" stroke="#263238" stroke-miterlimit="10" stroke-linecap="round"/>
<path d="M92.832 120.36C92.832 120.36 93.592 136.8 93.472 138.76C93.392 140.72 93.272 141.56 93.832 141.84C94.392 142.12 97.392 141.92 97.392 141.92L94.392 120.52L92.832 120.36Z" fill="#263238" stroke="#263238" stroke-miterlimit="10" stroke-linecap="round"/>
<path d="M95.9527 118.16C95.9527 118.16 105.793 117 110.913 117.4C113.073 117.56 116.793 118.68 118.673 118.04C121.313 117.12 122.873 117.64 122.873 117.64C122.873 117.64 122.913 121.52 123.193 122.96C123.473 124.4 123.433 124.12 123.513 125.04C123.593 125.96 125.433 139.12 125.993 140.04C126.553 140.96 127.513 141.72 127.113 142.36C126.713 143 127.953 142.76 120.593 142.76C113.233 142.76 104.513 142.52 99.5927 142.52C94.6727 142.52 94.9527 140.72 94.9927 140.32C95.0327 139.92 92.7927 120.92 92.7927 120.44C92.8327 119.92 91.7527 118.12 92.2727 117.44C92.7927 116.72 95.9527 118.16 95.9527 118.16Z" fill="white" stroke="#263238" stroke-miterlimit="10" stroke-linecap="round"/>
<path d="M140.272 124.52C140.272 124.52 143.552 129.2 143.712 133.96C143.912 138.72 141.552 141.32 140.112 141.8C138.672 142.28 132.272 142.6 132.272 142.6L114.392 139.68C114.392 139.68 111.112 131.84 112.752 128.52C114.392 125.2 140.272 124.52 140.272 124.52Z" fill="#263238" stroke="#263238" stroke-miterlimit="10" stroke-linecap="round"/>
<path d="M123.712 90.7203C123.712 90.7203 112.672 95.2403 112.272 96.0803C111.872 96.9203 108.512 119.12 107.312 120.88C106.792 121.64 120.072 128.88 120.072 128.88L139.952 128.52C139.952 128.52 144.112 126.84 144.192 126.16C144.272 125.48 146.472 115.36 145.312 98.2003C145.232 97.2403 144.832 97.0003 144.352 96.4403C143.872 95.8803 131.552 90.8003 130.632 90.4003C129.752 89.9603 123.712 90.7203 123.712 90.7203Z" fill="#92E3A9" stroke="#263238" stroke-miterlimit="10" stroke-linecap="round"/>
<path d="M114.952 106.8C114.952 108.4 115.032 110.36 115.352 112.36C116.152 117.44 114.912 119.76 114.912 119.76" stroke="#263238" stroke-miterlimit="10" stroke-linecap="round"/>
<path d="M115.232 102.72C115.232 102.72 115.072 103.76 114.992 105.36" stroke="#263238" stroke-miterlimit="10" stroke-linecap="round"/>
<path d="M124.872 98.2003C124.592 97.9603 123.552 95.6403 123.552 95.6403C123.552 95.6403 123.072 97.2403 122.752 97.9603C122.472 98.6403 121.272 99.0403 121.512 98.3203C121.752 97.6003 122.112 93.5603 122.152 92.4403C122.192 91.3203 123.432 90.0803 123.432 90.0803C123.432 90.0803 127.832 89.3603 129.792 89.4403C131.752 89.5203 132.312 89.2003 132.592 89.5603C132.872 89.9203 134.072 91.1203 134.072 91.8403C134.072 92.5603 132.552 98.7203 132.112 99.0003C131.672 99.2803 130.512 96.4003 129.752 96.0403C129.032 95.6803 128.272 96.6803 128.032 97.1603" fill="#92E3A9"/>
<path d="M124.872 98.2003C124.592 97.9603 123.552 95.6403 123.552 95.6403C123.552 95.6403 123.072 97.2403 122.752 97.9603C122.472 98.6403 121.272 99.0403 121.512 98.3203C121.752 97.6003 122.112 93.5603 122.152 92.4403C122.192 91.3203 123.432 90.0803 123.432 90.0803C123.432 90.0803 127.832 89.3603 129.792 89.4403C131.752 89.5203 132.312 89.2003 132.592 89.5603C132.872 89.9203 134.072 91.1203 134.072 91.8403C134.072 92.5603 132.552 98.7203 132.112 99.0003C131.672 99.2803 130.512 96.4003 129.752 96.0403C129.032 95.6803 128.272 96.6803 128.032 97.1603" stroke="#263238" stroke-miterlimit="10" stroke-linecap="round"/>
<path d="M117.991 74.2801C117.991 74.2801 116.871 73.7601 116.791 72.3201C116.711 70.8801 119.671 69.6801 119.671 69.6801C119.671 69.6801 121.111 67.4801 126.031 67.8401C130.951 68.2001 134.991 72.0801 135.831 77.1201C136.631 82.1601 134.631 83.6801 134.511 83.8801C134.391 84.0801 136.631 83.5201 137.111 85.2801C137.591 87.0401 137.391 88.7201 134.991 89.3601C132.591 90.0001 131.911 90.0801 131.471 88.8801C131.031 87.6801 129.991 84.6401 129.591 83.9601C129.191 83.2801 125.031 81.5201 123.831 79.6001C122.631 77.6401 118.911 73.2001 118.911 73.2001L117.991 74.2801Z" fill="#263238" stroke="#263238" stroke-miterlimit="10" stroke-linecap="round"/>
<path d="M119.351 70.7603C119.351 70.7603 119.271 70.8403 119.111 71.0003C118.551 71.6403 117.551 73.4803 117.071 74.8803C116.431 76.7603 117.391 79.0803 117.351 79.5603C117.311 80.0403 115.391 82.2403 115.551 82.6803C115.711 83.1203 117.591 84.0803 117.591 84.0803C117.591 84.0803 118.231 88.2803 119.111 88.6403C120.031 89.0003 123.391 87.9603 123.391 87.9603L124.031 94.2003C124.031 94.2003 124.911 98.1203 126.151 97.7603C127.391 97.4403 132.071 90.0003 132.071 90.0003C132.071 90.0003 130.671 87.0803 130.511 85.8003C130.351 84.5603 130.471 83.2003 130.471 83.2003C130.471 83.2003 127.711 82.0803 125.671 80.4003C123.271 78.4003 121.511 75.7203 120.711 74.6003C119.191 72.5603 119.351 70.7603 119.351 70.7603Z" fill="white" stroke="#263238" stroke-miterlimit="10" stroke-linecap="round"/>
<path d="M119.071 79.72C119.071 80.12 118.911 80.44 118.711 80.44C118.551 80.44 118.391 80.08 118.431 79.68C118.431 79.28 118.591 78.96 118.791 78.96C118.951 79 119.071 79.32 119.071 79.72Z" fill="#263238"/>
<path d="M118.632 84.8401L119.872 84.6001" stroke="#263238" stroke-miterlimit="10" stroke-linecap="round"/>
<path d="M117.871 77.4799C117.871 77.4799 119.151 76.9199 120.031 77.6399" stroke="#263238" stroke-width="2" stroke-miterlimit="10" stroke-linecap="round"/>
<path d="M123.431 87.9601L125.791 87.0801L123.871 91.9601L123.431 87.9601Z" fill="#263238" stroke="#263238" stroke-miterlimit="10" stroke-linecap="round"/>
<path d="M128.711 82.1602C128.711 82.1602 128.831 83.2002 128.031 83.6402C127.271 84.0802 126.431 83.2802 126.431 83.2802" stroke="#263238" stroke-miterlimit="10" stroke-linecap="round"/>
<path d="M117.231 78.0002C117.231 78.0002 121.111 77.8002 121.311 78.1602C121.511 78.5202 121.351 79.4402 121.111 79.8802C120.911 80.3202 120.591 81.0802 119.671 81.1602C118.751 81.2402 117.751 80.9602 117.591 80.5602C117.511 80.1602 117.231 78.0002 117.231 78.0002Z" stroke="#263238" stroke-miterlimit="10" stroke-linecap="round"/>
<path d="M117.231 78C117.231 78 115.831 77.8 115.711 78.04C115.631 78.32 115.391 80.12 116.471 80.8" stroke="#263238" stroke-miterlimit="10" stroke-linecap="round"/>
<path d="M121.352 78.1201L123.672 78.4001" stroke="#263238" stroke-miterlimit="10" stroke-linecap="round"/>
<path d="M138.352 108.48C138.072 110.52 137.752 113.12 137.792 114.72C137.872 117.68 137.312 120.76 137.312 120.76" stroke="#263238" stroke-miterlimit="10" stroke-linecap="round"/>
<path d="M138.832 105.48C138.832 105.48 138.712 106.2 138.552 107.24" stroke="#263238" stroke-miterlimit="10" stroke-linecap="round"/>
<path d="M143.232 124.24C143.232 124.24 141.112 122.12 139.352 121.72C137.592 121.28 135.312 123.48 134.832 124.08C134.352 124.68 133.072 125.84 132.712 125.96C132.352 126.08 131.792 127.76 132.392 129.04C132.992 130.32 134.192 130.68 134.432 130.56C134.672 130.44 142.472 128.28 143.272 127.52C144.072 126.8 144.312 125.84 144.192 125.28" fill="#92E3A9"/>
<path d="M143.232 124.24C143.232 124.24 141.112 122.12 139.352 121.72C137.592 121.28 135.312 123.48 134.832 124.08C134.352 124.68 133.072 125.84 132.712 125.96C132.352 126.08 131.792 127.76 132.392 129.04C132.992 130.32 134.192 130.68 134.432 130.56C134.672 130.44 142.472 128.28 143.272 127.52C144.072 126.8 144.312 125.84 144.192 125.28" stroke="#263238" stroke-miterlimit="10" stroke-linecap="round"/>
<path d="M114.871 120.12L115.311 119.72L111.671 112.32C111.551 112.04 111.031 112.04 110.951 112.68L114.871 120.12Z" fill="#263238" stroke="#263238" stroke-miterlimit="10" stroke-linecap="round"/>
<path d="M108.792 118.96C108.792 118.96 111.312 116.32 112.232 116.52C113.152 116.68 115.752 118.76 115.952 118.96C116.152 119.16 108.312 119.36 108.312 119.36L108.792 118.96Z" fill="white" stroke="#263238" stroke-miterlimit="10" stroke-linecap="round"/>
<path d="M111.031 117.04C111.031 117.04 113.711 118.2 114.351 119.16" stroke="#263238" stroke-miterlimit="10" stroke-linecap="round"/>
<path d="M109.951 118C109.951 118 111.791 118.84 112.231 119.32" stroke="#263238" stroke-miterlimit="10" stroke-linecap="round"/>
<path d="M114.231 117.6C114.231 117.6 113.711 116.44 114.111 116.28C114.511 116.12 115.031 115.92 115.471 116.56C115.911 117.2 116.431 118.92 116.431 118.92L115.911 118.96L114.231 117.6Z" fill="white" stroke="#263238" stroke-miterlimit="10" stroke-linecap="round"/>
<path d="M124.152 123.84L122.272 118.52L103.672 118.96L110.512 131.24H126.992L124.152 123.84Z" fill="#616161" stroke="#263238" stroke-miterlimit="10" stroke-linecap="round" stroke-linejoin="round"/>
<path d="M135.112 128.88C135.112 128.88 135.392 130.2 134.472 130.56" stroke="#263238" stroke-miterlimit="10" stroke-linecap="round"/>
<path d="M137.592 121.32C137.592 121.32 140.912 120.6 141.992 121.52" stroke="#263238" stroke-miterlimit="10" stroke-linecap="round"/>
<path d="M142.591 120.64C142.591 120.64 141.551 119.96 140.271 120.4" stroke="#263238" stroke-miterlimit="10" stroke-linecap="round"/>
<path d="M137.312 105.6C137.312 105.6 137.032 109 137.312 111.16" stroke="#263238" stroke-miterlimit="10" stroke-linecap="round"/>
<path d="M124.952 116.24C124.992 117.6 124.992 118.52 124.992 118.52" stroke="#263238" stroke-miterlimit="10" stroke-linecap="round"/>
<path d="M125.152 102.76C125.152 102.76 124.792 109.48 124.872 112.56C124.912 113.4 124.912 114.2 124.952 114.96" stroke="#263238" stroke-miterlimit="10" stroke-linecap="round"/>
<path d="M133.711 125.96C133.711 125.96 130.431 125.6 129.671 125.36C128.871 125.12 127.751 123.84 127.271 123.44C126.791 123 123.991 122.64 123.591 122.48L124.191 123.88C124.191 123.88 123.791 124.12 122.791 124.28C121.271 124.52 118.911 124.68 118.311 124.68C117.351 124.68 116.871 124.88 117.151 125.24C117.471 125.6 118.111 125.68 118.111 125.68C118.111 125.68 117.871 126.16 118.431 126.48C118.991 126.8 120.111 127 120.271 127.04C120.351 127.08 119.111 126.96 119.071 127.4C119.031 127.92 122.751 128.2 122.831 128.16C122.831 128.16 120.311 128.2 119.711 128.08C119.111 127.96 119.911 128.8 121.351 129.04C122.791 129.28 123.471 128.8 125.071 129.04C126.631 129.28 128.831 129.6 130.991 129.64C133.151 129.72 134.631 130.16 134.991 129.24C135.351 128.32 134.711 126.68 133.711 125.96Z" fill="white" stroke="#263238" stroke-miterlimit="10" stroke-linecap="round"/>
<path d="M123.672 125.8C121.552 125.68 118.112 125.6 118.112 125.6" stroke="#263238" stroke-miterlimit="10" stroke-linecap="round"/>
<path d="M124.151 123.84L125.231 123.88" stroke="#263238" stroke-miterlimit="10" stroke-linecap="round"/>
<path d="M119.632 126.76C119.632 126.76 123.112 127.04 123.672 127.04" stroke="#263238" stroke-miterlimit="10" stroke-linecap="round"/>
<path d="M122.831 128.08L123.871 128.16" stroke="#263238" stroke-miterlimit="10" stroke-linecap="round"/>
<path d="M121.671 131.12C121.671 131.12 118.551 131.2 117.871 134.4C117.191 137.6 120.391 144.88 122.431 148.76C124.471 152.64 133.391 169.72 133.791 170.68C134.191 171.64 134.951 176.12 134.271 179.72C133.591 183.32 132.991 184.96 133.791 185.84C134.551 186.72 137.391 187.48 139.511 186.52C141.631 185.56 142.511 180.88 141.751 176.84C140.991 172.76 139.031 168.88 138.631 167.52C138.231 166.16 132.631 143 131.471 138.92C130.311 134.84 127.791 130.16 121.671 131.12Z" fill="#263238" stroke="#263238" stroke-miterlimit="10" stroke-linecap="round"/>
<path d="M141.752 176.8C140.992 172.72 139.032 168.84 138.632 167.48C138.552 167.16 138.152 165.6 137.592 163.4C135.112 164.8 132.112 164.64 130.552 164.4C132.272 167.72 133.592 170.32 133.752 170.68C134.152 171.64 134.912 176.12 134.232 179.72C133.552 183.32 132.952 184.96 133.752 185.84C134.512 186.72 137.352 187.48 139.472 186.52C141.672 185.56 142.512 180.88 141.752 176.8Z" fill="white" stroke="#263238" stroke-miterlimit="10" stroke-linecap="round"/>
<path d="M141.631 176.32C141.591 178.76 140.751 181.48 138.031 181.68C135.231 181.88 134.231 179.76 134.231 179.76C133.551 183.36 132.952 185 133.752 185.88C134.512 186.76 137.351 187.52 139.471 186.56C141.591 185.6 142.472 180.92 141.712 176.88C141.712 176.64 141.671 176.48 141.631 176.32Z" fill="#263238" stroke="#263238" stroke-miterlimit="10" stroke-linecap="round"/>
<path d="M117.592 132C117.592 132 111.952 129.76 108.072 131.04C104.192 132.32 104.872 138.72 105.472 140.72C106.072 142.76 118.192 161.28 120.792 165.84C123.392 170.4 125.752 174.36 125.752 174.36C125.752 174.36 123.232 178.84 122.352 180.16C121.472 181.52 118.392 183.08 118.872 184.12C119.352 185.2 123.032 185.4 125.272 185C127.512 184.6 129.112 183.08 129.552 181.88C130.152 180.24 133.232 179.44 133.912 178.48C134.592 177.52 134.872 176.56 133.712 175.2C132.552 173.84 131.592 173.16 131.272 172.6C130.992 172 125.552 158.72 124.592 155.16C123.632 151.56 118.672 137.8 118.272 136.92" fill="#263238"/>
<path d="M117.592 132C117.592 132 111.952 129.76 108.072 131.04C104.192 132.32 104.872 138.72 105.472 140.72C106.072 142.76 118.192 161.28 120.792 165.84C123.392 170.4 125.752 174.36 125.752 174.36C125.752 174.36 123.232 178.84 122.352 180.16C121.472 181.52 118.392 183.08 118.872 184.12C119.352 185.2 123.032 185.4 125.272 185C127.512 184.6 129.112 183.08 129.552 181.88C130.152 180.24 133.232 179.44 133.912 178.48C134.592 177.52 134.872 176.56 133.712 175.2C132.552 173.84 131.592 173.16 131.272 172.6C130.992 172 125.552 158.72 124.592 155.16C123.632 151.56 118.672 137.8 118.272 136.92" stroke="#263238" stroke-miterlimit="10" stroke-linecap="round"/>
<path d="M125.272 185.04C127.512 184.64 129.112 183.12 129.552 181.92C130.152 180.28 133.232 179.48 133.912 178.52C134.592 177.56 134.872 176.6 133.712 175.24C132.552 173.88 131.592 173.2 131.272 172.64C131.112 172.32 129.512 168.44 127.912 164.32C125.792 166.08 123.072 166.44 121.152 166.4C123.632 170.72 125.792 174.36 125.792 174.36C125.792 174.36 123.272 178.84 122.392 180.16C121.512 181.52 118.432 183.08 118.912 184.12C119.352 185.24 123.032 185.44 125.272 185.04Z" fill="white" stroke="#263238" stroke-miterlimit="10" stroke-linecap="round"/>
<path d="M129.512 181.96C130.112 180.32 133.192 179.52 133.872 178.56C134.552 177.6 134.832 176.64 133.672 175.28C133.392 174.96 133.112 174.68 132.872 174.4C131.792 176.16 128.632 180.16 126.312 181.2C123.872 182.28 121.952 181.2 121.952 181.2L121.712 180.96C120.512 182.12 118.432 183.32 118.832 184.2C119.312 185.28 122.992 185.48 125.232 185.08C127.472 184.68 129.112 183.16 129.512 181.96Z" fill="#263238" stroke="#263238" stroke-miterlimit="10" stroke-linecap="round"/>
<path d="M40.791 128.32C40.791 128.32 47.511 126.36 51.871 126.6C56.231 126.84 57.911 127.12 57.911 127.12C57.911 127.12 54.751 115.28 53.671 110.92C52.551 106.56 47.711 90.6396 47.711 90.6396L36.791 91.1596L40.791 128.32Z" fill="white" stroke="#263238" stroke-miterlimit="10" stroke-linecap="round"/>
<path d="M50.9912 104.84C50.9912 104.84 53.1912 120.28 54.3912 123.04C55.5912 125.76 55.8312 126 56.2712 126.56C56.7112 127.12 57.9512 127.16 57.9512 127.16L51.2312 103.8L50.9912 104.84Z" fill="#263238" stroke="#263238" stroke-miterlimit="10" stroke-linecap="round"/>
<path d="M45.5115 118.08C45.5115 118.08 49.0315 120.72 52.5115 122.12" stroke="#263238" stroke-miterlimit="10" stroke-linecap="round"/>
<path d="M44.5115 118.96C44.5115 118.96 47.7915 120.92 48.4715 121.28" stroke="#263238" stroke-miterlimit="10" stroke-linecap="round"/>
<path d="M49.9117 69.56C49.9117 69.56 51.4717 72.12 51.4717 73.12C51.4717 74.12 51.1517 76.28 51.3917 76.6C51.6717 76.92 53.2317 78.88 53.2317 79.44C53.2317 79.96 52.3917 81.08 52.3917 81.08C52.3917 81.08 52.1117 84.24 51.8717 85.2C51.5917 86.2 50.4317 86.24 49.9117 86.32C49.3917 86.4 46.3117 85.88 46.1117 85.88C45.9117 85.88 46.5517 95.16 46.7117 96.08C46.8317 97 43.9517 95.48 42.7517 94.36C41.5517 93.24 40.7117 92.44 40.7117 92.44C40.7117 92.44 36.5117 86.44 36.5917 86.12C36.6717 85.8 37.0717 81.2 37.0717 81.2C37.0717 81.2 35.4317 80 35.1517 77.24C34.8717 74.48 37.0717 70.52 41.3117 68.88C45.5917 67.28 48.9517 68.52 49.9117 69.56Z" fill="white" stroke="#263238" stroke-miterlimit="10" stroke-linecap="round"/>
<path d="M40.0714 78.0398C40.0714 78.0398 42.5514 77.7198 42.5114 76.9198C42.4314 76.1198 41.2714 75.6798 41.6714 74.9598C42.0714 74.2398 43.5114 73.7198 43.6314 72.9198C43.7514 72.1198 42.4314 71.8798 42.9114 70.7998C43.3514 69.7598 46.2314 69.9998 47.4314 70.2798C48.6314 70.5598 49.9514 69.5598 49.9514 69.5598C49.9514 69.5598 51.0714 68.3598 51.7914 68.6398C52.5114 68.9198 52.7914 67.6398 51.9914 67.1998C51.1914 66.7598 50.6314 67.0798 50.6314 67.0798C50.6314 67.0798 50.3114 65.8798 47.2714 64.7198C44.2314 63.5198 39.5114 64.9198 37.7914 66.2398C36.0714 67.5598 35.3514 69.3998 35.3514 69.3998C35.3514 69.3998 31.9514 72.2798 32.6714 74.7998C33.3914 77.2798 34.3114 79.3198 36.4714 81.7598C38.2714 83.7598 39.3514 79.1198 39.3514 79.1198L40.0714 78.0398Z" fill="#263238" stroke="#263238" stroke-miterlimit="10" stroke-linecap="round"/>
<path d="M49.9115 76.5197C49.9115 76.9997 49.7115 77.3597 49.4315 77.3597C49.1515 77.3597 48.9915 76.9597 48.9915 76.5197C48.9915 76.0397 49.1915 75.6797 49.4315 75.6797C49.6715 75.6797 49.9115 76.0797 49.9115 76.5197Z" fill="#263238"/>
<path d="M51.6313 82.9997C51.6313 83.3997 51.3113 83.7597 50.8713 83.7597C50.4713 83.7597 50.1113 83.4397 50.1113 82.9997C50.1113 82.5997 50.4313 82.2397 50.8713 82.2397C51.3113 82.2397 51.6313 82.5997 51.6313 82.9997Z" fill="#263238"/>
<path d="M48.2314 74.4396C48.2314 74.4396 49.2314 73.2396 50.5114 74.0396" stroke="#263238" stroke-miterlimit="10" stroke-linecap="round"/>
<path d="M41.1115 78.7199C41.1115 78.7199 39.8715 76.4799 38.1515 76.8799C36.4315 77.2799 37.1115 80.0399 37.9515 80.6399C38.7915 81.2399 40.1115 81.2799 40.7115 81.0799" fill="white"/>
<path d="M41.1115 78.7199C41.1115 78.7199 39.8715 76.4799 38.1515 76.8799C36.4315 77.2799 37.1115 80.0399 37.9515 80.6399C38.7915 81.2399 40.1115 81.2799 40.7115 81.0799" stroke="#263238" stroke-miterlimit="10" stroke-linecap="round"/>
<path d="M46.1113 85.8799L43.1113 84.3999L46.0313 88.4799L46.1113 85.8799Z" fill="#263238" stroke="#263238" stroke-miterlimit="10" stroke-linecap="round"/>
<path d="M46.592 93.76C46.592 93.76 48.632 98.88 49.432 101C50.232 103.12 52.712 115.92 54.672 121.12C56.632 126.32 57.312 127.84 57.952 128.2C58.592 128.6 60.232 128.6 60.232 128.6L61.272 128.32C61.272 128.32 60.152 126.68 59.032 124C57.912 121.32 57.192 117.44 57.072 116.56C56.952 115.72 56.792 112.56 56.792 112.56L58.632 115.4C58.632 115.4 65.192 109.24 65.472 108.84C65.752 108.44 56.992 92.36 56.672 91.48C56.352 90.64 56.232 90.56 55.672 90.24C55.152 89.92 46.792 87.48 46.792 87.48C46.792 87.48 46.432 91.44 46.592 93.76Z" fill="#92E3A9" stroke="#263238" stroke-miterlimit="10" stroke-linecap="round"/>
<path d="M56.8316 112.56L54.9116 98.0402L55.1916 93.1602" stroke="#263238" stroke-miterlimit="10" stroke-linecap="round"/>
<path d="M56.1514 94.3999L55.2314 99.1199" stroke="#263238" stroke-miterlimit="10" stroke-linecap="round"/>
<path d="M53.1516 115.08C53.1516 115.08 57.9916 126.4 60.4716 127.96" stroke="#263238" stroke-miterlimit="10" stroke-linecap="round"/>
<path d="M47.5515 94.4799C47.4315 94.2799 47.1515 92.5599 47.4315 92.2399C47.7115 91.9199 49.0715 93.5999 49.7115 94.1599C50.3515 94.6799 51.0315 94.5999 50.6315 94.0399C50.2315 93.4799 47.3515 86.9999 46.8315 86.3999C46.3115 85.7999 46.0715 86.2799 46.0715 86.2799L46.5115 93.0399" fill="#92E3A9"/>
<path d="M47.5515 94.4799C47.4315 94.2799 47.1515 92.5599 47.4315 92.2399C47.7115 91.9199 49.0715 93.5999 49.7115 94.1599C50.3515 94.6799 51.0315 94.5999 50.6315 94.0399C50.2315 93.4799 47.3515 86.9999 46.8315 86.3999C46.3115 85.7999 46.0715 86.2799 46.0715 86.2799L46.5115 93.0399" stroke="#263238" stroke-miterlimit="10" stroke-linecap="round"/>
<path d="M33.711 88.24C33.711 88.24 34.751 85.04 35.351 84.88C35.951 84.76 41.871 91.72 41.711 92.16C41.591 92.6 40.711 95.36 40.471 95.84C40.191 96.32 40.351 97.48 40.351 97.48C40.351 97.48 42.391 113.76 43.231 119.04C44.071 124.28 44.431 125.92 43.311 127C42.191 128.04 33.471 132.64 31.431 135.72C29.391 138.8 29.191 140.04 29.191 140.04L25.911 141.08C25.911 141.08 24.191 138.52 25.391 135.28C26.591 132.08 28.791 125.64 28.791 124.84C28.791 124.04 29.191 115.12 29.191 115.12L18.791 110.8C18.791 110.8 22.871 92.48 23.831 91.4C24.831 90.4 33.711 88.24 33.711 88.24Z" fill="#92E3A9" stroke="#263238" stroke-miterlimit="10" stroke-linecap="round"/>
<path d="M34.031 88.7598C34.031 88.7598 38.591 95.7598 38.991 95.7198C39.391 95.6398 40.751 92.4398 40.751 92.4398" fill="#92E3A9"/>
<path d="M34.031 88.7598C34.031 88.7598 38.591 95.7598 38.991 95.7198C39.391 95.6398 40.751 92.4398 40.751 92.4398" stroke="#263238" stroke-miterlimit="10" stroke-linecap="round"/>
<path d="M29.3105 111.24L29.3905 99.04" stroke="#263238" stroke-miterlimit="10" stroke-linecap="round"/>
<path d="M27.0713 98.7598C27.7513 100.28 28.5913 102 29.1113 102.64" stroke="#263238" stroke-miterlimit="10" stroke-linecap="round"/>
<path d="M25.8311 95.8398C25.8311 95.8398 26.1111 96.5598 26.5511 97.5198" stroke="#263238" stroke-miterlimit="10" stroke-linecap="round"/>
<path d="M26.5107 100.6C26.5107 100.6 28.5107 103.84 29.2707 104.44" stroke="#263238" stroke-miterlimit="10" stroke-linecap="round"/>
<path d="M41.7509 126.88C41.7509 126.88 33.5509 130.4 30.5909 133.44C27.6309 136.48 27.7109 139.84 27.7109 139.84" stroke="#263238" stroke-miterlimit="10" stroke-linecap="round"/>
<path d="M41.3514 124.2C41.3514 124.2 41.1114 126.08 38.1514 127.72" stroke="#263238" stroke-miterlimit="10" stroke-linecap="round"/>
<path d="M67.1915 108.88C67.1915 108.88 64.5115 106.84 63.6315 106.96C62.7915 107.08 58.9115 111.36 58.4315 113.2C57.9915 115.04 58.8315 116.08 59.4315 116.76C60.0315 117.4 65.1515 119.32 65.7915 118.72C66.4315 118.12 68.1515 112 68.2315 110.92C68.3115 109.8 67.1915 108.88 67.1915 108.88Z" fill="#92E3A9" stroke="#263238" stroke-miterlimit="10" stroke-linecap="round"/>
<path d="M66.1917 110.04C65.0317 110.6 64.1517 111.52 63.7517 113.48C63.2317 115.88 65.3517 119.36 68.0717 117.68C68.5917 117.36 79.3917 111.72 79.3917 111.72C79.3917 111.72 82.5917 111.64 83.3517 111.44C84.0717 111.24 84.7117 107.84 85.1917 107.44C85.6317 107.04 87.5517 106 87.6317 105.28C87.7117 104.56 87.1517 104.44 86.3917 104.64C85.5917 104.84 84.0317 104.92 83.2317 104.84C82.4317 104.76 82.4317 104.76 82.4317 104.76C82.4317 104.76 82.1517 103.56 82.8317 103.2C83.4717 102.8 83.8317 102 83.8717 101.16C83.9517 100.32 83.4717 100.32 83.0717 100.88C82.6717 101.48 82.3517 102.2 81.7517 102.64C81.1517 103.08 80.5117 104.4 80.5117 105.2C80.5117 106 80.1917 106.76 80.1917 106.76C80.1917 106.76 71.4717 108.8 69.7917 109.12C68.3917 109.4 67.1917 109.6 66.1917 110.04Z" fill="white" stroke="#263238" stroke-miterlimit="10" stroke-linecap="round"/>
<path d="M87.3918 104.24C87.3918 104.24 85.5918 104.08 85.3518 104.8C85.1118 105.52 86.4318 106.2 87.4718 105.84C88.5118 105.48 88.1918 104.24 87.3918 104.24Z" fill="white" stroke="#263238" stroke-miterlimit="10" stroke-linecap="round"/>
<path d="M86.3116 107.6C86.3116 107.6 84.1916 107.44 83.4316 107.56C82.6716 107.68 82.6316 108.32 82.7116 108.68C82.8316 109.04 85.7916 109.36 86.1916 109.24C86.5916 109.12 86.9516 108.64 86.8716 108.16C86.7916 107.72 86.3116 107.6 86.3116 107.6Z" fill="white" stroke="#263238" stroke-miterlimit="10" stroke-linecap="round"/>
<path d="M85.3917 109.24C85.3917 109.24 83.2717 109.08 82.5117 109.2C81.7517 109.32 81.7117 109.96 81.7917 110.32C81.9117 110.68 84.8717 111 85.2717 110.88C85.6717 110.76 86.0317 110.28 85.9517 109.8C85.8717 109.36 85.3917 109.24 85.3917 109.24Z" fill="white" stroke="#263238" stroke-miterlimit="10" stroke-linecap="round"/>
<path d="M84.0717 110.84C84.0717 110.84 82.2317 110.72 81.5917 110.8C80.9117 110.88 80.8717 111.48 80.9517 111.8C81.0317 112.12 83.6317 112.36 83.9917 112.28C84.3517 112.2 84.6717 111.76 84.5517 111.36C84.4717 110.92 84.0717 110.84 84.0717 110.84Z" fill="white" stroke="#263238" stroke-miterlimit="10" stroke-linecap="round"/>
<path d="M83.8313 105.44C83.8313 105.44 83.3113 105.96 83.7913 106.68" stroke="#263238" stroke-miterlimit="10" stroke-linecap="round"/>
<path d="M80.2319 108.28C80.2319 108.28 79.1519 109.6 79.7119 110.6" stroke="#263238" stroke-miterlimit="10" stroke-linecap="round"/>
<path d="M26.4315 111.64C26.4315 111.64 21.4715 110.04 19.6315 109.64C17.7915 109.28 17.1515 110.32 17.0315 110.68C16.9115 111 15.5115 117.16 15.9115 118.32C16.2715 119.52 19.3915 121.56 20.8715 121.8C22.3115 122.08 25.6715 120.04 26.9515 118.68C28.2715 117.32 27.2715 112.48 26.4315 111.64Z" fill="#92E3A9" stroke="#263238" stroke-miterlimit="10" stroke-linecap="round"/>
<path d="M26.0314 111.56C26.0314 111.56 36.1514 111.16 37.3114 111.04C38.4714 110.88 39.5114 110.12 39.5114 110.12L40.1114 107.08L42.2714 104.4C42.2714 104.4 42.6714 102.8 43.2714 103.12C43.8714 103.44 44.1114 104.2 43.7914 104.96C43.4714 105.72 42.7914 106.96 42.7914 107.32C42.7914 107.72 42.7914 107.72 42.7914 107.72C42.7914 107.72 45.3114 108.24 46.6714 107.96C48.0314 107.64 51.6314 107.24 51.8714 107.6C52.1114 107.92 52.1914 108.12 51.5114 108.4C50.8314 108.68 47.8714 109.56 47.1514 109.84C46.3914 110.12 46.0714 110.24 46.4714 110.36C46.8314 110.44 49.3514 110.08 50.4314 109.84C51.5114 109.6 52.7114 109.48 52.6714 109.88C52.6314 110.28 51.9114 110.64 51.7914 110.68C51.6714 110.72 50.0714 111.24 49.7914 111.32C49.5114 111.4 47.8314 111.88 47.8314 111.88C47.8314 111.88 50.6314 111.84 51.2314 111.68C51.8314 111.56 52.6714 111.32 52.5514 111.72C52.4314 112.12 51.7914 112.52 51.1914 112.64C50.5914 112.76 49.4314 113.44 49.4314 113.44C49.4314 113.44 50.0714 113.36 49.1914 114.08C48.3114 114.8 46.5114 115.52 45.8314 115.72C45.1914 115.92 40.4714 115.04 39.5114 115.24C38.5514 115.48 28.1514 120.04 26.1914 120.44C22.1914 121.28 19.5514 121 18.7514 116.4C18.3914 114.32 19.6714 112.12 21.8714 111.68C22.7914 111.48 26.0314 111.56 26.0314 111.56Z" fill="white" stroke="#263238" stroke-miterlimit="10" stroke-linecap="round"/>
<path d="M49.3911 113.4L46.1111 114.32" stroke="#263238" stroke-miterlimit="10" stroke-linecap="round"/>
<path d="M71.7516 178.28C71.7516 178.28 71.4716 182.2 72.2716 182.76C73.1116 183.32 79.4316 183.6 80.1916 183.64C80.9516 183.72 87.8316 185 87.8316 185C87.8316 185 91.8716 184.88 92.1516 184.04C92.4316 183.2 92.5116 181.76 92.0316 181.56C91.5516 181.36 88.8716 180.96 86.6716 179.76C84.4716 178.6 81.3116 174.6 81.3116 174.6L71.7516 178.28Z" fill="#92E3A9" stroke="#263238" stroke-miterlimit="10" stroke-linecap="round"/>
<path d="M92.152 184.08C92.192 183.96 92.232 183.84 92.272 183.68C91.032 183.92 89.352 184.2 88.792 184.28C87.832 184.4 82.752 183.12 80.192 182.68C78.272 182.36 73.832 181.8 71.832 181.56C71.912 182.12 72.072 182.56 72.312 182.72C73.152 183.28 79.472 183.56 80.232 183.6C80.992 183.68 87.872 184.96 87.872 184.96C87.872 184.96 91.872 184.88 92.152 184.08Z" fill="white" stroke="#263238" stroke-miterlimit="10" stroke-linecap="round"/>
<path d="M29.1515 140.08C29.1515 140.08 31.3115 142.8 38.8715 142.8C46.4315 142.8 49.5915 142.28 49.5915 142.28C49.5915 142.28 51.1916 155.16 53.1516 159.64C55.1116 164.16 55.8315 172.56 55.8315 172.56C55.8315 172.56 54.7115 174.16 55.0715 175.04C55.4315 175.88 56.1115 178.04 56.1115 178.04L56.6315 179.64L64.3915 179.48C64.3915 179.48 64.6315 178.88 64.5516 177.36C64.4715 175.84 63.8715 175.16 63.7115 173.88C63.5515 172.6 64.5115 152.56 64.1115 150.08C63.6715 147.6 64.0316 142.16 64.0316 142.16L72.6315 141.72C72.6315 141.72 72.0315 148.2 72.8715 153.64C73.7115 159.08 71.8715 169.88 71.8715 170.48C71.8715 171.08 70.9515 172.2 70.9515 172.8C70.9515 173.4 71.7915 175.28 71.7915 175.28C71.7915 175.28 71.4315 175.8 71.4315 176.56C71.4315 177.32 71.6715 178.36 71.6715 178.36L81.9915 175.28C81.9915 175.28 82.1516 173.56 81.9115 172.96C81.6715 172.36 80.8715 172.12 80.8715 171.84C80.8715 171.6 80.7915 170.56 80.7915 170.56L80.1915 168.52C80.1915 168.52 85.2715 146.68 85.2715 143.6C85.2715 140.52 87.0716 135.6 85.9515 134.16C84.8316 132.72 82.0315 131.16 74.1115 129.64C66.1915 128.12 59.1115 127.92 59.1115 127.92L57.8315 127.16C57.8315 127.16 49.7515 124.44 40.7115 128.36C40.7915 128.32 29.0315 132.48 29.1515 140.08Z" fill="#616161" stroke="#263238" stroke-miterlimit="10" stroke-linecap="round" stroke-linejoin="round"/>
<path d="M37.8716 131.72C37.8716 131.72 43.6716 129.4 50.7516 129.4C57.8316 129.4 63.5116 132.04 64.0316 133.4C64.5516 134.76 64.0316 142.08 64.0316 142.08" stroke="#263238" stroke-miterlimit="10" stroke-linecap="round"/>
<path d="M52.9513 134.44C52.9513 134.44 50.3113 137.52 49.7913 141.52" stroke="#263238" stroke-miterlimit="10" stroke-linecap="round"/>
<path d="M77.5916 133.92C77.5916 133.92 73.7516 137.08 73.1516 140.12" stroke="#263238" stroke-miterlimit="10" stroke-linecap="round"/>
<path d="M79.8315 171.8C79.8315 171.8 74.0315 174.96 73.0315 175.56" stroke="#263238" stroke-miterlimit="10" stroke-linecap="round"/>
<path d="M77.7916 168.56C77.7916 168.56 75.7516 171.04 74.1116 172.8" stroke="#263238" stroke-miterlimit="10" stroke-linecap="round"/>
<path d="M58.2715 171.56C58.2715 171.56 59.3915 172.48 61.4315 173.44" stroke="#263238" stroke-miterlimit="10" stroke-linecap="round"/>
<path d="M58.0315 166.68C58.0315 166.68 59.6315 169.4 61.3515 171.28" stroke="#263238" stroke-miterlimit="10" stroke-linecap="round"/>
<path d="M65.7515 181.04C65.7515 181.04 64.1115 176.28 62.1115 175.48C60.1115 174.64 56.5115 175.68 56.1515 178.04C55.7915 180.36 54.7515 185.24 54.8315 186.08C54.9115 186.92 57.5915 187.12 59.5115 187.12C61.4315 187.12 68.2315 187.2 68.3915 185.88C68.5115 184.56 66.1115 181.64 65.7515 181.04Z" fill="#92E3A9" stroke="#263238" stroke-miterlimit="10" stroke-linecap="round"/>
<path d="M54.9111 185.16C54.8711 185.6 54.8311 185.92 54.8311 186.08C54.9111 186.92 57.5911 187.12 59.5111 187.12C61.4311 187.12 68.2311 187.2 68.3911 185.88C68.4311 185.56 68.3111 185.12 68.0711 184.68C67.1911 185.04 65.6311 185.6 63.5511 185.76C60.8311 185.96 56.2711 185.36 54.9111 185.16Z" fill="white" stroke="#263238" stroke-miterlimit="10" stroke-linecap="round"/>
<path d="M84.6318 48.6802H61.6318C59.9518 48.6802 58.5518 50.0402 58.5518 51.7602V61.4802C58.5518 63.1602 59.9118 64.5602 61.6318 64.5602H67.5118L61.5518 73.2802L73.3118 64.5602H84.5918C86.2718 64.5602 87.6718 63.2002 87.6718 61.4802V51.7602C87.7118 50.0802 86.3518 48.6802 84.6318 48.6802Z" fill="#263238" stroke="#263238" stroke-miterlimit="10" stroke-linecap="round"/>
<path d="M69.5917 56.6402C69.5917 57.4002 68.9517 58.0402 68.1917 58.0402C67.4317 58.0402 66.7917 57.4002 66.7917 56.6402C66.7917 55.8802 67.4317 55.2402 68.1917 55.2402C68.9917 55.2402 69.5917 55.8802 69.5917 56.6402Z" fill="#92E3A9"/>
<path d="M74.2316 56.6402C74.2316 57.4002 73.5916 58.0402 72.8316 58.0402C72.0716 58.0402 71.4316 57.4002 71.4316 56.6402C71.4316 55.8802 72.0716 55.2402 72.8316 55.2402C73.5916 55.2402 74.2316 55.8802 74.2316 56.6402Z" fill="#92E3A9"/>
<path d="M78.8322 56.6402C78.8322 57.4002 78.1922 58.0402 77.4322 58.0402C76.6722 58.0402 76.0322 57.4002 76.0322 56.6402C76.0322 55.8802 76.6722 55.2402 77.4322 55.2402C78.2322 55.2402 78.8322 55.8802 78.8322 56.6402Z" fill="#92E3A9"/>
</svg>
