<svg width="301" height="200" viewBox="0 0 301 200" fill="none" xmlns="http://www.w3.org/2000/svg">
<path d="M287.272 67.2801C283.672 50.6001 276.192 35.7601 262.472 26.7601C244.112 14.6801 219.872 12.6001 196.992 19.0801C183.952 22.7601 171.632 29.6801 159.592 36.8001C148.872 43.1201 136.112 53.0001 124.192 54.4001C108.032 56.2801 76.3917 28.7201 47.4717 33.5201C18.5517 38.3201 2.75166 76.2001 4.67166 100.68C6.59166 125.16 32.9117 127.08 38.5117 147.44C44.1117 167.8 74.9917 187.08 119.552 179.12C164.112 171.16 187.352 166.4 207.832 177.04C228.352 187.68 258.552 192.56 276.552 155.72C283.752 140.96 288.232 125.08 289.432 109.32C290.472 95.6001 290.152 80.8401 287.272 67.2801Z" fill="#92E3A9"/>
<path opacity="0.8" d="M287.272 67.2801C283.672 50.6001 276.192 35.7601 262.472 26.7601C244.112 14.6801 219.872 12.6001 196.992 19.0801C183.952 22.7601 171.632 29.6801 159.592 36.8001C148.872 43.1201 136.112 53.0001 124.192 54.4001C108.032 56.2801 76.3917 28.7201 47.4717 33.5201C18.5517 38.3201 2.75166 76.2001 4.67166 100.68C6.59166 125.16 32.9117 127.08 38.5117 147.44C44.1117 167.8 74.9917 187.08 119.552 179.12C164.112 171.16 187.352 166.4 207.832 177.04C228.352 187.68 258.552 192.56 276.552 155.72C283.752 140.96 288.232 125.08 289.432 109.32C290.472 95.6001 290.152 80.8401 287.272 67.2801Z" fill="white"/>
<path d="M296.032 178.48H9.27173" stroke="#263238" stroke-miterlimit="10" stroke-linecap="round" stroke-linejoin="round"/>
<path d="M56.4717 38.48H30.2717V74.28H56.4717V38.48Z" stroke="#263238" stroke-miterlimit="10" stroke-linecap="round" stroke-linejoin="round"/>
<path d="M54.2717 41.52H32.5117V71.24H54.2717V41.52Z" stroke="#263238" stroke-miterlimit="10" stroke-linecap="round" stroke-linejoin="round"/>
<path d="M48.5917 49.2798H38.1917V63.4798H48.5917V49.2798Z" fill="#92E3A9" stroke="#263238" stroke-miterlimit="10" stroke-linecap="round" stroke-linejoin="round"/>
<path d="M77.2318 52.5601H61.3118V74.2801H77.2318V52.5601Z" stroke="#263238" stroke-miterlimit="10" stroke-linecap="round" stroke-linejoin="round"/>
<path d="M75.8719 54.3999H62.6719V72.4399H75.8719V54.3999Z" stroke="#263238" stroke-miterlimit="10" stroke-linecap="round" stroke-linejoin="round"/>
<path d="M72.4719 59.1201H66.1519V67.7201H72.4719V59.1201Z" fill="#92E3A9" stroke="#263238" stroke-miterlimit="10" stroke-linecap="round" stroke-linejoin="round"/>
<path d="M35.7917 119.8C35.7917 119.76 35.7917 119.76 35.7517 119.72C35.7117 119.72 35.7117 119.72 35.6717 119.76C34.2717 122.96 33.3117 126.32 32.5117 129.68C31.7117 133.08 31.1517 136.52 30.7517 139.96L30.5117 142.56C30.4717 143 30.4317 143.44 30.3917 143.88L30.3117 145.2C30.2717 146.08 30.2317 146.96 30.1917 147.8L30.2317 150.4L30.2717 151.72C30.2717 152.16 30.3117 152.6 30.3517 153.04C30.4317 153.92 30.4717 154.76 30.5517 155.64C30.7117 157.36 30.9917 159.08 31.2317 160.8C31.2317 160.84 31.2717 160.84 31.2717 160.84C31.3117 160.84 31.3117 160.8 31.3117 160.8C31.3117 159.92 31.2717 159.08 31.2317 158.2C31.1917 157.32 31.1117 156.48 31.1517 155.6C31.1517 154.72 31.1517 153.88 31.1117 153L31.0717 151.72L31.1117 150.44V147.84L31.1917 145.24L31.2317 143.96C31.2317 143.52 31.2717 143.08 31.3117 142.68L31.4717 140.08C31.7917 136.64 32.2317 133.2 32.9517 129.8C33.7117 126.4 34.5517 123.04 35.7917 119.8Z" fill="#263238"/>
<path d="M36.1917 133.36C36.1917 133.32 36.1917 133.32 36.1517 133.32C36.1117 133.32 36.1117 133.32 36.1117 133.36C35.3517 135.52 34.7517 137.72 34.2717 139.92C33.7917 142.16 33.4317 144.4 33.1917 146.68C32.9517 148.96 32.7117 151.2 32.6717 153.48C32.6317 155.76 32.6717 158.04 32.9117 160.32C32.9117 160.36 32.9117 160.36 32.9517 160.36C32.9917 160.36 32.9917 160.36 32.9917 160.32C33.2717 158.04 33.4317 155.8 33.5917 153.52C33.7517 151.24 33.7917 149 33.9117 146.72C34.0317 144.48 34.3117 142.2 34.7117 140C35.0717 137.76 35.5517 135.52 36.1917 133.36Z" fill="#263238"/>
<path d="M43.6716 138.12C43.6716 138.08 43.6316 138.08 43.5916 138.12C41.7116 139.32 40.0316 140.8 38.5916 142.48C37.8716 143.32 37.1916 144.24 36.6316 145.2L36.2316 145.96L35.9116 146.76C35.7916 147.04 35.7116 147.28 35.6316 147.56C35.5516 147.84 35.4716 148.08 35.3916 148.36C34.8316 150.52 34.4716 152.76 34.3516 155C34.2716 157.24 34.3116 159.44 34.5916 161.68C34.5916 161.72 34.6316 161.72 34.6316 161.72C34.6716 161.72 34.6716 161.72 34.6716 161.68L35.2316 155.08C35.4716 152.88 35.5916 150.72 36.0716 148.56C36.1116 148.28 36.1916 148.04 36.2716 147.76C36.3516 147.48 36.3916 147.24 36.5116 147L36.7916 146.24L37.1516 145.52C37.6716 144.56 38.2716 143.64 38.9516 142.8C40.3116 141.08 41.8716 139.48 43.6716 138.2C43.7116 138.16 43.7116 138.16 43.6716 138.12Z" fill="#263238"/>
<path d="M40.0717 146.6C39.0317 147.28 38.3517 148.28 37.7917 149.36C37.2317 150.44 36.7917 151.56 36.5117 152.72C36.4317 153 36.3517 153.28 36.2717 153.6L36.0717 154.48C35.9517 155.08 35.8717 155.68 35.8317 156.28C35.8317 156.88 35.7917 157.48 35.8317 158.08C35.8717 158.68 35.9517 159.28 36.0717 159.88C36.0717 159.88 36.0717 159.92 36.1117 159.92C36.1517 159.92 36.1517 159.92 36.1517 159.88C36.3117 159.28 36.3917 158.72 36.4717 158.12C36.5517 157.52 36.6717 156.96 36.7117 156.4C36.7917 155.84 36.8717 155.24 36.9117 154.68C36.9917 154.12 37.0317 153.52 37.1517 152.96C37.3517 151.8 37.6717 150.68 38.1117 149.64C38.5517 148.6 39.1517 147.52 40.0317 146.76C40.0317 146.76 40.0717 146.72 40.0317 146.72C40.1117 146.6 40.0717 146.6 40.0717 146.6Z" fill="#263238"/>
<path d="M29.5117 153.2C29.2717 150.28 28.7917 147.36 28.3117 144.48C27.8717 141.56 27.3517 138.68 26.8317 135.8C26.2717 132.92 25.7117 130.04 25.0717 127.16C25.0717 127.12 25.0317 127.12 25.0317 127.12C24.9917 127.12 24.9917 127.16 24.9917 127.16C25.5117 130.04 25.9517 132.96 26.3917 135.84C26.8317 138.72 27.2317 141.64 27.6317 144.56C27.9917 147.48 28.2717 150.4 28.6317 153.28L29.7117 162C29.7117 162.04 29.7517 162.04 29.7517 162.04C29.7917 162.04 29.7917 162.04 29.7917 162C29.8317 161.28 29.8317 160.52 29.8317 159.8C29.8317 159.08 29.7917 158.32 29.7917 157.6C29.7517 156.16 29.6317 154.68 29.5117 153.2Z" fill="#263238"/>
<path d="M27.7517 153.16C27.5917 152 27.3917 150.84 27.1517 149.68L26.7517 147.96C26.6317 147.4 26.4717 146.8 26.3117 146.24C25.7117 143.96 24.9917 141.72 24.0717 139.56L23.7117 138.76L23.3117 137.96C23.0717 137.44 22.7517 136.92 22.4717 136.4C21.8717 135.4 21.2317 134.4 20.3517 133.6C20.3517 133.6 20.3117 133.6 20.2717 133.6C20.2717 133.6 20.2717 133.64 20.2717 133.68C21.0717 134.52 21.6717 135.52 22.1917 136.56C22.4317 137.08 22.7117 137.6 22.9517 138.12L23.3117 138.92L23.6317 139.72C24.4317 141.88 25.1117 144.12 25.5917 146.4C25.8717 147.52 26.0317 148.68 26.2717 149.8L26.5517 151.52C26.6317 152.08 26.7917 152.64 26.8717 153.24C27.0717 154.4 27.2717 155.52 27.4717 156.68C27.6317 157.84 27.8717 158.96 28.1117 160.12C28.1117 160.16 28.1517 160.16 28.1517 160.16C28.1917 160.16 28.1917 160.12 28.1917 160.12C28.1917 158.96 28.1517 157.76 28.1117 156.6C28.0317 155.48 27.9117 154.32 27.7517 153.16Z" fill="#263238"/>
<path d="M25.3518 153.32C24.7918 151.8 24.1918 150.28 23.5118 148.8C22.7918 147.32 22.0318 145.88 21.1918 144.52C21.1918 144.52 21.1518 144.48 21.1118 144.52C21.0718 144.52 21.0718 144.56 21.1118 144.6C21.8718 146.04 22.5118 147.52 23.1118 149C23.7118 150.48 24.2318 152 24.7118 153.56C25.1518 155.12 25.5118 156.68 25.9118 158.24C26.3518 159.8 26.7118 161.36 27.1518 162.92L27.1918 162.96C27.2318 162.96 27.2318 162.92 27.2318 162.92C27.2718 161.28 27.1118 159.64 26.7918 158.04C26.4718 156.4 25.8718 154.84 25.3518 153.32Z" fill="#263238"/>
<path d="M25.2317 158.44C24.9517 157.48 24.4717 156.6 23.9517 155.72C23.4317 154.88 22.7917 154.08 22.0717 153.4C21.7117 153.08 21.3117 152.76 20.8717 152.48C20.4317 152.2 19.9917 152 19.5117 151.88C19.4717 151.88 19.4717 151.88 19.4717 151.92C19.4717 151.96 19.4717 151.96 19.5117 152C20.3917 152.4 21.1517 153.04 21.7517 153.76C22.3917 154.48 22.9117 155.28 23.3117 156.12C23.7517 156.96 23.9917 157.88 24.3917 158.76C24.5517 159.2 24.7517 159.64 24.9117 160.08C25.0717 160.52 25.2717 161 25.5117 161.44L25.5517 161.48C25.5917 161.48 25.5917 161.48 25.5917 161.44C25.6317 160.92 25.5917 160.44 25.5517 159.96C25.4717 159.4 25.3517 158.92 25.2317 158.44Z" fill="#263238"/>
<path d="M25.4317 131.36C25.4317 131.36 20.6317 130.24 19.5117 125.08C18.3917 119.92 21.9917 122.12 18.7917 114C15.5917 105.88 16.3117 104.04 17.4317 101.68C18.5517 99.3598 19.1517 100.08 20.1517 103.16C21.1517 106.24 24.7117 111.04 26.0717 120.04C27.3917 129.04 25.4317 131.36 25.4317 131.36Z" fill="#92E3A9"/>
<path d="M34.9117 122.64C34.9117 122.64 31.7117 121.52 31.5917 115.48C31.4717 109.44 33.9117 110.68 34.3117 103.16C34.6717 95.6401 35.1917 90.3601 36.5117 90.2401C37.8717 90.1201 41.4317 93.9201 42.6717 102.32C43.9117 110.68 41.0717 116.24 38.5917 118.68C36.1517 121.16 34.9117 122.64 34.9117 122.64Z" fill="#92E3A9"/>
<path d="M23.7116 138.64C23.7116 138.64 22.9916 134.2 21.5116 132.12C20.0316 130.04 16.8316 128.16 14.7516 124.12C12.6716 120.04 10.3116 118.08 10.4316 123.88C10.5516 129.68 13.1516 132.64 16.3516 134.6C19.5116 136.56 23.7116 138.64 23.7116 138.64Z" fill="#92E3A9"/>
<path d="M22.3517 146.28C22.3517 146.28 19.3917 140.6 15.0717 136.44C10.7517 132.24 7.3117 130.16 8.5517 132.24C9.7917 134.32 11.2717 134.2 13.3517 137.92C15.4317 141.6 14.8317 144.32 17.7917 146.4C20.7517 148.48 22.3517 146.28 22.3517 146.28Z" fill="#92E3A9"/>
<path d="M21.9918 153.52C21.8718 153.16 21.7518 150.44 17.5518 148.24C13.3518 146.04 9.43179 146.88 9.91179 148C10.3918 149.12 12.9918 150.96 15.5918 152.08C18.1518 153.16 21.9918 153.52 21.9918 153.52Z" fill="#92E3A9"/>
<path d="M34.6718 138.88C34.6718 138.88 32.8318 136.56 33.7918 131.6C34.7918 126.68 36.9918 127.92 39.4718 125.32C41.9518 122.72 41.4318 122.36 43.9118 119.64C46.3918 116.92 48.5918 115.44 49.5918 116.56C50.5918 117.68 49.1118 121.12 47.6318 123.08C46.1518 125.04 43.8318 126.04 42.7118 128.48C41.5918 130.96 42.1118 134.88 39.2718 136.72C36.3918 138.64 34.6718 138.88 34.6718 138.88Z" fill="#92E3A9"/>
<path d="M40.8318 140.24C40.8318 140.24 45.2718 135.2 48.4718 131.48C51.6718 127.8 52.9118 124.96 53.0318 127.4C53.1518 129.88 54.1518 131.84 51.5518 135.04C48.9518 138.28 40.8318 140.24 40.8318 140.24Z" fill="#92E3A9"/>
<path d="M38.4718 148.36C38.4718 148.36 38.3518 146.4 45.3518 141.84C52.3518 137.28 55.3118 136.44 54.5918 138.28C53.8718 140.12 50.7918 141.96 47.4318 145.28C44.1518 148.6 38.4718 148.36 38.4718 148.36Z" fill="#92E3A9"/>
<path d="M25.7117 130.84C25.7117 130.84 24.0717 122 22.3517 115.72C20.6317 109.44 19.5117 105.64 19.5117 105.64" stroke="#263238" stroke-miterlimit="10" stroke-linecap="round" stroke-linejoin="round"/>
<path d="M34.6316 122.72C34.6316 122.72 37.6316 113.16 38.5916 107.36C39.5916 101.56 38.4716 97.2802 37.9916 94.6802" stroke="#263238" stroke-miterlimit="10" stroke-linecap="round" stroke-linejoin="round"/>
<path d="M23.3117 138.44C23.3117 138.44 21.4717 135.16 18.7917 131.96C16.0717 128.76 13.9917 127.04 12.7517 123.96" stroke="#263238" stroke-miterlimit="10" stroke-linecap="round" stroke-linejoin="round"/>
<path d="M34.6716 138.88C34.6716 138.88 35.6716 132.96 37.9916 129.88C40.3116 126.8 44.9916 122 46.8716 118.92" stroke="#263238" stroke-miterlimit="10" stroke-linecap="round" stroke-linejoin="round"/>
<path d="M21.6718 153.4C21.6718 153.4 17.5118 150.72 14.5918 149.24" stroke="#263238" stroke-miterlimit="10" stroke-linecap="round" stroke-linejoin="round"/>
<path d="M39.4718 157.96H22.5918C22.5518 158 22.5118 158.04 22.4718 158.08C21.9518 158.72 22.5918 168.68 23.2318 176.52C23.3118 177.76 24.3518 178.72 25.5918 178.72H36.4718C37.7118 178.72 38.7518 177.76 38.8318 176.52C39.4318 168.64 40.0718 158.68 39.5918 158.08C39.5518 158.04 39.5118 158 39.4718 157.96Z" fill="#263238" stroke="#263238" stroke-miterlimit="10" stroke-linecap="round" stroke-linejoin="round"/>
<path d="M175.912 53.5601V178.48H187.312V53.5601H175.912ZM187.192 176.28H177.392V55.8001H187.192V176.28Z" fill="#E3E3E3" stroke="#263238" stroke-miterlimit="10" stroke-linecap="round" stroke-linejoin="round"/>
<path d="M199.272 56.0801H197.592V81.5601H199.272V56.0801Z" fill="#E3E3E3" stroke="#263238" stroke-miterlimit="10" stroke-linecap="round" stroke-linejoin="round"/>
<path d="M197.711 56.0801H196.031V81.5601H197.711V56.0801Z" fill="#E3E3E3" stroke="#263238" stroke-miterlimit="10" stroke-linecap="round" stroke-linejoin="round"/>
<path d="M199.272 83.8398H197.592V107.48H199.272V83.8398Z" fill="#E3E3E3" stroke="#263238" stroke-miterlimit="10" stroke-linecap="round" stroke-linejoin="round"/>
<path d="M197.711 83.8398H196.031V107.48H197.711V83.8398Z" fill="#E3E3E3" stroke="#263238" stroke-miterlimit="10" stroke-linecap="round" stroke-linejoin="round"/>
<path d="M199.272 109.68H197.592V133.32H199.272V109.68Z" fill="#E3E3E3" stroke="#263238" stroke-miterlimit="10" stroke-linecap="round" stroke-linejoin="round"/>
<path d="M197.711 109.68H196.031V133.32H197.711V109.68Z" fill="#E3E3E3" stroke="#263238" stroke-miterlimit="10" stroke-linecap="round" stroke-linejoin="round"/>
<path d="M199.272 135.48H197.592V140.88H199.272V135.48Z" fill="#E3E3E3" stroke="#263238" stroke-miterlimit="10" stroke-linecap="round" stroke-linejoin="round"/>
<path d="M197.711 135.48H196.031V140.88H197.711V135.48Z" fill="#E3E3E3" stroke="#263238" stroke-miterlimit="10" stroke-linecap="round" stroke-linejoin="round"/>
<path d="M199.272 161.48H197.592V176H199.272V161.48Z" fill="#E3E3E3" stroke="#263238" stroke-miterlimit="10" stroke-linecap="round" stroke-linejoin="round"/>
<path d="M197.711 161.48H196.031V176H197.711V161.48Z" fill="#E3E3E3" stroke="#263238" stroke-miterlimit="10" stroke-linecap="round" stroke-linejoin="round"/>
<path d="M175.152 53.5601V178.48H187.432V53.5601H175.152ZM186.432 176.28H176.632V55.8001H186.432V176.28Z" fill="#E3E3E3" stroke="#263238" stroke-miterlimit="10" stroke-linecap="round" stroke-linejoin="round"/>
<path d="M216.072 53.5601H187.392V178.48H216.072V53.5601Z" stroke="#263238" stroke-miterlimit="10" stroke-linecap="round" stroke-linejoin="round"/>
<path d="M214.432 56.1201H188.992V175.96H214.432V56.1201Z" stroke="#263238" stroke-miterlimit="10" stroke-linecap="round" stroke-linejoin="round"/>
<path d="M214.512 81.6001H189.152V83.8001H214.512V81.6001Z" stroke="#263238" stroke-miterlimit="10" stroke-linecap="round" stroke-linejoin="round"/>
<path d="M186.392 81.6001H176.672V83.8001H186.392V81.6001Z" fill="#E3E3E3" stroke="#263238" stroke-miterlimit="10" stroke-linecap="round" stroke-linejoin="round"/>
<path d="M214.272 107.48H189.152V109.68H214.272V107.48Z" stroke="#263238" stroke-miterlimit="10" stroke-linecap="round" stroke-linejoin="round"/>
<path d="M186.392 107.48H176.672V109.68H186.392V107.48Z" fill="#E3E3E3" stroke="#263238" stroke-miterlimit="10" stroke-linecap="round" stroke-linejoin="round"/>
<path d="M214.272 133.36H189.152V135.56H214.272V133.36Z" stroke="#263238" stroke-miterlimit="10" stroke-linecap="round" stroke-linejoin="round"/>
<path d="M186.392 133.36H176.672V135.56H186.392V133.36Z" fill="#E3E3E3" stroke="#263238" stroke-miterlimit="10" stroke-linecap="round" stroke-linejoin="round"/>
<path d="M214.272 159.2H189.152V161.4H214.272V159.2Z" stroke="#263238" stroke-miterlimit="10" stroke-linecap="round" stroke-linejoin="round"/>
<path d="M186.392 159.2H176.672V161.4H186.392V159.2Z" fill="#E3E3E3" stroke="#263238" stroke-miterlimit="10" stroke-linecap="round" stroke-linejoin="round"/>
<path d="M214.392 53.5601H189.072V81.5201H214.392V53.5601Z" stroke="#263238" stroke-miterlimit="10" stroke-linecap="round" stroke-linejoin="round"/>
<path d="M214.392 133.32V109.64H189.112V107.52H214.392V83.8398H189.072V133.32H214.392Z" stroke="#263238" stroke-miterlimit="10" stroke-linecap="round" stroke-linejoin="round"/>
<path d="M214.392 161.56H189.072V178.48H214.392V161.56Z" stroke="#263238" stroke-miterlimit="10" stroke-linecap="round" stroke-linejoin="round"/>
<path d="M214.392 135.48H189.072V159.08H214.392V135.48Z" stroke="#263238" stroke-miterlimit="10" stroke-linecap="round" stroke-linejoin="round"/>
<path d="M212.792 133.32V109.64H189.112V107.52H212.792V83.8398H189.072V133.32H212.792Z" stroke="#263238" stroke-miterlimit="10" stroke-linecap="round" stroke-linejoin="round"/>
<path d="M212.792 135.48H189.072V159.08H212.792V135.48Z" stroke="#263238" stroke-miterlimit="10" stroke-linecap="round" stroke-linejoin="round"/>
<path d="M212.792 161.56H189.072V175.96H212.792V161.56Z" stroke="#263238" stroke-miterlimit="10" stroke-linecap="round" stroke-linejoin="round"/>
<path d="M212.792 56.1201H189.072V81.5601H212.792V56.1201Z" stroke="#263238" stroke-miterlimit="10" stroke-linecap="round" stroke-linejoin="round"/>
<path d="M212.631 107.48H189.231V107.52H212.631V107.48Z" stroke="#263238" stroke-miterlimit="10" stroke-linecap="round" stroke-linejoin="round"/>
<path d="M212.631 109.64H189.231V109.68H212.631V109.64Z" stroke="#263238" stroke-miterlimit="10" stroke-linecap="round" stroke-linejoin="round"/>
<path d="M212.631 135.48H189.231V135.52H212.631V135.48Z" stroke="#263238" stroke-miterlimit="10" stroke-linecap="round" stroke-linejoin="round"/>
<path d="M196.432 70.5203C196.432 70.5203 191.752 68.6803 191.192 67.9203C190.632 67.1203 193.112 68.0003 193.112 68.0003C193.112 68.0003 190.112 65.6403 191.512 65.7203C192.952 65.8003 194.752 68.0803 194.992 68.2403C195.232 68.4003 194.832 66.2403 195.872 66.8803C196.912 67.5203 197.392 69.0803 197.392 69.0803C197.392 69.0803 194.072 62.7603 195.872 62.7603C197.712 62.7603 198.712 67.4403 198.712 67.4403C198.712 67.4403 198.952 62.3603 199.432 63.7203C199.912 65.0803 199.432 67.5203 199.432 67.5203C199.432 67.5203 201.112 61.0403 201.872 63.3203C202.672 65.6003 200.992 68.4803 200.992 68.4803C200.992 68.4803 202.832 66.4803 202.752 67.3603C202.672 68.2403 202.512 69.0403 202.512 69.0403C202.512 69.0403 204.272 64.4403 205.432 65.6403C206.632 66.8403 204.952 68.8003 204.952 68.8003C204.952 68.8003 208.672 66.0403 208.032 67.5203C207.392 69.0403 204.552 70.4803 204.552 70.4803L196.432 70.5203Z" fill="#92E3A9" stroke="#263238" stroke-miterlimit="10" stroke-linecap="round" stroke-linejoin="round"/>
<path d="M205.472 70.48H193.832V81.56H205.472V70.48Z" fill="#E3E3E3" stroke="#263238" stroke-miterlimit="10" stroke-linecap="round" stroke-linejoin="round"/>
<path d="M213.152 141H209.752V159.2H213.152V141Z" stroke="#263238" stroke-miterlimit="10" stroke-linecap="round" stroke-linejoin="round"/>
<path d="M209.392 141H205.992V159.2H209.392V141Z" stroke="#263238" stroke-miterlimit="10" stroke-linecap="round" stroke-linejoin="round"/>
<path d="M203.112 140.96L205.912 141.92L200.152 159.24L197.072 159.16L203.112 140.96Z" stroke="#263238" stroke-miterlimit="10" stroke-linecap="round" stroke-linejoin="round"/>
<path d="M203.112 140.96L196.072 140.92L189.992 159.2L197.072 159.16L203.112 140.96Z" stroke="#263238" stroke-miterlimit="10" stroke-linecap="round" stroke-linejoin="round"/>
<path d="M205.992 141H201.512" stroke="#263238" stroke-miterlimit="10" stroke-linecap="round" stroke-linejoin="round"/>
<path d="M283.992 54.44H254.432L258.872 28.52H279.552L283.992 54.44Z" fill="#92E3A9" stroke="#263238" stroke-miterlimit="10" stroke-linecap="round" stroke-linejoin="round"/>
<path d="M270.792 176.44V54.4399H267.672V176.44H256.872V178.44H281.352V176.44H270.792Z" fill="#E3E3E3" stroke="#263238" stroke-miterlimit="10" stroke-linecap="round" stroke-linejoin="round"/>
<path d="M237.232 32.2402H217.512C215.632 32.2402 214.152 33.7602 214.152 35.6002V44.0002C214.152 45.8802 215.672 47.3602 217.512 47.3602H227.752L231.232 52.3202L233.112 47.3602H237.232C239.112 47.3602 240.592 45.8402 240.592 44.0002V35.6002C240.632 33.7602 239.112 32.2402 237.232 32.2402Z" fill="white" stroke="#263238" stroke-miterlimit="10" stroke-linecap="round" stroke-linejoin="round"/>
<path d="M223.272 39.9603C223.272 40.5603 222.792 41.0803 222.152 41.0803C221.552 41.0803 221.032 40.6003 221.032 39.9603C221.032 39.3603 221.512 38.8403 222.152 38.8403C222.752 38.8803 223.272 39.3603 223.272 39.9603Z" fill="#263238" stroke="#263238" stroke-miterlimit="10" stroke-linecap="round" stroke-linejoin="round"/>
<path d="M228.472 39.9603C228.472 40.5603 227.992 41.0803 227.352 41.0803C226.752 41.0803 226.232 40.6003 226.232 39.9603C226.232 39.3603 226.712 38.8403 227.352 38.8403C227.992 38.8803 228.472 39.3603 228.472 39.9603Z" fill="#263238" stroke="#263238" stroke-miterlimit="10" stroke-linecap="round" stroke-linejoin="round"/>
<path d="M233.712 39.9603C233.712 40.5603 233.232 41.0803 232.592 41.0803C231.992 41.0803 231.472 40.6003 231.472 39.9603C231.472 39.3603 231.952 38.8403 232.592 38.8403C233.232 38.8803 233.712 39.3603 233.712 39.9603Z" fill="#263238" stroke="#263238" stroke-miterlimit="10" stroke-linecap="round" stroke-linejoin="round"/>
<path d="M245.552 66.5603C245.552 66.5603 247.232 65.8803 248.112 66.0803C248.992 66.2803 250.872 70.8803 250.552 72.8003C250.232 74.6803 246.672 76.4803 245.552 76.8003C244.392 77.1203 242.792 75.6803 242.632 75.0803C242.432 74.5203 245.552 66.5603 245.552 66.5603Z" fill="#263238" stroke="#263238" stroke-miterlimit="10" stroke-linecap="round" stroke-linejoin="round"/>
<path d="M225.472 62.2801C225.472 62.2801 224.032 65.3201 224.672 66.8801C225.272 68.4401 225.832 69.7201 225.472 71.0001C225.152 72.2801 223.712 73.7201 224.512 74.4001C225.312 75.0801 225.952 75.2001 225.952 75.2001C225.952 75.2001 227.912 79.1201 228.392 80.0801C228.872 81.0401 230.272 81.9201 230.832 81.6401C231.392 81.3601 233.472 80.1601 233.472 80.1601C233.472 80.1601 235.032 82.9201 235.592 84.4401C236.152 85.9601 236.592 87.2801 236.592 87.2801L241.952 78.8001C241.952 78.8001 242.272 75.6001 242.512 75.2801C242.712 74.9601 245.232 69.1601 245.512 67.4001C245.792 65.6401 245.392 61.6401 242.952 59.3201C240.512 57.0001 233.672 56.1201 230.632 56.1201C227.592 56.1201 223.832 59.7201 223.712 60.8001C223.512 61.9601 225.472 62.2801 225.472 62.2801Z" fill="white" stroke="#263238" stroke-miterlimit="10" stroke-linecap="round" stroke-linejoin="round"/>
<path d="M245.472 67.4402C245.752 65.6802 245.352 61.6802 242.912 59.3602C240.472 57.0402 233.632 56.1602 230.592 56.1602C227.552 56.1602 223.792 59.7602 223.672 60.8402C223.552 61.9202 225.512 62.2802 225.512 62.2802C225.512 62.2802 228.632 65.0002 229.592 65.4802C230.552 65.9602 231.832 66.9602 231.832 66.9602C231.832 66.9602 233.512 69.3202 233.792 69.1202C234.072 68.9202 234.472 68.1602 234.472 68.1602C234.472 68.1602 236.112 65.8402 237.472 66.8002C238.832 67.7602 238.832 71.0002 238.272 71.9602C237.712 72.9202 237.272 73.5202 237.272 73.5202C237.272 73.5202 239.792 75.2802 240.512 75.4002C240.952 75.4802 241.912 75.2402 242.672 75.0402C243.152 73.9602 245.232 69.0402 245.472 67.4402Z" fill="#263238" stroke="#263238" stroke-miterlimit="10" stroke-linecap="round" stroke-linejoin="round"/>
<path d="M227.752 70.5202C227.832 71.0002 227.672 71.4402 227.432 71.4802C227.192 71.5202 226.912 71.1602 226.832 70.6802C226.752 70.2002 226.912 69.7602 227.152 69.7202C227.432 69.6802 227.712 70.0002 227.752 70.5202Z" fill="#263238"/>
<path d="M225.872 68.48C225.872 68.48 226.832 67.24 227.912 68.08" stroke="#263238" stroke-miterlimit="10" stroke-linecap="round" stroke-linejoin="round"/>
<path d="M227.751 76.0003C227.751 76.0003 229.391 75.6003 230.071 74.3203" stroke="#263238" stroke-miterlimit="10" stroke-linecap="round" stroke-linejoin="round"/>
<path d="M233.471 80.2002L235.431 78.7202L234.551 82.1602L233.471 80.2002Z" fill="#263238" stroke="#263238" stroke-miterlimit="10" stroke-linecap="round" stroke-linejoin="round"/>
<path d="M237.192 73.5601L235.832 73.6801C235.832 73.6801 236.152 74.9601 236.032 75.7201" stroke="#263238" stroke-miterlimit="10" stroke-linecap="round" stroke-linejoin="round"/>
<path d="M215.432 162.64L216.512 168.88C216.512 168.88 214.392 173.6 214.232 173.88C213.832 174.56 211.992 176.12 211.992 176.12L208.392 177.48C208.392 177.48 208.512 178.52 208.872 178.72C209.232 178.92 214.032 179.08 215.552 178.84C217.032 178.64 218.272 178.08 218.672 177.6C219.072 177.12 220.512 175.68 221.312 175.2C222.112 174.72 224.992 174.44 225.272 174.24C225.552 174.04 225.632 172.08 224.992 170.56C224.392 169.08 222.192 166.88 222.272 166.68C222.352 166.48 221.592 161.28 221.592 161.28L215.432 162.64Z" fill="white" stroke="#263238" stroke-miterlimit="10" stroke-linecap="round" stroke-linejoin="round"/>
<path d="M215.472 178.84C216.952 178.64 218.192 178.08 218.592 177.6C218.992 177.12 220.432 175.68 221.232 175.2C222.032 174.72 224.912 174.44 225.192 174.24C225.472 174.04 225.552 172.08 224.912 170.56C224.752 170.2 224.272 169.56 223.952 169.28C221.232 171.32 215.872 175.64 214.832 175.96C213.392 176.36 212.432 175.68 212.432 175.68H212.392C212.112 175.92 211.912 176.12 211.912 176.12L208.312 177.48C208.312 177.48 208.432 178.52 208.792 178.72C209.152 178.92 213.992 179.04 215.472 178.84Z" fill="#92E3A9" stroke="#263238" stroke-miterlimit="10" stroke-linecap="round" stroke-linejoin="round"/>
<path d="M225.231 174.28L225.072 179.04H223.992L223.031 174.76L225.231 174.28Z" fill="#92E3A9" stroke="#263238" stroke-miterlimit="10" stroke-linecap="round" stroke-linejoin="round"/>
<path d="M210.432 145.52L215.312 165.84L222.632 163.68L218.872 134.52L214.552 133.4L210.432 145.52Z" fill="#263238" stroke="#263238" stroke-miterlimit="10" stroke-linecap="round" stroke-linejoin="round"/>
<path d="M198.192 162.36C198.192 162.36 193.432 173.2 193.032 173.88C192.632 174.56 190.792 176.12 190.792 176.12L187.192 177.48C187.192 177.48 187.312 178.52 187.672 178.72C188.032 178.92 194.072 179.08 195.592 178.84C197.072 178.64 198.312 178.08 198.712 177.6C199.112 177.12 200.072 176.04 200.872 175.56C201.672 175.08 203.792 174.48 204.072 174.28C204.352 174.08 204.432 172.12 203.792 170.6C203.152 169.08 202.432 167.2 202.512 167C202.592 166.8 203.672 163.6 203.672 163.6L198.192 162.36Z" fill="white" stroke="#263238" stroke-miterlimit="10" stroke-linecap="round" stroke-linejoin="round"/>
<path d="M195.512 178.84C196.992 178.64 198.232 178.08 198.632 177.6C199.032 177.12 199.992 176.04 200.792 175.56C201.592 175.08 203.712 174.48 203.992 174.28C204.272 174.08 204.352 172.12 203.712 170.6C203.552 170.24 203.432 169.88 203.272 169.52C200.552 171.56 195.912 175.68 194.872 176C193.432 176.4 191.272 175.72 191.272 175.72H191.232C190.952 175.96 190.752 176.16 190.752 176.16L187.152 177.52C187.152 177.52 187.272 178.56 187.632 178.76C187.952 178.92 194.032 179.04 195.512 178.84Z" fill="#92E3A9" stroke="#263238" stroke-miterlimit="10" stroke-linecap="round" stroke-linejoin="round"/>
<path d="M204.032 174.28L203.912 179.04H202.832L202.152 175.08L204.032 174.28Z" fill="#92E3A9" stroke="#263238" stroke-miterlimit="10" stroke-linecap="round" stroke-linejoin="round"/>
<path d="M235.432 123.08C235.432 123.08 212.192 122.24 209.872 123.08C207.512 123.92 206.472 125.72 206.472 126.48C206.472 127.24 197.432 163.4 197.432 163.4L204.952 165.28L215.872 135.88C215.872 135.88 232.712 137.84 239.352 138.6C246.032 139.36 255.232 139.44 257.592 135.68C259.952 131.92 259.112 126.2 259.112 126.2L235.432 123.08Z" fill="#263238" stroke="#263238" stroke-miterlimit="10" stroke-linecap="round" stroke-linejoin="round"/>
<path d="M207.432 111.32C207.432 111.32 207.832 107.44 208.272 107.6C208.712 107.76 208.552 111 208.552 111L207.432 111.32Z" fill="white" stroke="#263238" stroke-miterlimit="10" stroke-linecap="round" stroke-linejoin="round"/>
<path d="M223.552 110.76L220.432 109.68C220.432 109.68 219.112 107.56 218.832 107.28C218.552 107 216.592 106.6 215.832 106.36C215.072 106.12 213.992 104.68 213.712 105.04C213.432 105.4 213.672 106.88 213.952 107.16C214.232 107.44 215.232 108.08 215.432 108.32C215.672 108.56 215.952 108.88 215.952 108.88L209.552 110.72C209.552 110.72 206.552 110.6 207.832 111.64C209.112 112.68 211.472 113.64 213.072 113.96C214.672 114.24 220.272 114.12 220.512 114.12C220.752 114.12 223.392 114.4 223.392 114.4L223.552 110.76Z" fill="white" stroke="#263238" stroke-miterlimit="10" stroke-linecap="round" stroke-linejoin="round"/>
<path d="M214.392 107.52L207.832 112L206.912 113.04L208.152 112.48L214.872 107.88L214.392 107.52Z" fill="white" stroke="#263238" stroke-miterlimit="10" stroke-linecap="round" stroke-linejoin="round"/>
<path d="M208.472 112.08C208.472 112.08 207.432 111.36 207.392 111C207.312 110.6 206.392 107.56 206.872 107.6C207.312 107.68 208.552 110.48 208.552 110.6C208.552 110.72 209.952 111.76 209.952 111.76L209.752 112.64L208.472 112.08Z" fill="white" stroke="#263238" stroke-miterlimit="10" stroke-linecap="round" stroke-linejoin="round"/>
<path d="M208.712 107.8C208.712 107.8 209.272 112.68 209.792 113.16C210.312 113.64 211.752 114.04 211.752 114.04L211.792 112.72L210.112 110.2C210.152 110.16 209.872 106.92 208.712 107.8Z" fill="white" stroke="#263238" stroke-miterlimit="10" stroke-linecap="round" stroke-linejoin="round"/>
<path d="M219.712 114C219.712 114 213.832 114.56 213.552 114.56C213.272 114.56 212.232 114.28 211.752 114C211.272 113.72 210.672 108.8 210.672 108.8C210.672 108.8 210.672 107.88 211.592 108.8C212.512 109.72 212.992 112.36 212.992 112.36H214.952C214.952 112.36 217.672 111.16 218.592 111.28C219.512 111.4 220.552 112.48 220.552 112.48" fill="white"/>
<path d="M219.712 114C219.712 114 213.832 114.56 213.552 114.56C213.272 114.56 212.232 114.28 211.752 114C211.272 113.72 210.672 108.8 210.672 108.8C210.672 108.8 210.672 107.88 211.592 108.8C212.512 109.72 212.992 112.36 212.992 112.36H214.952C214.952 112.36 217.672 111.16 218.592 111.28C219.512 111.4 220.552 112.48 220.552 112.48" stroke="#263238" stroke-miterlimit="10" stroke-linecap="round" stroke-linejoin="round"/>
<path d="M218.912 104.8C218.832 104.68 218.632 104.64 218.432 104.76L215.992 106.44L216.712 106.64L218.792 105.2C218.952 105.12 218.992 104.92 218.912 104.8Z" fill="white" stroke="#263238" stroke-miterlimit="10" stroke-linecap="round" stroke-linejoin="round"/>
<path d="M222.872 109.96L222.792 115.4L236.351 117.28L237.672 113.72L234.992 109.96H222.872Z" fill="#92E3A9" stroke="#263238" stroke-miterlimit="10" stroke-linecap="round" stroke-linejoin="round"/>
<path d="M241.952 78.8403C241.952 78.8403 236.792 85.4003 234.472 91.0003C232.152 96.6003 231.192 100.76 231.952 103.36C232.712 105.96 236.432 114.76 236.432 114.76C236.432 114.76 235.672 116.16 235.672 116.92C235.672 117.68 236.192 120.28 236.192 120.28L235.432 123.12C235.432 123.12 240.552 127.12 247.992 127.96C255.432 128.76 258.992 127.44 259.592 127.2C260.192 126.96 258.272 118.88 257.272 116.64C256.312 114.4 255.272 111.52 255.272 111.52C255.272 111.52 253.552 93.8803 251.992 90.4403C250.472 86.9603 243.392 79.2003 241.952 78.8403Z" fill="#92E3A9" stroke="#263238" stroke-miterlimit="10" stroke-linecap="round" stroke-linejoin="round"/>
<path d="M243.072 81.0801C243.072 81.0801 235.872 92.0401 234.152 94.9201C232.432 97.8401 232.352 101.08 232.352 101.08" stroke="#263238" stroke-miterlimit="10" stroke-linecap="round" stroke-linejoin="round"/>
<path d="M242.112 87.8003C242.112 87.8003 238.632 92.8803 238.752 94.8803C238.912 96.8803 241.592 114 241.792 114C242.032 114 241.112 114.68 241.192 114.96C241.272 115.24 241.472 115.92 241.472 115.92L225.832 121.72L226.592 126.84C226.592 126.84 247.592 124.08 248.992 123.72C250.392 123.36 251.152 122.84 251.312 122C251.472 121.2 251.312 97.1603 251.232 96.0403" fill="#92E3A9"/>
<path d="M242.112 87.8003C242.112 87.8003 238.632 92.8803 238.752 94.8803C238.912 96.8803 241.592 114 241.792 114C242.032 114 241.112 114.68 241.192 114.96C241.272 115.24 241.472 115.92 241.472 115.92L225.832 121.72L226.592 126.84C226.592 126.84 247.592 124.08 248.992 123.72C250.392 123.36 251.152 122.84 251.312 122C251.472 121.2 251.312 97.1603 251.232 96.0403" stroke="#263238" stroke-miterlimit="10" stroke-linecap="round" stroke-linejoin="round"/>
<path d="M215.032 119.56L206.752 117.04L203.192 119.2L217.552 123.44L220.672 121.04L215.032 119.56Z" fill="white" stroke="#263238" stroke-miterlimit="10" stroke-linecap="round" stroke-linejoin="round"/>
<path d="M225.912 121.72L221.592 120.16C221.592 120.16 219.272 119.28 218.752 119.36C218.232 119.44 215.032 119.6 215.032 119.6C215.032 119.6 214.592 120.04 215.312 120.48C216.072 120.92 217.912 120.84 217.912 120.84C217.912 120.84 215.592 122.76 215.232 123.08C214.872 123.36 214.792 124.28 215.312 124.4C215.832 124.56 217.232 124.68 217.232 124.68C217.232 124.68 216.792 127.08 219.752 127.12C222.712 127.2 226.432 125.84 226.432 125.84L225.912 121.72Z" fill="white" stroke="#263238" stroke-miterlimit="10" stroke-linecap="round" stroke-linejoin="round"/>
<path d="M227.432 149.84L220.632 178.48H222.112L231.632 150.12L227.432 149.84Z" fill="white" stroke="#263238" stroke-miterlimit="10" stroke-linecap="round" stroke-linejoin="round"/>
<path d="M267.232 149.84L273.992 178.48H272.512L262.992 150.12L267.232 149.84Z" fill="white" stroke="#263238" stroke-miterlimit="10" stroke-linecap="round" stroke-linejoin="round"/>
<path d="M269.392 147.2H225.952V150.48H269.392V147.2Z" fill="white" stroke="#263238" stroke-miterlimit="10" stroke-linecap="round" stroke-linejoin="round"/>
<path d="M226.552 131.08L223.072 147.64C223.072 147.64 270.592 148.2 271.432 147.24C272.232 146.28 273.192 142.36 273.192 142.36C273.192 142.36 289.072 92.4 289.072 90.48C289.072 88.56 284.312 88.84 277.672 89.8C271.032 90.76 267.472 96.32 265.992 102.16C264.512 108 260.032 129.04 256.752 130.4C253.512 131.76 232.032 128.48 230.152 128.64C228.712 128.76 228.352 128.48 227.632 129.12C227.072 129.64 226.712 130.32 226.552 131.08Z" fill="#B2B2B2" stroke="#263238" stroke-miterlimit="10" stroke-linecap="round" stroke-linejoin="round"/>
<path d="M53.1916 167.6L52.6316 178.48H54.3916L57.2716 166.8L53.1916 167.6Z" fill="white" stroke="#263238" stroke-miterlimit="10" stroke-linecap="round" stroke-linejoin="round"/>
<path d="M45.3117 167.6L44.7517 178.48H46.5517L49.3917 166.8L45.3117 167.6Z" fill="white" stroke="#263238" stroke-miterlimit="10" stroke-linecap="round" stroke-linejoin="round"/>
<path d="M53.1916 167.6L52.6316 178.48H54.3916L57.2716 166.8L53.1916 167.6Z" fill="white" stroke="#263238" stroke-miterlimit="10" stroke-linecap="round" stroke-linejoin="round"/>
<path d="M45.3117 167.6L44.7517 178.48H46.5517L49.3917 166.8L45.3117 167.6Z" fill="white" stroke="#263238" stroke-miterlimit="10" stroke-linecap="round" stroke-linejoin="round"/>
<path d="M39.4717 130L43.2717 169.24L51.2717 169.12L49.3917 128.36L39.4717 130Z" fill="#B2B2B2" stroke="#263238" stroke-miterlimit="10" stroke-linecap="round" stroke-linejoin="round"/>
<path d="M37.3118 99.6C37.3118 99.6 40.0318 124.04 40.3118 124.84C40.5918 125.64 66.2318 141.4 66.2318 141.4L177.712 137.88C177.712 137.88 181.512 101.36 180.552 99.44C179.592 97.52 158.432 97.52 158.432 97.52C158.432 97.52 52.9118 97.24 46.1118 97.52C39.3518 97.8 37.4318 97.4 37.3118 99.6Z" fill="#B2B2B2" stroke="#263238" stroke-miterlimit="10" stroke-linecap="round" stroke-linejoin="round"/>
<path d="M63.5117 136.8C63.5117 136.8 88.6317 137.76 101.552 137.76C114.472 137.76 157.912 137.36 161.152 136.8C164.392 136.24 169.992 135.04 170.672 135.84C171.352 136.64 170.112 145.36 169.192 146.56C168.232 147.8 66.6717 147.8 65.9917 147.24C65.2717 146.72 63.5117 136.8 63.5117 136.8Z" fill="#B2B2B2" stroke="#263238" stroke-miterlimit="10" stroke-linecap="round" stroke-linejoin="round"/>
<path d="M63.2317 122.28C63.2317 122.28 60.1117 119.16 50.1917 119.16C40.2717 119.16 38.2317 124.2 37.8317 126.64C37.4317 129.08 39.0717 130.84 42.0317 131.52C45.0317 132.2 47.7517 131.52 47.7517 131.52C47.7517 131.52 61.3517 132.2 62.4317 133C63.5117 133.8 66.9117 131.24 66.2317 127.44C65.5517 123.6 63.2317 122.28 63.2317 122.28Z" fill="#B2B2B2" stroke="#263238" stroke-miterlimit="10" stroke-linecap="round" stroke-linejoin="round"/>
<path d="M171.352 122.28C171.352 122.28 174.472 119.16 184.392 119.16C194.312 119.16 196.352 124.2 196.752 126.64C197.152 129.08 195.512 130.84 192.552 131.52C189.552 132.2 186.832 131.52 186.832 131.52C186.832 131.52 173.232 132.2 172.152 133C171.072 133.8 167.672 131.24 168.352 127.44C169.032 123.6 171.352 122.28 171.352 122.28Z" fill="#B2B2B2" stroke="#263238" stroke-miterlimit="10" stroke-linecap="round" stroke-linejoin="round"/>
<path d="M173.552 167.6L174.112 178.48H172.352L169.472 166.8L173.552 167.6Z" fill="white" stroke="#263238" stroke-miterlimit="10" stroke-linecap="round" stroke-linejoin="round"/>
<path d="M181.432 167.6L181.992 178.48H180.232L177.352 166.8L181.432 167.6Z" fill="white" stroke="#263238" stroke-miterlimit="10" stroke-linecap="round" stroke-linejoin="round"/>
<path d="M173.552 167.6L174.112 178.48H172.352L169.472 166.8L173.552 167.6Z" fill="white" stroke="#263238" stroke-miterlimit="10" stroke-linecap="round" stroke-linejoin="round"/>
<path d="M181.432 167.6L181.992 178.48H180.232L177.352 166.8L181.432 167.6Z" fill="white" stroke="#263238" stroke-miterlimit="10" stroke-linecap="round" stroke-linejoin="round"/>
<path d="M172.432 131.64C170.672 133.56 167.952 146.32 167.952 146.32H119.752H115.672H67.4317C67.4317 146.32 64.7117 133.56 62.9517 131.64C61.1917 129.72 47.7517 131.52 47.7517 131.52L51.2717 169.12H115.632H119.712H184.112L187.632 131.52C187.632 131.48 174.192 129.72 172.432 131.64Z" fill="#B2B2B2" stroke="#263238" stroke-miterlimit="10" stroke-linecap="round" stroke-linejoin="round"/>
<path d="M144.912 122.2C144.912 122.2 141.072 120.36 137.832 120.36C134.592 120.36 133.432 123.72 134.192 127.52C134.952 131.32 139.712 134 142.032 133.2C144.312 132.4 145.872 123.6 144.912 122.2Z" fill="#263238" stroke="#263238" stroke-miterlimit="10" stroke-linecap="round" stroke-linejoin="round"/>
<path d="M154.232 119.56C154.232 119.56 142.752 121.64 143.072 121.84C143.392 122.04 150.992 128.12 151.392 127.84C151.792 127.56 154.952 120.96 155.112 120.36C155.232 119.76 154.232 119.56 154.232 119.56Z" fill="white" stroke="#263238" stroke-miterlimit="10" stroke-linecap="round" stroke-linejoin="round"/>
<path d="M144.832 83.6802C144.832 83.6802 140.752 95.6402 140.112 102.56C139.472 109.52 139.112 119.96 139.112 119.96L153.472 119.68C153.472 119.68 155.872 97.8402 156.792 92.7202C157.712 87.6402 158.552 85.4002 158.552 85.4002L154.952 83.9202L144.832 83.6802Z" fill="white" stroke="#263238" stroke-miterlimit="10" stroke-linecap="round" stroke-linejoin="round"/>
<path d="M145.672 82.1997C145.672 82.1997 142.432 97.2797 141.672 100.24C140.912 103.2 140.192 119.68 140.192 119.68L134.832 121.76C134.832 121.76 134.832 103.72 134.912 101.96C134.992 100.2 135.272 96.5997 135.272 96.5997L128.432 98.1597L122.312 94.7197C122.312 94.7197 138.992 82.9597 139.632 82.7597C140.312 82.6797 145.672 82.1997 145.672 82.1997Z" fill="#92E3A9" stroke="#263238" stroke-miterlimit="10" stroke-linecap="round" stroke-linejoin="round"/>
<path d="M135.312 96.6396L137.072 87.1196" stroke="#263238" stroke-miterlimit="10" stroke-linecap="round" stroke-linejoin="round"/>
<path d="M145.592 83.7597C145.592 83.7597 143.992 92.1197 144.752 93.7597C146.392 97.2797 149.752 97.9197 152.712 96.0797C155.672 94.2397 157.072 87.8397 156.312 85.5997C155.552 83.3597 155.032 80.2397 155.032 80.2397L145.592 83.7597Z" fill="#E0E0E0" stroke="#263238" stroke-miterlimit="10" stroke-linecap="round" stroke-linejoin="round"/>
<path d="M147.352 88.1198C147.432 86.6398 145.592 83.7598 145.592 83.7598" stroke="#263238" stroke-miterlimit="10" stroke-linecap="round" stroke-linejoin="round"/>
<path d="M152.352 62.2799C152.352 62.2799 148.992 58.4799 150.152 57.4399C151.312 56.3999 153.592 58.5999 153.592 58.5999C153.592 58.5999 155.072 54.9199 156.232 56.2399C157.392 57.5599 157.112 59.4799 157.112 59.4799C157.112 59.4799 158.872 56.8399 160.032 58.2399C161.192 59.6399 160.552 61.3999 160.552 61.3999C160.552 61.3999 162.672 59.5599 163.632 61.3199C164.592 63.0799 162.592 64.0399 162.592 64.0399C162.592 64.0399 167.072 64.1199 166.712 66.0799C166.352 67.9999 163.992 68.4399 163.992 68.4399C163.992 68.4399 166.352 69.7599 165.032 70.6399C163.712 71.5199 162.232 71.2399 162.232 71.2399C162.232 71.2399 161.632 72.1199 161.272 72.4799C160.912 72.8399 159.432 71.2399 159.432 71.2399C159.432 71.2399 157.832 65.7999 155.752 64.1199C153.592 62.4399 152.352 62.2799 152.352 62.2799Z" fill="#263238" stroke="#263238" stroke-miterlimit="10" stroke-linecap="round" stroke-linejoin="round"/>
<path d="M151.752 61.6802C151.752 61.6802 145.872 62.0402 144.632 65.2802C143.392 68.5202 143.152 71.6802 143.232 72.6802C143.312 73.6402 142.072 76.3602 142.432 78.2002C142.792 80.0402 143.672 84.3602 144.912 84.8002C146.152 85.2402 152.312 83.8402 153.352 83.1202C154.392 82.4002 155.992 79.4402 155.992 79.4402C155.992 79.4402 158.792 78.6402 159.512 76.9602C160.232 75.2802 159.352 74.2402 159.352 74.2402C159.352 74.2402 160.752 70.0002 159.432 66.8402C158.072 63.6802 154.832 61.6802 151.752 61.6802Z" fill="#E0E0E0" stroke="#263238" stroke-miterlimit="10" stroke-linecap="round" stroke-linejoin="round"/>
<path d="M151.752 61.6802C151.752 61.6802 145.872 62.0402 144.632 65.2802C144.632 65.2802 146.112 63.4402 147.352 63.8002C148.592 64.1602 149.112 65.6402 150.152 65.5602C151.192 65.4802 153.592 64.7602 154.552 65.5602C155.512 66.3602 156.752 68.7202 156.152 69.9602C155.552 71.2002 154.392 72.6802 154.912 73.5602C155.432 74.4402 155.792 75.4002 156.592 75.0402C157.392 74.6802 158.272 73.2802 159.312 74.2402C159.312 74.2402 160.712 70.0002 159.392 66.8402C158.072 63.6802 154.832 61.6802 151.752 61.6802Z" fill="#263238" stroke="#263238" stroke-miterlimit="10" stroke-linecap="round" stroke-linejoin="round"/>
<path d="M145.592 73.4797C145.512 74.0397 145.192 74.4397 144.872 74.3997C144.552 74.3597 144.392 73.8797 144.472 73.3197C144.552 72.7597 144.872 72.3597 145.192 72.3997C145.512 72.4397 145.672 72.9597 145.592 73.4797Z" fill="#263238"/>
<path d="M149.832 74.9202C149.752 75.4802 149.432 75.8802 149.112 75.8402C148.792 75.8002 148.632 75.3202 148.712 74.7602C148.792 74.2002 149.112 73.8002 149.432 73.8402C149.712 73.8802 149.912 74.3602 149.832 74.9202Z" fill="#263238"/>
<path d="M143.912 70.92C143.912 70.92 145.072 69.96 146.392 71" stroke="#263238" stroke-miterlimit="10" stroke-linecap="round" stroke-linejoin="round"/>
<path d="M148.752 71.68C148.752 71.68 150.232 71.16 151.832 73.52" stroke="#263238" stroke-miterlimit="10" stroke-linecap="round" stroke-linejoin="round"/>
<path d="M144.632 77.48C144.632 77.48 144.992 78.64 146.232 78.64" stroke="#263238" stroke-miterlimit="10" stroke-linecap="round" stroke-linejoin="round"/>
<path d="M144.912 80.48C144.912 80.48 146.312 80.84 147.112 80.64" stroke="#263238" stroke-miterlimit="10" stroke-linecap="round" stroke-linejoin="round"/>
<path d="M155.792 83.6001C155.792 83.6001 153.392 102.04 153.072 105.68C152.792 109.32 152.032 119.48 152.032 119.48L159.792 118.6C159.792 118.6 167.032 87.9601 166.152 87.6001C165.312 87.2401 155.792 83.6001 155.792 83.6001Z" fill="#92E3A9" stroke="#263238" stroke-miterlimit="10" stroke-linecap="round" stroke-linejoin="round"/>
<path d="M160.832 89.6801C160.832 89.6801 159.512 93.8801 158.792 96.1601C158.072 98.4401 155.512 111.6 155.512 111.6L142.632 118.08L144.072 121.8C144.072 121.8 161.352 118.8 162.072 118.32C162.792 117.8 163.112 117.28 163.312 116.56C163.512 115.84 168.552 93.4001 168.152 90.9201C167.752 88.4401 166.712 87.9201 165.072 87.6401" fill="#92E3A9"/>
<path d="M160.832 89.6801C160.832 89.6801 159.512 93.8801 158.792 96.1601C158.072 98.4401 155.512 111.6 155.512 111.6L142.632 118.08L144.072 121.8C144.072 121.8 161.352 118.8 162.072 118.32C162.792 117.8 163.112 117.28 163.312 116.56C163.512 115.84 168.552 93.4001 168.152 90.9201C167.752 88.4401 166.712 87.9201 165.072 87.6401" stroke="#263238" stroke-miterlimit="10" stroke-linecap="round" stroke-linejoin="round"/>
<path d="M156.632 111.28L160.552 108.6" stroke="#263238" stroke-miterlimit="10" stroke-linecap="round" stroke-linejoin="round"/>
<path d="M141.792 105.64C141.792 105.64 147.472 108 150.032 108.52" stroke="#263238" stroke-miterlimit="10" stroke-linecap="round" stroke-linejoin="round"/>
<path d="M145.912 108.4L150.952 109.96" stroke="#263238" stroke-miterlimit="10" stroke-linecap="round" stroke-linejoin="round"/>
<path d="M150.232 126.08C150.232 124.88 149.632 123.8 148.672 123.12C147.312 122.12 144.752 120.84 141.552 122.04C136.752 123.8 138.112 128.96 138.832 134.4C139.552 139.84 149.392 167.84 149.392 167.84C149.392 167.84 149.392 172.24 148.552 174.12C147.712 176 147.312 177.48 148.232 178C148.872 178.36 149.592 178.56 150.312 178.64C151.432 178.76 153.112 178.88 153.872 178.72C155.112 178.52 156.472 175.6 156.592 173.68C156.712 171.8 154.192 158.96 153.632 154.56C153.152 150.2 150.232 127.36 150.232 126.08Z" fill="#263238" stroke="#263238" stroke-miterlimit="10" stroke-linecap="round" stroke-linejoin="round"/>
<path d="M152.752 165.96C151.072 165.32 149.392 167.84 149.392 167.84C149.392 167.84 149.392 172.24 148.552 174.12C147.712 176 147.312 177.48 148.232 178C148.872 178.36 149.592 178.56 150.312 178.64C151.432 178.76 153.112 178.88 153.872 178.72C155.112 178.52 156.472 175.6 156.592 173.68C156.632 172.88 156.192 170.68 155.592 168.04C154.872 167.32 153.752 166.32 152.752 165.96Z" fill="white" stroke="#263238" stroke-miterlimit="10" stroke-linecap="round" stroke-linejoin="round"/>
<path d="M162.872 119.44C162.872 119.44 158.192 117.28 155.112 118.4C152.032 119.52 150.712 122.48 150.512 124.8C150.312 127.12 155.432 166.64 155.592 168.08C155.752 169.52 155.752 170.88 155.312 172.16C154.912 173.4 151.552 177.28 151.432 178.12C151.312 178.96 152.792 179.08 155.192 178.96C157.592 178.84 160.952 179.6 161.992 178C163.032 176.44 161.992 171.72 161.792 169.84C161.592 167.96 161.592 148.96 161.992 145.08C162.392 141.2 162.392 136.2 162.392 136.2C162.392 136.2 167.192 134.56 167.432 130.04C167.792 123.2 163.192 119.84 162.872 119.44Z" fill="#263238" stroke="#263238" stroke-miterlimit="10" stroke-linecap="round" stroke-linejoin="round"/>
<path d="M162.272 122.24C162.272 122.24 162.672 130.2 162.472 134.68" stroke="#737373" stroke-miterlimit="10" stroke-linecap="round" stroke-linejoin="round"/>
<path d="M162.072 177.96C163.032 176.48 162.192 172.32 161.912 170.24C161.112 169.24 159.632 167.8 158.192 168.16C155.992 168.68 155.792 171 155.792 171L155.632 171.08C155.592 171.44 155.512 171.8 155.392 172.16C154.992 173.4 151.632 177.28 151.512 178.12C151.392 178.96 152.872 179.08 155.272 178.96C157.672 178.8 161.032 179.56 162.072 177.96Z" fill="white" stroke="#263238" stroke-miterlimit="10" stroke-linecap="round" stroke-linejoin="round"/>
<path d="M132.312 111.56C132.312 111.56 133.832 122.08 134.152 123.52C134.472 124.96 134.072 126.12 133.312 126.64C132.552 127.16 130.352 127.32 130.352 127.32L129.352 126.64L128.432 112.6L132.312 111.56Z" fill="white" stroke="#263238" stroke-miterlimit="10" stroke-linecap="round" stroke-linejoin="round"/>
<path d="M116.792 92.3599C116.792 92.3599 110.072 95.5199 109.352 96.7999C108.632 98.0799 108.832 108.48 108.912 109.36C108.992 110.24 109.352 126.04 109.352 126.04L130.072 125.8L129.192 112.72L135.592 110.92C135.592 110.92 131.112 98.9199 130.472 97.9599C129.832 96.9999 125.032 94.6399 125.032 94.6399L116.792 92.3599Z" fill="#92E3A9" stroke="#263238" stroke-miterlimit="10" stroke-linecap="round" stroke-linejoin="round"/>
<path d="M110.512 95.96C110.512 95.96 107.952 97.48 107.432 98.8C106.912 100.08 104.032 109.72 104.032 109.72L114.112 111.76L112.112 99.56" fill="#92E3A9"/>
<path d="M110.512 95.96C110.512 95.96 107.952 97.48 107.432 98.8C106.912 100.08 104.032 109.72 104.032 109.72L114.112 111.76L112.112 99.56" stroke="#263238" stroke-miterlimit="10" stroke-linecap="round" stroke-linejoin="round"/>
<path d="M131.792 126.88C131.792 126.88 128.272 128.48 128.592 131.92C128.912 135.36 137.952 164.76 138.272 165.44C138.592 166.12 138.352 171 138.192 172.68C138.032 174.36 137.192 174.72 138.032 175.56C138.872 176.4 142.152 177.6 143.352 177.32C144.592 177 145.192 176.64 145.352 174.88C145.512 173.12 143.072 168.72 142.512 165.12C141.992 161.52 141.152 147 140.312 139.24C139.472 131.48 137.632 128.04 135.872 126.88C134.152 125.76 131.792 126.88 131.792 126.88Z" fill="white" stroke="#263238" stroke-miterlimit="10" stroke-linecap="round" stroke-linejoin="round"/>
<path d="M141.352 156.76C140.712 152.08 140.792 143.6 140.312 139.24C139.472 131.48 137.632 128.04 135.872 126.88C134.112 125.72 131.752 126.88 131.752 126.88C131.752 126.88 128.232 128.48 128.552 131.92C128.752 134.2 132.352 149.48 135.352 157.76L141.352 156.76Z" fill="#263238" stroke="#263238" stroke-miterlimit="10" stroke-linecap="round" stroke-linejoin="round"/>
<path d="M134.352 155.92L134.872 158.96L141.952 157.44L141.832 154.68L134.352 155.92Z" fill="#757575" stroke="#263238" stroke-miterlimit="10" stroke-linecap="round" stroke-linejoin="round"/>
<path d="M142.872 167.36C142.872 167.36 142.192 166.08 140.672 166.36C139.152 166.68 138.472 169.12 138.472 169.12L138.352 169.28C138.312 170.6 138.232 171.96 138.152 172.68C137.992 174.36 137.152 174.72 137.992 175.56C138.832 176.4 142.112 177.6 143.312 177.32C144.552 177 145.152 176.64 145.312 174.88C145.432 173.48 143.912 170.4 142.992 167.36H142.872Z" fill="white" stroke="#263238" stroke-miterlimit="10" stroke-linecap="round" stroke-linejoin="round"/>
<path d="M113.592 111.64L116.112 120.32C116.112 120.32 129.512 125.76 130.112 125.84C130.672 125.92 133.632 127.72 134.152 128.36C134.672 129 137.352 134.72 137.352 134.72C137.352 134.72 137.992 139.28 137.872 139.6C137.752 139.92 137.432 140.24 137.232 139.72C137.032 139.2 136.392 136.12 136.392 136.12C136.392 136.12 136.072 138.88 136.072 139.44C136.072 140 135.312 140.28 135.112 140.16C134.912 140.04 135.112 136.36 135.112 136.36C135.112 136.36 134.152 139.44 133.832 139.64C133.512 139.84 133.192 139.32 133.272 138.8C133.352 138.28 133.592 136.36 133.672 136.04C133.752 135.72 132.472 138.08 132.272 138.28C132.072 138.48 131.632 137.76 131.832 137.44C132.032 137.12 132.712 134.88 132.712 134.88C132.712 134.88 131.312 130.12 131.312 129.88C131.312 129.64 119.232 127.52 119.232 127.52C119.232 127.52 112.232 126.76 111.912 126.36C111.592 125.96 107.272 110.4 107.272 110.4L113.592 111.64Z" fill="white" stroke="#263238" stroke-miterlimit="10" stroke-linecap="round" stroke-linejoin="round"/>
<path d="M118.272 134.52L125.432 170.04L125.832 173.4C125.832 173.4 129.712 174.68 130.392 174.24C131.072 173.8 132.072 170.8 132.072 170.8L130.152 164.56L128.952 131.8C128.952 131.8 128.552 128.96 125.832 127.6C123.072 126.24 119.952 127.6 118.912 129.2C117.832 130.76 118.192 133.36 118.272 134.52Z" fill="white" stroke="#263238" stroke-miterlimit="10" stroke-linecap="round" stroke-linejoin="round"/>
<path d="M131.752 168.8C131.752 168.8 130.592 169.64 130.232 170.72C129.832 171.8 129.792 172.56 129.792 172.56C129.792 172.56 124.832 171.4 124.752 171.64C124.672 171.88 125.192 177.2 125.352 177.44C125.512 177.68 131.152 178.12 131.152 178.12C131.152 178.12 138.392 178.64 140.472 178.36C142.512 178.04 143.352 177.52 142.992 176.52C142.592 175.52 140.232 175.44 138.872 174.48C137.512 173.48 133.992 170.52 133.312 170.04C132.592 169.56 131.752 168.8 131.752 168.8Z" fill="white" stroke="#263238" stroke-miterlimit="10" stroke-linecap="round" stroke-linejoin="round"/>
<path d="M129.912 160.04L128.952 131.8C128.952 131.8 128.552 128.96 125.832 127.6C123.072 126.24 119.952 127.6 118.912 129.2C117.832 130.8 118.232 133.4 118.312 134.52L123.512 162.04L129.912 160.04Z" fill="#263238" stroke="#263238" stroke-miterlimit="10" stroke-linecap="round" stroke-linejoin="round"/>
<path d="M122.192 160.4L130.552 157.2L130.752 159.72L123.112 162.32L122.192 160.4Z" fill="#757575" stroke="#263238" stroke-miterlimit="10" stroke-linecap="round" stroke-linejoin="round"/>
<path d="M117.312 89.3599C117.312 89.3599 115.912 92.7599 115.912 93.7199C115.912 94.6799 118.672 99.6799 119.832 100.32C120.992 100.96 121.512 101.52 121.952 101.16C122.392 100.76 123.952 97.6399 123.672 95.8799C123.392 94.1599 117.312 89.3599 117.312 89.3599Z" fill="white" stroke="#263238" stroke-miterlimit="10" stroke-linecap="round" stroke-linejoin="round"/>
<path d="M130.512 83C130.512 83 132.032 82.8 132.512 82.12C132.952 81.4 133.232 80.64 133.232 80.64C133.232 80.64 133.472 82 133.872 80.96C134.272 79.92 133.552 76.8 131.832 75.04C130.112 73.32 127.232 71.4 125.432 71C123.632 70.6 119.152 70.36 116.432 72.4C113.752 74.44 111.672 78.8 112.072 80.28C112.472 81.76 113.952 82 113.952 82C113.952 82 113.232 84.2 113.632 84.84C114.032 85.48 116.392 86.96 117.112 87.04C117.832 87.12 120.312 84.04 120.312 84.04C120.312 84.04 126.992 82.96 127.952 82.36C128.912 81.8 129.552 81.4 129.552 81.4L130.512 83Z" fill="#263238" stroke="#263238" stroke-miterlimit="10" stroke-linecap="round" stroke-linejoin="round"/>
<path d="M117.192 86.28C117.192 86.28 114.752 83.44 113.912 84.4C113.072 85.36 113.272 87.88 114.632 88.76C115.992 89.64 116.632 89.72 116.632 89.72C116.632 89.72 117.472 92.56 117.912 93.12C118.352 93.68 123.032 97.08 124.712 96.44C126.392 95.8 129.192 91.76 129.712 89.64C130.232 87.52 130.352 85.8 130.672 84.64C130.992 83.48 130.272 79.68 130.152 79.36C130.032 79.04 127.712 81.56 124.632 82.2C121.552 82.84 119.032 82.96 119.032 82.96C119.032 82.96 118.832 84 118.472 84.48C118.072 85.08 117.192 86.28 117.192 86.28Z" fill="white" stroke="#263238" stroke-miterlimit="10" stroke-linecap="round" stroke-linejoin="round"/>
<path d="M124.792 86.4799C124.792 86.4799 122.592 85.3199 120.752 86.4799" stroke="#263238" stroke-miterlimit="10" stroke-linecap="round" stroke-linejoin="round"/>
<path d="M127.712 86.4C127.712 86.4 128.912 85.32 130.032 85.96" stroke="#263238" stroke-miterlimit="10" stroke-linecap="round" stroke-linejoin="round"/>
<path d="M121.472 88.48C121.472 88.48 122.832 89.24 124.152 88.6" stroke="#263238" stroke-miterlimit="10" stroke-linecap="round" stroke-linejoin="round"/>
<path d="M127.431 88.5998C127.431 88.5998 128.711 88.9198 129.351 88.2798" stroke="#263238" stroke-miterlimit="10" stroke-linecap="round" stroke-linejoin="round"/>
<path d="M127.112 86.7197C127.112 86.7197 126.472 89.0797 126.592 89.7197C126.712 90.3597 127.232 90.9997 126.712 91.5997C126.192 92.1597 124.832 92.4397 123.872 91.7197" stroke="#263238" stroke-miterlimit="10" stroke-linecap="round" stroke-linejoin="round"/>
<path d="M124.032 93.3998C124.032 93.3998 125.072 93.6398 125.952 93.2798" stroke="#263238" stroke-miterlimit="10" stroke-linecap="round" stroke-linejoin="round"/>
<path d="M129.152 112.72C129.152 112.72 129.472 104.44 129.352 102.84C129.232 101.24 128.472 98.8799 128.472 98.8799" stroke="#263238" stroke-miterlimit="10" stroke-linecap="round" stroke-linejoin="round"/>
<path d="M114.672 94.7598C114.672 94.7598 118.472 100.48 119.472 101.48C120.512 102.52 122.032 102.68 122.032 102.68C122.032 102.68 123.512 100.56 123.912 99.3598C124.312 98.1598 124.432 97.3598 124.432 97.3598" stroke="#263238" stroke-miterlimit="10" stroke-linecap="round" stroke-linejoin="round"/>
<path d="M130.792 123.2C130.792 123.2 130.072 122.84 129.832 123.16C129.592 123.48 129.032 126.68 128.952 126.92C128.912 127.16 129.632 127.44 129.832 127.24C130.032 127.04 131.112 124.4 131.192 123.96C131.312 123.56 131.272 123.2 130.792 123.2Z" fill="white" stroke="#263238" stroke-miterlimit="10" stroke-linecap="round" stroke-linejoin="round"/>
<path d="M131.232 124C131.232 124 132.352 123.68 132.712 124.16C133.072 124.64 131.272 127.28 130.832 127.64C130.392 128 129.872 127.28 129.872 127.28L131.232 124Z" fill="white" stroke="#263238" stroke-miterlimit="10" stroke-linecap="round" stroke-linejoin="round"/>
<path d="M132.712 124.12C132.712 124.12 134.192 124.48 134.192 125.12C134.192 125.8 131.992 128.4 131.392 128.28C130.792 128.16 131.232 127.32 131.232 127.32C131.232 127.32 132.392 124.92 132.712 124.12Z" fill="white" stroke="#263238" stroke-miterlimit="10" stroke-linecap="round" stroke-linejoin="round"/>
<path d="M134.192 125.16C134.192 125.16 135.112 125.56 134.952 126.24C134.792 126.92 133.672 128.32 133.112 128.4C132.552 128.48 132.752 127.6 132.912 127.32C133.072 127.04 134.192 125.16 134.192 125.16Z" fill="white" stroke="#263238" stroke-miterlimit="10" stroke-linecap="round" stroke-linejoin="round"/>
<path d="M129.432 124.12C129.432 124.12 127.552 124.16 126.992 124.08C126.432 123.96 125.672 124.2 125.872 124.68C126.072 125.2 127.472 125.36 127.792 125.36C128.152 125.36 129.032 125.52 129.032 125.52L129.432 124.12Z" fill="white" stroke="#263238" stroke-miterlimit="10" stroke-linecap="round" stroke-linejoin="round"/>
<path d="M66.0718 123.64C66.0718 123.64 65.2718 127.84 65.6718 131.24C66.0718 134.64 70.8718 137.16 72.3918 137.56C73.9118 137.96 79.9918 129.36 80.7118 127.16C81.4318 124.96 78.7118 123.96 75.1918 123.76C71.6718 123.56 66.0718 123.64 66.0718 123.64Z" fill="#263238" stroke="#263238" stroke-miterlimit="10" stroke-linecap="round" stroke-linejoin="round"/>
<path d="M101.632 123.44C101.632 123.44 114.072 123.84 116.552 124.16C119.072 124.48 121.152 127.76 120.952 130.28C120.752 132.8 107.152 165.64 107.152 165.64L107.952 167.44L107.032 169.44C107.032 169.44 108.352 170.64 109.032 171.16C109.752 171.68 111.152 172.48 111.152 172.48C111.152 172.48 102.832 169.96 101.952 169.68C101.032 169.36 102.352 154.04 102.352 154.04L101.632 123.44Z" fill="#263238" stroke="#263238" stroke-miterlimit="10" stroke-linecap="round" stroke-linejoin="round"/>
<path d="M109.072 118.8C109.072 118.8 112.072 121.64 112.312 122.28C112.552 122.92 113.872 128.76 113.912 128.92C114.272 130.08 111.392 132.2 110.712 132.4C109.992 132.6 108.672 132.76 108.432 132.56C108.192 132.4 107.752 130.8 107.752 130.8L108.112 129.76C108.112 129.76 106.112 128.24 106.112 127.64C106.112 127.08 106.512 123.44 106.512 123.44L105.992 121.64L109.072 118.8Z" fill="white" stroke="#263238" stroke-miterlimit="10" stroke-linecap="round" stroke-linejoin="round"/>
<path d="M107.432 127.24L108.112 129.8" stroke="#263238" stroke-miterlimit="10" stroke-linecap="round" stroke-linejoin="round"/>
<path d="M109.432 132.84L111.192 130.4" stroke="#263238" stroke-miterlimit="10" stroke-linecap="round" stroke-linejoin="round"/>
<path d="M100.832 108.08L109.072 118.8L104.672 122.96L98.2317 117.84L100.832 108.08Z" fill="#92E3A9" stroke="#263238" stroke-miterlimit="10" stroke-linecap="round" stroke-linejoin="round"/>
<path d="M88.4718 78.8799C88.4718 78.8799 78.1918 82.6799 75.5918 85.0799C72.9918 87.4799 67.9118 108.52 67.5518 110.92C67.1918 113.32 66.5518 117.76 66.5518 117.76C66.5518 117.76 64.0318 122.56 64.7918 123.76C65.5518 124.96 67.7518 125.6 67.7518 125.6L95.4318 125.32C95.4318 125.32 106.352 91.1599 106.072 89.0399C105.792 86.9199 103.192 84.8799 100.712 82.8399C98.1918 80.7999 88.4718 78.8799 88.4718 78.8799Z" fill="#92E3A9" stroke="#263238" stroke-miterlimit="10" stroke-linecap="round" stroke-linejoin="round"/>
<path d="M88.9517 74.3599L86.9917 79.8399C86.9917 79.8399 88.4717 83.1599 90.2317 85.4399C91.9917 87.7199 94.4717 89.2799 95.6317 88.9999C96.7917 88.7199 100.072 82.9999 100.072 82.9999L95.4717 72.8799L88.9517 74.3599Z" fill="white" stroke="#263238" stroke-miterlimit="10" stroke-linecap="round" stroke-linejoin="round"/>
<path d="M107.112 64.2799C107.112 64.2799 108.392 64.4799 108.952 63.1999C109.512 61.9199 107.792 62.5199 107.792 62.5199C107.792 62.5199 108.872 60.8399 107.232 59.5599C105.592 58.2799 100.832 57.1199 100.352 57.3199C99.8718 57.5199 99.7918 58.1999 99.7918 58.1999C99.7918 58.1999 95.7518 57.1199 92.2318 57.8799C88.7118 58.6399 86.2318 62.7599 86.3518 65.7999C86.4718 68.8399 88.4318 75.1199 88.7118 75.4399C88.9918 75.7599 92.8318 74.7599 93.1518 74.4799C93.4718 74.1999 94.1118 73.1199 94.1118 73.1199C94.1118 73.1199 96.3918 73.6799 96.4718 73.3199C96.5518 72.9999 97.6718 69.8799 98.1118 69.6799C98.5118 69.4799 100.352 68.5199 100.672 67.6399C100.992 66.7599 101.272 64.3999 101.272 64.3999L107.112 64.2799Z" fill="#263238" stroke="#263238" stroke-miterlimit="10" stroke-linecap="round" stroke-linejoin="round"/>
<path d="M107.112 64.2802C107.112 64.2802 107.312 70.8802 107.312 71.5202C107.312 72.1202 105.832 72.9202 105.832 72.9202C105.832 72.9202 107.112 76.9602 106.912 77.6002C106.712 78.2002 104.632 79.0002 104.632 79.0002C104.632 79.0002 103.552 83.3202 103.352 83.8802C103.152 84.4402 101.792 84.6802 101.312 84.4802C100.832 84.2802 96.8719 81.9202 95.1519 80.9602C93.4719 80.0002 93.1919 74.4802 93.1919 74.4802C93.1919 74.4802 90.8319 73.9202 90.4319 72.4002C90.0319 70.8402 89.8719 67.9602 91.7119 67.6002C93.5519 67.2802 94.5519 69.6402 94.6319 70.3602C94.7119 71.1202 94.7119 72.1202 95.1119 72.2002C95.5119 72.2802 96.1919 72.4802 96.2719 72.1202C96.3519 71.8002 96.8319 69.2802 96.8319 69.2802C96.8319 69.2802 99.3919 68.3202 99.6719 67.6402C99.9519 66.9602 98.9119 63.9202 99.7519 63.3202C100.512 62.7602 107.112 64.2802 107.112 64.2802Z" fill="white" stroke="#263238" stroke-miterlimit="10" stroke-linecap="round" stroke-linejoin="round"/>
<path d="M104.552 73.2C104.472 73.72 104.152 74.12 103.872 74.08C103.592 74.04 103.432 73.56 103.552 73.04C103.632 72.52 103.952 72.12 104.232 72.16C104.512 72.2 104.632 72.68 104.552 73.2Z" fill="#263238"/>
<path d="M103.152 71.0002C103.152 71.0002 104.512 70.3202 106.072 71.2002" stroke="#263238" stroke-miterlimit="10" stroke-linecap="round" stroke-linejoin="round"/>
<path d="M102.472 79.7598L103.672 80.1198" stroke="#263238" stroke-miterlimit="10" stroke-linecap="round" stroke-linejoin="round"/>
<path d="M98.7919 83.68C98.7919 83.68 98.4319 86.56 98.3119 87.52C98.1919 88.52 97.5919 91.8 98.1919 92.8C98.8319 93.8 100.272 96.08 100.272 96.08L99.7519 98.16L104.912 99.48C104.912 99.48 105.832 96.04 105.992 95.28C106.152 94.48 106.632 89.48 106.152 88.68C105.672 87.84 103.752 86.6 103.752 86.6C103.752 86.6 103.352 84.88 102.872 84.56C102.392 84.24 100.832 84.76 100.832 84.76C100.832 84.76 100.312 82.48 98.7919 83.68Z" fill="white" stroke="#263238" stroke-miterlimit="10" stroke-linecap="round" stroke-linejoin="round"/>
<path d="M100.912 84.7202L100.512 88.6402" stroke="#263238" stroke-miterlimit="10" stroke-linecap="round" stroke-linejoin="round"/>
<path d="M85.2318 88.1201C85.2318 88.1201 88.3918 90.1601 89.3118 93.6801C90.2318 97.2001 90.8718 101.72 90.8718 101.72L93.5518 109.04L100.032 97.7601L105.592 99.2401C105.592 99.2401 100.592 112 99.5918 116.76C98.5918 121.48 94.5118 124.92 93.4718 124.8C92.4718 124.72 79.4718 106.36 79.4718 106.36L74.1118 99.4001" fill="#92E3A9"/>
<path d="M85.2318 88.1201C85.2318 88.1201 88.3918 90.1601 89.3118 93.6801C90.2318 97.2001 90.8718 101.72 90.8718 101.72L93.5518 109.04L100.032 97.7601L105.592 99.2401C105.592 99.2401 100.592 112 99.5918 116.76C98.5918 121.48 94.5118 124.92 93.4718 124.8C92.4718 124.72 79.4718 106.36 79.4718 106.36L74.1118 99.4001" stroke="#263238" stroke-miterlimit="10" stroke-linecap="round" stroke-linejoin="round"/>
<path d="M79.5117 106.36C79.5117 106.36 74.8717 103.6 74.0317 103.32" stroke="#263238" stroke-miterlimit="10" stroke-linecap="round" stroke-linejoin="round"/>
<path d="M72.9518 106.56C71.8718 106.44 70.9918 106.28 70.6318 106.2" stroke="#263238" stroke-miterlimit="10" stroke-linecap="round" stroke-linejoin="round"/>
<path d="M79.2318 107.2C79.2318 107.2 76.6718 106.96 74.3118 106.72" stroke="#263238" stroke-miterlimit="10" stroke-linecap="round" stroke-linejoin="round"/>
<path d="M93.5918 109.04C93.5918 109.04 94.0718 110.8 94.1518 112" stroke="#263238" stroke-miterlimit="10" stroke-linecap="round" stroke-linejoin="round"/>
<path d="M84.5918 94.8799C84.5918 94.8799 87.1918 95.4399 88.8318 97.7599" stroke="#263238" stroke-miterlimit="10" stroke-linecap="round" stroke-linejoin="round"/>
<path d="M90.5117 91.1602C90.5117 91.1602 91.6317 94.4002 91.2717 97.0802" stroke="#263238" stroke-miterlimit="10" stroke-linecap="round" stroke-linejoin="round"/>
<path d="M68.7517 129.68C68.7517 129.68 71.1517 125.96 79.1517 124.28C87.1517 122.56 98.9917 122.48 100.872 122.76C102.792 123.08 104.272 124.16 104.872 129.48C105.472 134.8 104.472 167.48 104.472 167.48C104.472 167.48 105.272 168.2 105.392 168.6C105.512 169 105.712 170.12 105.712 170.12L115.112 174.32C115.112 174.32 118.312 175.24 118.032 176.52C117.712 177.84 115.232 178.52 113.232 178.84C111.232 179.16 95.7917 178.44 95.5117 178.24C95.1917 178.04 94.9117 172.84 94.9117 172.32C94.9117 171.8 94.7117 169.32 94.9117 168.32C95.1117 167.32 95.5117 165.72 95.5117 165.72C95.5117 165.72 93.7917 144.96 92.9917 142.08C92.1917 139.16 91.5917 137.28 91.5917 137.28C91.5917 137.28 85.2717 140.4 78.9517 139.4C72.6317 138.4 68.6317 136.4 67.3517 134.8C66.0317 133.2 66.5517 130.6 66.5517 130.6" fill="#263238"/>
<path d="M68.7517 129.68C68.7517 129.68 71.1517 125.96 79.1517 124.28C87.1517 122.56 98.9917 122.48 100.872 122.76C102.792 123.08 104.272 124.16 104.872 129.48C105.472 134.8 104.472 167.48 104.472 167.48C104.472 167.48 105.272 168.2 105.392 168.6C105.512 169 105.712 170.12 105.712 170.12L115.112 174.32C115.112 174.32 118.312 175.24 118.032 176.52C117.712 177.84 115.232 178.52 113.232 178.84C111.232 179.16 95.7917 178.44 95.5117 178.24C95.1917 178.04 94.9117 172.84 94.9117 172.32C94.9117 171.8 94.7117 169.32 94.9117 168.32C95.1117 167.32 95.5117 165.72 95.5117 165.72C95.5117 165.72 93.7917 144.96 92.9917 142.08C92.1917 139.16 91.5917 137.28 91.5917 137.28C91.5917 137.28 85.2717 140.4 78.9517 139.4C72.6317 138.4 68.6317 136.4 67.3517 134.8C66.0317 133.2 66.5517 130.6 66.5517 130.6" stroke="#263238" stroke-miterlimit="10" stroke-linecap="round" stroke-linejoin="round"/>
<path d="M111.952 91.5601C111.952 91.5601 109.912 91.7601 109.792 92.3201C109.672 92.8801 109.552 96.2401 110.032 96.1201C110.512 96.0001 111.232 95.6401 111.272 95.2001C111.312 94.7201 111.952 91.5601 111.952 91.5601Z" fill="#E0E0E0" stroke="#263238" stroke-miterlimit="10" stroke-linecap="round" stroke-linejoin="round"/>
<path d="M109.792 92.3198C109.792 92.3198 108.472 92.6798 108.352 93.3598C108.232 94.0398 108.472 96.8398 108.792 96.9598C109.112 97.0798 110.032 96.0798 110.032 96.0798L109.792 92.3198Z" fill="#E0E0E0" stroke="#263238" stroke-miterlimit="10" stroke-linecap="round" stroke-linejoin="round"/>
<path d="M108.352 93.3599C108.352 93.3599 107.112 94.4799 107.032 95.2399C106.952 95.9999 107.832 97.7999 108.352 97.5999C108.832 97.3999 108.792 96.9599 108.792 96.9599C108.792 96.9599 108.552 94.5599 108.352 93.3599Z" fill="#E0E0E0" stroke="#263238" stroke-miterlimit="10" stroke-linecap="round" stroke-linejoin="round"/>
<path d="M106.992 95.7202C106.992 95.7202 106.752 96.1602 106.792 96.9202C106.872 97.6802 107.472 98.3602 107.832 98.1602C108.192 97.9602 108.312 97.6002 108.312 97.6002C108.312 97.6002 106.912 96.2402 106.992 95.7202Z" fill="#E0E0E0" stroke="#263238" stroke-miterlimit="10" stroke-linecap="round" stroke-linejoin="round"/>
<path d="M111.952 91.5601L114.952 93.3601L111.272 95.1601L111.952 91.5601Z" fill="#E0E0E0" stroke="#263238" stroke-miterlimit="10" stroke-linecap="round" stroke-linejoin="round"/>
<path d="M113.512 91.6802C113.512 91.6802 112.072 94.3602 112.312 94.6002C112.552 94.8402 113.352 94.2402 113.552 94.1202C113.752 94.0002 114.872 92.9202 114.872 92.5202C114.872 92.0802 114.272 91.6802 113.512 91.6802Z" fill="#E0E0E0" stroke="#263238" stroke-miterlimit="10" stroke-linecap="round" stroke-linejoin="round"/>
<path d="M142.712 118.44L141.192 118.32C141.192 118.32 136.832 116.44 135.552 116C134.272 115.56 132.032 115.48 131.632 115.44C131.192 115.4 131.032 115.84 131.472 115.96C131.912 116.12 133.072 116.56 133.072 116.56C133.072 116.56 131.192 116.36 131.232 116.64C131.232 116.76 131.112 117.04 131.552 117.24C132.152 117.52 133.392 117.68 133.392 117.68C133.392 117.68 131.512 118.04 131.752 118.2C131.872 118.28 131.672 118.52 132.032 118.64C132.512 118.8 133.592 118.8 133.592 118.8C133.592 118.8 132.672 119.2 133.072 119.4C133.472 119.6 134.232 119.6 134.232 119.6C134.232 119.6 135.392 119.92 136.592 120.36C137.152 120.6 138.032 121.16 138.712 121.36C140.832 122 142.272 121.32 142.272 121.32L143.792 121.08L142.712 118.44Z" fill="#E0E0E0" stroke="#263238" stroke-miterlimit="10" stroke-linecap="round" stroke-linejoin="round"/>
<path d="M133.552 118.84C133.552 118.84 135.072 118.84 135.232 118.84C135.392 118.84 136.792 119.28 136.792 119.28" stroke="#263238" stroke-miterlimit="10" stroke-linecap="round" stroke-linejoin="round"/>
<path d="M133.352 117.68C133.352 117.68 134.512 117.6 134.632 117.6C134.752 117.6 136.472 118.04 136.472 118.04" stroke="#263238" stroke-miterlimit="10" stroke-linecap="round" stroke-linejoin="round"/>
<path d="M133.072 116.56C133.072 116.56 134.712 116.32 136.312 117.12" stroke="#263238" stroke-miterlimit="10" stroke-linecap="round" stroke-linejoin="round"/>
</svg>
