<svg width="450" height="450" viewBox="0 0 450 450" fill="none" xmlns="http://www.w3.org/2000/svg">
<path d="M358.83 380.511C372.699 370.665 384.408 357.912 393.246 341.343C444.69 244.962 433.062 102.825 333.99 41.886C288.207 13.725 222.282 -4.11304 172.8 24.822C132.66 48.294 108.054 92.466 87.705 132.66C74.907 157.941 64.368 185.148 48.6 208.8C28.152 239.481 5.63403 280.44 28.368 316.08C59.337 364.626 117.828 386.793 170.865 401.391C228.411 417.222 293.112 419.472 346.275 388.593C350.577 386.082 354.771 383.391 358.83 380.511Z" fill="#92E3A9"/>
<path opacity="0.7" d="M358.83 380.511C372.699 370.665 384.408 357.912 393.246 341.343C444.69 244.962 433.062 102.825 333.99 41.886C288.207 13.725 222.282 -4.11304 172.8 24.822C132.66 48.294 108.054 92.466 87.705 132.66C74.907 157.941 64.368 185.148 48.6 208.8C28.152 239.481 5.63403 280.44 28.368 316.08C59.337 364.626 117.828 386.793 170.865 401.391C228.411 417.222 293.112 419.472 346.275 388.593C350.577 386.082 354.771 383.391 358.83 380.511Z" fill="white"/>
<path d="M281.799 219.609C281.799 219.609 285.174 220.284 287.199 217.08" stroke="#263238" stroke-miterlimit="10" stroke-linecap="round" stroke-linejoin="round"/>
<g opacity="0.3">
<path d="M420.3 71.1H345.6V169.2H420.3V71.1Z" stroke="black" stroke-miterlimit="10"/>
<path d="M406.593 89.1H359.307V151.2H406.593V89.1Z" stroke="black" stroke-miterlimit="10"/>
</g>
<path d="M419.4 422.1H433.8" stroke="#263238" stroke-miterlimit="10" stroke-linecap="round" stroke-linejoin="round"/>
<path d="M32.4 422.1H410.4" stroke="#263238" stroke-miterlimit="10" stroke-linecap="round" stroke-linejoin="round"/>
<g opacity="0.3">
<path d="M122.805 40.0229H37.386V280.377H122.805V40.0229Z" stroke="black" stroke-miterlimit="10"/>
<path d="M37.845 47.331H122.643L120.645 40.725" stroke="black" stroke-miterlimit="10"/>
<path d="M37.845 55.332H122.643L120.645 48.726" stroke="black" stroke-miterlimit="10"/>
<path d="M37.845 63.3329H122.643L120.645 56.7269" stroke="black" stroke-miterlimit="10"/>
<path d="M37.845 71.3339H122.643L120.645 64.7279" stroke="black" stroke-miterlimit="10"/>
<path d="M37.845 79.335H122.643L120.645 72.729" stroke="black" stroke-miterlimit="10"/>
<path d="M37.845 87.336H122.643L120.645 80.73" stroke="black" stroke-miterlimit="10"/>
<path d="M37.845 95.346H122.643L120.645 88.731" stroke="black" stroke-miterlimit="10"/>
<path d="M37.845 103.347H122.643L120.645 96.741" stroke="black" stroke-miterlimit="10"/>
<path d="M37.845 111.348H122.643L120.645 104.742" stroke="black" stroke-miterlimit="10"/>
<path d="M37.845 119.349H122.643L120.645 112.743" stroke="black" stroke-miterlimit="10"/>
<path d="M37.845 127.35H122.643L120.645 120.744" stroke="black" stroke-miterlimit="10"/>
<path d="M37.845 135.351H122.643L120.645 128.745" stroke="black" stroke-miterlimit="10"/>
<path d="M37.845 143.352H122.643L120.645 136.746" stroke="black" stroke-miterlimit="10"/>
<path d="M37.845 151.362H122.643L120.645 144.747" stroke="black" stroke-miterlimit="10"/>
<path d="M37.845 159.363H122.643L120.645 152.757" stroke="black" stroke-miterlimit="10"/>
<path d="M37.845 167.364H122.643L120.645 160.758" stroke="black" stroke-miterlimit="10"/>
<path d="M37.845 175.365H122.643L120.645 168.759" stroke="black" stroke-miterlimit="10"/>
<path d="M37.845 183.366H122.643L120.645 176.76" stroke="black" stroke-miterlimit="10"/>
<path d="M37.845 191.367H122.643L120.645 184.761" stroke="black" stroke-miterlimit="10"/>
<path d="M37.845 199.368H122.643L120.645 192.762" stroke="black" stroke-miterlimit="10"/>
<path d="M37.845 207.378H122.643L120.645 200.763" stroke="black" stroke-miterlimit="10"/>
<path d="M37.845 215.379H122.643L120.645 208.764" stroke="black" stroke-miterlimit="10"/>
<path d="M37.845 223.38H122.643L120.645 216.774" stroke="black" stroke-miterlimit="10"/>
<path d="M37.845 231.381H122.643L120.645 224.775" stroke="black" stroke-miterlimit="10"/>
<path d="M37.845 239.382H122.643L120.645 232.776" stroke="black" stroke-miterlimit="10"/>
<path d="M37.845 247.383H122.643L120.645 240.777" stroke="black" stroke-miterlimit="10"/>
<path d="M37.845 255.384H122.643L120.645 248.778" stroke="black" stroke-miterlimit="10"/>
<path d="M37.845 263.385H122.643L120.645 256.779" stroke="black" stroke-miterlimit="10"/>
<path d="M37.845 271.395H122.643L120.645 264.78" stroke="black" stroke-miterlimit="10"/>
<path d="M214.668 40.0229H129.249V280.377H214.668V40.0229Z" stroke="black" stroke-miterlimit="10"/>
<path d="M129.708 47.331H214.497L212.508 40.725" stroke="black" stroke-miterlimit="10"/>
<path d="M129.708 55.332H214.497L212.508 48.726" stroke="black" stroke-miterlimit="10"/>
<path d="M129.708 63.3329H214.497L212.508 56.7269" stroke="black" stroke-miterlimit="10"/>
<path d="M129.708 71.3339H214.497L212.508 64.7279" stroke="black" stroke-miterlimit="10"/>
<path d="M129.708 79.335H214.497L212.508 72.729" stroke="black" stroke-miterlimit="10"/>
<path d="M129.708 87.336H214.497L212.508 80.73" stroke="black" stroke-miterlimit="10"/>
<path d="M129.708 95.346H214.497L212.508 88.731" stroke="black" stroke-miterlimit="10"/>
<path d="M129.708 103.347H214.497L212.508 96.741" stroke="black" stroke-miterlimit="10"/>
<path d="M129.708 111.348H214.497L212.508 104.742" stroke="black" stroke-miterlimit="10"/>
<path d="M129.708 119.349H214.497L212.508 112.743" stroke="black" stroke-miterlimit="10"/>
<path d="M129.708 127.35H214.497L212.508 120.744" stroke="black" stroke-miterlimit="10"/>
<path d="M129.708 135.351H214.497L212.508 128.745" stroke="black" stroke-miterlimit="10"/>
<path d="M129.708 143.352H214.497L212.508 136.746" stroke="black" stroke-miterlimit="10"/>
<path d="M129.708 151.362H214.497L212.508 144.747" stroke="black" stroke-miterlimit="10"/>
<path d="M129.708 159.363H214.497L212.508 152.757" stroke="black" stroke-miterlimit="10"/>
<path d="M129.708 167.364H214.497L212.508 160.758" stroke="black" stroke-miterlimit="10"/>
<path d="M129.708 175.365H214.497L212.508 168.759" stroke="black" stroke-miterlimit="10"/>
<path d="M129.708 183.366H214.497L212.508 176.76" stroke="black" stroke-miterlimit="10"/>
<path d="M129.708 191.367H214.497L212.508 184.761" stroke="black" stroke-miterlimit="10"/>
<path d="M129.708 199.368H214.497L212.508 192.762" stroke="black" stroke-miterlimit="10"/>
<path d="M129.708 207.378H214.497L212.508 200.763" stroke="black" stroke-miterlimit="10"/>
<path d="M129.708 215.379H214.497L212.508 208.764" stroke="black" stroke-miterlimit="10"/>
<path d="M129.708 223.38H214.497L212.508 216.774" stroke="black" stroke-miterlimit="10"/>
<path d="M129.708 231.381H214.497L212.508 224.775" stroke="black" stroke-miterlimit="10"/>
<path d="M129.708 239.382H214.497L212.508 232.776" stroke="black" stroke-miterlimit="10"/>
<path d="M129.708 247.383H214.497L212.508 240.777" stroke="black" stroke-miterlimit="10"/>
<path d="M129.708 255.384H214.497L212.508 248.778" stroke="black" stroke-miterlimit="10"/>
<path d="M129.708 263.385H214.497L212.508 256.779" stroke="black" stroke-miterlimit="10"/>
<path d="M129.708 271.395H214.497L212.508 264.78" stroke="black" stroke-miterlimit="10"/>
</g>
<path d="M332.73 23.328H105.732V225.387H332.73V23.328Z" fill="white" stroke="#263238" stroke-miterlimit="10" stroke-linecap="round" stroke-linejoin="round"/>
<path d="M332.73 23.328H105.732V54.9H332.73V23.328Z" fill="#92E3A9" stroke="#263238" stroke-miterlimit="10" stroke-linecap="round" stroke-linejoin="round"/>
<path d="M332.73 23.328H324.18V225.387H332.73V23.328Z" fill="#DBDBDB" stroke="#263238" stroke-miterlimit="10" stroke-linecap="round" stroke-linejoin="round"/>
<path d="M332.73 53.703H324.18V92.7H332.73V53.703Z" fill="#949494" stroke="#263238" stroke-miterlimit="10" stroke-linecap="round" stroke-linejoin="round"/>
<path d="M332.73 23.328H105.732V38.673H332.73V23.328Z" fill="#DBDBDB" stroke="#263238" stroke-miterlimit="10" stroke-linecap="round" stroke-linejoin="round"/>
<path d="M206.766 27.8101H117.243V34.2001H206.766V27.8101Z" fill="white" stroke="#263238" stroke-miterlimit="10" stroke-linecap="round" stroke-linejoin="round"/>
<path d="M319.329 28.1071H327.186" stroke="#263238" stroke-miterlimit="10" stroke-linecap="round" stroke-linejoin="round"/>
<path d="M319.329 31.4281H327.186" stroke="#263238" stroke-miterlimit="10" stroke-linecap="round" stroke-linejoin="round"/>
<path d="M319.329 34.749H327.186" stroke="#263238" stroke-miterlimit="10" stroke-linecap="round" stroke-linejoin="round"/>
<path d="M287.577 78.3H143.577V83.7H287.577V78.3Z" fill="#DBDBDB" stroke="#A8A8A8" stroke-miterlimit="10" stroke-linecap="round" stroke-linejoin="round"/>
<path d="M214.974 78.3H143.577V83.7H214.974V78.3Z" fill="#92E3A9" stroke="#263238" stroke-miterlimit="10" stroke-linecap="round" stroke-linejoin="round"/>
<path d="M135.783 95.103C143.075 95.103 148.986 89.1918 148.986 81.9C148.986 74.6082 143.075 68.697 135.783 68.697C128.491 68.697 122.58 74.6082 122.58 81.9C122.58 89.1918 128.491 95.103 135.783 95.103Z" fill="#92E3A9" stroke="#263238" stroke-miterlimit="10" stroke-linecap="round" stroke-linejoin="round"/>
<path d="M135.783 93.123C141.981 93.123 147.006 88.0983 147.006 81.9C147.006 75.7017 141.981 70.677 135.783 70.677C129.585 70.677 124.56 75.7017 124.56 81.9C124.56 88.0983 129.585 93.123 135.783 93.123Z" fill="white" stroke="#263238" stroke-miterlimit="10" stroke-linecap="round" stroke-linejoin="round"/>
<path d="M215.577 95.103C222.869 95.103 228.78 89.1918 228.78 81.9C228.78 74.6082 222.869 68.697 215.577 68.697C208.285 68.697 202.374 74.6082 202.374 81.9C202.374 89.1918 208.285 95.103 215.577 95.103Z" fill="#92E3A9" stroke="#263238" stroke-miterlimit="10" stroke-linecap="round" stroke-linejoin="round"/>
<path d="M215.577 93.123C221.775 93.123 226.8 88.0983 226.8 81.9C226.8 75.7017 221.775 70.677 215.577 70.677C209.379 70.677 204.354 75.7017 204.354 81.9C204.354 88.0983 209.379 93.123 215.577 93.123Z" fill="white" stroke="#263238" stroke-miterlimit="10" stroke-linecap="round" stroke-linejoin="round"/>
<path d="M295.38 95.103C302.672 95.103 308.583 89.1918 308.583 81.9C308.583 74.6082 302.672 68.697 295.38 68.697C288.088 68.697 282.177 74.6082 282.177 81.9C282.177 89.1918 288.088 95.103 295.38 95.103Z" fill="#DBDBDB" stroke="#A8A8A8" stroke-miterlimit="10" stroke-linecap="round" stroke-linejoin="round"/>
<path d="M295.38 93.159C301.598 93.159 306.639 88.1182 306.639 81.9C306.639 75.6818 301.598 70.641 295.38 70.641C289.162 70.641 284.121 75.6818 284.121 81.9C284.121 88.1182 289.162 93.159 295.38 93.159Z" fill="white" stroke="#A8A8A8" stroke-miterlimit="10" stroke-linecap="round" stroke-linejoin="round"/>
<path d="M133.488 77.859C134.874 77.859 135.18 77.193 135.459 76.428H136.665V87.813H134.874V79.128H133.488V77.859Z" fill="#263238"/>
<path d="M215.01 77.922C214.443 77.922 214.083 78.228 214.083 79.047V80.262H212.391V79.155C212.391 77.337 213.3 76.293 215.055 76.293C216.81 76.293 217.719 77.337 217.719 79.155C217.719 82.728 214.155 84.069 214.155 85.932C214.155 86.013 214.155 86.094 214.173 86.175H217.557V87.804H212.382V86.409C212.382 83.061 215.928 82.503 215.928 79.218C215.937 78.201 215.577 77.922 215.01 77.922Z" fill="#263238"/>
<path d="M296.154 79.227C296.154 78.201 295.794 77.922 295.227 77.922C294.66 77.922 294.3 78.228 294.3 79.047V79.776H292.608V79.155C292.608 77.337 293.517 76.293 295.272 76.293C297.027 76.293 297.936 77.337 297.936 79.155V79.452C297.936 80.676 297.549 81.432 296.685 81.792C297.576 82.179 297.936 83.025 297.936 84.186V85.077C297.936 86.895 297.027 87.939 295.272 87.939C293.517 87.939 292.608 86.895 292.608 85.077V84.132H294.3V85.185C294.3 85.995 294.66 86.31 295.227 86.31C295.794 86.31 296.154 86.031 296.154 85.023V84.132C296.154 83.079 295.794 82.683 294.984 82.683H294.381V81.054H295.083C295.749 81.054 296.154 80.757 296.154 79.848V79.227Z" fill="#263238"/>
<path d="M192.555 126.576H125.514V136.944H192.555V126.576Z" fill="white" stroke="#263238" stroke-miterlimit="10" stroke-linecap="round" stroke-linejoin="round"/>
<path d="M274.41 126.576H207.369V136.944H274.41V126.576Z" fill="white" stroke="#263238" stroke-miterlimit="10" stroke-linecap="round" stroke-linejoin="round"/>
<path d="M238.482 146.952H125.514V157.32H238.482V146.952Z" fill="white" stroke="#263238" stroke-miterlimit="10" stroke-linecap="round" stroke-linejoin="round"/>
<path d="M238.482 166.581H125.514V176.949H238.482V166.581Z" fill="white" stroke="#263238" stroke-miterlimit="10" stroke-linecap="round" stroke-linejoin="round"/>
<path d="M128.286 108.198C129.438 108.198 130.032 108.891 130.032 110.097V110.331H128.907V110.016C128.907 109.476 128.691 109.269 128.313 109.269C127.935 109.269 127.719 109.476 127.719 110.016C127.719 111.573 130.041 111.861 130.041 114.021C130.041 115.227 129.438 115.92 128.268 115.92C127.098 115.92 126.495 115.227 126.495 114.021V113.553H127.62V114.093C127.62 114.633 127.854 114.831 128.232 114.831C128.61 114.831 128.844 114.633 128.844 114.093C128.844 112.536 126.522 112.248 126.522 110.088C126.54 108.882 127.134 108.198 128.286 108.198Z" fill="#263238"/>
<path d="M130.383 108.279H134.055V109.359H132.813V115.839H131.625V109.359H130.383V108.279Z" fill="#263238"/>
<path d="M135.765 111.465H137.394V112.545H135.765V114.759H137.817V115.839H134.577V108.279H137.817V109.359H135.765V111.465Z" fill="#263238"/>
<path d="M142.065 110.151V111.132C142.065 112.338 141.48 112.995 140.292 112.995H139.734V115.83H138.546V108.27H140.292C141.48 108.279 142.065 108.936 142.065 110.151ZM139.734 109.359V111.915H140.292C140.67 111.915 140.877 111.744 140.877 111.204V110.07C140.877 109.53 140.67 109.359 140.292 109.359H139.734Z" fill="#263238"/>
<path d="M146.583 110.133C146.583 109.449 146.349 109.269 145.971 109.269C145.593 109.269 145.359 109.476 145.359 110.016V110.502H144.234V110.088C144.234 108.882 144.837 108.189 146.007 108.189C147.177 108.189 147.78 108.882 147.78 110.088V110.286C147.78 111.096 147.519 111.6 146.952 111.843C147.546 112.104 147.78 112.662 147.78 113.427V114.021C147.78 115.227 147.177 115.92 146.007 115.92C144.846 115.92 144.234 115.227 144.234 114.021V113.4H145.359V114.102C145.359 114.642 145.593 114.849 145.971 114.849C146.349 114.849 146.583 114.669 146.583 113.994V113.4C146.583 112.698 146.349 112.437 145.809 112.437H145.413V111.357H145.881C146.322 111.357 146.592 111.159 146.592 110.556V110.133H146.583Z" fill="#263238"/>
<path d="M203.877 112.5H212.877" stroke="#263238" stroke-miterlimit="10"/>
<path d="M170.577 112.5H199.827" stroke="#263238" stroke-miterlimit="10"/>
<path d="M157.527 112.5H166.527" stroke="#263238" stroke-miterlimit="10"/>
<path d="M124.983 195.903H296.577" stroke="#263238" stroke-miterlimit="10" stroke-linecap="round" stroke-linejoin="round"/>
<path d="M219.069 320.787L228.195 399.861L237.996 399.186L240.363 338.697L246.447 338.022L284.634 340.389C284.634 340.389 289.368 339.372 290.718 339.372C292.068 339.372 293.76 335.655 285.651 332.28C277.542 328.905 221.445 318.087 220.095 318.087C218.727 318.087 219.069 320.787 219.069 320.787Z" fill="#263238" stroke="#263238" stroke-miterlimit="10" stroke-linecap="round" stroke-linejoin="round"/>
<path d="M272.124 309.636C272.124 309.636 237.033 298.017 202.851 305.577C200.052 306.198 194.067 377.55 194.067 377.55L203.193 380.25L217.386 323.82C217.386 323.82 276.858 341.055 289.026 339.363C301.185 337.689 272.124 309.636 272.124 309.636Z" fill="#263238" stroke="#263238" stroke-miterlimit="10" stroke-linecap="round" stroke-linejoin="round"/>
<path d="M281.925 190.359C281.925 190.359 279.225 197.451 279.225 200.835C279.225 204.21 280.8 207.459 280.8 207.459C280.8 207.459 275.499 213.21 276.48 215.388C277.092 216.747 279.792 217.251 279.792 217.251C279.792 217.251 282.15 229.743 284.184 230.418C286.209 231.093 294.66 229.401 294.66 229.401L293.22 246.501L309.987 232.263L308.637 221.454C308.637 221.454 312.696 215.712 317.421 208.953C322.155 202.194 319.446 191.385 316.746 186.309C314.046 181.242 293.427 170.766 279.576 188.001L281.925 190.359Z" fill="#9C9C9C" stroke="#263238" stroke-miterlimit="10" stroke-linecap="round" stroke-linejoin="round"/>
<path d="M336.618 196.047C336.186 194.526 340.956 194.094 339.219 190.413C337.482 186.723 332.28 186.939 332.496 184.338C332.712 181.737 334.449 181.953 331.416 179.136C328.383 176.319 325.998 177.831 325.125 175.014C324.261 172.197 323.604 169.38 323.604 169.38C323.604 169.38 323.604 169.38 321.651 167.859C320.364 166.86 319.176 167.832 318.519 168.615C316.746 169.191 315.063 171.54 313.38 171.333C310.896 171.027 310.275 164.511 305.316 164.817C300.348 165.123 302.211 173.196 300.348 172.575C298.485 171.954 294.768 169.47 289.8 170.712C284.832 171.954 289.8 176.607 287.937 176.292C286.074 175.986 275.22 173.808 274.284 176.598C273.357 179.388 280.179 183.114 280.179 183.114C280.179 183.114 271.8 180.63 274.284 185.283C276.768 189.936 281.907 190.35 281.907 190.35C281.907 190.35 278.586 191.583 279.936 193.095C281.106 194.409 284.931 194.715 285.93 194.769L286.101 194.958C285.777 195.768 284.706 199.143 288.711 200.178C289.791 200.457 290.664 200.637 291.384 200.763L291.987 201.42C291.627 202.338 291.24 203.301 291.042 204.192C290.421 206.982 295.389 208.539 297.243 208.539C299.097 208.539 300.654 214.74 299.106 216.603C298.755 217.026 298.638 217.53 298.674 218.061C298.377 218.376 298.143 218.637 298.008 218.799C297.144 219.879 296.271 223.569 297.36 224.217C298.44 224.865 302.778 224.217 302.778 224.217C302.778 224.217 303.426 229.419 305.379 229.851C307.332 230.283 308.853 228.33 309.501 226.818C310.149 225.297 311.886 228.987 314.487 228.555C317.088 228.123 318.177 226.17 319.041 224.649C319.905 223.128 320.778 225.954 324.9 225.081C329.022 224.217 327.285 218.142 327.285 218.142C327.285 218.142 331.191 220.311 333.36 218.574C335.529 216.837 336.177 212.94 336.393 210.33C336.609 207.729 340.083 210.978 340.083 206.208C340.083 201.438 337.05 197.559 336.618 196.047Z" fill="#263238"/>
<path d="M294.642 229.392L299.349 228.168L294.291 237.159L294.642 229.392Z" fill="#263238" stroke="#263238" stroke-miterlimit="10" stroke-linecap="round" stroke-linejoin="round"/>
<path d="M284.904 207.495C284.904 208.647 284.499 209.574 283.995 209.574C283.491 209.574 283.086 208.638 283.086 207.495C283.086 206.352 283.491 205.416 283.995 205.416C284.499 205.416 284.904 206.352 284.904 207.495Z" fill="#263238"/>
<path d="M282.825 202.293C282.825 202.293 284.643 201.51 286.731 203.337" stroke="#263238" stroke-miterlimit="10" stroke-linecap="round" stroke-linejoin="round"/>
<path d="M282.699 276.354L246.33 279.288L234.639 278.208C234.639 278.208 218.547 283.671 221.679 284.733C224.82 285.795 228.474 284.661 228.474 284.661C228.474 284.661 233.253 286.659 237.978 286.551C242.712 286.443 245.817 285.498 245.817 285.498L286.38 291.6L282.699 276.354Z" fill="#263238" stroke="#263238" stroke-miterlimit="10" stroke-linecap="round" stroke-linejoin="round"/>
<path d="M309.294 230.229C309.294 230.229 288.342 250.506 284.967 255.573C281.592 260.64 280.233 265.032 280.233 269.424C280.233 273.816 283.275 283.617 283.275 283.617L279.216 298.143L267.39 308.952L285.975 338.688C285.975 338.688 294.426 340.38 300.168 336.996C305.91 333.621 309.627 319.086 309.627 311.994C309.627 304.902 308.277 289.692 308.277 289.692C308.277 289.692 316.053 265.365 318.411 256.239C320.778 247.113 321.111 239.004 318.753 234.612C316.386 230.229 312.669 227.862 309.294 230.229Z" fill="white" stroke="#263238" stroke-miterlimit="10" stroke-linecap="round" stroke-linejoin="round"/>
<path d="M284.958 255.573C284.247 256.644 283.626 257.679 283.086 258.696C291.978 259.929 304.128 261.819 316.107 264.375C316.575 262.791 317.016 261.288 317.403 259.911C306.099 257.49 294.642 255.654 285.822 254.403C285.48 254.853 285.183 255.24 284.958 255.573Z" fill="#92E3A9" stroke="#263238" stroke-miterlimit="10" stroke-linecap="round" stroke-linejoin="round"/>
<path d="M318.699 255.105C319.077 253.548 319.392 252.036 319.644 250.56L295.173 244.26C293.895 245.565 292.644 246.861 291.474 248.094L318.699 255.105Z" fill="#92E3A9" stroke="#263238" stroke-miterlimit="10" stroke-linecap="round" stroke-linejoin="round"/>
<path d="M308.862 287.874C309.213 286.758 309.708 285.192 310.302 283.329C301.428 282.681 291.681 281.943 282.591 281.25C282.996 282.672 283.284 283.617 283.284 283.617L282.645 285.912C291.231 286.569 300.402 287.253 308.862 287.874Z" fill="#92E3A9" stroke="#263238" stroke-miterlimit="10" stroke-linecap="round" stroke-linejoin="round"/>
<path d="M320.22 246.087C320.364 244.359 320.4 242.739 320.319 241.236L303.624 235.782C302.481 236.916 301.23 238.158 299.934 239.454L320.22 246.087Z" fill="#92E3A9" stroke="#263238" stroke-miterlimit="10" stroke-linecap="round" stroke-linejoin="round"/>
<path d="M298.413 337.86C290.952 331.911 281.43 324.315 272.556 317.223L279.954 329.067C284.337 332.559 288.621 335.979 292.5 339.075C294.399 338.967 296.487 338.625 298.413 337.86Z" fill="#92E3A9" stroke="#263238" stroke-miterlimit="10" stroke-linecap="round" stroke-linejoin="round"/>
<path d="M308.547 292.86C298.962 292.698 289.143 292.446 280.926 292.032L279.648 296.613C288.288 297.072 298.764 297.351 308.907 297.513C308.772 295.758 308.646 294.156 308.547 292.86Z" fill="#92E3A9" stroke="#263238" stroke-miterlimit="10" stroke-linecap="round" stroke-linejoin="round"/>
<path d="M280.71 265.023C280.386 266.508 280.233 267.966 280.233 269.424C280.233 269.496 280.233 269.577 280.242 269.649C289.782 269.928 301.752 270.963 313.749 272.241C314.217 270.72 314.676 269.199 315.126 267.705C302.904 266.391 290.619 265.329 280.71 265.023Z" fill="#92E3A9" stroke="#263238" stroke-miterlimit="10" stroke-linecap="round" stroke-linejoin="round"/>
<path d="M279.954 311.373C276.435 309.744 273.042 308.187 269.847 306.72L267.39 308.961L268.911 311.391C271.809 312.714 274.851 314.118 278.001 315.576C286.407 319.464 297.243 323.316 306.864 326.448C307.368 324.99 307.818 323.478 308.187 321.984C298.692 318.897 288.054 315.126 279.954 311.373Z" fill="#92E3A9" stroke="#263238" stroke-miterlimit="10" stroke-linecap="round" stroke-linejoin="round"/>
<path d="M309.627 312.003C309.627 310.941 309.6 309.69 309.546 308.331C298.134 306.504 286.596 303.615 276.471 300.663L272.484 304.308C283.617 307.647 296.703 311.013 309.609 313.029C309.618 312.678 309.627 312.336 309.627 312.003Z" fill="#92E3A9" stroke="#263238" stroke-miterlimit="10" stroke-linecap="round" stroke-linejoin="round"/>
<path d="M228.195 399.861L216.702 412.704C216.702 412.704 207.918 415.404 206.568 416.763C205.218 418.113 207.918 418.788 211.302 420.138C214.677 421.488 227.187 419.463 231.237 419.121C235.296 418.779 239.013 419.121 240.363 415.746C241.713 412.371 240.363 408.654 240.021 407.295C239.679 405.945 237.996 399.186 237.996 399.186L228.195 399.861Z" fill="#9C9C9C" stroke="#263238" stroke-miterlimit="10" stroke-linecap="round" stroke-linejoin="round"/>
<path d="M216.126 412.884C214.173 413.505 207.711 415.611 206.559 416.763C205.209 418.113 207.909 418.788 211.293 420.138C214.668 421.488 227.178 419.463 231.228 419.121C235.278 418.779 239.004 419.121 240.354 415.746C241.704 412.371 240.354 408.654 240.012 407.295C239.976 407.142 239.913 406.917 239.85 406.638C233.946 410.337 223.911 414.387 221.769 414.387C220.311 414.396 217.98 413.604 216.126 412.884Z" fill="#92E3A9" stroke="#263238" stroke-miterlimit="10" stroke-linecap="round" stroke-linejoin="round"/>
<path d="M194.058 377.559C194.058 377.559 180.882 392.085 179.19 394.119C177.498 396.144 172.431 396.819 172.773 399.186C173.115 401.553 178.515 400.878 180.882 400.536C183.249 400.194 198.117 396.477 200.142 395.802C202.167 395.127 204.876 394.11 205.209 391.068C205.551 388.026 203.184 380.259 203.184 380.259L194.058 377.559Z" fill="#9C9C9C" stroke="#263238" stroke-miterlimit="10" stroke-linecap="round" stroke-linejoin="round"/>
<path d="M205.209 391.077C205.416 389.178 204.579 385.443 203.913 382.896C200.592 384.516 197.388 388.899 195.741 389.727C193.716 390.744 178.173 395.811 178.173 395.811L177.462 395.415C175.338 396.585 172.512 397.404 172.764 399.195C173.106 401.562 178.506 400.887 180.873 400.545C183.24 400.203 198.108 396.486 200.133 395.811C202.176 395.136 204.876 394.119 205.209 391.077Z" fill="#92E3A9" stroke="#263238" stroke-miterlimit="10" stroke-linecap="round" stroke-linejoin="round"/>
<path d="M316.584 233.586C313.65 231.957 307.782 234.891 305.829 238.149L303.219 247.923L293.769 279.531L246.321 279.297C246.321 279.297 232.893 276.336 230.94 276.381C228.987 276.426 219.024 282.843 219.051 283.815C219.069 284.796 221.679 284.733 221.679 284.733L226.233 284.301L231.102 283.212C231.102 283.212 235.368 284.418 237.321 284.373C239.274 284.328 242.19 283.608 242.19 283.608C242.19 283.608 293.445 295.155 296.712 295.155C299.979 295.155 303.552 294.174 304.857 291.897C306.162 289.62 319.842 255.726 320.499 248.229C321.147 240.759 319.518 235.215 316.584 233.586Z" fill="#9C9C9C" stroke="#263238" stroke-miterlimit="10" stroke-linecap="round" stroke-linejoin="round"/>
<path d="M221.985 284.193C221.985 284.193 229.545 280.161 230.391 279.99" stroke="#263238" stroke-miterlimit="10" stroke-linecap="round" stroke-linejoin="round"/>
<path d="M229.212 277.803C229.212 277.803 220.644 282.672 220.14 284.526" stroke="#263238" stroke-miterlimit="10" stroke-linecap="round" stroke-linejoin="round"/>
<path d="M331.218 238.518L325.782 238.212C325.782 238.212 311.877 278.406 310.068 293.517C308.259 308.628 308.862 321.318 309.762 325.548C310.671 329.778 315.504 337.941 315.504 337.941L321.552 339.453C321.552 339.453 315.207 323.136 314.901 318.6C314.595 314.064 315.378 296.082 315.81 293.814C319.131 276.3 331.218 238.518 331.218 238.518Z" fill="#6E6E6E" stroke="#263238" stroke-miterlimit="10" stroke-linecap="round" stroke-linejoin="round"/>
<path d="M282.564 392.652C282.564 392.652 252.648 407.763 252.036 411.084C251.433 414.405 252.036 418.635 252.036 418.635L253.098 417.573L255.969 410.769L282.87 398.079L282.564 392.652Z" fill="#6E6E6E" stroke="#263238" stroke-miterlimit="10" stroke-linecap="round" stroke-linejoin="round"/>
<path d="M257.481 417.429C257.481 419.265 255.996 420.75 254.16 420.75C252.324 420.75 250.839 419.265 250.839 417.429C250.839 415.593 252.324 414.108 254.16 414.108C255.987 414.108 257.481 415.593 257.481 417.429Z" fill="#263238" stroke="#263238" stroke-miterlimit="10" stroke-linecap="round" stroke-linejoin="round"/>
<path d="M291.321 392.652C291.321 392.652 321.237 407.763 321.849 411.084C322.452 414.405 321.849 418.635 321.849 418.635L320.787 417.573L317.916 410.769L291.015 398.079L291.321 392.652Z" fill="#6E6E6E" stroke="#263238" stroke-miterlimit="10" stroke-linecap="round" stroke-linejoin="round"/>
<path d="M316.413 417.429C316.413 419.265 317.898 420.75 319.734 420.75C321.57 420.75 323.055 419.265 323.055 417.429C323.055 415.593 321.57 414.108 319.734 414.108C317.898 414.108 316.413 415.593 316.413 417.429Z" fill="#263238" stroke="#263238" stroke-miterlimit="10" stroke-linecap="round" stroke-linejoin="round"/>
<path d="M288.909 343.386H284.076V395.973H288.909V343.386Z" fill="#263238" stroke="#263238" stroke-miterlimit="10" stroke-linecap="round" stroke-linejoin="round"/>
<path d="M293.742 348.525H279.54V358.2H293.742V348.525Z" fill="#263238" stroke="#263238" stroke-miterlimit="10" stroke-linecap="round" stroke-linejoin="round"/>
<path d="M320.391 338.787C309.924 337.689 276.21 334.764 245.988 338.814C244.845 338.967 244.395 340.389 245.241 341.181C248.454 344.214 257.364 349.731 280.449 351.234C304.299 352.791 316.485 345.474 321.228 341.523C322.29 340.65 321.759 338.931 320.391 338.787Z" fill="#6E6E6E" stroke="#263238" stroke-miterlimit="10" stroke-linecap="round" stroke-linejoin="round"/>
<path d="M245.205 341.163C245.223 341.181 245.241 341.199 245.268 341.217C245.52 341.451 245.853 341.577 246.195 341.577H321.183C321.201 341.559 321.219 341.55 321.237 341.532C322.29 340.65 321.759 338.931 320.391 338.787C309.915 337.689 276.21 334.764 245.988 338.814C244.854 338.967 244.377 340.38 245.205 341.163Z" fill="#263238" stroke="#263238" stroke-miterlimit="10" stroke-linecap="round" stroke-linejoin="round"/>
<path d="M292.23 387.81H281.052V399.6H292.23V387.81Z" fill="#263238" stroke="#263238" stroke-miterlimit="10" stroke-linecap="round" stroke-linejoin="round"/>
<path d="M287.1 393.705H285.435V420.75H287.1V393.705Z" fill="#6E6E6E" stroke="#263238" stroke-miterlimit="10" stroke-linecap="round" stroke-linejoin="round"/>
<path d="M287.712 413.703H284.787V420.786H287.712V413.703Z" fill="#263238" stroke="#263238" stroke-miterlimit="10" stroke-linecap="round" stroke-linejoin="round"/>
<path d="M297.972 341.577H291.321L287.091 301.077H291.627L297.972 341.577Z" fill="#6E6E6E" stroke="#263238" stroke-miterlimit="10" stroke-linecap="round" stroke-linejoin="round"/>
<path d="M309.456 303.795H263.817C263.817 303.795 267.138 297.747 269.253 297.144C271.368 296.541 305.82 297.144 305.82 297.144C305.82 297.144 309.456 298.359 309.456 303.795Z" fill="#263238" stroke="#263238" stroke-miterlimit="10" stroke-linecap="round" stroke-linejoin="round"/>
<path d="M263.826 303.795H309.465C309.465 303.246 309.42 302.751 309.357 302.283H264.726C264.177 303.165 263.826 303.795 263.826 303.795Z" fill="#6E6E6E" stroke="#263238" stroke-miterlimit="10" stroke-linecap="round" stroke-linejoin="round"/>
<path d="M122.355 295.641L127.503 308.898C129.33 312.66 130.041 319.05 129.555 323.208L117.477 418.959C117.342 420.057 118.197 421.038 119.304 421.038C120.195 421.038 120.951 420.408 121.122 419.535L144.189 296.919H135.738L134.253 303.975C134.001 305.172 132.327 305.253 131.949 304.092L129.096 295.11L122.355 295.641Z" fill="white" stroke="#263238" stroke-miterlimit="10" stroke-linecap="round" stroke-linejoin="round"/>
<path d="M134.91 300.861H143.451L144.198 296.919H135.738L134.91 300.861Z" fill="#263238" stroke="#263238" stroke-miterlimit="10" stroke-linecap="round" stroke-linejoin="round"/>
<path d="M129.096 295.11L122.355 295.641L124.38 300.861H130.923L129.096 295.11Z" fill="#263238" stroke="#263238" stroke-miterlimit="10" stroke-linecap="round" stroke-linejoin="round"/>
<path d="M252.333 295.641L247.185 308.898C245.358 312.66 244.647 319.05 245.133 323.208L257.211 418.959C257.346 420.057 256.491 421.038 255.384 421.038C254.493 421.038 253.737 420.408 253.566 419.535L230.49 296.919H238.941L240.426 303.975C240.678 305.172 242.352 305.253 242.73 304.092L245.583 295.11L252.333 295.641Z" fill="white" stroke="#263238" stroke-miterlimit="10" stroke-linecap="round" stroke-linejoin="round"/>
<path d="M238.95 296.919H230.49L231.237 300.861H239.778L238.95 296.919Z" fill="#263238" stroke="#263238" stroke-miterlimit="10" stroke-linecap="round" stroke-linejoin="round"/>
<path d="M243.765 300.861H250.308L252.333 295.641L245.592 295.11L243.765 300.861Z" fill="#263238" stroke="#263238" stroke-miterlimit="10" stroke-linecap="round" stroke-linejoin="round"/>
<path d="M262.008 289.017H113.319V296.874H262.008V289.017Z" fill="white" stroke="#263238" stroke-miterlimit="10" stroke-linecap="round" stroke-linejoin="round"/>
<path d="M250.983 286.803H212.985V289.071H250.983V286.803Z" fill="white" stroke="#263238" stroke-miterlimit="10" stroke-linecap="round" stroke-linejoin="round"/>
<path d="M190.089 288.567H173.52C170.595 288.567 168.192 286.281 168.03 283.365C167.994 282.753 168.066 282.141 168.237 281.547L178.623 251.685C178.839 251.055 179.532 250.722 180.162 250.938C180.792 251.154 181.125 251.847 180.909 252.477L170.541 282.285C170.46 282.555 170.424 282.897 170.442 283.248C170.532 284.877 171.882 286.164 173.511 286.164H190.08C190.746 286.164 191.286 286.704 191.286 287.37C191.295 288.027 190.755 288.567 190.089 288.567Z" fill="#263238" stroke="#263238" stroke-miterlimit="10" stroke-linecap="round" stroke-linejoin="round"/>
<path d="M185.805 210.798L204.111 280.89L202.104 282.393C202.104 282.393 179.064 264.366 179.064 249.336C179.064 234.306 183.069 211.275 183.069 211.275L185.805 210.798Z" fill="white" stroke="#263238" stroke-miterlimit="10" stroke-linecap="round" stroke-linejoin="round"/>
<path d="M185.805 210.798L183.078 211.275L202.113 282.393L204.111 280.89L185.805 210.798Z" fill="#263238" stroke="#263238" stroke-miterlimit="10" stroke-linecap="round" stroke-linejoin="round"/>
<path d="M135.126 274.86C135.126 274.86 128.628 264.456 133.83 258.606C139.032 252.756 147.483 255.573 149.211 260.991C150.948 266.409 147.258 275.508 147.258 275.508L135.126 274.86Z" fill="#92E3A9" stroke="#263238" stroke-miterlimit="10" stroke-linecap="round" stroke-linejoin="round"/>
<path d="M135.351 262.944C134.271 262.944 130.149 261.423 128.853 259.479C127.557 257.526 127.332 253.197 131.022 253.197C134.712 253.197 136.008 259.695 136.008 259.695L136.224 262.08" fill="#92E3A9"/>
<path d="M135.351 262.944C134.271 262.944 130.149 261.423 128.853 259.479C127.557 257.526 127.332 253.197 131.022 253.197C134.712 253.197 136.008 259.695 136.008 259.695L136.224 262.08" stroke="#263238" stroke-miterlimit="10" stroke-linecap="round" stroke-linejoin="round"/>
<path d="M138.681 258.894C137.709 258.408 134.703 255.213 134.415 252.891C134.118 250.569 135.864 246.591 139.158 248.238C142.452 249.885 140.715 256.284 140.715 256.284L139.842 258.516" fill="#92E3A9"/>
<path d="M138.681 258.894C137.709 258.408 134.703 255.213 134.415 252.891C134.118 250.569 135.864 246.591 139.158 248.238C142.452 249.885 140.715 256.284 140.715 256.284L139.842 258.516" stroke="#263238" stroke-miterlimit="10" stroke-linecap="round" stroke-linejoin="round"/>
<path d="M142.614 259.983C142.074 259.047 141.345 254.718 142.398 252.621C143.442 250.524 147.096 248.184 148.932 251.379C150.759 254.574 145.764 258.93 145.764 258.93L143.802 260.298" fill="#92E3A9"/>
<path d="M142.614 259.983C142.074 259.047 141.345 254.718 142.398 252.621C143.442 250.524 147.096 248.184 148.932 251.379C150.759 254.574 145.764 258.93 145.764 258.93L143.802 260.298" stroke="#263238" stroke-miterlimit="10" stroke-linecap="round" stroke-linejoin="round"/>
<path d="M143.91 267.75C143.73 266.679 144.54 262.368 146.25 260.766C147.96 259.164 152.199 258.228 152.811 261.864C153.423 265.5 147.222 267.858 147.222 267.858L144.909 268.47" fill="#92E3A9"/>
<path d="M143.91 267.75C143.73 266.679 144.54 262.368 146.25 260.766C147.96 259.164 152.199 258.228 152.811 261.864C153.423 265.5 147.222 267.858 147.222 267.858L144.909 268.47" stroke="#263238" stroke-miterlimit="10" stroke-linecap="round" stroke-linejoin="round"/>
<path d="M129.321 256.86L130.05 258.012" stroke="white" stroke-miterlimit="10" stroke-linecap="round" stroke-linejoin="round"/>
<path d="M131.409 259.686L132.561 260.622" stroke="white" stroke-miterlimit="10" stroke-linecap="round" stroke-linejoin="round"/>
<path d="M130.158 254.664L131.31 256.338" stroke="white" stroke-miterlimit="10" stroke-linecap="round" stroke-linejoin="round"/>
<path d="M132.876 257.697L134.136 259.992" stroke="white" stroke-miterlimit="10" stroke-linecap="round" stroke-linejoin="round"/>
<path d="M135.801 252.153L136.224 253.413" stroke="white" stroke-miterlimit="10" stroke-linecap="round" stroke-linejoin="round"/>
<path d="M137.268 255.708L137.997 256.752" stroke="white" stroke-miterlimit="10" stroke-linecap="round" stroke-linejoin="round"/>
<path d="M136.953 249.642L137.898 251.739" stroke="white" stroke-miterlimit="10" stroke-linecap="round" stroke-linejoin="round"/>
<path d="M133.299 264.384L133.605 266.274" stroke="white" stroke-miterlimit="10" stroke-linecap="round" stroke-linejoin="round"/>
<path d="M134.235 268.047L134.658 269.613" stroke="white" stroke-miterlimit="10" stroke-linecap="round" stroke-linejoin="round"/>
<path d="M135.279 264.492L135.702 266.58" stroke="white" stroke-miterlimit="10" stroke-linecap="round" stroke-linejoin="round"/>
<path d="M136.638 268.047L136.953 269.613" stroke="white" stroke-miterlimit="10" stroke-linecap="round" stroke-linejoin="round"/>
<path d="M137.376 261.774L137.997 264.699" stroke="white" stroke-miterlimit="10" stroke-linecap="round" stroke-linejoin="round"/>
<path d="M138.834 267.525L138.942 268.884" stroke="white" stroke-miterlimit="10" stroke-linecap="round" stroke-linejoin="round"/>
<path d="M139.986 260.829L140.508 263.547" stroke="white" stroke-miterlimit="10" stroke-linecap="round" stroke-linejoin="round"/>
<path d="M140.508 266.373L140.715 269.199" stroke="white" stroke-miterlimit="10" stroke-linecap="round" stroke-linejoin="round"/>
<path d="M143.019 261.882V264.177" stroke="white" stroke-miterlimit="10" stroke-linecap="round" stroke-linejoin="round"/>
<path d="M142.704 267.102L142.812 268.884" stroke="white" stroke-miterlimit="10" stroke-linecap="round" stroke-linejoin="round"/>
<path d="M145.638 251.001L145.107 252.261" stroke="white" stroke-miterlimit="10" stroke-linecap="round" stroke-linejoin="round"/>
<path d="M144.9 253.719L144.378 255.501" stroke="white" stroke-miterlimit="10" stroke-linecap="round" stroke-linejoin="round"/>
<path d="M147.933 253.413L147.096 255.078" stroke="white" stroke-miterlimit="10" stroke-linecap="round" stroke-linejoin="round"/>
<path d="M145.323 256.968L144.378 258.012" stroke="white" stroke-miterlimit="10" stroke-linecap="round" stroke-linejoin="round"/>
<path d="M143.334 253.305L143.019 254.664" stroke="white" stroke-miterlimit="10" stroke-linecap="round" stroke-linejoin="round"/>
<path d="M147.933 260.829L146.781 262.719" stroke="white" stroke-miterlimit="10" stroke-linecap="round" stroke-linejoin="round"/>
<path d="M146.052 263.862L145.422 265.536" stroke="white" stroke-miterlimit="10" stroke-linecap="round" stroke-linejoin="round"/>
<path d="M146.997 266.373L148.878 265.329" stroke="white" stroke-miterlimit="10" stroke-linecap="round" stroke-linejoin="round"/>
<path d="M150.021 260.829L149.085 262.404" stroke="white" stroke-miterlimit="10" stroke-linecap="round" stroke-linejoin="round"/>
<path d="M150.966 262.611L149.715 263.547" stroke="white" stroke-miterlimit="10" stroke-linecap="round" stroke-linejoin="round"/>
<path d="M149.616 271.233H131.841V289.008H149.616V271.233Z" fill="#263238" stroke="#263238" stroke-miterlimit="10" stroke-linecap="round" stroke-linejoin="round"/>
<path d="M352.557 291.366L362.862 390.168" stroke="#263238" stroke-width="2" stroke-miterlimit="10"/>
<path d="M361.206 371.259L356.526 366.327" stroke="#263238" stroke-width="2" stroke-miterlimit="10"/>
<path d="M357.948 367.803C357.948 367.803 358.083 365.616 356.085 363.834C354.888 362.763 348.57 360.108 347.967 362.331C347.319 364.752 353.79 369.504 357.948 367.803Z" fill="#92E3A9" stroke="#263238" stroke-miterlimit="10"/>
<path d="M357.948 367.803L351.936 364.059" stroke="#263238" stroke-width="0.5" stroke-miterlimit="10"/>
<path d="M362.376 382.5L357.705 377.559" stroke="#263238" stroke-width="2" stroke-miterlimit="10"/>
<path d="M359.118 379.044C359.118 379.044 359.253 376.857 357.255 375.075C356.058 374.004 349.74 371.349 349.137 373.572C348.498 375.993 354.96 380.745 359.118 379.044Z" fill="#92E3A9" stroke="#263238" stroke-miterlimit="10"/>
<path d="M359.118 379.044L353.106 375.291" stroke="#263238" stroke-width="0.5" stroke-miterlimit="10"/>
<path d="M358.344 343.845L353.664 338.904" stroke="#263238" stroke-width="2" stroke-miterlimit="10"/>
<path d="M355.086 340.38C355.086 340.38 355.221 338.193 353.223 336.411C352.026 335.34 345.708 332.685 345.105 334.908C344.457 337.329 350.928 342.081 355.086 340.38Z" fill="#92E3A9" stroke="#263238" stroke-miterlimit="10"/>
<path d="M355.086 340.38L349.074 336.636" stroke="#263238" stroke-width="0.5" stroke-miterlimit="10"/>
<path d="M359.514 355.077L354.843 350.145" stroke="#263238" stroke-width="2" stroke-miterlimit="10"/>
<path d="M356.256 351.621C356.256 351.621 356.391 349.434 354.393 347.652C353.196 346.581 346.878 343.926 346.275 346.149C345.636 348.57 352.098 353.322 356.256 351.621Z" fill="#92E3A9" stroke="#263238" stroke-miterlimit="10"/>
<path d="M356.256 351.621L350.244 347.877" stroke="#263238" stroke-width="0.5" stroke-miterlimit="10"/>
<path d="M356.436 325.584L351.765 320.652" stroke="#263238" stroke-width="2" stroke-miterlimit="10"/>
<path d="M353.178 322.128C353.178 322.128 353.313 319.941 351.315 318.159C350.118 317.088 343.8 314.433 343.197 316.656C342.558 319.077 349.02 323.829 353.178 322.128Z" fill="#92E3A9" stroke="#263238" stroke-miterlimit="10"/>
<path d="M353.178 322.128L347.166 318.384" stroke="#263238" stroke-width="0.5" stroke-miterlimit="10"/>
<path d="M354.519 307.251L349.848 302.319" stroke="#263238" stroke-width="2" stroke-miterlimit="10"/>
<path d="M351.27 303.795C351.27 303.795 351.405 301.608 349.407 299.826C348.21 298.755 341.892 296.1 341.289 298.323C340.641 300.744 347.103 305.496 351.27 303.795Z" fill="#92E3A9" stroke="#263238" stroke-miterlimit="10"/>
<path d="M351.27 303.795L345.258 300.051" stroke="#263238" stroke-width="0.5" stroke-miterlimit="10"/>
<path d="M360.414 364.617L363.969 358.821" stroke="#263238" stroke-width="2" stroke-miterlimit="10"/>
<path d="M362.889 360.558C362.889 360.558 362.304 358.452 363.888 356.292C364.842 354.996 370.467 351.09 371.52 353.142C372.654 355.383 367.308 361.359 362.889 360.558Z" fill="#92E3A9" stroke="#263238" stroke-miterlimit="10"/>
<path d="M362.889 360.558L368.298 355.383" stroke="#263238" stroke-width="0.5" stroke-miterlimit="10"/>
<path d="M357.327 335.043L360.882 329.247" stroke="#263238" stroke-width="2" stroke-miterlimit="10"/>
<path d="M359.802 330.984C359.802 330.984 359.217 328.878 360.801 326.718C361.755 325.422 367.38 321.516 368.433 323.568C369.567 325.809 364.23 331.794 359.802 330.984Z" fill="#92E3A9" stroke="#263238" stroke-miterlimit="10"/>
<path d="M359.802 330.984L365.211 325.809" stroke="#263238" stroke-width="0.5" stroke-miterlimit="10"/>
<path d="M355.977 322.047L359.532 316.251" stroke="#263238" stroke-width="2" stroke-miterlimit="10"/>
<path d="M358.443 317.988C358.443 317.988 357.858 315.882 359.442 313.722C360.396 312.426 366.021 308.52 367.074 310.572C368.217 312.813 362.871 318.798 358.443 317.988Z" fill="#92E3A9" stroke="#263238" stroke-miterlimit="10"/>
<path d="M358.443 317.988L363.861 312.813" stroke="#263238" stroke-width="0.5" stroke-miterlimit="10"/>
<path d="M353.988 302.994L357.543 297.198" stroke="#263238" stroke-width="2" stroke-miterlimit="10"/>
<path d="M356.454 298.935C356.454 298.935 355.869 296.829 357.453 294.669C358.407 293.373 364.032 289.467 365.085 291.519C366.228 293.76 360.882 299.745 356.454 298.935Z" fill="#92E3A9" stroke="#263238" stroke-miterlimit="10"/>
<path d="M356.454 298.935L361.872 293.769" stroke="#263238" stroke-width="0.5" stroke-miterlimit="10"/>
<path d="M352.467 290.817C352.467 290.817 351.882 288.711 353.466 286.551C354.42 285.255 360.045 281.349 361.098 283.401C362.232 285.633 356.895 291.618 352.467 290.817Z" fill="#92E3A9" stroke="#263238" stroke-miterlimit="10"/>
<path d="M352.467 290.817L357.876 285.642" stroke="#263238" stroke-width="0.5" stroke-miterlimit="10"/>
<path d="M352.782 291.033C352.782 291.033 350.622 291.393 348.642 289.593C347.454 288.513 344.16 282.501 346.311 281.673C348.651 280.782 354.042 286.722 352.782 291.033Z" fill="#92E3A9" stroke="#263238" stroke-miterlimit="10"/>
<path d="M352.782 291.033L348.201 285.111" stroke="#263238" stroke-width="0.5" stroke-miterlimit="10"/>
<path d="M379.755 304.974L369.495 403.785" stroke="#263238" stroke-width="2" stroke-miterlimit="10"/>
<path d="M371.763 384.939L368.208 379.143" stroke="#263238" stroke-width="2" stroke-miterlimit="10"/>
<path d="M369.288 380.889C369.288 380.889 369.873 378.783 368.28 376.623C367.326 375.327 361.692 371.43 360.648 373.482C359.523 375.714 364.869 381.69 369.288 380.889Z" fill="#92E3A9" stroke="#263238" stroke-miterlimit="10"/>
<path d="M369.288 380.889L364.176 375.984" stroke="#263238" stroke-width="0.5" stroke-miterlimit="10"/>
<path d="M374.607 357.516L371.052 351.72" stroke="#263238" stroke-width="2" stroke-miterlimit="10"/>
<path d="M372.141 353.466C372.141 353.466 372.726 351.36 371.133 349.2C370.179 347.904 364.545 344.007 363.501 346.059C362.367 348.291 367.713 354.267 372.141 353.466Z" fill="#92E3A9" stroke="#263238" stroke-miterlimit="10"/>
<path d="M372.141 353.466L367.029 348.561" stroke="#263238" stroke-width="0.5" stroke-miterlimit="10"/>
<path d="M373.446 368.757L369.882 362.961" stroke="#263238" stroke-width="2" stroke-miterlimit="10"/>
<path d="M370.971 364.698C370.971 364.698 371.547 362.592 369.963 360.432C369.009 359.136 363.375 355.239 362.331 357.291C361.197 359.523 366.543 365.508 370.971 364.698Z" fill="#92E3A9" stroke="#263238" stroke-miterlimit="10"/>
<path d="M370.971 364.698L365.859 359.793" stroke="#263238" stroke-width="0.5" stroke-miterlimit="10"/>
<path d="M376.506 339.264L372.942 333.468" stroke="#263238" stroke-width="2" stroke-miterlimit="10"/>
<path d="M374.031 335.205C374.031 335.205 374.616 333.099 373.023 330.939C372.069 329.643 366.435 325.746 365.391 327.798C364.257 330.03 369.612 336.015 374.031 335.205Z" fill="#92E3A9" stroke="#263238" stroke-miterlimit="10"/>
<path d="M374.031 335.205L368.919 330.3" stroke="#263238" stroke-width="0.5" stroke-miterlimit="10"/>
<path d="M378.405 320.922L374.85 315.135" stroke="#263238" stroke-width="2" stroke-miterlimit="10"/>
<path d="M375.93 316.872C375.93 316.872 376.506 314.766 374.922 312.606C373.968 311.31 368.334 307.413 367.29 309.465C366.165 311.697 371.511 317.682 375.93 316.872Z" fill="#92E3A9" stroke="#263238" stroke-miterlimit="10"/>
<path d="M375.93 316.872L370.818 311.967" stroke="#263238" stroke-width="0.5" stroke-miterlimit="10"/>
<path d="M372.366 378.27L377.037 373.329" stroke="#263238" stroke-width="2" stroke-miterlimit="10"/>
<path d="M375.615 374.814C375.615 374.814 375.48 372.627 377.469 370.845C378.666 369.774 384.984 367.11 385.578 369.333C386.244 371.754 379.782 376.506 375.615 374.814Z" fill="#92E3A9" stroke="#263238" stroke-miterlimit="10"/>
<path d="M375.615 374.814L381.978 370.863" stroke="#263238" stroke-width="0.5" stroke-miterlimit="10"/>
<path d="M375.435 348.696L380.106 343.755" stroke="#263238" stroke-width="2" stroke-miterlimit="10"/>
<path d="M378.684 345.24C378.684 345.24 378.549 343.053 380.538 341.271C381.735 340.2 388.053 337.536 388.647 339.759C389.313 342.18 382.851 346.932 378.684 345.24Z" fill="#92E3A9" stroke="#263238" stroke-miterlimit="10"/>
<path d="M378.684 345.24L385.047 341.289" stroke="#263238" stroke-width="0.5" stroke-miterlimit="10"/>
<path d="M376.785 335.7L381.456 330.759" stroke="#263238" stroke-width="2" stroke-miterlimit="10"/>
<path d="M380.034 332.244C380.034 332.244 379.899 330.057 381.888 328.275C383.085 327.204 389.403 324.54 389.997 326.763C390.663 329.184 384.201 333.936 380.034 332.244Z" fill="#92E3A9" stroke="#263238" stroke-miterlimit="10"/>
<path d="M380.034 332.244L386.397 328.293" stroke="#263238" stroke-width="0.5" stroke-miterlimit="10"/>
<path d="M378.756 316.647L383.427 311.706" stroke="#263238" stroke-width="2" stroke-miterlimit="10"/>
<path d="M382.014 313.191C382.014 313.191 381.879 311.004 383.868 309.222C385.065 308.151 391.383 305.487 391.977 307.71C392.634 310.131 386.172 314.883 382.014 313.191Z" fill="#92E3A9" stroke="#263238" stroke-miterlimit="10"/>
<path d="M382.014 313.191L388.377 309.24" stroke="#263238" stroke-width="0.5" stroke-miterlimit="10"/>
<path d="M379.782 304.416C379.782 304.416 379.647 302.229 381.636 300.447C382.833 299.376 389.151 296.712 389.745 298.935C390.402 301.356 383.94 306.117 379.782 304.416Z" fill="#92E3A9" stroke="#263238" stroke-miterlimit="10"/>
<path d="M379.782 304.416L386.145 300.465" stroke="#263238" stroke-width="0.5" stroke-miterlimit="10"/>
<path d="M380.043 304.695C380.043 304.695 377.856 304.596 376.29 302.427C375.345 301.122 373.365 294.561 375.642 294.201C378.117 293.814 382.167 300.735 380.043 304.695Z" fill="#92E3A9" stroke="#263238" stroke-miterlimit="10"/>
<path d="M380.043 304.695L376.776 297.954" stroke="#263238" stroke-width="0.5" stroke-miterlimit="10"/>
<path d="M368.001 264.735V389.691" stroke="#263238" stroke-width="2" stroke-miterlimit="10"/>
<path d="M368.1 370.899L363.96 365.508" stroke="#263238" stroke-width="2" stroke-miterlimit="10"/>
<path d="M365.22 367.128C365.22 367.128 365.58 364.968 363.78 362.988C362.7 361.8 356.688 358.497 355.869 360.648C354.969 362.988 360.909 368.388 365.22 367.128Z" fill="#92E3A9" stroke="#263238" stroke-miterlimit="10"/>
<path d="M365.22 367.128L359.631 362.772" stroke="#263238" stroke-width="0.5" stroke-miterlimit="10"/>
<path d="M368.1 347.418L363.96 342.027" stroke="#263238" stroke-width="2" stroke-miterlimit="10"/>
<path d="M365.22 343.638C365.22 343.638 365.58 341.478 363.78 339.498C362.7 338.31 356.688 335.007 355.869 337.158C354.969 339.507 360.909 344.898 365.22 343.638Z" fill="#92E3A9" stroke="#263238" stroke-miterlimit="10"/>
<path d="M365.22 343.638L359.631 339.291" stroke="#263238" stroke-width="0.5" stroke-miterlimit="10"/>
<path d="M368.1 319.851L363.96 314.451" stroke="#263238" stroke-width="2" stroke-miterlimit="10"/>
<path d="M365.22 316.071C365.22 316.071 365.58 313.911 363.78 311.931C362.7 310.743 356.688 307.44 355.869 309.591C354.969 311.931 360.909 317.331 365.22 316.071Z" fill="#92E3A9" stroke="#263238" stroke-miterlimit="10"/>
<path d="M365.22 316.071L359.631 311.724" stroke="#263238" stroke-width="0.5" stroke-miterlimit="10"/>
<path d="M368.1 301.491L363.96 296.1" stroke="#263238" stroke-width="2" stroke-miterlimit="10"/>
<path d="M365.22 297.72C365.22 297.72 365.58 295.56 363.78 293.58C362.7 292.392 356.688 289.089 355.869 291.24C354.969 293.58 360.909 298.98 365.22 297.72Z" fill="#92E3A9" stroke="#263238" stroke-miterlimit="10"/>
<path d="M365.22 297.72L359.631 293.364" stroke="#263238" stroke-width="0.5" stroke-miterlimit="10"/>
<path d="M368.1 283.059L363.96 277.668" stroke="#263238" stroke-width="2" stroke-miterlimit="10"/>
<path d="M365.22 279.288C365.22 279.288 365.58 277.128 363.78 275.148C362.7 273.96 356.688 270.657 355.869 272.808C354.969 275.148 360.909 280.539 365.22 279.288Z" fill="#92E3A9" stroke="#263238" stroke-miterlimit="10"/>
<path d="M365.22 279.288L359.631 274.932" stroke="#263238" stroke-width="0.5" stroke-miterlimit="10"/>
<path d="M368.01 378.072L372.15 372.681" stroke="#263238" stroke-width="2" stroke-miterlimit="10"/>
<path d="M370.89 374.292C370.89 374.292 370.53 372.132 372.33 370.152C373.41 368.964 379.413 365.661 380.241 367.812C381.141 370.161 375.201 375.552 370.89 374.292Z" fill="#92E3A9" stroke="#263238" stroke-miterlimit="10"/>
<path d="M370.89 374.292L376.812 369.711" stroke="#263238" stroke-width="0.5" stroke-miterlimit="10"/>
<path d="M368.01 340.722L372.15 335.331" stroke="#263238" stroke-width="2" stroke-miterlimit="10"/>
<path d="M370.89 336.951C370.89 336.951 370.53 334.791 372.33 332.811C373.41 331.623 379.413 328.32 380.241 330.471C381.141 332.811 375.201 338.211 370.89 336.951Z" fill="#92E3A9" stroke="#263238" stroke-miterlimit="10"/>
<path d="M370.89 336.951L376.812 332.361" stroke="#263238" stroke-width="0.5" stroke-miterlimit="10"/>
<path d="M368.01 322.29L372.15 316.899" stroke="#263238" stroke-width="2" stroke-miterlimit="10"/>
<path d="M370.89 318.51C370.89 318.51 370.53 316.35 372.33 314.37C373.41 313.182 379.413 309.879 380.241 312.03C381.141 314.379 375.201 319.77 370.89 318.51Z" fill="#92E3A9" stroke="#263238" stroke-miterlimit="10"/>
<path d="M370.89 318.51L376.812 313.929" stroke="#263238" stroke-width="0.5" stroke-miterlimit="10"/>
<path d="M368.01 297.927L372.15 292.527" stroke="#263238" stroke-width="2" stroke-miterlimit="10"/>
<path d="M370.89 294.147C370.89 294.147 370.53 291.987 372.33 290.007C373.41 288.819 379.413 285.516 380.241 287.667C381.141 290.016 375.201 295.407 370.89 294.147Z" fill="#92E3A9" stroke="#263238" stroke-miterlimit="10"/>
<path d="M370.89 294.147L376.812 289.566" stroke="#263238" stroke-width="0.5" stroke-miterlimit="10"/>
<path d="M368.01 278.775L372.15 273.375" stroke="#263238" stroke-width="2" stroke-miterlimit="10"/>
<path d="M370.89 274.995C370.89 274.995 370.53 272.835 372.33 270.855C373.41 269.667 379.413 266.364 380.241 268.515C381.141 270.855 375.201 276.255 370.89 274.995Z" fill="#92E3A9" stroke="#263238" stroke-miterlimit="10"/>
<path d="M370.89 274.995L376.812 270.414" stroke="#263238" stroke-width="0.5" stroke-miterlimit="10"/>
<path d="M367.758 266.499C367.758 266.499 367.398 264.339 369.198 262.359C370.278 261.171 376.281 257.868 377.109 260.019C378.018 262.359 372.078 267.759 367.758 266.499Z" fill="#92E3A9" stroke="#263238" stroke-miterlimit="10"/>
<path d="M367.758 266.499L373.68 261.918" stroke="#263238" stroke-width="0.5" stroke-miterlimit="10"/>
<path d="M368.046 266.751C368.046 266.751 365.859 266.886 364.086 264.888C363.015 263.691 360.369 257.373 362.592 256.77C365.013 256.122 369.756 262.593 368.046 266.751Z" fill="#92E3A9" stroke="#263238" stroke-miterlimit="10"/>
<path d="M368.046 266.751L364.113 260.388" stroke="#263238" stroke-width="0.5" stroke-miterlimit="10"/>
<path d="M373.14 422.1H359.91L358.254 388.674H374.796L373.14 422.1Z" fill="#263238" stroke="#263238" stroke-miterlimit="10"/>
</svg>
