<svg width="33" height="36" viewBox="0 0 33 36" fill="none" xmlns="http://www.w3.org/2000/svg">
<path d="M11.76 0.867598C5.26248 1.00296 1.77686 6.11296 1.77686 9.58167V11.1693C3.2151 10.8732 6.37924 10.2302 7.52984 10.0272C8.96808 9.77335 13.875 9.35034 15.3133 11.1693C16.6334 12.8389 17.3121 14.4016 17.4146 17.6567C17.4336 18.258 17.569 18.8509 17.8069 19.4036C18.4026 20.7877 19.0101 22.5725 19.2735 24.2962L23.2431 18.8051C23.5913 18.3235 23.8269 17.7702 23.938 17.1864C23.9988 16.8665 24.0571 16.5658 24.112 16.2878C25.0595 12.7683 23.4633 7.80501 22.5045 5.77455C19.9664 1.45981 14.2416 0.698393 11.76 0.867598Z" fill="url(#paint0_linear_382_7725)"/>
<path d="M23.7869 21.6668C22.8464 21.5941 22.0889 21.9998 21.8276 22.2117C22.0627 22.5023 23.2317 22.6356 23.7869 22.6658C24.5705 22.7385 25.2889 22.2723 25.5502 22.0301C25.3542 21.9393 24.7273 21.7395 23.7869 21.6668Z" fill="#175C3B"/>
<path d="M25.9602 18.2403C25.0209 18.3265 24.3422 18.8535 24.1202 19.1062C24.4008 19.3533 25.5755 19.2884 26.1279 19.2252C26.9126 19.1653 27.5426 18.5851 27.7595 18.3026C27.5511 18.2459 26.8995 18.1541 25.9602 18.2403Z" fill="#175C3B"/>
<path d="M28.2163 15.1988C27.2732 15.18 26.5401 15.6284 26.2914 15.8549C26.5428 16.1316 27.7175 16.1977 28.2734 16.1962C29.06 16.2239 29.7505 15.7174 29.9975 15.4607C29.7967 15.3812 29.1593 15.2176 28.2163 15.1988Z" fill="#175C3B"/>
<path d="M30.2138 12.461C29.2708 12.4422 28.5377 12.8906 28.289 13.1171C28.5403 13.3938 29.715 13.4599 30.271 13.4584C31.0575 13.4861 31.7481 12.9796 31.995 12.7229C31.7942 12.6434 31.1569 12.4798 30.2138 12.461Z" fill="#175C3B"/>
<path d="M28.4694 8.97257C28.1396 9.85624 28.32 10.6964 28.4514 11.0061C28.7957 10.8605 29.2469 9.7739 29.4295 9.2488C29.716 8.51575 29.4666 7.69647 29.3061 7.37846C29.1646 7.54163 28.7993 8.08889 28.4694 8.97257Z" fill="#175C3B"/>
<path d="M25.4004 11.2236C25.1701 12.1383 25.4421 12.9535 25.6069 13.2467C25.933 13.064 26.2615 11.9343 26.3851 11.3922C26.5889 10.632 26.2506 9.84528 26.056 9.54693C25.9334 9.72472 25.6307 10.309 25.4004 11.2236Z" fill="#175C3B"/>
<path d="M22.8767 13.7909C22.8174 14.7322 23.2339 15.4839 23.4495 15.7421C23.7367 15.5029 23.8533 14.3321 23.8757 13.7766C23.9371 12.992 23.4608 12.2803 23.2149 12.0226C23.1269 12.2198 22.936 12.8495 22.8767 13.7909Z" fill="#175C3B"/>
<path d="M23.8037 8.42669C22.9799 8.88594 22.5728 9.64273 22.4722 9.96373C22.8288 10.076 23.8766 9.54084 24.3559 9.25924C25.0492 8.88663 25.3902 8.10103 25.474 7.75481C25.2605 7.78742 24.6276 7.96744 23.8037 8.42669Z" fill="#175C3B"/>
<path d="M25.248 5.192C24.3198 5.35956 23.6895 5.94363 23.4903 6.21473C23.7913 6.43644 24.956 6.26966 25.5007 6.15856C26.2773 6.03065 26.8544 5.3979 27.0459 5.09752C26.8334 5.0592 26.1763 5.02445 25.248 5.192Z" fill="#175C3B"/>
<path d="M22.1802 1.92591C22.2925 2.86243 22.8382 3.52623 23.0971 3.74107C23.3362 3.45376 23.2387 2.28124 23.16 1.7309C23.0783 0.948103 22.4808 0.334549 22.1923 0.125622C22.1415 0.335504 22.0679 0.989396 22.1802 1.92591Z" fill="#175C3B"/>
<path d="M19.981 5.31019C20.0933 6.24671 20.639 6.91051 20.8979 7.12535C21.137 6.83803 21.0394 5.66552 20.9608 5.11518C20.8791 4.33238 20.2816 3.71883 19.9931 3.5099C19.9422 3.71978 19.8687 4.37367 19.981 5.31019Z" fill="#175C3B"/>
<path d="M17.214 5.51632C17.3861 6.44372 17.9732 7.0712 18.2453 7.26902C18.4655 6.96698 18.2931 5.80312 18.1793 5.25895C18.0476 4.48299 17.4121 3.90897 17.1108 3.71895C17.0735 3.93165 17.042 4.58892 17.214 5.51632Z" fill="#175C3B"/>
<path d="M13.3831 4.85594C13.9663 5.59727 14.7777 5.88018 15.1105 5.92897C15.1652 5.55919 14.4719 4.60864 14.1183 4.17959C13.6412 3.55363 12.8118 3.34054 12.4567 3.31224C12.5225 3.51793 12.7999 4.11462 13.3831 4.85594Z" fill="#175C3B"/>
<path d="M9.12143 5.1651C9.88461 5.71939 10.7424 5.77043 11.0759 5.72665C11.0278 5.35595 10.1016 4.63039 9.64451 4.31395C9.01487 3.84172 8.15872 3.86279 7.80936 3.93236C7.92872 4.11232 8.35825 4.61081 9.12143 5.1651Z" fill="#175C3B"/>
<path d="M7.43078 8.62555C8.32568 8.3275 8.86641 7.65961 9.02491 7.36292C8.69544 7.18633 7.56638 7.51728 7.04303 7.70483C6.29258 7.94204 5.81146 8.65053 5.66471 8.97512C5.88053 8.98278 6.53588 8.92359 7.43078 8.62555Z" fill="#175C3B"/>
<path d="M11.9991 8.62555C12.894 8.3275 13.4348 7.65961 13.5933 7.36292C13.2638 7.18633 12.1347 7.51728 11.6114 7.70483C10.8609 7.94204 10.3798 8.65053 10.2331 8.97512C10.4489 8.98278 11.1042 8.92359 11.9991 8.62555Z" fill="#175C3B"/>
<path d="M15.6754 9.54014C16.6179 9.57717 17.3596 9.14313 17.6126 8.92148C17.3667 8.63996 16.1935 8.55107 15.6376 8.54182C14.8517 8.49886 14.1515 8.99192 13.8996 9.24382C14.0988 9.32717 14.7329 9.50311 15.6754 9.54014Z" fill="#175C3B"/>
<path d="M17.9053 11.8674C18.7652 12.2552 19.6155 12.131 19.9332 12.0204C19.8108 11.6672 18.7565 11.1448 18.2447 10.9277C17.5323 10.5932 16.6983 10.7876 16.3703 10.9267C16.5237 11.0786 17.0455 11.4795 17.9053 11.8674Z" fill="#175C3B"/>
<path d="M1.84281 13.841C1.9654 14.6895 2.06396 16.1639 1.77686 17.4271C3.1587 17.2015 6.24388 16.8857 7.52984 17.4271C8.26306 17.7373 9.83103 19.0684 10.2371 21.9111C10.3945 23.4217 10.6946 26.0117 10.9536 27.5114C11.0874 28.286 11.6716 28.6926 12.451 28.7953C14.133 29.0171 15.8505 29.4277 17.4283 29.9022C20.7208 28.3152 19.2284 22.5983 17.8053 19.273C17.5686 18.7199 17.4336 18.1284 17.4146 17.5271C17.3121 14.272 16.6335 12.7093 15.3133 11.0396C13.875 9.22068 8.96808 9.64369 7.52984 9.8975C6.37924 10.1005 3.2151 10.7435 1.77686 11.0396V13.0547C1.77686 13.3181 1.80515 13.5803 1.84281 13.841Z" fill="url(#paint1_linear_382_7725)"/>
<path d="M4.23038 28.9159H5.75791C6.766 28.9159 7.76754 28.757 8.77103 28.6608C9.58621 28.5827 10.4505 28.5865 11.337 28.6531C11.0663 28.4428 10.5474 24.0593 10.3218 21.8938C9.91568 19.0512 8.34771 17.7201 7.61448 17.4099C6.32852 16.8684 3.15874 17.1391 1.7769 17.3647C1.47471 18.6944 0.655316 19.5833 0.16209 19.9591C0.0641618 20.0337 0.000244141 20.1468 0.000244141 20.2699C0.000244141 20.4476 0.131689 20.6029 0.29103 20.6816C0.807857 20.9368 1.55422 21.5882 1.88726 21.9218C2.95051 23.1028 3.3284 26.7297 3.38435 28.4082C3.38435 28.8143 3.94837 28.9159 4.23038 28.9159Z" fill="url(#paint2_linear_382_7725)"/>
<path d="M22.6734 5.37389C23.2826 4.69707 24.1681 4.30226 24.5347 4.18945C22.7073 5.67846 22.0248 7.46076 21.912 8.16578V12.2267C21.6582 13.4111 21.7428 17.2183 22.1658 17.5567C22.5042 17.8274 22.9272 17.6695 23.0964 17.5567L26.0575 14.0034C27.2758 12.379 28.652 11.6909 29.1878 11.5499C26.8866 13.1743 24.5629 17.0209 23.6886 18.7411C21.5228 20.9069 20.7558 22.802 20.643 23.4789C20.3045 24.6971 20.643 25.7631 20.643 26.44C20.643 29.1301 22.9664 32.992 24.3152 34.8567C24.4564 35.0518 24.5347 35.2843 24.5347 35.5251C24.5347 35.7874 24.322 36 24.0597 36H14.7434C13.8119 36 13.3863 34.8384 14.0975 34.2367L14.2131 34.1388C15.7022 33.0559 14.8054 31.3469 14.2131 30.4163C13.4517 28.555 9.4472 28.6114 7.19113 28.8934C12.335 28.1489 15.5386 26.3271 16.4974 25.5093C20.643 20.0948 16.4128 18.4591 13.4517 18.3181C13.6773 18.1489 14.6023 17.8782 16.4974 18.1489C17.6187 18.3091 18.3608 19.2669 18.815 20.2794C19.1535 21.0339 20.0137 21.2079 20.2948 20.4302C20.4467 20.01 20.5685 19.6099 20.643 19.3333C21.049 16.9645 20.6994 13.6085 20.4737 12.2267C19.8646 9.9932 17.2588 7.8681 15.9052 7.19128C14.7208 6.59906 9.02418 6.72753 6.2605 6.98134C9.30619 5.83074 13.7337 6.05071 15.5668 6.30452C18.5448 6.91366 20.5301 9.82963 21.1506 11.2115C21.1506 10.5629 21.1844 9.0118 21.3198 7.99657C21.4551 6.98134 22.2786 5.8251 22.6734 5.37389Z" fill="#175C3B"/>
<defs>
<linearGradient id="paint0_linear_382_7725" x1="12.4368" y1="1.0368" x2="12.4368" y2="32.0014" gradientUnits="userSpaceOnUse">
<stop stop-color="#296849"/>
<stop offset="0.134" stop-color="#569174"/>
<stop offset="1" stop-color="#DEE8E3"/>
</linearGradient>
<linearGradient id="paint1_linear_382_7725" x1="10.5929" y1="9.66602" x2="10.5929" y2="29.9022" gradientUnits="userSpaceOnUse">
<stop stop-color="#578B71"/>
<stop offset="1" stop-color="#B3D6C4"/>
</linearGradient>
<linearGradient id="paint2_linear_382_7725" x1="1.8615" y1="17.0895" x2="11.0832" y2="28.2571" gradientUnits="userSpaceOnUse">
<stop stop-color="#93B7A6"/>
<stop offset="0.554" stop-color="#AED4C1"/>
<stop offset="1" stop-color="#DEE8E3"/>
</linearGradient>
</defs>
</svg>
