<svg width="450" height="300" viewBox="0 0 450 300" fill="none" xmlns="http://www.w3.org/2000/svg">
<path d="M407.76 156.84C395.4 135 380.1 114.96 362.46 97.32C343.38 78.24 324 65.34 298.92 57C281.94 51.36 264.24 48.12 246.48 47.52C213.42 46.38 186.18 54.3 159 74.16C129.9 95.46 102.72 119.52 74.4003 141.9C71.4603 144.24 68.4603 146.58 65.4603 148.86C16.0202 186.78 -8.03975 254.28 25.4403 270.72H410.34C410.34 270.72 445.38 268.86 436.74 231.24C430.68 204.9 420.84 179.88 407.76 156.84Z" fill="#92E3A9"/>
<g opacity="0.7" filter="url(#filter0_d_382_9451)">
<path d="M407.76 156.84C395.4 135 380.1 114.96 362.46 97.32C343.38 78.24 324 65.34 298.92 57C281.94 51.36 264.24 48.12 246.48 47.52C213.42 46.38 186.18 54.3 159 74.16C129.9 95.46 102.72 119.52 74.4003 141.9C71.4603 144.24 68.4603 146.58 65.4603 148.86C16.0202 186.78 -8.03975 254.28 25.4403 270.72H410.34C410.34 270.72 445.38 268.86 436.74 231.24C430.68 204.9 420.84 179.88 407.76 156.84Z" fill="white"/>
</g>
<path d="M12.0596 270.72H440.34" stroke="#263238" stroke-miterlimit="10" stroke-linecap="round" stroke-linejoin="round"/>
<g opacity="0.3">
<path d="M12.0596 199.2H440.34" stroke="black" stroke-miterlimit="10" stroke-linecap="round" stroke-linejoin="round"/>
<path d="M35.22 205.62H19.5V213.24H35.22V205.62Z" stroke="black" stroke-miterlimit="10" stroke-linecap="round" stroke-linejoin="round"/>
<path d="M50.76 205.62H35.04V213.24H50.76V205.62Z" stroke="black" stroke-miterlimit="10" stroke-linecap="round" stroke-linejoin="round"/>
<path d="M43.0804 215.04H27.3604V222.66H43.0804V215.04Z" stroke="black" stroke-miterlimit="10" stroke-linecap="round" stroke-linejoin="round"/>
<path d="M305.52 205.62H289.8V213.24H305.52V205.62Z" stroke="black" stroke-miterlimit="10" stroke-linecap="round" stroke-linejoin="round"/>
<path d="M321.06 205.62H305.34V213.24H321.06V205.62Z" stroke="black" stroke-miterlimit="10" stroke-linecap="round" stroke-linejoin="round"/>
<path d="M313.32 215.04H297.6V222.66H313.32V215.04Z" stroke="black" stroke-miterlimit="10" stroke-linecap="round" stroke-linejoin="round"/>
<path d="M84.5403 205.62H68.8203V213.24H84.5403V205.62Z" stroke="black" stroke-miterlimit="10" stroke-linecap="round" stroke-linejoin="round"/>
<path d="M100.08 205.62H84.3604V213.24H100.08V205.62Z" stroke="black" stroke-miterlimit="10" stroke-linecap="round" stroke-linejoin="round"/>
<path d="M92.4007 215.04H76.6807V222.66H92.4007V215.04Z" stroke="black" stroke-miterlimit="10" stroke-linecap="round" stroke-linejoin="round"/>
<path d="M129.42 215.04H113.7V222.66H129.42V215.04Z" stroke="black" stroke-miterlimit="10" stroke-linecap="round" stroke-linejoin="round"/>
<path d="M166.5 215.04H150.78V222.66H166.5V215.04Z" stroke="black" stroke-miterlimit="10" stroke-linecap="round" stroke-linejoin="round"/>
<path d="M203.58 215.04H187.86V222.66H203.58V215.04Z" stroke="black" stroke-miterlimit="10" stroke-linecap="round" stroke-linejoin="round"/>
<path d="M240.66 215.04H224.94V222.66H240.66V215.04Z" stroke="black" stroke-miterlimit="10" stroke-linecap="round" stroke-linejoin="round"/>
<path d="M95.9397 242.28H80.2197V249.9H95.9397V242.28Z" stroke="black" stroke-miterlimit="10" stroke-linecap="round" stroke-linejoin="round"/>
<path d="M111.48 242.28H95.7598V249.9H111.48V242.28Z" stroke="black" stroke-miterlimit="10" stroke-linecap="round" stroke-linejoin="round"/>
<path d="M103.8 251.7H88.0801V259.32H103.8V251.7Z" stroke="black" stroke-miterlimit="10" stroke-linecap="round" stroke-linejoin="round"/>
<path d="M140.88 251.7H125.16V259.32H140.88V251.7Z" stroke="black" stroke-miterlimit="10" stroke-linecap="round" stroke-linejoin="round"/>
<path d="M177.9 251.7H162.18V259.32H177.9V251.7Z" stroke="black" stroke-miterlimit="10" stroke-linecap="round" stroke-linejoin="round"/>
<path d="M214.98 251.7H199.26V259.32H214.98V251.7Z" stroke="black" stroke-miterlimit="10" stroke-linecap="round" stroke-linejoin="round"/>
<path d="M252.06 251.7H236.34V259.32H252.06V251.7Z" stroke="black" stroke-miterlimit="10" stroke-linecap="round" stroke-linejoin="round"/>
<path d="M35.22 232.8H19.5V240.42H35.22V232.8Z" stroke="black" stroke-miterlimit="10" stroke-linecap="round" stroke-linejoin="round"/>
<path d="M50.76 232.8H35.04V240.42H50.76V232.8Z" stroke="black" stroke-miterlimit="10" stroke-linecap="round" stroke-linejoin="round"/>
<path d="M43.0804 242.22H27.3604V249.84H43.0804V242.22Z" stroke="black" stroke-miterlimit="10" stroke-linecap="round" stroke-linejoin="round"/>
<path d="M121.44 232.8H105.72V240.42H121.44V232.8Z" stroke="black" stroke-miterlimit="10" stroke-linecap="round" stroke-linejoin="round"/>
<path d="M136.98 232.8H121.26V240.42H136.98V232.8Z" stroke="black" stroke-miterlimit="10" stroke-linecap="round" stroke-linejoin="round"/>
<path d="M129.3 242.22H113.58V249.84H129.3V242.22Z" stroke="black" stroke-miterlimit="10" stroke-linecap="round" stroke-linejoin="round"/>
<path d="M154.92 232.8H139.2V240.42H154.92V232.8Z" stroke="black" stroke-miterlimit="10" stroke-linecap="round" stroke-linejoin="round"/>
<path d="M170.46 232.8H154.74V240.42H170.46V232.8Z" stroke="black" stroke-miterlimit="10" stroke-linecap="round" stroke-linejoin="round"/>
<path d="M162.781 242.22H147.061V249.84H162.781V242.22Z" stroke="black" stroke-miterlimit="10" stroke-linecap="round" stroke-linejoin="round"/>
<path d="M224.52 232.8H208.8V240.42H224.52V232.8Z" stroke="black" stroke-miterlimit="10" stroke-linecap="round" stroke-linejoin="round"/>
<path d="M240.06 232.8H224.34V240.42H240.06V232.8Z" stroke="black" stroke-miterlimit="10" stroke-linecap="round" stroke-linejoin="round"/>
<path d="M232.38 242.22H216.66V249.84H232.38V242.22Z" stroke="black" stroke-miterlimit="10" stroke-linecap="round" stroke-linejoin="round"/>
<path d="M259.56 232.8H243.84V240.42H259.56V232.8Z" stroke="black" stroke-miterlimit="10" stroke-linecap="round" stroke-linejoin="round"/>
<path d="M275.1 232.8H259.38V240.42H275.1V232.8Z" stroke="black" stroke-miterlimit="10" stroke-linecap="round" stroke-linejoin="round"/>
<path d="M267.42 242.22H251.7V249.84H267.42V242.22Z" stroke="black" stroke-miterlimit="10" stroke-linecap="round" stroke-linejoin="round"/>
<path d="M305.58 232.8H289.86V240.42H305.58V232.8Z" stroke="black" stroke-miterlimit="10" stroke-linecap="round" stroke-linejoin="round"/>
<path d="M321.12 232.8H305.4V240.42H321.12V232.8Z" stroke="black" stroke-miterlimit="10" stroke-linecap="round" stroke-linejoin="round"/>
<path d="M313.441 242.22H297.721V249.84H313.441V242.22Z" stroke="black" stroke-miterlimit="10" stroke-linecap="round" stroke-linejoin="round"/>
<path d="M349.98 247.44H334.26V255.06H349.98V247.44Z" stroke="black" stroke-miterlimit="10" stroke-linecap="round" stroke-linejoin="round"/>
<path d="M365.52 247.44H349.8V255.06H365.52V247.44Z" stroke="black" stroke-miterlimit="10" stroke-linecap="round" stroke-linejoin="round"/>
<path d="M357.84 256.86H342.12V264.48H357.84V256.86Z" stroke="black" stroke-miterlimit="10" stroke-linecap="round" stroke-linejoin="round"/>
<path d="M374.04 221.4H358.32V229.02H374.04V221.4Z" stroke="black" stroke-miterlimit="10" stroke-linecap="round" stroke-linejoin="round"/>
<path d="M389.58 221.4H373.86V229.02H389.58V221.4Z" stroke="black" stroke-miterlimit="10" stroke-linecap="round" stroke-linejoin="round"/>
<path d="M381.901 230.82H366.181V238.44H381.901V230.82Z" stroke="black" stroke-miterlimit="10" stroke-linecap="round" stroke-linejoin="round"/>
<path d="M389.16 240.06H373.44V247.68H389.16V240.06Z" stroke="black" stroke-miterlimit="10" stroke-linecap="round" stroke-linejoin="round"/>
<path d="M404.76 240.06H389.04V247.68H404.76V240.06Z" stroke="black" stroke-miterlimit="10" stroke-linecap="round" stroke-linejoin="round"/>
<path d="M397.021 249.479H381.301V257.099H397.021V249.479Z" stroke="black" stroke-miterlimit="10" stroke-linecap="round" stroke-linejoin="round"/>
<path d="M428.82 231.18H413.1V238.8H428.82V231.18Z" stroke="black" stroke-miterlimit="10" stroke-linecap="round" stroke-linejoin="round"/>
</g>
<path d="M225.48 52.62H151.62V154.5H225.48V52.62Z" stroke="#263238" stroke-miterlimit="10" stroke-linecap="round" stroke-linejoin="round"/>
<path d="M161.521 154.68C161.521 154.68 191.581 152.7 196.261 125.58C200.941 98.5198 200.58 77.7598 206.94 69.0598C213.3 60.3598 222.96 63.0598 225 68.3998" stroke="#263238" stroke-miterlimit="10" stroke-linecap="round" stroke-linejoin="round"/>
<path d="M204.48 154.56C207.96 148.86 211.14 140.76 210.96 130.26C210.78 118.38 206.52 107.22 200.16 96.9C189.36 79.26 172.56 64.2 160.08 52.62" stroke="#263238" stroke-miterlimit="10" stroke-linecap="round" stroke-linejoin="round"/>
<path d="M151.62 74.1005C166.86 82.7405 180.6 95.4005 181.08 113.34C181.62 118.92 180.54 126.18 174.96 129C167.34 132.42 159.18 130.38 151.68 126.84" stroke="#263238" stroke-miterlimit="10" stroke-linecap="round" stroke-linejoin="round"/>
<path d="M181.44 52.62C184.5 59.64 190.62 71.94 194.94 69.06C198.78 66.48 201.78 58.26 203.46 52.62" stroke="#263238" stroke-miterlimit="10" stroke-linecap="round" stroke-linejoin="round"/>
<path d="M213.18 97.8605C216.792 97.8605 219.72 93.8848 219.72 88.9805C219.72 84.0762 216.792 80.1005 213.18 80.1005C209.568 80.1005 206.64 84.0762 206.64 88.9805C206.64 93.8848 209.568 97.8605 213.18 97.8605Z" stroke="#263238" stroke-miterlimit="10" stroke-linecap="round" stroke-linejoin="round"/>
<path d="M159.54 89.82C159.54 91.86 158.58 93.48 157.38 93.48C156.18 93.48 155.22 91.86 155.22 89.82C155.22 87.78 156.18 86.16 157.38 86.16C158.52 86.16 159.54 87.78 159.54 89.82Z" stroke="#263238" stroke-miterlimit="10" stroke-linecap="round" stroke-linejoin="round"/>
<path d="M189.42 117.54C191.541 117.54 193.26 114.397 193.26 110.52C193.26 106.643 191.541 103.5 189.42 103.5C187.299 103.5 185.58 106.643 185.58 110.52C185.58 114.397 187.299 117.54 189.42 117.54Z" stroke="#263238" stroke-miterlimit="10" stroke-linecap="round" stroke-linejoin="round"/>
<path d="M195.961 59.6999C195.961 61.7399 194.521 63.3599 192.781 63.3599C191.041 63.3599 189.601 61.7399 189.601 59.6999C189.601 57.6599 191.041 56.0399 192.781 56.0399C194.521 56.0399 195.961 57.7199 195.961 59.6999Z" stroke="#263238" stroke-miterlimit="10" stroke-linecap="round" stroke-linejoin="round"/>
<path d="M220.38 146.16C220.38 148.08 218.941 149.7 217.201 149.7C215.461 149.7 214.021 148.14 214.021 146.16C214.021 144.18 215.461 142.62 217.201 142.62C218.941 142.62 220.38 144.18 220.38 146.16Z" stroke="#263238" stroke-miterlimit="10" stroke-linecap="round" stroke-linejoin="round"/>
<path d="M226.969 154.566H300.829V52.6863L226.969 52.6863V154.566Z" stroke="#263238" stroke-miterlimit="10" stroke-linecap="round" stroke-linejoin="round"/>
<path d="M290.88 154.68C290.88 154.68 260.82 152.7 256.14 125.58C251.46 98.5198 251.82 77.7598 245.46 69.0598C239.1 60.3598 229.44 63.0598 227.4 68.3998" stroke="#263238" stroke-miterlimit="10" stroke-linecap="round" stroke-linejoin="round"/>
<path d="M247.92 154.56C244.44 148.86 241.26 140.76 241.44 130.26C241.62 118.38 245.88 107.22 252.24 96.9C263.04 79.26 279.84 64.2 292.32 52.62" stroke="#263238" stroke-miterlimit="10" stroke-linecap="round" stroke-linejoin="round"/>
<path d="M300.78 74.1005C285.54 82.7405 271.8 95.4005 271.32 113.34C270.78 118.92 271.86 126.18 277.44 129C285.06 132.42 293.22 130.38 300.72 126.84" stroke="#263238" stroke-miterlimit="10" stroke-linecap="round" stroke-linejoin="round"/>
<path d="M270.96 52.62C267.9 59.64 261.78 71.94 257.46 69.06C253.62 66.48 250.62 58.26 248.94 52.62" stroke="#263238" stroke-miterlimit="10" stroke-linecap="round" stroke-linejoin="round"/>
<path d="M239.221 97.8605C242.833 97.8605 245.761 93.8848 245.761 88.9805C245.761 84.0762 242.833 80.1005 239.221 80.1005C235.609 80.1005 232.681 84.0762 232.681 88.9805C232.681 93.8848 235.609 97.8605 239.221 97.8605Z" stroke="#263238" stroke-miterlimit="10" stroke-linecap="round" stroke-linejoin="round"/>
<path d="M292.92 89.82C292.92 91.86 293.88 93.48 295.08 93.48C296.28 93.48 297.24 91.86 297.24 89.82C297.24 87.78 296.28 86.16 295.08 86.16C293.88 86.16 292.92 87.78 292.92 89.82Z" stroke="#263238" stroke-miterlimit="10" stroke-linecap="round" stroke-linejoin="round"/>
<path d="M262.981 117.54C265.101 117.54 266.821 114.397 266.821 110.52C266.821 106.643 265.101 103.5 262.981 103.5C260.86 103.5 259.141 106.643 259.141 110.52C259.141 114.397 260.86 117.54 262.981 117.54Z" stroke="#263238" stroke-miterlimit="10" stroke-linecap="round" stroke-linejoin="round"/>
<path d="M256.44 59.6999C256.44 61.7399 257.88 63.3599 259.62 63.3599C261.36 63.3599 262.8 61.7399 262.8 59.6999C262.8 57.6599 261.36 56.0399 259.62 56.0399C257.88 56.0399 256.44 57.7199 256.44 59.6999Z" stroke="#263238" stroke-miterlimit="10" stroke-linecap="round" stroke-linejoin="round"/>
<path d="M232.08 146.16C232.08 148.08 233.52 149.7 235.26 149.7C237 149.7 238.44 148.14 238.44 146.16C238.44 144.18 237 142.62 235.26 142.62C233.52 142.62 232.08 144.18 232.08 146.16Z" stroke="#263238" stroke-miterlimit="10" stroke-linecap="round" stroke-linejoin="round"/>
<path d="M436.8 202.98L433.38 204.54L439.56 194.82C439.68 194.22 439.74 193.56 439.86 192.96L440.1 184.86C440.1 184.86 436.5 188.28 436.02 188.46C435.6 188.58 438.54 177.36 439.32 174.54C439.08 172.5 438.84 170.34 438.54 168.12L434.04 170.46L437.46 165.12L436.2 154.32L433.86 155.34L435.54 150.12C434.82 146.4 433.98 142.68 433.08 139.2L430.86 133.92L429.78 138.54L429.66 127.56C427.08 120.42 424.14 115.62 421.02 115.62C417.3 115.62 413.76 122.58 410.82 132.24L410.76 138.48L409.98 135.18C408.48 140.64 407.1 146.76 405.96 152.94L406.74 155.28L405.66 154.8C404.94 158.64 404.34 162.48 403.86 166.08L406.62 170.34L403.5 168.72C403.02 172.26 402.66 175.62 402.42 178.56C403.5 182.82 404.88 188.34 404.58 188.28C404.28 188.22 403.02 187.02 401.94 186.06C401.94 186.48 401.94 186.84 401.94 187.2C401.94 191.16 402.48 194.88 403.38 198.3L407.28 204.36L405.18 203.4C408.6 211.26 414.48 216.42 421.14 216.42C427.86 216.42 433.8 211.14 437.22 203.1L436.8 202.98Z" fill="#92E3A9"/>
<path d="M431.761 187.74L425.941 189.9L427.081 186.36L424.321 190.5L421.561 191.52L421.381 180L431.461 166.62L426.061 172.02L426.961 168.24L424.381 173.7L421.321 176.76L421.021 158.82L419.881 184.98L410.341 174.84L415.561 181.98L410.641 181.44L416.761 183.6L419.761 187.68L419.221 200.34L415.741 197.94L419.161 202.92L417.541 241.5H422.401L421.561 193.32L431.761 187.74Z" fill="#263238"/>
<path d="M431.521 158.88C431.521 158.88 431.701 160.62 430.741 161.94C429.781 163.26 428.041 163.56 428.041 163.56C428.041 163.56 427.861 161.82 428.821 160.5C429.781 159.24 431.521 158.88 431.521 158.88Z" fill="white"/>
<path d="M437.341 166.979C437.341 166.979 437.521 168.719 436.561 170.039C435.601 171.359 433.861 171.66 433.861 171.66C433.861 171.66 433.681 169.919 434.641 168.599C435.601 167.279 437.341 166.979 437.341 166.979Z" fill="white"/>
<path d="M437.341 182.82C437.341 182.82 436.921 184.56 435.601 185.46C434.281 186.36 432.481 186.06 432.481 186.06C432.481 186.06 432.901 184.32 434.221 183.42C435.601 182.58 437.341 182.82 437.341 182.82Z" fill="white"/>
<path d="M405.541 182.82C405.541 182.82 405.961 184.56 407.281 185.46C408.601 186.36 410.401 186.06 410.401 186.06C410.401 186.06 409.981 184.32 408.661 183.42C407.341 182.58 405.541 182.82 405.541 182.82Z" fill="white"/>
<path d="M430.62 176.279C430.62 176.279 430.8 178.019 429.84 179.339C428.88 180.659 427.14 180.959 427.14 180.959C427.14 180.959 426.96 179.219 427.92 177.899C428.88 176.579 430.62 176.279 430.62 176.279Z" fill="white"/>
<path d="M429.181 150.06C429.181 150.06 429.361 151.8 428.401 153.12C427.441 154.44 425.701 154.74 425.701 154.74C425.701 154.74 425.521 153 426.481 151.68C427.441 150.36 429.181 150.06 429.181 150.06Z" fill="white"/>
<path d="M425.7 156.779C425.7 156.779 425.88 158.519 424.92 159.839C423.96 161.159 422.22 161.459 422.22 161.459C422.22 161.459 422.04 159.719 423 158.399C423.96 157.139 425.7 156.779 425.7 156.779Z" fill="white"/>
<path d="M433.861 151.859C433.861 151.859 434.041 153.599 433.081 154.919C432.121 156.239 430.381 156.539 430.381 156.539C430.381 156.539 430.201 154.799 431.161 153.479C432.121 152.219 433.861 151.859 433.861 151.859Z" fill="white"/>
<path d="M407.281 151.859C407.281 151.859 407.101 153.599 408.061 154.919C409.021 156.239 410.761 156.539 410.761 156.539C410.761 156.539 410.941 154.799 409.981 153.479C409.021 152.219 407.281 151.859 407.281 151.859Z" fill="white"/>
<path d="M429.901 141.779C429.901 141.779 430.081 143.519 429.121 144.839C428.161 146.159 426.421 146.459 426.421 146.459C426.421 146.459 426.241 144.719 427.201 143.399C428.161 142.139 429.901 141.779 429.901 141.779Z" fill="white"/>
<path d="M428.221 133.02C428.221 133.02 428.821 134.7 428.221 136.2C427.621 137.7 426.001 138.48 426.001 138.48C426.001 138.48 425.401 136.8 426.001 135.3C426.601 133.8 428.221 133.02 428.221 133.02Z" fill="white"/>
<path d="M416.101 130.739C416.101 130.739 417.661 131.579 418.201 133.079C418.741 134.579 418.081 136.259 418.081 136.259C418.081 136.259 416.521 135.419 415.981 133.919C415.381 132.419 416.101 130.739 416.101 130.739Z" fill="white"/>
<path d="M421.74 141.239C421.74 141.239 422.88 142.619 422.76 144.239C422.64 145.859 421.38 147.059 421.38 147.059C421.38 147.059 420.24 145.679 420.36 144.059C420.48 142.439 421.74 141.239 421.74 141.239Z" fill="white"/>
<path d="M421.441 125.64C421.441 125.64 422.581 127.02 422.461 128.64C422.341 130.26 421.081 131.46 421.081 131.46C421.081 131.46 419.941 130.08 420.061 128.46C420.181 126.9 421.441 125.64 421.441 125.64Z" fill="white"/>
<path d="M408.721 158.88C408.721 158.88 408.541 160.62 409.501 161.94C410.461 163.26 412.201 163.56 412.201 163.56C412.201 163.56 412.381 161.82 411.421 160.5C410.461 159.24 408.721 158.88 408.721 158.88Z" fill="white"/>
<path d="M405.421 168.48C405.421 168.48 405.241 170.22 406.201 171.54C407.161 172.86 408.901 173.16 408.901 173.16C408.901 173.16 409.081 171.42 408.121 170.1C407.161 168.78 405.421 168.48 405.421 168.48Z" fill="white"/>
<path d="M414.18 171.96C414.18 171.96 414 173.7 414.96 175.02C415.92 176.34 417.66 176.64 417.66 176.64C417.66 176.64 417.84 174.9 416.88 173.58C415.92 172.26 414.18 171.96 414.18 171.96Z" fill="white"/>
<path d="M416.581 158.64C416.581 158.64 415.921 160.26 416.461 161.82C417.001 163.32 418.561 164.16 418.561 164.16C418.561 164.16 419.221 162.54 418.681 160.98C418.141 159.48 416.581 158.64 416.581 158.64Z" fill="white"/>
<path d="M410.4 193.979C410.4 193.979 412.2 194.039 413.4 192.959C414.6 191.879 414.78 190.139 414.78 190.139C414.78 190.139 412.98 190.079 411.78 191.159C410.58 192.239 410.4 193.979 410.4 193.979Z" fill="white"/>
<path d="M427.381 192.06C427.381 192.06 427.861 193.74 429.241 194.64C430.621 195.48 432.361 195.18 432.361 195.18C432.361 195.18 431.881 193.5 430.501 192.6C429.121 191.76 427.381 192.06 427.381 192.06Z" fill="white"/>
<path d="M412.381 150.06C412.381 150.06 412.201 151.8 413.161 153.12C414.121 154.44 415.861 154.74 415.861 154.74C415.861 154.74 416.041 153 415.081 151.68C414.121 150.36 412.381 150.06 412.381 150.06Z" fill="white"/>
<path d="M412.321 142.26C412.321 142.26 412.141 144 413.101 145.32C414.061 146.64 415.801 146.94 415.801 146.94C415.801 146.94 415.981 145.2 415.021 143.88C414.061 142.56 412.321 142.26 412.321 142.26Z" fill="white"/>
<path d="M430.38 230.28H410.16V270.42H430.38V230.28Z" fill="#263238"/>
<path d="M376.2 215.58L384.12 269.58C384.24 270.18 383.76 270.78 383.1 270.78C382.62 270.78 382.2 270.42 382.08 269.94L370.8 215.58H376.2Z" fill="white" stroke="#263238" stroke-miterlimit="10" stroke-linecap="round" stroke-linejoin="round"/>
<path d="M355.14 215.58L347.22 269.58C347.1 270.18 347.58 270.78 348.24 270.78C348.72 270.78 349.14 270.42 349.26 269.94L360.54 215.58H355.14Z" fill="white" stroke="#263238" stroke-miterlimit="10" stroke-linecap="round" stroke-linejoin="round"/>
<path d="M393.66 213.54C393.66 213.54 394.08 198.54 404.88 168.66C408.36 159.06 396.18 153.06 385.62 155.22C377.4 156.9 372.9 165.3 372.66 173.7C372.66 174.3 372.6 174.96 372.6 175.62C372.36 182.58 376.2 212.4 376.2 212.4" stroke="#263238" stroke-width="2" stroke-miterlimit="10" stroke-linecap="round" stroke-linejoin="round"/>
<path d="M390.54 213.78C390.54 213.78 392.76 199.68 395.22 188.46C397.68 177.24 401.04 169.38 398.58 163.14C396.12 156.84 390.3 155.94 386.22 156.84C382.2 157.74 376.8 163.56 376.56 172.32C376.32 181.08 378.36 192.3 378.36 198.12C378.36 203.94 378.9 213.54 378.9 213.54" stroke="#263238" stroke-width="2" stroke-miterlimit="10" stroke-linecap="round" stroke-linejoin="round"/>
<path d="M399.059 215.58L406.979 269.58C407.099 270.18 406.619 270.78 405.959 270.78C405.479 270.78 405.059 270.42 404.939 269.94L393.659 215.58H399.059Z" fill="white" stroke="#263238" stroke-miterlimit="10" stroke-linecap="round" stroke-linejoin="round"/>
<path d="M378.06 215.58L370.14 269.58C370.02 270.18 370.5 270.78 371.16 270.78C371.64 270.78 372.06 270.42 372.18 269.94L383.46 215.58H378.06Z" fill="white" stroke="#263238" stroke-miterlimit="10" stroke-linecap="round" stroke-linejoin="round"/>
<path d="M352.641 216.905H401.301V212.225H352.641V216.905Z" fill="white" stroke="#263238" stroke-miterlimit="10" stroke-linecap="round" stroke-linejoin="round"/>
<path d="M325.56 202.261C325.56 202.261 320.4 204.781 320.4 206.341C320.4 207.901 319.32 210.421 319.92 211.981C320.52 213.541 337.8 253.861 337.8 253.861C337.8 253.861 337.38 255.241 337.56 255.901C337.74 256.501 338.88 258.901 338.88 258.901C338.88 258.901 335.76 264.001 333.6 264.781C331.44 265.561 325.92 268.381 326.7 269.461C327.48 270.541 333.24 270.421 333.9 270.421C334.5 270.421 343.92 268.081 343.92 268.081L350.04 261.181C350.04 261.181 353.64 258.841 353.64 256.681C353.64 254.521 349.56 246.361 349.44 245.881C349.26 245.401 331.56 203.881 331.56 203.881L325.56 202.261Z" fill="#92E3A9" stroke="#263238" stroke-miterlimit="10" stroke-linecap="round" stroke-linejoin="round"/>
<path d="M353.159 254.641L338.94 258.841C338.94 258.841 335.819 263.941 333.659 264.721C331.499 265.501 325.979 268.321 326.759 269.401C327.539 270.481 333.299 270.361 333.959 270.361C334.619 270.361 343.979 268.021 343.979 268.021L350.099 261.121C350.099 261.121 353.699 258.781 353.699 256.621C353.579 256.201 353.399 255.481 353.159 254.641Z" fill="white" stroke="#263238" stroke-miterlimit="10" stroke-linecap="round" stroke-linejoin="round"/>
<path d="M341.28 258.66C341.28 258.66 338.64 262.86 337.98 263.34C337.38 263.82 331.56 267.84 330.66 268.5C329.7 269.1 330.48 270.06 331.14 270.36C331.74 270.66 342.36 270.54 343.5 270.18C344.58 269.88 351.6 267.06 351.6 267.06C351.6 267.06 357.84 266.1 358.32 263.46C358.8 260.82 356.94 256.74 356.94 256.74L341.28 258.66Z" fill="white" stroke="#263238" stroke-miterlimit="10" stroke-linecap="round" stroke-linejoin="round"/>
<path d="M355.14 261.96C352.5 264.9 346.08 267.24 343.92 268.08C342.3 268.68 334.26 268.8 330.36 268.86C329.94 269.46 330.6 270.18 331.14 270.42C331.74 270.72 342.36 270.6 343.5 270.24C344.58 269.94 351.6 267.12 351.6 267.12C351.6 267.12 357.84 266.16 358.32 263.52C358.5 262.38 358.26 260.94 357.96 259.74C356.94 260.28 355.98 261.06 355.14 261.96Z" fill="white" stroke="#263238" stroke-miterlimit="10" stroke-linecap="round" stroke-linejoin="round"/>
<path d="M371.64 192.12C371.64 192.12 327.3 201 325.56 202.26C323.82 203.52 323.52 209.28 323.52 211.14C323.52 213 341.7 253.98 341.7 253.98L341.88 256.92L341.28 258.66C341.28 258.66 344.7 258.84 347.04 258.84C349.38 258.84 356.88 256.8 356.88 256.8C356.88 256.8 353.58 252.6 352.8 251.16C352.02 249.78 340.5 212.58 340.5 212.58H379.56C379.56 212.58 385.5 211.98 387.54 210.54C389.58 209.16 390.96 208.38 391.26 205.86C391.56 203.34 391.74 200.88 391.74 200.88L371.64 192.12Z" fill="#92E3A9" stroke="#263238" stroke-miterlimit="10" stroke-linecap="round" stroke-linejoin="round"/>
<path d="M357.6 145.8L357.84 163.14C357.84 163.14 355.32 169.02 355.26 169.98C355.14 170.94 352.08 181.26 352.08 181.26C352.08 181.26 353.04 179.22 356.34 180.54C359.64 181.86 360.72 182.34 360.72 182.34C360.72 182.34 360.72 169.98 360.72 168.72C360.72 167.4 359.64 146.94 359.64 146.94L357.6 145.8Z" fill="#787878" stroke="#263238" stroke-miterlimit="10" stroke-linecap="round" stroke-linejoin="round"/>
<path d="M350.46 183C350.46 183 352.98 182.16 354.36 182.16C355.74 182.16 360.9 185.82 360.9 185.82C360.9 185.82 361.14 182.16 360.78 180.96C360.42 179.76 357 178.26 355.08 178.26C353.16 178.26 351.66 179.34 351.66 179.34L350.46 183Z" fill="#BABABA" stroke="#263238" stroke-miterlimit="10" stroke-linecap="round" stroke-linejoin="round"/>
<path d="M360.899 185.821C360.899 185.821 364.919 188.401 365.999 188.521C367.079 188.641 371.459 187.321 371.459 187.321L370.259 139.681L362.879 140.881L360.899 185.821Z" fill="white" stroke="#263238" stroke-miterlimit="10" stroke-linecap="round" stroke-linejoin="round"/>
<path d="M364.02 145.02C364.02 145.02 363.42 166.62 363.18 172.92C362.94 179.22 361.74 183.96 360.9 185.82C360.06 187.74 359.7 188.88 359.7 188.88L360.42 176.76C360.42 176.76 357.6 146.58 357.6 145.74C357.6 144.9 363.9 137.58 363.9 137.58L364.02 145.02Z" fill="#787878" stroke="#263238" stroke-miterlimit="10" stroke-linecap="round" stroke-linejoin="round"/>
<path d="M367.62 144.3C367.62 144.3 366.72 184.86 366.84 186.54C366.96 188.22 373.38 205.68 373.38 205.68C373.38 205.68 386.64 205.92 388.8 204.78C390.96 203.64 392.4 202.44 392.4 202.44C392.4 202.44 392.52 188.28 392.64 187.38C392.76 186.48 394.98 164.04 394.98 159.3C394.98 154.56 396.54 150.3 394.98 146.7C393.42 143.1 377.1 131.76 376.74 131.64C376.44 131.52 367.62 144.3 367.62 144.3Z" fill="#787878" stroke="#263238" stroke-miterlimit="10" stroke-linecap="round" stroke-linejoin="round"/>
<path d="M363.479 138.36L360.779 146.58L364.019 145.02L365.039 137.88L363.479 138.36Z" fill="#BABABA" stroke="#263238" stroke-miterlimit="10" stroke-linecap="round" stroke-linejoin="round"/>
<path d="M353.879 107.88C353.879 107.88 351.18 114.54 351.54 116.76C351.9 119.04 352.199 120.36 352.079 120.9C351.959 121.44 349.799 124.14 349.379 124.5C348.899 124.86 349.379 125.4 349.859 125.94C350.339 126.48 351.299 126.84 351.659 126.96C352.019 127.08 352.2 130.02 352.44 130.44C352.68 130.92 353.879 134.16 353.879 134.16C353.879 134.16 355.139 136.2 356.159 136.2C357.179 136.2 360.12 135.18 360.12 135.18L365.52 143.04C365.52 143.04 367.439 143.16 368.759 141.66C370.139 140.22 375.059 130.86 375.059 130.86L373.14 127.26C373.14 127.26 378.119 119.7 377.879 116.34C377.639 112.98 374.4 106.98 370.44 105.54C366.48 104.1 360.06 102.84 356.94 104.52C353.82 106.26 352.919 105.72 353.879 107.88Z" fill="#C2C2C2" stroke="#263238" stroke-miterlimit="10" stroke-linecap="round" stroke-linejoin="round"/>
<path d="M370.439 105.6C366.479 104.16 360.059 102.9 356.939 104.58C353.759 106.26 352.859 105.72 353.879 107.82C353.879 107.82 354.899 108.36 356.219 108.48C357.599 108.6 358.919 107.58 361.619 108.36C364.319 109.14 364.439 109.74 364.439 109.74C364.439 109.74 361.739 113.7 362.099 115.02C362.459 116.4 364.139 119.16 364.139 119.16C364.139 119.16 363.239 121.44 363.899 121.86C364.559 122.34 365.039 122.22 365.279 121.74C365.519 121.26 366.839 119.4 367.619 120.06C368.399 120.72 370.079 122.64 369.959 124.2C369.839 125.76 367.799 127.44 367.799 127.44C367.799 127.44 368.459 127.8 369.179 128.22C369.899 128.64 373.139 127.2 373.139 127.2C373.139 127.2 378.119 119.64 377.879 116.28C377.639 113.04 374.399 107.04 370.439 105.6Z" fill="#263238" stroke="#263238" stroke-miterlimit="10" stroke-linecap="round" stroke-linejoin="round"/>
<path d="M360.119 135.18L364.019 133.5L361.559 137.58L360.119 135.18Z" fill="#263238" stroke="#263238" stroke-miterlimit="10" stroke-linecap="round" stroke-linejoin="round"/>
<path d="M353.34 117C353.34 117 355.14 115.62 356.82 116.88" stroke="#263238" stroke-miterlimit="10" stroke-linecap="round" stroke-linejoin="round"/>
<path d="M353.34 129.36C353.34 129.36 354.36 129.48 356.04 127.8" stroke="#263238" stroke-miterlimit="10" stroke-linecap="round" stroke-linejoin="round"/>
<path d="M355.799 120.481C355.799 121.141 355.5 121.741 355.14 121.741C354.78 121.741 354.479 121.201 354.479 120.481C354.479 119.821 354.78 119.221 355.14 119.221C355.5 119.221 355.799 119.761 355.799 120.481Z" fill="#263238"/>
<path d="M374.52 129.601L365.64 144.301L369.12 147.601L377.88 131.821L374.52 129.601Z" fill="#BABABA" stroke="#263238" stroke-miterlimit="10" stroke-linecap="round" stroke-linejoin="round"/>
<path d="M351.54 182.52L341.82 192.12L337.56 192.96L334.02 193.44L333.42 195.84C333.42 195.84 331.02 198.66 330.9 199.38C330.78 200.1 331.5 200.7 331.5 200.7L356.16 191.94L360.9 185.88C360.9 185.88 359.1 182.7 357.48 182.22C355.8 181.68 351.54 182.52 351.54 182.52Z" fill="#C2C2C2" stroke="#263238" stroke-miterlimit="10" stroke-linecap="round" stroke-linejoin="round"/>
<path d="M368.76 184.141L345.54 192.781C345.54 192.781 340.92 192.301 339.96 191.941C339 191.581 338.16 192.421 337.56 192.901C336.96 193.381 335.64 194.101 335.88 194.581L336.48 194.701C336.48 194.701 333.42 197.221 332.94 197.761C332.46 198.361 333.9 199.681 333.9 199.681L348 197.281L371.46 193.381L368.76 184.141Z" fill="#C2C2C2" stroke="#263238" stroke-miterlimit="10" stroke-linecap="round" stroke-linejoin="round"/>
<path d="M375.24 158.46V180.36L373.8 180.72L373.56 181.56L370.86 182.28L374.64 192.72C374.64 192.72 379.38 190.92 380.58 190.68C381.78 190.44 386.28 187.86 387 186.54C387.72 185.22 387.96 183.84 388.08 181.92C388.2 180 392.58 152.7 392.58 152.7" fill="#787878"/>
<path d="M375.24 158.46V180.36L373.8 180.72L373.56 181.56L370.86 182.28L374.64 192.72C374.64 192.72 379.38 190.92 380.58 190.68C381.78 190.44 386.28 187.86 387 186.54C387.72 185.22 387.96 183.84 388.08 181.92C388.2 180 392.58 152.7 392.58 152.7" stroke="#263238" stroke-miterlimit="10" stroke-linecap="round" stroke-linejoin="round"/>
<path d="M376.199 180.96C376.199 180.96 385.559 182.88 385.679 183.66C385.799 184.5 381.299 183.42 381.299 183.42" stroke="#263238" stroke-miterlimit="10" stroke-linecap="round" stroke-linejoin="round"/>
<path d="M375.119 165.6L372.659 158.82" stroke="#263238" stroke-miterlimit="10" stroke-linecap="round" stroke-linejoin="round"/>
<path d="M373.62 181.561L377.16 191.761C377.16 191.761 377.4 192.721 376.68 192.961C375.96 193.201 372.78 194.041 372.42 194.161C372.06 194.281 370.14 190.981 369.24 187.501C368.28 184.081 367.8 183.481 368.16 183.001C368.52 182.521 373.62 181.561 373.62 181.561Z" fill="#BABABA" stroke="#263238" stroke-miterlimit="10" stroke-linecap="round" stroke-linejoin="round"/>
<path d="M375.6 182.16C375.6 182.16 381.06 184.44 381.66 186.78" stroke="#263238" stroke-miterlimit="10" stroke-linecap="round" stroke-linejoin="round"/>
<path d="M334.68 207.12C337.38 208.62 340.56 212.58 340.56 212.58L337.92 205.38" stroke="#263238" stroke-miterlimit="10" stroke-linecap="round" stroke-linejoin="round"/>
<path d="M280.199 215.58L288.119 269.58C288.239 270.18 287.759 270.78 287.099 270.78C286.619 270.78 286.199 270.42 286.079 269.94L274.799 215.58H280.199Z" fill="white" stroke="#263238" stroke-miterlimit="10" stroke-linecap="round" stroke-linejoin="round"/>
<path d="M259.199 215.58L251.279 269.58C251.159 270.18 251.639 270.78 252.299 270.78C252.779 270.78 253.199 270.42 253.319 269.94L264.599 215.58H259.199Z" fill="white" stroke="#263238" stroke-miterlimit="10" stroke-linecap="round" stroke-linejoin="round"/>
<path d="M297.719 213.54C297.719 213.54 298.139 198.54 308.939 168.66C312.419 159.06 300.239 153.06 289.679 155.22C281.459 156.9 276.959 165.3 276.719 173.7C276.719 174.3 276.659 174.96 276.659 175.62C276.419 182.58 280.259 212.4 280.259 212.4" stroke="#263238" stroke-width="2" stroke-miterlimit="10" stroke-linecap="round" stroke-linejoin="round"/>
<path d="M294.599 213.78C294.599 213.78 296.819 199.68 299.279 188.46C301.739 177.24 305.099 169.38 302.639 163.14C300.179 156.84 294.359 155.94 290.279 156.84C286.259 157.74 280.859 163.56 280.619 172.32C280.379 181.08 282.419 192.3 282.419 198.12C282.419 203.94 282.959 213.54 282.959 213.54" stroke="#263238" stroke-width="2" stroke-miterlimit="10" stroke-linecap="round" stroke-linejoin="round"/>
<path d="M303.119 215.58L311.039 269.58C311.159 270.18 310.679 270.78 310.019 270.78C309.539 270.78 309.119 270.42 308.999 269.94L297.719 215.58H303.119Z" fill="white" stroke="#263238" stroke-miterlimit="10" stroke-linecap="round" stroke-linejoin="round"/>
<path d="M282.06 215.58L274.14 269.58C274.02 270.18 274.5 270.78 275.16 270.78C275.64 270.78 276.06 270.42 276.18 269.94L287.46 215.58H282.06Z" fill="white" stroke="#263238" stroke-miterlimit="10" stroke-linecap="round" stroke-linejoin="round"/>
<path d="M256.657 216.905H305.317V212.225H256.657V216.905Z" fill="white" stroke="#263238" stroke-miterlimit="10" stroke-linecap="round" stroke-linejoin="round"/>
<path d="M283.859 113.64C283.859 113.64 280.379 109.26 275.879 108.18C271.379 107.1 263.039 108.3 260.519 109.62C257.999 110.94 257.399 113.34 258.479 115.44C259.559 117.6 261.359 124.38 260.879 125.46C260.399 126.54 257.759 129.96 258.359 131.76C258.959 133.56 261.359 135.12 259.559 136.98C257.759 138.9 256.679 139.26 257.399 141.24C258.119 143.28 260.519 145.08 260.519 145.08C260.519 145.08 272.519 141.24 277.199 141.84C281.819 142.44 292.319 145.98 292.319 145.98C292.319 145.98 289.799 141.36 287.579 138.72C285.299 136.08 288.059 134.46 287.339 132.42C286.619 130.38 284.339 127.68 284.339 125.76C284.339 123.84 285.179 122.04 285.059 119.94C284.939 117.84 283.859 113.64 283.859 113.64Z" fill="#263238" stroke="#263238" stroke-miterlimit="10" stroke-linecap="round" stroke-linejoin="round"/>
<path d="M258.72 191.881C258.72 191.881 245.94 192.241 240.12 193.801C234.3 195.361 233.4 201.241 233.94 202.981C234.48 204.721 250.74 248.521 250.74 248.521L255.9 241.501L254.16 212.281H264.3L268.2 196.081C268.14 196.021 264.36 191.101 258.72 191.881Z" fill="#C2C2C2" stroke="#263238" stroke-miterlimit="10" stroke-linecap="round" stroke-linejoin="round"/>
<path d="M246.12 204.001C246.12 204.001 250.74 207.061 252.48 209.641" stroke="#263238" stroke-miterlimit="10" stroke-linecap="round" stroke-linejoin="round"/>
<path d="M299.82 193.921C299.82 193.921 300.78 200.041 300.42 203.521C300.06 206.941 295.98 211.381 294.24 212.281C292.5 213.121 288.06 212.641 287.58 212.641C287.04 212.641 267.84 212.641 267.84 212.641C267.84 212.641 262.68 227.881 261.18 230.821C259.62 233.761 250.74 253.021 250.74 253.021C250.74 253.021 249.36 253.861 247.14 252.481C244.92 251.101 243.54 248.881 243.54 248.881C243.54 248.881 250.92 215.701 251.1 215.161C251.28 214.621 253.5 198.001 255.54 197.521C257.58 196.981 272.88 194.761 280.08 194.581C287.28 194.401 299.82 193.921 299.82 193.921Z" fill="#C2C2C2" stroke="#263238" stroke-miterlimit="10" stroke-linecap="round" stroke-linejoin="round"/>
<path d="M269.401 205.561C269.221 208.621 268.021 211.201 268.021 211.201" stroke="#263238" stroke-miterlimit="10" stroke-linecap="round" stroke-linejoin="round"/>
<path d="M270.96 203.461C270.96 203.461 271.32 205.021 270.3 208.261" stroke="#263238" stroke-miterlimit="10" stroke-linecap="round" stroke-linejoin="round"/>
<path d="M264.24 142.56C264.24 142.56 256.62 144.84 255.78 147.18C254.94 149.58 255.66 165.9 255.42 166.8C255.18 167.76 253.02 175.14 252.18 177.78C251.34 180.42 251.34 180.42 251.34 180.42C251.34 180.42 250.02 179.7 250.38 181.74C250.74 183.78 250.74 185.1 251.1 185.34C251.46 185.58 252.78 184.38 253.5 183.9C254.22 183.42 258.6 183.42 258.6 183.42C258.6 183.42 258.12 186.66 258.48 188.16C258.84 189.72 259.2 190.2 261.24 190.92C263.28 191.64 285.9 195.3 290.76 194.94C295.62 194.58 298.74 195.18 299.82 193.86C300.9 192.54 301.86 190.74 301.5 188.28C301.14 185.76 298.86 178.98 298.86 178.98C298.86 178.98 296.7 168.96 296.7 167.88C296.7 166.8 297.42 149.88 297.18 147.9C296.94 145.86 293.82 143.16 292.68 142.56C291.48 141.96 285.3 141.6 285.3 141.6L268.14 142.68L264.24 142.56Z" fill="#92E3A9" stroke="#263238" stroke-miterlimit="10" stroke-linecap="round" stroke-linejoin="round"/>
<path d="M262.56 113.4C262.56 113.4 259.68 117.78 259.68 119.82C259.68 121.86 260.4 122.34 259.92 124.08C259.44 125.88 257.52 126.6 258.12 127.44C258.72 128.28 260.28 128.64 260.28 128.64C260.28 128.64 261.6 132.9 261.96 134.34C262.32 135.78 263.16 136.74 264 136.5C264.84 136.26 267.24 135.3 267.24 135.3L268.2 140.76L264.3 142.56C264.3 142.56 265.86 151.26 267.18 154.26C268.5 157.26 271.08 157.62 273.6 155.22C276.12 152.82 285.3 143.64 285.3 143.64L274.56 139.62L272.88 122.46C272.82 122.46 265.44 118.5 262.56 113.4Z" fill="white" stroke="#263238" stroke-miterlimit="10" stroke-linecap="round" stroke-linejoin="round"/>
<path d="M263.4 123.181C263.4 123.781 263.16 124.261 262.8 124.261C262.5 124.261 262.2 123.781 262.2 123.181C262.2 122.581 262.44 122.101 262.8 122.101C263.16 122.101 263.4 122.581 263.4 123.181Z" fill="#263238"/>
<path d="M262.08 129.48C262.08 129.48 264.12 129.72 265.44 128.28" stroke="#263238" stroke-miterlimit="10" stroke-linecap="round" stroke-linejoin="round"/>
<path d="M261.599 120.901C261.599 120.901 262.439 119.101 264.119 120.661" stroke="#263238" stroke-miterlimit="10" stroke-linecap="round" stroke-linejoin="round"/>
<path d="M267.24 135.3L269.58 134.46L267.78 137.82L267.24 135.3Z" fill="#263238" stroke="#263238" stroke-miterlimit="10" stroke-linecap="round" stroke-linejoin="round"/>
<path d="M271.98 116.76C271.98 116.76 273.9 119.88 271.38 124.14C268.86 128.4 268.5 131.16 270.06 132.36C271.62 133.56 272.58 134.16 272.1 135.96C271.62 137.76 269.82 137.88 270.3 140.22C270.78 142.62 273.54 141.9 273.18 144.24C272.82 146.64 271.14 146.52 270.9 148.38C270.66 150.3 273.42 157.44 278.04 153.24C282.66 149.1 284.7 145.14 286.26 144.06C287.82 142.98 290.1 142.38 290.64 142.38C291.24 142.38 292.68 142.5 292.68 142.5C292.68 142.5 292.8 140.7 291.96 139.62C291.12 138.54 289.8 138.78 289.56 137.58C289.32 136.38 292.08 135.54 291.84 133.86C291.6 132.18 288.72 130.14 288.36 128.04C288 125.88 289.32 125.4 289.08 123.54C288.84 121.62 288.6 121.98 287.64 121.14C286.68 120.3 286.92 116.64 284.64 114.24C282.36 111.84 280.26 110.64 278.7 110.4" fill="#263238"/>
<path d="M271.98 116.76C271.98 116.76 273.9 119.88 271.38 124.14C268.86 128.4 268.5 131.16 270.06 132.36C271.62 133.56 272.58 134.16 272.1 135.96C271.62 137.76 269.82 137.88 270.3 140.22C270.78 142.62 273.54 141.9 273.18 144.24C272.82 146.64 271.14 146.52 270.9 148.38C270.66 150.3 273.42 157.44 278.04 153.24C282.66 149.1 284.7 145.14 286.26 144.06C287.82 142.98 290.1 142.38 290.64 142.38C291.24 142.38 292.68 142.5 292.68 142.5C292.68 142.5 292.8 140.7 291.96 139.62C291.12 138.54 289.8 138.78 289.56 137.58C289.32 136.38 292.08 135.54 291.84 133.86C291.6 132.18 288.72 130.14 288.36 128.04C288 125.88 289.32 125.4 289.08 123.54C288.84 121.62 288.6 121.98 287.64 121.14C286.68 120.3 286.92 116.64 284.64 114.24C282.36 111.84 280.26 110.64 278.7 110.4" stroke="#263238" stroke-miterlimit="10" stroke-linecap="round" stroke-linejoin="round"/>
<path d="M289.14 174.24C289.14 174.24 291.3 174.12 294.84 170.1" stroke="#263238" stroke-miterlimit="10" stroke-linecap="round" stroke-linejoin="round"/>
<path d="M258.659 183.421C258.659 183.421 259.019 181.381 259.499 178.921L258.659 183.421Z" fill="white"/>
<path d="M258.659 183.421C258.659 183.421 259.019 181.381 259.499 178.921" stroke="#263238" stroke-miterlimit="10" stroke-linecap="round" stroke-linejoin="round"/>
<path d="M250.44 181.74C250.8 183.78 250.8 185.1 251.16 185.34C251.52 185.58 252.84 184.38 253.56 183.9C254.22 183.48 258.06 183.42 258.6 183.42L259.5 178.92C259.5 178.92 257.94 178.68 255.54 178.92C253.14 179.16 251.4 180.48 251.4 180.48C251.22 180.36 250.08 179.88 250.44 181.74Z" fill="#92E3A9" stroke="#263238" stroke-miterlimit="10" stroke-linecap="round" stroke-linejoin="round"/>
<path d="M259.501 178.92C260.221 175.26 261.061 170.7 261.121 170.34C261.241 169.74 258.601 163.2 258.601 160.2C258.601 157.2 259.801 151.62 259.801 151.62" stroke="#263238" stroke-miterlimit="10" stroke-linecap="round" stroke-linejoin="round"/>
<path d="M256.26 170.7C256.26 170.7 258.66 170.7 260.64 172.74" stroke="#263238" stroke-miterlimit="10" stroke-linecap="round" stroke-linejoin="round"/>
<path d="M259.74 170.46C259.74 170.46 257.22 169.26 255.12 169.62" stroke="#263238" stroke-miterlimit="10" stroke-linecap="round" stroke-linejoin="round"/>
<path d="M267.661 165.601C267.601 166.141 267.601 166.681 267.601 167.221" stroke="#263238" stroke-miterlimit="10" stroke-linecap="round" stroke-linejoin="round"/>
<path d="M268.74 158.28C268.74 158.28 268.14 160.62 267.84 163.68" stroke="#263238" stroke-miterlimit="10" stroke-linecap="round" stroke-linejoin="round"/>
<path d="M270.42 159.12V163.8" stroke="#263238" stroke-miterlimit="10" stroke-linecap="round" stroke-linejoin="round"/>
<path d="M265.201 152.7C265.201 152.7 263.041 154.74 262.561 156.42" stroke="#263238" stroke-miterlimit="10" stroke-linecap="round" stroke-linejoin="round"/>
<path d="M251.16 185.341C251.16 185.341 252.84 188.941 253.68 190.081C254.52 191.281 255.6 193.201 255.6 193.201L256.68 195.601C256.68 195.601 260.04 196.681 261.06 196.801C262.14 196.921 265.2 195.721 265.2 195.721C265.2 195.721 264.84 192.721 263.52 191.701C262.2 190.621 258.54 188.221 258.54 188.221L258.6 183.481C258.54 183.421 253.74 181.141 251.16 185.341Z" fill="white" stroke="#263238" stroke-miterlimit="10" stroke-linecap="round" stroke-linejoin="round"/>
<path d="M281.94 185.46C281.94 185.46 269.28 192.12 268.8 192.3C268.32 192.48 259.68 191.88 258.72 191.94C257.76 192 256.74 192.78 256.08 193.68C255.42 194.58 253.44 196.74 253.32 197.22C253.26 197.7 253.86 198.12 254.82 197.82C255.78 197.52 257.04 196.86 257.04 196.86C257.04 196.86 263.22 198.24 265.44 197.82C267.66 197.4 269.76 196.8 269.76 196.8L288.66 193.14C288.66 193.14 289.92 190.14 288.42 188.34C286.86 186.48 281.94 185.46 281.94 185.46Z" fill="white" stroke="#263238" stroke-miterlimit="10" stroke-linecap="round" stroke-linejoin="round"/>
<path d="M288.66 155.82C288.66 155.82 287.7 173.46 287.58 173.94C287.46 174.42 287.34 175.02 287.34 175.02C287.34 175.02 285.06 175.74 284.82 177.18C284.58 178.62 284.46 181.44 284.34 181.8C284.22 182.16 283.62 181.32 283.02 182.88C282.42 184.44 278.4 185.4 280.74 186.9C283.14 188.46 286.68 190.74 287.04 192.12C287.4 193.56 288.36 194.76 289.08 194.04C289.8 193.32 292.98 190.56 293.7 189.54C294.42 188.52 294.54 187.02 294.54 187.02C294.54 187.02 299.28 170.94 299.76 168.66C300.24 166.38 299.64 147.24 299.64 146.4C299.64 145.56 299.28 144.6 298.8 144.12C298.32 143.64 292.62 142.56 292.62 142.56L290.58 142.44" fill="#92E3A9"/>
<path d="M288.66 155.82C288.66 155.82 287.7 173.46 287.58 173.94C287.46 174.42 287.34 175.02 287.34 175.02C287.34 175.02 285.06 175.74 284.82 177.18C284.58 178.62 284.46 181.44 284.34 181.8C284.22 182.16 283.62 181.32 283.02 182.88C282.42 184.44 278.4 185.4 280.74 186.9C283.14 188.46 286.68 190.74 287.04 192.12C287.4 193.56 288.36 194.76 289.08 194.04C289.8 193.32 292.98 190.56 293.7 189.54C294.42 188.52 294.54 187.02 294.54 187.02C294.54 187.02 299.28 170.94 299.76 168.66C300.24 166.38 299.64 147.24 299.64 146.4C299.64 145.56 299.28 144.6 298.8 144.12C298.32 143.64 292.62 142.56 292.62 142.56L290.58 142.44" stroke="#263238" stroke-miterlimit="10" stroke-linecap="round" stroke-linejoin="round"/>
<path d="M285.779 181.38C285.779 181.38 296.039 178.38 295.439 179.46C294.839 180.54 291.959 181.14 291.959 181.14" stroke="#263238" stroke-miterlimit="10" stroke-linecap="round" stroke-linejoin="round"/>
<path d="M283.079 182.82C282.479 184.38 278.459 185.34 280.799 186.84C283.199 188.4 286.739 190.68 287.099 192.06C287.459 193.5 288.419 194.7 289.139 193.98C289.859 193.26 293.039 190.5 293.759 189.48C294.479 188.46 294.599 186.96 294.599 186.96C290.699 182.94 284.339 181.74 284.339 181.74C284.219 182.1 283.619 181.26 283.079 182.82Z" fill="#92E3A9" stroke="#263238" stroke-miterlimit="10" stroke-linecap="round" stroke-linejoin="round"/>
<path d="M243.54 248.82C243.54 248.82 240.96 255.48 240.78 256.02C240.6 256.56 236.16 260.46 234.12 262.2C232.08 263.94 224.52 267.18 224.88 268.38C225.24 269.58 227.64 270.12 231.42 270.42C235.2 270.78 240 270.78 242.58 269.88C245.16 269.04 247.74 266.64 248.22 265.62C248.76 264.6 249.06 262.56 249.78 259.62C250.44 256.68 250.8 252.96 250.8 252.96C250.8 252.96 245.4 252.3 243.54 248.82Z" fill="white" stroke="#263238" stroke-miterlimit="10" stroke-linecap="round" stroke-linejoin="round"/>
<path d="M234.12 262.2C232.08 263.94 224.52 267.18 224.88 268.38C225.24 269.58 227.64 270.12 231.42 270.42C235.2 270.78 240 270.78 242.58 269.88C245.16 268.98 247.74 266.64 248.22 265.62C248.76 264.6 249.06 262.56 249.78 259.62C247.68 260.76 245.52 260.82 245.52 260.82C245.52 260.82 245.4 258.12 244.02 256.8C242.58 255.48 240.84 256.08 240.84 256.08C240.6 256.56 236.16 260.52 234.12 262.2Z" fill="white" stroke="#263238" stroke-miterlimit="10" stroke-linecap="round" stroke-linejoin="round"/>
<path d="M250.74 252.96C250.74 252.96 248.76 261.48 247.08 263.82C245.46 266.22 243.18 268.92 243.72 269.58C244.26 270.24 246.78 271.02 249.36 270.12C251.94 269.28 256.62 265.98 258.24 264.66C259.86 263.34 264.42 261.3 264.42 261.3C264.42 261.3 265.5 259.32 264.72 257.94C263.94 256.5 259.86 250.86 259.86 250.86L256.74 240L250.74 252.96Z" fill="white" stroke="#263238" stroke-miterlimit="10" stroke-linecap="round" stroke-linejoin="round"/>
<path d="M243.72 269.64C244.26 270.3 246.78 271.08 249.36 270.18C251.94 269.34 256.62 266.04 258.24 264.72C259.86 263.4 264.42 261.36 264.42 261.36C264.42 261.36 265.5 259.38 264.72 258C264.12 256.92 261.54 253.26 260.4 251.7C258.6 253.62 256.02 253.56 256.02 253.56C256.02 253.56 255.06 252.72 253.74 252.12C252.42 251.58 250.62 252.96 250.62 252.96C250.62 252.96 248.64 261.48 246.96 263.82C245.46 266.22 243.18 268.98 243.72 269.64Z" fill="white" stroke="#263238" stroke-miterlimit="10" stroke-linecap="round" stroke-linejoin="round"/>
<path d="M192.72 215.58L191.1 269.58C191.1 270.18 190.5 270.78 189.9 270.78C189.42 270.78 189.06 270.42 189.06 269.94L187.38 215.58H192.72Z" fill="white" stroke="#263238" stroke-miterlimit="10" stroke-linecap="round" stroke-linejoin="round"/>
<path d="M190.439 215.58L191.939 269.58C191.939 270.18 192.539 270.78 193.139 270.78C193.619 270.78 193.979 270.42 193.979 269.94L195.779 215.58H190.439Z" fill="white" stroke="#263238" stroke-miterlimit="10" stroke-linecap="round" stroke-linejoin="round"/>
<path d="M183.12 213.54C183.12 213.54 182.34 198.54 190.68 168.84C193.02 160.44 183.6 154.86 174.18 154.98H172.8C163.44 154.8 153.96 160.44 156.3 168.84C164.64 198.6 163.86 213.54 163.86 213.54" stroke="#263238" stroke-width="2" stroke-miterlimit="10" stroke-linecap="round" stroke-linejoin="round"/>
<path d="M166.98 213.78C166.98 213.78 165.96 199.68 164.4 188.52C162.84 177.36 160.14 169.5 163.08 163.26C166.08 157.02 172.02 156.12 175.98 157.02C179.94 157.92 186.48 161.64 186 170.34C185.52 179.04 178.62 213.48 178.62 213.48" stroke="#263238" stroke-width="2" stroke-miterlimit="10" stroke-linecap="round" stroke-linejoin="round"/>
<path d="M156 215.58L157.62 269.58C157.62 270.18 158.22 270.78 158.82 270.78C159.3 270.78 159.66 270.42 159.66 269.94L161.34 215.58H156Z" fill="white" stroke="#263238" stroke-miterlimit="10" stroke-linecap="round" stroke-linejoin="round"/>
<path d="M158.039 215.58L156.539 269.58C156.539 270.18 155.939 270.78 155.339 270.78C154.859 270.78 154.499 270.42 154.499 269.94L152.699 215.58H158.039Z" fill="white" stroke="#263238" stroke-miterlimit="10" stroke-linecap="round" stroke-linejoin="round"/>
<path d="M198.3 212.22H149.64V216.9H198.3V212.22Z" fill="white" stroke="#263238" stroke-miterlimit="10" stroke-linecap="round" stroke-linejoin="round"/>
<path d="M157.2 258.42C157.2 258.42 155.52 262.8 154.92 263.4C154.32 264 148.14 269.22 149.1 270.3C150.06 271.38 152.7 271.5 156 271.02C159.36 270.54 162.54 270.06 163.02 269.34C163.5 268.62 165.42 266.1 166.26 264.96C167.1 263.76 169.98 262.56 169.98 260.7C169.98 259.08 168.54 257.34 168.18 256.86C168.12 256.8 168.06 256.74 167.94 256.68C167.34 256.32 164.58 254.64 161.52 255C157.98 255.3 157.2 258.42 157.2 258.42Z" fill="white" stroke="#263238" stroke-miterlimit="10" stroke-linecap="round" stroke-linejoin="round"/>
<path d="M169.92 260.64C169.92 260.28 169.86 259.98 169.74 259.62C168.9 260.58 165 264.6 161.22 267.54C157.98 270.06 152.46 269.46 150.18 269.04C149.64 268.92 149.1 269.28 148.98 269.82C148.92 270 148.98 270.18 149.04 270.3C150 271.38 152.64 271.5 155.94 271.02C159.3 270.54 162.48 270.06 162.96 269.34C163.44 268.62 165.36 266.1 166.2 264.96C167.04 263.76 169.92 262.56 169.92 260.64Z" fill="white" stroke="#263238" stroke-miterlimit="10" stroke-linecap="round" stroke-linejoin="round"/>
<path d="M190.801 258.42C190.801 258.42 192.48 262.8 193.08 263.4C193.68 264 199.861 269.22 198.901 270.3C197.941 271.38 195.301 271.5 192.001 271.02C188.641 270.54 185.46 270.06 184.98 269.34C184.5 268.62 182.58 266.1 181.74 264.96C180.9 263.76 178.021 262.56 178.021 260.7C178.021 259.08 179.461 257.34 179.821 256.86C179.881 256.8 179.941 256.74 180.061 256.68C180.661 256.32 183.42 254.64 186.48 255C189.96 255.3 190.801 258.42 190.801 258.42Z" fill="white" stroke="#263238" stroke-miterlimit="10" stroke-linecap="round" stroke-linejoin="round"/>
<path d="M178.021 260.64C178.021 260.28 178.081 259.98 178.201 259.62C179.041 260.58 182.941 264.6 186.721 267.54C189.961 270.06 195.481 269.46 197.761 269.04C198.301 268.92 198.841 269.28 198.961 269.82C199.021 270 198.96 270.18 198.9 270.3C197.94 271.38 195.3 271.5 192 271.02C188.641 270.54 185.46 270.06 184.98 269.34C184.5 268.62 182.58 266.1 181.74 264.96C180.9 263.76 178.021 262.56 178.021 260.64Z" fill="white" stroke="#263238" stroke-miterlimit="10" stroke-linecap="round" stroke-linejoin="round"/>
<path d="M207.36 196.32C204 193.2 198.42 194.16 198.42 194.16L196.44 193.86L174 195.12L151.56 193.86L149.58 194.16C149.58 194.16 144 193.2 140.64 196.32C137.28 199.44 138 206.34 139.08 210.48C140.1 214.38 154.32 250.02 155.94 253.98C156.06 254.22 156.06 254.46 155.94 254.76C155.82 255.06 155.7 255.48 155.7 255.72C155.7 255.9 156.12 256.68 156.48 257.4C156.78 257.94 157.5 258.12 158.04 257.76C158.64 257.34 159.42 256.92 160.08 256.92C160.98 256.92 162.18 257.76 162.84 258.24C163.14 258.48 163.5 258.54 163.86 258.36L167.1 257.1C167.58 256.92 167.88 256.44 167.76 255.9C167.64 255.12 167.46 254.1 167.28 253.44C167.1 252.54 165.9 251.04 165.54 250.5C165.42 250.38 165.36 250.26 165.36 250.08L156.24 212.82H173.82H174H191.58L182.46 250.08C182.4 250.2 182.34 250.38 182.28 250.5C181.86 251.04 180.72 252.54 180.54 253.44C180.42 254.1 180.24 255.18 180.06 255.9C180 256.38 180.24 256.92 180.72 257.1L183.96 258.36C184.32 258.48 184.68 258.42 184.98 258.24C185.64 257.76 186.84 256.92 187.74 256.92C188.4 256.92 189.18 257.34 189.78 257.76C190.32 258.12 191.04 257.94 191.34 257.4C191.7 256.74 192.12 255.96 192.12 255.72C192.12 255.48 192 255.12 191.88 254.76C191.82 254.52 191.82 254.22 191.88 253.98C193.56 250.02 207.72 214.38 208.74 210.48C210 206.28 210.72 199.38 207.36 196.32Z" fill="#263238" stroke="#263238" stroke-miterlimit="10" stroke-linecap="round" stroke-linejoin="round"/>
<path d="M163.74 140.58L172.98 136.74L180.84 138.48C180.84 138.48 183.9 161.94 183.72 174.48C183.54 186.96 183.9 196.2 183.9 196.2H165.72C165.78 196.14 162.6 169.8 163.74 140.58Z" fill="white" stroke="#263238" stroke-miterlimit="10" stroke-linecap="round" stroke-linejoin="round"/>
<path d="M171 186.421C170.7 186.961 170.4 187.501 170.1 187.921" stroke="#263238" stroke-miterlimit="10" stroke-linecap="round" stroke-linejoin="round"/>
<path d="M179.88 170.1C179.88 170.1 175.2 178.92 171.96 184.68" stroke="#263238" stroke-miterlimit="10" stroke-linecap="round" stroke-linejoin="round"/>
<path d="M171.9 180.541L169.68 184.561" stroke="#263238" stroke-miterlimit="10" stroke-linecap="round" stroke-linejoin="round"/>
<path d="M167.46 138.36C167.46 138.36 165.78 163.86 166.38 171.96C166.98 180.06 168.78 194.58 168.78 194.58C168.78 194.58 168.48 195.96 167.58 196.08C166.68 196.2 164.1 195.6 164.1 195.6L151.62 193.92C151.62 193.92 151.62 145.2 152.22 144.6C152.76 143.94 163.02 138.72 167.46 138.36Z" fill="#92E3A9" stroke="#263238" stroke-miterlimit="10" stroke-linecap="round" stroke-linejoin="round"/>
<path d="M163.68 139.32C163.68 139.32 161.76 151.32 161.58 152.4C161.4 153.48 161.28 155.22 161.28 155.22C161.28 155.22 163.56 153.6 164.16 152.7C164.76 151.8 166.38 151.8 166.38 151.8L168.18 138.42L163.68 139.32Z" fill="white" stroke="#263238" stroke-miterlimit="10" stroke-linecap="round" stroke-linejoin="round"/>
<path d="M161.34 116.04C161.34 116.04 159.54 122.76 159.36 123.18C159.24 123.6 159.84 124.8 159.84 124.8C159.84 124.8 157.5 129 157.74 129.42C157.98 129.84 160.2 131.4 160.2 131.4C160.2 131.4 160.86 138.3 160.98 138.54C161.1 138.84 161.82 139.32 162.12 139.2C162.42 139.08 167.34 138.36 167.34 138.36C167.34 138.36 167.94 140.4 168.6 142.08C169.26 143.76 171.12 145.68 173.46 145.32C175.8 144.96 177.6 143.82 178.44 141.12C179.28 138.42 179.28 136.44 179.28 136.44L180 132.48C180 132.48 185.22 124.2 185.46 121.14C185.7 118.02 182.94 113.76 180.78 111.9C178.62 110.04 174.54 109.74 171.66 109.74C168.78 109.74 160.56 111.48 160.14 112.2C159.72 112.92 160.62 115.14 160.62 115.14C160.62 115.14 159 112.68 158.88 114.36C158.82 115.92 161.34 116.04 161.34 116.04Z" fill="white" stroke="#263238" stroke-miterlimit="10" stroke-linecap="round" stroke-linejoin="round"/>
<path d="M180.84 111.78C178.68 109.92 174.6 109.62 171.72 109.62C168.84 109.62 160.62 111.36 160.2 112.08C159.78 112.8 160.68 115.02 160.68 115.02C160.68 115.02 159.06 112.56 158.94 114.24C158.82 115.92 161.34 116.04 161.34 116.04C161.34 116.04 166.68 116.28 167.28 116.64C167.88 117 168.06 117.6 167.58 118.32C167.1 119.04 167.28 120.06 167.7 120.3C168.12 120.54 171.54 122.4 171.54 122.4C171.54 122.4 170.46 124.5 171.06 125.28C171.66 126.06 173.4 124.26 173.4 124.26C173.4 124.26 175.8 121.56 177.12 123.18C178.44 124.8 177.06 128.7 176.64 129.24C176.22 129.84 174.54 130.32 174.54 130.32C174.54 130.32 174.66 131.76 176.28 132.84C177.9 133.92 180.18 132.42 180.18 132.42C180.18 132.42 185.4 124.14 185.64 121.08C185.76 117.96 183 113.7 180.84 111.78Z" fill="#263238" stroke="#263238" stroke-miterlimit="10" stroke-linecap="round" stroke-linejoin="round"/>
<path d="M160.68 122.94C160.68 122.94 162.3 121.92 163.68 123.06" stroke="#263238" stroke-miterlimit="10" stroke-linecap="round" stroke-linejoin="round"/>
<path d="M162.72 125.46C162.72 125.94 162.48 126.3 162.24 126.3C162 126.3 161.76 125.94 161.76 125.46C161.76 124.98 162 124.62 162.24 124.62C162.48 124.62 162.72 124.98 162.72 125.46Z" fill="#263238"/>
<path d="M161.22 132.36C161.22 132.36 162.96 132.84 164.58 131.58" stroke="#263238" stroke-miterlimit="10" stroke-linecap="round" stroke-linejoin="round"/>
<path d="M167.46 138.36L170.88 138.06L168.72 142.02C168.66 142.08 167.28 139.38 167.46 138.36Z" fill="#263238" stroke="#263238" stroke-miterlimit="10" stroke-linecap="round" stroke-linejoin="round"/>
<path d="M179.4 136.38C179.4 136.38 180.78 163.92 180 177.3C179.22 190.68 178.98 194.58 179.28 194.82C179.58 195 180.9 195.3 180.9 195.3C180.9 195.3 191.52 194.7 192.18 194.52C192.9 194.34 195.48 185.1 196.08 174.9C196.68 164.7 196.08 144.36 195.48 143.1C194.88 141.78 181.98 137.22 181.26 136.98C180.54 136.86 179.4 136.38 179.4 136.38Z" fill="#92E3A9" stroke="#263238" stroke-miterlimit="10" stroke-linecap="round" stroke-linejoin="round"/>
<path d="M179.4 136.38C179.4 136.38 179.76 143.34 180 151.98L180.06 152.04C180.06 152.04 182.64 151.14 183.48 151.74C184.26 152.34 185.7 154.56 186.3 154.44C186.9 154.32 185.7 151.32 185.7 151.32C185.34 148.68 183.24 140.94 182.22 137.34C181.74 137.16 181.38 137.04 181.26 137.04C180.54 136.86 179.4 136.38 179.4 136.38Z" fill="white" stroke="#263238" stroke-miterlimit="10" stroke-linecap="round" stroke-linejoin="round"/>
<path d="M191.04 154.56L193.56 181.2C193.56 181.2 196.44 180.48 198.18 180.48C199.86 180.48 205.56 182.16 205.56 182.16C205.56 182.16 200.28 157.26 200.04 152.64C199.86 148.02 198.54 144.24 197.64 143.52C196.74 142.8 193.02 141.54 192.06 141.42" fill="#92E3A9"/>
<path d="M191.04 154.56L193.56 181.2C193.56 181.2 196.44 180.48 198.18 180.48C199.86 180.48 205.56 182.16 205.56 182.16C205.56 182.16 200.28 157.26 200.04 152.64C199.86 148.02 198.54 144.24 197.64 143.52C196.74 142.8 193.02 141.54 192.06 141.42" stroke="#263238" stroke-miterlimit="10" stroke-linecap="round" stroke-linejoin="round"/>
<path d="M196.86 178.74C196.86 178.74 191.04 179.82 190.68 180.96C190.26 182.04 190.68 184.38 190.98 185.16C191.28 185.94 191.76 186.48 191.76 186.48C191.76 186.48 204.84 190.5 205.38 190.08C205.86 189.66 207.6 184.38 207.6 183.78C207.6 183.18 204.3 180.66 202.68 179.7C201.06 178.68 196.86 178.74 196.86 178.74Z" fill="white" stroke="#263238" stroke-miterlimit="10" stroke-linecap="round" stroke-linejoin="round"/>
<path d="M156.36 142.44C156.36 142.44 149.28 144.72 148.98 146.16C148.68 147.54 142.56 181.8 142.5 182.16C142.38 182.58 147.12 180.48 148.62 180.48C150.12 180.48 156.24 181.5 156.24 181.5L155.34 152.28" fill="#92E3A9"/>
<path d="M156.36 142.44C156.36 142.44 149.28 144.72 148.98 146.16C148.68 147.54 142.56 181.8 142.5 182.16C142.38 182.58 147.12 180.48 148.62 180.48C150.12 180.48 156.24 181.5 156.24 181.5L155.34 152.28" stroke="#263238" stroke-miterlimit="10" stroke-linecap="round" stroke-linejoin="round"/>
<path d="M204.66 187.98C204.66 187.98 202.74 185.46 199.14 184.2C195.54 182.88 193.56 183.72 193.02 184.02C192.54 184.32 177.12 200.22 176.04 200.64C174.96 201.06 169.86 204.24 169.74 205.02C169.62 205.8 171.66 207.54 172.56 208.8C173.46 210.12 174.48 210.3 175.08 210.42C175.68 210.54 177.48 209.1 178.2 208.14C178.92 207.12 180.6 204.96 181.68 203.76C182.76 202.56 203.1 190.68 203.88 189.36C204.66 187.98 204.66 187.98 204.66 187.98Z" fill="white" stroke="#263238" stroke-miterlimit="10" stroke-linecap="round" stroke-linejoin="round"/>
<path d="M150.78 178.74C150.78 178.74 156.6 179.82 156.96 180.96C157.38 182.04 156.96 184.38 156.66 185.16C156.36 185.94 155.88 186.48 155.88 186.48C155.88 186.48 142.8 190.5 142.26 190.08C141.78 189.66 140.04 184.38 140.04 183.78C140.04 183.18 143.34 180.66 144.96 179.7C146.58 178.68 150.78 178.74 150.78 178.74Z" fill="white" stroke="#263238" stroke-miterlimit="10" stroke-linecap="round" stroke-linejoin="round"/>
<path d="M156.96 186.84C156.96 186.84 155.46 183.12 154.26 182.94C153.06 182.76 144.78 181.92 143.34 184.86C141.96 187.74 142.32 189.06 142.74 189.24C143.16 189.42 165.12 204.54 165.12 204.54C165.12 204.54 167.82 209.76 168 210.66C168.18 211.56 169.38 213.36 169.68 213.48C169.98 213.6 174.66 214.2 175.38 213.9C176.1 213.6 178.86 210.72 179.4 209.88C179.94 209.04 179.4 208.56 178.98 208.86C178.56 209.16 178.26 209.58 177.96 209.76C177.66 209.94 173.64 207.96 172.98 207.54C172.26 207.12 171.36 205.26 171.36 205.26C171.36 205.26 173.88 207.06 174.66 207.48C175.44 207.9 176.64 207.96 176.88 207.48C177.06 207 175.98 206.46 175.26 205.56C174.54 204.66 172.56 203.04 171.78 202.08C171.78 202.08 167.4 199.56 165.66 197.58C164.04 195.54 156.96 186.84 156.96 186.84Z" fill="white" stroke="#263238" stroke-miterlimit="10" stroke-linecap="round" stroke-linejoin="round"/>
<path d="M176.04 200.58C176.04 200.58 170.16 199.68 169.62 200.1C169.14 200.52 167.22 203.58 166.74 204.12C166.26 204.66 166.32 205.5 167.34 205.32C168.36 205.14 170.94 202.5 170.94 202.5L173.64 202.92" fill="white"/>
<path d="M176.04 200.58C176.04 200.58 170.16 199.68 169.62 200.1C169.14 200.52 167.22 203.58 166.74 204.12C166.26 204.66 166.32 205.5 167.34 205.32C168.36 205.14 170.94 202.5 170.94 202.5L173.64 202.92" stroke="#263238" stroke-miterlimit="10" stroke-linecap="round" stroke-linejoin="round"/>
<path d="M67.2607 215.58L59.3407 269.58C59.2207 270.18 59.7007 270.78 60.3607 270.78C60.8407 270.78 61.2607 270.42 61.3807 269.94L72.6607 215.58H67.2607Z" fill="white" stroke="#263238" stroke-miterlimit="10" stroke-linecap="round" stroke-linejoin="round"/>
<path d="M88.2604 215.581L96.1803 269.581C96.3003 270.181 95.8203 270.781 95.1603 270.781C94.6803 270.781 94.2603 270.421 94.1403 269.941L82.8604 215.581H88.2604Z" fill="white" stroke="#263238" stroke-miterlimit="10" stroke-linecap="round" stroke-linejoin="round"/>
<path d="M49.7403 213.541C49.7403 213.541 49.3203 198.541 38.5203 168.661C35.0403 159.061 47.2203 153.061 57.7803 155.221C66.0003 156.901 70.5003 165.301 70.7403 173.701C70.7403 174.301 70.8003 174.961 70.8003 175.621C71.0403 182.581 67.2003 212.401 67.2003 212.401" stroke="#263238" stroke-width="2" stroke-miterlimit="10" stroke-linecap="round" stroke-linejoin="round"/>
<path d="M52.8608 213.781C52.8608 213.781 50.6408 199.681 48.1808 188.461C45.7208 177.241 42.3608 169.381 44.8208 163.141C47.2808 156.901 53.1008 155.941 57.1808 156.841C61.2008 157.741 66.6008 163.561 66.8408 172.321C67.0808 181.081 65.0408 192.301 65.0408 198.121C65.0408 203.941 64.5008 213.541 64.5008 213.541" stroke="#263238" stroke-width="2" stroke-miterlimit="10" stroke-linecap="round" stroke-linejoin="round"/>
<path d="M44.4004 215.581L36.4804 269.581C36.3604 270.181 36.8404 270.781 37.5004 270.781C37.9804 270.781 38.4004 270.421 38.5204 269.941L49.8004 215.581H44.4004Z" fill="white" stroke="#263238" stroke-miterlimit="10" stroke-linecap="round" stroke-linejoin="round"/>
<path d="M65.4 215.58L73.32 269.58C73.44 270.18 72.96 270.78 72.3 270.78C71.82 270.78 71.4 270.42 71.28 269.94L60 215.58H65.4Z" fill="white" stroke="#263238" stroke-miterlimit="10" stroke-linecap="round" stroke-linejoin="round"/>
<path d="M90.7801 212.221H42.1201V216.901H90.7801V212.221Z" fill="white" stroke="#263238" stroke-miterlimit="10" stroke-linecap="round" stroke-linejoin="round"/>
<path d="M105.24 168.6L111.12 165.78C111.12 165.78 114.72 160.56 115.02 160.56C115.32 160.56 118.02 159.78 118.02 159.78C118.02 159.78 120 157.8 120.3 158.7C120.6 159.6 120.3 160.38 119.88 161.1C119.46 161.82 117.78 162.42 117.36 162.72C116.94 163.02 116.94 163.02 116.94 163.02L123.12 165.84L126.42 165.66C126.42 165.66 129 164.28 128.94 165.18C128.82 166.08 125.94 168.9 125.34 169.5C124.74 170.1 123.06 171.12 122.04 171.3C121.02 171.48 113.16 171.18 113.16 171.18L104.28 174.3L105.24 168.6Z" fill="white" stroke="#263238" stroke-miterlimit="10" stroke-linecap="round" stroke-linejoin="round"/>
<path d="M111.48 167.881C111.48 167.881 112.86 166.381 114.48 166.681C116.1 166.981 123 168.781 123 168.781C123 168.781 126.6 166.501 127.02 166.561" stroke="#263238" stroke-miterlimit="10" stroke-linecap="round" stroke-linejoin="round"/>
<path d="M86.5203 144.361C86.5203 144.361 90.1203 145.441 91.1403 147.241C92.1603 149.041 97.7403 168.481 97.7403 168.481L105.24 168.601L104.34 174.181C104.34 174.181 92.6403 179.581 91.7403 180.001C90.8403 180.421 89.1603 180.481 88.7403 179.701C88.3203 178.921 88.6203 169.021 89.0403 166.981C89.4603 165.001 84.3604 143.761 84.3604 143.761L86.5203 144.361Z" fill="#92E3A9" stroke="#263238" stroke-miterlimit="10" stroke-linecap="round" stroke-linejoin="round"/>
<path d="M88.5008 120.24C88.5008 120.24 91.6808 119.34 93.1208 118.62C94.5608 117.9 94.7408 116.46 94.0208 115.68C93.3008 114.9 86.4008 109.86 86.4008 109.86C86.4008 109.86 78.4208 107.16 75.4208 108.12C72.4808 109.08 72.0008 109.38 72.0008 109.38C72.0008 109.38 63.4208 114.66 61.7408 118.68C60.0608 122.7 60.7208 132.54 60.7208 135.3C60.7208 138.12 56.9408 147.24 56.7008 147.78C56.4608 148.32 83.6408 147.78 83.6408 147.78C83.6408 147.78 82.2608 141.78 81.9008 138.48C81.4808 135.18 84.3008 121.68 84.7808 120.42C85.3208 119.16 88.5008 120.24 88.5008 120.24Z" fill="#263238" stroke="#263238" stroke-miterlimit="10" stroke-linecap="round" stroke-linejoin="round"/>
<path d="M89.0408 148.26C89.0408 148.26 92.4608 160.68 92.3408 163.08C92.2208 165.48 89.1608 171.9 89.1608 174.18C89.1608 176.46 90.0608 182.1 90.0608 182.1H58.8008C58.8008 182.1 51.1808 153.3 51.4208 151.8C51.6008 150.3 63.0008 143.34 63.0008 143.34L79.5608 141.36L88.6808 145.44" fill="#92E3A9"/>
<path d="M89.0408 148.26C89.0408 148.26 92.4608 160.68 92.3408 163.08C92.2208 165.48 89.1608 171.9 89.1608 174.18C89.1608 176.46 90.0608 182.1 90.0608 182.1H58.8008C58.8008 182.1 51.1808 153.3 51.4208 151.8C51.6008 150.3 63.0008 143.34 63.0008 143.34L79.5608 141.36L88.6808 145.44" stroke="#263238" stroke-miterlimit="10" stroke-linecap="round" stroke-linejoin="round"/>
<path d="M69.1804 138.24C69.1804 138.24 67.9803 138.121 67.6203 138.421C67.2603 138.721 62.9404 143.341 62.9404 143.341C62.9404 143.341 62.7604 150.001 63.3604 151.501C63.9604 153.001 65.7004 156.361 65.7004 156.361L72.2404 147.061L77.0403 147.001C77.0403 147.001 80.8803 151.921 81.2403 152.281C81.5403 152.641 83.6403 155.641 83.6403 155.641C83.6403 155.641 82.9803 149.941 82.3203 146.641C81.7203 143.341 79.9804 140.581 79.0203 139.981C78.0604 139.381 77.4004 139.201 77.4004 139.201L69.1804 138.24Z" fill="#92E3A9" stroke="#263238" stroke-miterlimit="10" stroke-linecap="round" stroke-linejoin="round"/>
<path d="M69.7812 129.961C69.7812 129.961 69.2412 139.081 69.2412 139.561C69.2412 140.041 73.0812 154.981 74.1612 157.381C75.2412 159.721 76.3812 160.081 77.2812 157.621C78.1812 155.221 78.3012 142.441 78.3012 141.061C78.3012 139.681 78.7212 137.761 78.7212 137.761C78.7212 137.761 76.9812 136.681 75.2412 134.281C73.5012 131.881 72.5412 129.541 71.5212 129.181C70.3812 128.761 69.7812 129.961 69.7812 129.961Z" fill="white" stroke="#263238" stroke-miterlimit="10" stroke-linecap="round" stroke-linejoin="round"/>
<path d="M86.2807 115.86C86.2807 115.86 89.7607 118.74 89.4607 120.6C89.2207 122.52 89.1007 126.48 89.4607 128.16C89.8207 129.78 89.4606 132.24 88.7406 134.22C88.0206 136.2 85.8006 138.06 85.0207 138.66C84.2407 139.26 83.6406 140.04 82.1406 140.28C80.6406 140.52 74.5807 137.76 73.1407 136.14C71.6407 134.52 71.0407 131.46 71.0407 131.46C71.0407 131.46 67.6806 130.5 67.2006 127.98C66.7806 125.46 68.7006 124.14 69.5406 124.32C70.3807 124.5 71.5206 126.06 71.5206 126.06C71.5206 126.06 71.7006 126.12 72.1206 125.52C72.5406 124.92 72.7206 124.14 72.7206 124.14C72.7206 124.14 76.2607 122.22 77.4007 121.2C78.5407 120.18 79.2007 119.22 79.2007 119.22C79.2007 119.22 84.0007 118.5 86.2807 115.86Z" fill="white" stroke="#263238" stroke-miterlimit="10" stroke-linecap="round" stroke-linejoin="round"/>
<path d="M86.881 123C86.881 123 86.041 124.2 85.861 125.76C85.681 127.32 87.481 129.6 87.181 130.02C86.821 130.44 84.241 130.44 84.241 130.44" stroke="#263238" stroke-miterlimit="10" stroke-linecap="round" stroke-linejoin="round"/>
<path d="M85.0807 133.441C85.0807 133.441 82.0207 132.721 80.4607 131.341C80.4607 131.341 80.5207 135.001 82.0807 134.821C83.7007 134.701 85.0807 133.441 85.0807 133.441Z" stroke="#263238" stroke-miterlimit="10" stroke-linecap="round" stroke-linejoin="round"/>
<path d="M82.0202 125.16C82.0202 125.64 81.7802 126 81.4802 126C81.1802 126 80.9402 125.64 80.9402 125.16C80.9402 124.68 81.1802 124.32 81.4802 124.32C81.7802 124.38 82.0202 124.74 82.0202 125.16Z" fill="#263238"/>
<path d="M88.5602 125.46C88.5602 125.94 88.3202 126.3 88.0202 126.3C87.7202 126.3 87.4802 125.94 87.4802 125.46C87.4802 124.98 87.7202 124.62 88.0202 124.62C88.3202 124.62 88.5602 124.98 88.5602 125.46Z" fill="#263238"/>
<path d="M79.741 122.76C79.741 122.76 82.081 121.56 84.121 122.58" stroke="#263238" stroke-miterlimit="10" stroke-linecap="round" stroke-linejoin="round"/>
<path d="M87.241 122.881C87.241 122.881 88.321 122.341 88.981 123.601" stroke="#263238" stroke-miterlimit="10" stroke-linecap="round" stroke-linejoin="round"/>
<path d="M107.88 169.381C107.88 169.381 104.88 170.761 103.86 170.761" stroke="#263238" stroke-miterlimit="10" stroke-linecap="round" stroke-linejoin="round"/>
<path d="M105.541 172.021C105.541 172.021 103.621 172.74 102.961 172.74" stroke="#263238" stroke-miterlimit="10" stroke-linecap="round" stroke-linejoin="round"/>
<path d="M58.8011 182.101C58.8011 182.101 51.7211 196.441 51.4211 198.121C51.1211 199.801 55.4411 210.361 57.9011 211.921C60.4211 213.541 68.4011 213.121 70.1411 212.401C71.8211 211.681 90.0611 197.461 91.2611 196.681C92.4611 195.901 98.1611 189.601 97.3811 185.041C96.6011 180.541 91.5011 179.761 88.2011 180.541C84.9011 181.321 82.2011 182.221 82.2011 182.221L58.8011 182.101Z" fill="#263238" stroke="#263238" stroke-miterlimit="10" stroke-linecap="round" stroke-linejoin="round"/>
<path d="M80.4002 183.181C80.4002 183.181 59.5801 190.681 57.0601 193.561C54.5401 196.441 55.0802 198.361 55.3802 199.141" stroke="#858585" stroke-miterlimit="10" stroke-linecap="round" stroke-linejoin="round"/>
<path d="M56.2805 193.141C56.2805 193.141 53.7005 195.361 52.9805 196.741" stroke="#858585" stroke-miterlimit="10" stroke-linecap="round" stroke-linejoin="round"/>
<path d="M84.6611 191.221C84.6611 191.221 85.7411 202.321 87.7811 207.721C89.7611 213.121 102.781 242.761 103.081 243.481C103.381 244.201 102.601 253.561 102.901 254.521C103.201 255.481 109.081 258.121 111.601 259.441C114.121 260.761 118.621 262.021 121.321 261.841C124.021 261.661 126.121 260.521 126.241 258.541C126.361 256.561 122.941 254.761 122.941 254.761C122.941 254.761 114.361 246.841 112.321 244.561C110.341 242.281 109.321 240.481 109.321 240.481C109.321 240.481 103.921 216.781 103.021 207.721C102.121 198.721 99.6011 190.021 98.5211 187.021C97.4411 184.021 95.6411 181.501 93.5411 181.021" fill="#263238"/>
<path d="M84.6611 191.221C84.6611 191.221 85.7411 202.321 87.7811 207.721C89.7611 213.121 102.781 242.761 103.081 243.481C103.381 244.201 102.601 253.561 102.901 254.521C103.201 255.481 109.081 258.121 111.601 259.441C114.121 260.761 118.621 262.021 121.321 261.841C124.021 261.661 126.121 260.521 126.241 258.541C126.361 256.561 122.941 254.761 122.941 254.761C122.941 254.761 114.361 246.841 112.321 244.561C110.341 242.281 109.321 240.481 109.321 240.481C109.321 240.481 103.921 216.781 103.021 207.721C102.121 198.721 99.6011 190.021 98.5211 187.021C97.4411 184.021 95.6411 181.501 93.5411 181.021" stroke="#263238" stroke-miterlimit="10" stroke-linecap="round" stroke-linejoin="round"/>
<path d="M121.261 261.781C123.961 261.601 126.061 260.461 126.181 258.481C126.301 256.501 122.881 254.701 122.881 254.701C122.881 254.701 114.301 246.781 112.261 244.501C110.281 242.221 109.261 240.421 109.261 240.421C109.261 240.421 108.421 236.761 107.341 231.781L98.8809 234.061C101.161 239.341 102.901 243.301 103.021 243.541C103.321 244.261 102.541 253.621 102.841 254.581C103.141 255.481 109.021 258.181 111.541 259.501C114.061 260.701 118.561 261.961 121.261 261.781Z" fill="white" stroke="#263238" stroke-miterlimit="10" stroke-linecap="round" stroke-linejoin="round"/>
<path d="M108.781 246.181C108.061 247.381 107.701 248.161 107.701 248.161L103.081 247.201C102.961 250.201 102.721 253.921 102.901 254.521C103.201 255.421 109.081 258.121 111.601 259.441C114.121 260.761 118.621 262.021 121.321 261.841C124.021 261.661 126.121 260.521 126.241 258.541C126.361 256.561 122.941 254.761 122.941 254.761C122.941 254.761 114.361 246.841 112.321 244.561C112.261 244.441 109.441 244.981 108.781 246.181Z" fill="white" stroke="#263238" stroke-miterlimit="10" stroke-linecap="round" stroke-linejoin="round"/>
<path d="M86.1605 199.74C86.1605 199.74 81.9605 197.22 78.7805 199.02C75.6005 200.82 74.1005 205.44 73.8605 208.8C73.6805 212.22 75.6605 242.52 75.6605 244.86C75.6605 247.14 75.6605 252.54 75.6605 252.54C75.6605 252.54 72.6605 258.96 71.1605 260.64C69.6605 262.32 68.4605 268.62 69.7805 270.66C71.1005 272.64 75.1805 272.46 78.1805 267.48C81.1805 262.5 82.2005 256.86 82.5005 252.84C82.8005 248.82 87.1205 227.52 87.1205 227.52C87.1205 227.52 89.4005 215.7 90.0005 210.12C90.5405 204.54 88.5605 200.4 86.1605 199.74Z" fill="white" stroke="#263238" stroke-miterlimit="10" stroke-linecap="round" stroke-linejoin="round"/>
<path d="M86.1606 199.74C86.1606 199.74 81.9605 197.22 78.7805 199.02C75.6005 200.82 74.1005 205.44 73.8605 208.8C73.7405 211.32 74.7605 228.72 75.3605 238.44C77.2805 239.52 80.5805 240.66 84.7205 239.64C85.9205 233.46 87.0605 227.58 87.0605 227.58C87.0605 227.58 89.3405 215.76 89.9405 210.18C90.5405 204.54 88.5605 200.4 86.1606 199.74Z" fill="#263238" stroke="#263238" stroke-miterlimit="10" stroke-linecap="round" stroke-linejoin="round"/>
<path d="M73.6804 205.38C73.6804 205.38 76.6204 198 81.4804 197.58C86.3404 197.16 89.2804 202.2 90.3004 208.32" stroke="#858585" stroke-miterlimit="10" stroke-linecap="round" stroke-linejoin="round"/>
<path d="M80.6405 255.6C80.6405 255.6 78.9605 253.32 77.6405 252.9C76.5605 252.54 75.6005 253.08 75.3605 253.26C74.5805 254.94 72.3605 259.38 71.1605 260.7C69.6605 262.38 68.4605 268.68 69.7805 270.72C71.1005 272.7 75.1805 272.52 78.1805 267.54C81.1805 262.56 82.2005 256.92 82.5005 252.9C82.5605 252.48 82.6205 251.82 82.7405 250.98L82.6805 250.86L80.6405 255.6Z" fill="white" stroke="#263238" stroke-miterlimit="10" stroke-linecap="round" stroke-linejoin="round"/>
<path d="M55.0807 148.561C55.0807 148.561 49.5607 150.841 49.3807 151.561C49.2007 152.281 51.6007 176.761 51.6007 176.761C51.6007 176.761 49.9807 179.941 50.1007 180.481C50.2207 180.961 52.2007 183.781 52.2007 183.781C52.2007 183.781 52.0807 186.361 52.3807 186.901C52.6807 187.381 57.3007 188.521 58.5607 188.221C59.8807 187.921 85.2607 178.741 85.2607 178.741L84.1807 172.741L66.2407 175.261C66.2407 175.261 66.0607 171.361 65.8207 170.881C65.6407 170.401 63.1207 169.501 63.1207 169.501L62.5207 159.301" fill="#92E3A9"/>
<path d="M55.0807 148.561C55.0807 148.561 49.5607 150.841 49.3807 151.561C49.2007 152.281 51.6007 176.761 51.6007 176.761C51.6007 176.761 49.9807 179.941 50.1007 180.481C50.2207 180.961 52.2007 183.781 52.2007 183.781C52.2007 183.781 52.0807 186.361 52.3807 186.901C52.6807 187.381 57.3007 188.521 58.5607 188.221C59.8807 187.921 85.2607 178.741 85.2607 178.741L84.1807 172.741L66.2407 175.261C66.2407 175.261 66.0607 171.361 65.8207 170.881C65.6407 170.401 63.1207 169.501 63.1207 169.501L62.5207 159.301" stroke="#263238" stroke-miterlimit="10" stroke-linecap="round" stroke-linejoin="round"/>
<path d="M53.5205 153.001C53.5205 153.001 60.2405 155.821 61.4405 161.401" stroke="#263238" stroke-miterlimit="10" stroke-linecap="round" stroke-linejoin="round"/>
<path d="M65.3404 174.48C65.3404 174.48 54.7204 180.18 55.3204 181.08C55.9204 181.98 60.4204 178.38 60.4204 178.38" stroke="#263238" stroke-miterlimit="10" stroke-linecap="round" stroke-linejoin="round"/>
<path d="M84.2402 172.681L92.6402 170.701C92.6402 170.701 94.2602 167.521 94.6202 166.921C95.0402 166.321 97.6202 165.721 98.2202 165.301C98.8202 164.881 100.92 163.081 101.1 163.921C101.28 164.701 101.1 165.841 100.8 166.201C100.5 166.621 98.2202 167.701 98.2202 167.701L97.7402 168.481L101.52 168.901L107.1 167.821C107.1 167.821 108.78 166.921 108.78 167.401C108.78 167.881 108.06 169.021 107.76 169.381C107.46 169.801 106.26 171.361 105.48 171.961C104.7 172.561 102.6 174.061 101.7 174.241C100.8 174.421 93.1202 174.661 93.1202 174.661L85.3202 178.681L84.2402 172.681Z" fill="white" stroke="#263238" stroke-miterlimit="10" stroke-linecap="round" stroke-linejoin="round"/>
<defs>
<filter id="filter0_d_382_9451" x="9.92188" y="47.4131" width="436.189" height="231.307" filterUnits="userSpaceOnUse" color-interpolation-filters="sRGB">
<feFlood flood-opacity="0" result="BackgroundImageFix"/>
<feColorMatrix in="SourceAlpha" type="matrix" values="0 0 0 0 0 0 0 0 0 0 0 0 0 0 0 0 0 0 127 0" result="hardAlpha"/>
<feOffset dx="4" dy="4"/>
<feGaussianBlur stdDeviation="2"/>
<feComposite in2="hardAlpha" operator="out"/>
<feColorMatrix type="matrix" values="0 0 0 0 0 0 0 0 0 0 0 0 0 0 0 0 0 0 0.25 0"/>
<feBlend mode="normal" in2="BackgroundImageFix" result="effect1_dropShadow_382_9451"/>
<feBlend mode="normal" in="SourceGraphic" in2="effect1_dropShadow_382_9451" result="shape"/>
</filter>
</defs>
</svg>
