<svg width="330" height="330" viewBox="0 0 330 330" fill="none" xmlns="http://www.w3.org/2000/svg">
<path d="M118.734 43.626C122.1 40.128 125.532 36.762 129.228 33.726C171.666 -1.71606 256.08 0.593941 279.906 61.116C285.582 75.57 284.658 90.222 286.902 105.204C291.984 139.392 312.642 166.056 320.76 198.858C327.03 224.334 317.196 250.668 303.336 270.864C288.222 292.842 269.544 305.316 244.068 310.86C215.49 316.998 190.872 303.864 166.32 289.542C155.298 283.074 143.88 276.474 131.604 273.108C116.226 268.884 100.056 268.092 84.4803 264.99C68.3103 261.756 52.0743 256.608 38.6103 246.444C-4.48764 213.972 6.27036 136.818 38.6103 101.838C50.0283 89.43 65.3403 82.17 79.7943 74.448C95.3703 66.198 106.326 56.43 118.734 43.626Z" fill="#92E3A9"/>
<g opacity="0.7" filter="url(#filter0_d_379_10285)">
<path d="M118.734 43.626C122.1 40.128 125.532 36.762 129.228 33.726C171.666 -1.71606 256.08 0.593941 279.906 61.116C285.582 75.57 284.658 90.222 286.902 105.204C291.984 139.392 312.642 166.056 320.76 198.858C327.03 224.334 317.196 250.668 303.336 270.864C288.222 292.842 269.544 305.316 244.068 310.86C215.49 316.998 190.872 303.864 166.32 289.542C155.298 283.074 143.88 276.474 131.604 273.108C116.226 268.884 100.056 268.092 84.4803 264.99C68.3103 261.756 52.0743 256.608 38.6103 246.444C-4.48764 213.972 6.27036 136.818 38.6103 101.838C50.0283 89.43 65.3403 82.17 79.7943 74.448C95.3703 66.198 106.326 56.43 118.734 43.626Z" fill="white"/>
</g>
<path d="M273.965 180.774L286.175 297.99" stroke="#263238" stroke-width="2" stroke-miterlimit="10"/>
<path d="M284.261 275.55L278.717 269.676" stroke="#263238" stroke-width="2" stroke-miterlimit="10"/>
<path d="M280.367 271.458C280.367 271.458 280.499 268.884 278.189 266.772C276.737 265.518 269.279 262.35 268.553 264.99C267.761 267.828 275.417 273.438 280.367 271.458Z" fill="#92E3A9" stroke="#263238" stroke-miterlimit="10"/>
<path d="M280.367 271.458L273.239 266.97" stroke="#263238" stroke-width="0.5" stroke-miterlimit="10"/>
<path d="M285.648 288.882L280.104 283.008" stroke="#263238" stroke-width="2" stroke-miterlimit="10"/>
<path d="M281.753 284.791C281.753 284.791 281.885 282.217 279.575 280.105C278.123 278.851 270.665 275.683 269.939 278.323C269.147 281.161 276.803 286.771 281.753 284.791Z" fill="#92E3A9" stroke="#263238" stroke-miterlimit="10"/>
<path d="M281.753 284.79L274.625 280.302" stroke="#263238" stroke-width="0.5" stroke-miterlimit="10"/>
<path d="M280.828 243.012L275.284 237.204" stroke="#263238" stroke-width="2" stroke-miterlimit="10"/>
<path d="M277.001 238.92C277.001 238.92 277.133 236.346 274.823 234.234C273.371 232.98 265.913 229.812 265.187 232.452C264.395 235.29 272.051 240.966 277.001 238.92Z" fill="#92E3A9" stroke="#263238" stroke-miterlimit="10"/>
<path d="M277.001 238.92L269.873 234.498" stroke="#263238" stroke-width="0.5" stroke-miterlimit="10"/>
<path d="M282.215 256.345L276.671 250.471" stroke="#263238" stroke-width="2" stroke-miterlimit="10"/>
<path d="M278.387 252.252C278.387 252.252 278.52 249.678 276.21 247.566C274.758 246.312 267.299 243.144 266.573 245.784C265.781 248.622 273.437 254.298 278.387 252.252Z" fill="#92E3A9" stroke="#263238" stroke-miterlimit="10"/>
<path d="M278.388 252.252L271.26 247.83" stroke="#263238" stroke-width="0.5" stroke-miterlimit="10"/>
<path d="M278.584 221.364L273.04 215.556" stroke="#263238" stroke-width="2" stroke-miterlimit="10"/>
<path d="M274.691 217.272C274.691 217.272 274.823 214.698 272.513 212.586C271.061 211.332 263.603 208.164 262.877 210.804C262.085 213.642 269.807 219.318 274.691 217.272Z" fill="#92E3A9" stroke="#263238" stroke-miterlimit="10"/>
<path d="M274.691 217.272L267.562 212.85" stroke="#263238" stroke-width="0.5" stroke-miterlimit="10"/>
<path d="M276.274 199.651L270.73 193.777" stroke="#263238" stroke-width="2" stroke-miterlimit="10"/>
<path d="M272.447 195.558C272.447 195.558 272.579 192.984 270.269 190.872C268.817 189.618 261.359 186.45 260.633 189.09C259.841 191.928 267.497 197.538 272.447 195.558Z" fill="#92E3A9" stroke="#263238" stroke-miterlimit="10"/>
<path d="M272.447 195.558L265.319 191.07" stroke="#263238" stroke-width="0.5" stroke-miterlimit="10"/>
<path d="M283.271 267.63L287.495 260.766" stroke="#263238" stroke-width="2" stroke-miterlimit="10"/>
<path d="M286.242 262.878C286.242 262.878 285.582 260.37 287.43 257.796C288.552 256.278 295.218 251.658 296.472 254.034C297.792 256.74 291.456 263.802 286.242 262.878Z" fill="#92E3A9" stroke="#263238" stroke-miterlimit="10"/>
<path d="M286.241 262.878L292.643 256.74" stroke="#263238" stroke-width="0.5" stroke-miterlimit="10"/>
<path d="M279.642 232.584L283.866 225.72" stroke="#263238" stroke-width="2" stroke-miterlimit="10"/>
<path d="M282.546 227.766C282.546 227.766 281.886 225.258 283.734 222.684C284.856 221.166 291.522 216.546 292.776 218.922C294.162 221.628 287.826 228.756 282.546 227.766Z" fill="#92E3A9" stroke="#263238" stroke-miterlimit="10"/>
<path d="M282.545 227.766L289.013 221.628" stroke="#263238" stroke-width="0.5" stroke-miterlimit="10"/>
<path d="M278.057 217.206L282.215 210.342" stroke="#263238" stroke-width="2" stroke-miterlimit="10"/>
<path d="M280.961 212.388C280.961 212.388 280.301 209.88 282.149 207.306C283.271 205.788 289.937 201.168 291.191 203.544C292.511 206.25 286.175 213.312 280.961 212.388Z" fill="#92E3A9" stroke="#263238" stroke-miterlimit="10"/>
<path d="M280.96 212.389L287.362 206.251" stroke="#263238" stroke-width="0.5" stroke-miterlimit="10"/>
<path d="M275.681 194.568L279.905 187.704" stroke="#263238" stroke-width="2" stroke-miterlimit="10"/>
<path d="M278.585 189.75C278.585 189.75 277.925 187.242 279.773 184.668C280.895 183.15 287.561 178.53 288.815 180.906C290.201 183.612 283.865 190.74 278.585 189.75Z" fill="#92E3A9" stroke="#263238" stroke-miterlimit="10"/>
<path d="M278.585 189.75L284.987 183.612" stroke="#263238" stroke-width="0.5" stroke-miterlimit="10"/>
<path d="M273.899 180.114C273.899 180.114 273.239 177.606 275.087 175.032C276.209 173.514 282.875 168.894 284.129 171.27C285.449 173.976 279.113 181.104 273.899 180.114Z" fill="#92E3A9" stroke="#263238" stroke-miterlimit="10"/>
<path d="M273.898 180.115L280.3 174.043" stroke="#263238" stroke-width="0.5" stroke-miterlimit="10"/>
<path d="M274.229 180.378C274.229 180.378 271.655 180.774 269.345 178.662C267.959 177.408 263.999 170.28 266.573 169.29C269.345 168.234 275.747 175.296 274.229 180.378Z" fill="#92E3A9" stroke="#263238" stroke-miterlimit="10"/>
<path d="M274.229 180.378L268.817 173.382" stroke="#263238" stroke-width="0.5" stroke-miterlimit="10"/>
<path d="M306.24 196.944L294.096 314.094" stroke="#263238" stroke-width="2" stroke-miterlimit="10"/>
<path d="M296.735 291.786L292.511 284.922" stroke="#263238" stroke-width="2" stroke-miterlimit="10"/>
<path d="M293.832 286.968C293.832 286.968 294.492 284.46 292.644 281.886C291.522 280.368 284.856 275.748 283.602 278.19C282.216 280.83 288.552 287.892 293.832 286.968Z" fill="#92E3A9" stroke="#263238" stroke-miterlimit="10"/>
<path d="M293.832 286.968L287.76 281.16" stroke="#263238" stroke-width="0.5" stroke-miterlimit="10"/>
<path d="M300.1 259.249L295.876 252.385" stroke="#263238" stroke-width="2" stroke-miterlimit="10"/>
<path d="M297.197 254.43C297.197 254.43 297.857 251.922 296.009 249.348C294.887 247.83 288.221 243.21 286.967 245.652C285.581 248.292 291.917 255.42 297.197 254.43Z" fill="#92E3A9" stroke="#263238" stroke-miterlimit="10"/>
<path d="M297.197 254.43L291.125 248.622" stroke="#263238" stroke-width="0.5" stroke-miterlimit="10"/>
<path d="M298.715 272.581L294.557 265.717" stroke="#263238" stroke-width="2" stroke-miterlimit="10"/>
<path d="M295.812 267.762C295.812 267.762 296.471 265.254 294.623 262.68C293.501 261.162 286.836 256.542 285.582 258.984C284.196 261.624 290.598 268.752 295.812 267.762Z" fill="#92E3A9" stroke="#263238" stroke-miterlimit="10"/>
<path d="M295.811 267.762L289.739 261.954" stroke="#263238" stroke-width="0.5" stroke-miterlimit="10"/>
<path d="M302.345 237.6L298.187 230.736" stroke="#263238" stroke-width="2" stroke-miterlimit="10"/>
<path d="M299.441 232.782C299.441 232.782 300.101 230.274 298.253 227.7C297.131 226.182 290.465 221.562 289.211 224.004C287.825 226.644 294.227 233.772 299.441 232.782Z" fill="#92E3A9" stroke="#263238" stroke-miterlimit="10"/>
<path d="M299.441 232.782L293.369 226.974" stroke="#263238" stroke-width="0.5" stroke-miterlimit="10"/>
<path d="M304.656 215.886L300.432 208.956" stroke="#263238" stroke-width="2" stroke-miterlimit="10"/>
<path d="M301.686 211.068C301.686 211.068 302.346 208.56 300.498 205.986C299.376 204.468 292.71 199.848 291.456 202.29C290.136 204.93 296.472 211.992 301.686 211.068Z" fill="#92E3A9" stroke="#263238" stroke-miterlimit="10"/>
<path d="M301.685 211.068L295.613 205.26" stroke="#263238" stroke-width="0.5" stroke-miterlimit="10"/>
<path d="M297.462 283.866L303.006 277.992" stroke="#263238" stroke-width="2" stroke-miterlimit="10"/>
<path d="M301.289 279.774C301.289 279.774 301.157 277.2 303.467 275.088C304.919 273.834 312.377 270.666 313.103 273.306C313.895 276.144 306.239 281.754 301.289 279.774Z" fill="#92E3A9" stroke="#263238" stroke-miterlimit="10"/>
<path d="M301.29 279.774L308.88 275.088" stroke="#263238" stroke-width="0.5" stroke-miterlimit="10"/>
<path d="M301.092 248.82L306.636 242.946" stroke="#263238" stroke-width="2" stroke-miterlimit="10"/>
<path d="M304.986 244.662C304.986 244.662 304.854 242.088 307.164 239.976C308.616 238.722 316.074 235.554 316.8 238.194C317.592 241.032 309.87 246.708 304.986 244.662Z" fill="#92E3A9" stroke="#263238" stroke-miterlimit="10"/>
<path d="M304.985 244.662L312.509 239.976" stroke="#263238" stroke-width="0.5" stroke-miterlimit="10"/>
<path d="M302.676 233.376L308.22 227.502" stroke="#263238" stroke-width="2" stroke-miterlimit="10"/>
<path d="M306.57 229.284C306.57 229.284 306.438 226.71 308.748 224.598C310.2 223.344 317.658 220.176 318.384 222.816C319.176 225.654 311.52 231.264 306.57 229.284Z" fill="#92E3A9" stroke="#263238" stroke-miterlimit="10"/>
<path d="M306.569 229.284L314.093 224.598" stroke="#263238" stroke-width="0.5" stroke-miterlimit="10"/>
<path d="M305.051 210.804L310.595 204.93" stroke="#263238" stroke-width="2" stroke-miterlimit="10"/>
<path d="M308.879 206.646C308.879 206.646 308.747 204.072 311.057 201.96C312.509 200.706 319.967 197.538 320.693 200.178C321.485 203.082 313.829 208.692 308.879 206.646Z" fill="#92E3A9" stroke="#263238" stroke-miterlimit="10"/>
<path d="M308.879 206.646L316.469 202.026" stroke="#263238" stroke-width="0.5" stroke-miterlimit="10"/>
<path d="M306.239 196.284C306.239 196.284 306.107 193.71 308.417 191.598C309.869 190.344 317.327 187.176 318.053 189.816C318.845 192.654 311.189 198.264 306.239 196.284Z" fill="#92E3A9" stroke="#263238" stroke-miterlimit="10"/>
<path d="M306.239 196.284L313.829 191.598" stroke="#263238" stroke-width="0.5" stroke-miterlimit="10"/>
<path d="M306.569 196.614C306.569 196.614 303.995 196.482 302.147 193.908C301.025 192.39 298.649 184.602 301.355 184.14C304.259 183.678 309.077 191.928 306.569 196.614Z" fill="#92E3A9" stroke="#263238" stroke-miterlimit="10"/>
<path d="M306.569 196.614L302.675 188.628" stroke="#263238" stroke-width="0.5" stroke-miterlimit="10"/>
<path d="M292.313 149.226V297.396" stroke="#263238" stroke-width="2" stroke-miterlimit="10"/>
<path d="M292.379 275.088L287.495 268.752" stroke="#263238" stroke-width="2" stroke-miterlimit="10"/>
<path d="M289.013 270.666C289.013 270.666 289.409 268.092 287.297 265.782C286.043 264.396 278.915 260.436 277.925 263.01C276.869 265.716 283.865 272.118 289.013 270.666Z" fill="#92E3A9" stroke="#263238" stroke-miterlimit="10"/>
<path d="M289.014 270.666L282.348 265.452" stroke="#263238" stroke-width="0.5" stroke-miterlimit="10"/>
<path d="M292.379 247.302L287.495 240.9" stroke="#263238" stroke-width="2" stroke-miterlimit="10"/>
<path d="M289.013 242.814C289.013 242.814 289.409 240.24 287.297 237.93C286.043 236.544 278.915 232.584 277.925 235.158C276.869 237.864 283.865 244.266 289.013 242.814Z" fill="#92E3A9" stroke="#263238" stroke-miterlimit="10"/>
<path d="M289.014 242.814L282.348 237.666" stroke="#263238" stroke-width="0.5" stroke-miterlimit="10"/>
<path d="M292.379 214.566L287.495 208.164" stroke="#263238" stroke-width="2" stroke-miterlimit="10"/>
<path d="M289.013 210.078C289.013 210.078 289.409 207.504 287.297 205.194C286.043 203.808 278.915 199.848 277.925 202.422C276.869 205.194 283.865 211.596 289.013 210.078Z" fill="#92E3A9" stroke="#263238" stroke-miterlimit="10"/>
<path d="M289.014 210.078L282.348 204.93" stroke="#263238" stroke-width="0.5" stroke-miterlimit="10"/>
<path d="M292.379 192.786L287.495 186.384" stroke="#263238" stroke-width="2" stroke-miterlimit="10"/>
<path d="M289.013 188.364C289.013 188.364 289.409 185.79 287.297 183.48C286.043 182.094 278.915 178.134 277.925 180.708C276.869 183.414 283.865 189.816 289.013 188.364Z" fill="#92E3A9" stroke="#263238" stroke-miterlimit="10"/>
<path d="M289.014 188.364L282.348 183.15" stroke="#263238" stroke-width="0.5" stroke-miterlimit="10"/>
<path d="M292.379 170.94L287.495 164.538" stroke="#263238" stroke-width="2" stroke-miterlimit="10"/>
<path d="M289.013 166.452C289.013 166.452 289.409 163.878 287.297 161.568C286.043 160.182 278.915 156.222 277.925 158.796C276.869 161.568 283.865 167.97 289.013 166.452Z" fill="#92E3A9" stroke="#263238" stroke-miterlimit="10"/>
<path d="M289.014 166.452L282.348 161.304" stroke="#263238" stroke-width="0.5" stroke-miterlimit="10"/>
<path d="M292.312 283.603L297.196 277.201" stroke="#263238" stroke-width="2" stroke-miterlimit="10"/>
<path d="M295.679 279.115C295.679 279.115 295.283 276.541 297.395 274.231C298.649 272.845 305.777 268.885 306.767 271.459C307.889 274.231 300.827 280.633 295.679 279.115Z" fill="#92E3A9" stroke="#263238" stroke-miterlimit="10"/>
<path d="M295.678 279.115L302.74 273.703" stroke="#263238" stroke-width="0.5" stroke-miterlimit="10"/>
<path d="M292.312 239.316L297.196 232.914" stroke="#263238" stroke-width="2" stroke-miterlimit="10"/>
<path d="M295.679 234.828C295.679 234.828 295.283 232.254 297.395 229.944C298.649 228.558 305.777 224.598 306.767 227.172C307.889 229.944 300.827 236.346 295.679 234.828Z" fill="#92E3A9" stroke="#263238" stroke-miterlimit="10"/>
<path d="M295.678 234.828L302.74 229.416" stroke="#263238" stroke-width="0.5" stroke-miterlimit="10"/>
<path d="M292.312 217.47L297.196 211.068" stroke="#263238" stroke-width="2" stroke-miterlimit="10"/>
<path d="M295.679 212.982C295.679 212.982 295.283 210.408 297.395 208.098C298.649 206.712 305.777 202.752 306.767 205.326C307.889 208.098 300.827 214.5 295.679 212.982Z" fill="#92E3A9" stroke="#263238" stroke-miterlimit="10"/>
<path d="M295.678 212.982L302.74 207.57" stroke="#263238" stroke-width="0.5" stroke-miterlimit="10"/>
<path d="M292.312 188.563L297.196 182.161" stroke="#263238" stroke-width="2" stroke-miterlimit="10"/>
<path d="M295.679 184.075C295.679 184.075 295.283 181.501 297.395 179.191C298.649 177.805 305.777 173.845 306.767 176.419C307.889 179.191 300.827 185.593 295.679 184.075Z" fill="#92E3A9" stroke="#263238" stroke-miterlimit="10"/>
<path d="M295.678 184.074L302.74 178.662" stroke="#263238" stroke-width="0.5" stroke-miterlimit="10"/>
<path d="M292.313 165.858L297.197 159.456" stroke="#263238" stroke-width="2" stroke-miterlimit="10"/>
<path d="M295.68 161.37C295.68 161.37 295.284 158.796 297.396 156.486C298.65 155.1 305.778 151.14 306.768 153.714C307.89 156.486 300.828 162.888 295.68 161.37Z" fill="#92E3A9" stroke="#263238" stroke-miterlimit="10"/>
<path d="M295.68 161.37L302.742 155.958" stroke="#263238" stroke-width="0.5" stroke-miterlimit="10"/>
<path d="M291.985 151.338C291.985 151.338 291.589 148.764 293.701 146.454C294.955 145.068 302.083 141.108 303.073 143.682C304.195 146.388 297.133 152.79 291.985 151.338Z" fill="#92E3A9" stroke="#263238" stroke-miterlimit="10"/>
<path d="M291.983 151.338L299.045 145.86" stroke="#263238" stroke-width="0.5" stroke-miterlimit="10"/>
<path d="M292.38 151.602C292.38 151.602 289.806 151.734 287.694 149.358C286.44 147.906 283.272 140.448 285.912 139.722C288.75 138.996 294.36 146.652 292.38 151.602Z" fill="#92E3A9" stroke="#263238" stroke-miterlimit="10"/>
<path d="M292.379 151.602L287.693 144.078" stroke="#263238" stroke-width="0.5" stroke-miterlimit="10"/>
<path d="M298.385 316.074H282.677L280.763 296.208H300.365L298.385 316.074Z" fill="#263238" stroke="#263238" stroke-miterlimit="10"/>
<path d="M19.4688 180.774L31.7447 297.99" stroke="#263238" stroke-width="2" stroke-miterlimit="10"/>
<path d="M29.7647 275.55L24.2207 269.676" stroke="#263238" stroke-width="2" stroke-miterlimit="10"/>
<path d="M25.8714 271.458C25.8714 271.458 26.0034 268.884 23.6934 266.772C22.2414 265.518 14.7834 262.35 14.0574 264.99C13.2654 267.828 20.9874 273.438 25.8714 271.458Z" fill="#92E3A9" stroke="#263238" stroke-miterlimit="10"/>
<path d="M25.8712 271.458L18.7432 266.97" stroke="#263238" stroke-width="0.5" stroke-miterlimit="10"/>
<path d="M31.1524 288.882L25.6084 283.008" stroke="#263238" stroke-width="2" stroke-miterlimit="10"/>
<path d="M27.2576 284.79C27.2576 284.79 27.3896 282.216 25.0796 280.104C23.6276 278.85 16.1696 275.682 15.4436 278.322C14.7176 281.16 22.3736 286.77 27.2576 284.79Z" fill="#92E3A9" stroke="#263238" stroke-miterlimit="10"/>
<path d="M27.2579 284.79L20.1299 280.302" stroke="#263238" stroke-width="0.5" stroke-miterlimit="10"/>
<path d="M26.3328 243.012L20.7888 237.204" stroke="#263238" stroke-width="2" stroke-miterlimit="10"/>
<path d="M22.5054 238.92C22.5054 238.92 22.6374 236.346 20.3274 234.234C18.8754 232.98 11.4174 229.812 10.6914 232.452C9.89941 235.29 17.5554 240.966 22.5054 238.92Z" fill="#92E3A9" stroke="#263238" stroke-miterlimit="10"/>
<path d="M22.5057 238.92L15.3777 234.498" stroke="#263238" stroke-width="0.5" stroke-miterlimit="10"/>
<path d="M27.7862 256.345L22.2422 250.471" stroke="#263238" stroke-width="2" stroke-miterlimit="10"/>
<path d="M23.8914 252.252C23.8914 252.252 24.0234 249.678 21.7134 247.566C20.2614 246.312 12.8034 243.144 12.0774 245.784C11.2854 248.622 18.9414 254.298 23.8914 252.252Z" fill="#92E3A9" stroke="#263238" stroke-miterlimit="10"/>
<path d="M23.8917 252.252L16.7637 247.83" stroke="#263238" stroke-width="0.5" stroke-miterlimit="10"/>
<path d="M24.0889 221.364L18.5449 215.556" stroke="#263238" stroke-width="2" stroke-miterlimit="10"/>
<path d="M20.2615 217.272C20.2615 217.272 20.3935 214.698 18.0835 212.586C16.6315 211.332 9.17352 208.164 8.44752 210.804C7.65552 213.642 15.3115 219.318 20.2615 217.272Z" fill="#92E3A9" stroke="#263238" stroke-miterlimit="10"/>
<path d="M20.2618 217.272L13.1338 212.85" stroke="#263238" stroke-width="0.5" stroke-miterlimit="10"/>
<path d="M21.8448 199.651L16.3008 193.777" stroke="#263238" stroke-width="2" stroke-miterlimit="10"/>
<path d="M17.9515 195.558C17.9515 195.558 18.0835 192.984 15.7735 190.872C14.3215 189.618 6.86351 186.45 6.13751 189.09C5.34551 191.928 13.0675 197.538 17.9515 195.558Z" fill="#92E3A9" stroke="#263238" stroke-miterlimit="10"/>
<path d="M17.9512 195.558L10.8232 191.07" stroke="#263238" stroke-width="0.5" stroke-miterlimit="10"/>
<path d="M28.8418 267.63L33.0658 260.766" stroke="#263238" stroke-width="2" stroke-miterlimit="10"/>
<path d="M31.7464 262.878C31.7464 262.878 31.0864 260.37 32.9344 257.796C34.0564 256.278 40.7224 251.658 41.9764 254.034C43.3624 256.74 37.0264 263.802 31.7464 262.878Z" fill="#92E3A9" stroke="#263238" stroke-miterlimit="10"/>
<path d="M31.7451 262.878L38.1471 256.74" stroke="#263238" stroke-width="0.5" stroke-miterlimit="10"/>
<path d="M25.1455 232.584L29.3695 225.72" stroke="#263238" stroke-width="2" stroke-miterlimit="10"/>
<path d="M28.1156 227.766C28.1156 227.766 27.4556 225.258 29.3036 222.684C30.4256 221.166 37.0916 216.546 38.3456 218.922C39.6656 221.628 33.3296 228.756 28.1156 227.766Z" fill="#92E3A9" stroke="#263238" stroke-miterlimit="10"/>
<path d="M28.1152 227.766L34.5172 221.628" stroke="#263238" stroke-width="0.5" stroke-miterlimit="10"/>
<path d="M23.5615 217.206L27.7855 210.342" stroke="#263238" stroke-width="2" stroke-miterlimit="10"/>
<path d="M26.4661 212.388C26.4661 212.388 25.8061 209.88 27.6541 207.306C28.7761 205.788 35.4421 201.168 36.6961 203.544C38.0821 206.25 31.7461 213.312 26.4661 212.388Z" fill="#92E3A9" stroke="#263238" stroke-miterlimit="10"/>
<path d="M26.4648 212.389L32.9328 206.251" stroke="#263238" stroke-width="0.5" stroke-miterlimit="10"/>
<path d="M21.1855 194.568L25.4095 187.704" stroke="#263238" stroke-width="2" stroke-miterlimit="10"/>
<path d="M24.1558 189.75C24.1558 189.75 23.4958 187.242 25.3438 184.668C26.4658 183.15 33.1318 178.53 34.3858 180.906C35.7058 183.612 29.3698 190.74 24.1558 189.75Z" fill="#92E3A9" stroke="#263238" stroke-miterlimit="10"/>
<path d="M24.1555 189.75L30.5575 183.612" stroke="#263238" stroke-width="0.5" stroke-miterlimit="10"/>
<path d="M19.4029 180.114C19.4029 180.114 18.7429 177.606 20.5909 175.032C21.7129 173.514 28.3789 168.894 29.6329 171.27C30.9529 173.976 24.6169 181.104 19.4029 180.114Z" fill="#92E3A9" stroke="#263238" stroke-miterlimit="10"/>
<path d="M19.4036 180.114L25.8056 174.042" stroke="#263238" stroke-width="0.5" stroke-miterlimit="10"/>
<path d="M19.7996 180.378C19.7996 180.378 17.2256 180.774 14.9156 178.662C13.5296 177.408 9.56957 170.28 12.1436 169.29C14.8496 168.234 21.2516 175.296 19.7996 180.378Z" fill="#92E3A9" stroke="#263238" stroke-miterlimit="10"/>
<path d="M19.7995 180.378L14.3215 173.382" stroke="#263238" stroke-width="0.5" stroke-miterlimit="10"/>
<path d="M51.7436 196.944L39.5996 314.094" stroke="#263238" stroke-width="2" stroke-miterlimit="10"/>
<path d="M42.3051 291.786L38.0811 284.922" stroke="#263238" stroke-width="2" stroke-miterlimit="10"/>
<path d="M39.3355 286.968C39.3355 286.968 39.9955 284.46 38.1475 281.886C37.0255 280.368 30.3595 275.748 29.1055 278.19C27.7855 280.83 34.1215 287.892 39.3355 286.968Z" fill="#92E3A9" stroke="#263238" stroke-miterlimit="10"/>
<path d="M39.3357 286.968L33.2637 281.16" stroke="#263238" stroke-width="0.5" stroke-miterlimit="10"/>
<path d="M45.6703 259.248L41.4463 252.384" stroke="#263238" stroke-width="2" stroke-miterlimit="10"/>
<path d="M42.7007 254.43C42.7007 254.43 43.3607 251.922 41.5127 249.348C40.3907 247.83 33.7247 243.21 32.4707 245.652C31.1507 248.292 37.4867 255.42 42.7007 254.43Z" fill="#92E3A9" stroke="#263238" stroke-miterlimit="10"/>
<path d="M42.7009 254.43L36.6289 248.622" stroke="#263238" stroke-width="0.5" stroke-miterlimit="10"/>
<path d="M44.2855 272.581L40.0615 265.717" stroke="#263238" stroke-width="2" stroke-miterlimit="10"/>
<path d="M41.316 267.762C41.316 267.762 41.976 265.254 40.128 262.68C39.006 261.162 32.34 256.542 31.086 258.984C29.766 261.624 36.102 268.752 41.316 267.762Z" fill="#92E3A9" stroke="#263238" stroke-miterlimit="10"/>
<path d="M41.3165 267.762L35.3105 261.954" stroke="#263238" stroke-width="0.5" stroke-miterlimit="10"/>
<path d="M47.9147 237.6L43.6907 230.736" stroke="#263238" stroke-width="2" stroke-miterlimit="10"/>
<path d="M44.9451 232.782C44.9451 232.782 45.6051 230.274 43.7571 227.7C42.6351 226.182 35.9691 221.562 34.7151 224.004C33.3951 226.644 39.7311 233.772 44.9451 232.782Z" fill="#92E3A9" stroke="#263238" stroke-miterlimit="10"/>
<path d="M44.9457 232.782L38.9397 226.974" stroke="#263238" stroke-width="0.5" stroke-miterlimit="10"/>
<path d="M50.1586 215.887L45.9346 208.957" stroke="#263238" stroke-width="2" stroke-miterlimit="10"/>
<path d="M47.2555 211.068C47.2555 211.068 47.9155 208.56 46.0675 205.986C44.9455 204.468 38.2795 199.848 37.0255 202.29C35.6395 204.93 41.9755 211.992 47.2555 211.068Z" fill="#92E3A9" stroke="#263238" stroke-miterlimit="10"/>
<path d="M47.2556 211.068L41.1836 205.26" stroke="#263238" stroke-width="0.5" stroke-miterlimit="10"/>
<path d="M42.9658 283.866L48.5098 277.992" stroke="#263238" stroke-width="2" stroke-miterlimit="10"/>
<path d="M46.8598 279.774C46.8598 279.774 46.7278 277.2 49.0378 275.088C50.4898 273.834 57.9478 270.666 58.6738 273.306C59.4658 276.144 51.8098 281.754 46.8598 279.774Z" fill="#92E3A9" stroke="#263238" stroke-miterlimit="10"/>
<path d="M46.8594 279.774L54.3834 275.088" stroke="#263238" stroke-width="0.5" stroke-miterlimit="10"/>
<path d="M46.6619 248.82L52.1399 242.946" stroke="#263238" stroke-width="2" stroke-miterlimit="10"/>
<path d="M50.4894 244.662C50.4894 244.662 50.3574 242.088 52.6674 239.976C54.1194 238.722 61.5774 235.554 62.3034 238.194C63.0954 241.032 55.4394 246.708 50.4894 244.662Z" fill="#92E3A9" stroke="#263238" stroke-miterlimit="10"/>
<path d="M50.49 244.662L58.014 239.976" stroke="#263238" stroke-width="0.5" stroke-miterlimit="10"/>
<path d="M48.2451 233.376L53.7891 227.502" stroke="#263238" stroke-width="2" stroke-miterlimit="10"/>
<path d="M52.0727 229.284C52.0727 229.284 51.9407 226.71 54.2507 224.598C55.7027 223.344 63.1607 220.176 63.8867 222.816C64.6787 225.654 57.0227 231.264 52.0727 229.284Z" fill="#92E3A9" stroke="#263238" stroke-miterlimit="10"/>
<path d="M52.0732 229.284L59.6632 224.598" stroke="#263238" stroke-width="0.5" stroke-miterlimit="10"/>
<path d="M50.5547 210.804L56.0987 204.93" stroke="#263238" stroke-width="2" stroke-miterlimit="10"/>
<path d="M54.4487 206.646C54.4487 206.646 54.3167 204.072 56.6267 201.96C58.0787 200.706 65.5367 197.538 66.2627 200.178C67.0547 203.082 59.3987 208.692 54.4487 206.646Z" fill="#92E3A9" stroke="#263238" stroke-miterlimit="10"/>
<path d="M54.449 206.646L61.973 202.026" stroke="#263238" stroke-width="0.5" stroke-miterlimit="10"/>
<path d="M51.809 196.284C51.809 196.284 51.677 193.71 53.987 191.598C55.439 190.344 62.897 187.176 63.623 189.816C64.415 192.654 56.693 198.264 51.809 196.284Z" fill="#92E3A9" stroke="#263238" stroke-miterlimit="10"/>
<path d="M51.8096 196.284L59.3336 191.598" stroke="#263238" stroke-width="0.5" stroke-miterlimit="10"/>
<path d="M52.0731 196.614C52.0731 196.614 49.4991 196.482 47.6511 193.908C46.5291 192.39 44.1531 184.602 46.8591 184.14C49.8291 183.678 54.6471 191.928 52.0731 196.614Z" fill="#92E3A9" stroke="#263238" stroke-miterlimit="10"/>
<path d="M52.0731 196.614L48.2451 188.628" stroke="#263238" stroke-width="0.5" stroke-miterlimit="10"/>
<path d="M37.8174 149.226V297.396" stroke="#263238" stroke-width="2" stroke-miterlimit="10"/>
<path d="M37.949 275.088L32.999 268.752" stroke="#263238" stroke-width="2" stroke-miterlimit="10"/>
<path d="M34.5172 270.666C34.5172 270.666 34.9132 268.092 32.8012 265.782C31.5472 264.396 24.4192 260.436 23.4292 263.01C22.3732 265.716 29.4352 272.118 34.5172 270.666Z" fill="#92E3A9" stroke="#263238" stroke-miterlimit="10"/>
<path d="M34.518 270.666L27.918 265.452" stroke="#263238" stroke-width="0.5" stroke-miterlimit="10"/>
<path d="M37.949 247.302L32.999 240.9" stroke="#263238" stroke-width="2" stroke-miterlimit="10"/>
<path d="M34.5172 242.814C34.5172 242.814 34.9132 240.24 32.8012 237.93C31.5472 236.544 24.4192 232.584 23.4292 235.158C22.3732 237.864 29.4352 244.266 34.5172 242.814Z" fill="#92E3A9" stroke="#263238" stroke-miterlimit="10"/>
<path d="M34.518 242.814L27.918 237.666" stroke="#263238" stroke-width="0.5" stroke-miterlimit="10"/>
<path d="M37.949 214.566L32.999 208.164" stroke="#263238" stroke-width="2" stroke-miterlimit="10"/>
<path d="M34.5172 210.078C34.5172 210.078 34.9132 207.504 32.8012 205.194C31.5472 203.808 24.4192 199.848 23.4292 202.422C22.3732 205.194 29.4352 211.596 34.5172 210.078Z" fill="#92E3A9" stroke="#263238" stroke-miterlimit="10"/>
<path d="M34.518 210.078L27.918 204.93" stroke="#263238" stroke-width="0.5" stroke-miterlimit="10"/>
<path d="M37.949 192.786L32.999 186.384" stroke="#263238" stroke-width="2" stroke-miterlimit="10"/>
<path d="M34.5172 188.364C34.5172 188.364 34.9132 185.79 32.8012 183.48C31.5472 182.094 24.4192 178.134 23.4292 180.708C22.3732 183.414 29.4352 189.816 34.5172 188.364Z" fill="#92E3A9" stroke="#263238" stroke-miterlimit="10"/>
<path d="M34.518 188.364L27.918 183.15" stroke="#263238" stroke-width="0.5" stroke-miterlimit="10"/>
<path d="M37.949 170.94L32.999 164.538" stroke="#263238" stroke-width="2" stroke-miterlimit="10"/>
<path d="M34.5172 166.452C34.5172 166.452 34.9132 163.878 32.8012 161.568C31.5472 160.182 24.4192 156.222 23.4292 158.796C22.3732 161.568 29.4352 167.97 34.5172 166.452Z" fill="#92E3A9" stroke="#263238" stroke-miterlimit="10"/>
<path d="M34.518 166.452L27.918 161.304" stroke="#263238" stroke-width="0.5" stroke-miterlimit="10"/>
<path d="M37.8174 283.603L42.7014 277.201" stroke="#263238" stroke-width="2" stroke-miterlimit="10"/>
<path d="M41.2492 279.115C41.2492 279.115 40.8532 276.541 42.9652 274.231C44.2192 272.845 51.3472 268.885 52.3372 271.459C53.3932 274.231 46.3312 280.633 41.2492 279.115Z" fill="#92E3A9" stroke="#263238" stroke-miterlimit="10"/>
<path d="M41.249 279.115L48.245 273.703" stroke="#263238" stroke-width="0.5" stroke-miterlimit="10"/>
<path d="M37.8174 239.316L42.7014 232.914" stroke="#263238" stroke-width="2" stroke-miterlimit="10"/>
<path d="M41.2492 234.828C41.2492 234.828 40.8532 232.254 42.9652 229.944C44.2192 228.558 51.3472 224.598 52.3372 227.172C53.3932 229.944 46.3312 236.346 41.2492 234.828Z" fill="#92E3A9" stroke="#263238" stroke-miterlimit="10"/>
<path d="M41.249 234.828L48.245 229.416" stroke="#263238" stroke-width="0.5" stroke-miterlimit="10"/>
<path d="M37.8174 217.47L42.7014 211.068" stroke="#263238" stroke-width="2" stroke-miterlimit="10"/>
<path d="M41.2492 212.982C41.2492 212.982 40.8532 210.408 42.9652 208.098C44.2192 206.712 51.3472 202.752 52.3372 205.326C53.3932 208.098 46.3312 214.5 41.2492 212.982Z" fill="#92E3A9" stroke="#263238" stroke-miterlimit="10"/>
<path d="M41.249 212.982L48.245 207.57" stroke="#263238" stroke-width="0.5" stroke-miterlimit="10"/>
<path d="M37.8174 188.563L42.7014 182.161" stroke="#263238" stroke-width="2" stroke-miterlimit="10"/>
<path d="M41.2492 184.075C41.2492 184.075 40.8532 181.501 42.9652 179.191C44.2192 177.805 51.3472 173.845 52.3372 176.419C53.3932 179.191 46.3312 185.593 41.2492 184.075Z" fill="#92E3A9" stroke="#263238" stroke-miterlimit="10"/>
<path d="M41.249 184.074L48.245 178.662" stroke="#263238" stroke-width="0.5" stroke-miterlimit="10"/>
<path d="M37.8169 165.858L42.7009 159.456" stroke="#263238" stroke-width="2" stroke-miterlimit="10"/>
<path d="M41.2492 161.37C41.2492 161.37 40.8532 158.796 42.9652 156.486C44.2192 155.1 51.3472 151.14 52.3372 153.714C53.3932 156.486 46.3312 162.888 41.2492 161.37Z" fill="#92E3A9" stroke="#263238" stroke-miterlimit="10"/>
<path d="M41.2493 161.37L48.2453 155.958" stroke="#263238" stroke-width="0.5" stroke-miterlimit="10"/>
<path d="M37.5531 151.338C37.5531 151.338 37.1571 148.764 39.2691 146.454C40.5231 145.068 47.6511 141.108 48.6411 143.682C49.6971 146.388 42.6351 152.79 37.5531 151.338Z" fill="#92E3A9" stroke="#263238" stroke-miterlimit="10"/>
<path d="M37.552 151.338L44.548 145.86" stroke="#263238" stroke-width="0.5" stroke-miterlimit="10"/>
<path d="M37.8829 151.602C37.8829 151.602 35.3089 151.734 33.1969 149.358C31.9429 147.906 28.7749 140.448 31.4149 139.722C34.2529 138.996 39.9289 146.652 37.8829 151.602Z" fill="#92E3A9" stroke="#263238" stroke-miterlimit="10"/>
<path d="M37.8825 151.602L33.1965 144.078" stroke="#263238" stroke-width="0.5" stroke-miterlimit="10"/>
<path d="M43.8896 316.074H28.2476L26.2676 296.208H45.8696L43.8896 316.074Z" fill="#263238" stroke="#263238" stroke-miterlimit="10"/>
<path d="M5.87402 316.074H324.126" stroke="#263238" stroke-miterlimit="10" stroke-linecap="round" stroke-linejoin="round"/>
<g opacity="0.3">
<path d="M286.309 33.7922C286.309 33.7922 285.121 29.9642 281.689 28.9742C278.191 27.9842 276.475 32.2742 275.353 32.6702C274.165 33.0662 273.043 31.3502 271.657 31.4822C270.271 31.6142 270.337 33.9902 269.347 34.5842C268.357 35.1782 267.235 33.5942 265.651 34.1882C264.133 34.7822 263.539 36.1022 263.539 36.1022C263.539 36.1022 262.219 35.1122 260.833 35.3102C259.447 35.5082 258.127 37.6202 258.127 37.6202H293.239C293.239 37.6202 293.041 33.0002 291.523 32.4062C290.005 31.8122 288.091 34.3862 286.309 33.7922Z" stroke="black" stroke-miterlimit="10" stroke-linecap="round" stroke-linejoin="round"/>
<path d="M169.751 39.0058C169.751 39.0058 168.233 34.0558 163.811 32.8018C159.389 31.5478 157.079 37.0258 155.627 37.5538C154.109 38.0818 152.657 35.8378 150.875 36.0358C149.159 36.2998 149.159 39.2698 147.905 39.9958C146.651 40.7218 145.199 38.7418 143.153 39.4678C141.173 40.1938 140.447 41.9758 140.447 41.9758C140.447 41.9758 138.731 40.7218 136.949 40.9858C135.233 41.2498 133.451 43.9558 133.451 43.9558H178.661C178.661 43.9558 178.397 38.0158 176.417 37.2238C174.437 36.4978 171.995 39.7318 169.751 39.0058Z" stroke="black" stroke-miterlimit="10" stroke-linecap="round" stroke-linejoin="round"/>
<path d="M203.347 31.416C203.347 31.416 202.489 28.644 199.981 27.918C197.473 27.192 196.219 30.294 195.361 30.558C194.503 30.822 193.711 29.568 192.721 29.7C191.731 29.832 191.731 31.548 191.071 31.944C190.345 32.34 189.553 31.218 188.431 31.68C187.309 32.076 186.913 33.066 186.913 33.066C186.913 33.066 185.923 32.34 184.933 32.538C183.943 32.67 182.953 34.188 182.953 34.188H208.495C208.495 34.188 208.363 30.822 207.241 30.426C206.053 30.03 204.601 31.878 203.347 31.416Z" stroke="black" stroke-miterlimit="10" stroke-linecap="round" stroke-linejoin="round"/>
<path d="M53.7241 41.382C53.7241 41.382 52.8661 38.61 50.3581 37.884C47.8501 37.158 46.5961 40.26 45.7381 40.524C44.8801 40.788 44.0881 39.534 43.0981 39.666C42.1081 39.798 42.1081 41.514 41.4481 41.91C40.7221 42.306 39.9301 41.184 38.8081 41.646C37.6861 42.042 37.2901 43.032 37.2901 43.032C37.2901 43.032 36.3001 42.306 35.3101 42.504C34.3201 42.636 33.3301 44.154 33.3301 44.154H58.7401C58.7401 44.154 58.6081 40.788 57.4861 40.392C56.3641 39.996 54.9781 41.778 53.7241 41.382Z" stroke="black" stroke-miterlimit="10" stroke-linecap="round" stroke-linejoin="round"/>
</g>
<path d="M213.048 62.6339V129.558H147.378" stroke="#263238" stroke-miterlimit="10" stroke-linecap="round" stroke-linejoin="round"/>
<path d="M141.57 129.558H125.202V22.4398H213.048V58.2118" stroke="#263238" stroke-miterlimit="10" stroke-linecap="round" stroke-linejoin="round"/>
<path d="M148.236 206.844H125.202V138.402H213.048V206.844H154.044" stroke="#263238" stroke-miterlimit="10" stroke-linecap="round" stroke-linejoin="round"/>
<path d="M313.566 54.1858V130.812L225.72 129.558V22.4398L313.566 14.6519V48.4438" stroke="#263238" stroke-miterlimit="10" stroke-linecap="round" stroke-linejoin="round"/>
<path d="M313.566 214.698L225.72 206.844V138.402L313.566 140.448V214.698Z" stroke="#263238" stroke-miterlimit="10" stroke-linecap="round" stroke-linejoin="round"/>
<path d="M75.3721 19.2719L23.4961 14.6519V130.812L111.342 129.558V22.4398L79.4641 19.6019" stroke="#263238" stroke-miterlimit="10" stroke-linecap="round" stroke-linejoin="round"/>
<path d="M55.2421 139.722L23.4961 140.448V214.698L111.342 206.844V138.402L61.9741 139.524" stroke="#263238" stroke-miterlimit="10" stroke-linecap="round" stroke-linejoin="round"/>
<g opacity="0.3">
<path d="M67.9141 82.6979V49.8959H78.3421V81.6419H83.5561V34.2539H105.798" stroke="black" stroke-miterlimit="10" stroke-linecap="round" stroke-linejoin="round"/>
<path d="M42.3057 113.85H50.3577V100.122H59.3997V92.0698H67.9137V85.7998" stroke="black" stroke-miterlimit="10" stroke-linecap="round" stroke-linejoin="round"/>
<path d="M140.844 61.3141V53.1961H176.814V46.5961H191.532V64.0861H198.132V85.8661H204.798V69.7621H208.56" stroke="black" stroke-miterlimit="10" stroke-linecap="round" stroke-linejoin="round"/>
<path d="M130.415 76.8898H140.843V65.3398" stroke="black" stroke-miterlimit="10" stroke-linecap="round" stroke-linejoin="round"/>
<path d="M276.408 44.6816H284.856V99.6596" stroke="black" stroke-miterlimit="10" stroke-linecap="round" stroke-linejoin="round"/>
<path d="M227.039 69.7616H246.443V44.6816H271.919" stroke="black" stroke-miterlimit="10" stroke-linecap="round" stroke-linejoin="round"/>
<path d="M293.766 100.122H302.808V122.364H310.86" stroke="black" stroke-miterlimit="10" stroke-linecap="round" stroke-linejoin="round"/>
<path d="M263.537 123.288V100.122H290.597" stroke="black" stroke-miterlimit="10" stroke-linecap="round" stroke-linejoin="round"/>
<path d="M202.422 101.97H167.838V126.126" stroke="black" stroke-miterlimit="10" stroke-linecap="round" stroke-linejoin="round"/>
<path d="M160.247 88.2422H147.443V111.474" stroke="black" stroke-miterlimit="10" stroke-linecap="round" stroke-linejoin="round"/>
<path d="M184.403 101.508V88.2422H165.197" stroke="black" stroke-miterlimit="10" stroke-linecap="round" stroke-linejoin="round"/>
<path d="M158.399 112.926H131.339" stroke="black" stroke-miterlimit="10" stroke-linecap="round" stroke-linejoin="round"/>
<path d="M105.798 83.5559H84.0176V103.422" stroke="black" stroke-miterlimit="10" stroke-linecap="round" stroke-linejoin="round"/>
<path d="M27.1914 92.0699H33.3294V64.0859H65.0754" stroke="black" stroke-miterlimit="10" stroke-linecap="round" stroke-linejoin="round"/>
<path d="M286.241 73.59H302.345V81.18H309.935" stroke="black" stroke-miterlimit="10" stroke-linecap="round" stroke-linejoin="round"/>
<path d="M255.749 57.0239H250.073V62.6999H255.749V57.0239Z" stroke="black" stroke-miterlimit="10" stroke-linecap="round" stroke-linejoin="round"/>
<path d="M269.015 57.0239H263.339V62.6999H269.015V57.0239Z" stroke="black" stroke-miterlimit="10" stroke-linecap="round" stroke-linejoin="round"/>
<path d="M282.281 57.0239H276.605V62.6999H282.281V57.0239Z" stroke="black" stroke-miterlimit="10" stroke-linecap="round" stroke-linejoin="round"/>
<path d="M153.648 60.7859H147.972V66.4619H153.648V60.7859Z" stroke="black" stroke-miterlimit="10" stroke-linecap="round" stroke-linejoin="round"/>
<path d="M166.913 60.7859H161.237V66.4619H166.913V60.7859Z" stroke="black" stroke-miterlimit="10" stroke-linecap="round" stroke-linejoin="round"/>
<path d="M180.18 60.7859H174.504V66.4619H180.18V60.7859Z" stroke="black" stroke-miterlimit="10" stroke-linecap="round" stroke-linejoin="round"/>
<path d="M272.513 107.184H266.837V112.86H272.513V107.184Z" stroke="black" stroke-miterlimit="10" stroke-linecap="round" stroke-linejoin="round"/>
<path d="M285.779 107.184H280.103V112.86H285.779V107.184Z" stroke="black" stroke-miterlimit="10" stroke-linecap="round" stroke-linejoin="round"/>
<path d="M299.045 107.184H293.369V112.86H299.045V107.184Z" stroke="black" stroke-miterlimit="10" stroke-linecap="round" stroke-linejoin="round"/>
<path d="M177.803 107.184H172.127V112.86H177.803V107.184Z" stroke="black" stroke-miterlimit="10" stroke-linecap="round" stroke-linejoin="round"/>
<path d="M191.069 107.184H185.393V112.86H191.069V107.184Z" stroke="black" stroke-miterlimit="10" stroke-linecap="round" stroke-linejoin="round"/>
<path d="M204.335 107.184H198.659V112.86H204.335V107.184Z" stroke="black" stroke-miterlimit="10" stroke-linecap="round" stroke-linejoin="round"/>
<path d="M93.4553 41.382H87.7793V47.058H93.4553V41.382Z" stroke="black" stroke-miterlimit="10" stroke-linecap="round" stroke-linejoin="round"/>
<path d="M106.721 41.382H101.045V47.058H106.721V41.382Z" stroke="black" stroke-miterlimit="10" stroke-linecap="round" stroke-linejoin="round"/>
<path d="M93.4553 55.5719H87.7793V61.2479H93.4553V55.5719Z" stroke="black" stroke-miterlimit="10" stroke-linecap="round" stroke-linejoin="round"/>
<path d="M106.721 55.5719H101.045V61.2479H106.721V55.5719Z" stroke="black" stroke-miterlimit="10" stroke-linecap="round" stroke-linejoin="round"/>
<path d="M93.4555 69.7617H87.7795V75.4377H93.4555V69.7617Z" stroke="black" stroke-miterlimit="10" stroke-linecap="round" stroke-linejoin="round"/>
<path d="M106.721 69.7617H101.045V75.4377H106.721V69.7617Z" stroke="black" stroke-miterlimit="10" stroke-linecap="round" stroke-linejoin="round"/>
<path d="M43.2959 67.914H37.6199V73.59H43.2959V67.914Z" stroke="black" stroke-miterlimit="10" stroke-linecap="round" stroke-linejoin="round"/>
<path d="M56.4958 67.914H50.8198V73.59H56.4958V67.914Z" stroke="black" stroke-miterlimit="10" stroke-linecap="round" stroke-linejoin="round"/>
<path d="M43.2959 79.7277H37.6199V85.4037H43.2959V79.7277Z" stroke="black" stroke-miterlimit="10" stroke-linecap="round" stroke-linejoin="round"/>
<path d="M56.4958 79.7277H50.8198V85.4037H56.4958V79.7277Z" stroke="black" stroke-miterlimit="10" stroke-linecap="round" stroke-linejoin="round"/>
<path d="M177.803 119.064H172.127V124.74H177.803V119.064Z" stroke="black" stroke-miterlimit="10" stroke-linecap="round" stroke-linejoin="round"/>
<path d="M191.069 119.064H185.393V124.74H191.069V119.064Z" stroke="black" stroke-miterlimit="10" stroke-linecap="round" stroke-linejoin="round"/>
<path d="M204.335 119.064H198.659V124.74H204.335V119.064Z" stroke="black" stroke-miterlimit="10" stroke-linecap="round" stroke-linejoin="round"/>
<path d="M177.803 144.605H172.127V150.281H177.803V144.605Z" stroke="black" stroke-miterlimit="10" stroke-linecap="round" stroke-linejoin="round"/>
<path d="M191.069 144.605H185.393V150.281H191.069V144.605Z" stroke="black" stroke-miterlimit="10" stroke-linecap="round" stroke-linejoin="round"/>
<path d="M204.335 144.605H198.659V150.281H204.335V144.605Z" stroke="black" stroke-miterlimit="10" stroke-linecap="round" stroke-linejoin="round"/>
<path d="M177.803 157.938H172.127V163.614H177.803V157.938Z" stroke="black" stroke-miterlimit="10" stroke-linecap="round" stroke-linejoin="round"/>
<path d="M191.069 157.938H185.393V163.614H191.069V157.938Z" stroke="black" stroke-miterlimit="10" stroke-linecap="round" stroke-linejoin="round"/>
<path d="M204.335 157.938H198.659V163.614H204.335V157.938Z" stroke="black" stroke-miterlimit="10" stroke-linecap="round" stroke-linejoin="round"/>
<path d="M255.749 73.5898H250.073V79.2658H255.749V73.5898Z" stroke="black" stroke-miterlimit="10" stroke-linecap="round" stroke-linejoin="round"/>
<path d="M269.015 73.5898H263.339V79.2658H269.015V73.5898Z" stroke="black" stroke-miterlimit="10" stroke-linecap="round" stroke-linejoin="round"/>
<path d="M282.281 73.5898H276.605V79.2658H282.281V73.5898Z" stroke="black" stroke-miterlimit="10" stroke-linecap="round" stroke-linejoin="round"/>
<path d="M255.749 90.1558H250.073V95.8318H255.749V90.1558Z" stroke="black" stroke-miterlimit="10" stroke-linecap="round" stroke-linejoin="round"/>
<path d="M269.015 90.1558H263.339V95.8318H269.015V90.1558Z" stroke="black" stroke-miterlimit="10" stroke-linecap="round" stroke-linejoin="round"/>
<path d="M282.281 90.1558H276.605V95.8318H282.281V90.1558Z" stroke="black" stroke-miterlimit="10" stroke-linecap="round" stroke-linejoin="round"/>
<path d="M167.376 142.758V177.474" stroke="black" stroke-miterlimit="10" stroke-linecap="round" stroke-linejoin="round"/>
<path d="M33.9238 156.552H39.2698V143.22" stroke="black" stroke-miterlimit="10" stroke-linecap="round" stroke-linejoin="round"/>
</g>
<path d="M193.577 253.968L191.531 314.358C191.531 315.084 192.191 315.744 192.917 315.744C193.445 315.744 193.841 315.414 193.907 314.886L199.187 253.902H193.577V253.968Z" fill="white" stroke="#263238" stroke-miterlimit="10" stroke-linecap="round" stroke-linejoin="round"/>
<path d="M185.063 293.238C185.063 293.238 183.281 299.706 183.017 300.366C182.753 301.026 172.259 307.362 169.685 308.22C167.177 309.078 163.481 310.728 163.481 311.652C163.481 313.83 167.111 316.536 179.849 314.82C184.997 314.094 186.713 311.256 192.389 312.444C192.389 312.444 191.861 313.698 194.039 313.566C196.217 313.434 199.979 313.17 200.243 312.312C200.507 311.454 200.375 304.194 199.847 303.204C199.319 302.214 198.329 299.904 198.065 299.508C197.801 299.112 197.273 292.776 197.273 292.776L185.063 293.238Z" fill="white" stroke="#263238" stroke-miterlimit="10" stroke-linecap="round" stroke-linejoin="round"/>
<path d="M169.751 308.22C167.243 309.078 163.547 310.728 163.547 311.652C163.547 313.83 167.177 316.536 179.915 314.82C185.063 314.094 186.779 311.256 192.455 312.444C192.455 312.444 191.927 313.698 194.105 313.566C196.283 313.434 200.045 313.17 200.309 312.312C200.573 311.454 200.441 304.194 199.913 303.204C199.715 302.808 199.451 302.28 199.187 301.752C197.999 302.148 196.481 302.742 194.699 303.336C190.739 304.722 187.109 303.996 187.109 303.996C187.109 303.996 187.373 300.828 185.987 299.442C184.601 298.056 183.083 300.432 183.083 300.432C182.753 300.96 172.259 307.296 169.751 308.22Z" fill="#263238" stroke="#263238" stroke-miterlimit="10" stroke-linecap="round" stroke-linejoin="round"/>
<path d="M273.107 253.968L285.053 314.358C285.185 315.084 284.657 315.744 283.931 315.744C283.403 315.744 282.941 315.414 282.809 314.886L267.563 253.902H273.107V253.968Z" fill="white" stroke="#263238" stroke-miterlimit="10" stroke-linecap="round" stroke-linejoin="round"/>
<path d="M242.681 253.968L244.727 314.358C244.727 315.084 244.067 315.744 243.341 315.744C242.813 315.744 242.417 315.414 242.351 314.886L237.071 253.902H242.681V253.968Z" fill="white" stroke="#263238" stroke-miterlimit="10" stroke-linecap="round" stroke-linejoin="round"/>
<path d="M227.567 253.968L239.513 314.358C239.645 315.084 239.117 315.744 238.391 315.744C237.863 315.744 237.401 315.414 237.269 314.886L222.023 253.902H227.567V253.968Z" fill="white" stroke="#263238" stroke-miterlimit="10" stroke-linecap="round" stroke-linejoin="round"/>
<path d="M233.046 241.098H193.512V250.536H233.046V241.098Z" fill="#969696" stroke="#263238" stroke-miterlimit="10" stroke-linecap="round" stroke-linejoin="round"/>
<path d="M193.474 254.116H275.578V250.552H193.474V254.116Z" fill="white" stroke="#263238" stroke-miterlimit="10" stroke-linecap="round" stroke-linejoin="round"/>
<path d="M235.357 250.605H193.513V254.169H235.357V250.605Z" fill="white" stroke="#263238" stroke-miterlimit="10" stroke-linecap="round" stroke-linejoin="round"/>
<path d="M206.91 218.592C206.91 218.592 179.388 213.576 175.758 215.754C172.062 217.932 173.118 226.776 173.778 229.614C174.438 232.452 178.926 293.37 178.926 293.37L198.066 297.462L195.228 237.072L212.718 238.59L206.91 218.592Z" fill="#263238" stroke="#263238" stroke-miterlimit="10" stroke-linecap="round" stroke-linejoin="round"/>
<path d="M193.643 207.504C193.643 207.504 183.413 207.24 182.687 207.768C181.961 208.23 172.787 210.672 172.787 210.672L190.607 215.094L198.989 214.17L193.643 207.504Z" fill="white" stroke="#263238" stroke-miterlimit="10" stroke-linecap="round" stroke-linejoin="round"/>
<path d="M185.724 208.56L180.972 212.058L185.658 215.226L185.196 212.322C185.196 212.322 188.958 212.916 189.948 212.652C191.004 212.388 192.654 211.464 192.654 211.464" fill="white"/>
<path d="M185.724 208.56L180.972 212.058L185.658 215.226L185.196 212.322C185.196 212.322 188.958 212.916 189.948 212.652C191.004 212.388 192.654 211.464 192.654 211.464" stroke="#263238" stroke-miterlimit="10" stroke-linecap="round" stroke-linejoin="round"/>
<path d="M211.266 158.598L207.438 197.076C207.438 197.076 205.194 198.264 205.194 198.792C205.194 199.386 205.326 200.772 205.326 200.772L195.162 206.25L193.644 207.438L198.99 214.104L216.15 210.012L213.378 160.71L211.266 158.598Z" fill="#92E3A9" stroke="#263238" stroke-miterlimit="10" stroke-linecap="round" stroke-linejoin="round"/>
<path d="M213.047 202.95C213.047 202.95 211.001 201.564 207.833 200.046C204.665 198.528 208.823 199.056 210.671 199.782" stroke="#263238" stroke-miterlimit="10" stroke-linecap="round" stroke-linejoin="round"/>
<path d="M282.942 221.298C282.942 221.298 293.766 184.404 292.38 181.632C290.994 178.86 289.41 178.2 285.252 178.2H237.204L232.716 250.536L282.942 221.298Z" fill="#969696" stroke="#263238" stroke-miterlimit="10" stroke-linecap="round" stroke-linejoin="round"/>
<path d="M225.984 148.698C225.984 148.698 211.86 157.212 211.266 158.598C210.672 159.984 213.576 204.534 213.576 205.326C213.576 206.118 213.312 212.454 213.312 212.454L231.132 214.896C231.132 214.896 236.28 228.162 250.932 234.234C265.65 240.306 272.976 233.64 272.976 233.046C272.976 232.452 269.94 209.946 269.94 209.946C269.94 209.946 265.056 154.44 264.132 153.054C263.208 151.668 243.87 142.098 243.87 142.098L225.984 148.698Z" fill="#92E3A9" stroke="#263238" stroke-miterlimit="10" stroke-linecap="round" stroke-linejoin="round"/>
<path d="M258.72 221.1C259.776 221.364 260.898 221.496 262.02 221.562" stroke="#263238" stroke-miterlimit="10" stroke-linecap="round" stroke-linejoin="round"/>
<path d="M246.179 214.302C246.179 214.302 250.073 218.262 256.013 220.374" stroke="#263238" stroke-miterlimit="10" stroke-linecap="round" stroke-linejoin="round"/>
<path d="M241.493 214.17C241.493 214.17 244.331 218.79 247.631 220.704" stroke="#263238" stroke-miterlimit="10" stroke-linecap="round" stroke-linejoin="round"/>
<path d="M222.683 160.644L220.901 208.164L224.333 207.966L233.309 164.67L234.035 162.492L236.081 149.292L227.237 146.85L222.683 160.644Z" fill="white" stroke="#263238" stroke-miterlimit="10" stroke-linecap="round" stroke-linejoin="round"/>
<path d="M227.567 151.338L223.937 157.872L225.587 165.858L222.023 184.8L220.901 208.164L224.333 207.966L228.689 186.714L228.029 165.528L231.725 156.882L227.567 151.338Z" fill="#263238" stroke="#263238" stroke-miterlimit="10" stroke-linecap="round" stroke-linejoin="round"/>
<path d="M221.825 145.134L227.435 153.582L242.549 140.844L240.305 137.346L240.107 135.828L240.899 123.222L227.171 121.044L221.825 145.134Z" fill="white" stroke="#263238" stroke-miterlimit="10" stroke-linecap="round" stroke-linejoin="round"/>
<path d="M215.885 114.642C215.885 114.642 212.453 122.694 212.849 123.882C213.245 125.07 213.707 125.928 213.443 126.588C213.179 127.248 209.813 133.122 210.341 133.98C210.803 134.838 213.245 136.488 213.245 136.488C213.245 136.488 213.905 142.164 213.245 143.286C212.585 144.474 212.387 146.982 215.687 147.642C218.987 148.302 229.481 144.342 231.461 142.56C233.375 140.778 232.847 136.422 232.253 134.31C231.659 132.198 230.867 124.872 233.639 124.014C236.345 123.156 237.731 125.4 237.071 128.7C236.411 132 235.025 133.98 235.025 133.98L240.107 136.62C240.107 136.62 243.341 131.736 244.859 128.172C246.443 124.542 247.697 119.988 245.057 113.784C242.417 107.58 234.431 105.93 228.689 105.336C222.947 104.742 218.591 105.996 218.591 105.996C218.591 105.996 215.753 104.148 214.037 106.194C212.255 108.24 211.991 112.398 213.377 113.322C214.763 114.18 214.763 114.18 214.763 114.18C214.763 114.18 213.773 114.972 214.367 115.236C214.763 115.5 215.885 114.642 215.885 114.642Z" fill="white" stroke="#263238" stroke-miterlimit="10" stroke-linecap="round" stroke-linejoin="round"/>
<path d="M228.623 105.336C222.881 104.742 218.525 105.996 218.525 105.996C218.525 105.996 215.687 104.148 213.971 106.194C212.189 108.24 211.925 112.398 213.311 113.322C214.697 114.18 214.697 114.18 214.697 114.18C214.697 114.18 213.707 114.972 214.301 115.236L215.951 114.642C215.951 114.642 217.535 112.002 221.033 113.586C224.531 115.17 222.287 117.546 221.891 119.394C221.495 121.242 225.191 123.948 225.191 123.948C225.191 123.948 227.831 126.192 228.095 128.106C228.359 130.02 227.039 134.508 226.247 135.498C225.455 136.488 220.703 139.128 220.703 139.128C220.703 139.128 219.053 136.026 213.311 136.488C213.311 136.488 213.971 142.164 213.311 143.286C212.651 144.474 212.453 146.982 215.753 147.642C219.053 148.302 229.547 144.342 231.527 142.56C233.441 140.778 232.913 136.422 232.319 134.31C231.725 132.198 230.933 124.872 233.705 124.014C236.411 123.156 237.797 125.4 237.137 128.7C236.477 132 235.091 133.98 235.091 133.98L240.173 136.62C240.173 136.62 243.407 131.736 244.925 128.172C246.509 124.542 247.763 119.988 245.123 113.784C242.351 107.514 234.365 105.864 228.623 105.336Z" fill="#263238" stroke="#263238" stroke-miterlimit="10" stroke-linecap="round" stroke-linejoin="round"/>
<path d="M217.008 127.182C217.008 127.974 216.678 128.634 216.348 128.634C215.952 128.634 215.688 127.974 215.688 127.182C215.688 126.39 216.018 125.73 216.348 125.73C216.744 125.73 217.008 126.39 217.008 127.182Z" fill="#263238"/>
<path d="M214.103 124.476C214.103 124.476 215.687 122.628 218.195 124.014" stroke="#263238" stroke-width="2" stroke-miterlimit="10" stroke-linecap="round" stroke-linejoin="round"/>
<path d="M215.291 139.656C215.291 139.656 216.677 139.656 218.789 138.798" stroke="#8A8A8A" stroke-miterlimit="10" stroke-linecap="round" stroke-linejoin="round"/>
<path d="M215.291 129.162C215.291 129.162 216.083 130.944 217.535 131.406" stroke="#263238" stroke-miterlimit="10" stroke-linecap="round" stroke-linejoin="round"/>
<path d="M227.436 153.582L234.036 162.492L244.002 142.164L242.55 140.844L227.436 153.582Z" fill="white" stroke="#263238" stroke-miterlimit="10" stroke-linecap="round" stroke-linejoin="round"/>
<path d="M224.268 148.962L223.542 150.282L222.684 160.644L227.436 153.582L224.268 148.962Z" fill="white" stroke="#263238" stroke-miterlimit="10" stroke-linecap="round" stroke-linejoin="round"/>
<path d="M228.623 196.218L226.907 200.706" stroke="#263238" stroke-miterlimit="10" stroke-linecap="round" stroke-linejoin="round"/>
<path d="M245.19 150.018L243.342 159.324L237.864 160.248L241.032 164.01L229.284 194.568" stroke="#263238" stroke-miterlimit="10" stroke-linecap="round" stroke-linejoin="round"/>
<path d="M246.245 144.606L245.717 147.51" stroke="#263238" stroke-miterlimit="10" stroke-linecap="round" stroke-linejoin="round"/>
<path d="M218.591 182.424L219.779 201.432" stroke="#263238" stroke-miterlimit="10" stroke-linecap="round" stroke-linejoin="round"/>
<path d="M221.166 152.658L217.932 159.192L220.836 161.436L217.602 165.264L218.46 179.586" stroke="#263238" stroke-miterlimit="10" stroke-linecap="round" stroke-linejoin="round"/>
<path d="M195.757 214.83L165.198 208.296L164.604 210.738L195.097 217.404L195.757 214.83Z" fill="#263238" stroke="#263238" stroke-miterlimit="10" stroke-linecap="round" stroke-linejoin="round"/>
<path d="M207.174 209.814C207.174 209.814 200.508 207.834 200.046 207.702C199.584 207.57 197.274 207.24 196.416 207.966C195.624 208.692 193.38 209.616 192.918 209.748C192.456 209.88 190.608 210.804 190.344 211.53C190.08 212.256 191.4 213.048 192.786 212.718C194.172 212.388 197.076 211.332 197.076 211.332L199.782 212.058L192.192 215.82L186.582 215.952C186.582 215.952 187.638 217.206 188.232 217.47C188.826 217.734 193.578 219.252 193.578 219.252C193.578 219.252 197.208 220.44 199.188 220.308C201.168 220.176 206.976 216.348 206.976 216.348L207.174 209.814Z" fill="white" stroke="#263238" stroke-miterlimit="10" stroke-linecap="round" stroke-linejoin="round"/>
<path d="M251.393 158.136C251.393 158.136 244.067 165.264 243.935 167.706C243.803 170.148 239.975 201.036 239.975 201.036L206.117 209.22L206.381 216.942C206.381 216.942 254.627 213.312 255.221 212.982C255.815 212.652 256.739 209.946 256.739 209.946C256.739 209.946 264.989 167.838 264.989 166.122C264.989 164.406 264.065 155.76 263.339 154.704" fill="#92E3A9"/>
<path d="M251.393 158.136C251.393 158.136 244.067 165.264 243.935 167.706C243.803 170.148 239.975 201.036 239.975 201.036L206.117 209.22L206.381 216.942C206.381 216.942 254.627 213.312 255.221 212.982C255.815 212.652 256.739 209.946 256.739 209.946C256.739 209.946 264.989 167.838 264.989 166.122C264.989 164.406 264.065 155.76 263.339 154.704" stroke="#263238" stroke-miterlimit="10" stroke-linecap="round" stroke-linejoin="round"/>
<path d="M239.976 201.102L239.514 204.93" stroke="#263238" stroke-miterlimit="10" stroke-linecap="round" stroke-linejoin="round"/>
<path d="M211.202 294.228L206.648 301.686C206.648 301.686 193.58 308.814 192.458 309.276C191.336 309.804 186.65 310.398 186.518 311.586C186.386 312.708 186.518 313.632 186.65 314.226C186.782 314.886 192.458 316.734 200.114 316.602C207.704 316.47 216.482 315.084 216.482 315.084C216.482 315.084 215.954 315.612 218.396 315.612C220.772 315.612 225.524 314.754 225.722 313.83C225.986 312.972 225.854 308.22 225.062 305.712C224.27 303.204 222.752 300.366 222.752 300.366L222.488 296.34L211.202 294.228Z" fill="white" stroke="#263238" stroke-miterlimit="10" stroke-linecap="round" stroke-linejoin="round"/>
<path d="M186.449 311.586C186.317 312.708 186.449 313.632 186.581 314.226C186.713 314.886 192.389 316.734 200.045 316.602C207.701 316.47 216.413 315.084 216.413 315.084C216.413 315.084 215.885 315.612 218.327 315.612C220.703 315.612 225.455 314.754 225.653 313.83C225.917 312.972 225.785 308.22 224.993 305.712C224.597 304.392 224.003 303.006 223.541 302.016C219.119 303.072 212.849 303.204 212.849 303.204C212.849 303.204 212.717 299.376 210.341 298.914C209.219 298.65 208.295 299.31 207.701 299.97L206.645 301.686C206.645 301.686 193.577 308.814 192.455 309.276C191.267 309.804 186.581 310.464 186.449 311.586Z" fill="#263238" stroke="#263238" stroke-miterlimit="10" stroke-linecap="round" stroke-linejoin="round"/>
<path d="M251.064 234.3C236.346 228.228 231.264 214.962 231.264 214.962C231.264 214.962 208.164 213.774 205.326 214.962C202.488 216.15 201.96 218.13 202.356 219.978C202.686 221.826 201.828 293.502 201.828 293.502L222.816 298.188L226.182 238.986C226.182 238.986 260.37 242.682 266.178 240.834C270.138 239.58 271.194 236.742 271.26 234.762C268.158 236.544 261.426 238.59 251.064 234.3Z" fill="#263238" stroke="#263238" stroke-miterlimit="10" stroke-linecap="round" stroke-linejoin="round"/>
<path d="M275.616 250.602C275.616 250.602 283.8 221.958 283.206 221.298C282.612 220.704 243.078 224.73 237.336 227.832C231.594 230.934 224.928 250.602 224.928 250.602H275.616Z" fill="#696969" stroke="#263238" stroke-miterlimit="10" stroke-linecap="round" stroke-linejoin="round"/>
<path d="M51.81 253.968L39.864 314.358C39.732 315.084 40.26 315.744 40.986 315.744C41.514 315.744 41.976 315.414 42.108 314.886L57.354 253.902H51.81V253.968Z" fill="white" stroke="#263238" stroke-miterlimit="10" stroke-linecap="round" stroke-linejoin="round"/>
<path d="M82.2364 253.968L80.1904 314.358C80.1904 315.084 80.8504 315.744 81.5764 315.744C82.1044 315.744 82.5004 315.414 82.5664 314.886L87.8464 253.902H82.2364V253.968Z" fill="white" stroke="#263238" stroke-miterlimit="10" stroke-linecap="round" stroke-linejoin="round"/>
<path d="M97.3501 253.968L85.4041 314.358C85.2721 315.084 85.8001 315.744 86.5261 315.744C87.0541 315.744 87.5161 315.414 87.6481 314.886L102.894 253.902H97.3501V253.968Z" fill="white" stroke="#263238" stroke-miterlimit="10" stroke-linecap="round" stroke-linejoin="round"/>
<path d="M131.339 253.968L133.385 314.358C133.385 315.084 132.725 315.744 131.999 315.744C131.471 315.744 131.075 315.414 131.009 314.886L125.729 253.902H131.339V253.968Z" fill="white" stroke="#263238" stroke-miterlimit="10" stroke-linecap="round" stroke-linejoin="round"/>
<path d="M41.712 221.298C41.712 221.298 30.888 184.404 32.274 181.632C33.66 178.86 35.244 178.2 39.402 178.2H87.4499L91.9379 250.536L41.712 221.298Z" fill="#969696" stroke="#263238" stroke-miterlimit="10" stroke-linecap="round" stroke-linejoin="round"/>
<path d="M111.012 126.324C111.012 126.324 112.86 125.07 113.652 123.684C114.444 122.298 116.754 118.866 110.88 115.5C105.006 112.068 103.752 105.402 91.8064 109.428C79.8604 113.454 78.6064 120.252 78.9364 126.324C79.2664 132.396 75.7024 152.196 75.7024 152.196L104.676 158.07L105.468 146.454L107.976 125.664L111.012 126.324Z" fill="#263238" stroke="#263238" stroke-miterlimit="10" stroke-linecap="round" stroke-linejoin="round"/>
<path d="M105.138 155.364C105.138 155.364 111.672 158.07 111.936 159.984C112.2 161.898 115.368 189.552 115.368 189.552L124.08 197.472L120.78 204.666C120.78 204.666 112.332 201.564 109.758 200.442C107.184 199.32 103.884 193.908 103.884 193.908C103.884 193.908 105.534 173.91 103.752 167.772C101.97 161.634 100.65 153.714 100.65 153.714L105.138 155.364Z" fill="#92E3A9" stroke="#263238" stroke-miterlimit="10" stroke-linecap="round" stroke-linejoin="round"/>
<path d="M131.471 241.098H91.9375V250.536H131.471V241.098Z" fill="#969696" stroke="#263238" stroke-miterlimit="10" stroke-linecap="round" stroke-linejoin="round"/>
<path d="M131.407 250.602H49.3027V254.166H131.407V250.602Z" fill="white" stroke="#263238" stroke-miterlimit="10" stroke-linecap="round" stroke-linejoin="round"/>
<path d="M131.473 250.602H89.6287V254.166H131.473V250.602Z" fill="white" stroke="#263238" stroke-miterlimit="10" stroke-linecap="round" stroke-linejoin="round"/>
<path d="M116.556 210.276C116.556 210.276 133.056 209.748 135.63 211.068C136.29 211.398 139.194 213.048 140.118 215.622C144.474 227.964 159.984 259.512 162.426 263.736C165.396 268.752 173.184 279.972 173.184 279.972C173.184 279.972 183.018 286.506 183.546 288.156C184.074 289.806 182.028 290.73 179.058 290.862C176.088 290.994 168.036 289.212 165.33 287.76C162.624 286.242 157.278 285.186 154.968 283.8C153.516 282.942 153.45 281.49 154.044 279.84C154.572 278.19 156.486 272.514 156.486 272.514C156.486 272.514 148.434 258.786 142.428 255.09C133.122 249.414 136.29 233.772 131.076 228.228C125.928 222.618 117.414 230.076 112.662 232.782C107.91 235.488 103.818 238.656 103.818 238.656L116.556 210.276Z" fill="white" stroke="#263238" stroke-miterlimit="10" stroke-linecap="round" stroke-linejoin="round"/>
<path d="M173.185 279.84L171.271 282.81C171.271 282.81 161.899 279.972 158.599 278.322C157.411 277.728 156.157 277.134 154.969 276.606C154.573 277.86 154.177 279.048 153.913 279.708C153.385 281.358 153.451 282.81 154.837 283.668C157.147 285.054 162.493 286.11 165.199 287.628C167.905 289.146 175.957 290.928 178.927 290.73C181.897 290.598 183.943 289.608 183.415 288.024C183.019 286.374 173.185 279.84 173.185 279.84Z" fill="#92E3A9" stroke="#263238" stroke-miterlimit="10" stroke-linecap="round" stroke-linejoin="round"/>
<path d="M97.3496 241.758L116.424 241.626C116.424 241.626 112.992 256.344 114.114 261.624C115.236 266.904 116.688 288.486 116.82 295.944C116.952 303.402 115.17 311.322 115.038 312.576C114.906 313.83 117.612 315.15 119.526 315.282C121.44 315.414 124.674 315.414 126.984 316.668C129.294 317.922 132.858 319.374 137.082 319.374C141.306 319.374 145.398 319.506 144.408 317.064C143.484 314.622 138.402 314.226 135.168 310.794C131.868 307.362 126.984 303.6 126.984 302.346C126.984 301.092 127.512 276.606 129.558 269.544C131.604 262.482 135.564 245.718 135.3 239.976C135.036 234.234 135.168 232.32 135.036 231C134.904 229.614 130.416 222.156 122.364 224.994C114.312 227.832 104.544 238.194 104.544 238.194L97.3496 241.758Z" fill="white" stroke="#263238" stroke-miterlimit="10" stroke-linecap="round" stroke-linejoin="round"/>
<path d="M116.424 241.56L116.886 233.904" stroke="#263238" stroke-miterlimit="10" stroke-linecap="round" stroke-linejoin="round"/>
<path d="M144.473 317.064C143.549 314.622 138.467 314.226 135.233 310.794C135.035 310.596 134.837 310.398 134.639 310.2L132.791 313.83C132.791 313.83 122.429 310.53 119.063 308.088C117.875 307.23 116.951 306.636 116.159 306.108C115.697 309.408 115.169 311.916 115.103 312.576C114.971 313.83 117.677 315.15 119.591 315.282C121.505 315.414 124.739 315.414 127.049 316.668C129.359 317.922 132.923 319.374 137.147 319.374C141.371 319.374 145.397 319.506 144.473 317.064Z" fill="#92E3A9" stroke="#263238" stroke-miterlimit="10" stroke-linecap="round" stroke-linejoin="round"/>
<path d="M66.9903 199.254C66.9903 199.254 54.0543 215.028 54.4503 224.202C54.8463 233.31 57.0243 244.068 72.2703 245.982C87.5163 247.896 102.102 239.316 103.752 238.524C105.402 237.732 116.556 210.342 116.556 210.342L105.27 210.87L99.9903 200.904L66.9903 199.254Z" fill="#263238" stroke="#263238" stroke-miterlimit="10" stroke-linecap="round" stroke-linejoin="round"/>
<path d="M109.032 171.732C109.23 172.854 109.494 174.042 109.758 175.032C110.88 179.124 109.494 186.582 108.636 188.232C107.844 189.882 101.574 204.468 101.574 204.468C101.574 204.468 95.964 207.438 83.622 206.382C71.214 205.26 66.726 202.158 66.726 202.158C66.726 202.158 65.34 154.11 65.472 153.516C65.604 152.988 85.074 149.424 85.074 149.424L98.67 152.394L106.854 156.618" fill="#92E3A9"/>
<path d="M109.032 171.732C109.23 172.854 109.494 174.042 109.758 175.032C110.88 179.124 109.494 186.582 108.636 188.232C107.844 189.882 101.574 204.468 101.574 204.468C101.574 204.468 95.964 207.438 83.622 206.382C71.214 205.26 66.726 202.158 66.726 202.158C66.726 202.158 65.34 154.11 65.472 153.516C65.604 152.988 85.074 149.424 85.074 149.424L98.67 152.394L106.854 156.618" stroke="#263238" stroke-miterlimit="10" stroke-linecap="round" stroke-linejoin="round"/>
<path d="M92.3343 192.126L89.6943 193.05" stroke="#263238" stroke-miterlimit="10" stroke-linecap="round" stroke-linejoin="round"/>
<path d="M100.98 189.09L94.1816 191.466" stroke="#263238" stroke-miterlimit="10" stroke-linecap="round" stroke-linejoin="round"/>
<path d="M103.422 189.618L95.4355 192.918" stroke="#263238" stroke-miterlimit="10" stroke-linecap="round" stroke-linejoin="round"/>
<path d="M97.9443 173.052C98.6043 176.946 99.3963 182.028 99.5283 183.348C99.6603 185.592 98.7363 188.034 98.7363 188.034" stroke="#263238" stroke-miterlimit="10" stroke-linecap="round" stroke-linejoin="round"/>
<path d="M97.1523 168.3C97.1523 168.3 97.3503 169.356 97.6143 170.874" stroke="#263238" stroke-miterlimit="10" stroke-linecap="round" stroke-linejoin="round"/>
<path d="M107.844 164.34C107.844 164.34 108.108 166.254 108.504 168.63L107.844 164.34Z" fill="#92E3A9"/>
<path d="M107.844 164.34C107.844 164.34 108.108 166.254 108.504 168.63" stroke="#263238" stroke-miterlimit="10" stroke-linecap="round" stroke-linejoin="round"/>
<path d="M65.4722 153.45L61.9082 192.852L76.0982 189.816L79.2002 161.766" fill="#92E3A9"/>
<path d="M65.4722 153.45L61.9082 192.852L76.0982 189.816L79.2002 161.766" stroke="#263238" stroke-miterlimit="10" stroke-linecap="round" stroke-linejoin="round"/>
<path d="M72.0715 187.11L75.0415 186.846" stroke="#263238" stroke-miterlimit="10" stroke-linecap="round" stroke-linejoin="round"/>
<path d="M63.8215 187.902L69.7615 187.308" stroke="#263238" stroke-miterlimit="10" stroke-linecap="round" stroke-linejoin="round"/>
<path d="M74.1839 168.894C71.5439 163.944 67.7819 157.476 66.4619 157.344" stroke="#263238" stroke-miterlimit="10" stroke-linecap="round" stroke-linejoin="round"/>
<path d="M77.0883 174.372C77.0883 174.372 76.4943 173.184 75.5703 171.468" stroke="#263238" stroke-miterlimit="10" stroke-linecap="round" stroke-linejoin="round"/>
<path d="M67.7822 166.716L75.6362 174.372" stroke="#263238" stroke-miterlimit="10" stroke-linecap="round" stroke-linejoin="round"/>
<path d="M59.4658 192.852L63.1618 201.432L78.0118 193.512L77.3518 187.242L59.4658 192.852Z" fill="#92E3A9" stroke="#263238" stroke-miterlimit="10" stroke-linecap="round" stroke-linejoin="round"/>
<path d="M112.2 191.532C112.2 191.532 114.114 191.598 114.972 191.466C115.83 191.268 117.744 190.608 117.678 191.4C117.612 192.192 117.084 192.72 116.358 193.05C115.698 193.38 112.398 194.172 112.398 194.172L112.2 191.532Z" fill="white" stroke="#263238" stroke-miterlimit="10" stroke-linecap="round" stroke-linejoin="round"/>
<path d="M77.0228 194.04L98.4068 195.69C98.4068 195.69 107.383 188.76 108.637 188.232C109.891 187.704 114.247 187.704 114.247 187.704L119.989 188.958C119.989 188.958 119.461 189.882 117.811 190.212C116.161 190.542 115.369 189.684 115.369 189.684L110.221 190.608C110.221 190.608 114.049 192.258 114.445 192.522C114.841 192.786 113.653 195.36 113.323 196.35C113.059 197.274 112.135 200.706 111.409 199.452C111.145 199.056 111.277 198.528 111.145 197.934C111.013 197.34 110.287 197.142 110.287 197.142C110.287 197.142 107.845 199.188 105.799 200.112C103.753 201.036 99.9248 200.904 99.9248 200.904C99.9248 200.904 78.0128 204.864 73.2608 204.996C68.5088 205.128 67.9808 203.082 66.7268 202.158C65.4728 201.234 65.3408 200.376 65.3408 200.376L77.0228 194.04Z" fill="white" stroke="#263238" stroke-miterlimit="10" stroke-linecap="round" stroke-linejoin="round"/>
<path d="M109.494 192.324C109.494 192.324 113.322 192.984 113.652 194.106" stroke="#263238" stroke-miterlimit="10" stroke-linecap="round" stroke-linejoin="round"/>
<path d="M108.636 194.37C108.636 194.37 112.53 194.964 112.794 195.294C113.058 195.624 113.322 196.218 113.322 196.218" stroke="#263238" stroke-miterlimit="10" stroke-linecap="round" stroke-linejoin="round"/>
<path d="M125.664 173.514L108.504 208.362C108.504 208.362 114.906 208.494 123.486 207.24C132.066 205.986 135.762 204.666 135.762 204.666L153.582 176.22C153.582 176.22 146.52 178.134 125.664 173.514Z" fill="white" stroke="#263238" stroke-miterlimit="10" stroke-linecap="round" stroke-linejoin="round"/>
<path d="M144.341 193.908C144.341 193.908 136.289 194.7 136.553 195.426C136.751 196.152 144.605 196.218 144.935 195.756C145.265 195.162 145.265 193.512 144.341 193.908Z" fill="white" stroke="#263238" stroke-miterlimit="10" stroke-linecap="round" stroke-linejoin="round"/>
<path d="M142.889 196.152C142.889 196.152 135.629 196.944 135.827 197.67C136.025 198.396 143.087 198.462 143.351 198C143.681 197.472 143.681 195.756 142.889 196.152Z" fill="white" stroke="#263238" stroke-miterlimit="10" stroke-linecap="round" stroke-linejoin="round"/>
<path d="M141.371 200.376C141.371 200.376 135.695 199.848 135.695 200.508C135.695 201.168 141.041 202.422 141.371 202.026C141.701 201.63 142.031 200.112 141.371 200.376Z" fill="white" stroke="#263238" stroke-miterlimit="10" stroke-linecap="round" stroke-linejoin="round"/>
<path d="M142.163 198.858C142.163 198.858 134.903 198.066 134.969 198.792C135.035 199.518 141.899 201.102 142.295 200.706C142.691 200.244 143.087 198.594 142.163 198.858Z" fill="white" stroke="#263238" stroke-miterlimit="10" stroke-linecap="round" stroke-linejoin="round"/>
<path d="M67.9143 218.988C67.9143 218.988 88.5063 212.454 102.894 211.068" stroke="#8A8A8A" stroke-miterlimit="10" stroke-linecap="round" stroke-linejoin="round"/>
<path d="M49.3015 250.602C49.3015 250.602 41.1175 221.958 41.7115 221.298C42.3055 220.704 81.8395 224.73 87.5815 227.832C93.3235 230.934 99.9895 250.602 99.9895 250.602H49.3015Z" fill="#696969" stroke="#263238" stroke-miterlimit="10" stroke-linecap="round" stroke-linejoin="round"/>
<path d="M97.2178 163.417L102.168 153.913L98.0758 150.481L97.2178 163.417Z" fill="#92E3A9" stroke="#263238" stroke-miterlimit="10" stroke-linecap="round" stroke-linejoin="round"/>
<path d="M89.4963 138.864L87.7803 149.952L96.8223 166.122C96.8223 166.122 99.0663 152.328 99.5283 150.414C99.9903 148.5 100.518 147.576 100.518 147.576L90.0243 137.544L89.4963 138.864Z" fill="white" stroke="#263238" stroke-miterlimit="10" stroke-linecap="round" stroke-linejoin="round"/>
<path d="M92.7958 151.998L88.5718 163.944L84.2158 148.104L86.5918 144.276L92.7958 151.998Z" fill="#92E3A9" stroke="#263238" stroke-miterlimit="10" stroke-linecap="round" stroke-linejoin="round"/>
<path d="M92.7962 151.998L94.9082 162.294L90.9482 157.278L92.7962 151.998Z" fill="#263238" stroke="#263238" stroke-miterlimit="10" stroke-linecap="round" stroke-linejoin="round"/>
<path d="M102.168 153.912L102.3 162.69L99.4619 159.522L102.168 153.912Z" fill="#263238" stroke="#263238" stroke-miterlimit="10" stroke-linecap="round" stroke-linejoin="round"/>
<path d="M106.458 119.46C106.458 119.46 103.818 123.486 98.8024 125.73C93.7864 127.974 90.6184 128.832 90.6184 128.832C90.6184 128.832 91.4764 131.208 89.8924 131.538C88.3084 131.802 87.7804 130.35 87.2524 130.218C86.7244 130.086 84.4804 129.954 83.6884 132.99C82.8964 136.026 86.9224 140.844 89.7604 139.986C89.7604 139.986 90.8824 144.078 92.1364 145.134C93.7204 146.52 98.9344 150.48 105.27 149.358C108.966 148.698 110.946 140.844 111.078 138.204C111.21 135.564 111.342 132.462 111.012 130.746C110.616 129.096 112.596 126.852 110.088 123.816C107.514 120.846 106.458 119.46 106.458 119.46Z" fill="white" stroke="#263238" stroke-miterlimit="10" stroke-linecap="round" stroke-linejoin="round"/>
<path d="M106.459 129.228C106.459 129.228 105.139 133.518 105.139 134.31C105.139 135.102 107.449 137.874 107.119 138.336C106.723 138.798 104.281 140.448 103.489 140.184" stroke="#263238" stroke-miterlimit="10" stroke-linecap="round" stroke-linejoin="round"/>
<path d="M98.1428 141.24C98.1428 141.24 100.255 143.616 104.479 142.758" stroke="#263238" stroke-miterlimit="10" stroke-linecap="round" stroke-linejoin="round"/>
<path d="M101.971 129.294C101.971 129.294 99.1989 127.908 96.0969 130.218" stroke="#263238" stroke-miterlimit="10" stroke-linecap="round" stroke-linejoin="round"/>
<path d="M107.382 128.832C107.382 128.832 109.362 127.512 110.484 128.37" stroke="#263238" stroke-miterlimit="10" stroke-linecap="round" stroke-linejoin="round"/>
<path d="M100.717 133.254C100.717 134.046 100.387 134.706 100.057 134.706C99.6607 134.706 99.3967 134.046 99.3967 133.254C99.3967 132.462 99.7267 131.802 100.057 131.802C100.387 131.802 100.717 132.462 100.717 133.254Z" fill="#263238"/>
<path d="M108.768 132.858C108.768 133.65 108.438 134.31 108.108 134.31C107.712 134.31 107.448 133.65 107.448 132.858C107.448 132.066 107.778 131.406 108.108 131.406C108.438 131.406 108.768 132.066 108.768 132.858Z" fill="#263238"/>
<defs>
<filter id="filter0_d_379_10285" x="8.17871" y="8.56299" width="320.513" height="309.846" filterUnits="userSpaceOnUse" color-interpolation-filters="sRGB">
<feFlood flood-opacity="0" result="BackgroundImageFix"/>
<feColorMatrix in="SourceAlpha" type="matrix" values="0 0 0 0 0 0 0 0 0 0 0 0 0 0 0 0 0 0 127 0" result="hardAlpha"/>
<feOffset dx="2" dy="2"/>
<feGaussianBlur stdDeviation="2"/>
<feComposite in2="hardAlpha" operator="out"/>
<feColorMatrix type="matrix" values="0 0 0 0 0 0 0 0 0 0 0 0 0 0 0 0 0 0 0.25 0"/>
<feBlend mode="normal" in2="BackgroundImageFix" result="effect1_dropShadow_379_10285"/>
<feBlend mode="normal" in="SourceGraphic" in2="effect1_dropShadow_379_10285" result="shape"/>
</filter>
</defs>
</svg>
